<?xml version="1.0" standalone="no"?>
 <!DOCTYPE svg PUBLIC "-//W3C//DTD SVG 1.1//EN" 
 "http://www.w3.org/Graphics/SVG/1.1/DTD/svg11.dtd"> 
<svg
  xmlns:svg="http://www.w3.org/2000/svg"
  xmlns="http://www.w3.org/2000/svg"
  xmlns:xlink="http://www.w3.org/1999/xlink"
  xmlns:inkscape="http://www.inkscape.org/namespaces/inkscape"
  version="1.1"
  width="74.9808mm" height="49.9872mm" viewBox="0.0000 0.0000 74.9808 49.9872">
<title>SVG Image created as board-back.svg date 2026-07-12T14:26:41 </title>
  <desc>Image generated by PCBNEW </desc>
<g style="fill:#000000; fill-opacity:1.0000;stroke:#000000; stroke-opacity:1.0000;
stroke-linecap:round; stroke-linejoin:round;"
 transform="translate(0 0) scale(1 1)">
<path style="fill:#4D7FC4; fill-opacity:1.0000; stroke:none;fill-rule:evenodd;"
d="M 27.2000,3.4500
27.2190,3.3543
27.2732,3.2732
27.3543,3.2190
27.4500,3.2000
28.5500,3.2000
28.6457,3.2190
28.7268,3.2732
28.7810,3.3543
28.8000,3.4500
28.8000,4.5500
28.7810,4.6457
28.7268,4.7268
28.6457,4.7810
28.5500,4.8000
27.4500,4.8000
27.3543,4.7810
27.2732,4.7268
27.2190,4.6457
27.2000,4.5500
Z" /> 
</g>
<g style="fill:#4D7FC4; fill-opacity:1.0000; stroke:none;">
<circle cx="30.5000" cy="4.0000" r="0.8000" /> 
<path style="fill:#4D7FC4; fill-opacity:1.0000; stroke:none;fill-rule:evenodd;"
d="M 16.6500,24.8500
16.6500,23.1500
18.3500,23.1500
18.3500,24.8500
Z" /> 
<circle cx="17.5000" cy="26.5400" r="0.8500" /> 
<path style="fill:#4D7FC4; fill-opacity:1.0000; stroke:none;fill-rule:evenodd;"
d="M 53.5000,24.2500
53.5190,24.1543
53.5732,24.0732
53.6543,24.0190
53.7500,24.0000
55.2500,24.0000
55.3457,24.0190
55.4268,24.0732
55.4810,24.1543
55.5000,24.2500
55.5000,25.7500
55.4810,25.8457
55.4268,25.9268
55.3457,25.9810
55.2500,26.0000
53.7500,26.0000
53.6543,25.9810
53.5732,25.9268
53.5190,25.8457
53.5000,25.7500
Z" /> 
<circle cx="59.5000" cy="25.0000" r="1.0000" /> 
<path style="fill:#4D7FC4; fill-opacity:1.0000; stroke:none;fill-rule:evenodd;"
d="M 20.1500,10.3500
20.1500,8.6500
21.8500,8.6500
21.8500,10.3500
Z" /> 
<circle cx="21.0000" cy="12.0400" r="0.8500" /> 
<circle cx="21.0000" cy="14.5800" r="0.8500" /> 
<circle cx="21.0000" cy="17.1200" r="0.8500" /> 
<circle cx="53.5000" cy="13.5000" r="0.8000" /> 
<circle cx="63.6600" cy="13.5000" r="0.8000" /> 
<circle cx="52.5000" cy="33.5000" r="0.8000" /> 
<circle cx="57.5000" cy="33.5000" r="0.8000" /> 
<path style="fill:#4D7FC4; fill-opacity:1.0000; stroke:none;fill-rule:evenodd;"
d="M 38.9500,41.3500
38.9500,39.6500
40.6500,39.6500
40.6500,41.3500
Z" /> 
<circle cx="39.8000" cy="43.0400" r="0.8500" /> 
<circle cx="39.8000" cy="45.5800" r="0.8500" /> 
<path style="fill:#4D7FC4; fill-opacity:1.0000; stroke:none;fill-rule:evenodd;"
d="M 10.8000,36.1500
10.8190,36.0543
10.8732,35.9732
10.9543,35.9190
11.0500,35.9000
12.5500,35.9000
12.6457,35.9190
12.7268,35.9732
12.7810,36.0543
12.8000,36.1500
12.8000,37.6500
12.7810,37.7457
12.7268,37.8268
12.6457,37.8810
12.5500,37.9000
11.0500,37.9000
10.9543,37.8810
10.8732,37.8268
10.8190,37.7457
10.8000,37.6500
Z" /> 
<circle cx="16.8000" cy="36.9000" r="1.0000" /> 
<path style="fill:#4D7FC4; fill-opacity:1.0000; stroke:none;fill-rule:evenodd;"
d="M 61.6500,33.3500
61.6500,31.6500
63.3500,31.6500
63.3500,33.3500
Z" /> 
<circle cx="62.5000" cy="35.0400" r="0.8500" /> 
<circle cx="62.5000" cy="37.5800" r="0.8500" /> 
<circle cx="62.5000" cy="40.1200" r="0.8500" /> 
<circle cx="62.5000" cy="42.6600" r="0.8500" /> 
<circle cx="62.5000" cy="45.2000" r="0.8500" /> 
<circle cx="3.0000" cy="2.3000" r="0.8000" /> 
<circle cx="13.1600" cy="2.3000" r="0.8000" /> 
<path style="fill:#4D7FC4; fill-opacity:1.0000; stroke:none;fill-rule:evenodd;"
d="M 69.1500,12.8500
69.1500,11.1500
70.8500,11.1500
70.8500,12.8500
Z" /> 
<circle cx="70.0000" cy="14.5400" r="0.8500" /> 
<circle cx="70.0000" cy="17.0800" r="0.8500" /> 
<path style="fill:#4D7FC4; fill-opacity:1.0000; stroke:none;fill-rule:evenodd;"
d="M 44.1500,41.8500
44.1500,40.1500
45.8500,40.1500
45.8500,41.8500
Z" /> 
<circle cx="45.0000" cy="43.5400" r="0.8500" /> 
<path style="fill:#4D7FC4; fill-opacity:1.0000; stroke:none;fill-rule:evenodd;"
d="M 11.6500,14.3500
11.6500,12.6500
13.3500,12.6500
13.3500,14.3500
Z" /> 
<circle cx="12.5000" cy="16.0400" r="0.8500" /> 
<circle cx="12.5000" cy="18.5800" r="0.8500" /> 
<circle cx="12.5000" cy="21.1200" r="0.8500" /> 
<circle cx="12.5000" cy="23.6600" r="0.8500" /> 
<circle cx="12.5000" cy="26.2000" r="0.8500" /> 
<circle cx="12.5000" cy="28.7400" r="0.8500" /> 
<circle cx="53.5000" cy="9.5000" r="0.8000" /> 
<circle cx="63.6600" cy="9.5000" r="0.8000" /> 
<path style="fill:#4D7FC4; fill-opacity:1.0000; stroke:none;fill-rule:evenodd;"
d="M 69.1500,3.3500
69.1500,1.6500
70.8500,1.6500
70.8500,3.3500
Z" /> 
<circle cx="70.0000" cy="5.0400" r="0.8500" /> 
<circle cx="3.0000" cy="6.3000" r="0.8000" /> 
<circle cx="13.1600" cy="6.3000" r="0.8000" /> 
<path style="fill:#4D7FC4; fill-opacity:1.0000; stroke:none;fill-rule:evenodd;"
d="M 39.1500,3.3500
39.1500,1.6500
40.8500,1.6500
40.8500,3.3500
Z" /> 
<circle cx="40.0000" cy="5.0400" r="0.8500" /> 
<circle cx="40.0000" cy="7.5800" r="0.8500" /> 
<path style="fill:#4D7FC4; fill-opacity:1.0000; stroke:none;fill-rule:evenodd;"
d="M 10.7000,44.9500
10.7190,44.8543
10.7732,44.7732
10.8543,44.7190
10.9500,44.7000
12.0500,44.7000
12.1457,44.7190
12.2268,44.7732
12.2810,44.8543
12.3000,44.9500
12.3000,46.0500
12.2810,46.1457
12.2268,46.2268
12.1457,46.2810
12.0500,46.3000
10.9500,46.3000
10.8543,46.2810
10.7732,46.2268
10.7190,46.1457
10.7000,46.0500
Z" /> 
<circle cx="14.0000" cy="45.5000" r="0.8000" /> 
<circle cx="53.5000" cy="17.5000" r="0.8000" /> 
<circle cx="63.6600" cy="17.5000" r="0.8000" /> 
<path style="fill:#4D7FC4; fill-opacity:1.0000; stroke:none;fill-rule:evenodd;"
d="M 1.9000,44.4500
1.9190,44.3543
1.9732,44.2732
2.0543,44.2190
2.1500,44.2000
3.8500,44.2000
3.9457,44.2190
4.0268,44.2732
4.0810,44.3543
4.1000,44.4500
4.1000,46.1500
4.0810,46.2457
4.0268,46.3268
3.9457,46.3810
3.8500,46.4000
2.1500,46.4000
2.0543,46.3810
1.9732,46.3268
1.9190,46.2457
1.9000,46.1500
Z" /> 
<circle cx="5.5400" cy="45.3000" r="1.1000" /> 
<path style="fill:#4D7FC4; fill-opacity:1.0000; stroke:none;fill-rule:evenodd;"
d="M 18.6000,46.4000
18.6000,44.6000
20.4000,44.6000
20.4000,46.4000
Z" /> 
<circle cx="22.0400" cy="45.5000" r="0.9000" /> 
<circle cx="28.5000" cy="41.5000" r="1.0000" /> 
<circle cx="35.0000" cy="41.5000" r="1.0000" /> 
<circle cx="28.5000" cy="46.0000" r="1.0000" /> 
<circle cx="35.0000" cy="46.0000" r="1.0000" /> 
<path style="fill:#4D7FC4; fill-opacity:1.0000; stroke:none;fill-rule:evenodd;"
d="M 60.4750,5.2500
60.4750,3.7500
61.5250,3.7500
61.5250,5.2500
Z" /> 
</g>
<g style="fill:none; 
stroke:#4D7FC4; stroke-width:1.0500; stroke-opacity:1; 
stroke-linecap:round; stroke-linejoin:round;">
<path d="M62.2700 4.2750
L62.2700 4.7250
" />
<path d="M63.5400 4.2750
L63.5400 4.7250
" />
<path style="fill:#4D7FC4; fill-opacity:1.0000; stroke:none;fill-rule:evenodd;"
d="M 52.7000,38.9500
52.7190,38.8543
52.7732,38.7732
52.8543,38.7190
52.9500,38.7000
54.0500,38.7000
54.1457,38.7190
54.2268,38.7732
54.2810,38.8543
54.3000,38.9500
54.3000,40.0500
54.2810,40.1457
54.2268,40.2268
54.1457,40.2810
54.0500,40.3000
52.9500,40.3000
52.8543,40.2810
52.7732,40.2268
52.7190,40.1457
52.7000,40.0500
Z" /> 
</g>
<g style="fill:#4D7FC4; fill-opacity:1.0000; stroke:none;">
<circle cx="56.0000" cy="39.5000" r="0.8000" /> 
<path style="fill:#4D7FC4; fill-opacity:1.0000; stroke:none;fill-rule:evenodd;"
d="M 25.2200,14.4200
25.2200,12.7200
26.9200,12.7200
26.9200,14.4200
Z" /> 
<circle cx="26.0700" cy="16.1100" r="0.8500" /> 
<circle cx="26.0700" cy="18.6500" r="0.8500" /> 
<circle cx="26.0700" cy="21.1900" r="0.8500" /> 
<circle cx="26.0700" cy="23.7300" r="0.8500" /> 
<circle cx="26.0700" cy="26.2700" r="0.8500" /> 
<circle cx="26.0700" cy="28.8100" r="0.8500" /> 
<circle cx="26.0700" cy="31.3500" r="0.8500" /> 
<circle cx="26.0700" cy="33.8900" r="0.8500" /> 
<circle cx="26.0700" cy="36.4300" r="0.8500" /> 
<path style="fill:#4D7FC4; fill-opacity:1.0000; stroke:none;fill-rule:evenodd;"
d="M 17.1500,3.6500
17.1500,1.9500
18.8500,1.9500
18.8500,3.6500
Z" /> 
<circle cx="18.0000" cy="5.3400" r="0.8500" /> 
<circle cx="44.5000" cy="4.0000" r="0.8000" /> 
<circle cx="49.5000" cy="4.0000" r="0.8000" /> 
<path style="fill:#4D7FC4; fill-opacity:1.0000; stroke:none;fill-rule:evenodd;"
d="M 48.0800,14.4200
48.0800,12.7200
49.7800,12.7200
49.7800,14.4200
Z" /> 
<circle cx="48.9300" cy="16.1100" r="0.8500" /> 
<circle cx="48.9300" cy="18.6500" r="0.8500" /> 
<circle cx="48.9300" cy="21.1900" r="0.8500" /> 
<circle cx="48.9300" cy="23.7300" r="0.8500" /> 
<circle cx="48.9300" cy="26.2700" r="0.8500" /> 
<circle cx="48.9300" cy="28.8100" r="0.8500" /> 
<circle cx="48.9300" cy="31.3500" r="0.8500" /> 
<circle cx="48.9300" cy="33.8900" r="0.8500" /> 
<circle cx="48.9300" cy="36.4300" r="0.8500" /> 
<circle cx="40.2495" cy="36.6685" r="0.4000" /> 
<circle cx="17.5940" cy="11.1894" r="0.4000" /> 
<circle cx="15.1298" cy="27.9369" r="0.4000" /> 
<circle cx="51.9348" cy="22.9436" r="0.4000" /> 
</g>
<g style="fill:none; 
stroke:#4D7FC4; stroke-width:0.2500; stroke-opacity:1; 
stroke-linecap:round; stroke-linejoin:round;">
<path d="M24.2466 16.8266
L24.2466 10.6767
" />
</g>
<g style="fill:none; 
stroke:#4D7FC4; stroke-width:0.5000; stroke-opacity:1; 
stroke-linecap:round; stroke-linejoin:round;">
<path d="M26.0700 18.6500
L24.2466 16.8266
" />
</g>
<g style="fill:none; 
stroke:#4D7FC4; stroke-width:0.2500; stroke-opacity:1; 
stroke-linecap:round; stroke-linejoin:round;">
<path d="M40.9200 7.5800
L40.9767 7.6367
" />
<path d="M40.9200 7.5800
L44.5000 4.0000
" />
<path d="M24.2466 7.7534
L24.2466 10.6767
" />
</g>
<g style="fill:none; 
stroke:#4D7FC4; stroke-width:0.5000; stroke-opacity:1; 
stroke-linecap:round; stroke-linejoin:round;">
<path d="M28.0000 4.0000
L24.2466 7.7534
" />
</g>
<g style="fill:none; 
stroke:#4D7FC4; stroke-width:0.2500; stroke-opacity:1; 
stroke-linecap:round; stroke-linejoin:round;">
<path d="M24.2466 10.6767
L21.0000 10.6767
" />
<path d="M40.0000 7.5800
L40.9200 7.5800
" />
</g>
<g style="fill:none; 
stroke:#4D7FC4; stroke-width:0.5000; stroke-opacity:1; 
stroke-linecap:round; stroke-linejoin:round;">
<path d="M40.9767 41.8633
L39.8000 43.0400
" />
<path d="M21.0000 9.5000
L21.0000 10.6767
" />
</g>
<g style="fill:none; 
stroke:#4D7FC4; stroke-width:0.2500; stroke-opacity:1; 
stroke-linecap:round; stroke-linejoin:round;">
<path d="M40.9767 7.6367
L40.9767 41.8633
" />
</g>
<g style="fill:none; 
stroke:#4D7FC4; stroke-width:0.5000; stroke-opacity:1; 
stroke-linecap:round; stroke-linejoin:round;">
<path d="M61.0000 4.5000
L60.1483 4.5000
" />
</g>
<g style="fill:none; 
stroke:#4D7FC4; stroke-width:0.2500; stroke-opacity:1; 
stroke-linecap:round; stroke-linejoin:round;">
<path d="M12.5000 26.3347
L16.8000 30.6347
" />
</g>
<g style="fill:none; 
stroke:#4D7FC4; stroke-width:0.5000; stroke-opacity:1; 
stroke-linecap:round; stroke-linejoin:round;">
<path d="M64.5940 30.0940
L59.5000 25.0000
" />
<path d="M16.8000 30.6347
L16.8000 36.9000
" />
</g>
<g style="fill:none; 
stroke:#4D7FC4; stroke-width:0.2500; stroke-opacity:1; 
stroke-linecap:round; stroke-linejoin:round;">
<path d="M42.9600 45.5800
L39.8000 45.5800
" />
<path d="M45.0000 43.5400
L42.9600 45.5800
" />
</g>
<g style="fill:none; 
stroke:#4D7FC4; stroke-width:0.5000; stroke-opacity:1; 
stroke-linecap:round; stroke-linejoin:round;">
<path d="M56.8000 39.5000
L56.8000 34.2000
" />
</g>
<g style="fill:none; 
stroke:#4D7FC4; stroke-width:0.2500; stroke-opacity:1; 
stroke-linecap:round; stroke-linejoin:round;">
<path d="M62.5000 45.2000
L56.8000 39.5000
" />
<path d="M64.5940 43.1060
L64.5940 30.0940
" />
<path d="M21.0000 12.0400
L18.0000 9.0400
" />
</g>
<g style="fill:none; 
stroke:#4D7FC4; stroke-width:0.5000; stroke-opacity:1; 
stroke-linecap:round; stroke-linejoin:round;">
<path d="M18.0000 9.0400
L18.0000 5.3400
" />
<path d="M56.8000 34.2000
L57.5000 33.5000
" />
<path d="M60.1483 4.5000
L59.5000 5.1483
" />
<path d="M16.8000 36.9000
L16.8000 42.7000
" />
</g>
<g style="fill:none; 
stroke:#4D7FC4; stroke-width:0.2500; stroke-opacity:1; 
stroke-linecap:round; stroke-linejoin:round;">
<path d="M12.5000 26.2000
L12.5000 26.3347
" />
</g>
<g style="fill:none; 
stroke:#4D7FC4; stroke-width:0.5000; stroke-opacity:1; 
stroke-linecap:round; stroke-linejoin:round;">
<path d="M56.8000 39.5000
L56.0000 39.5000
" />
</g>
<g style="fill:none; 
stroke:#4D7FC4; stroke-width:0.2500; stroke-opacity:1; 
stroke-linecap:round; stroke-linejoin:round;">
<path d="M16.8000 42.7000
L14.0000 45.5000
" />
<path d="M62.5000 45.2000
L64.5940 43.1060
" />
</g>
<g style="fill:none; 
stroke:#4D7FC4; stroke-width:0.5000; stroke-opacity:1; 
stroke-linecap:round; stroke-linejoin:round;">
<path d="M59.5000 5.1483
L59.5000 25.0000
" />
</g>
<g style="fill:none; 
stroke:#4D7FC4; stroke-width:0.2500; stroke-opacity:1; 
stroke-linecap:round; stroke-linejoin:round;">
<path d="M52.3702 17.9636
L54.5000 20.0934
" />
<path d="M52.3702 14.6298
L52.3702 17.9636
" />
<path d="M3.0000 19.2400
L12.5000 28.7400
" />
</g>
<g style="fill:none; 
stroke:#4D7FC4; stroke-width:0.5000; stroke-opacity:1; 
stroke-linecap:round; stroke-linejoin:round;">
<path d="M11.8000 29.4400
L11.8000 36.9000
" />
<path d="M12.5000 28.7400
L11.8000 29.4400
" />
<path d="M54.5000 20.0934
L54.5000 25.0000
" />
</g>
<g style="fill:none; 
stroke:#4D7FC4; stroke-width:0.2500; stroke-opacity:1; 
stroke-linecap:round; stroke-linejoin:round;">
<path d="M53.5000 13.5000
L52.3702 14.6298
" />
</g>
<g style="fill:none; 
stroke:#4D7FC4; stroke-width:0.5000; stroke-opacity:1; 
stroke-linecap:round; stroke-linejoin:round;">
<path d="M3.0000 6.3000
L3.0000 19.2400
" />
<path d="M11.5000 45.5000
L11.5000 37.2000
" />
<path d="M11.5000 37.2000
L11.8000 36.9000
" />
</g>
<g style="fill:none; 
stroke:#4D7FC4; stroke-width:0.2500; stroke-opacity:1; 
stroke-linecap:round; stroke-linejoin:round;">
<path d="M21.0000 14.5800
L22.1767 15.7567
" />
<path d="M22.1767 15.7567
L22.1767 19.0418
" />
<path d="M27.2626 27.6174
L26.0700 28.8100
" />
<path d="M22.1767 19.0418
L25.5949 22.4600
" />
<path d="M25.5949 22.4600
L26.5166 22.4600
" />
<path d="M27.2626 23.2060
L27.2626 27.6174
" />
<path d="M26.5166 22.4600
L27.2626 23.2060
" />
<path d="M21.4139 21.6139
L21.4139 17.5339
" />
<path d="M21.4139 17.5339
L21.0000 17.1200
" />
<path d="M26.0700 26.2700
L21.4139 21.6139
" />
<path d="M68.8233 8.3367
L63.6600 13.5000
" />
<path d="M68.8233 4.4856
L68.8233 8.3367
" />
<path d="M69.6322 3.6767
L68.8233 4.4856
" />
<path d="M70.0000 3.6767
L69.6322 3.6767
" />
<path d="M70.0000 2.5000
L70.0000 3.6767
" />
</g>
<g style="fill:none; 
stroke:#4D7FC4; stroke-width:0.5000; stroke-opacity:1; 
stroke-linecap:round; stroke-linejoin:round;">
<path d="M52.5000 33.5000
L53.5000 34.5000
" />
<path d="M53.5000 34.5000
L53.5000 39.5000
" />
</g>
<g style="fill:none; 
stroke:#4D7FC4; stroke-width:0.2500; stroke-opacity:1; 
stroke-linecap:round; stroke-linejoin:round;">
<path d="M40.2495 36.6685
L39.8000 37.1180
" />
<path d="M39.8000 37.1180
L39.8000 40.5000
" />
<path d="M48.9300 21.1900
L48.9300 21.8847
" />
<path d="M61.5470 35.0400
L62.5000 35.0400
" />
<path d="M51.0476 24.5406
L61.5470 35.0400
" />
<path d="M51.0476 24.0023
L51.0476 24.5406
" />
<path d="M48.9300 21.8847
L51.0476 24.0023
" />
<path d="M61.2738 33.7700
L62.9006 33.7700
" />
<path d="M51.2081 18.3881
L51.2081 23.2445
" />
<path d="M48.9300 16.1100
L51.2081 18.3881
" />
<path d="M51.2081 23.2445
L51.4831 23.5195
" />
<path d="M51.4831 23.7990
L51.4993 23.8152
" />
<path d="M63.6906 34.5600
L63.6906 36.3894
" />
<path d="M60.7997 33.6539
L61.1577 33.6539
" />
<path d="M62.9006 33.7700
L63.6906 34.5600
" />
<path d="M51.4993 24.3535
L60.7997 33.6539
" />
<path d="M63.6906 36.3894
L62.5000 37.5800
" />
<path d="M51.4831 23.5195
L51.4831 23.7990
" />
<path d="M61.1577 33.6539
L61.2738 33.7700
" />
<path d="M51.4993 23.8152
L51.4993 24.3535
" />
<path d="M48.9300 13.5700
L50.1067 13.5700
" />
<path d="M64.1423 38.4777
L64.1423 31.9772
" />
<path d="M55.4215 23.2564
L55.4215 13.7841
" />
<path d="M64.1423 31.9772
L55.4215 23.2564
" />
<path d="M62.5000 40.1200
L64.1423 38.4777
" />
<path d="M51.3034 12.3733
L50.1067 13.5700
" />
<path d="M55.4215 13.7841
L54.0107 12.3733
" />
<path d="M54.0107 12.3733
L51.3034 12.3733
" />
<path d="M47.7438 24.2259
L47.7438 19.8362
" />
<path d="M62.5000 42.6600
L58.6267 38.7867
" />
<path d="M48.5179 25.0000
L47.7438 24.2259
" />
<path d="M58.6267 38.7867
L58.6267 33.0332
" />
<path d="M47.7438 19.8362
L48.9300 18.6500
" />
<path d="M50.5935 25.0000
L48.5179 25.0000
" />
<path d="M58.6267 33.0332
L50.5935 25.0000
" />
<path d="M16.8638 9.4315
L16.8638 8.3620
" />
<path d="M22.7076 14.6087
L21.4089 13.3100
" />
<path d="M26.0700 21.1900
L22.7076 17.8276
" />
<path d="M21.4089 13.3100
L20.5678 13.3100
" />
<path d="M18.3207 11.0629
L18.3207 10.8884
" />
<path d="M22.7076 17.8276
L22.7076 14.6087
" />
<path d="M16.8638 8.3620
L10.8018 2.3000
" />
<path d="M20.5678 13.3100
L18.3207 11.0629
" />
</g>
<g style="fill:none; 
stroke:#4D7FC4; stroke-width:0.5000; stroke-opacity:1; 
stroke-linecap:round; stroke-linejoin:round;">
<path d="M10.8018 2.3000
L3.0000 2.3000
" />
</g>
<g style="fill:none; 
stroke:#4D7FC4; stroke-width:0.2500; stroke-opacity:1; 
stroke-linecap:round; stroke-linejoin:round;">
<path d="M18.3207 10.8884
L16.8638 9.4315
" />
<path d="M17.5940 11.1894
L17.5940 15.3781
" />
<path d="M20.7750 28.5950
L26.0700 33.8900
" />
<path d="M17.5940 15.3781
L20.7750 18.5591
" />
<path d="M20.7750 18.5591
L20.7750 28.5950
" />
<path d="M15.1298 27.9369
L15.1298 16.9388
" />
<path d="M12.5000 13.5000
L12.5000 14.6767
" />
<path d="M12.8677 14.6767
L12.5000 14.6767
" />
<path d="M15.1298 16.9388
L12.8677 14.6767
" />
<path d="M53.5000 9.5000
L50.8379 9.5000
" />
<path d="M49.3922 14.8415
L50.3172 15.7665
" />
<path d="M51.9348 18.3092
L51.9348 22.9436
" />
<path d="M50.3172 16.6916
L51.9348 18.3092
" />
<path d="M50.3172 15.7665
L50.3172 16.6916
" />
<path d="M48.0394 14.8415
L49.3922 14.8415
" />
<path d="M50.8379 9.5000
L47.7533 12.5846
" />
<path d="M47.7533 14.5554
L48.0394 14.8415
" />
<path d="M47.7533 12.5846
L47.7533 14.5554
" />
<path d="M63.6600 9.5000
L62.2700 8.1100
" />
<path d="M62.2700 8.1100
L62.2700 4.5000
" />
</g>
<g style="fill:none; 
stroke:#4D7FC4; stroke-width:0.5000; stroke-opacity:1; 
stroke-linecap:round; stroke-linejoin:round;">
<path d="M19.4985 44.2718
L19.5000 44.2733
" />
</g>
<g style="fill:none; 
stroke:#4D7FC4; stroke-width:0.2500; stroke-opacity:1; 
stroke-linecap:round; stroke-linejoin:round;">
<path d="M19.3129 17.8559
L19.4985 18.0415
" />
<path d="M19.4985 18.0415
L19.4985 44.2718
" />
<path d="M19.3129 17.8559
L19.4985 18.0415
" />
</g>
<g style="fill:none; 
stroke:#4D7FC4; stroke-width:0.5000; stroke-opacity:1; 
stroke-linecap:round; stroke-linejoin:round;">
<path d="M19.5000 45.5000
L19.5000 44.2733
" />
</g>
<g style="fill:none; 
stroke:#4D7FC4; stroke-width:0.2500; stroke-opacity:1; 
stroke-linecap:round; stroke-linejoin:round;">
<path d="M13.1600 6.3000
L13.1600 11.7030
" />
<path d="M13.1600 11.7030
L19.3129 17.8559
" />
<path d="M26.0700 36.4300
L38.8233 23.6767
" />
<path d="M38.8233 4.4856
L39.6322 3.6767
" />
<path d="M39.6322 3.6767
L40.0000 3.6767
" />
<path d="M38.8233 23.6767
L38.8233 4.4856
" />
<path d="M40.0000 2.5000
L40.0000 3.6767
" />
<path style="fill:#4D7FC4; fill-opacity:1.0000; stroke:none;fill-rule:evenodd;"
d="M 74.4425,0.5202
74.4883,0.5730
74.4995,0.6245
74.4995,49.3755
74.4798,49.4425
74.4270,49.4883
74.3755,49.4995
0.6245,49.4995
0.5575,49.4798
0.5117,49.4270
0.5005,49.3755
0.5005,44.4000
1.3995,44.4000
1.3995,46.2000
1.4100,46.3028
1.4581,46.4479
1.4652,46.4693
1.5573,46.6187
1.6813,46.7427
1.8307,46.8348
1.9972,46.8900
2.1000,46.9005
2.1000,46.9005
2.5564,46.9005
2.6235,46.9202
2.6692,46.9730
2.6792,47.0421
2.6501,47.1057
2.6253,47.1276
2.4897,47.2182
2.4897,47.2182
2.3782,47.3297
2.3782,47.3297
2.2906,47.4608
2.2906,47.4608
2.2303,47.6065
2.2303,47.6065
2.1995,47.7612
2.1995,47.9188
2.2303,48.0735
2.2303,48.0735
2.2906,48.2192
2.2906,48.2192
2.3782,48.3503
2.3782,48.3503
2.4897,48.4618
2.4897,48.4618
2.6208,48.5494
2.6208,48.5494
2.7665,48.6097
2.7665,48.6097
2.9212,48.6405
2.9212,48.6405
2.9212,48.6405
3.0788,48.6405
3.0788,48.6405
3.2335,48.6097
3.3792,48.5494
3.5103,48.4618
3.6218,48.3503
3.7094,48.2192
3.7697,48.0735
3.8005,47.9188
3.8005,47.7612
3.8005,47.7612
3.8005,47.7612
4.7395,47.7612
4.7395,47.9188
4.7703,48.0735
4.7703,48.0735
4.8306,48.2192
4.8306,48.2192
4.9182,48.3503
4.9182,48.3503
5.0297,48.4618
5.0297,48.4618
5.1608,48.5494
5.1608,48.5494
5.3065,48.6097
5.3065,48.6097
5.4612,48.6405
5.4612,48.6405
5.4612,48.6405
5.6188,48.6405
5.6188,48.6405
5.7735,48.6097
5.9192,48.5494
6.0503,48.4618
6.1618,48.3503
6.2494,48.2192
6.3097,48.0735
6.3405,47.9188
6.3405,47.7612
6.3405,47.7612
6.3405,47.7612
6.3097,47.6065
6.3097,47.6065
6.3097,47.6065
6.2494,47.4608
6.2494,47.4608
6.1618,47.3297
6.1618,47.3297
6.0503,47.2182
6.0503,47.2182
5.9192,47.1306
5.9192,47.1306
5.7735,47.0703
5.7735,47.0703
5.6188,47.0395
5.6188,47.0395
5.4612,47.0395
5.4612,47.0395
5.3065,47.0703
5.3065,47.0703
5.1608,47.1306
5.1608,47.1306
5.0297,47.2182
5.0297,47.2182
4.9182,47.3297
4.9182,47.3297
4.8306,47.4608
4.8306,47.4608
4.7703,47.6065
4.7703,47.6065
4.7395,47.7612
3.8005,47.7612
3.7697,47.6065
3.7697,47.6065
3.7697,47.6065
3.7094,47.4608
3.7094,47.4608
3.6218,47.3297
3.6218,47.3297
3.5103,47.2182
3.5103,47.2182
3.3747,47.1276
3.3299,47.0740
3.3212,47.0047
3.3513,46.9416
3.4108,46.9049
3.4436,46.9005
3.9000,46.9005
3.9000,46.9005
4.0028,46.8900
4.1693,46.8348
4.3187,46.7427
4.4427,46.6187
4.5348,46.4693
4.5900,46.3028
4.6005,46.2000
4.6005,44.4000
4.5900,44.2972
4.5348,44.1307
4.4427,43.9813
4.3187,43.8573
4.1693,43.7652
4.0028,43.7100
4.0028,43.7100
3.9000,43.6995
3.9000,43.6995
2.1000,43.6995
2.1000,43.6995
1.9972,43.7100
1.9972,43.7100
1.9147,43.7373
1.8307,43.7652
1.8307,43.7652
1.6813,43.8573
1.5573,43.9813
1.4652,44.1307
1.4652,44.1307
1.4411,44.2033
1.4100,44.2972
1.4100,44.2972
1.4100,44.2972
1.3995,44.4000
0.5005,44.4000
0.5005,6.1976
1.6995,6.1976
1.6995,6.4024
1.7315,6.6045
1.7948,6.7992
1.8877,6.9816
2.0080,7.1472
2.0080,7.1472
2.1528,7.2920
2.1984,7.3251
2.2410,7.3804
2.2495,7.4254
2.2495,19.3139
2.2495,19.3139
2.2495,19.3139
2.2783,19.4589
2.2783,19.4589
2.3349,19.5955
2.3349,19.5955
2.4170,19.7184
2.4171,19.7184
2.5216,19.8229
2.5216,19.8230
2.6445,19.9051
2.6445,19.9051
2.7811,19.9617
2.7811,19.9617
2.8141,19.9682
2.8760,20.0006
2.8776,20.0022
11.1576,28.2822
11.1911,28.3435
11.1878,28.4082
11.1828,28.4238
11.1495,28.6337
11.1495,28.8463
11.1696,28.9733
11.1607,29.0426
11.1502,29.0616
11.1349,29.0845
11.1349,29.0845
11.0783,29.2211
11.0783,29.2211
11.0495,29.3661
11.0495,35.2825
11.0298,35.3495
10.9770,35.3953
10.9381,35.4058
10.8972,35.4100
10.8972,35.4100
10.7307,35.4652
10.7307,35.4652
10.5813,35.5573
10.4573,35.6813
10.3652,35.8307
10.3652,35.8307
10.3384,35.9116
10.3100,35.9972
10.3100,35.9972
10.3100,35.9972
10.2995,36.1000
10.2995,37.7000
10.2995,37.7000
10.3100,37.8028
10.3100,37.8028
10.3410,37.8962
10.3652,37.9693
10.4573,38.1187
10.5813,38.2427
10.6906,38.3101
10.7373,38.3620
10.7495,38.4156
10.7495,44.1363
10.7298,44.2033
10.6770,44.2491
10.6645,44.2540
10.6307,44.2652
10.6307,44.2652
10.4813,44.3573
10.3573,44.4813
10.2652,44.6307
10.2652,44.6307
10.2100,44.7972
10.2100,44.7972
10.2100,44.7972
10.1995,44.9000
10.1995,46.1000
10.1995,46.1000
10.2100,46.2028
10.2100,46.2028
10.2431,46.3028
10.2652,46.3693
10.3573,46.5187
10.4813,46.6427
10.6307,46.7348
10.7972,46.7900
10.9000,46.8005
12.1000,46.8005
12.2028,46.7900
12.3693,46.7348
12.5187,46.6427
12.6427,46.5187
12.7348,46.3693
12.7900,46.2028
12.8005,46.1000
12.8005,44.9000
12.7900,44.7972
12.7348,44.6307
12.6427,44.4813
12.5187,44.3573
12.4212,44.2972
12.3693,44.2652
12.3693,44.2652
12.3693,44.2652
12.3693,44.2652
12.3355,44.2540
12.2780,44.2142
12.2512,44.1497
12.2505,44.1363
12.2505,38.5245
12.2702,38.4575
12.3230,38.4117
12.3745,38.4005
12.6000,38.4005
12.6000,38.4005
12.7028,38.3900
12.8693,38.3348
13.0187,38.2427
13.1427,38.1187
13.2348,37.9693
13.2900,37.8028
13.3005,37.7000
13.3005,36.1000
13.2999,36.0945
13.2900,35.9972
13.2900,35.9972
13.2348,35.8307
13.1427,35.6813
13.0187,35.5573
12.8693,35.4652
12.7028,35.4100
12.7028,35.4100
12.6619,35.4058
12.5972,35.3794
12.5571,35.3222
12.5505,35.2825
12.5505,30.2052
12.5702,30.1382
12.6230,30.0924
12.6551,30.0828
12.8162,30.0572
13.0184,29.9916
13.2078,29.8951
13.2834,29.8401
13.3798,29.7701
13.3798,29.7701
13.3798,29.7701
13.5301,29.6198
13.5301,29.6198
13.5301,29.6198
13.6550,29.4478
13.6550,29.4478
13.6551,29.4478
13.7516,29.2584
13.8172,29.0562
13.8505,28.8463
13.8505,28.6337
13.8172,28.4238
13.7516,28.2216
13.6551,28.0322
13.6550,28.0322
13.6550,28.0322
13.5301,27.8602
13.3798,27.7099
13.2078,27.5850
13.0184,27.4884
13.0184,27.4884
13.0184,27.4884
12.8162,27.4228
12.8162,27.4228
12.8162,27.4228
12.6550,27.3972
12.6063,27.3895
12.3937,27.3895
12.3650,27.3940
12.1838,27.4228
12.1682,27.4278
12.0983,27.4298
12.0422,27.3976
3.7868,19.1422
3.7533,19.0809
3.7505,19.0545
3.7505,7.4254
3.7702,7.3584
3.8016,7.3251
3.8472,7.2920
3.9920,7.1472
3.9920,7.1472
3.9920,7.1472
4.0447,7.0746
4.1123,6.9816
4.2052,6.7992
4.2685,6.6045
4.3005,6.4024
4.3005,6.1976
4.2959,6.1684
4.2685,5.9955
4.2052,5.8008
4.1595,5.7111
4.1123,5.6184
4.0806,5.5748
3.9920,5.4528
3.8472,5.3080
3.6816,5.1877
3.6816,5.1877
3.6816,5.1877
3.5933,5.1427
3.4992,5.0948
3.3045,5.0315
3.1300,5.0039
3.1024,4.9995
2.8976,4.9995
2.8733,5.0034
2.6955,5.0315
2.5008,5.0948
2.3184,5.1877
2.1528,5.3080
2.0080,5.4528
1.8877,5.6184
1.7948,5.8008
1.7315,5.9955
1.6995,6.1976
0.5005,6.1976
0.5005,2.1976
1.6995,2.1976
1.6995,2.4024
1.7315,2.6045
1.7948,2.7992
1.8244,2.8573
1.8876,2.9813
1.8877,2.9816
2.0080,3.1472
2.1528,3.2920
2.3077,3.4046
2.3184,3.4123
2.4071,3.4575
2.5008,3.5052
2.5008,3.5052
2.5008,3.5052
2.6051,3.5391
2.6955,3.5685
2.7966,3.5845
2.8976,3.6005
2.8976,3.6005
3.1024,3.6005
3.1024,3.6005
3.3045,3.5685
3.4992,3.5052
3.6816,3.4123
3.7746,3.3447
3.8472,3.2920
3.8472,3.2920
3.8472,3.2920
3.9920,3.1472
4.0040,3.1307
4.0251,3.1016
4.0804,3.0589
4.1254,3.0505
10.6163,3.0505
10.6834,3.0702
10.7040,3.0868
12.5740,4.9568
12.6075,5.0181
12.6025,5.0878
12.5607,5.1438
12.5426,5.1550
12.4784,5.1877
12.3128,5.3080
12.1680,5.4528
12.0477,5.6184
11.9548,5.8008
11.8915,5.9955
11.8595,6.1976
11.8595,6.4024
11.8915,6.6045
11.9548,6.7992
12.0477,6.9816
12.1680,7.1472
12.1680,7.1472
12.3128,7.2920
12.4784,7.4123
12.4784,7.4123
12.4823,7.4151
12.4811,7.4168
12.5222,7.4622
12.5345,7.5161
12.5345,11.7646
12.5540,11.8624
12.5585,11.8855
12.5594,11.8874
12.5723,11.9188
12.5723,11.9188
12.5969,11.9780
12.6044,12.0475
12.5731,12.1100
12.5130,12.1456
12.4823,12.1495
11.6021,12.1495
11.6021,12.1495
11.5425,12.1559
11.4077,12.2062
11.4077,12.2062
11.2925,12.2925
11.2925,12.2925
11.2062,12.4077
11.2062,12.4077
11.1559,12.5425
11.1495,12.6021
11.1495,12.6021
11.1495,14.3979
11.1495,14.3979
11.1559,14.4575
11.2062,14.5923
11.2062,14.5923
11.2925,14.7075
11.2925,14.7075
11.4077,14.7938
11.4077,14.7938
11.5391,14.8428
11.5950,14.8847
11.6194,14.9501
11.6046,15.0184
11.5834,15.0467
11.4699,15.1602
11.3450,15.3322
11.2484,15.5216
11.2484,15.5216
11.2484,15.5216
11.2313,15.5742
11.1828,15.7238
11.1495,15.9337
11.1495,16.1463
11.1801,16.3394
11.1828,16.3562
11.2470,16.5541
11.2484,16.5584
11.3450,16.7478
11.4699,16.9198
11.6202,17.0701
11.7922,17.1950
11.8009,17.1995
11.8517,17.2475
11.8685,17.3153
11.8460,17.3814
11.8009,17.4205
11.7922,17.4249
11.6202,17.5499
11.4699,17.7002
11.3450,17.8722
11.2484,18.0616
11.1828,18.2638
11.1695,18.3472
11.1495,18.4737
11.1495,18.6863
11.1525,18.7052
11.1704,18.8182
11.1828,18.8962
11.2340,19.0541
11.2484,19.0984
11.3450,19.2878
11.4699,19.4598
11.6202,19.6101
11.7922,19.7350
11.8009,19.7395
11.8517,19.7875
11.8685,19.8553
11.8460,19.9214
11.8009,19.9605
11.7922,19.9649
11.6202,20.0899
11.4699,20.2402
11.3450,20.4122
11.2484,20.6016
11.1828,20.8038
11.1495,21.0137
11.1495,21.2263
11.1756,21.3911
11.1828,21.4362
11.2055,21.5062
11.2484,21.6384
11.3450,21.8278
11.4699,21.9998
11.6202,22.1501
11.7922,22.2751
11.8009,22.2795
11.8517,22.3275
11.8685,22.3953
11.8460,22.4614
11.8009,22.5005
11.7922,22.5049
11.6202,22.6299
11.4699,22.7802
11.3450,22.9522
11.2484,23.1416
11.1828,23.3438
11.1581,23.4995
11.1495,23.5537
11.1495,23.7663
11.1519,23.7813
11.1755,23.9307
11.1828,23.9762
11.2456,24.1696
11.2484,24.1784
11.3450,24.3678
11.4699,24.5398
11.6202,24.6901
11.7922,24.8150
11.7922,24.8150
11.7922,24.8151
11.9816,24.9116
12.1838,24.9772
12.3937,25.0105
12.3937,25.0105
12.6063,25.0105
12.6063,25.0105
12.8162,24.9772
13.0184,24.9116
13.2078,24.8151
13.2788,24.7635
13.3798,24.6901
13.3798,24.6901
13.3798,24.6901
13.5301,24.5398
13.5301,24.5398
13.5301,24.5398
13.6550,24.3678
13.6550,24.3678
13.6551,24.3678
13.7516,24.1784
13.8172,23.9762
13.8505,23.7663
13.8505,23.5537
13.8172,23.3438
13.7516,23.1416
13.6551,22.9522
13.6550,22.9522
13.6550,22.9522
13.5301,22.7802
13.3798,22.6299
13.2078,22.5050
13.2071,22.5046
13.1991,22.5005
13.1483,22.4525
13.1315,22.3847
13.1540,22.3186
13.1991,22.2795
13.2078,22.2751
13.2502,22.2442
13.3798,22.1501
13.3798,22.1501
13.3798,22.1501
13.5301,21.9998
13.5301,21.9998
13.5301,21.9998
13.6550,21.8278
13.6550,21.8278
13.6551,21.8278
13.7516,21.6384
13.8172,21.4362
13.8505,21.2263
13.8505,21.0137
13.8172,20.8038
13.7516,20.6016
13.6551,20.4122
13.6550,20.4122
13.6550,20.4122
13.5301,20.2402
13.3798,20.0899
13.2078,19.9650
13.2071,19.9646
13.1991,19.9605
13.1483,19.9125
13.1315,19.8447
13.1540,19.7786
13.1991,19.7395
13.2078,19.7351
13.3197,19.6537
13.3798,19.6101
13.3798,19.6101
13.3798,19.6101
13.5301,19.4598
13.5301,19.4598
13.5301,19.4598
13.6550,19.2878
13.6550,19.2878
13.6551,19.2878
13.7516,19.0984
13.8172,18.8962
13.8505,18.6863
13.8505,18.4737
13.8172,18.2638
13.7516,18.0616
13.6551,17.8722
13.6550,17.8722
13.6550,17.8722
13.5301,17.7002
13.3798,17.5499
13.2078,17.4250
13.2071,17.4246
13.1991,17.4205
13.1483,17.3725
13.1315,17.3047
13.1540,17.2386
13.1991,17.1995
13.2078,17.1951
13.2298,17.1791
13.3798,17.0701
13.3798,17.0701
13.3798,17.0701
13.5301,16.9198
13.5301,16.9198
13.5301,16.9198
13.6391,16.7698
13.6551,16.7478
13.7123,16.6354
13.7603,16.5847
13.8281,16.5679
13.8942,16.5904
13.9105,16.6041
14.4680,17.1616
14.5015,17.2229
14.5043,17.2493
14.5043,27.2375
14.4846,27.3046
14.4680,27.3252
14.4303,27.3629
14.4303,27.3629
14.3318,27.5103
14.3318,27.5104
14.2639,27.6742
14.2639,27.6742
14.2293,27.8482
14.2293,28.0256
14.2639,28.1996
14.2639,28.1996
14.3318,28.3634
14.3318,28.3635
14.4303,28.5109
14.4303,28.5109
14.5558,28.6364
14.5558,28.6364
14.7032,28.7349
14.7033,28.7349
14.8060,28.7775
14.8671,28.8028
14.8671,28.8028
14.8671,28.8028
15.0411,28.8374
15.0411,28.8374
15.0411,28.8374
15.2185,28.8374
15.2185,28.8374
15.2765,28.8259
15.3925,28.8028
15.3925,28.8028
15.3925,28.8028
15.5563,28.7349
15.7038,28.6364
15.8293,28.5109
15.9278,28.3634
15.9957,28.1996
16.0303,28.0256
16.0303,27.8482
16.0303,27.8482
16.0303,27.8482
15.9957,27.6742
15.9957,27.6742
15.9859,27.6505
15.9587,27.5850
15.9278,27.5104
15.9278,27.5103
15.8293,27.3629
15.8293,27.3629
15.7916,27.3252
15.7581,27.2639
15.7553,27.2375
15.7553,16.8772
15.7553,16.8772
15.7313,16.7563
15.6841,16.6425
15.6841,16.6425
15.6841,16.6425
15.6157,16.5401
15.5785,16.5029
15.5285,16.4529
15.5285,16.4529
13.8150,14.7394
13.7815,14.6781
13.7865,14.6084
13.7938,14.5924
13.8028,14.5682
13.8441,14.4575
13.8505,14.3979
13.8505,13.5774
13.8702,13.5104
13.9230,13.4647
13.9921,13.4547
14.0557,13.4837
14.0622,13.4898
18.8367,18.2643
18.8702,18.3256
18.8730,18.3520
18.8730,22.6686
18.8533,22.7356
18.8005,22.7814
18.7314,22.7913
18.6747,22.7679
18.5923,22.7062
18.5923,22.7062
18.4575,22.6559
18.4575,22.6559
18.3979,22.6495
18.3979,22.6495
18.3979,22.6495
18.3979,22.6495
16.6021,22.6495
16.6021,22.6495
16.5425,22.6559
16.4077,22.7062
16.4077,22.7062
16.2925,22.7925
16.2925,22.7925
16.2062,22.9077
16.2062,22.9077
16.1559,23.0425
16.1495,23.1021
16.1495,23.1021
16.1495,24.8979
16.1495,24.8979
16.1559,24.9575
16.2062,25.0923
16.2062,25.0923
16.2925,25.2075
16.2925,25.2075
16.4077,25.2938
16.4077,25.2938
16.5391,25.3428
16.5950,25.3847
16.6194,25.4501
16.6046,25.5184
16.5834,25.5467
16.4699,25.6602
16.3450,25.8322
16.2484,26.0216
16.1828,26.2238
16.1495,26.4337
16.1495,26.6463
16.1828,26.8562
16.2484,27.0584
16.3450,27.2478
16.4699,27.4198
16.6202,27.5701
16.7922,27.6950
16.7922,27.6950
16.7922,27.6951
16.9816,27.7916
17.1838,27.8572
17.3937,27.8905
17.3937,27.8905
17.6063,27.8905
17.6063,27.8905
17.8162,27.8572
18.0184,27.7916
18.2078,27.6951
18.3229,27.6114
18.3798,27.5701
18.3798,27.5701
18.3798,27.5701
18.5301,27.4198
18.5301,27.4198
18.5301,27.4198
18.6487,27.2566
18.7040,27.2139
18.7736,27.2079
18.8354,27.2405
18.8698,27.3014
18.8730,27.3295
18.8730,43.8194
18.8610,43.8728
18.8571,43.8809
18.8334,43.9163
18.7880,44.0259
18.7866,44.0288
18.7654,44.0526
18.7454,44.0774
18.7422,44.0784
18.7400,44.0809
18.7093,44.0894
18.6791,44.0994
18.6747,44.0995
18.5521,44.0995
18.5521,44.0995
18.4925,44.1059
18.3577,44.1562
18.3577,44.1562
18.2425,44.2425
18.2425,44.2425
18.1562,44.3577
18.1562,44.3577
18.1059,44.4925
18.0995,44.5521
18.0995,44.5521
18.0995,44.5521
18.0995,46.4479
18.0995,46.4479
18.1059,46.5075
18.1562,46.6423
18.1562,46.6423
18.2425,46.7575
18.2425,46.7575
18.3577,46.8438
18.3577,46.8438
18.4925,46.8941
18.4925,46.8941
18.4994,46.8948
18.5521,46.9005
20.4479,46.9005
20.5075,46.8941
20.6423,46.8438
20.7575,46.7575
20.8438,46.6423
20.8941,46.5075
20.9005,46.4479
20.9005,44.5521
20.8941,44.4925
20.8438,44.3577
20.8438,44.3577
20.8438,44.3577
20.7575,44.2425
20.7575,44.2425
20.6423,44.1562
20.6423,44.1562
20.5075,44.1059
20.5075,44.1059
20.4479,44.0995
20.4479,44.0995
20.4479,44.0995
20.4479,44.0995
20.3232,44.0995
20.3072,44.0948
20.2905,44.0951
20.2744,44.0852
20.2562,44.0798
20.2448,44.0669
20.2310,44.0584
20.2154,44.0336
20.2114,44.0291
20.2099,44.0261
20.1651,43.9178
20.1400,43.8803
20.1362,43.8723
20.1319,43.8462
20.1240,43.8209
20.1240,43.8187
20.1240,41.3819
26.9995,41.3819
26.9995,41.6181
27.0364,41.8514
27.1094,42.0760
27.2011,42.2559
27.2167,42.2864
27.3555,42.4775
27.5225,42.6445
27.7136,42.7833
27.8130,42.8340
27.9240,42.8906
27.9240,42.8906
27.9240,42.8906
28.0444,42.9297
28.1486,42.9636
28.3819,43.0005
28.3819,43.0005
28.6181,43.0005
28.8514,42.9636
29.0760,42.8906
29.2864,42.7833
29.4775,42.6445
29.6445,42.4775
29.7833,42.2864
29.8906,42.0760
29.9636,41.8514
29.9727,41.7938
30.0005,41.6181
30.0005,41.3819
33.4995,41.3819
33.4995,41.6181
33.5364,41.8514
33.6094,42.0760
33.7011,42.2559
33.7167,42.2864
33.8555,42.4775
34.0225,42.6445
34.2136,42.7833
34.3130,42.8340
34.4240,42.8906
34.4240,42.8906
34.4240,42.8906
34.5444,42.9297
34.6486,42.9636
34.8819,43.0005
34.8819,43.0005
35.1181,43.0005
35.3514,42.9636
35.5760,42.8906
35.7864,42.7833
35.9775,42.6445
36.1445,42.4775
36.2833,42.2864
36.3906,42.0760
36.4636,41.8514
36.4727,41.7938
36.5005,41.6181
36.5005,41.3819
36.4636,41.1486
36.3906,40.9240
36.3340,40.8130
36.2833,40.7136
36.1445,40.5225
35.9775,40.3555
35.7864,40.2167
35.7592,40.2028
35.5760,40.1094
35.3514,40.0364
35.1181,39.9995
35.1181,39.9995
34.8819,39.9995
34.8819,39.9995
34.6486,40.0364
34.4240,40.1094
34.2136,40.2167
34.1045,40.2959
34.0225,40.3555
34.0225,40.3555
34.0225,40.3555
33.8555,40.5225
33.8555,40.5225
33.8555,40.5225
33.7959,40.6045
33.7167,40.7136
33.6094,40.9240
33.5364,41.1486
33.4995,41.3819
30.0005,41.3819
29.9636,41.1486
29.8906,40.9240
29.8340,40.8130
29.7833,40.7136
29.6445,40.5225
29.4775,40.3555
29.2864,40.2167
29.2592,40.2028
29.0760,40.1094
28.8514,40.0364
28.6181,39.9995
28.6181,39.9995
28.3819,39.9995
28.3819,39.9995
28.1486,40.0364
27.9240,40.1094
27.7136,40.2167
27.6045,40.2959
27.5225,40.3555
27.5225,40.3555
27.5225,40.3555
27.3555,40.5225
27.3555,40.5225
27.3555,40.5225
27.2959,40.6045
27.2167,40.7136
27.1094,40.9240
27.0364,41.1486
26.9995,41.3819
20.1240,41.3819
20.1240,29.1280
20.1302,29.1067
20.1318,29.0846
20.1399,29.0738
20.1437,29.0609
20.1604,29.0464
20.1737,29.0287
20.1863,29.0240
20.1965,29.0152
20.2184,29.0120
20.2392,29.0043
20.2523,29.0071
20.2656,29.0052
20.2858,29.0144
20.3074,29.0191
20.3252,29.0324
20.3292,29.0342
20.3357,29.0403
20.3516,29.0562
20.3763,29.0809
20.3763,29.0809
20.3806,29.0852
24.7276,33.4322
24.7611,33.4935
24.7578,33.5582
24.7528,33.5738
24.7295,33.7204
24.7195,33.7837
24.7195,33.9963
24.7200,33.9992
24.7528,34.2062
24.8184,34.4084
24.9150,34.5978
25.0399,34.7698
25.1902,34.9201
25.3622,35.0450
25.3709,35.0495
25.4217,35.0975
25.4385,35.1653
25.4160,35.2314
25.3709,35.2705
25.3622,35.2749
25.1902,35.3999
25.0399,35.5502
24.9150,35.7222
24.8184,35.9116
24.7528,36.1138
24.7316,36.2475
24.7195,36.3237
24.7195,36.5363
24.7264,36.5798
24.7462,36.7049
24.7528,36.7462
24.8143,36.9356
24.8184,36.9484
24.9150,37.1378
25.0399,37.3098
25.1902,37.4601
25.3622,37.5850
25.3622,37.5850
25.3622,37.5851
25.5516,37.6816
25.7538,37.7472
25.9637,37.7805
25.9637,37.7805
26.1763,37.7805
26.1763,37.7805
26.3862,37.7472
26.5884,37.6816
26.7778,37.5851
26.9311,37.4737
26.9498,37.4601
26.9498,37.4601
26.9498,37.4601
27.1001,37.3098
27.1001,37.3098
27.1001,37.3098
27.2250,37.1378
27.2250,37.1378
27.2251,37.1378
27.3216,36.9484
27.3872,36.7462
27.4205,36.5363
27.4205,36.3237
27.3872,36.1138
27.3828,36.1000
27.3822,36.0982
27.3802,36.0283
27.4124,35.9722
39.2220,24.1626
39.2220,24.1626
39.3092,24.0754
39.3776,23.9730
39.3776,23.9730
39.4174,23.8768
39.4248,23.8592
39.4368,23.7987
39.4488,23.7383
39.4488,23.6151
39.4488,8.9916
39.4685,8.9245
39.5213,8.8788
39.5904,8.8688
39.6111,8.8736
39.6838,8.8972
39.8937,8.9305
39.8937,8.9305
40.1063,8.9305
40.1063,8.9305
40.2078,8.9144
40.2771,8.9234
40.3305,8.9684
40.3512,9.0351
40.3512,9.0369
40.3512,35.6440
40.3315,35.7110
40.2787,35.7568
40.2272,35.7680
40.1608,35.7680
39.9868,35.8026
39.9868,35.8026
39.8230,35.8705
39.8229,35.8705
39.6755,35.9690
39.6755,35.9690
39.5500,36.0945
39.5500,36.0945
39.4515,36.2419
39.4515,36.2420
39.3836,36.4058
39.3836,36.4058
39.3490,36.5798
39.3490,36.6330
39.3293,36.7001
39.3260,36.7049
39.3200,36.7134
39.3141,36.7193
39.2888,36.7572
39.2878,36.7587
39.2878,36.7587
39.2457,36.8217
39.2457,36.8217
39.2235,36.8753
39.2235,36.8753
39.1985,36.9355
39.1985,36.9356
39.1745,37.0564
39.1745,39.0255
39.1548,39.0925
39.1020,39.1383
39.0505,39.1495
38.9021,39.1495
38.9021,39.1495
38.8425,39.1559
38.7077,39.2062
38.7077,39.2062
38.5925,39.2925
38.5925,39.2925
38.5062,39.4077
38.5062,39.4077
38.4559,39.5425
38.4495,39.6021
38.4495,39.6021
38.4495,41.3979
38.4495,41.3979
38.4559,41.4575
38.5062,41.5923
38.5062,41.5923
38.5925,41.7075
38.5925,41.7075
38.7077,41.7938
38.7077,41.7938
38.8391,41.8428
38.8950,41.8847
38.9194,41.9501
38.9046,42.0184
38.8834,42.0467
38.7699,42.1602
38.6450,42.3322
38.5484,42.5216
38.4828,42.7238
38.4495,42.9337
38.4495,43.1463
38.4828,43.3562
38.4865,43.3678
38.5484,43.5584
38.6450,43.7478
38.7699,43.9198
38.9202,44.0701
39.0922,44.1950
39.0922,44.1950
39.0922,44.1951
39.2816,44.2916
39.4838,44.3572
39.6937,44.3905
39.6937,44.3905
39.9063,44.3905
39.9063,44.3905
40.1162,44.3572
40.3184,44.2916
40.5078,44.1951
40.5613,44.1562
40.6798,44.0701
40.6798,44.0701
40.6798,44.0701
40.8301,43.9198
40.8301,43.9198
40.8301,43.9198
40.9550,43.7478
40.9550,43.7478
40.9551,43.7478
41.0516,43.5584
41.1172,43.3562
41.1505,43.1463
41.1505,42.9337
41.1354,42.8383
41.1443,42.7690
41.1702,42.7312
41.5597,42.3417
41.6418,42.2188
41.6984,42.0822
41.7242,41.9522
41.7272,41.9372
41.7272,41.7894
41.6984,41.6444
41.6984,41.6444
41.6984,41.6444
41.6418,41.5078
41.6231,41.4798
41.6022,41.4132
41.6022,41.4109
41.6022,40.1021
43.6495,40.1021
43.6495,41.8979
43.6495,41.8979
43.6559,41.9575
43.7062,42.0923
43.7062,42.0923
43.7925,42.2075
43.7925,42.2075
43.9077,42.2938
43.9077,42.2938
44.0425,42.3441
44.0425,42.3441
44.0494,42.3448
44.1021,42.3505
45.8979,42.3505
45.9575,42.3441
46.0923,42.2938
46.2075,42.2075
46.2938,42.0923
46.3441,41.9575
46.3505,41.8979
46.3505,40.1021
46.3441,40.0425
46.2938,39.9077
46.2938,39.9077
46.2938,39.9077
46.2075,39.7925
46.2075,39.7925
46.0923,39.7062
46.0923,39.7062
45.9575,39.6559
45.9575,39.6559
45.8979,39.6495
45.8979,39.6495
45.8979,39.6495
45.8979,39.6495
44.1021,39.6495
44.1021,39.6495
44.0425,39.6559
43.9077,39.7062
43.9077,39.7062
43.7925,39.7925
43.7925,39.7925
43.7062,39.9077
43.7062,39.9077
43.6559,40.0425
43.6497,40.1000
43.6495,40.1021
43.6495,40.1021
41.6022,40.1021
41.6022,19.7746
47.1183,19.7746
47.1183,24.1643
47.1183,24.2875
47.1203,24.2978
47.1423,24.4084
47.1557,24.4407
47.1591,24.4489
47.1591,24.4489
47.1895,24.5222
47.1895,24.5222
47.1895,24.5222
47.2013,24.5398
47.2237,24.5734
47.2237,24.5734
47.2579,24.6246
47.2579,24.6246
47.2579,24.6246
47.3451,24.7118
47.3451,24.7118
47.3521,24.7188
47.3521,24.7188
47.3521,24.7188
47.8770,25.2437
47.9105,25.3050
47.9055,25.3747
47.8897,25.4043
47.7749,25.5622
47.6784,25.7516
47.6128,25.9538
47.5795,26.1637
47.5795,26.3763
47.6119,26.5812
47.6128,26.5862
47.6337,26.6509
47.6784,26.7884
47.7750,26.9778
47.8999,27.1498
48.0502,27.3001
48.2222,27.4250
48.2309,27.4295
48.2817,27.4775
48.2985,27.5453
48.2760,27.6114
48.2309,27.6505
48.2222,27.6549
48.0502,27.7799
47.8999,27.9302
47.7750,28.1022
47.6784,28.2916
47.6128,28.4938
47.5795,28.7037
47.5795,28.9163
47.6063,29.0852
47.6128,29.1262
47.6436,29.2211
47.6784,29.3284
47.7750,29.5178
47.8999,29.6898
48.0502,29.8401
48.2222,29.9650
48.2309,29.9695
48.2817,30.0175
48.2985,30.0853
48.2760,30.1514
48.2309,30.1905
48.2222,30.1949
48.0502,30.3199
47.8999,30.4702
47.7750,30.6422
47.6784,30.8316
47.6128,31.0338
47.5795,31.2437
47.5795,31.4563
47.5989,31.5785
47.6128,31.6662
47.6545,31.7948
47.6784,31.8684
47.7750,32.0578
47.8999,32.2298
48.0502,32.3801
48.2222,32.5050
48.2309,32.5095
48.2817,32.5575
48.2985,32.6253
48.2760,32.6914
48.2309,32.7305
48.2222,32.7349
48.0502,32.8599
47.8999,33.0102
47.7750,33.1822
47.6784,33.3716
47.6128,33.5738
47.6128,33.5738
47.5795,33.7837
47.5795,33.9963
47.5800,33.9992
47.6128,34.2062
47.6784,34.4084
47.7750,34.5978
47.8999,34.7698
48.0502,34.9201
48.2222,35.0450
48.2309,35.0495
48.2817,35.0975
48.2985,35.1653
48.2760,35.2314
48.2309,35.2705
48.2222,35.2749
48.0502,35.3999
47.8999,35.5502
47.7750,35.7222
47.6784,35.9116
47.6128,36.1138
47.5916,36.2475
47.5795,36.3237
47.5795,36.5363
47.5864,36.5798
47.6062,36.7049
47.6128,36.7462
47.6743,36.9356
47.6784,36.9484
47.7750,37.1378
47.8999,37.3098
48.0502,37.4601
48.2222,37.5850
48.2222,37.5850
48.2222,37.5851
48.4116,37.6816
48.6138,37.7472
48.8237,37.7805
48.8237,37.7805
49.0363,37.7805
49.0363,37.7805
49.2462,37.7472
49.4484,37.6816
49.6378,37.5851
49.7911,37.4737
49.8098,37.4601
49.8098,37.4601
49.8098,37.4601
49.9601,37.3098
49.9601,37.3098
49.9601,37.3098
50.0850,37.1378
50.0850,37.1378
50.0851,37.1378
50.1816,36.9484
50.2472,36.7462
50.2805,36.5363
50.2805,36.3237
50.2472,36.1138
50.1816,35.9116
50.0851,35.7222
50.0850,35.7222
50.0850,35.7222
49.9601,35.5502
49.8098,35.3999
49.6378,35.2750
49.6371,35.2746
49.6291,35.2705
49.5783,35.2225
49.5615,35.1547
49.5840,35.0886
49.6291,35.0495
49.6378,35.0451
49.6598,35.0291
49.8098,34.9201
49.8098,34.9201
49.8098,34.9201
49.9601,34.7698
49.9601,34.7698
49.9601,34.7698
50.0850,34.5978
50.0850,34.5978
50.0851,34.5978
50.1816,34.4084
50.2472,34.2062
50.2805,33.9963
50.2805,33.7837
50.2472,33.5738
50.1900,33.3976
51.1995,33.3976
51.1995,33.6024
51.2315,33.8045
51.2948,33.9992
51.3587,34.1247
51.3873,34.1808
51.3877,34.1816
51.5080,34.3472
51.6528,34.4920
51.7985,34.5978
51.8184,34.6123
51.9346,34.6715
52.0008,34.7052
52.0008,34.7052
52.0008,34.7052
52.1051,34.7391
52.1955,34.7685
52.2038,34.7698
52.3976,34.8005
52.3976,34.8005
52.6023,34.8005
52.6024,34.8005
52.6061,34.7999
52.6754,34.8089
52.7288,34.8538
52.7495,34.9206
52.7495,34.9224
52.7495,38.1363
52.7298,38.2033
52.6770,38.2491
52.6645,38.2540
52.6307,38.2652
52.6307,38.2652
52.4813,38.3573
52.3573,38.4813
52.2652,38.6307
52.2652,38.6307
52.2373,38.7147
52.2100,38.7972
52.2100,38.7972
52.2100,38.7972
52.1995,38.9000
52.1995,40.1000
52.1995,40.1000
52.2100,40.2028
52.2100,40.2028
52.2218,40.2383
52.2652,40.3693
52.3573,40.5187
52.4813,40.6427
52.6307,40.7348
52.7972,40.7900
52.9000,40.8005
54.1000,40.8005
54.2028,40.7900
54.3693,40.7348
54.5187,40.6427
54.6427,40.5187
54.7348,40.3693
54.7900,40.2028
54.8005,40.1000
54.8005,38.9000
54.7981,38.8764
54.7900,38.7972
54.7900,38.7972
54.7446,38.6602
54.7348,38.6307
54.6427,38.4813
54.5187,38.3573
54.3693,38.2652
54.3693,38.2652
54.3355,38.2540
54.2781,38.2142
54.2512,38.1497
54.2505,38.1363
54.2505,34.4261
54.2505,34.4261
54.2408,34.3775
54.2217,34.2811
54.1824,34.1863
54.1651,34.1445
54.0830,34.0216
53.9784,33.9170
53.8265,33.7651
53.7930,33.7038
53.7917,33.6580
53.8005,33.6024
53.8005,33.3976
53.7685,33.1955
53.7642,33.1822
53.7142,33.0284
53.7052,33.0008
53.7052,33.0008
53.7052,33.0008
53.6607,32.9135
53.6123,32.8184
53.5517,32.7350
53.4920,32.6528
53.3472,32.5080
53.1816,32.3877
53.1816,32.3877
53.1816,32.3877
53.1247,32.3587
52.9992,32.2948
52.8045,32.2315
52.6300,32.2039
52.6024,32.1995
52.3976,32.1995
52.3733,32.2034
52.1955,32.2315
52.0008,32.2948
51.8184,32.3877
51.6528,32.5080
51.5080,32.6528
51.3877,32.8184
51.2948,33.0008
51.2315,33.1955
51.1995,33.3976
50.1900,33.3976
50.1816,33.3716
50.0851,33.1822
50.0850,33.1822
50.0850,33.1822
49.9601,33.0102
49.8098,32.8599
49.6378,32.7350
49.6371,32.7346
49.6291,32.7305
49.5783,32.6825
49.5615,32.6147
49.5840,32.5486
49.6291,32.5095
49.6378,32.5051
49.6598,32.4891
49.8098,32.3801
49.8098,32.3801
49.8098,32.3801
49.9601,32.2298
49.9601,32.2298
49.9601,32.2298
50.0850,32.0578
50.0850,32.0578
50.0851,32.0578
50.1816,31.8684
50.2472,31.6662
50.2805,31.4563
50.2805,31.2437
50.2472,31.0338
50.1816,30.8316
50.0851,30.6422
50.0850,30.6422
50.0850,30.6422
49.9601,30.4702
49.8098,30.3199
49.6378,30.1950
49.6371,30.1946
49.6291,30.1905
49.5783,30.1425
49.5615,30.0747
49.5840,30.0086
49.6291,29.9695
49.6378,29.9651
49.6598,29.9491
49.8098,29.8401
49.8098,29.8401
49.8098,29.8401
49.9601,29.6898
49.9601,29.6898
49.9601,29.6898
50.0850,29.5178
50.0850,29.5178
50.0851,29.5178
50.1816,29.3284
50.2472,29.1262
50.2805,28.9163
50.2805,28.7037
50.2472,28.4938
50.1816,28.2916
50.0851,28.1022
50.0850,28.1022
50.0850,28.1022
49.9601,27.9302
49.8098,27.7799
49.6378,27.6550
49.6371,27.6546
49.6291,27.6505
49.5783,27.6025
49.5615,27.5347
49.5840,27.4686
49.6291,27.4295
49.6378,27.4251
49.6867,27.3895
49.8098,27.3001
49.8098,27.3001
49.8098,27.3001
49.9601,27.1498
49.9601,27.1498
49.9601,27.1498
50.0850,26.9778
50.0850,26.9778
50.0851,26.9778
50.1816,26.7884
50.2472,26.5862
50.2805,26.3763
50.2805,26.1637
50.2472,25.9538
50.2069,25.8296
50.2049,25.7598
50.2410,25.6999
50.3037,25.6691
50.3731,25.6771
50.4125,25.7036
57.9649,33.2560
57.9984,33.3173
58.0012,33.3437
58.0012,38.8483
58.0157,38.9214
58.0241,38.9636
58.0244,38.9649
58.0252,38.9692
58.0724,39.0830
58.0724,39.0830
58.0724,39.0830
58.0968,39.1195
58.1408,39.1854
58.2280,39.2726
58.2280,39.2726
58.2384,39.2830
61.1576,42.2022
61.1911,42.2635
61.1878,42.3282
61.1828,42.3438
61.1616,42.4775
61.1495,42.5537
61.1495,42.7663
61.1595,42.8296
61.1828,42.9762
61.2484,43.1784
61.3450,43.3678
61.4699,43.5398
61.6202,43.6901
61.7922,43.8150
61.7922,43.8150
61.7922,43.8151
61.9816,43.9116
62.1838,43.9772
62.3937,44.0105
62.3937,44.0105
62.6063,44.0105
62.6063,44.0105
62.8162,43.9772
63.0184,43.9116
63.2078,43.8151
63.2298,43.7991
63.3798,43.6901
63.3798,43.6901
63.3798,43.6901
63.5301,43.5398
63.5301,43.5398
63.5301,43.5398
63.6550,43.3678
63.6550,43.3678
63.6551,43.3678
63.7516,43.1784
63.8172,42.9762
63.8505,42.7663
63.8505,42.5537
63.8172,42.3438
63.7516,42.1416
63.6551,41.9522
63.6550,41.9522
63.6550,41.9522
63.5301,41.7802
63.3798,41.6299
63.2078,41.5050
63.2071,41.5046
63.1991,41.5005
63.1483,41.4525
63.1315,41.3847
63.1540,41.3186
63.1991,41.2795
63.2078,41.2751
63.2298,41.2591
63.3798,41.1501
63.3798,41.1501
63.3798,41.1501
63.5301,40.9998
63.5301,40.9998
63.5301,40.9998
63.6550,40.8278
63.6550,40.8278
63.6551,40.8278
63.7516,40.6384
63.8172,40.4362
63.8505,40.2263
63.8505,40.0137
63.8172,39.8038
63.8136,39.7925
63.8122,39.7882
63.8102,39.7183
63.8424,39.6622
64.5410,38.9636
64.5410,38.9636
64.6282,38.8764
64.6581,38.8316
64.6919,38.7811
64.6919,38.7811
64.6923,38.7804
64.6966,38.7740
64.6966,38.7740
64.7438,38.6602
64.7678,38.5393
64.7678,38.4161
64.7678,32.0449
64.7678,32.0449
64.7678,31.9156
64.7438,31.7948
64.7438,31.7947
64.6966,31.6809
64.6282,31.5785
64.6282,31.5785
56.0833,23.0336
56.0498,22.9723
56.0470,22.9459
56.0470,17.3976
62.3595,17.3976
62.3595,17.6024
62.3915,17.8045
62.4548,17.9992
62.5187,18.1247
62.5222,18.1316
62.5477,18.1816
62.6680,18.3472
62.8128,18.4920
62.9677,18.6046
62.9784,18.6123
63.0946,18.6715
63.1608,18.7052
63.1608,18.7052
63.1608,18.7052
63.2651,18.7391
63.3555,18.7685
63.4174,18.7783
63.5576,18.8005
63.5576,18.8005
63.7624,18.8005
63.7624,18.8005
63.9645,18.7685
64.1592,18.7052
64.3416,18.6123
64.4663,18.5217
64.5072,18.4920
64.5072,18.4920
64.5072,18.4920
64.6520,18.3472
64.6520,18.3472
64.6520,18.3472
64.7126,18.2638
64.7723,18.1816
64.8652,17.9992
64.9285,17.8045
64.9605,17.6024
64.9605,17.3976
64.9502,17.3328
64.9285,17.1955
64.8877,17.0701
64.8652,17.0008
64.8652,17.0008
64.8652,17.0008
64.8022,16.8772
64.7723,16.8184
64.7274,16.7567
64.6520,16.6528
64.5072,16.5080
64.3416,16.3877
64.3416,16.3877
64.3416,16.3877
64.2467,16.3394
64.1592,16.2948
63.9645,16.2315
63.7900,16.2039
63.7624,16.1995
63.5576,16.1995
63.5333,16.2034
63.3555,16.2315
63.1608,16.2948
62.9784,16.3877
62.8128,16.5080
62.6680,16.6528
62.5477,16.8184
62.4548,17.0008
62.3915,17.1955
62.3595,17.3976
56.0470,17.3976
56.0470,13.7225
56.0426,13.7002
56.0390,13.6825
56.0230,13.6016
55.9758,13.4878
55.9649,13.4715
55.9649,13.4715
55.9622,13.4674
55.9622,13.4674
55.9156,13.3976
62.3595,13.3976
62.3595,13.6024
62.3915,13.8045
62.4548,13.9992
62.4995,14.0870
62.5434,14.1732
62.5477,14.1816
62.6680,14.3472
62.8128,14.4920
62.9509,14.5923
62.9784,14.6123
63.0946,14.6715
63.1608,14.7052
63.1608,14.7052
63.1608,14.7052
63.2509,14.7345
63.3555,14.7685
63.4566,14.7845
63.5576,14.8005
63.5576,14.8005
63.7624,14.8005
63.7624,14.8005
63.9645,14.7685
64.1592,14.7052
64.3416,14.6123
64.4583,14.5275
64.5072,14.4920
64.5072,14.4920
64.5072,14.4920
64.6520,14.3472
64.6520,14.3472
64.6520,14.3472
64.7263,14.2450
64.7723,14.1816
64.8652,13.9992
64.9285,13.8045
64.9605,13.6024
64.9605,13.3976
64.9584,13.3847
64.9277,13.1907
64.9298,13.1903
64.9328,13.1293
64.9622,13.0824
66.9425,11.1021
68.6495,11.1021
68.6495,12.8979
68.6495,12.8979
68.6559,12.9575
68.7062,13.0923
68.7062,13.0923
68.7925,13.2075
68.7925,13.2075
68.9077,13.2938
68.9077,13.2938
69.0391,13.3428
69.0950,13.3847
69.1194,13.4501
69.1046,13.5184
69.0834,13.5467
68.9699,13.6602
68.8450,13.8322
68.7484,14.0216
68.6828,14.2238
68.6543,14.4034
68.6495,14.4337
68.6495,14.6463
68.6524,14.6643
68.6703,14.7775
68.6828,14.8562
68.7452,15.0483
68.7484,15.0584
68.8450,15.2478
68.9699,15.4198
69.1202,15.5701
69.2922,15.6950
69.2922,15.6950
69.2922,15.6951
69.4816,15.7916
69.6838,15.8572
69.8937,15.8905
69.8937,15.8905
70.1063,15.8905
70.1063,15.8905
70.3162,15.8572
70.5184,15.7916
70.7078,15.6951
70.7298,15.6791
70.8798,15.5701
70.8798,15.5701
70.8798,15.5701
71.0301,15.4198
71.0301,15.4198
71.0301,15.4198
71.1550,15.2478
71.1550,15.2478
71.1551,15.2478
71.2516,15.0584
71.3172,14.8562
71.3505,14.6463
71.3505,14.4337
71.3172,14.2238
71.2516,14.0216
71.1551,13.8322
71.1550,13.8322
71.1550,13.8322
71.0301,13.6602
70.9166,13.5467
70.8831,13.4853
70.8881,13.4157
70.9299,13.3597
70.9609,13.3428
71.0923,13.2938
71.2075,13.2075
71.2938,13.0923
71.3441,12.9575
71.3505,12.8979
71.3505,11.1021
71.3441,11.0425
71.3402,11.0322
71.2938,10.9077
71.2938,10.9077
71.2075,10.7925
71.2075,10.7925
71.0923,10.7062
71.0923,10.7062
70.9575,10.6559
70.9575,10.6559
70.8979,10.6495
70.8979,10.6495
70.8979,10.6495
70.8979,10.6495
69.1021,10.6495
69.1021,10.6495
69.0425,10.6559
68.9077,10.7062
68.9077,10.7062
68.7925,10.7925
68.7925,10.7925
68.7062,10.9077
68.7062,10.9077
68.6559,11.0425
68.6497,11.1007
68.6495,11.1021
68.6495,11.1021
66.9425,11.1021
69.2220,8.8226
69.2220,8.8226
69.3092,8.7354
69.3776,8.6330
69.3776,8.6330
69.3776,8.6330
69.3776,8.6330
69.3904,8.6021
69.4248,8.5192
69.4488,8.3983
69.4488,8.2751
69.4488,6.4516
69.4685,6.3845
69.5213,6.3388
69.5904,6.3288
69.6111,6.3336
69.6838,6.3572
69.8937,6.3905
69.8937,6.3905
70.1063,6.3905
70.1063,6.3905
70.3162,6.3572
70.5184,6.2916
70.7078,6.1951
70.7445,6.1684
70.8798,6.0701
70.8798,6.0701
70.8798,6.0701
71.0301,5.9198
71.0301,5.9198
71.0301,5.9198
71.1550,5.7478
71.1550,5.7478
71.1551,5.7478
71.2516,5.5584
71.3172,5.3562
71.3505,5.1463
71.3505,4.9337
71.3172,4.7238
71.2516,4.5216
71.1551,4.3322
71.1550,4.3322
71.1550,4.3322
71.0301,4.1602
70.9166,4.0467
70.8831,3.9853
70.8881,3.9157
70.9299,3.8597
70.9609,3.8428
71.0923,3.7938
71.2075,3.7075
71.2938,3.5923
71.3441,3.4575
71.3505,3.3979
71.3505,1.6021
71.3441,1.5425
71.3394,1.5298
71.2938,1.4077
71.2938,1.4077
71.2075,1.2925
71.2075,1.2925
71.0923,1.2062
71.0923,1.2062
70.9575,1.1559
70.9575,1.1559
70.8979,1.1495
70.8979,1.1495
70.8979,1.1495
70.8979,1.1495
69.1021,1.1495
69.1021,1.1495
69.0425,1.1559
68.9077,1.2062
68.9077,1.2062
68.7925,1.2925
68.7925,1.2925
68.7062,1.4077
68.7062,1.4077
68.6559,1.5425
68.6521,1.5783
68.6495,1.6021
68.6495,1.6021
68.6495,3.3979
68.6495,3.3979
68.6559,3.4575
68.7093,3.6006
68.7081,3.6011
68.7210,3.6605
68.6966,3.7260
68.6850,3.7393
68.4246,3.9997
68.3374,4.0869
68.3374,4.0869
68.2690,4.1893
68.2690,4.1893
68.2373,4.2658
68.2356,4.2698
68.2218,4.3031
68.2190,4.3175
68.2174,4.3252
68.2174,4.3252
68.2028,4.3987
68.2028,4.3987
68.1978,4.4240
68.1978,8.0262
68.1781,8.0933
68.1615,8.1139
64.0776,12.1978
64.0163,12.2313
63.9696,12.2308
63.9693,12.2323
63.8047,12.2062
63.7624,12.1995
63.5576,12.1995
63.5333,12.2034
63.3555,12.2315
63.1608,12.2948
62.9784,12.3877
62.8128,12.5080
62.8128,12.5080
62.6680,12.6528
62.6680,12.6528
62.5477,12.8184
62.4548,13.0008
62.3915,13.1955
62.3595,13.3976
55.9156,13.3976
55.9074,13.3854
55.8202,13.2982
55.8202,13.2982
54.5036,11.9816
54.5036,11.9816
54.5036,11.9816
54.4966,11.9746
54.4966,11.9746
54.4094,11.8874
54.4094,11.8874
54.4094,11.8874
54.3640,11.8571
54.3640,11.8571
54.3582,11.8532
54.3070,11.8190
54.2265,11.7856
54.2112,11.7793
54.1932,11.7718
54.1831,11.7698
54.1327,11.7598
54.0723,11.7478
54.0723,11.7478
54.0723,11.7478
51.3650,11.7478
51.2418,11.7478
51.2418,11.7478
51.1814,11.7598
51.1381,11.7684
51.1209,11.7718
51.0071,11.8190
50.9076,11.8854
50.9076,11.8854
50.9047,11.8874
50.3638,12.4283
50.3025,12.4618
50.2328,12.4568
50.1768,12.4149
50.1375,12.3625
50.1375,12.3625
50.1375,12.3625
50.0223,12.2762
50.0223,12.2762
49.8875,12.2259
49.8875,12.2259
49.8279,12.2195
49.8279,12.2195
49.8279,12.2195
49.8279,12.2195
49.3024,12.2195
49.2353,12.1998
49.1896,12.1470
49.1796,12.0779
49.2086,12.0143
49.2147,12.0078
50.0674,11.1551
51.0607,10.1618
51.1220,10.1283
51.1484,10.1255
52.2839,10.1255
52.3509,10.1452
52.3836,10.1786
52.3848,10.1777
52.5080,10.3472
52.6528,10.4920
52.7909,10.5923
52.8184,10.6123
52.9040,10.6559
53.0008,10.7052
53.0008,10.7052
53.0008,10.7052
53.1051,10.7391
53.1955,10.7685
53.2966,10.7845
53.3976,10.8005
53.3976,10.8005
53.6024,10.8005
53.6024,10.8005
53.8045,10.7685
53.9992,10.7052
54.1816,10.6123
54.3025,10.5244
54.3472,10.4920
54.3472,10.4920
54.3472,10.4920
54.4920,10.3472
54.4920,10.3472
54.4920,10.3472
54.5447,10.2746
54.6123,10.1816
54.7052,9.9992
54.7685,9.8045
54.8005,9.6024
54.8005,9.3976
54.7685,9.1955
54.7669,9.1907
54.7052,9.0008
54.6602,8.9123
54.6123,8.8184
54.5520,8.7354
54.4920,8.6528
54.3472,8.5080
54.1816,8.3877
54.1816,8.3877
54.1816,8.3877
54.1247,8.3587
53.9992,8.2948
53.8045,8.2315
53.6278,8.2035
53.6024,8.1995
53.3976,8.1995
53.3733,8.2034
53.1955,8.2315
53.0008,8.2948
52.8184,8.3877
52.6528,8.5080
52.5080,8.6528
52.3848,8.8223
52.3832,8.8211
52.3378,8.8622
52.2839,8.8745
50.7763,8.8745
50.7190,8.8859
50.7159,8.8865
50.6782,8.8940
50.6554,8.8985
50.6554,8.8985
50.6221,8.9123
50.5416,8.9457
50.5416,8.9457
50.5208,8.9596
50.5208,8.9596
50.5150,8.9635
50.4392,9.0141
50.3520,9.1013
50.3520,9.1013
50.3483,9.1050
50.3483,9.1050
48.8410,10.6123
47.3546,12.0987
47.3546,12.0987
47.3163,12.1370
47.2674,12.1859
47.2407,12.2259
47.2407,12.2259
47.2369,12.2315
47.1990,12.2883
47.1990,12.2883
47.1518,12.4021
47.1518,12.4021
47.1493,12.4149
47.1308,12.5080
47.1278,12.5230
47.1278,14.6170
47.1453,14.7052
47.1518,14.7379
47.1564,14.7488
47.1579,14.7526
47.1990,14.8517
47.2261,14.8922
47.2306,14.8990
47.2306,14.8990
47.2674,14.9541
47.2674,14.9541
47.2674,14.9541
47.3546,15.0413
47.3546,15.0413
47.6407,15.3274
47.6777,15.3521
47.7225,15.4057
47.7312,15.4750
47.7193,15.5115
47.6784,15.5916
47.6128,15.7938
47.5795,16.0037
47.5795,16.2163
47.6071,16.3907
47.6128,16.4262
47.6717,16.6077
47.6784,16.6284
47.7750,16.8178
47.8999,16.9898
48.0502,17.1401
48.2222,17.2650
48.2309,17.2695
48.2817,17.3175
48.2985,17.3853
48.2760,17.4514
48.2309,17.4905
48.2222,17.4949
48.0502,17.6199
47.8999,17.7702
47.7750,17.9422
47.6784,18.1316
47.6128,18.3338
47.5906,18.4737
47.5795,18.5437
47.5795,18.7563
47.5814,18.7683
47.6128,18.9662
47.6178,18.9818
47.6198,19.0517
47.5876,19.1078
47.4515,19.2439
47.3451,19.3503
47.3451,19.3503
47.3015,19.3939
47.2579,19.4375
47.2430,19.4598
47.1895,19.5399
47.1759,19.5727
47.1665,19.5955
47.1423,19.6537
47.1183,19.7746
41.6022,19.7746
41.6022,7.8338
41.6219,7.7667
41.6385,7.7461
44.0824,5.3022
44.1437,5.2687
44.1904,5.2692
44.1907,5.2677
44.2941,5.2841
44.3976,5.3005
44.3976,5.3005
44.6024,5.3005
44.6024,5.3005
44.8045,5.2685
44.9992,5.2052
45.1816,5.1123
45.2928,5.0315
45.3472,4.9920
45.3472,4.9920
45.3472,4.9920
45.4920,4.8472
45.4920,4.8472
45.4920,4.8472
45.5817,4.7238
45.6123,4.6816
45.7052,4.4992
45.7685,4.3045
45.7740,4.2698
45.7892,4.1740
61.2445,4.1740
61.2445,4.8260
61.2839,5.0241
61.2839,5.0241
61.3612,5.2108
61.3612,5.2108
61.4734,5.3787
61.4734,5.3787
61.4734,5.3787
61.6082,5.5135
61.6417,5.5748
61.6445,5.6011
61.6445,8.1716
61.6480,8.1892
61.6480,8.1892
61.6484,8.1910
61.6685,8.2925
61.6718,8.3004
61.6977,8.3629
61.7157,8.4063
61.7499,8.4575
61.7499,8.4575
61.7841,8.5087
61.8756,8.6002
61.8756,8.6002
62.3578,9.0824
62.3913,9.1437
62.3908,9.1904
62.3923,9.1907
62.3595,9.3976
62.3595,9.6024
62.3915,9.8045
62.4548,9.9992
62.5187,10.1247
62.5206,10.1283
62.5477,10.1816
62.6680,10.3472
62.8128,10.4920
62.9509,10.5923
62.9784,10.6123
63.0640,10.6559
63.1608,10.7052
63.1608,10.7052
63.1608,10.7052
63.2651,10.7391
63.3555,10.7685
63.4566,10.7845
63.5576,10.8005
63.5576,10.8005
63.7624,10.8005
63.7624,10.8005
63.9645,10.7685
64.1592,10.7052
64.3416,10.6123
64.4625,10.5244
64.5072,10.4920
64.5072,10.4920
64.5072,10.4920
64.6520,10.3472
64.6520,10.3472
64.6520,10.3472
64.7047,10.2746
64.7723,10.1816
64.8652,9.9992
64.9285,9.8045
64.9605,9.6024
64.9605,9.3976
64.9285,9.1955
64.9269,9.1907
64.8652,9.0008
64.8202,8.9123
64.7723,8.8184
64.7120,8.7354
64.6520,8.6528
64.5072,8.5080
64.3416,8.3877
64.3416,8.3877
64.3416,8.3877
64.2847,8.3587
64.1592,8.2948
63.9645,8.2315
63.7878,8.2035
63.7624,8.1995
63.5576,8.1995
63.5153,8.2062
63.3507,8.2323
63.3503,8.2303
63.2891,8.2271
63.2424,8.1978
62.9318,7.8872
62.8983,7.8259
62.8955,7.7995
62.8955,5.7536
62.9152,5.6866
62.9680,5.6408
63.0371,5.6309
63.0669,5.6390
63.2409,5.7111
63.4255,5.7478
63.4390,5.7505
63.4390,5.7505
63.4390,5.7505
63.6410,5.7505
63.6410,5.7505
63.8391,5.7111
64.0258,5.6338
64.1937,5.5216
64.3366,5.3787
64.4488,5.2108
64.5261,5.0241
64.5655,4.8260
64.5655,4.1740
64.5261,3.9759
64.4488,3.7892
64.4488,3.7892
64.4488,3.7892
64.3366,3.6213
64.1937,3.4784
64.0258,3.3662
64.0258,3.3662
63.8391,3.2889
63.8391,3.2889
63.6410,3.2495
63.6410,3.2495
63.4390,3.2495
63.4390,3.2495
63.2409,3.2889
63.2409,3.2889
63.0542,3.3662
62.9739,3.4199
62.9072,3.4408
62.8398,3.4223
62.8361,3.4199
62.8247,3.4123
62.8031,3.3979
62.7558,3.3662
62.5691,3.2889
62.5691,3.2889
62.3710,3.2495
62.3710,3.2495
62.1690,3.2495
62.1690,3.2495
61.9709,3.2889
61.9709,3.2889
61.7842,3.3662
61.7842,3.3662
61.6163,3.4784
61.4734,3.6213
61.3612,3.7892
61.3612,3.7892
61.2839,3.9759
61.2839,3.9759
61.2445,4.1740
45.7892,4.1740
45.7932,4.1485
45.7932,4.1485
45.8005,4.1024
45.8005,3.8976
45.7685,3.6955
45.7067,3.5052
45.7052,3.5008
45.7052,3.5008
45.7052,3.5008
45.6539,3.4000
45.6123,3.3184
45.5622,3.2495
45.4920,3.1528
45.3472,3.0080
45.1816,2.8877
45.1816,2.8877
45.1816,2.8877
45.1219,2.8573
44.9992,2.7948
44.8045,2.7315
44.6300,2.7039
44.6024,2.6995
44.3976,2.6995
44.3733,2.7034
44.1955,2.7315
44.0008,2.7948
43.8184,2.8877
43.6528,3.0080
43.5080,3.1528
43.3877,3.3184
43.2948,3.5008
43.2315,3.6955
43.1995,3.8976
43.1995,4.1024
43.2108,4.1740
43.2323,4.3093
43.2303,4.3097
43.2272,4.3708
43.1978,4.4176
41.0603,6.5551
40.9990,6.5886
40.9293,6.5836
40.8850,6.5551
40.8798,6.5499
40.7078,6.4250
40.5184,6.3284
40.5184,6.3284
40.5184,6.3284
40.3162,6.2628
40.3162,6.2628
40.3162,6.2628
40.1550,6.2372
40.1063,6.2295
39.8937,6.2295
39.8304,6.2395
39.6838,6.2628
39.6838,6.2628
39.6838,6.2628
39.6596,6.2706
39.6111,6.2864
39.5413,6.2883
39.4814,6.2523
39.4506,6.1896
39.4488,6.1684
39.4488,4.7961
39.4685,4.7290
39.4851,4.7084
39.8550,4.3385
39.9163,4.3050
39.9427,4.3022
40.0616,4.3022
40.0616,4.3022
40.1825,4.2782
40.2963,4.2310
40.3987,4.1626
40.4859,4.0754
40.5543,3.9730
40.5733,3.9270
40.6172,3.8726
40.6835,3.8506
40.6879,3.8505
40.8979,3.8505
40.8979,3.8505
40.9575,3.8441
41.0923,3.7938
41.2075,3.7075
41.2938,3.5923
41.3441,3.4575
41.3505,3.3979
41.3505,1.6021
41.3441,1.5425
41.3394,1.5298
41.2938,1.4077
41.2938,1.4077
41.2075,1.2925
41.2075,1.2925
41.0923,1.2062
41.0923,1.2062
40.9575,1.1559
40.9575,1.1559
40.8979,1.1495
40.8979,1.1495
40.8979,1.1495
40.8979,1.1495
39.1021,1.1495
39.1021,1.1495
39.0425,1.1559
38.9077,1.2062
38.9077,1.2062
38.7925,1.2925
38.7925,1.2925
38.7062,1.4077
38.7062,1.4077
38.6559,1.5425
38.6521,1.5783
38.6495,1.6021
38.6495,1.6021
38.6495,3.3979
38.6495,3.3979
38.6559,3.4575
38.7093,3.6006
38.7081,3.6011
38.7210,3.6605
38.6966,3.7260
38.6850,3.7393
38.4246,3.9997
38.3374,4.0869
38.3374,4.0869
38.2690,4.1893
38.2690,4.1893
38.2373,4.2658
38.2356,4.2698
38.2218,4.3031
38.2190,4.3175
38.2174,4.3252
38.2174,4.3252
38.2028,4.3987
38.2028,4.3987
38.1978,4.4240
38.1978,23.3662
38.1781,23.4333
38.1615,23.4539
27.6322,33.9832
27.5709,34.0167
27.5012,34.0117
27.4452,33.9699
27.4208,33.9044
27.4205,33.8955
27.4205,33.7837
27.4006,33.6580
27.3872,33.5738
27.3216,33.3716
27.2251,33.1822
27.2250,33.1822
27.2250,33.1822
27.1001,33.0102
26.9498,32.8599
26.7778,32.7350
26.7771,32.7346
26.7691,32.7305
26.7183,32.6825
26.7015,32.6147
26.7240,32.5486
26.7691,32.5095
26.7778,32.5051
26.7998,32.4891
26.9498,32.3801
26.9498,32.3801
26.9498,32.3801
27.1001,32.2298
27.1001,32.2298
27.1001,32.2298
27.2250,32.0578
27.2250,32.0578
27.2251,32.0578
27.3216,31.8684
27.3872,31.6662
27.4205,31.4563
27.4205,31.2437
27.3872,31.0338
27.3216,30.8316
27.2251,30.6422
27.2250,30.6422
27.2250,30.6422
27.1001,30.4702
26.9498,30.3199
26.7778,30.1950
26.7771,30.1946
26.7691,30.1905
26.7183,30.1425
26.7015,30.0747
26.7240,30.0086
26.7691,29.9695
26.7778,29.9651
26.7998,29.9491
26.9498,29.8401
26.9498,29.8401
26.9498,29.8401
27.1001,29.6898
27.1001,29.6898
27.1001,29.6898
27.2250,29.5178
27.2250,29.5178
27.2251,29.5178
27.3216,29.3284
27.3872,29.1262
27.4205,28.9163
27.4205,28.7037
27.3872,28.4938
27.3822,28.4782
27.3802,28.4083
27.4124,28.3522
27.6613,28.1033
27.6613,28.1033
27.7485,28.0161
27.7841,27.9629
27.8169,27.9137
27.8503,27.8332
27.8641,27.7999
27.8881,27.6790
27.8881,23.1444
27.8834,23.1208
27.8717,23.0620
27.8641,23.0235
27.8169,22.9097
27.8169,22.9097
27.8169,22.9097
27.7485,22.8073
27.7485,22.8073
27.6582,22.7170
27.6582,22.7170
27.1375,22.1963
27.1040,22.1350
27.1090,22.0653
27.1248,22.0357
27.2251,21.8978
27.3216,21.7084
27.3872,21.5062
27.4205,21.2963
27.4205,21.0837
27.3872,20.8738
27.3216,20.6716
27.2251,20.4822
27.2250,20.4822
27.2250,20.4822
27.1001,20.3102
26.9498,20.1599
26.7778,20.0350
26.7771,20.0346
26.7691,20.0305
26.7183,19.9825
26.7015,19.9147
26.7240,19.8486
26.7691,19.8095
26.7778,19.8051
26.8062,19.7844
26.9498,19.6801
26.9498,19.6801
26.9498,19.6801
27.1001,19.5298
27.1001,19.5298
27.1001,19.5298
27.2250,19.3578
27.2250,19.3578
27.2251,19.3578
27.3216,19.1684
27.3872,18.9662
27.4205,18.7563
27.4205,18.5437
27.3872,18.3338
27.3216,18.1316
27.2251,17.9422
27.2250,17.9422
27.2250,17.9422
27.1001,17.7702
26.9498,17.6199
26.7778,17.4950
26.5884,17.3984
26.5884,17.3984
26.5884,17.3984
26.3862,17.3328
26.3862,17.3328
26.3862,17.3328
26.2111,17.3050
26.1763,17.2995
25.9637,17.2995
25.9637,17.2995
25.8683,17.3146
25.7990,17.3057
25.7612,17.2798
24.9084,16.4271
24.8749,16.3657
24.8721,16.3394
24.8721,15.0030
24.8918,14.9360
24.9446,14.8902
25.0137,14.8803
25.0394,14.8868
25.1125,14.9141
25.1721,14.9205
26.9679,14.9205
27.0275,14.9141
27.1623,14.8638
27.2775,14.7775
27.3638,14.6623
27.4141,14.5275
27.4205,14.4679
27.4205,12.6721
27.4141,12.6125
27.3807,12.5230
27.3638,12.4777
27.3638,12.4777
27.2775,12.3625
27.2775,12.3625
27.1623,12.2762
27.1623,12.2762
27.0275,12.2259
27.0275,12.2259
26.9679,12.2195
26.9679,12.2195
26.9679,12.2195
26.9679,12.2195
25.1721,12.2195
25.1721,12.2195
25.1125,12.2259
25.0394,12.2532
24.9697,12.2582
24.9084,12.2247
24.8749,12.1633
24.8721,12.1370
24.8721,8.2406
24.8918,8.1736
24.9084,8.1530
27.7245,5.3368
27.7859,5.3033
27.8122,5.3005
28.6000,5.3005
28.6000,5.3005
28.7028,5.2900
28.8693,5.2348
29.0187,5.1427
29.1427,5.0187
29.2348,4.8693
29.2900,4.7028
29.3005,4.6000
29.3005,3.4000
29.3003,3.3979
29.2900,3.2972
29.2900,3.2972
29.2742,3.2495
29.2348,3.1307
29.1427,2.9813
29.0187,2.8573
28.8693,2.7652
28.7028,2.7100
28.7028,2.7100
28.6000,2.6995
27.4000,2.6995
27.4000,2.6995
27.2972,2.7100
27.2972,2.7100
27.1307,2.7652
27.1307,2.7652
26.9813,2.8573
26.8573,2.9813
26.7652,3.1307
26.7652,3.1307
26.7597,3.1472
26.7100,3.2972
26.7100,3.2972
26.7100,3.2972
26.6995,3.4000
26.6995,4.1878
26.6798,4.2548
26.6632,4.2755
23.6637,7.2750
23.6637,7.2750
23.6636,7.2750
23.6636,7.2750
23.6302,7.3251
23.5815,7.3979
23.5815,7.3979
23.5249,7.5345
23.5249,7.5345
23.4961,7.6795
23.4961,7.6795
23.4961,7.8273
23.4961,7.8273
23.4961,7.8273
23.5249,7.9723
23.5249,7.9723
23.5815,8.1089
23.5815,8.1089
23.5815,8.1089
23.6002,8.1369
23.6211,8.2035
23.6211,8.2058
23.6211,9.9272
23.6014,9.9942
23.5486,10.0400
23.4971,10.0512
22.4745,10.0512
22.4075,10.0315
22.3617,9.9787
22.3505,9.9272
22.3505,8.6021
22.3505,8.6021
22.3505,8.6021
22.3441,8.5425
22.3354,8.5191
22.2938,8.4077
22.2938,8.4077
22.2075,8.2925
22.2075,8.2925
22.0923,8.2062
22.0923,8.2062
21.9575,8.1559
21.9575,8.1559
21.8979,8.1495
21.8979,8.1495
21.8979,8.1495
21.8979,8.1495
20.1021,8.1495
20.1021,8.1495
20.0425,8.1559
19.9077,8.2062
19.9077,8.2062
19.7925,8.2925
19.7925,8.2925
19.7062,8.4077
19.7062,8.4077
19.6559,8.5425
19.6497,8.6002
19.6495,8.6021
19.6495,8.6021
19.6495,10.3979
19.6495,10.3979
19.6559,10.4575
19.7062,10.5923
19.7062,10.5923
19.7925,10.7075
19.7925,10.7075
19.9077,10.7938
19.9077,10.7938
19.9256,10.8005
20.0425,10.8441
20.1021,10.8505
20.1768,10.8505
20.2438,10.8702
20.2896,10.9230
20.2914,10.9270
20.3349,11.0322
20.3349,11.0322
20.4170,11.1551
20.4171,11.1551
20.5216,11.2596
20.5216,11.2597
20.6445,11.3418
20.6445,11.3418
20.7671,11.3925
20.7811,11.3984
20.7811,11.3984
20.7811,11.3984
20.9261,11.4272
20.9261,11.4272
21.0739,11.4272
21.1715,11.4078
21.2189,11.3984
21.3555,11.3418
21.3835,11.3231
21.4501,11.3022
21.4524,11.3022
23.4971,11.3022
23.5641,11.3219
23.6099,11.3747
23.6211,11.4262
23.6211,16.3742
23.6174,16.3887
23.6183,16.4006
23.6085,16.4237
23.6059,16.4337
23.6033,16.4385
23.5815,16.4711
23.5691,16.5011
23.5659,16.5069
23.5457,16.5271
23.5278,16.5493
23.5213,16.5515
23.5165,16.5563
23.4886,16.5624
23.4615,16.5714
23.4549,16.5697
23.4482,16.5711
23.4215,16.5611
23.3938,16.5541
23.3892,16.5491
23.3828,16.5467
23.3657,16.5238
23.3462,16.5029
23.3445,16.4955
23.3409,16.4907
23.3399,16.4760
23.3331,16.4474
23.3331,14.5471
23.3331,14.5471
23.3292,14.5275
23.3091,14.4262
23.2870,14.3729
23.2619,14.3124
23.2135,14.2400
23.1935,14.2100
23.1935,14.2100
23.1032,14.1197
23.1032,14.1197
21.9020,12.9186
21.8948,12.9113
21.8948,12.9113
21.8076,12.8241
21.7564,12.7899
21.7052,12.7557
21.7052,12.7557
21.7052,12.7557
21.6315,12.7252
21.6315,12.7252
21.6247,12.7223
21.5914,12.7085
21.5309,12.6965
21.5262,12.6956
21.5262,12.6956
21.4705,12.6845
21.4705,12.6845
21.4705,12.6845
20.8783,12.6845
20.8112,12.6648
20.7906,12.6482
18.9671,10.8247
18.9604,10.8140
18.9533,10.8083
18.9454,10.7897
18.9373,10.7768
18.9347,10.7691
18.9222,10.7059
18.8751,10.5923
18.8750,10.5921
18.8745,10.5913
18.8562,10.5639
18.8562,10.5639
18.8066,10.4897
18.8066,10.4897
18.7163,10.3994
18.7163,10.3994
17.5256,9.2087
17.4921,9.1474
17.4893,9.1210
17.4893,8.4297
17.4893,8.4297
17.4893,8.3004
17.4653,8.1796
17.4653,8.1796
17.4653,8.1795
17.4620,8.1716
17.4182,8.0660
17.4182,8.0659
17.4182,8.0659
17.4182,8.0659
17.4181,8.0657
17.4181,8.0657
17.4181,8.0657
17.3770,8.0042
17.3497,7.9633
13.1966,3.8102
13.1632,3.7489
13.1681,3.6792
13.2100,3.6233
13.2649,3.6001
13.4645,3.5685
13.6592,3.5052
13.8416,3.4123
13.9346,3.3447
14.0072,3.2920
14.0072,3.2920
14.0072,3.2920
14.1520,3.1472
14.1520,3.1472
14.1520,3.1472
14.2222,3.0505
14.2723,2.9816
14.3652,2.7992
14.4285,2.6045
14.4605,2.4024
14.4605,2.1976
14.4285,1.9955
14.4285,1.9955
14.4285,1.9955
14.4095,1.9371
14.3982,1.9021
16.6495,1.9021
16.6495,3.6979
16.6495,3.6979
16.6559,3.7575
16.7062,3.8923
16.7062,3.8923
16.7925,4.0075
16.7925,4.0075
16.9077,4.0938
16.9077,4.0938
17.0425,4.1441
17.0425,4.1441
17.0494,4.1448
17.1021,4.1505
18.8979,4.1505
18.9575,4.1441
19.0923,4.0938
19.2075,4.0075
19.2938,3.8923
19.3441,3.7575
19.3505,3.6979
19.3505,1.9021
19.3441,1.8425
19.3285,1.8008
19.2938,1.7077
19.2938,1.7077
19.2075,1.5925
19.2075,1.5925
19.0923,1.5062
19.0923,1.5062
18.9575,1.4559
18.9575,1.4559
18.8979,1.4495
18.8979,1.4495
18.8979,1.4495
18.8979,1.4495
17.1021,1.4495
17.1021,1.4495
17.0425,1.4559
16.9077,1.5062
16.9077,1.5062
16.7925,1.5925
16.7925,1.5925
16.7062,1.7077
16.7062,1.7077
16.6559,1.8425
16.6495,1.9021
16.6495,1.9021
16.6495,1.9021
14.3982,1.9021
14.3788,1.8425
14.3652,1.8008
14.3652,1.8008
14.3652,1.8008
14.3178,1.7077
14.2723,1.6184
14.2534,1.5925
14.1520,1.4528
14.0072,1.3080
13.8416,1.1877
13.8416,1.1877
13.8416,1.1877
13.7666,1.1495
13.6592,1.0948
13.4645,1.0315
13.2900,1.0039
13.2624,0.9995
13.0576,0.9995
13.0333,1.0034
12.8555,1.0315
12.6608,1.0948
12.4784,1.1877
12.3128,1.3080
12.1680,1.4528
12.0477,1.6184
11.9548,1.8008
11.8915,1.9955
11.8599,2.1951
11.8545,2.2065
11.8536,2.2190
11.8398,2.2374
11.8300,2.2582
11.8193,2.2649
11.8117,2.2749
11.7902,2.2830
11.7707,2.2951
11.7581,2.2950
11.7463,2.2994
11.7238,2.2945
11.7008,2.2941
11.6887,2.2868
11.6780,2.2845
11.6498,2.2634
11.5640,2.1776
11.5305,2.1162
11.5300,2.1141
11.5235,2.0811
11.4880,1.9955
11.4669,1.9445
11.4669,1.9445
11.3848,1.8216
11.3847,1.8216
11.2802,1.7171
11.2802,1.7170
11.1573,1.6349
11.1573,1.6349
11.0207,1.5783
11.0207,1.5783
10.8757,1.5495
10.8757,1.5495
4.1254,1.5495
4.0584,1.5298
4.0251,1.4984
3.9920,1.4528
3.9920,1.4528
3.8472,1.3080
3.6816,1.1877
3.6816,1.1877
3.6816,1.1877
3.6066,1.1495
3.4992,1.0948
3.3045,1.0315
3.1300,1.0039
3.1024,0.9995
2.8976,0.9995
2.8733,1.0034
2.6955,1.0315
2.5008,1.0948
2.3184,1.1877
2.1528,1.3080
2.0080,1.4528
1.8877,1.6184
1.7948,1.8008
1.7315,1.9955
1.6995,2.1976
0.5005,2.1976
0.5005,0.6245
0.5202,0.5575
0.5730,0.5117
0.6245,0.5005
74.3755,0.5005
Z" /> 
</g>
<g style="fill:none; 
stroke:#D0D2CD; stroke-width:0.1000; stroke-opacity:1; 
stroke-linecap:round; stroke-linejoin:round;">
<path d="M0.0000 0.0000
L75.0000 0.0000
" />
<path d="M0.0000 50.0000
L0.0000 0.0000
" />
<path d="M75.0000 0.0000
L75.0000 50.0000
" />
<path d="M75.0000 50.0000
L0.0000 50.0000
" />
</g>
<g style="fill:#FFFFFF; fill-opacity:1.0000; stroke:none;">
<circle cx="40.2495" cy="36.6685" r="0.2000" /> 
<circle cx="17.5940" cy="11.1894" r="0.2000" /> 
<circle cx="15.1298" cy="27.9369" r="0.2000" /> 
<circle cx="51.9348" cy="22.9436" r="0.2000" /> 
</g>
<g style="fill:#FFFFFF; fill-opacity:1.0000; stroke:none;">
<circle cx="28.0000" cy="4.0000" r="0.4000" /> 
</g>
<g style="fill:#FFFFFF; fill-opacity:1.0000; stroke:none;">
<circle cx="30.5000" cy="4.0000" r="0.4000" /> 
</g>
<g style="fill:#FFFFFF; fill-opacity:1.0000; stroke:none;">
<circle cx="17.5000" cy="24.0000" r="0.5000" /> 
</g>
<g style="fill:#FFFFFF; fill-opacity:1.0000; stroke:none;">
<circle cx="17.5000" cy="26.5400" r="0.5000" /> 
</g>
<g style="fill:#FFFFFF; fill-opacity:1.0000; stroke:none;">
<circle cx="54.5000" cy="25.0000" r="0.5000" /> 
</g>
<g style="fill:#FFFFFF; fill-opacity:1.0000; stroke:none;">
<circle cx="59.5000" cy="25.0000" r="0.5000" /> 
</g>
<g style="fill:#FFFFFF; fill-opacity:1.0000; stroke:none;">
<circle cx="21.0000" cy="9.5000" r="0.5000" /> 
</g>
<g style="fill:#FFFFFF; fill-opacity:1.0000; stroke:none;">
<circle cx="21.0000" cy="12.0400" r="0.5000" /> 
</g>
<g style="fill:#FFFFFF; fill-opacity:1.0000; stroke:none;">
<circle cx="21.0000" cy="14.5800" r="0.5000" /> 
</g>
<g style="fill:#FFFFFF; fill-opacity:1.0000; stroke:none;">
<circle cx="21.0000" cy="17.1200" r="0.5000" /> 
</g>
<g style="fill:#FFFFFF; fill-opacity:1.0000; stroke:none;">
<circle cx="53.5000" cy="13.5000" r="0.4000" /> 
</g>
<g style="fill:#FFFFFF; fill-opacity:1.0000; stroke:none;">
<circle cx="63.6600" cy="13.5000" r="0.4000" /> 
</g>
<g style="fill:#FFFFFF; fill-opacity:1.0000; stroke:none;">
<circle cx="52.5000" cy="33.5000" r="0.4000" /> 
</g>
<g style="fill:#FFFFFF; fill-opacity:1.0000; stroke:none;">
<circle cx="57.5000" cy="33.5000" r="0.4000" /> 
</g>
<g style="fill:#FFFFFF; fill-opacity:1.0000; stroke:none;">
<circle cx="39.8000" cy="40.5000" r="0.5000" /> 
</g>
<g style="fill:#FFFFFF; fill-opacity:1.0000; stroke:none;">
<circle cx="39.8000" cy="43.0400" r="0.5000" /> 
</g>
<g style="fill:#FFFFFF; fill-opacity:1.0000; stroke:none;">
<circle cx="39.8000" cy="45.5800" r="0.5000" /> 
</g>
<g style="fill:#FFFFFF; fill-opacity:1.0000; stroke:none;">
<circle cx="11.8000" cy="36.9000" r="0.5000" /> 
</g>
<g style="fill:#FFFFFF; fill-opacity:1.0000; stroke:none;">
<circle cx="16.8000" cy="36.9000" r="0.5000" /> 
</g>
<g style="fill:#FFFFFF; fill-opacity:1.0000; stroke:none;">
<circle cx="62.5000" cy="32.5000" r="0.5000" /> 
</g>
<g style="fill:#FFFFFF; fill-opacity:1.0000; stroke:none;">
<circle cx="62.5000" cy="35.0400" r="0.5000" /> 
</g>
<g style="fill:#FFFFFF; fill-opacity:1.0000; stroke:none;">
<circle cx="62.5000" cy="37.5800" r="0.5000" /> 
</g>
<g style="fill:#FFFFFF; fill-opacity:1.0000; stroke:none;">
<circle cx="62.5000" cy="40.1200" r="0.5000" /> 
</g>
<g style="fill:#FFFFFF; fill-opacity:1.0000; stroke:none;">
<circle cx="62.5000" cy="42.6600" r="0.5000" /> 
</g>
<g style="fill:#FFFFFF; fill-opacity:1.0000; stroke:none;">
<circle cx="62.5000" cy="45.2000" r="0.5000" /> 
</g>
<g style="fill:#FFFFFF; fill-opacity:1.0000; stroke:none;">
<circle cx="3.0000" cy="2.3000" r="0.4000" /> 
</g>
<g style="fill:#FFFFFF; fill-opacity:1.0000; stroke:none;">
<circle cx="13.1600" cy="2.3000" r="0.4000" /> 
</g>
<g style="fill:#FFFFFF; fill-opacity:1.0000; stroke:none;">
<circle cx="70.0000" cy="12.0000" r="0.5000" /> 
</g>
<g style="fill:#FFFFFF; fill-opacity:1.0000; stroke:none;">
<circle cx="70.0000" cy="14.5400" r="0.5000" /> 
</g>
<g style="fill:#FFFFFF; fill-opacity:1.0000; stroke:none;">
<circle cx="70.0000" cy="17.0800" r="0.5000" /> 
</g>
<g style="fill:#FFFFFF; fill-opacity:1.0000; stroke:none;">
<circle cx="45.0000" cy="41.0000" r="0.5000" /> 
</g>
<g style="fill:#FFFFFF; fill-opacity:1.0000; stroke:none;">
<circle cx="45.0000" cy="43.5400" r="0.5000" /> 
</g>
<g style="fill:#FFFFFF; fill-opacity:1.0000; stroke:none;">
<circle cx="12.5000" cy="13.5000" r="0.5000" /> 
</g>
<g style="fill:#FFFFFF; fill-opacity:1.0000; stroke:none;">
<circle cx="12.5000" cy="16.0400" r="0.5000" /> 
</g>
<g style="fill:#FFFFFF; fill-opacity:1.0000; stroke:none;">
<circle cx="12.5000" cy="18.5800" r="0.5000" /> 
</g>
<g style="fill:#FFFFFF; fill-opacity:1.0000; stroke:none;">
<circle cx="12.5000" cy="21.1200" r="0.5000" /> 
</g>
<g style="fill:#FFFFFF; fill-opacity:1.0000; stroke:none;">
<circle cx="12.5000" cy="23.6600" r="0.5000" /> 
</g>
<g style="fill:#FFFFFF; fill-opacity:1.0000; stroke:none;">
<circle cx="12.5000" cy="26.2000" r="0.5000" /> 
</g>
<g style="fill:#FFFFFF; fill-opacity:1.0000; stroke:none;">
<circle cx="12.5000" cy="28.7400" r="0.5000" /> 
</g>
<g style="fill:#FFFFFF; fill-opacity:1.0000; stroke:none;">
<circle cx="53.5000" cy="9.5000" r="0.4000" /> 
</g>
<g style="fill:#FFFFFF; fill-opacity:1.0000; stroke:none;">
<circle cx="63.6600" cy="9.5000" r="0.4000" /> 
</g>
<g style="fill:#FFFFFF; fill-opacity:1.0000; stroke:none;">
<circle cx="70.0000" cy="2.5000" r="0.5000" /> 
</g>
<g style="fill:#FFFFFF; fill-opacity:1.0000; stroke:none;">
<circle cx="70.0000" cy="5.0400" r="0.5000" /> 
</g>
<g style="fill:#FFFFFF; fill-opacity:1.0000; stroke:none;">
<circle cx="3.0000" cy="6.3000" r="0.4000" /> 
</g>
<g style="fill:#FFFFFF; fill-opacity:1.0000; stroke:none;">
<circle cx="13.1600" cy="6.3000" r="0.4000" /> 
</g>
<g style="fill:#FFFFFF; fill-opacity:1.0000; stroke:none;">
<circle cx="40.0000" cy="2.5000" r="0.5000" /> 
</g>
<g style="fill:#FFFFFF; fill-opacity:1.0000; stroke:none;">
<circle cx="40.0000" cy="5.0400" r="0.5000" /> 
</g>
<g style="fill:#FFFFFF; fill-opacity:1.0000; stroke:none;">
<circle cx="40.0000" cy="7.5800" r="0.5000" /> 
</g>
<g style="fill:#FFFFFF; fill-opacity:1.0000; stroke:none;">
<circle cx="11.5000" cy="45.5000" r="0.4000" /> 
</g>
<g style="fill:#FFFFFF; fill-opacity:1.0000; stroke:none;">
<circle cx="14.0000" cy="45.5000" r="0.4000" /> 
</g>
<g style="fill:#FFFFFF; fill-opacity:1.0000; stroke:none;">
<circle cx="53.5000" cy="17.5000" r="0.4000" /> 
</g>
<g style="fill:#FFFFFF; fill-opacity:1.0000; stroke:none;">
<circle cx="63.6600" cy="17.5000" r="0.4000" /> 
</g>
<g style="fill:#000000; fill-opacity:1.0000; stroke:none;">
<circle cx="3.0000" cy="47.8400" r="0.5500" /> 
<circle cx="5.5400" cy="47.8400" r="0.5500" /> 
</g>
<g style="fill:#FFFFFF; fill-opacity:1.0000; stroke:none;">
<circle cx="3.0000" cy="45.3000" r="0.5500" /> 
</g>
<g style="fill:#FFFFFF; fill-opacity:1.0000; stroke:none;">
<circle cx="5.5400" cy="45.3000" r="0.5500" /> 
</g>
<g style="fill:#FFFFFF; fill-opacity:1.0000; stroke:none;">
<circle cx="19.5000" cy="45.5000" r="0.4500" /> 
</g>
<g style="fill:#FFFFFF; fill-opacity:1.0000; stroke:none;">
<circle cx="22.0400" cy="45.5000" r="0.4500" /> 
</g>
<g style="fill:#FFFFFF; fill-opacity:1.0000; stroke:none;">
<circle cx="28.5000" cy="41.5000" r="0.5500" /> 
</g>
<g style="fill:#FFFFFF; fill-opacity:1.0000; stroke:none;">
<circle cx="35.0000" cy="41.5000" r="0.5500" /> 
</g>
<g style="fill:#FFFFFF; fill-opacity:1.0000; stroke:none;">
<circle cx="28.5000" cy="46.0000" r="0.5500" /> 
</g>
<g style="fill:#FFFFFF; fill-opacity:1.0000; stroke:none;">
<circle cx="35.0000" cy="46.0000" r="0.5500" /> 
</g>
<g style="fill:#FFFFFF; fill-opacity:1.0000; stroke:none;">
<circle cx="61.0000" cy="4.5000" r="0.3750" /> 
</g>
<g style="fill:#FFFFFF; fill-opacity:1.0000; stroke:none;">
<circle cx="62.2700" cy="4.5000" r="0.3750" /> 
</g>
<g style="fill:#FFFFFF; fill-opacity:1.0000; stroke:none;">
<circle cx="63.5400" cy="4.5000" r="0.3750" /> 
</g>
<g style="fill:#FFFFFF; fill-opacity:1.0000; stroke:none;">
<circle cx="53.5000" cy="39.5000" r="0.4000" /> 
</g>
<g style="fill:#FFFFFF; fill-opacity:1.0000; stroke:none;">
<circle cx="56.0000" cy="39.5000" r="0.4000" /> 
</g>
<g style="fill:#FFFFFF; fill-opacity:1.0000; stroke:none;">
<circle cx="26.0700" cy="13.5700" r="0.5000" /> 
</g>
<g style="fill:#FFFFFF; fill-opacity:1.0000; stroke:none;">
<circle cx="26.0700" cy="16.1100" r="0.5000" /> 
</g>
<g style="fill:#FFFFFF; fill-opacity:1.0000; stroke:none;">
<circle cx="26.0700" cy="18.6500" r="0.5000" /> 
</g>
<g style="fill:#FFFFFF; fill-opacity:1.0000; stroke:none;">
<circle cx="26.0700" cy="21.1900" r="0.5000" /> 
</g>
<g style="fill:#FFFFFF; fill-opacity:1.0000; stroke:none;">
<circle cx="26.0700" cy="23.7300" r="0.5000" /> 
</g>
<g style="fill:#FFFFFF; fill-opacity:1.0000; stroke:none;">
<circle cx="26.0700" cy="26.2700" r="0.5000" /> 
</g>
<g style="fill:#FFFFFF; fill-opacity:1.0000; stroke:none;">
<circle cx="26.0700" cy="28.8100" r="0.5000" /> 
</g>
<g style="fill:#FFFFFF; fill-opacity:1.0000; stroke:none;">
<circle cx="26.0700" cy="31.3500" r="0.5000" /> 
</g>
<g style="fill:#FFFFFF; fill-opacity:1.0000; stroke:none;">
<circle cx="26.0700" cy="33.8900" r="0.5000" /> 
</g>
<g style="fill:#FFFFFF; fill-opacity:1.0000; stroke:none;">
<circle cx="26.0700" cy="36.4300" r="0.5000" /> 
</g>
<g style="fill:#FFFFFF; fill-opacity:1.0000; stroke:none;">
<circle cx="18.0000" cy="2.8000" r="0.5000" /> 
</g>
<g style="fill:#FFFFFF; fill-opacity:1.0000; stroke:none;">
<circle cx="18.0000" cy="5.3400" r="0.5000" /> 
</g>
<g style="fill:#FFFFFF; fill-opacity:1.0000; stroke:none;">
<circle cx="44.5000" cy="4.0000" r="0.4000" /> 
</g>
<g style="fill:#FFFFFF; fill-opacity:1.0000; stroke:none;">
<circle cx="49.5000" cy="4.0000" r="0.4000" /> 
</g>
<g style="fill:#FFFFFF; fill-opacity:1.0000; stroke:none;">
<circle cx="48.9300" cy="13.5700" r="0.5000" /> 
</g>
<g style="fill:#FFFFFF; fill-opacity:1.0000; stroke:none;">
<circle cx="48.9300" cy="16.1100" r="0.5000" /> 
</g>
<g style="fill:#FFFFFF; fill-opacity:1.0000; stroke:none;">
<circle cx="48.9300" cy="18.6500" r="0.5000" /> 
</g>
<g style="fill:#FFFFFF; fill-opacity:1.0000; stroke:none;">
<circle cx="48.9300" cy="21.1900" r="0.5000" /> 
</g>
<g style="fill:#FFFFFF; fill-opacity:1.0000; stroke:none;">
<circle cx="48.9300" cy="23.7300" r="0.5000" /> 
</g>
<g style="fill:#FFFFFF; fill-opacity:1.0000; stroke:none;">
<circle cx="48.9300" cy="26.2700" r="0.5000" /> 
</g>
<g style="fill:#FFFFFF; fill-opacity:1.0000; stroke:none;">
<circle cx="48.9300" cy="28.8100" r="0.5000" /> 
</g>
<g style="fill:#FFFFFF; fill-opacity:1.0000; stroke:none;">
<circle cx="48.9300" cy="31.3500" r="0.5000" /> 
</g>
<g style="fill:#FFFFFF; fill-opacity:1.0000; stroke:none;">
<circle cx="48.9300" cy="33.8900" r="0.5000" /> 
</g>
<g style="fill:#FFFFFF; fill-opacity:1.0000; stroke:none;">
<circle cx="48.9300" cy="36.4300" r="0.5000" /> 
</g> 
</svg>
