<?xml version="1.0" standalone="no"?>
 <!DOCTYPE svg PUBLIC "-//W3C//DTD SVG 1.1//EN" 
 "http://www.w3.org/Graphics/SVG/1.1/DTD/svg11.dtd"> 
<svg
  xmlns:svg="http://www.w3.org/2000/svg"
  xmlns="http://www.w3.org/2000/svg"
  xmlns:xlink="http://www.w3.org/1999/xlink"
  xmlns:inkscape="http://www.inkscape.org/namespaces/inkscape"
  version="1.1"
  width="99.9998mm" height="79.9846mm" viewBox="0.0000 0.0000 99.9998 79.9846">
<title>SVG Image created as board-back.svg date 2026-07-12T14:51:31 </title>
  <desc>Image generated by PCBNEW </desc>
<g style="fill:#000000; fill-opacity:1.0000;stroke:#000000; stroke-opacity:1.0000;
stroke-linecap:round; stroke-linejoin:round;"
 transform="translate(0 0) scale(1 1)">
<path style="fill:#4D7FC4; fill-opacity:1.0000; stroke:none;fill-rule:evenodd;"
d="M 39.2000,13.4500
39.2190,13.3543
39.2732,13.2732
39.3543,13.2190
39.4500,13.2000
40.5500,13.2000
40.6457,13.2190
40.7268,13.2732
40.7810,13.3543
40.8000,13.4500
40.8000,14.5500
40.7810,14.6457
40.7268,14.7268
40.6457,14.7810
40.5500,14.8000
39.4500,14.8000
39.3543,14.7810
39.2732,14.7268
39.2190,14.6457
39.2000,14.5500
Z" /> 
</g>
<g style="fill:#4D7FC4; fill-opacity:1.0000; stroke:none;">
<circle cx="42.5000" cy="14.0000" r="0.8000" /> 
<path style="fill:#4D7FC4; fill-opacity:1.0000; stroke:none;fill-rule:evenodd;"
d="M 17.6500,43.8500
17.6500,42.1500
19.3500,42.1500
19.3500,43.8500
Z" /> 
<circle cx="18.5000" cy="45.5400" r="0.8500" /> 
<path style="fill:#4D7FC4; fill-opacity:1.0000; stroke:none;fill-rule:evenodd;"
d="M 80.0000,42.2500
80.0190,42.1543
80.0732,42.0732
80.1543,42.0190
80.2500,42.0000
81.7500,42.0000
81.8457,42.0190
81.9268,42.0732
81.9810,42.1543
82.0000,42.2500
82.0000,43.7500
81.9810,43.8457
81.9268,43.9268
81.8457,43.9810
81.7500,44.0000
80.2500,44.0000
80.1543,43.9810
80.0732,43.9268
80.0190,43.8457
80.0000,43.7500
Z" /> 
<circle cx="86.0000" cy="43.0000" r="1.0000" /> 
<path style="fill:#4D7FC4; fill-opacity:1.0000; stroke:none;fill-rule:evenodd;"
d="M 22.2000,72.4500
22.2190,72.3543
22.2732,72.2732
22.3543,72.2190
22.4500,72.2000
23.5500,72.2000
23.6457,72.2190
23.7268,72.2732
23.7810,72.3543
23.8000,72.4500
23.8000,73.5500
23.7810,73.6457
23.7268,73.7268
23.6457,73.7810
23.5500,73.8000
22.4500,73.8000
22.3543,73.7810
22.2732,73.7268
22.2190,73.6457
22.2000,73.5500
Z" /> 
<circle cx="30.6200" cy="73.0000" r="0.8000" /> 
<path style="fill:#4D7FC4; fill-opacity:1.0000; stroke:none;fill-rule:evenodd;"
d="M 30.1500,30.8500
30.1500,29.1500
31.8500,29.1500
31.8500,30.8500
Z" /> 
<circle cx="31.0000" cy="32.5400" r="0.8500" /> 
<circle cx="31.0000" cy="35.0800" r="0.8500" /> 
<circle cx="31.0000" cy="37.6200" r="0.8500" /> 
<circle cx="68.0000" cy="16.0000" r="0.8000" /> 
<circle cx="78.1600" cy="16.0000" r="0.8000" /> 
<circle cx="76.0000" cy="56.0000" r="0.8000" /> 
<circle cx="81.0000" cy="56.0000" r="0.8000" /> 
<path style="fill:#4D7FC4; fill-opacity:1.0000; stroke:none;fill-rule:evenodd;"
d="M 49.1500,59.3500
49.1500,57.6500
50.8500,57.6500
50.8500,59.3500
Z" /> 
<circle cx="50.0000" cy="61.0400" r="0.8500" /> 
<circle cx="50.0000" cy="63.5800" r="0.8500" /> 
<path style="fill:#4D7FC4; fill-opacity:1.0000; stroke:none;fill-rule:evenodd;"
d="M 10.0000,55.2500
10.0190,55.1543
10.0732,55.0732
10.1543,55.0190
10.2500,55.0000
11.7500,55.0000
11.8457,55.0190
11.9268,55.0732
11.9810,55.1543
12.0000,55.2500
12.0000,56.7500
11.9810,56.8457
11.9268,56.9268
11.8457,56.9810
11.7500,57.0000
10.2500,57.0000
10.1543,56.9810
10.0732,56.9268
10.0190,56.8457
10.0000,56.7500
Z" /> 
<circle cx="16.0000" cy="56.0000" r="1.0000" /> 
<path style="fill:#4D7FC4; fill-opacity:1.0000; stroke:none;fill-rule:evenodd;"
d="M 86.6500,55.8500
86.6500,54.1500
88.3500,54.1500
88.3500,55.8500
Z" /> 
<circle cx="87.5000" cy="57.5400" r="0.8500" /> 
<circle cx="87.5000" cy="60.0800" r="0.8500" /> 
<circle cx="87.5000" cy="62.6200" r="0.8500" /> 
<circle cx="87.5000" cy="65.1600" r="0.8500" /> 
<circle cx="87.5000" cy="67.7000" r="0.8500" /> 
<circle cx="10.0000" cy="3.5000" r="0.8000" /> 
<circle cx="20.1600" cy="3.5000" r="0.8000" /> 
<path style="fill:#4D7FC4; fill-opacity:1.0000; stroke:none;fill-rule:evenodd;"
d="M 93.1500,35.8500
93.1500,34.1500
94.8500,34.1500
94.8500,35.8500
Z" /> 
<circle cx="94.0000" cy="37.5400" r="0.8500" /> 
<circle cx="94.0000" cy="40.0800" r="0.8500" /> 
<path style="fill:#4D7FC4; fill-opacity:1.0000; stroke:none;fill-rule:evenodd;"
d="M 54.6500,59.8500
54.6500,58.1500
56.3500,58.1500
56.3500,59.8500
Z" /> 
<circle cx="55.5000" cy="61.5400" r="0.8500" /> 
<path style="fill:#4D7FC4; fill-opacity:1.0000; stroke:none;fill-rule:evenodd;"
d="M 11.6500,32.8500
11.6500,31.1500
13.3500,31.1500
13.3500,32.8500
Z" /> 
<circle cx="12.5000" cy="34.5400" r="0.8500" /> 
<circle cx="12.5000" cy="37.0800" r="0.8500" /> 
<circle cx="12.5000" cy="39.6200" r="0.8500" /> 
<circle cx="12.5000" cy="42.1600" r="0.8500" /> 
<circle cx="12.5000" cy="44.7000" r="0.8500" /> 
<circle cx="12.5000" cy="47.2400" r="0.8500" /> 
<circle cx="68.0000" cy="11.5000" r="0.8000" /> 
<circle cx="78.1600" cy="11.5000" r="0.8000" /> 
<path style="fill:#4D7FC4; fill-opacity:1.0000; stroke:none;fill-rule:evenodd;"
d="M 87.1500,4.3500
87.1500,2.6500
88.8500,2.6500
88.8500,4.3500
Z" /> 
<circle cx="88.0000" cy="6.0400" r="0.8500" /> 
<circle cx="4.0000" cy="64.0000" r="0.8000" /> 
<circle cx="14.1600" cy="64.0000" r="0.8000" /> 
<path style="fill:#4D7FC4; fill-opacity:1.0000; stroke:none;fill-rule:evenodd;"
d="M 49.1500,3.8500
49.1500,2.1500
50.8500,2.1500
50.8500,3.8500
Z" /> 
<circle cx="50.0000" cy="5.5400" r="0.8500" /> 
<circle cx="50.0000" cy="8.0800" r="0.8500" /> 
<path style="fill:#4D7FC4; fill-opacity:1.0000; stroke:none;fill-rule:evenodd;"
d="M 35.2000,72.4500
35.2190,72.3543
35.2732,72.2732
35.3543,72.2190
35.4500,72.2000
36.5500,72.2000
36.6457,72.2190
36.7268,72.2732
36.7810,72.3543
36.8000,72.4500
36.8000,73.5500
36.7810,73.6457
36.7268,73.7268
36.6457,73.7810
36.5500,73.8000
35.4500,73.8000
35.3543,73.7810
35.2732,73.7268
35.2190,73.6457
35.2000,73.5500
Z" /> 
<circle cx="38.5000" cy="73.0000" r="0.8000" /> 
<circle cx="80.0000" cy="34.0000" r="0.8000" /> 
<circle cx="90.1600" cy="34.0000" r="0.8000" /> 
<path style="fill:#4D7FC4; fill-opacity:1.0000; stroke:none;fill-rule:evenodd;"
d="M 10.9000,72.1500
10.9190,72.0543
10.9732,71.9732
11.0543,71.9190
11.1500,71.9000
12.8500,71.9000
12.9457,71.9190
13.0268,71.9732
13.0810,72.0543
13.1000,72.1500
13.1000,73.8500
13.0810,73.9457
13.0268,74.0268
12.9457,74.0810
12.8500,74.1000
11.1500,74.1000
11.0543,74.0810
10.9732,74.0268
10.9190,73.9457
10.9000,73.8500
Z" /> 
<circle cx="14.5400" cy="73.0000" r="1.1000" /> 
<path style="fill:#4D7FC4; fill-opacity:1.0000; stroke:none;fill-rule:evenodd;"
d="M 20.6000,64.9000
20.6000,63.1000
22.4000,63.1000
22.4000,64.9000
Z" /> 
<circle cx="24.0400" cy="64.0000" r="0.9000" /> 
<circle cx="39.0000" cy="60.0000" r="1.0000" /> 
<circle cx="45.5000" cy="60.0000" r="1.0000" /> 
<circle cx="39.0000" cy="64.5000" r="1.0000" /> 
<circle cx="45.5000" cy="64.5000" r="1.0000" /> 
<path style="fill:#4D7FC4; fill-opacity:1.0000; stroke:none;fill-rule:evenodd;"
d="M 76.4750,6.7500
76.4750,5.2500
77.5250,5.2500
77.5250,6.7500
Z" /> 
</g>
<g style="fill:none; 
stroke:#4D7FC4; stroke-width:1.0500; stroke-opacity:1; 
stroke-linecap:round; stroke-linejoin:round;">
<path d="M78.2700 5.7750
L78.2700 6.2250
" />
<path d="M79.5400 5.7750
L79.5400 6.2250
" />
<path style="fill:#4D7FC4; fill-opacity:1.0000; stroke:none;fill-rule:evenodd;"
d="M 76.2000,61.4500
76.2190,61.3543
76.2732,61.2732
76.3543,61.2190
76.4500,61.2000
77.5500,61.2000
77.6457,61.2190
77.7268,61.2732
77.7810,61.3543
77.8000,61.4500
77.8000,62.5500
77.7810,62.6457
77.7268,62.7268
77.6457,62.7810
77.5500,62.8000
76.4500,62.8000
76.3543,62.7810
76.2732,62.7268
76.2190,62.6457
76.2000,62.5500
Z" /> 
</g>
<g style="fill:#4D7FC4; fill-opacity:1.0000; stroke:none;">
<circle cx="79.5000" cy="62.0000" r="0.8000" /> 
<path style="fill:#4D7FC4; fill-opacity:1.0000; stroke:none;fill-rule:evenodd;"
d="M 37.7200,29.4200
37.7200,27.7200
39.4200,27.7200
39.4200,29.4200
Z" /> 
<circle cx="38.5700" cy="31.1100" r="0.8500" /> 
<circle cx="38.5700" cy="33.6500" r="0.8500" /> 
<circle cx="38.5700" cy="36.1900" r="0.8500" /> 
<circle cx="38.5700" cy="38.7300" r="0.8500" /> 
<circle cx="38.5700" cy="41.2700" r="0.8500" /> 
<circle cx="38.5700" cy="43.8100" r="0.8500" /> 
<circle cx="38.5700" cy="46.3500" r="0.8500" /> 
<circle cx="38.5700" cy="48.8900" r="0.8500" /> 
<circle cx="38.5700" cy="51.4300" r="0.8500" /> 
<path style="fill:#4D7FC4; fill-opacity:1.0000; stroke:none;fill-rule:evenodd;"
d="M 24.1500,3.8500
24.1500,2.1500
25.8500,2.1500
25.8500,3.8500
Z" /> 
<circle cx="25.0000" cy="5.5400" r="0.8500" /> 
<circle cx="55.0000" cy="6.0000" r="0.8000" /> 
<circle cx="60.0000" cy="6.0000" r="0.8000" /> 
<path style="fill:#4D7FC4; fill-opacity:1.0000; stroke:none;fill-rule:evenodd;"
d="M 60.5800,29.4200
60.5800,27.7200
62.2800,27.7200
62.2800,29.4200
Z" /> 
<circle cx="61.4300" cy="31.1100" r="0.8500" /> 
<circle cx="61.4300" cy="33.6500" r="0.8500" /> 
<circle cx="61.4300" cy="36.1900" r="0.8500" /> 
<circle cx="61.4300" cy="38.7300" r="0.8500" /> 
<circle cx="61.4300" cy="41.2700" r="0.8500" /> 
<circle cx="61.4300" cy="43.8100" r="0.8500" /> 
<circle cx="61.4300" cy="46.3500" r="0.8500" /> 
<circle cx="61.4300" cy="48.8900" r="0.8500" /> 
<circle cx="61.4300" cy="51.4300" r="0.8500" /> 
<circle cx="87.7412" cy="42.4206" r="0.4000" /> 
<circle cx="63.5707" cy="58.7126" r="0.4000" /> 
<circle cx="79.7964" cy="31.7232" r="0.4000" /> 
<circle cx="84.1132" cy="36.7816" r="0.4000" /> 
<circle cx="21.4476" cy="35.8292" r="0.4000" /> 
<circle cx="36.1526" cy="35.2079" r="0.4000" /> 
<circle cx="20.5238" cy="32.0683" r="0.4000" /> 
<circle cx="58.9019" cy="31.3786" r="0.4000" /> 
</g>
<g style="fill:none; 
stroke:#4D7FC4; stroke-width:0.2500; stroke-opacity:1; 
stroke-linecap:round; stroke-linejoin:round;">
<path d="M36.9152 17.0848
L36.9152 30.0000
" />
<path d="M36.9152 30.0000
L36.9152 31.9952
" />
<path d="M31.0000 30.0000
L36.9152 30.0000
" />
<path d="M36.9152 31.9952
L38.5700 33.6500
" />
<path d="M48.8058 42.8562
L48.8058 59.8458
" />
</g>
<g style="fill:none; 
stroke:#4D7FC4; stroke-width:0.5000; stroke-opacity:1; 
stroke-linecap:round; stroke-linejoin:round;">
<path d="M40.0000 14.0000
L36.9152 17.0848
" />
<path d="M48.8058 59.8458
L50.0000 61.0400
" />
<path d="M50.0000 8.0800
L50.0000 41.6620
" />
</g>
<g style="fill:none; 
stroke:#4D7FC4; stroke-width:0.2500; stroke-opacity:1; 
stroke-linecap:round; stroke-linejoin:round;">
<path d="M50.0000 41.6620
L48.8058 42.8562
" />
<path d="M42.5000 27.1800
L38.5700 31.1100
" />
<path d="M86.0000 51.0000
L81.0000 56.0000
" />
</g>
<g style="fill:none; 
stroke:#4D7FC4; stroke-width:0.5000; stroke-opacity:1; 
stroke-linecap:round; stroke-linejoin:round;">
<path d="M25.0920 32.5400
L25.0920 5.6320
" />
<path d="M25.0920 32.5400
L31.0000 32.5400
" />
<path d="M79.5000 62.0000
L79.5000 57.5000
" />
<path d="M46.4200 63.5800
L45.5000 64.5000
" />
<path d="M16.0000 48.2000
L12.5000 44.7000
" />
<path d="M22.7723 65.2677
L24.0400 64.0000
" />
</g>
<g style="fill:none; 
stroke:#4D7FC4; stroke-width:0.2500; stroke-opacity:1; 
stroke-linecap:round; stroke-linejoin:round;">
<path d="M86.0000 43.0000
L86.0000 51.0000
" />
<path d="M16.0000 65.2677
L16.0000 71.5400
" />
</g>
<g style="fill:none; 
stroke:#4D7FC4; stroke-width:0.5000; stroke-opacity:1; 
stroke-linecap:round; stroke-linejoin:round;">
<path d="M24.0400 33.5920
L25.0920 32.5400
" />
</g>
<g style="fill:none; 
stroke:#4D7FC4; stroke-width:0.2500; stroke-opacity:1; 
stroke-linecap:round; stroke-linejoin:round;">
<path d="M16.0000 56.0000
L16.0000 65.2677
" />
</g>
<g style="fill:none; 
stroke:#4D7FC4; stroke-width:0.5000; stroke-opacity:1; 
stroke-linecap:round; stroke-linejoin:round;">
<path d="M24.0400 64.0000
L24.0400 33.5920
" />
<path d="M42.5000 14.0000
L42.5000 27.1800
" />
</g>
<g style="fill:none; 
stroke:#4D7FC4; stroke-width:0.2500; stroke-opacity:1; 
stroke-linecap:round; stroke-linejoin:round;">
<path d="M50.0000 63.5800
L46.4200 63.5800
" />
</g>
<g style="fill:none; 
stroke:#4D7FC4; stroke-width:0.5000; stroke-opacity:1; 
stroke-linecap:round; stroke-linejoin:round;">
<path d="M39.0000 72.5000
L38.5000 73.0000
" />
<path d="M16.0000 56.0000
L16.0000 48.2000
" />
<path d="M16.0000 71.5400
L14.5400 73.0000
" />
</g>
<g style="fill:none; 
stroke:#4D7FC4; stroke-width:0.2500; stroke-opacity:1; 
stroke-linecap:round; stroke-linejoin:round;">
<path d="M16.0000 65.2677
L22.7723 65.2677
" />
</g>
<g style="fill:none; 
stroke:#4D7FC4; stroke-width:0.5000; stroke-opacity:1; 
stroke-linecap:round; stroke-linejoin:round;">
<path d="M79.5000 57.5000
L81.0000 56.0000
" />
<path d="M25.0920 5.6320
L25.0000 5.5400
" />
<path d="M39.0000 64.5000
L39.0000 72.5000
" />
<path d="M11.0000 57.0000
L11.0000 56.0000
" />
</g>
<g style="fill:none; 
stroke:#4D7FC4; stroke-width:0.2500; stroke-opacity:1; 
stroke-linecap:round; stroke-linejoin:round;">
<path d="M40.2913 48.8481
L38.9794 50.1600
" />
</g>
<g style="fill:none; 
stroke:#4D7FC4; stroke-width:0.5000; stroke-opacity:1; 
stroke-linecap:round; stroke-linejoin:round;">
<path d="M68.0000 30.0000
L81.0000 43.0000
" />
<path d="M4.0000 64.0000
L11.0000 57.0000
" />
<path d="M68.0000 16.0000
L68.0000 30.0000
" />
<path d="M11.0000 48.7400
L11.0000 56.0000
" />
</g>
<g style="fill:none; 
stroke:#4D7FC4; stroke-width:0.2500; stroke-opacity:1; 
stroke-linecap:round; stroke-linejoin:round;">
<path d="M38.2172 29.7467
L37.3669 30.5970
" />
<path d="M38.1734 32.3800
L39.0575 32.3800
" />
<path d="M40.2913 33.6138
L40.2913 48.8481
" />
</g>
<g style="fill:none; 
stroke:#4D7FC4; stroke-width:0.5000; stroke-opacity:1; 
stroke-linecap:round; stroke-linejoin:round;">
<path d="M12.5000 47.2400
L11.0000 48.7400
" />
</g>
<g style="fill:none; 
stroke:#4D7FC4; stroke-width:0.2500; stroke-opacity:1; 
stroke-linecap:round; stroke-linejoin:round;">
<path d="M38.5700 29.7467
L38.2172 29.7467
" />
<path d="M38.0768 50.1600
L36.0000 52.2368
" />
<path d="M38.5700 28.5700
L38.5700 29.7467
" />
<path d="M37.3669 30.5970
L37.3669 31.5735
" />
<path d="M37.3669 31.5735
L38.1734 32.3800
" />
<path d="M39.0575 32.3800
L40.2913 33.6138
" />
</g>
<g style="fill:none; 
stroke:#4D7FC4; stroke-width:0.5000; stroke-opacity:1; 
stroke-linecap:round; stroke-linejoin:round;">
<path d="M36.0000 52.2368
L36.0000 73.0000
" />
</g>
<g style="fill:none; 
stroke:#4D7FC4; stroke-width:0.2500; stroke-opacity:1; 
stroke-linecap:round; stroke-linejoin:round;">
<path d="M38.9794 50.1600
L38.0768 50.1600
" />
<path d="M31.0000 35.0800
L37.0181 41.0981
" />
<path d="M37.0181 41.0981
L37.0181 42.2581
" />
<path d="M37.0181 42.2581
L38.5700 43.8100
" />
<path d="M88.0000 3.5000
L88.0000 4.6767
" />
<path d="M78.1600 16.0000
L78.1600 14.1490
" />
<path d="M87.6323 4.6767
L88.0000 4.6767
" />
<path d="M78.1600 14.1490
L87.6323 4.6767
" />
</g>
<g style="fill:none; 
stroke:#4D7FC4; stroke-width:0.5000; stroke-opacity:1; 
stroke-linecap:round; stroke-linejoin:round;">
<path d="M77.0000 57.0000
L76.0000 56.0000
" />
<path d="M77.0000 62.0000
L77.0000 57.0000
" />
</g>
<g style="fill:none; 
stroke:#4D7FC4; stroke-width:0.2500; stroke-opacity:1; 
stroke-linecap:round; stroke-linejoin:round;">
<path d="M88.6767 56.3633
L87.5000 57.5400
" />
<path d="M88.6767 43.3561
L88.6767 56.3633
" />
<path d="M87.7412 42.4206
L88.6767 43.3561
" />
<path d="M63.5707 41.7462
L63.5707 58.7126
" />
<path d="M60.2202 32.3198
L60.2202 39.2267
" />
<path d="M60.2202 39.2267
L60.9935 40.0000
" />
<path d="M61.4300 31.1100
L60.2202 32.3198
" />
<path d="M61.8245 40.0000
L63.5707 41.7462
" />
<path d="M60.9935 40.0000
L61.8245 40.0000
" />
<path d="M82.3908 36.1751
L82.3908 34.3176
" />
<path d="M87.5000 62.6200
L89.1537 60.9663
" />
<path d="M89.1537 60.9663
L89.1537 42.7553
" />
<path d="M79.7964 31.7232
L82.3908 31.7232
" />
<path d="M89.1537 42.7553
L85.9600 39.5616
" />
<path d="M85.9600 39.5616
L85.7773 39.5616
" />
<path d="M85.7773 39.5616
L82.3908 36.1751
" />
<path d="M82.3908 34.3176
L79.7964 31.7232
" />
<path d="M82.3908 31.7232
L79.7964 31.7232
" />
<path d="M84.1132 36.7816
L86.2823 36.7816
" />
<path d="M89.6054 63.0546
L89.6054 42.2738
" />
<path d="M86.2823 36.7816
L84.1132 36.7816
" />
<path d="M87.5000 65.1600
L89.6054 63.0546
" />
<path d="M89.6054 42.2738
L84.1132 36.7816
" />
</g>
<g style="fill:none; 
stroke:#4D7FC4; stroke-width:0.5000; stroke-opacity:1; 
stroke-linecap:round; stroke-linejoin:round;">
<path d="M10.0000 3.5000
L21.4476 14.9476
" />
</g>
<g style="fill:none; 
stroke:#4D7FC4; stroke-width:0.2500; stroke-opacity:1; 
stroke-linecap:round; stroke-linejoin:round;">
<path d="M21.4476 14.9476
L21.4476 35.8292
" />
<path d="M94.0000 37.5400
L93.7000 37.5400
" />
<path d="M93.7000 37.5400
L90.1600 34.0000
" />
<path d="M39.7859 40.8217
L39.7859 47.6741
" />
<path d="M39.7859 47.6741
L38.5700 48.8900
" />
<path d="M38.1126 39.9761
L38.9403 39.9761
" />
<path d="M36.1526 35.2079
L36.1526 38.0161
" />
<path d="M36.1526 38.0161
L38.1126 39.9761
" />
<path d="M38.9403 39.9761
L39.7859 40.8217
" />
<path d="M12.5000 42.1600
L20.5238 34.1362
" />
<path d="M20.5238 34.1362
L20.5238 32.0683
" />
<path d="M57.3632 29.8399
L58.9019 31.3786
" />
<path d="M58.9019 38.7419
L61.4300 41.2700
" />
<path d="M58.9019 31.3786
L58.9019 38.7419
" />
<path d="M58.9019 31.3786
L57.3632 29.8399
" />
<path d="M62.7949 16.7051
L62.7949 37.3652
" />
<path d="M62.7948 37.3652
L61.4300 38.7300
" />
<path d="M68.0000 11.5000
L62.7949 16.7051
" />
<path d="M62.7949 37.3652
L62.7948 37.3652
" />
<path d="M78.2700 7.0767
L78.1600 7.1867
" />
<path d="M78.1600 7.1867
L78.1600 11.5000
" />
<path d="M78.2700 6.0000
L78.2700 7.0767
" />
<path d="M49.6322 4.1767
L50.0000 4.1767
" />
<path d="M38.5700 51.4300
L48.8233 41.1767
" />
<path d="M48.8233 41.1767
L48.8233 4.9856
" />
<path d="M50.0000 3.0000
L50.0000 4.1767
" />
<path d="M48.8233 4.9856
L49.6322 4.1767
" />
<path style="fill:#4D7FC4; fill-opacity:1.0000; stroke:none;fill-rule:evenodd;"
d="M 99.4425,0.5202
99.4883,0.5730
99.4995,0.6245
99.4995,79.3755
99.4798,79.4425
99.4270,79.4883
99.3755,79.4995
0.6245,79.4995
0.5575,79.4798
0.5117,79.4270
0.5005,79.3755
0.5005,75.3787
2.6495,75.3787
2.6495,75.6213
2.6812,75.8618
2.7439,76.0961
2.8368,76.3202
2.8368,76.3202
2.9581,76.5303
2.9581,76.5303
2.9581,76.5303
3.1057,76.7227
3.1057,76.7227
3.2773,76.8943
3.2773,76.8943
3.4697,77.0419
3.6798,77.1632
3.9039,77.2561
4.1382,77.3188
4.3186,77.3426
4.3787,77.3505
4.3787,77.3505
4.6213,77.3505
4.6694,77.3442
4.8618,77.3188
5.0961,77.2561
5.3202,77.1632
5.5303,77.0419
5.7227,76.8943
5.8943,76.7227
6.0419,76.5303
6.1632,76.3202
6.2561,76.0961
6.3188,75.8618
6.3505,75.6213
6.3505,75.3787
6.3188,75.1382
6.2561,74.9039
6.1632,74.6798
6.0419,74.4697
5.9810,74.3903
5.8943,74.2773
5.8943,74.2773
5.7227,74.1057
5.7227,74.1057
5.5303,73.9581
5.5303,73.9581
5.5303,73.9581
5.3383,73.8472
5.3202,73.8368
5.3202,73.8368
5.0961,73.7439
4.8618,73.6812
4.6213,73.6495
4.6213,73.6495
4.3787,73.6495
4.3787,73.6495
4.1382,73.6812
3.9039,73.7439
3.6798,73.8368
3.6798,73.8368
3.4697,73.9581
3.2773,74.1057
3.2773,74.1057
3.1057,74.2773
3.1057,74.2773
2.9581,74.4697
2.8368,74.6798
2.8368,74.6798
2.7439,74.9039
2.6812,75.1382
2.6495,75.3787
0.5005,75.3787
0.5005,72.1000
10.3995,72.1000
10.3995,73.9000
10.4100,74.0028
10.4100,74.0028
10.4652,74.1693
10.5573,74.3187
10.6813,74.4427
10.8307,74.5348
10.9972,74.5900
11.1000,74.6005
11.1000,74.6005
11.5564,74.6005
11.6235,74.6202
11.6692,74.6730
11.6792,74.7421
11.6501,74.8057
11.6253,74.8276
11.4897,74.9182
11.4897,74.9182
11.3782,75.0297
11.3782,75.0297
11.2906,75.1608
11.2906,75.1608
11.2303,75.3065
11.2303,75.3065
11.1995,75.4612
11.1995,75.6188
11.2303,75.7735
11.2303,75.7735
11.2906,75.9192
11.2906,75.9192
11.3782,76.0503
11.3782,76.0503
11.4897,76.1618
11.4897,76.1618
11.6208,76.2494
11.6208,76.2494
11.7665,76.3097
11.7665,76.3097
11.9212,76.3405
11.9212,76.3405
11.9212,76.3405
12.0788,76.3405
12.0788,76.3405
12.2335,76.3097
12.3792,76.2494
12.5103,76.1618
12.6218,76.0503
12.7094,75.9192
12.7697,75.7735
12.8005,75.6188
12.8005,75.4612
12.8005,75.4612
12.8005,75.4612
13.7395,75.4612
13.7395,75.6188
13.7703,75.7735
13.7703,75.7735
13.8306,75.9192
13.8306,75.9192
13.9182,76.0503
13.9182,76.0503
14.0297,76.1618
14.0297,76.1618
14.1608,76.2494
14.1608,76.2494
14.3065,76.3097
14.3065,76.3097
14.4612,76.3405
14.4612,76.3405
14.4612,76.3405
14.6188,76.3405
14.6188,76.3405
14.7735,76.3097
14.9192,76.2494
15.0503,76.1618
15.1618,76.0503
15.2494,75.9192
15.3097,75.7735
15.3405,75.6188
15.3405,75.4612
15.3405,75.4612
15.3405,75.4612
15.3281,75.3988
15.3241,75.3787
93.6495,75.3787
93.6495,75.6213
93.6812,75.8618
93.7439,76.0961
93.8368,76.3202
93.8368,76.3202
93.9581,76.5303
93.9581,76.5303
93.9581,76.5303
94.1057,76.7227
94.1057,76.7227
94.2773,76.8943
94.2773,76.8943
94.4697,77.0419
94.6798,77.1632
94.9039,77.2561
95.1382,77.3188
95.3186,77.3426
95.3787,77.3505
95.3787,77.3505
95.6213,77.3505
95.6694,77.3442
95.8618,77.3188
96.0961,77.2561
96.3202,77.1632
96.5303,77.0419
96.7227,76.8943
96.8943,76.7227
97.0419,76.5303
97.1632,76.3202
97.2561,76.0961
97.3188,75.8618
97.3505,75.6213
97.3505,75.3787
97.3188,75.1382
97.2561,74.9039
97.1632,74.6798
97.0419,74.4697
96.9810,74.3903
96.8943,74.2773
96.8943,74.2773
96.7227,74.1057
96.7227,74.1057
96.5303,73.9581
96.5303,73.9581
96.5303,73.9581
96.3383,73.8472
96.3202,73.8368
96.3202,73.8368
96.0961,73.7439
95.8618,73.6812
95.6213,73.6495
95.6213,73.6495
95.3787,73.6495
95.3787,73.6495
95.1382,73.6812
94.9039,73.7439
94.6798,73.8368
94.6798,73.8368
94.4697,73.9581
94.2773,74.1057
94.2773,74.1057
94.1057,74.2773
94.1057,74.2773
93.9581,74.4697
93.8368,74.6798
93.8368,74.6798
93.7439,74.9039
93.6812,75.1382
93.6495,75.3787
15.3241,75.3787
15.3097,75.3065
15.3097,75.3065
15.3097,75.3065
15.3097,75.3065
15.2494,75.1608
15.2494,75.1608
15.1618,75.0297
15.1618,75.0297
15.0503,74.9182
15.0503,74.9182
14.9192,74.8306
14.9192,74.8306
14.7735,74.7703
14.7735,74.7703
14.6188,74.7395
14.6188,74.7395
14.4612,74.7395
14.4612,74.7395
14.3065,74.7703
14.3065,74.7703
14.1608,74.8306
14.1608,74.8306
14.0297,74.9182
14.0297,74.9182
13.9182,75.0297
13.9182,75.0297
13.8306,75.1608
13.8306,75.1608
13.7703,75.3065
13.7703,75.3065
13.7395,75.4612
12.8005,75.4612
12.7697,75.3065
12.7697,75.3065
12.7697,75.3065
12.7697,75.3065
12.7094,75.1608
12.7094,75.1608
12.6218,75.0297
12.6218,75.0297
12.5103,74.9182
12.5103,74.9182
12.3747,74.8276
12.3299,74.7740
12.3212,74.7047
12.3513,74.6416
12.4108,74.6049
12.4436,74.6005
12.9000,74.6005
12.9000,74.6005
13.0028,74.5900
13.1693,74.5348
13.3187,74.4427
13.4427,74.3187
13.5348,74.1693
13.5900,74.0028
13.6005,73.9000
13.6005,72.4000
21.6995,72.4000
21.6995,73.6000
21.6995,73.6000
21.7100,73.7028
21.7100,73.7028
21.7544,73.8368
21.7652,73.8693
21.8573,74.0187
21.9813,74.1427
22.1307,74.2348
22.2972,74.2900
22.4000,74.3005
23.6000,74.3005
23.7028,74.2900
23.8693,74.2348
24.0187,74.1427
24.1427,74.0187
24.2348,73.8693
24.2900,73.7028
24.3005,73.6000
24.3005,72.8976
29.3195,72.8976
29.3195,73.1024
29.3515,73.3045
29.4148,73.4992
29.4661,73.6000
29.5075,73.6812
29.5077,73.6816
29.6280,73.8472
29.7728,73.9920
29.9277,74.1046
29.9384,74.1123
30.0503,74.1693
30.1208,74.2052
30.1208,74.2052
30.1208,74.2052
30.2119,74.2348
30.3155,74.2685
30.4166,74.2845
30.5176,74.3005
30.5176,74.3005
30.7224,74.3005
30.7224,74.3005
30.9245,74.2685
31.1192,74.2052
31.3016,74.1123
31.4305,74.0187
31.4672,73.9920
31.4672,73.9920
31.4672,73.9920
31.6120,73.8472
31.6120,73.8472
31.6120,73.8472
31.6870,73.7439
31.7323,73.6816
31.8252,73.4992
31.8885,73.3045
31.9205,73.1024
31.9205,72.8976
31.8885,72.6955
31.8252,72.5008
31.8252,72.5008
31.8252,72.5008
31.7739,72.4000
31.7323,72.3184
31.7169,72.2972
31.6120,72.1528
31.4672,72.0080
31.3016,71.8877
31.3016,71.8877
31.3016,71.8877
31.2419,71.8573
31.1192,71.7948
30.9245,71.7315
30.7464,71.7033
30.7224,71.6995
30.5176,71.6995
30.4936,71.7033
30.3155,71.7315
30.1208,71.7948
29.9384,71.8877
29.7728,72.0080
29.6280,72.1528
29.5077,72.3184
29.4148,72.5008
29.3515,72.6955
29.3195,72.8976
24.3005,72.8976
24.3005,72.4000
24.2900,72.2972
24.2348,72.1307
24.1427,71.9813
24.0187,71.8573
23.8693,71.7652
23.7028,71.7100
23.7028,71.7100
23.6000,71.6995
22.4000,71.6995
22.4000,71.6995
22.2972,71.7100
22.2972,71.7100
22.1307,71.7652
22.1307,71.7652
21.9813,71.8573
21.8573,71.9813
21.7652,72.1307
21.7652,72.1307
21.7100,72.2972
21.7100,72.2972
21.7100,72.2972
21.6995,72.4000
13.6005,72.4000
13.6005,72.1000
13.5900,71.9972
13.5348,71.8307
13.4427,71.6813
13.3187,71.5573
13.1693,71.4652
13.0028,71.4100
13.0028,71.4100
12.9000,71.3995
12.9000,71.3995
11.1000,71.3995
11.1000,71.3995
10.9972,71.4100
10.9972,71.4100
10.9147,71.4373
10.8307,71.4652
10.8307,71.4652
10.6813,71.5573
10.5573,71.6813
10.4652,71.8307
10.4652,71.8307
10.4463,71.8877
10.4100,71.9972
10.4100,71.9972
10.4100,71.9972
10.3995,72.1000
0.5005,72.1000
0.5005,63.8976
2.6995,63.8976
2.6995,64.1024
2.7315,64.3045
2.7948,64.4992
2.8877,64.6816
3.0080,64.8472
3.1528,64.9920
3.3077,65.1046
3.3184,65.1123
3.4346,65.1715
3.5008,65.2052
3.5008,65.2052
3.5008,65.2052
3.6051,65.2391
3.6955,65.2685
3.7966,65.2845
3.8976,65.3005
3.8976,65.3005
4.1024,65.3005
4.1024,65.3005
4.3045,65.2685
4.4992,65.2052
4.6816,65.1123
4.8259,65.0075
4.8472,64.9920
4.8472,64.9920
4.8472,64.9920
4.9920,64.8472
4.9920,64.8472
4.9920,64.8472
5.0583,64.7559
5.1123,64.6816
5.2052,64.4992
5.2685,64.3045
5.3005,64.1024
5.3005,63.8976
12.8595,63.8976
12.8595,64.1024
12.8915,64.3045
12.9548,64.4992
13.0477,64.6816
13.1680,64.8472
13.3128,64.9920
13.4677,65.1046
13.4784,65.1123
13.5946,65.1715
13.6608,65.2052
13.6608,65.2052
13.6608,65.2052
13.7651,65.2391
13.8555,65.2685
13.9566,65.2845
14.0576,65.3005
14.0576,65.3005
14.2624,65.3005
14.2624,65.3005
14.4645,65.2685
14.6592,65.2052
14.8416,65.1123
14.9859,65.0075
15.0072,64.9920
15.0072,64.9920
15.0072,64.9920
15.1520,64.8472
15.1520,64.8472
15.1520,64.8472
15.2183,64.7559
15.2723,64.6816
15.3652,64.4992
15.4285,64.3045
15.4605,64.1024
15.4605,63.8976
15.4494,63.8275
15.4285,63.6955
15.3652,63.5008
15.3315,63.4346
15.2723,63.3184
15.2517,63.2900
15.1520,63.1528
15.0513,63.0521
20.0995,63.0521
20.0995,64.9479
20.0995,64.9479
20.1059,65.0075
20.1562,65.1423
20.1562,65.1423
20.2425,65.2575
20.2425,65.2575
20.3577,65.3438
20.3577,65.3438
20.4925,65.3941
20.4925,65.3941
20.4994,65.3948
20.5521,65.4005
22.4479,65.4005
22.5075,65.3941
22.6423,65.3438
22.7575,65.2575
22.8438,65.1423
22.8941,65.0075
22.9005,64.9479
22.9005,63.0521
22.8941,62.9925
22.8731,62.9362
22.8438,62.8577
22.8438,62.8577
22.7575,62.7425
22.7575,62.7425
22.6423,62.6562
22.6423,62.6562
22.5075,62.6059
22.5075,62.6059
22.4479,62.5995
22.4479,62.5995
22.4479,62.5995
22.4479,62.5995
20.5521,62.5995
20.5521,62.5995
20.4925,62.6059
20.3577,62.6562
20.3577,62.6562
20.2425,62.7425
20.2425,62.7425
20.1562,62.8577
20.1562,62.8577
20.1059,62.9925
20.0995,63.0521
20.0995,63.0521
20.0995,63.0521
15.0513,63.0521
15.0072,63.0080
14.8416,62.8877
14.8416,62.8877
14.8416,62.8877
14.7826,62.8577
14.6592,62.7948
14.4645,62.7315
14.2900,62.7039
14.2624,62.6995
14.0576,62.6995
14.0368,62.7028
13.8555,62.7315
13.6608,62.7948
13.4784,62.8877
13.3128,63.0080
13.1680,63.1528
13.0477,63.3184
12.9548,63.5008
12.8915,63.6955
12.8595,63.8976
5.3005,63.8976
5.2916,63.8413
5.2915,63.8407
5.2962,63.8067
5.3006,63.7727
5.3011,63.7720
5.3012,63.7715
5.3026,63.7698
5.3265,63.7349
11.5245,57.5368
11.5859,57.5033
11.6122,57.5005
11.8000,57.5005
11.8000,57.5005
11.9028,57.4900
12.0693,57.4348
12.2187,57.3427
12.3427,57.2187
12.4348,57.0693
12.4900,56.9028
12.5005,56.8000
12.5005,55.2000
12.4900,55.0972
12.4348,54.9307
12.3427,54.7813
12.2187,54.6573
12.0693,54.5652
11.9028,54.5100
11.9028,54.5100
11.8619,54.5058
11.7972,54.4794
11.7571,54.4222
11.7505,54.3825
11.7505,49.1022
11.7702,49.0352
11.7868,49.0146
12.1912,48.6102
12.2525,48.5767
12.2983,48.5754
12.3937,48.5905
12.3937,48.5905
12.6063,48.5905
12.6063,48.5905
12.8162,48.5572
13.0184,48.4916
13.2078,48.3951
13.2901,48.3353
13.3798,48.2701
13.3798,48.2701
13.3798,48.2701
13.5301,48.1198
13.5301,48.1198
13.5301,48.1198
13.6550,47.9478
13.6550,47.9478
13.6551,47.9478
13.7516,47.7584
13.8172,47.5562
13.8505,47.3463
13.8505,47.1337
13.8172,46.9238
13.7516,46.7216
13.6551,46.5322
13.6550,46.5322
13.6550,46.5322
13.5301,46.3602
13.3798,46.2099
13.2078,46.0850
13.0184,45.9884
13.0184,45.9884
13.0184,45.9884
12.8162,45.9228
12.8162,45.9228
12.8162,45.9228
12.6550,45.8972
12.6063,45.8895
12.3937,45.8895
12.3450,45.8972
12.1838,45.9228
11.9816,45.9884
11.7922,46.0850
11.6202,46.2099
11.4699,46.3602
11.3450,46.5322
11.2484,46.7216
11.1828,46.9238
11.1495,47.1337
11.1495,47.3463
11.1646,47.4417
11.1557,47.5110
11.1298,47.5488
10.4170,48.2616
10.4170,48.2616
10.3678,48.3353
10.3678,48.3353
10.3349,48.3845
10.3349,48.3845
10.2783,48.5211
10.2783,48.5211
10.2495,48.6661
10.2495,54.3825
10.2298,54.4495
10.1770,54.4953
10.1381,54.5058
10.0972,54.5100
10.0972,54.5100
9.9307,54.5652
9.9307,54.5652
9.7813,54.6573
9.6573,54.7813
9.5652,54.9307
9.5652,54.9307
9.5100,55.0972
9.5100,55.0972
9.5100,55.0972
9.4995,55.2000
9.4995,56.8000
9.4995,56.8000
9.5100,56.9028
9.5100,56.9028
9.5507,57.0255
9.5652,57.0693
9.6297,57.1740
9.6482,57.2414
9.6272,57.3080
9.6119,57.3268
4.2651,62.6735
4.2038,62.7070
4.1580,62.7083
4.1024,62.6995
3.8976,62.6995
3.8768,62.7028
3.6955,62.7315
3.5008,62.7948
3.3184,62.8877
3.1528,63.0080
3.0080,63.1528
2.8877,63.3184
2.7948,63.5008
2.7315,63.6955
2.6995,63.8976
0.5005,63.8976
0.5005,4.3787
2.6495,4.3787
2.6495,4.6213
2.6797,4.8505
2.6812,4.8618
2.6874,4.8849
2.7439,5.0961
2.8360,5.3184
2.8368,5.3202
2.9581,5.5303
2.9581,5.5303
2.9581,5.5303
3.1057,5.7227
3.1057,5.7227
3.2773,5.8943
3.2773,5.8943
3.4697,6.0419
3.6798,6.1632
3.9039,6.2561
4.1382,6.3188
4.3186,6.3426
4.3787,6.3505
4.3787,6.3505
4.6213,6.3505
4.6694,6.3442
4.8618,6.3188
5.0961,6.2561
5.3202,6.1632
5.5303,6.0419
5.7227,5.8943
5.8943,5.7227
6.0419,5.5303
6.1632,5.3202
6.2561,5.0961
6.3188,4.8618
6.3505,4.6213
6.3505,4.3787
6.3188,4.1382
6.2561,3.9039
6.1632,3.6798
6.0419,3.4697
6.0408,3.4683
6.0408,3.4683
6.0408,3.4683
5.9866,3.3976
8.6995,3.3976
8.6995,3.6024
8.7315,3.8045
8.7948,3.9992
8.8587,4.1247
8.8789,4.1643
8.8877,4.1816
9.0080,4.3472
9.1528,4.4920
9.3030,4.6011
9.3184,4.6123
9.4346,4.6715
9.5008,4.7052
9.5008,4.7052
9.5008,4.7052
9.6051,4.7391
9.6955,4.7685
9.7566,4.7782
9.8976,4.8005
9.8976,4.8005
10.1023,4.8005
10.1024,4.8005
10.1580,4.7917
10.2273,4.8006
10.2651,4.8265
20.7858,15.3471
20.8193,15.4085
20.8221,15.4348
20.8221,31.0584
20.8024,31.1254
20.7496,31.1712
20.6805,31.1811
20.6739,31.1800
20.6125,31.1678
20.6125,31.1678
20.4351,31.1678
20.4351,31.1678
20.2611,31.2024
20.2611,31.2024
20.0973,31.2703
20.0972,31.2703
19.9498,31.3688
19.9498,31.3688
19.8243,31.4943
19.8243,31.4943
19.7258,31.6417
19.7258,31.6418
19.6579,31.8056
19.6579,31.8056
19.6233,31.9796
19.6233,32.1570
19.6579,32.3310
19.6579,32.3310
19.7258,32.4948
19.7258,32.4949
19.8243,32.6423
19.8243,32.6423
19.8620,32.6800
19.8955,32.7413
19.8983,32.7677
19.8983,33.8257
19.8786,33.8928
19.8620,33.9134
14.0622,39.7132
14.0009,39.7467
13.9312,39.7417
13.8752,39.6999
13.8508,39.6344
13.8505,39.6255
13.8505,39.5137
13.8172,39.3038
13.8172,39.3038
13.7516,39.1016
13.6551,38.9122
13.6550,38.9122
13.6550,38.9122
13.5301,38.7402
13.3798,38.5899
13.2078,38.4650
13.2071,38.4646
13.1991,38.4605
13.1483,38.4125
13.1315,38.3447
13.1540,38.2786
13.1991,38.2395
13.2078,38.2351
13.2581,38.1985
13.3798,38.1101
13.3798,38.1101
13.3798,38.1101
13.5301,37.9598
13.5301,37.9598
13.5301,37.9598
13.6550,37.7878
13.6550,37.7878
13.6551,37.7878
13.7516,37.5984
13.8172,37.3962
13.8505,37.1863
13.8505,36.9737
13.8172,36.7638
13.7516,36.5616
13.6551,36.3722
13.6550,36.3722
13.6550,36.3722
13.5301,36.2002
13.3798,36.0499
13.2078,35.9250
13.2071,35.9246
13.1991,35.9205
13.1483,35.8725
13.1315,35.8047
13.1540,35.7386
13.1991,35.6995
13.2078,35.6951
13.2912,35.6344
13.3798,35.5701
13.3798,35.5701
13.3798,35.5701
13.5301,35.4198
13.5301,35.4198
13.5301,35.4198
13.6550,35.2478
13.6550,35.2478
13.6551,35.2478
13.7516,35.0584
13.8172,34.8562
13.8505,34.6463
13.8505,34.4337
13.8172,34.2238
13.7516,34.0216
13.6551,33.8322
13.6550,33.8322
13.6550,33.8322
13.5301,33.6602
13.4166,33.5467
13.3831,33.4853
13.3881,33.4157
13.4299,33.3597
13.4609,33.3428
13.5923,33.2938
13.7075,33.2075
13.7938,33.0923
13.8441,32.9575
13.8505,32.8979
13.8505,31.1021
13.8441,31.0425
13.8371,31.0237
13.7938,30.9077
13.7938,30.9077
13.7075,30.7925
13.7075,30.7925
13.5923,30.7062
13.5923,30.7062
13.4575,30.6559
13.4575,30.6559
13.3979,30.6495
13.3979,30.6495
13.3979,30.6495
13.3979,30.6495
11.6021,30.6495
11.6021,30.6495
11.5425,30.6559
11.4077,30.7062
11.4077,30.7062
11.2925,30.7925
11.2925,30.7925
11.2062,30.9077
11.2062,30.9077
11.1559,31.0425
11.1500,31.0977
11.1495,31.1021
11.1495,31.1021
11.1495,32.8979
11.1495,32.8979
11.1559,32.9575
11.2062,33.0923
11.2062,33.0923
11.2925,33.2075
11.2925,33.2075
11.4077,33.2938
11.4077,33.2938
11.5391,33.3428
11.5950,33.3847
11.6194,33.4501
11.6046,33.5184
11.5834,33.5467
11.4699,33.6602
11.3450,33.8322
11.2484,34.0216
11.1828,34.2238
11.1495,34.4337
11.1495,34.6463
11.1813,34.8472
11.1828,34.8562
11.2408,35.0349
11.2484,35.0584
11.3450,35.2478
11.4699,35.4198
11.6202,35.5701
11.7922,35.6950
11.8009,35.6995
11.8517,35.7475
11.8685,35.8153
11.8460,35.8814
11.8009,35.9205
11.7922,35.9249
11.6202,36.0499
11.4699,36.2002
11.3450,36.3722
11.2484,36.5616
11.1828,36.7638
11.1495,36.9737
11.1495,37.1863
11.1807,37.3831
11.1828,37.3962
11.2408,37.5749
11.2484,37.5984
11.3450,37.7878
11.4699,37.9598
11.6202,38.1101
11.7922,38.2351
11.8009,38.2395
11.8517,38.2875
11.8685,38.3553
11.8460,38.4214
11.8009,38.4605
11.7922,38.4649
11.6202,38.5899
11.4699,38.7402
11.3450,38.9122
11.2484,39.1016
11.1828,39.3038
11.1615,39.4378
11.1495,39.5137
11.1495,39.7263
11.1828,39.9362
11.2411,40.1159
11.2484,40.1384
11.3450,40.3278
11.4699,40.4998
11.6202,40.6501
11.7922,40.7751
11.8009,40.7795
11.8517,40.8275
11.8685,40.8953
11.8460,40.9614
11.8009,41.0005
11.7922,41.0049
11.6202,41.1299
11.4699,41.2802
11.3450,41.4522
11.2484,41.6416
11.1828,41.8438
11.1495,42.0537
11.1495,42.2663
11.1795,42.4555
11.1828,42.4762
11.2414,42.6568
11.2484,42.6784
11.3450,42.8678
11.4699,43.0398
11.6202,43.1901
11.7922,43.3150
11.7922,43.3150
11.7922,43.3151
11.9816,43.4116
12.1838,43.4772
12.3937,43.5105
12.3937,43.5105
12.6063,43.5105
12.6063,43.5105
12.8162,43.4772
13.0184,43.4116
13.2078,43.3151
13.2471,43.2865
13.3798,43.1901
13.3798,43.1901
13.3798,43.1901
13.5301,43.0398
13.5301,43.0398
13.5301,43.0398
13.6550,42.8678
13.6550,42.8678
13.6551,42.8678
13.7516,42.6784
13.8172,42.4762
13.8505,42.2663
13.8505,42.1021
17.1495,42.1021
17.1495,43.8979
17.1495,43.8979
17.1559,43.9575
17.2062,44.0923
17.2062,44.0923
17.2925,44.2075
17.2925,44.2075
17.4077,44.2938
17.4077,44.2938
17.5391,44.3428
17.5950,44.3847
17.6194,44.4501
17.6046,44.5184
17.5834,44.5467
17.4699,44.6602
17.3450,44.8322
17.2484,45.0216
17.1828,45.2238
17.1495,45.4337
17.1495,45.6463
17.1788,45.8316
17.1828,45.8562
17.2145,45.9538
17.2484,46.0584
17.3450,46.2478
17.4699,46.4198
17.6202,46.5701
17.7922,46.6950
17.7922,46.6950
17.7922,46.6951
17.9816,46.7916
18.1838,46.8572
18.3937,46.8905
18.3937,46.8905
18.6063,46.8905
18.6063,46.8905
18.8162,46.8572
19.0184,46.7916
19.2078,46.6951
19.2475,46.6662
19.3798,46.5701
19.3798,46.5701
19.3798,46.5701
19.5301,46.4198
19.5301,46.4198
19.5301,46.4198
19.6550,46.2478
19.6550,46.2478
19.6551,46.2478
19.7516,46.0584
19.8172,45.8562
19.8505,45.6463
19.8505,45.4337
19.8172,45.2238
19.7516,45.0216
19.6551,44.8322
19.6550,44.8322
19.6550,44.8322
19.5301,44.6602
19.4166,44.5467
19.3831,44.4853
19.3881,44.4157
19.4299,44.3597
19.4609,44.3428
19.5923,44.2938
19.7075,44.2075
19.7938,44.0923
19.8441,43.9575
19.8505,43.8979
19.8505,42.1021
19.8441,42.0425
19.8348,42.0175
19.7938,41.9077
19.7938,41.9077
19.7075,41.7925
19.7075,41.7925
19.5923,41.7062
19.5923,41.7062
19.4575,41.6559
19.4575,41.6559
19.3979,41.6495
19.3979,41.6495
19.3979,41.6495
19.3979,41.6495
17.6021,41.6495
17.6021,41.6495
17.5425,41.6559
17.4077,41.7062
17.4077,41.7062
17.2925,41.7925
17.2925,41.7925
17.2062,41.9077
17.2062,41.9077
17.1559,42.0425
17.1500,42.0972
17.1495,42.1021
17.1495,42.1021
13.8505,42.1021
13.8505,42.0537
13.8172,41.8438
13.8122,41.8282
13.8102,41.7583
13.8424,41.7022
20.6104,34.9342
20.6299,34.9236
20.6466,34.9091
20.6599,34.9071
20.6717,34.9007
20.6938,34.9023
20.7157,34.8991
20.7280,34.9047
20.7414,34.9057
20.7592,34.9189
20.7793,34.9281
20.7866,34.9395
20.7974,34.9475
20.8051,34.9683
20.8171,34.9869
20.8202,35.0088
20.8218,35.0130
20.8221,35.0219
20.8221,35.1298
20.8024,35.1969
20.7858,35.2175
20.7481,35.2552
20.7481,35.2552
20.6496,35.4026
20.6496,35.4027
20.5817,35.5665
20.5817,35.5665
20.5471,35.7405
20.5471,35.9179
20.5817,36.0919
20.5817,36.0919
20.6496,36.2557
20.6496,36.2558
20.7481,36.4032
20.7481,36.4032
20.8736,36.5287
20.8736,36.5287
21.0210,36.6272
21.0211,36.6272
21.1025,36.6610
21.1849,36.6951
21.1849,36.6951
21.1849,36.6951
21.3589,36.7297
21.3589,36.7297
21.3589,36.7297
21.5363,36.7297
21.5363,36.7297
21.5943,36.7182
21.7103,36.6951
21.7103,36.6951
21.7103,36.6951
21.8741,36.6272
22.0216,36.5287
22.1471,36.4032
22.2456,36.2557
22.3135,36.0919
22.3154,36.0821
22.3398,35.9598
22.3481,35.9179
22.3481,35.7405
22.3481,35.7405
22.3481,35.7405
22.3135,35.5665
22.3135,35.5665
22.2456,35.4027
22.2456,35.4026
22.1471,35.2552
22.1471,35.2552
22.1094,35.2175
22.0759,35.1562
22.0731,35.1298
22.0731,29.1021
29.6495,29.1021
29.6495,30.8979
29.6495,30.8979
29.6559,30.9575
29.7062,31.0923
29.7062,31.0923
29.7925,31.2075
29.7925,31.2075
29.9077,31.2938
29.9077,31.2938
30.0425,31.3441
30.0425,31.3441
30.0494,31.3448
30.1021,31.3505
31.8979,31.3505
31.9575,31.3441
32.0923,31.2938
32.2075,31.2075
32.2938,31.0923
32.3441,30.9575
32.3505,30.8979
32.3505,30.7495
32.3702,30.6825
32.4230,30.6367
32.4745,30.6255
36.1657,30.6255
36.2327,30.6452
36.2785,30.6980
36.2897,30.7495
36.2897,32.0568
36.2927,32.0721
36.2927,32.0721
36.3135,32.1766
36.3135,32.1766
36.3135,32.1766
36.3137,32.1776
36.3137,32.1777
36.3609,32.2915
36.3609,32.2915
36.3789,32.3184
36.4293,32.3939
36.5165,32.4811
36.5165,32.4811
36.5271,32.4917
37.2276,33.1922
37.2611,33.2535
37.2578,33.3182
37.2528,33.3338
37.2263,33.5008
37.2195,33.5437
37.2195,33.7563
37.2295,33.8196
37.2520,33.9617
37.2528,33.9662
37.2970,34.1024
37.3184,34.1684
37.4150,34.3578
37.5399,34.5298
37.6902,34.6801
37.8622,34.8051
37.8709,34.8095
37.9217,34.8575
37.9385,34.9253
37.9160,34.9914
37.8709,35.0305
37.8622,35.0349
37.6902,35.1599
37.5399,35.3102
37.4150,35.4822
37.3184,35.6716
37.2528,35.8738
37.2354,35.9836
37.2195,36.0837
37.2195,36.2963
37.2280,36.3500
37.2462,36.4649
37.2528,36.5062
37.3141,36.6951
37.3184,36.7084
37.4150,36.8978
37.5399,37.0698
37.6902,37.2201
37.8622,37.3451
37.8709,37.3495
37.9217,37.3975
37.9385,37.4653
37.9160,37.5314
37.8709,37.5705
37.8622,37.5749
37.6902,37.6999
37.5399,37.8502
37.4150,38.0222
37.3670,38.1163
37.3190,38.1671
37.2512,38.1839
37.1850,38.1614
37.1688,38.1477
36.8144,37.7933
36.7809,37.7320
36.7781,37.7056
36.7781,35.9073
36.7978,35.8402
36.8144,35.8196
36.8521,35.7819
36.8521,35.7819
36.9506,35.6344
37.0185,35.4706
37.0302,35.4118
37.0531,35.2966
37.0531,35.2966
37.0531,35.1192
37.0531,35.1192
37.0185,34.9452
37.0185,34.9452
36.9506,34.7814
36.9506,34.7813
36.8521,34.6339
36.8521,34.6339
36.7266,34.5084
36.7266,34.5084
36.5792,34.4099
36.5791,34.4099
36.4153,34.3420
36.4153,34.3420
36.2413,34.3074
36.2413,34.3074
36.0639,34.3074
36.0639,34.3074
35.8899,34.3420
35.8899,34.3420
35.7261,34.4099
35.7260,34.4099
35.5786,34.5084
35.5786,34.5084
35.4531,34.6339
35.4531,34.6339
35.3546,34.7813
35.3546,34.7814
35.2867,34.9452
35.2867,34.9452
35.2521,35.1192
35.2521,35.2966
35.2867,35.4706
35.2867,35.4706
35.3546,35.6344
35.3546,35.6345
35.4531,35.7819
35.4531,35.7819
35.4908,35.8196
35.5243,35.8809
35.5271,35.9073
35.5271,38.0777
35.5511,38.1985
35.5511,38.1986
35.5983,38.3124
35.5983,38.3124
35.6111,38.3316
35.6189,38.3432
35.6667,38.4148
35.7539,38.5020
35.7539,38.5020
35.7644,38.5125
37.5080,40.2561
37.5415,40.3174
37.5365,40.3871
37.5207,40.4167
37.4800,40.4726
37.4247,40.5153
37.3551,40.5213
37.2933,40.4887
37.2920,40.4874
32.3424,35.5378
32.3089,35.4765
32.3122,35.4118
32.3172,35.3962
32.3505,35.1863
32.3505,34.9737
32.3172,34.7638
32.2516,34.5616
32.1551,34.3722
32.1550,34.3722
32.1550,34.3722
32.0301,34.2002
31.8798,34.0499
31.7078,33.9250
31.5184,33.8284
31.5184,33.8284
31.5184,33.8284
31.3162,33.7628
31.3162,33.7628
31.3162,33.7628
31.1550,33.7372
31.1063,33.7295
30.8937,33.7295
30.8450,33.7372
30.6838,33.7628
30.4816,33.8284
30.2922,33.9250
30.1202,34.0499
29.9699,34.2002
29.8450,34.3722
29.7484,34.5616
29.7484,34.5616
29.7484,34.5616
29.7206,34.6473
29.6828,34.7638
29.6536,34.9475
29.6495,34.9737
29.6495,35.1863
29.6525,35.2052
29.6823,35.3932
29.6828,35.3962
29.7381,35.5665
29.7484,35.5984
29.8450,35.7878
29.9699,35.9598
30.1202,36.1101
30.2922,36.2351
30.3009,36.2395
30.3517,36.2875
30.3685,36.3553
30.3460,36.4214
30.3009,36.4605
30.2922,36.4649
30.1202,36.5899
29.9699,36.7402
29.8450,36.9122
29.7484,37.1016
29.7484,37.1016
29.7484,37.1016
29.7206,37.1873
29.6828,37.3038
29.6495,37.5137
29.6495,37.7263
29.6701,37.8562
29.6828,37.9362
29.7413,38.1163
29.7484,38.1384
29.8450,38.3278
29.9699,38.4998
30.1202,38.6501
30.2922,38.7750
30.2922,38.7750
30.2922,38.7751
30.4816,38.8716
30.6838,38.9372
30.8937,38.9705
30.8937,38.9705
31.1063,38.9705
31.1063,38.9705
31.3162,38.9372
31.5184,38.8716
31.7078,38.7751
31.7558,38.7402
31.8798,38.6501
31.8798,38.6501
31.8798,38.6501
32.0301,38.4998
32.0301,38.4998
32.0301,38.4998
32.1550,38.3278
32.1550,38.3278
32.1551,38.3278
32.2516,38.1384
32.3172,37.9362
32.3505,37.7263
32.3505,37.6145
32.3702,37.5474
32.4230,37.5017
32.4921,37.4917
32.5557,37.5207
32.5622,37.5268
36.3563,41.3209
36.3898,41.3822
36.3926,41.4086
36.3926,42.3197
36.3950,42.3319
36.4166,42.4405
36.4166,42.4405
36.4166,42.4406
36.4243,42.4590
36.4638,42.5544
36.4857,42.5872
36.4904,42.5943
36.4904,42.5943
36.5322,42.6568
36.5322,42.6568
36.6237,42.7483
36.6237,42.7483
37.2276,43.3522
37.2611,43.4135
37.2578,43.4782
37.2528,43.4938
37.2296,43.6402
37.2195,43.7037
37.2195,43.9163
37.2528,44.1262
37.2967,44.2616
37.3184,44.3284
37.4150,44.5178
37.5399,44.6898
37.6902,44.8401
37.8622,44.9650
37.8709,44.9695
37.9217,45.0175
37.9385,45.0853
37.9160,45.1514
37.8709,45.1905
37.8622,45.1949
37.6902,45.3199
37.5399,45.4702
37.4150,45.6422
37.3184,45.8316
37.2528,46.0338
37.2249,46.2099
37.2195,46.2437
37.2195,46.4563
37.2528,46.6662
37.2967,46.8016
37.3184,46.8684
37.4150,47.0578
37.5399,47.2298
37.6902,47.3801
37.8622,47.5050
37.8709,47.5095
37.9217,47.5575
37.9385,47.6253
37.9160,47.6914
37.8709,47.7305
37.8622,47.7349
37.6902,47.8599
37.5399,48.0102
37.4150,48.1822
37.3184,48.3716
37.2528,48.5738
37.2195,48.7837
37.2195,48.9963
37.2363,49.1022
37.2528,49.2062
37.2967,49.3416
37.3184,49.4084
37.4149,49.5978
37.4955,49.7087
37.5190,49.7745
37.5032,49.8426
37.4829,49.8693
35.8776,51.4746
35.8162,51.5081
35.8141,51.5086
35.7811,51.5151
35.7811,51.5151
35.6445,51.5717
35.6445,51.5717
35.5216,51.6538
35.5216,51.6539
35.4171,51.7584
35.4170,51.7584
35.3349,51.8813
35.3349,51.8813
35.2783,52.0179
35.2783,52.0179
35.2495,52.1629
35.2495,71.6363
35.2298,71.7033
35.1770,71.7491
35.1645,71.7540
35.1307,71.7652
35.1307,71.7652
34.9813,71.8573
34.8573,71.9813
34.7652,72.1307
34.7652,72.1307
34.7100,72.2972
34.7100,72.2972
34.7100,72.2972
34.6995,72.4000
34.6995,73.6000
34.6995,73.6000
34.7100,73.7028
34.7100,73.7028
34.7544,73.8368
34.7652,73.8693
34.8573,74.0187
34.9813,74.1427
35.1307,74.2348
35.2972,74.2900
35.4000,74.3005
36.6000,74.3005
36.7028,74.2900
36.8693,74.2348
37.0187,74.1427
37.1427,74.0187
37.2348,73.8693
37.2900,73.7028
37.3005,73.6000
37.3005,72.4000
37.2900,72.2972
37.2348,72.1307
37.1427,71.9813
37.0187,71.8573
36.8693,71.7652
36.8693,71.7652
36.8355,71.7540
36.7781,71.7142
36.7512,71.6497
36.7505,71.6363
36.7505,59.8819
37.4995,59.8819
37.4995,60.1181
37.5364,60.3514
37.6094,60.5760
37.6858,60.7258
37.7167,60.7864
37.8555,60.9775
38.0225,61.1445
38.2136,61.2833
38.2408,61.2972
38.4240,61.3906
38.4240,61.3906
38.4240,61.3906
38.5444,61.4297
38.6486,61.4636
38.8819,61.5005
38.8819,61.5005
39.1181,61.5005
39.3514,61.4636
39.3608,61.4605
39.5760,61.3906
39.7864,61.2833
39.9775,61.1445
40.1445,60.9775
40.2833,60.7864
40.3906,60.5760
40.4636,60.3514
40.4679,60.3242
40.5005,60.1181
40.5005,59.8819
43.9995,59.8819
43.9995,60.1181
44.0364,60.3514
44.1094,60.5760
44.1858,60.7258
44.2167,60.7864
44.3555,60.9775
44.5225,61.1445
44.7136,61.2833
44.7408,61.2972
44.9240,61.3906
44.9240,61.3906
44.9240,61.3906
45.0444,61.4297
45.1486,61.4636
45.3819,61.5005
45.3819,61.5005
45.6181,61.5005
45.8514,61.4636
45.8608,61.4605
46.0760,61.3906
46.2864,61.2833
46.4775,61.1445
46.6445,60.9775
46.7833,60.7864
46.8906,60.5760
46.9636,60.3514
46.9679,60.3242
47.0005,60.1181
47.0005,59.8819
46.9636,59.6486
46.9187,59.5106
46.8906,59.4240
46.8906,59.4240
46.8906,59.4240
46.8340,59.3130
46.7833,59.2136
46.6445,59.0225
46.4775,58.8555
46.2864,58.7167
46.2440,58.6950
46.0760,58.6094
45.8514,58.5364
45.6181,58.4995
45.6181,58.4995
45.3819,58.4995
45.3819,58.4995
45.1486,58.5364
44.9240,58.6094
44.7136,58.7167
44.6105,58.7916
44.5225,58.8555
44.5225,58.8555
44.5225,58.8555
44.3555,59.0225
44.3555,59.0225
44.3555,59.0225
44.2959,59.1045
44.2167,59.2136
44.1094,59.4240
44.0364,59.6486
43.9995,59.8819
40.5005,59.8819
40.4636,59.6486
40.4187,59.5106
40.3906,59.4240
40.3906,59.4240
40.3906,59.4240
40.3340,59.3130
40.2833,59.2136
40.1445,59.0225
39.9775,58.8555
39.7864,58.7167
39.7440,58.6950
39.5760,58.6094
39.3514,58.5364
39.1181,58.4995
39.1181,58.4995
38.8819,58.4995
38.8819,58.4995
38.6486,58.5364
38.4240,58.6094
38.2136,58.7167
38.1105,58.7916
38.0225,58.8555
38.0225,58.8555
38.0225,58.8555
37.8555,59.0225
37.8555,59.0225
37.8555,59.0225
37.7959,59.1045
37.7167,59.2136
37.6094,59.4240
37.5364,59.6486
37.4995,59.8819
36.7505,59.8819
36.7505,52.4223
36.7702,52.3552
36.7868,52.3346
37.1487,51.9727
37.2100,51.9392
37.2797,51.9442
37.3356,51.9861
37.3468,52.0041
37.4150,52.1378
37.5399,52.3098
37.6902,52.4601
37.8622,52.5850
37.8622,52.5850
37.8622,52.5851
38.0516,52.6816
38.2538,52.7472
38.4637,52.7805
38.4637,52.7805
38.6763,52.7805
38.6763,52.7805
38.8862,52.7472
39.0884,52.6816
39.2778,52.5851
39.2998,52.5691
39.4498,52.4601
39.4498,52.4601
39.4498,52.4601
39.6001,52.3098
39.6001,52.3098
39.6001,52.3098
39.7250,52.1378
39.7250,52.1378
39.7251,52.1378
39.8216,51.9484
39.8872,51.7462
39.9205,51.5363
39.9205,51.3237
39.8872,51.1138
39.8822,51.0982
39.8802,51.0283
39.9124,50.9722
47.9686,42.9160
48.0299,42.8825
48.0996,42.8875
48.1556,42.9293
48.1800,42.9948
48.1803,43.0037
48.1803,59.3934
48.1606,59.4605
48.1594,59.4623
48.1407,59.4903
48.1407,59.4903
48.0841,59.6269
48.0841,59.6269
48.0553,59.7719
48.0553,59.7719
48.0553,59.9197
48.0553,59.9197
48.0553,59.9197
48.0841,60.0647
48.0841,60.0647
48.1237,60.1602
48.1407,60.2013
48.2228,60.3242
48.2229,60.3242
48.2229,60.3242
48.6298,60.7312
48.6633,60.7925
48.6646,60.8383
48.6495,60.9337
48.6495,61.1463
48.6826,61.3553
48.6828,61.3562
48.7176,61.4636
48.7484,61.5584
48.8450,61.7478
48.9699,61.9198
49.1202,62.0701
49.2922,62.1950
49.2922,62.1950
49.2922,62.1951
49.4816,62.2916
49.6838,62.3572
49.8937,62.3905
49.8937,62.3905
50.1063,62.3905
50.1063,62.3905
50.3162,62.3572
50.5184,62.2916
50.7078,62.1951
50.8365,62.1016
50.8798,62.0701
50.8798,62.0701
50.8798,62.0701
51.0301,61.9198
51.0301,61.9198
51.0301,61.9198
51.1550,61.7478
51.1550,61.7478
51.1551,61.7478
51.2516,61.5584
51.3172,61.3562
51.3505,61.1463
51.3505,60.9337
51.3172,60.7238
51.2516,60.5216
51.1551,60.3322
51.1550,60.3322
51.1550,60.3322
51.0301,60.1602
50.9166,60.0467
50.8831,59.9853
50.8881,59.9157
50.9299,59.8597
50.9609,59.8428
51.0923,59.7938
51.2075,59.7075
51.2938,59.5923
51.3441,59.4575
51.3505,59.3979
51.3505,58.1021
54.1495,58.1021
54.1495,59.8979
54.1495,59.8979
54.1559,59.9575
54.2062,60.0923
54.2062,60.0923
54.2925,60.2075
54.2925,60.2075
54.4077,60.2938
54.4077,60.2938
54.5425,60.3441
54.5425,60.3441
54.5494,60.3448
54.6021,60.3505
56.3979,60.3505
56.4575,60.3441
56.5923,60.2938
56.7075,60.2075
56.7938,60.0923
56.8441,59.9575
56.8505,59.8979
56.8505,58.1021
56.8441,58.0425
56.7938,57.9077
56.7938,57.9077
56.7938,57.9077
56.7075,57.7925
56.7075,57.7925
56.5923,57.7062
56.5923,57.7062
56.4575,57.6559
56.4575,57.6559
56.3979,57.6495
56.3979,57.6495
56.3979,57.6495
56.3979,57.6495
54.6021,57.6495
54.6021,57.6495
54.5425,57.6559
54.4077,57.7062
54.4077,57.7062
54.2925,57.7925
54.2925,57.7925
54.2062,57.9077
54.2062,57.9077
54.1559,58.0425
54.1518,58.0803
54.1495,58.1021
54.1495,58.1021
51.3505,58.1021
51.3505,57.6021
51.3441,57.5425
51.3420,57.5368
51.2938,57.4077
51.2938,57.4077
51.2075,57.2925
51.2075,57.2925
51.0923,57.2062
51.0923,57.2062
50.9575,57.1559
50.9575,57.1559
50.8979,57.1495
50.8979,57.1495
50.8979,57.1495
50.8979,57.1495
49.5553,57.1495
49.4883,57.1298
49.4425,57.0770
49.4313,57.0255
49.4313,43.1667
49.4510,43.0996
49.4676,43.0790
50.1224,42.4242
50.1838,42.3907
50.1858,42.3902
50.2189,42.3837
50.3332,42.3363
50.3555,42.3271
50.3555,42.3271
50.3555,42.3271
50.4784,42.2450
50.5830,42.1404
50.6651,42.0175
50.6701,42.0053
50.7010,41.9307
50.7217,41.8809
50.7393,41.7925
50.7505,41.7359
50.7505,29.7783
56.7377,29.7783
56.7377,29.9015
56.7617,30.0223
56.7617,30.0224
56.8089,30.1362
56.8089,30.1362
56.8773,30.2386
56.8773,30.2386
57.9651,31.3264
57.9986,31.3877
58.0014,31.4141
58.0014,31.4673
58.0360,31.6413
58.0360,31.6413
58.1039,31.8051
58.1039,31.8052
58.2024,31.9526
58.2024,31.9526
58.2401,31.9903
58.2736,32.0516
58.2764,32.0780
58.2764,38.8035
58.3004,38.9243
58.3004,38.9244
58.3476,39.0382
58.3476,39.0382
58.3727,39.0757
58.4160,39.1406
58.5032,39.2278
58.5032,39.2278
58.5109,39.2354
60.0876,40.8122
60.1211,40.8735
60.1178,40.9382
60.1128,40.9538
60.0795,41.1637
60.0795,41.3763
60.1094,41.5652
60.1128,41.5862
60.1761,41.7813
60.1784,41.7884
60.2750,41.9778
60.3999,42.1498
60.5502,42.3001
60.7222,42.4250
60.7309,42.4295
60.7817,42.4775
60.7985,42.5453
60.7760,42.6114
60.7309,42.6505
60.7222,42.6549
60.5502,42.7799
60.3999,42.9302
60.2750,43.1022
60.1784,43.2916
60.1128,43.4938
60.1101,43.5105
60.0795,43.7037
60.0795,43.9163
60.1128,44.1262
60.1567,44.2616
60.1784,44.3284
60.2750,44.5178
60.3999,44.6898
60.5502,44.8401
60.7222,44.9650
60.7309,44.9695
60.7817,45.0175
60.7985,45.0853
60.7760,45.1514
60.7309,45.1905
60.7222,45.1949
60.5502,45.3199
60.3999,45.4702
60.2750,45.6422
60.1784,45.8316
60.1128,46.0338
60.0849,46.2099
60.0795,46.2437
60.0795,46.4563
60.1128,46.6662
60.1567,46.8016
60.1784,46.8684
60.2750,47.0578
60.3999,47.2298
60.5502,47.3801
60.7222,47.5050
60.7309,47.5095
60.7817,47.5575
60.7985,47.6253
60.7760,47.6914
60.7309,47.7305
60.7222,47.7349
60.5502,47.8599
60.3999,48.0102
60.2750,48.1822
60.1784,48.3716
60.1128,48.5738
60.0795,48.7837
60.0795,48.9963
60.0963,49.1022
60.1128,49.2062
60.1567,49.3416
60.1784,49.4084
60.2750,49.5978
60.3999,49.7698
60.5502,49.9201
60.7222,50.0450
60.7309,50.0495
60.7817,50.0975
60.7985,50.1653
60.7760,50.2314
60.7309,50.2705
60.7222,50.2749
60.5502,50.3999
60.3999,50.5502
60.2750,50.7222
60.1784,50.9116
60.1128,51.1138
60.0795,51.3237
60.0795,51.5363
60.1128,51.7462
60.1567,51.8816
60.1784,51.9484
60.2750,52.1378
60.3999,52.3098
60.5502,52.4601
60.7222,52.5850
60.7222,52.5850
60.7222,52.5851
60.9116,52.6816
61.1138,52.7472
61.3237,52.7805
61.3237,52.7805
61.5363,52.7805
61.5363,52.7805
61.7462,52.7472
61.9484,52.6816
62.1378,52.5851
62.1598,52.5691
62.3098,52.4601
62.3098,52.4601
62.3098,52.4601
62.4601,52.3098
62.4601,52.3098
62.4601,52.3098
62.5850,52.1378
62.5850,52.1378
62.5851,52.1378
62.6816,51.9484
62.7033,51.8816
62.7427,51.8239
62.8071,51.7967
62.8759,51.8086
62.9274,51.8559
62.9452,51.9199
62.9452,58.0132
62.9255,58.0803
62.9089,58.1009
62.8712,58.1386
62.8712,58.1386
62.7727,58.2860
62.7727,58.2861
62.7048,58.4499
62.7048,58.4499
62.6702,58.6239
62.6702,58.8013
62.7048,58.9753
62.7048,58.9753
62.7727,59.1391
62.7727,59.1392
62.8712,59.2866
62.8712,59.2866
62.9967,59.4121
62.9967,59.4121
63.1441,59.5106
63.1442,59.5106
63.2671,59.5615
63.3080,59.5785
63.3080,59.5785
63.3080,59.5785
63.4820,59.6131
63.4820,59.6131
63.4820,59.6131
63.6594,59.6131
63.6594,59.6131
63.7174,59.6016
63.8334,59.5785
63.8334,59.5785
63.8334,59.5785
63.9972,59.5106
64.1447,59.4121
64.2702,59.2866
64.3687,59.1391
64.4366,58.9753
64.4712,58.8013
64.4712,58.6239
64.4712,58.6239
64.4712,58.6239
64.4366,58.4499
64.4366,58.4499
64.3687,58.2861
64.3687,58.2860
64.2702,58.1386
64.2702,58.1386
64.2325,58.1009
64.1990,58.0396
64.1962,58.0132
64.1962,55.8976
74.6995,55.8976
74.6995,56.1024
74.7315,56.3045
74.7948,56.4992
74.8877,56.6816
75.0080,56.8472
75.1528,56.9920
75.2698,57.0770
75.3184,57.1123
75.4040,57.1559
75.5008,57.2052
75.5008,57.2052
75.5008,57.2052
75.6051,57.2391
75.6955,57.2685
75.7796,57.2818
75.8976,57.3005
75.8976,57.3005
76.1023,57.3005
76.1024,57.3005
76.1061,57.2999
76.1754,57.3089
76.2288,57.3538
76.2495,57.4206
76.2495,57.4224
76.2495,60.6363
76.2298,60.7033
76.1770,60.7491
76.1645,60.7540
76.1307,60.7652
76.1307,60.7652
75.9813,60.8573
75.8573,60.9813
75.7652,61.1307
75.7652,61.1307
75.7373,61.2147
75.7100,61.2972
75.7100,61.2972
75.7100,61.2972
75.6995,61.4000
75.6995,62.6000
75.6995,62.6000
75.7100,62.7028
75.7100,62.7028
75.7407,62.7955
75.7652,62.8693
75.8573,63.0187
75.9813,63.1427
76.1307,63.2348
76.2972,63.2900
76.4000,63.3005
77.6000,63.3005
77.7028,63.2900
77.8693,63.2348
78.0187,63.1427
78.1427,63.0187
78.2348,62.8693
78.2900,62.7028
78.3005,62.6000
78.3005,61.4000
78.2900,61.2972
78.2348,61.1307
78.1427,60.9813
78.0187,60.8573
77.9038,60.7864
77.8693,60.7652
77.8693,60.7652
77.8693,60.7652
77.8693,60.7652
77.8355,60.7540
77.7780,60.7142
77.7512,60.6497
77.7505,60.6363
77.7505,56.9261
77.7505,56.9261
77.7385,56.8659
77.7217,56.7811
77.6716,56.6602
77.6651,56.6445
77.5830,56.5216
77.4784,56.4170
77.4784,56.4170
77.3265,56.2651
77.2930,56.2038
77.2917,56.1580
77.3005,56.1024
77.3005,55.8976
77.2685,55.6955
77.2052,55.5008
77.2052,55.5008
77.2052,55.5008
77.1715,55.4346
77.1123,55.3184
77.1046,55.3077
76.9920,55.1528
76.8472,55.0080
76.6816,54.8877
76.6816,54.8877
76.6816,54.8877
76.6247,54.8587
76.4992,54.7948
76.3045,54.7315
76.1300,54.7039
76.1024,54.6995
75.8976,54.6995
75.8733,54.7034
75.6955,54.7315
75.5008,54.7948
75.3184,54.8877
75.1528,55.0080
75.0080,55.1528
74.8877,55.3184
74.7948,55.5008
74.7315,55.6955
74.6995,55.8976
64.1962,55.8976
64.1962,41.6846
64.1962,41.6846
64.1722,41.5637
64.1456,41.4995
64.1260,41.4522
64.1250,41.4499
64.1250,41.4499
64.0566,41.3475
64.0566,41.3475
62.4756,39.7665
62.4421,39.7051
62.4471,39.6355
62.4629,39.6059
62.5851,39.4378
62.6816,39.2484
62.7472,39.0462
62.7805,38.8363
62.7805,38.6237
62.7472,38.4138
62.7422,38.3982
62.7402,38.3283
62.7724,38.2722
63.1887,37.8559
63.1898,37.8549
63.2808,37.7639
63.2808,37.7639
63.3492,37.6615
63.3964,37.5477
63.4204,37.4268
63.4204,17.0156
63.4401,16.9485
63.4567,16.9279
64.4869,15.8976
66.6995,15.8976
66.6995,16.1024
66.7315,16.3045
66.7948,16.4992
66.8494,16.6064
66.8683,16.6435
66.8877,16.6816
67.0080,16.8472
67.0080,16.8472
67.1528,16.9920
67.1984,17.0251
67.2411,17.0804
67.2495,17.1254
67.2495,30.0739
67.2495,30.0739
67.2495,30.0739
67.2783,30.2189
67.2783,30.2189
67.3349,30.3555
67.3349,30.3555
67.3349,30.3555
67.3461,30.3722
67.3461,30.3722
67.4170,30.4784
67.4171,30.4784
79.4632,42.5245
79.4967,42.5859
79.4995,42.6122
79.4995,43.8000
79.4995,43.8000
79.5100,43.9028
79.5100,43.9028
79.5652,44.0693
79.5652,44.0693
79.5794,44.0923
79.6573,44.2187
79.7813,44.3427
79.9307,44.4348
80.0972,44.4900
80.2000,44.5005
81.8000,44.5005
81.9028,44.4900
82.0693,44.4348
82.2187,44.3427
82.3427,44.2187
82.4348,44.0693
82.4900,43.9028
82.5005,43.8000
82.5005,42.2000
82.4962,42.1579
82.4900,42.0972
82.4900,42.0972
82.4503,41.9775
82.4348,41.9307
82.3427,41.7813
82.2187,41.6573
82.0693,41.5652
81.9028,41.5100
81.9028,41.5100
81.8000,41.4995
81.8000,41.4995
80.6122,41.4995
80.5452,41.4798
80.5245,41.4632
73.0418,33.9805
72.9590,33.8976
78.6995,33.8976
78.6995,34.1024
78.7315,34.3045
78.7948,34.4992
78.8470,34.6017
78.8869,34.6801
78.8877,34.6816
79.0080,34.8472
79.1528,34.9920
79.3077,35.1046
79.3184,35.1123
79.4118,35.1599
79.5008,35.2052
79.5008,35.2052
79.5008,35.2052
79.6051,35.2391
79.6955,35.2685
79.7966,35.2845
79.8976,35.3005
79.8976,35.3005
80.1024,35.3005
80.1024,35.3005
80.3045,35.2685
80.4992,35.2052
80.6816,35.1123
80.7881,35.0350
80.8472,34.9920
80.8472,34.9920
80.8472,34.9920
80.9920,34.8472
80.9920,34.8472
80.9920,34.8472
81.1068,34.6891
81.1123,34.6816
81.2052,34.4992
81.2610,34.3274
81.3005,34.2697
81.3648,34.2425
81.4337,34.2545
81.4667,34.2780
81.7290,34.5404
81.7625,34.6017
81.7653,34.6281
81.7653,36.2367
81.7893,36.3576
81.7954,36.3722
81.8365,36.4714
81.8683,36.5189
81.8725,36.5253
81.8725,36.5254
81.9049,36.5738
81.9964,36.6653
81.9964,36.6653
85.2883,39.9572
85.2883,39.9572
85.3786,40.0475
85.3786,40.0475
85.4810,40.1159
85.4810,40.1159
85.4810,40.1159
85.5948,40.1631
85.6553,40.1751
85.6603,40.1761
85.7223,40.2085
85.7238,40.2100
87.1134,41.5996
87.1469,41.6609
87.1419,41.7306
87.1134,41.7749
87.0417,41.8466
87.0417,41.8466
86.9432,41.9940
86.9432,41.9941
86.8753,42.1579
86.8753,42.1579
86.8407,42.3319
86.8407,42.5093
86.8753,42.6833
86.8753,42.6833
86.9432,42.8471
86.9432,42.8472
87.0417,42.9946
87.0417,42.9946
87.1672,43.1201
87.1672,43.1201
87.3146,43.2186
87.3147,43.2186
87.4376,43.2695
87.4785,43.2865
87.4785,43.2865
87.4785,43.2865
87.6525,43.3211
87.6525,43.3211
87.6525,43.3211
87.7057,43.3211
87.7728,43.3408
87.7934,43.3574
88.0149,43.5789
88.0484,43.6402
88.0512,43.6666
88.0512,53.5255
88.0315,53.5925
87.9787,53.6383
87.9272,53.6495
86.6021,53.6495
86.6021,53.6495
86.5425,53.6559
86.4077,53.7062
86.4077,53.7062
86.2925,53.7925
86.2925,53.7925
86.2062,53.9077
86.2062,53.9077
86.1559,54.0425
86.1495,54.1021
86.1495,54.1021
86.1495,55.8979
86.1495,55.8979
86.1559,55.9575
86.2062,56.0923
86.2062,56.0923
86.2925,56.2075
86.2925,56.2075
86.4077,56.2938
86.4077,56.2938
86.5391,56.3428
86.5950,56.3847
86.6194,56.4501
86.6046,56.5184
86.5834,56.5467
86.4699,56.6602
86.3450,56.8322
86.2484,57.0216
86.1828,57.2238
86.1639,57.3427
86.1495,57.4337
86.1495,57.6463
86.1828,57.8562
86.2433,58.0425
86.2484,58.0584
86.3450,58.2478
86.4699,58.4198
86.6202,58.5701
86.7922,58.6950
86.8009,58.6995
86.8517,58.7475
86.8685,58.8153
86.8460,58.8814
86.8009,58.9205
86.7922,58.9249
86.6202,59.0499
86.4699,59.2002
86.3450,59.3722
86.2484,59.5616
86.1828,59.7638
86.1495,59.9737
86.1495,60.1863
86.1755,60.3505
86.1828,60.3962
86.2412,60.5760
86.2484,60.5984
86.3450,60.7878
86.4699,60.9598
86.6202,61.1101
86.7922,61.2350
86.8009,61.2395
86.8517,61.2875
86.8685,61.3553
86.8460,61.4214
86.8009,61.4605
86.7922,61.4649
86.6202,61.5899
86.4699,61.7402
86.3450,61.9122
86.2484,62.1016
86.1828,62.3038
86.1495,62.5137
86.1495,62.7263
86.1751,62.8877
86.1828,62.9362
86.2204,63.0521
86.2484,63.1384
86.3450,63.3278
86.4699,63.4998
86.6202,63.6501
86.7922,63.7751
86.8009,63.7795
86.8517,63.8275
86.8685,63.8953
86.8460,63.9614
86.8009,64.0005
86.7922,64.0049
86.6202,64.1299
86.4699,64.2802
86.3450,64.4522
86.2484,64.6416
86.1828,64.8438
86.1495,65.0537
86.1495,65.2663
86.1828,65.4762
86.2484,65.6784
86.3450,65.8678
86.4699,66.0398
86.6202,66.1901
86.7922,66.3150
86.7922,66.3150
86.7922,66.3151
86.9816,66.4116
87.1838,66.4772
87.3937,66.5105
87.3937,66.5105
87.6063,66.5105
87.6063,66.5105
87.8162,66.4772
88.0184,66.4116
88.2078,66.3151
88.2298,66.2991
88.3798,66.1901
88.3798,66.1901
88.3798,66.1901
88.5301,66.0398
88.5301,66.0398
88.5301,66.0398
88.6550,65.8678
88.6550,65.8678
88.6551,65.8678
88.7516,65.6784
88.8172,65.4762
88.8505,65.2663
88.8505,65.0537
88.8172,64.8438
88.8122,64.8282
88.8102,64.7583
88.8424,64.7022
90.0041,63.5405
90.0041,63.5405
90.0913,63.4533
90.1597,63.3509
90.2069,63.2371
90.2309,63.1162
90.2309,42.2122
90.2069,42.0913
90.1666,41.9941
90.1597,41.9775
90.1597,41.9775
90.1597,41.9775
90.0913,41.8751
90.0913,41.8751
85.8350,37.6188
85.8015,37.5575
85.8065,37.4878
85.8483,37.4318
85.9138,37.4074
85.9227,37.4071
86.3439,37.4071
86.3439,37.4071
86.4648,37.3831
86.5786,37.3359
86.6810,37.2675
86.7682,37.1803
86.8366,37.0779
86.8838,36.9641
86.9078,36.8432
86.9078,36.7200
86.8838,36.5991
86.8366,36.4853
86.8366,36.4853
86.8366,36.4853
86.7682,36.3829
86.7682,36.3829
86.6810,36.2957
86.6810,36.2957
86.5786,36.2273
86.5786,36.2273
86.4648,36.1801
86.4648,36.1801
86.4648,36.1801
86.4647,36.1801
86.4647,36.1801
86.3439,36.1561
86.3439,36.1561
84.8126,36.1561
84.7455,36.1364
84.7249,36.1198
84.6872,36.0821
84.6872,36.0821
84.5398,35.9836
84.5397,35.9836
84.3759,35.9157
84.3759,35.9157
84.2019,35.8811
84.2019,35.8811
84.0245,35.8811
84.0245,35.8811
83.8505,35.9157
83.8505,35.9157
83.6867,35.9836
83.6866,35.9836
83.5392,36.0821
83.5392,36.0821
83.4485,36.1728
83.3872,36.2063
83.3175,36.2013
83.2731,36.1728
83.0526,35.9523
83.0191,35.8910
83.0163,35.8646
83.0163,34.3853
83.0163,34.3853
83.0163,34.2560
82.9923,34.1352
82.9923,34.1351
82.9876,34.1239
82.9876,34.1239
82.9672,34.0746
82.9451,34.0213
82.9451,34.0213
82.9451,34.0213
82.9053,33.9617
82.9053,33.9617
82.8767,33.9189
82.8554,33.8976
88.8595,33.8976
88.8595,34.1024
88.8915,34.3045
88.9548,34.4992
89.0070,34.6017
89.0469,34.6801
89.0477,34.6816
89.1680,34.8472
89.3128,34.9920
89.4677,35.1046
89.4784,35.1123
89.5718,35.1599
89.6608,35.2052
89.6608,35.2052
89.6608,35.2052
89.7651,35.2391
89.8555,35.2685
89.9566,35.2845
90.0576,35.3005
90.0576,35.3005
90.2624,35.3005
90.2624,35.3005
90.3314,35.2896
90.4693,35.2677
90.4697,35.2698
90.5307,35.2728
90.5776,35.3022
92.6134,37.3380
92.6469,37.3993
92.6489,37.4288
92.6495,37.4288
92.6495,37.6463
92.6825,37.8549
92.6828,37.8562
92.7367,38.0222
92.7484,38.0584
92.8450,38.2478
92.9699,38.4198
93.1202,38.5701
93.2922,38.6950
93.2922,38.6950
93.2922,38.6951
93.4816,38.7916
93.6838,38.8572
93.8937,38.8905
93.8937,38.8905
94.1063,38.8905
94.1063,38.8905
94.3162,38.8572
94.5184,38.7916
94.7078,38.6951
94.8060,38.6237
94.8798,38.5701
94.8798,38.5701
94.8798,38.5701
95.0301,38.4198
95.0301,38.4198
95.0301,38.4198
95.1550,38.2478
95.1550,38.2478
95.1551,38.2478
95.2516,38.0584
95.3172,37.8562
95.3505,37.6463
95.3505,37.4337
95.3172,37.2238
95.2516,37.0216
95.1551,36.8322
95.1550,36.8322
95.1550,36.8322
95.0301,36.6602
94.9166,36.5467
94.8831,36.4853
94.8881,36.4157
94.9299,36.3597
94.9609,36.3428
95.0923,36.2938
95.2075,36.2075
95.2938,36.0923
95.3441,35.9575
95.3505,35.8979
95.3505,34.1021
95.3441,34.0425
95.3362,34.0213
95.2938,33.9077
95.2938,33.9077
95.2075,33.7925
95.2075,33.7925
95.0923,33.7062
95.0923,33.7062
94.9575,33.6559
94.9575,33.6559
94.8979,33.6495
94.8979,33.6495
94.8979,33.6495
94.8979,33.6495
93.1021,33.6495
93.1021,33.6495
93.0425,33.6559
92.9077,33.7062
92.9077,33.7062
92.7925,33.7925
92.7925,33.7925
92.7062,33.9077
92.7062,33.9077
92.6559,34.0425
92.6525,34.0746
92.6495,34.1021
92.6495,34.1021
92.6495,35.3055
92.6298,35.3726
92.5770,35.4183
92.5079,35.4283
92.4443,35.3993
92.4378,35.3932
91.4622,34.4176
91.4287,34.3563
91.4292,34.3096
91.4277,34.3093
91.4605,34.1024
91.4605,33.8976
91.4285,33.6955
91.3792,33.5437
91.3652,33.5008
91.3652,33.5008
91.3652,33.5008
91.3298,33.4313
91.2723,33.3184
91.2544,33.2938
91.1520,33.1528
91.0072,33.0080
90.8416,32.8877
90.8416,32.8877
90.8416,32.8877
90.7847,32.8587
90.6592,32.7948
90.4645,32.7315
90.2900,32.7039
90.2624,32.6995
90.0576,32.6995
90.0333,32.7034
89.8555,32.7315
89.6608,32.7948
89.4784,32.8877
89.3128,33.0080
89.1680,33.1528
89.0477,33.3184
88.9548,33.5008
88.8915,33.6955
88.8595,33.8976
82.8554,33.8976
81.5182,32.5604
81.4847,32.4991
81.4897,32.4294
81.5315,32.3734
81.5970,32.3490
81.6059,32.3487
82.4524,32.3487
82.4524,32.3487
82.5733,32.3247
82.6871,32.2775
82.7895,32.2091
82.8767,32.1219
82.9451,32.0195
82.9923,31.9057
83.0163,31.7848
83.0163,31.6616
82.9923,31.5407
82.9451,31.4269
82.9451,31.4269
82.9451,31.4269
82.8767,31.3245
82.8767,31.3245
82.7895,31.2373
82.7895,31.2373
82.6871,31.1689
82.6871,31.1689
82.5733,31.1217
82.5733,31.1217
82.5733,31.1217
82.5732,31.1217
82.5732,31.1217
82.4524,31.0977
82.4524,31.0977
80.4958,31.0977
80.4287,31.0780
80.4081,31.0614
80.3704,31.0237
80.3704,31.0237
80.2230,30.9252
80.2229,30.9252
80.0591,30.8573
80.0591,30.8573
79.8851,30.8227
79.8851,30.8227
79.7077,30.8227
79.7077,30.8227
79.5337,30.8573
79.5337,30.8573
79.3699,30.9252
79.3698,30.9252
79.2224,31.0237
79.2224,31.0237
79.0969,31.1492
79.0969,31.1492
78.9984,31.2966
78.9984,31.2967
78.9305,31.4605
78.9305,31.4605
78.8959,31.6345
78.8959,31.8119
78.9305,31.9859
78.9305,31.9859
78.9984,32.1497
78.9984,32.1498
79.0969,32.2972
79.0969,32.2972
79.2224,32.4227
79.2224,32.4227
79.3698,32.5212
79.3698,32.5212
79.3699,32.5212
79.4897,32.5709
79.5441,32.6147
79.5662,32.6810
79.5489,32.7487
79.4986,32.7959
79.3184,32.8877
79.1528,33.0080
79.0080,33.1528
78.8877,33.3184
78.7948,33.5008
78.7315,33.6955
78.6995,33.8976
72.9590,33.8976
68.7868,29.7255
68.7533,29.6641
68.7505,29.6378
68.7505,17.1254
68.7702,17.0584
68.8016,17.0251
68.8472,16.9920
68.9920,16.8472
68.9920,16.8472
68.9920,16.8472
69.0776,16.7293
69.1123,16.6816
69.2052,16.4992
69.2685,16.3045
69.3005,16.1024
69.3005,15.8976
69.2685,15.6955
69.2052,15.5008
69.2052,15.5008
69.2052,15.5008
69.1715,15.4346
69.1123,15.3184
69.0917,15.2900
68.9920,15.1528
68.8472,15.0080
68.6816,14.8877
68.6816,14.8877
68.6816,14.8877
68.5836,14.8378
68.4992,14.7948
68.3045,14.7315
68.1232,14.7028
68.1024,14.6995
67.8976,14.6995
67.8768,14.7028
67.6955,14.7315
67.5008,14.7948
67.3184,14.8877
67.1528,15.0080
67.0080,15.1528
66.8877,15.3184
66.7948,15.5008
66.7315,15.6955
66.6995,15.8976
64.4869,15.8976
67.5824,12.8022
67.6437,12.7687
67.6904,12.7692
67.6907,12.7677
67.7941,12.7841
67.8976,12.8005
67.8976,12.8005
68.1024,12.8005
68.1024,12.8005
68.3045,12.7685
68.4992,12.7052
68.6816,12.6123
68.7746,12.5447
68.8472,12.4920
68.8472,12.4920
68.8472,12.4920
68.9920,12.3472
68.9920,12.3472
68.9920,12.3472
69.0447,12.2746
69.1123,12.1816
69.2052,11.9992
69.2685,11.8045
69.3005,11.6024
69.3005,11.3976
76.8595,11.3976
76.8595,11.6024
76.8915,11.8045
76.9548,11.9992
77.0477,12.1816
77.1680,12.3472
77.3128,12.4920
77.4677,12.6046
77.4784,12.6123
77.5946,12.6715
77.6608,12.7052
77.6608,12.7052
77.6608,12.7052
77.7651,12.7391
77.8555,12.7685
77.9566,12.7845
78.0576,12.8005
78.0576,12.8005
78.2623,12.8005
78.2624,12.8005
78.3150,12.7922
78.3843,12.8011
78.4378,12.8461
78.4584,12.9129
78.4397,12.9802
78.4221,13.0023
78.0244,13.4000
77.7613,13.6631
77.7613,13.6631
77.7177,13.7067
77.6741,13.7503
77.6535,13.7811
77.6535,13.7811
77.6057,13.8527
77.6057,13.8527
77.5814,13.9113
77.5814,13.9113
77.5585,13.9665
77.5585,13.9666
77.5345,14.0874
77.5345,14.7839
77.5148,14.8509
77.4814,14.8836
77.4823,14.8848
77.3128,15.0080
77.1680,15.1528
77.0477,15.3184
76.9548,15.5008
76.8915,15.6955
76.8595,15.8976
76.8595,16.1024
76.8915,16.3045
76.9548,16.4992
77.0094,16.6064
77.0283,16.6435
77.0477,16.6816
77.1680,16.8472
77.3128,16.9920
77.4345,17.0804
77.4784,17.1123
77.5695,17.1587
77.6608,17.2052
77.6608,17.2052
77.6608,17.2052
77.7651,17.2391
77.8555,17.2685
77.9566,17.2845
78.0576,17.3005
78.0576,17.3005
78.2624,17.3005
78.2624,17.3005
78.4645,17.2685
78.6592,17.2052
78.8416,17.1123
78.9812,17.0109
79.0072,16.9920
79.0072,16.9920
79.0072,16.9920
79.1520,16.8472
79.1520,16.8472
79.1520,16.8472
79.2376,16.7293
79.2723,16.6816
79.3652,16.4992
79.4285,16.3045
79.4605,16.1024
79.4605,15.8976
79.4285,15.6955
79.3652,15.5008
79.3652,15.5008
79.3652,15.5008
79.3315,15.4346
79.2723,15.3184
79.2517,15.2900
79.1520,15.1528
79.0072,15.0080
78.8377,14.8848
78.8389,14.8832
78.7978,14.8378
78.7855,14.7839
78.7855,14.4595
78.8052,14.3924
78.8218,14.3718
86.5895,6.6041
86.6509,6.5706
86.7205,6.5756
86.7765,6.6174
86.7877,6.6354
86.8112,6.6816
86.8450,6.7478
86.9699,6.9198
87.1202,7.0701
87.2922,7.1950
87.2922,7.1950
87.2922,7.1951
87.4816,7.2916
87.6838,7.3572
87.8937,7.3905
87.8937,7.3905
88.1063,7.3905
88.1063,7.3905
88.3162,7.3572
88.5184,7.2916
88.7078,7.1951
88.7566,7.1596
88.8798,7.0701
88.8798,7.0701
88.8798,7.0701
89.0301,6.9198
89.0301,6.9198
89.0301,6.9198
89.1550,6.7478
89.1550,6.7478
89.1551,6.7478
89.2516,6.5584
89.3172,6.3562
89.3505,6.1463
89.3505,5.9337
89.3172,5.7238
89.2516,5.5216
89.1551,5.3322
89.1550,5.3322
89.1550,5.3322
89.0301,5.1602
88.9166,5.0467
88.8831,4.9853
88.8881,4.9157
88.9299,4.8597
88.9609,4.8428
89.0923,4.7938
89.2075,4.7075
89.2938,4.5923
89.3441,4.4575
89.3505,4.3979
89.3505,4.3787
93.6495,4.3787
93.6495,4.6213
93.6797,4.8505
93.6812,4.8618
93.6874,4.8849
93.7439,5.0961
93.8360,5.3184
93.8368,5.3202
93.9581,5.5303
93.9581,5.5303
93.9581,5.5303
94.1057,5.7227
94.1057,5.7227
94.2773,5.8943
94.2773,5.8943
94.4697,6.0419
94.6798,6.1632
94.9039,6.2561
95.1382,6.3188
95.3186,6.3426
95.3787,6.3505
95.3787,6.3505
95.6213,6.3505
95.6694,6.3442
95.8618,6.3188
96.0961,6.2561
96.3202,6.1632
96.5303,6.0419
96.7227,5.8943
96.8943,5.7227
97.0419,5.5303
97.1632,5.3202
97.2561,5.0961
97.3188,4.8618
97.3505,4.6213
97.3505,4.3787
97.3188,4.1382
97.2561,3.9039
97.1632,3.6798
97.0419,3.4697
96.8943,3.2773
96.8943,3.2773
96.7227,3.1057
96.7227,3.1057
96.5303,2.9581
96.5303,2.9581
96.5303,2.9581
96.3202,2.8368
96.3202,2.8368
96.0961,2.7439
95.8618,2.6812
95.6213,2.6495
95.6213,2.6495
95.3787,2.6495
95.3787,2.6495
95.1382,2.6812
94.9039,2.7439
94.6798,2.8368
94.6798,2.8368
94.4697,2.9581
94.2773,3.1057
94.2773,3.1057
94.1057,3.2773
94.1057,3.2773
93.9581,3.4697
93.8368,3.6798
93.8368,3.6798
93.7439,3.9039
93.6812,4.1382
93.6495,4.3787
89.3505,4.3787
89.3505,2.6021
89.3441,2.5425
89.3312,2.5080
89.2938,2.4077
89.2938,2.4077
89.2075,2.2925
89.2075,2.2925
89.0923,2.2062
89.0923,2.2062
88.9575,2.1559
88.9575,2.1559
88.8979,2.1495
88.8979,2.1495
88.8979,2.1495
88.8979,2.1495
87.1021,2.1495
87.1021,2.1495
87.0425,2.1559
86.9077,2.2062
86.9077,2.2062
86.7925,2.2925
86.7925,2.2925
86.7062,2.4077
86.7062,2.4077
86.6559,2.5425
86.6495,2.6021
86.6495,2.6021
86.6495,2.6021
86.6495,4.3979
86.6495,4.3979
86.6559,4.4575
86.7093,4.6006
86.7081,4.6011
86.7210,4.6605
86.6966,4.7260
86.6850,4.7394
79.6623,11.7621
79.6010,11.7956
79.5313,11.7906
79.4754,11.7487
79.4509,11.6833
79.4522,11.6550
79.4605,11.6024
79.4605,11.3976
79.4285,11.1955
79.3652,11.0008
79.3652,11.0008
79.3652,11.0008
79.3315,10.9346
79.2723,10.8184
79.2646,10.8077
79.1520,10.6528
79.0072,10.5080
78.8377,10.3848
78.8389,10.3832
78.7978,10.3378
78.7855,10.2839
78.7855,7.4687
78.7947,7.4218
78.7994,7.4102
78.8243,7.3730
78.8715,7.2592
78.8813,7.2098
78.8858,7.1988
78.9004,7.1804
78.9113,7.1596
78.9218,7.1536
78.9293,7.1442
78.9516,7.1367
78.9720,7.1250
78.9841,7.1257
78.9955,7.1218
79.0183,7.1275
79.0418,7.1288
79.0485,7.1317
79.0486,7.1315
79.0652,7.1383
79.2409,7.2111
79.4390,7.2505
79.4390,7.2505
79.4390,7.2505
79.6410,7.2505
79.6410,7.2505
79.8391,7.2111
80.0258,7.1338
80.1937,7.0216
80.3366,6.8787
80.4488,6.7108
80.5261,6.5241
80.5655,6.3260
80.5655,5.6740
80.5261,5.4759
80.4488,5.2892
80.4488,5.2892
80.4488,5.2892
80.3366,5.1213
80.1937,4.9784
80.0258,4.8662
80.0258,4.8662
79.8391,4.7889
79.8391,4.7889
79.6410,4.7495
79.6410,4.7495
79.4390,4.7495
79.4390,4.7495
79.2409,4.7889
79.2409,4.7889
79.0542,4.8662
78.9739,4.9199
78.9072,4.9408
78.8398,4.9223
78.8361,4.9199
78.8298,4.9157
78.7838,4.8849
78.7558,4.8662
78.5691,4.7889
78.5691,4.7889
78.3710,4.7495
78.3710,4.7495
78.1690,4.7495
78.1690,4.7495
77.9709,4.7889
77.9709,4.7889
77.7842,4.8662
77.7842,4.8662
77.6163,4.9784
77.4734,5.1213
77.3612,5.2892
77.3612,5.2892
77.2839,5.4759
77.2839,5.4759
77.2445,5.6740
77.2445,6.3260
77.2839,6.5241
77.2839,6.5241
77.3612,6.7108
77.3612,6.7108
77.4734,6.8787
77.5184,6.9237
77.5519,6.9850
77.5523,7.0355
77.5345,7.1251
77.5345,10.2839
77.5148,10.3509
77.4814,10.3836
77.4823,10.3848
77.3128,10.5080
77.1680,10.6528
77.0477,10.8184
76.9548,11.0008
76.8915,11.1955
76.8595,11.3976
69.3005,11.3976
69.2685,11.1955
69.2052,11.0008
69.2052,11.0008
69.2052,11.0008
69.1715,10.9346
69.1123,10.8184
69.1046,10.8077
68.9920,10.6528
68.8472,10.5080
68.6816,10.3877
68.6816,10.3877
68.6816,10.3877
68.5836,10.3378
68.4992,10.2948
68.3045,10.2315
68.1300,10.2039
68.1024,10.1995
67.8976,10.1995
67.8733,10.2034
67.6955,10.2315
67.5008,10.2948
67.3184,10.3877
67.1528,10.5080
67.0080,10.6528
66.8877,10.8184
66.7948,11.0008
66.7315,11.1955
66.6995,11.3976
66.6995,11.6024
66.7323,11.8093
66.7303,11.8097
66.7272,11.8708
66.6978,11.9176
62.3962,16.2192
62.3090,16.3064
62.3090,16.3064
62.2406,16.4088
62.2406,16.4088
62.2097,16.4833
62.1934,16.5226
62.1934,16.5227
62.1694,16.6435
62.1694,27.0955
62.1497,27.1625
62.0969,27.2083
62.0454,27.2195
60.5321,27.2195
60.5321,27.2195
60.4725,27.2259
60.3377,27.2762
60.3377,27.2762
60.2225,27.3625
60.2225,27.3625
60.1362,27.4777
60.1362,27.4777
60.0859,27.6125
60.0795,27.6721
60.0795,27.6721
60.0795,27.6721
60.0795,29.4679
60.0795,29.4679
60.0859,29.5275
60.1362,29.6623
60.1362,29.6623
60.2225,29.7775
60.2225,29.7775
60.3377,29.8638
60.3377,29.8638
60.4691,29.9128
60.5250,29.9547
60.5494,30.0201
60.5346,30.0884
60.5134,30.1167
60.3999,30.2302
60.2750,30.4022
60.1784,30.5916
60.1128,30.7938
60.0795,31.0037
60.0795,31.2163
60.1128,31.4262
60.1128,31.4262
60.1178,31.4418
60.1183,31.4571
60.1236,31.4713
60.1192,31.4913
60.1198,31.5117
60.1117,31.5258
60.1087,31.5396
60.0876,31.5678
59.9957,31.6597
59.9343,31.6932
59.8647,31.6882
59.8087,31.6464
59.7843,31.5809
59.7864,31.5479
59.8024,31.4673
59.8024,31.2899
59.8024,31.2899
59.7678,31.1159
59.7678,31.1159
59.6999,30.9521
59.6999,30.9520
59.6014,30.8046
59.6014,30.8046
59.4759,30.6791
59.4759,30.6791
59.3285,30.5806
59.3284,30.5806
59.1646,30.5127
59.1646,30.5127
58.9906,30.4781
58.9906,30.4781
58.9374,30.4781
58.8703,30.4584
58.8497,30.4418
57.7619,29.3540
57.7619,29.3540
57.7073,29.3175
57.6595,29.2856
57.6595,29.2856
57.5457,29.2384
57.5456,29.2384
57.4248,29.2144
57.4248,29.2144
57.3016,29.2144
57.3016,29.2144
57.1808,29.2384
57.1807,29.2384
57.0669,29.2856
57.0669,29.2856
56.9645,29.3540
56.9645,29.3540
56.8773,29.4412
56.8773,29.4412
56.8089,29.5436
56.8089,29.5436
56.7617,29.6574
56.7617,29.6575
56.7377,29.7783
50.7505,29.7783
50.7505,9.2672
50.7702,9.2002
50.8016,9.1669
50.8798,9.1101
51.0301,8.9598
51.0301,8.9598
51.0301,8.9598
51.1550,8.7878
51.1550,8.7878
51.1551,8.7878
51.2516,8.5984
51.3172,8.3962
51.3505,8.1863
51.3505,7.9737
51.3172,7.7638
51.2516,7.5616
51.1551,7.3722
51.1550,7.3722
51.1550,7.3722
51.0301,7.2002
50.8798,7.0499
50.7078,6.9250
50.5184,6.8284
50.5184,6.8284
50.5184,6.8284
50.3162,6.7628
50.3162,6.7628
50.3162,6.7628
50.1550,6.7372
50.1063,6.7295
49.8937,6.7295
49.8304,6.7395
49.6838,6.7628
49.6838,6.7628
49.6838,6.7628
49.6596,6.7706
49.6111,6.7864
49.5413,6.7883
49.4814,6.7523
49.4506,6.6896
49.4488,6.6684
49.4488,5.8976
53.6995,5.8976
53.6995,6.1024
53.7315,6.3045
53.7948,6.4992
53.8337,6.5756
53.8810,6.6684
53.8877,6.6816
54.0080,6.8472
54.1528,6.9920
54.2603,7.0701
54.3184,7.1123
54.4112,7.1596
54.5008,7.2052
54.5008,7.2052
54.5008,7.2052
54.6051,7.2391
54.6955,7.2685
54.7966,7.2845
54.8976,7.3005
54.8976,7.3005
55.1024,7.3005
55.1024,7.3005
55.3045,7.2685
55.4992,7.2052
55.6816,7.1123
55.8065,7.0216
55.8472,6.9920
55.8472,6.9920
55.8472,6.9920
55.9920,6.8472
55.9920,6.8472
55.9920,6.8472
56.0775,6.7295
56.1123,6.6816
56.2052,6.4992
56.2685,6.3045
56.3005,6.1024
56.3005,5.8976
56.3000,5.8943
56.2685,5.6955
56.2148,5.5303
56.2052,5.5008
56.2052,5.5008
56.2052,5.5008
56.1193,5.3322
56.1123,5.3184
56.0911,5.2892
55.9920,5.1528
55.8472,5.0080
55.6816,4.8877
55.4992,4.7948
55.3045,4.7315
55.1300,4.7039
55.1024,4.6995
54.8976,4.6995
54.8733,4.7034
54.6955,4.7315
54.5008,4.7948
54.3184,4.8877
54.1528,5.0080
54.0080,5.1528
53.8877,5.3184
53.7948,5.5008
53.7315,5.6955
53.6995,5.8976
49.4488,5.8976
49.4488,5.2961
49.4685,5.2290
49.4851,5.2084
49.8550,4.8385
49.9163,4.8050
49.9427,4.8022
50.0616,4.8022
50.0616,4.8022
50.1825,4.7782
50.2963,4.7310
50.3987,4.6626
50.4859,4.5754
50.5543,4.4730
50.5733,4.4270
50.6172,4.3726
50.6835,4.3506
50.6879,4.3505
50.8979,4.3505
50.8979,4.3505
50.9575,4.3441
51.0923,4.2938
51.2075,4.2075
51.2938,4.0923
51.3441,3.9575
51.3505,3.8979
51.3505,2.1021
51.3441,2.0425
51.2938,1.9077
51.2938,1.9077
51.2938,1.9077
51.2075,1.7925
51.2075,1.7925
51.0923,1.7062
51.0923,1.7062
50.9575,1.6559
50.9575,1.6559
50.8979,1.6495
50.8979,1.6495
50.8979,1.6495
50.8979,1.6495
49.1021,1.6495
49.1021,1.6495
49.0425,1.6559
48.9077,1.7062
48.9077,1.7062
48.7925,1.7925
48.7925,1.7925
48.7062,1.9077
48.7062,1.9077
48.6559,2.0425
48.6495,2.1021
48.6495,2.1021
48.6495,2.1021
48.6495,3.8979
48.6495,3.8979
48.6559,3.9575
48.7093,4.1006
48.7081,4.1011
48.7210,4.1605
48.6966,4.2260
48.6850,4.2393
48.4246,4.4997
48.4246,4.4997
48.3810,4.5433
48.3374,4.5869
48.3144,4.6213
48.3144,4.6213
48.2690,4.6893
48.2690,4.6893
48.2218,4.8031
48.2218,4.8032
48.2050,4.8877
48.2050,4.8877
48.1978,4.9240
48.1978,40.8662
48.1781,40.9333
48.1615,40.9539
41.1285,47.9869
41.0672,48.0204
40.9975,48.0154
40.9415,47.9736
40.9171,47.9081
40.9168,47.8992
40.9168,33.6815
40.9168,33.6815
40.9168,33.5522
40.8928,33.4314
40.8928,33.4313
40.8456,33.3175
40.7772,33.2151
40.7772,33.2151
39.5533,31.9912
39.5434,31.9813
39.5434,31.9813
39.4562,31.8941
39.4050,31.8599
39.3538,31.8257
39.2729,31.7922
39.2400,31.7785
39.1744,31.7655
39.1699,31.7646
39.1698,31.7646
39.1191,31.7545
39.1191,31.7545
39.1191,31.7545
38.4839,31.7545
38.4168,31.7348
38.3962,31.7182
38.0287,31.3507
37.9952,31.2894
37.9924,31.2630
37.9924,30.9075
38.0121,30.8404
38.0287,30.8198
38.4400,30.4085
38.5013,30.3750
38.5277,30.3722
38.6316,30.3722
38.6316,30.3722
38.7525,30.3482
38.8663,30.3010
38.9687,30.2326
39.0559,30.1454
39.1243,30.0430
39.1329,30.0224
39.1433,29.9970
39.1872,29.9426
39.2535,29.9206
39.2579,29.9205
39.4679,29.9205
39.4679,29.9205
39.5275,29.9141
39.6623,29.8638
39.7775,29.7775
39.8638,29.6623
39.9141,29.5275
39.9205,29.4679
39.9205,27.6721
39.9141,27.6125
39.8638,27.4777
39.8638,27.4777
39.8638,27.4777
39.7775,27.3625
39.7775,27.3625
39.6623,27.2762
39.6623,27.2762
39.5275,27.2259
39.5275,27.2259
39.4679,27.2195
39.4679,27.2195
39.4679,27.2195
39.4679,27.2195
37.6721,27.2195
37.6713,27.2195
37.6711,27.2195
37.6688,27.2195
37.6688,27.2190
37.6033,27.2035
37.5548,27.1532
37.5407,27.0957
37.5407,17.5720
37.5604,17.5050
37.5770,17.4844
39.7245,15.3368
39.7859,15.3033
39.8122,15.3005
40.6000,15.3005
40.6000,15.3005
40.7028,15.2900
40.8693,15.2348
41.0187,15.1427
41.1427,15.0187
41.2348,14.8693
41.2900,14.7028
41.3005,14.6000
41.3005,13.4000
41.2900,13.2972
41.2348,13.1307
41.1427,12.9813
41.0187,12.8573
40.9131,12.7922
40.8693,12.7652
40.8693,12.7652
40.8205,12.7490
40.7028,12.7100
40.7028,12.7100
40.6000,12.6995
39.4000,12.6995
39.4000,12.6995
39.2972,12.7100
39.2972,12.7100
39.1307,12.7652
39.1307,12.7652
38.9813,12.8573
38.8573,12.9813
38.7652,13.1307
38.7652,13.1307
38.7100,13.2972
38.7100,13.2972
38.7100,13.2972
38.6995,13.4000
38.6995,14.1878
38.6798,14.2548
38.6632,14.2754
36.3322,16.6064
36.2501,16.7293
36.2501,16.7293
36.1935,16.8659
36.1935,16.8659
36.1647,17.0109
36.1647,17.0109
36.1647,17.1587
36.1647,17.1587
36.1647,17.1587
36.1935,17.3037
36.1935,17.3037
36.2501,17.4403
36.2501,17.4403
36.2501,17.4403
36.2688,17.4683
36.2897,17.5349
36.2897,17.5372
36.2897,29.2505
36.2700,29.3175
36.2172,29.3633
36.1657,29.3745
32.4745,29.3745
32.4075,29.3548
32.3617,29.3020
32.3505,29.2505
32.3505,29.1021
32.3505,29.1021
32.3505,29.1021
32.3441,29.0425
32.2938,28.9077
32.2938,28.9077
32.2938,28.9077
32.2075,28.7925
32.2075,28.7925
32.0923,28.7062
32.0923,28.7062
31.9575,28.6559
31.9575,28.6559
31.8979,28.6495
31.8979,28.6495
31.8979,28.6495
31.8979,28.6495
30.1021,28.6495
30.1021,28.6495
30.0425,28.6559
29.9077,28.7062
29.9077,28.7062
29.7925,28.7925
29.7925,28.7925
29.7062,28.9077
29.7062,28.9077
29.6559,29.0425
29.6495,29.1021
29.6495,29.1021
29.6495,29.1021
22.0731,29.1021
22.0731,15.3999
22.0928,15.3329
22.0939,15.3311
22.1127,15.3031
22.1693,15.1665
22.1981,15.0215
22.1981,14.8737
22.1981,14.8737
22.1693,14.7287
22.1693,14.7287
22.1693,14.7287
22.1585,14.7028
22.1127,14.5921
22.1127,14.5921
22.0306,14.4692
22.0305,14.4692
11.3265,3.7651
11.2930,3.7038
11.2917,3.6580
11.3005,3.6024
11.3005,3.3976
18.8595,3.3976
18.8595,3.6024
18.8915,3.8045
18.9548,3.9992
19.0187,4.1247
19.0389,4.1643
19.0477,4.1816
19.1680,4.3472
19.3128,4.4920
19.4630,4.6011
19.4784,4.6123
19.5946,4.6715
19.6608,4.7052
19.6608,4.7052
19.6608,4.7052
19.7651,4.7391
19.8555,4.7685
19.9166,4.7782
20.0576,4.8005
20.0576,4.8005
20.2624,4.8005
20.2624,4.8005
20.4645,4.7685
20.6592,4.7052
20.8416,4.6123
20.9346,4.5447
21.0072,4.4920
21.0072,4.4920
21.0072,4.4920
21.1520,4.3472
21.1520,4.3472
21.1520,4.3472
21.2047,4.2746
21.2723,4.1816
21.3652,3.9992
21.4285,3.8045
21.4605,3.6024
21.4605,3.3976
21.4414,3.2773
21.4285,3.1955
21.3652,3.0008
21.3315,2.9346
21.2723,2.8184
21.2646,2.8077
21.1520,2.6528
21.0072,2.5080
20.8416,2.3877
20.8416,2.3877
20.8416,2.3877
20.7847,2.3587
20.6592,2.2948
20.4645,2.2315
20.3999,2.2213
20.3047,2.2062
20.2624,2.1995
20.0576,2.1995
20.0333,2.2034
19.8555,2.2315
19.6608,2.2948
19.4784,2.3877
19.3128,2.5080
19.1680,2.6528
19.0477,2.8184
18.9548,3.0008
18.8915,3.1955
18.8595,3.3976
11.3005,3.3976
11.2814,3.2773
11.2685,3.1955
11.2052,3.0008
11.1715,2.9346
11.1123,2.8184
11.1046,2.8077
10.9920,2.6528
10.8472,2.5080
10.6816,2.3877
10.6816,2.3877
10.6816,2.3877
10.6247,2.3587
10.4992,2.2948
10.3045,2.2315
10.1300,2.2039
10.1024,2.1995
9.8976,2.1995
9.8733,2.2034
9.6955,2.2315
9.5008,2.2948
9.3184,2.3877
9.1528,2.5080
9.0080,2.6528
8.8877,2.8184
8.7948,3.0008
8.7315,3.1955
8.6995,3.3976
5.9866,3.3976
5.8943,3.2773
5.8943,3.2773
5.7227,3.1057
5.7227,3.1057
5.5303,2.9581
5.5303,2.9581
5.5303,2.9581
5.3202,2.8368
5.3202,2.8368
5.0961,2.7439
4.8618,2.6812
4.6213,2.6495
4.6213,2.6495
4.3787,2.6495
4.3787,2.6495
4.1382,2.6812
3.9039,2.7439
3.6798,2.8368
3.6798,2.8368
3.4697,2.9581
3.2773,3.1057
3.2773,3.1057
3.1057,3.2773
3.1057,3.2773
2.9581,3.4697
2.8368,3.6798
2.8368,3.6798
2.7439,3.9039
2.6812,4.1382
2.6495,4.3787
0.5005,4.3787
0.5005,2.1021
23.6495,2.1021
23.6495,3.8979
23.6495,3.8979
23.6559,3.9575
23.7062,4.0923
23.7062,4.0923
23.7925,4.2075
23.7925,4.2075
23.9077,4.2938
23.9077,4.2938
24.0425,4.3441
24.0425,4.3441
24.0494,4.3448
24.1021,4.3505
25.8979,4.3505
25.9575,4.3441
26.0923,4.2938
26.2075,4.2075
26.2938,4.0923
26.3441,3.9575
26.3505,3.8979
26.3505,2.1021
26.3441,2.0425
26.2938,1.9077
26.2938,1.9077
26.2938,1.9077
26.2075,1.7925
26.2075,1.7925
26.0923,1.7062
26.0923,1.7062
25.9575,1.6559
25.9575,1.6559
25.8979,1.6495
25.8979,1.6495
25.8979,1.6495
25.8979,1.6495
24.1021,1.6495
24.1021,1.6495
24.0425,1.6559
23.9077,1.7062
23.9077,1.7062
23.7925,1.7925
23.7925,1.7925
23.7062,1.9077
23.7062,1.9077
23.6559,2.0425
23.6495,2.1021
23.6495,2.1021
23.6495,2.1021
0.5005,2.1021
0.5005,0.6245
0.5202,0.5575
0.5730,0.5117
0.6245,0.5005
99.3755,0.5005
Z" /> 
</g>
<g style="fill:none; 
stroke:#D0D2CD; stroke-width:0.1000; stroke-opacity:1; 
stroke-linecap:round; stroke-linejoin:round;">
<path d="M0.0000 0.0000
L100.0000 0.0000
" />
<path d="M0.0000 80.0000
L0.0000 0.0000
" />
<path d="M100.0000 0.0000
L100.0000 80.0000
" />
<path d="M100.0000 80.0000
L0.0000 80.0000
" />
</g>
<g style="fill:#FFFFFF; fill-opacity:1.0000; stroke:none;">
<circle cx="87.7412" cy="42.4206" r="0.2000" /> 
<circle cx="63.5707" cy="58.7126" r="0.2000" /> 
<circle cx="79.7964" cy="31.7232" r="0.2000" /> 
<circle cx="84.1132" cy="36.7816" r="0.2000" /> 
<circle cx="21.4476" cy="35.8292" r="0.2000" /> 
<circle cx="36.1526" cy="35.2079" r="0.2000" /> 
<circle cx="20.5238" cy="32.0683" r="0.2000" /> 
<circle cx="58.9019" cy="31.3786" r="0.2000" /> 
</g>
<g style="fill:#FFFFFF; fill-opacity:1.0000; stroke:none;">
<circle cx="40.0000" cy="14.0000" r="0.4000" /> 
</g>
<g style="fill:#FFFFFF; fill-opacity:1.0000; stroke:none;">
<circle cx="42.5000" cy="14.0000" r="0.4000" /> 
</g>
<g style="fill:#FFFFFF; fill-opacity:1.0000; stroke:none;">
<circle cx="18.5000" cy="43.0000" r="0.5000" /> 
</g>
<g style="fill:#FFFFFF; fill-opacity:1.0000; stroke:none;">
<circle cx="18.5000" cy="45.5400" r="0.5000" /> 
</g>
<g style="fill:#FFFFFF; fill-opacity:1.0000; stroke:none;">
<circle cx="81.0000" cy="43.0000" r="0.5000" /> 
</g>
<g style="fill:#FFFFFF; fill-opacity:1.0000; stroke:none;">
<circle cx="86.0000" cy="43.0000" r="0.5000" /> 
</g>
<g style="fill:#FFFFFF; fill-opacity:1.0000; stroke:none;">
<circle cx="23.0000" cy="73.0000" r="0.4000" /> 
</g>
<g style="fill:#FFFFFF; fill-opacity:1.0000; stroke:none;">
<circle cx="30.6200" cy="73.0000" r="0.4000" /> 
</g>
<g style="fill:#FFFFFF; fill-opacity:1.0000; stroke:none;">
<circle cx="31.0000" cy="30.0000" r="0.5000" /> 
</g>
<g style="fill:#FFFFFF; fill-opacity:1.0000; stroke:none;">
<circle cx="31.0000" cy="32.5400" r="0.5000" /> 
</g>
<g style="fill:#FFFFFF; fill-opacity:1.0000; stroke:none;">
<circle cx="31.0000" cy="35.0800" r="0.5000" /> 
</g>
<g style="fill:#FFFFFF; fill-opacity:1.0000; stroke:none;">
<circle cx="31.0000" cy="37.6200" r="0.5000" /> 
</g>
<g style="fill:#FFFFFF; fill-opacity:1.0000; stroke:none;">
<circle cx="68.0000" cy="16.0000" r="0.4000" /> 
</g>
<g style="fill:#FFFFFF; fill-opacity:1.0000; stroke:none;">
<circle cx="78.1600" cy="16.0000" r="0.4000" /> 
</g>
<g style="fill:#FFFFFF; fill-opacity:1.0000; stroke:none;">
<circle cx="76.0000" cy="56.0000" r="0.4000" /> 
</g>
<g style="fill:#FFFFFF; fill-opacity:1.0000; stroke:none;">
<circle cx="81.0000" cy="56.0000" r="0.4000" /> 
</g>
<g style="fill:#FFFFFF; fill-opacity:1.0000; stroke:none;">
<circle cx="50.0000" cy="58.5000" r="0.5000" /> 
</g>
<g style="fill:#FFFFFF; fill-opacity:1.0000; stroke:none;">
<circle cx="50.0000" cy="61.0400" r="0.5000" /> 
</g>
<g style="fill:#FFFFFF; fill-opacity:1.0000; stroke:none;">
<circle cx="50.0000" cy="63.5800" r="0.5000" /> 
</g>
<g style="fill:#FFFFFF; fill-opacity:1.0000; stroke:none;">
<circle cx="11.0000" cy="56.0000" r="0.5000" /> 
</g>
<g style="fill:#FFFFFF; fill-opacity:1.0000; stroke:none;">
<circle cx="16.0000" cy="56.0000" r="0.5000" /> 
</g>
<g style="fill:#FFFFFF; fill-opacity:1.0000; stroke:none;">
<circle cx="87.5000" cy="55.0000" r="0.5000" /> 
</g>
<g style="fill:#FFFFFF; fill-opacity:1.0000; stroke:none;">
<circle cx="87.5000" cy="57.5400" r="0.5000" /> 
</g>
<g style="fill:#FFFFFF; fill-opacity:1.0000; stroke:none;">
<circle cx="87.5000" cy="60.0800" r="0.5000" /> 
</g>
<g style="fill:#FFFFFF; fill-opacity:1.0000; stroke:none;">
<circle cx="87.5000" cy="62.6200" r="0.5000" /> 
</g>
<g style="fill:#FFFFFF; fill-opacity:1.0000; stroke:none;">
<circle cx="87.5000" cy="65.1600" r="0.5000" /> 
</g>
<g style="fill:#FFFFFF; fill-opacity:1.0000; stroke:none;">
<circle cx="87.5000" cy="67.7000" r="0.5000" /> 
</g>
<g style="fill:#FFFFFF; fill-opacity:1.0000; stroke:none;">
<circle cx="10.0000" cy="3.5000" r="0.4000" /> 
</g>
<g style="fill:#FFFFFF; fill-opacity:1.0000; stroke:none;">
<circle cx="20.1600" cy="3.5000" r="0.4000" /> 
</g>
<g style="fill:#FFFFFF; fill-opacity:1.0000; stroke:none;">
<circle cx="94.0000" cy="35.0000" r="0.5000" /> 
</g>
<g style="fill:#FFFFFF; fill-opacity:1.0000; stroke:none;">
<circle cx="94.0000" cy="37.5400" r="0.5000" /> 
</g>
<g style="fill:#FFFFFF; fill-opacity:1.0000; stroke:none;">
<circle cx="94.0000" cy="40.0800" r="0.5000" /> 
</g>
<g style="fill:#FFFFFF; fill-opacity:1.0000; stroke:none;">
<circle cx="55.5000" cy="59.0000" r="0.5000" /> 
</g>
<g style="fill:#FFFFFF; fill-opacity:1.0000; stroke:none;">
<circle cx="55.5000" cy="61.5400" r="0.5000" /> 
</g>
<g style="fill:#FFFFFF; fill-opacity:1.0000; stroke:none;">
<circle cx="12.5000" cy="32.0000" r="0.5000" /> 
</g>
<g style="fill:#FFFFFF; fill-opacity:1.0000; stroke:none;">
<circle cx="12.5000" cy="34.5400" r="0.5000" /> 
</g>
<g style="fill:#FFFFFF; fill-opacity:1.0000; stroke:none;">
<circle cx="12.5000" cy="37.0800" r="0.5000" /> 
</g>
<g style="fill:#FFFFFF; fill-opacity:1.0000; stroke:none;">
<circle cx="12.5000" cy="39.6200" r="0.5000" /> 
</g>
<g style="fill:#FFFFFF; fill-opacity:1.0000; stroke:none;">
<circle cx="12.5000" cy="42.1600" r="0.5000" /> 
</g>
<g style="fill:#FFFFFF; fill-opacity:1.0000; stroke:none;">
<circle cx="12.5000" cy="44.7000" r="0.5000" /> 
</g>
<g style="fill:#FFFFFF; fill-opacity:1.0000; stroke:none;">
<circle cx="12.5000" cy="47.2400" r="0.5000" /> 
</g>
<g style="fill:#000000; fill-opacity:1.0000; stroke:none;">
<circle cx="95.5000" cy="75.5000" r="1.6000" /> 
<circle cx="4.5000" cy="4.5000" r="1.6000" /> 
<circle cx="95.5000" cy="4.5000" r="1.6000" /> 
</g>
<g style="fill:#FFFFFF; fill-opacity:1.0000; stroke:none;">
<circle cx="68.0000" cy="11.5000" r="0.4000" /> 
</g>
<g style="fill:#FFFFFF; fill-opacity:1.0000; stroke:none;">
<circle cx="78.1600" cy="11.5000" r="0.4000" /> 
</g>
<g style="fill:#FFFFFF; fill-opacity:1.0000; stroke:none;">
<circle cx="88.0000" cy="3.5000" r="0.5000" /> 
</g>
<g style="fill:#FFFFFF; fill-opacity:1.0000; stroke:none;">
<circle cx="88.0000" cy="6.0400" r="0.5000" /> 
</g>
<g style="fill:#000000; fill-opacity:1.0000; stroke:none;">
<circle cx="4.5000" cy="75.5000" r="1.6000" /> 
</g>
<g style="fill:#FFFFFF; fill-opacity:1.0000; stroke:none;">
<circle cx="4.0000" cy="64.0000" r="0.4000" /> 
</g>
<g style="fill:#FFFFFF; fill-opacity:1.0000; stroke:none;">
<circle cx="14.1600" cy="64.0000" r="0.4000" /> 
</g>
<g style="fill:#FFFFFF; fill-opacity:1.0000; stroke:none;">
<circle cx="50.0000" cy="3.0000" r="0.5000" /> 
</g>
<g style="fill:#FFFFFF; fill-opacity:1.0000; stroke:none;">
<circle cx="50.0000" cy="5.5400" r="0.5000" /> 
</g>
<g style="fill:#FFFFFF; fill-opacity:1.0000; stroke:none;">
<circle cx="50.0000" cy="8.0800" r="0.5000" /> 
</g>
<g style="fill:#FFFFFF; fill-opacity:1.0000; stroke:none;">
<circle cx="36.0000" cy="73.0000" r="0.4000" /> 
</g>
<g style="fill:#FFFFFF; fill-opacity:1.0000; stroke:none;">
<circle cx="38.5000" cy="73.0000" r="0.4000" /> 
</g>
<g style="fill:#FFFFFF; fill-opacity:1.0000; stroke:none;">
<circle cx="80.0000" cy="34.0000" r="0.4000" /> 
</g>
<g style="fill:#FFFFFF; fill-opacity:1.0000; stroke:none;">
<circle cx="90.1600" cy="34.0000" r="0.4000" /> 
</g>
<g style="fill:#000000; fill-opacity:1.0000; stroke:none;">
<circle cx="12.0000" cy="75.5400" r="0.5500" /> 
<circle cx="14.5400" cy="75.5400" r="0.5500" /> 
</g>
<g style="fill:#FFFFFF; fill-opacity:1.0000; stroke:none;">
<circle cx="12.0000" cy="73.0000" r="0.5500" /> 
</g>
<g style="fill:#FFFFFF; fill-opacity:1.0000; stroke:none;">
<circle cx="14.5400" cy="73.0000" r="0.5500" /> 
</g>
<g style="fill:#FFFFFF; fill-opacity:1.0000; stroke:none;">
<circle cx="21.5000" cy="64.0000" r="0.4500" /> 
</g>
<g style="fill:#FFFFFF; fill-opacity:1.0000; stroke:none;">
<circle cx="24.0400" cy="64.0000" r="0.4500" /> 
</g>
<g style="fill:#FFFFFF; fill-opacity:1.0000; stroke:none;">
<circle cx="39.0000" cy="60.0000" r="0.5500" /> 
</g>
<g style="fill:#FFFFFF; fill-opacity:1.0000; stroke:none;">
<circle cx="45.5000" cy="60.0000" r="0.5500" /> 
</g>
<g style="fill:#FFFFFF; fill-opacity:1.0000; stroke:none;">
<circle cx="39.0000" cy="64.5000" r="0.5500" /> 
</g>
<g style="fill:#FFFFFF; fill-opacity:1.0000; stroke:none;">
<circle cx="45.5000" cy="64.5000" r="0.5500" /> 
</g>
<g style="fill:#FFFFFF; fill-opacity:1.0000; stroke:none;">
<circle cx="77.0000" cy="6.0000" r="0.3750" /> 
</g>
<g style="fill:#FFFFFF; fill-opacity:1.0000; stroke:none;">
<circle cx="78.2700" cy="6.0000" r="0.3750" /> 
</g>
<g style="fill:#FFFFFF; fill-opacity:1.0000; stroke:none;">
<circle cx="79.5400" cy="6.0000" r="0.3750" /> 
</g>
<g style="fill:#FFFFFF; fill-opacity:1.0000; stroke:none;">
<circle cx="77.0000" cy="62.0000" r="0.4000" /> 
</g>
<g style="fill:#FFFFFF; fill-opacity:1.0000; stroke:none;">
<circle cx="79.5000" cy="62.0000" r="0.4000" /> 
</g>
<g style="fill:#FFFFFF; fill-opacity:1.0000; stroke:none;">
<circle cx="38.5700" cy="28.5700" r="0.5000" /> 
</g>
<g style="fill:#FFFFFF; fill-opacity:1.0000; stroke:none;">
<circle cx="38.5700" cy="31.1100" r="0.5000" /> 
</g>
<g style="fill:#FFFFFF; fill-opacity:1.0000; stroke:none;">
<circle cx="38.5700" cy="33.6500" r="0.5000" /> 
</g>
<g style="fill:#FFFFFF; fill-opacity:1.0000; stroke:none;">
<circle cx="38.5700" cy="36.1900" r="0.5000" /> 
</g>
<g style="fill:#FFFFFF; fill-opacity:1.0000; stroke:none;">
<circle cx="38.5700" cy="38.7300" r="0.5000" /> 
</g>
<g style="fill:#FFFFFF; fill-opacity:1.0000; stroke:none;">
<circle cx="38.5700" cy="41.2700" r="0.5000" /> 
</g>
<g style="fill:#FFFFFF; fill-opacity:1.0000; stroke:none;">
<circle cx="38.5700" cy="43.8100" r="0.5000" /> 
</g>
<g style="fill:#FFFFFF; fill-opacity:1.0000; stroke:none;">
<circle cx="38.5700" cy="46.3500" r="0.5000" /> 
</g>
<g style="fill:#FFFFFF; fill-opacity:1.0000; stroke:none;">
<circle cx="38.5700" cy="48.8900" r="0.5000" /> 
</g>
<g style="fill:#FFFFFF; fill-opacity:1.0000; stroke:none;">
<circle cx="38.5700" cy="51.4300" r="0.5000" /> 
</g>
<g style="fill:#FFFFFF; fill-opacity:1.0000; stroke:none;">
<circle cx="25.0000" cy="3.0000" r="0.5000" /> 
</g>
<g style="fill:#FFFFFF; fill-opacity:1.0000; stroke:none;">
<circle cx="25.0000" cy="5.5400" r="0.5000" /> 
</g>
<g style="fill:#FFFFFF; fill-opacity:1.0000; stroke:none;">
<circle cx="55.0000" cy="6.0000" r="0.4000" /> 
</g>
<g style="fill:#FFFFFF; fill-opacity:1.0000; stroke:none;">
<circle cx="60.0000" cy="6.0000" r="0.4000" /> 
</g>
<g style="fill:#FFFFFF; fill-opacity:1.0000; stroke:none;">
<circle cx="61.4300" cy="28.5700" r="0.5000" /> 
</g>
<g style="fill:#FFFFFF; fill-opacity:1.0000; stroke:none;">
<circle cx="61.4300" cy="31.1100" r="0.5000" /> 
</g>
<g style="fill:#FFFFFF; fill-opacity:1.0000; stroke:none;">
<circle cx="61.4300" cy="33.6500" r="0.5000" /> 
</g>
<g style="fill:#FFFFFF; fill-opacity:1.0000; stroke:none;">
<circle cx="61.4300" cy="36.1900" r="0.5000" /> 
</g>
<g style="fill:#FFFFFF; fill-opacity:1.0000; stroke:none;">
<circle cx="61.4300" cy="38.7300" r="0.5000" /> 
</g>
<g style="fill:#FFFFFF; fill-opacity:1.0000; stroke:none;">
<circle cx="61.4300" cy="41.2700" r="0.5000" /> 
</g>
<g style="fill:#FFFFFF; fill-opacity:1.0000; stroke:none;">
<circle cx="61.4300" cy="43.8100" r="0.5000" /> 
</g>
<g style="fill:#FFFFFF; fill-opacity:1.0000; stroke:none;">
<circle cx="61.4300" cy="46.3500" r="0.5000" /> 
</g>
<g style="fill:#FFFFFF; fill-opacity:1.0000; stroke:none;">
<circle cx="61.4300" cy="48.8900" r="0.5000" /> 
</g>
<g style="fill:#FFFFFF; fill-opacity:1.0000; stroke:none;">
<circle cx="61.4300" cy="51.4300" r="0.5000" /> 
</g> 
</svg>
