%TF.GenerationSoftware,KiCad,Pcbnew,10.0.3*%
%TF.CreationDate,2026-07-12T17:09:38+01:00*%
%TF.ProjectId,default,64656661-756c-4742-9e6b-696361645f70,rev?*%
%TF.SameCoordinates,Original*%
%TF.FileFunction,Soldermask,Top*%
%TF.FilePolarity,Negative*%
%FSLAX46Y46*%
G04 Gerber Fmt 4.6, Leading zero omitted, Abs format (unit mm)*
G04 Created by KiCad (PCBNEW 10.0.3) date 2026-07-12 17:09:38*
%MOMM*%
%LPD*%
G01*
G04 APERTURE LIST*
G04 Aperture macros list*
%AMRoundRect*
0 Rectangle with rounded corners*
0 $1 Rounding radius*
0 $2 $3 $4 $5 $6 $7 $8 $9 X,Y pos of 4 corners*
0 Add a 4 corners polygon primitive as box body*
4,1,4,$2,$3,$4,$5,$6,$7,$8,$9,$2,$3,0*
0 Add four circle primitives for the rounded corners*
1,1,$1+$1,$2,$3*
1,1,$1+$1,$4,$5*
1,1,$1+$1,$6,$7*
1,1,$1+$1,$8,$9*
0 Add four rect primitives between the rounded corners*
20,1,$1+$1,$2,$3,$4,$5,0*
20,1,$1+$1,$4,$5,$6,$7,0*
20,1,$1+$1,$6,$7,$8,$9,0*
20,1,$1+$1,$8,$9,$2,$3,0*%
%AMFreePoly0*
4,1,6,1.000000,0.000000,0.500000,-0.750000,-0.500000,-0.750000,-0.500000,0.750000,0.500000,0.750000,1.000000,0.000000,1.000000,0.000000,$1*%
%AMFreePoly1*
4,1,6,0.500000,-0.750000,-0.650000,-0.750000,-0.150000,0.000000,-0.650000,0.750000,0.500000,0.750000,0.500000,-0.750000,0.500000,-0.750000,$1*%
G04 Aperture macros list end*
%ADD10RoundRect,0.250000X-0.550000X-0.550000X0.550000X-0.550000X0.550000X0.550000X-0.550000X0.550000X0*%
%ADD11C,1.600000*%
%ADD12RoundRect,0.250000X-0.750000X-0.750000X0.750000X-0.750000X0.750000X0.750000X-0.750000X0.750000X0*%
%ADD13C,2.000000*%
%ADD14R,1.700000X1.700000*%
%ADD15C,1.700000*%
%ADD16FreePoly0,0.000000*%
%ADD17FreePoly1,0.000000*%
%ADD18C,3.200000*%
%ADD19C,1.100000*%
%ADD20RoundRect,0.249999X-0.850001X-0.850001X0.850001X-0.850001X0.850001X0.850001X-0.850001X0.850001X0*%
%ADD21C,2.200000*%
%ADD22R,1.800000X1.800000*%
%ADD23C,1.800000*%
%ADD24R,1.000000X1.500000*%
%ADD25R,1.050000X1.500000*%
%ADD26O,1.050000X1.500000*%
G04 APERTURE END LIST*
%TO.C,JP1*%
G36*
X117275000Y-91250000D02*
G01*
X119725000Y-91250000D01*
X119725000Y-92750000D01*
X117275000Y-92750000D01*
X117275000Y-91250000D01*
G37*
%TO.C,JP3*%
G36*
X175775000Y-127250000D02*
G01*
X178225000Y-127250000D01*
X178225000Y-128750000D01*
X175775000Y-128750000D01*
X175775000Y-127250000D01*
G37*
%TO.C,JP5*%
G36*
X159275000Y-122250000D02*
G01*
X161725000Y-122250000D01*
X161725000Y-123750000D01*
X159275000Y-123750000D01*
X159275000Y-122250000D01*
G37*
%TO.C,JP2*%
G36*
X117400000Y-96750000D02*
G01*
X119000000Y-96750000D01*
X119000000Y-98250000D01*
X117400000Y-98250000D01*
X117400000Y-96750000D01*
G37*
%TO.C,JP6*%
G36*
X127275000Y-126750000D02*
G01*
X129725000Y-126750000D01*
X129725000Y-128250000D01*
X127275000Y-128250000D01*
X127275000Y-126750000D01*
G37*
%TO.C,JP4*%
G36*
X159275000Y-118050000D02*
G01*
X161725000Y-118050000D01*
X161725000Y-119550000D01*
X159275000Y-119550000D01*
X159275000Y-118050000D01*
G37*
%TD*%
D10*
%TO.C,C2*%
X140000000Y-74000000D03*
D11*
X142500000Y-74000000D03*
%TD*%
D12*
%TO.C,C6*%
X181000000Y-103000000D03*
D13*
X186000000Y-103000000D03*
%TD*%
D10*
%TO.C,SW2*%
X123000000Y-133000000D03*
D11*
X130620000Y-133000000D03*
%TD*%
D14*
%TO.C,J9*%
X131000000Y-90000000D03*
D15*
X131000000Y-92540000D03*
X131000000Y-95080000D03*
X131000000Y-97620000D03*
%TD*%
D11*
%TO.C,R2*%
X168000000Y-76000000D03*
X178160000Y-76000000D03*
%TD*%
%TO.C,C4*%
X176000000Y-116000000D03*
X181000000Y-116000000D03*
%TD*%
D14*
%TO.C,J13*%
X150000000Y-118500000D03*
D15*
X150000000Y-121040000D03*
X150000000Y-123580000D03*
%TD*%
D12*
%TO.C,C3*%
X111000000Y-116000000D03*
D13*
X116000000Y-116000000D03*
%TD*%
D14*
%TO.C,J5*%
X187500000Y-115000000D03*
D15*
X187500000Y-117540000D03*
X187500000Y-120080000D03*
X187500000Y-122620000D03*
X187500000Y-125160000D03*
X187500000Y-127700000D03*
%TD*%
D11*
%TO.C,R9*%
X110000000Y-63500000D03*
X120160000Y-63500000D03*
%TD*%
D14*
%TO.C,J8*%
X194000000Y-95000000D03*
D15*
X194000000Y-97540000D03*
X194000000Y-100080000D03*
%TD*%
D14*
%TO.C,J12*%
X155500000Y-119000000D03*
D15*
X155500000Y-121540000D03*
%TD*%
D16*
%TO.C,JP1*%
X117775000Y-92000000D03*
D17*
X119225000Y-92000000D03*
%TD*%
D14*
%TO.C,J3*%
X112500000Y-92000000D03*
D15*
X112500000Y-94540000D03*
X112500000Y-97080000D03*
X112500000Y-99620000D03*
X112500000Y-102160000D03*
X112500000Y-104700000D03*
X112500000Y-107240000D03*
%TD*%
D18*
%TO.C,H4*%
X195500000Y-135500000D03*
%TD*%
%TO.C,H1*%
X104500000Y-64500000D03*
%TD*%
%TO.C,H2*%
X195500000Y-64500000D03*
%TD*%
D16*
%TO.C,JP3*%
X176275000Y-128000000D03*
D17*
X177725000Y-128000000D03*
%TD*%
D11*
%TO.C,R1*%
X168000000Y-71500000D03*
X178160000Y-71500000D03*
%TD*%
D14*
%TO.C,J7*%
X188000000Y-63500000D03*
D15*
X188000000Y-66040000D03*
%TD*%
D16*
%TO.C,JP5*%
X159775000Y-123000000D03*
D17*
X161225000Y-123000000D03*
%TD*%
D18*
%TO.C,H3*%
X104500000Y-135500000D03*
%TD*%
D11*
%TO.C,R7*%
X104000000Y-124000000D03*
X114160000Y-124000000D03*
%TD*%
D14*
%TO.C,J6*%
X146500000Y-63000000D03*
D15*
X149040000Y-63000000D03*
X151580000Y-63000000D03*
%TD*%
D10*
%TO.C,C1*%
X136000000Y-133000000D03*
D11*
X138500000Y-133000000D03*
%TD*%
%TO.C,R3*%
X180000000Y-94000000D03*
X190160000Y-94000000D03*
%TD*%
D19*
%TO.C,J0*%
X112000000Y-135540000D03*
X114540000Y-135540000D03*
D20*
X112000000Y-133000000D03*
D21*
X114540000Y-133000000D03*
%TD*%
D22*
%TO.C,D2*%
X121500000Y-124000000D03*
D23*
X124040000Y-124000000D03*
%TD*%
D24*
%TO.C,JP2*%
X116900000Y-97500000D03*
X118200000Y-97500000D03*
X119500000Y-97500000D03*
%TD*%
D16*
%TO.C,JP6*%
X127775000Y-127500000D03*
D17*
X129225000Y-127500000D03*
%TD*%
D13*
%TO.C,SW1*%
X139000000Y-120000000D03*
X145500000Y-120000000D03*
X139000000Y-124500000D03*
X145500000Y-124500000D03*
%TD*%
D16*
%TO.C,JP4*%
X159775000Y-118800000D03*
D17*
X161225000Y-118800000D03*
%TD*%
D25*
%TO.C,Q1*%
X177000000Y-66000000D03*
D26*
X178270000Y-66000000D03*
X179540000Y-66000000D03*
%TD*%
D10*
%TO.C,C5*%
X177000000Y-122000000D03*
D11*
X179500000Y-122000000D03*
%TD*%
D14*
%TO.C,J1*%
X138570000Y-88570000D03*
D15*
X138570000Y-91110000D03*
X138570000Y-93650000D03*
X138570000Y-96190000D03*
X138570000Y-98730000D03*
X138570000Y-101270000D03*
X138570000Y-103810000D03*
X138570000Y-106350000D03*
X138570000Y-108890000D03*
X138570000Y-111430000D03*
%TD*%
D14*
%TO.C,J14*%
X125000000Y-63000000D03*
D15*
X125000000Y-65540000D03*
%TD*%
D11*
%TO.C,C9*%
X155000000Y-66000000D03*
X160000000Y-66000000D03*
%TD*%
D14*
%TO.C,J2*%
X161430000Y-88570000D03*
D15*
X161430000Y-91110000D03*
X161430000Y-93650000D03*
X161430000Y-96190000D03*
X161430000Y-98730000D03*
X161430000Y-101270000D03*
X161430000Y-103810000D03*
X161430000Y-106350000D03*
X161430000Y-108890000D03*
X161430000Y-111430000D03*
%TD*%
M02*
