%TF.GenerationSoftware,KiCad,Pcbnew,10.0.3*%
%TF.CreationDate,2026-07-12T15:30:45+01:00*%
%TF.ProjectId,default,64656661-756c-4742-9e6b-696361645f70,rev?*%
%TF.SameCoordinates,Original*%
%TF.FileFunction,Copper,L2,Bot*%
%TF.FilePolarity,Positive*%
%FSLAX46Y46*%
G04 Gerber Fmt 4.6, Leading zero omitted, Abs format (unit mm)*
G04 Created by KiCad (PCBNEW 10.0.3) date 2026-07-12 15:30:45*
%MOMM*%
%LPD*%
G01*
G04 APERTURE LIST*
G04 Aperture macros list*
%AMRoundRect*
0 Rectangle with rounded corners*
0 $1 Rounding radius*
0 $2 $3 $4 $5 $6 $7 $8 $9 X,Y pos of 4 corners*
0 Add a 4 corners polygon primitive as box body*
4,1,4,$2,$3,$4,$5,$6,$7,$8,$9,$2,$3,0*
0 Add four circle primitives for the rounded corners*
1,1,$1+$1,$2,$3*
1,1,$1+$1,$4,$5*
1,1,$1+$1,$6,$7*
1,1,$1+$1,$8,$9*
0 Add four rect primitives between the rounded corners*
20,1,$1+$1,$2,$3,$4,$5,0*
20,1,$1+$1,$4,$5,$6,$7,0*
20,1,$1+$1,$6,$7,$8,$9,0*
20,1,$1+$1,$8,$9,$2,$3,0*%
G04 Aperture macros list end*
%TA.AperFunction,ComponentPad*%
%ADD10RoundRect,0.250000X-0.550000X-0.550000X0.550000X-0.550000X0.550000X0.550000X-0.550000X0.550000X0*%
%TD*%
%TA.AperFunction,ComponentPad*%
%ADD11C,1.600000*%
%TD*%
%TA.AperFunction,ComponentPad*%
%ADD12R,1.700000X1.700000*%
%TD*%
%TA.AperFunction,ComponentPad*%
%ADD13C,1.700000*%
%TD*%
%TA.AperFunction,ComponentPad*%
%ADD14RoundRect,0.250000X-0.750000X-0.750000X0.750000X-0.750000X0.750000X0.750000X-0.750000X0.750000X0*%
%TD*%
%TA.AperFunction,ComponentPad*%
%ADD15C,2.000000*%
%TD*%
%TA.AperFunction,ComponentPad*%
%ADD16RoundRect,0.249999X-0.850001X-0.850001X0.850001X-0.850001X0.850001X0.850001X-0.850001X0.850001X0*%
%TD*%
%TA.AperFunction,ComponentPad*%
%ADD17C,2.200000*%
%TD*%
%TA.AperFunction,ComponentPad*%
%ADD18R,1.800000X1.800000*%
%TD*%
%TA.AperFunction,ComponentPad*%
%ADD19C,1.800000*%
%TD*%
%TA.AperFunction,ComponentPad*%
%ADD20R,1.050000X1.500000*%
%TD*%
%TA.AperFunction,ComponentPad*%
%ADD21O,1.050000X1.500000*%
%TD*%
%TA.AperFunction,ViaPad*%
%ADD22C,0.800000*%
%TD*%
%TA.AperFunction,Conductor*%
%ADD23C,0.250000*%
%TD*%
%TA.AperFunction,Conductor*%
%ADD24C,0.500000*%
%TD*%
G04 APERTURE END LIST*
D10*
%TO.P,C2,1*%
%TO.N,VCC3V3*%
X140000000Y-74000000D03*
D11*
%TO.P,C2,2*%
%TO.N,GND*%
X142500000Y-74000000D03*
%TD*%
D12*
%TO.P,J4,1*%
%TO.N,audio-_1*%
X118500000Y-103000000D03*
D13*
%TO.P,J4,2*%
%TO.N,audio-_2*%
X118500000Y-105540000D03*
%TD*%
D14*
%TO.P,C6,1*%
%TO.N,VCC5*%
X181000000Y-103000000D03*
D15*
%TO.P,C6,2*%
%TO.N,GND*%
X186000000Y-103000000D03*
%TD*%
D10*
%TO.P,SW2,1*%
%TO.N,VCC5_IN*%
X123000000Y-133000000D03*
D11*
%TO.P,SW2,2*%
%TO.N,VCC5*%
X130620000Y-133000000D03*
%TD*%
D12*
%TO.P,J9,1*%
%TO.N,VCC3V3*%
X131000000Y-90000000D03*
D13*
%TO.P,J9,2*%
%TO.N,GND*%
X131000000Y-92540000D03*
%TO.P,J9,3*%
%TO.N,i2c_sda*%
X131000000Y-95080000D03*
%TO.P,J9,4*%
%TO.N,i2c_scl*%
X131000000Y-97620000D03*
%TD*%
D11*
%TO.P,R2,1*%
%TO.N,VCC5*%
X168000000Y-76000000D03*
%TO.P,R2,2*%
%TO.N,footprint-_1*%
X178160000Y-76000000D03*
%TD*%
%TO.P,C4,1*%
%TO.N,sd_vdd*%
X176000000Y-116000000D03*
%TO.P,C4,2*%
%TO.N,GND*%
X181000000Y-116000000D03*
%TD*%
D12*
%TO.P,J13,1*%
%TO.N,footprint-b*%
X150000000Y-118500000D03*
D13*
%TO.P,J13,2*%
%TO.N,VCC3V3*%
X150000000Y-121040000D03*
%TO.P,J13,3*%
%TO.N,GND*%
X150000000Y-123580000D03*
%TD*%
D14*
%TO.P,C3,1*%
%TO.N,VCC5*%
X111000000Y-116000000D03*
D15*
%TO.P,C3,2*%
%TO.N,GND*%
X116000000Y-116000000D03*
%TD*%
D12*
%TO.P,J5,1*%
%TO.N,sd_vdd*%
X187500000Y-115000000D03*
D13*
%TO.P,J5,2*%
%TO.N,sd_cs*%
X187500000Y-117540000D03*
%TO.P,J5,3*%
%TO.N,sd_mosi*%
X187500000Y-120080000D03*
%TO.P,J5,4*%
%TO.N,sd_sck*%
X187500000Y-122620000D03*
%TO.P,J5,5*%
%TO.N,sd_miso*%
X187500000Y-125160000D03*
%TO.P,J5,6*%
%TO.N,GND*%
X187500000Y-127700000D03*
%TD*%
D11*
%TO.P,R9,1*%
%TO.N,ACT_LED*%
X110000000Y-63500000D03*
%TO.P,R9,2*%
%TO.N,act_led_a*%
X120160000Y-63500000D03*
%TD*%
D12*
%TO.P,J8,1*%
%TO.N,VCC5*%
X194000000Y-95000000D03*
D13*
%TO.P,J8,2*%
%TO.N,footprint-_2*%
X194000000Y-97540000D03*
%TO.P,J8,3*%
%TO.N,GND*%
X194000000Y-100080000D03*
%TD*%
D12*
%TO.P,J12,1*%
%TO.N,footprint-a*%
X155500000Y-119000000D03*
D13*
%TO.P,J12,2*%
%TO.N,GND*%
X155500000Y-121540000D03*
%TD*%
D12*
%TO.P,J3,1*%
%TO.N,i2s_ws*%
X112500000Y-92000000D03*
D13*
%TO.P,J3,2*%
%TO.N,i2s_bclk*%
X112500000Y-94540000D03*
%TO.P,J3,3*%
%TO.N,i2s_din*%
X112500000Y-97080000D03*
%TO.P,J3,4*%
%TO.N,common*%
X112500000Y-99620000D03*
%TO.P,J3,5*%
%TO.N,audio-b*%
X112500000Y-102160000D03*
%TO.P,J3,6*%
%TO.N,GND*%
X112500000Y-104700000D03*
%TO.P,J3,7*%
%TO.N,VCC5*%
X112500000Y-107240000D03*
%TD*%
D11*
%TO.P,R1,1*%
%TO.N,ir_tx*%
X168000000Y-71500000D03*
%TO.P,R1,2*%
%TO.N,base*%
X178160000Y-71500000D03*
%TD*%
D12*
%TO.P,J7,1*%
%TO.N,footprint-_1*%
X188000000Y-63500000D03*
D13*
%TO.P,J7,2*%
%TO.N,collector*%
X188000000Y-66040000D03*
%TD*%
D11*
%TO.P,R7,1*%
%TO.N,VCC5*%
X104000000Y-124000000D03*
%TO.P,R7,2*%
%TO.N,anode*%
X114160000Y-124000000D03*
%TD*%
D12*
%TO.P,J6,1*%
%TO.N,ir_rx*%
X150000000Y-63000000D03*
D13*
%TO.P,J6,2*%
%TO.N,GND*%
X150000000Y-65540000D03*
%TO.P,J6,3*%
%TO.N,VCC3V3*%
X150000000Y-68080000D03*
%TD*%
D10*
%TO.P,C1,1*%
%TO.N,VCC5*%
X136000000Y-133000000D03*
D11*
%TO.P,C1,2*%
%TO.N,GND*%
X138500000Y-133000000D03*
%TD*%
%TO.P,R3,1*%
%TO.N,ws_data*%
X180000000Y-94000000D03*
%TO.P,R3,2*%
%TO.N,footprint-_2*%
X190160000Y-94000000D03*
%TD*%
D16*
%TO.P,J0,1*%
%TO.N,VCC5_IN*%
X112000000Y-133000000D03*
D17*
%TO.P,J0,2*%
%TO.N,GND*%
X114540000Y-133000000D03*
%TD*%
D18*
%TO.P,D2,1*%
%TO.N,anode*%
X121500000Y-124000000D03*
D19*
%TO.P,D2,2*%
%TO.N,GND*%
X124040000Y-124000000D03*
%TD*%
D15*
%TO.P,SW1,1*%
%TO.N,footprint-a*%
X139000000Y-120000000D03*
X145500000Y-120000000D03*
%TO.P,SW1,2*%
%TO.N,GND*%
X139000000Y-124500000D03*
X145500000Y-124500000D03*
%TD*%
D20*
%TO.P,Q1,1*%
%TO.N,GND*%
X177000000Y-66000000D03*
D21*
%TO.P,Q1,2*%
%TO.N,base*%
X178270000Y-66000000D03*
%TO.P,Q1,3*%
%TO.N,collector*%
X179540000Y-66000000D03*
%TD*%
D10*
%TO.P,C5,1*%
%TO.N,sd_vdd*%
X177000000Y-122000000D03*
D11*
%TO.P,C5,2*%
%TO.N,GND*%
X179500000Y-122000000D03*
%TD*%
D12*
%TO.P,J1,1*%
%TO.N,VCC5*%
X138570000Y-88570000D03*
D13*
%TO.P,J1,2*%
%TO.N,GND*%
X138570000Y-91110000D03*
%TO.P,J1,3*%
%TO.N,VCC3V3*%
X138570000Y-93650000D03*
%TO.P,J1,4*%
%TO.N,ACT_LED*%
X138570000Y-96190000D03*
%TO.P,J1,5*%
%TO.N,ws_data*%
X138570000Y-98730000D03*
%TO.P,J1,6*%
%TO.N,i2c_scl*%
X138570000Y-101270000D03*
%TO.P,J1,7*%
%TO.N,i2c_sda*%
X138570000Y-103810000D03*
%TO.P,J1,8*%
%TO.N,footprint-_8-0*%
X138570000Y-106350000D03*
%TO.P,J1,9*%
%TO.N,audio-a*%
X138570000Y-108890000D03*
%TO.P,J1,10*%
%TO.N,ir_rx*%
X138570000Y-111430000D03*
%TD*%
D12*
%TO.P,J14,1*%
%TO.N,act_led_a*%
X125000000Y-63000000D03*
D13*
%TO.P,J14,2*%
%TO.N,GND*%
X125000000Y-65540000D03*
%TD*%
D11*
%TO.P,C9,1*%
%TO.N,VCC3V3*%
X155000000Y-66000000D03*
%TO.P,C9,2*%
%TO.N,GND*%
X160000000Y-66000000D03*
%TD*%
D12*
%TO.P,J2,1*%
%TO.N,sd_sck*%
X161430000Y-88570000D03*
D13*
%TO.P,J2,2*%
%TO.N,sd_mosi*%
X161430000Y-91110000D03*
%TO.P,J2,3*%
%TO.N,sd_miso*%
X161430000Y-93650000D03*
%TO.P,J2,4*%
%TO.N,sd_cs*%
X161430000Y-96190000D03*
%TO.P,J2,5*%
%TO.N,ir_tx*%
X161430000Y-98730000D03*
%TO.P,J2,6*%
%TO.N,i2s_bclk*%
X161430000Y-101270000D03*
%TO.P,J2,7*%
%TO.N,i2s_ws*%
X161430000Y-103810000D03*
%TO.P,J2,8*%
%TO.N,i2s_din*%
X161430000Y-106350000D03*
%TO.P,J2,9*%
%TO.N,_9*%
X161430000Y-108890000D03*
%TO.P,J2,10*%
%TO.N,_10*%
X161430000Y-111430000D03*
%TD*%
D22*
%TO.N,sd_cs*%
X187741200Y-102420600D03*
%TO.N,sd_mosi*%
X163570700Y-118712600D03*
%TO.N,sd_sck*%
X179796400Y-91723200D03*
%TO.N,sd_miso*%
X184113200Y-96781600D03*
%TO.N,ACT_LED*%
X121447600Y-95829200D03*
%TO.N,audio-a*%
X136152600Y-95207900D03*
%TO.N,audio-b*%
X120523800Y-92068300D03*
%TO.N,i2s_bclk*%
X158901900Y-91378600D03*
%TD*%
%TO.N,VCC3V3*%
D23*
X136915200Y-77084800D02*
X136915200Y-90000000D01*
X136915200Y-90000000D02*
X136915200Y-91995200D01*
X131000000Y-90000000D02*
X136915200Y-90000000D01*
X136915200Y-91995200D02*
X138570000Y-93650000D01*
X148805800Y-102856200D02*
X148805800Y-119845800D01*
D24*
X140000000Y-74000000D02*
X136915200Y-77084800D01*
X148805800Y-119845800D02*
X150000000Y-121040000D01*
X150000000Y-68080000D02*
X150000000Y-101662000D01*
D23*
X150000000Y-101662000D02*
X148805800Y-102856200D01*
%TO.N,GND*%
X142500000Y-87180000D02*
X138570000Y-91110000D01*
X186000000Y-111000000D02*
X181000000Y-116000000D01*
D24*
X125092000Y-92540000D02*
X125092000Y-65632000D01*
X125092000Y-92540000D02*
X131000000Y-92540000D01*
X179500000Y-122000000D02*
X179500000Y-117500000D01*
X146420000Y-123580000D02*
X145500000Y-124500000D01*
X116000000Y-108200000D02*
X112500000Y-104700000D01*
X122772300Y-125267700D02*
X124040000Y-124000000D01*
D23*
X186000000Y-103000000D02*
X186000000Y-111000000D01*
X116000000Y-125267700D02*
X116000000Y-131540000D01*
D24*
X124040000Y-93592000D02*
X125092000Y-92540000D01*
D23*
X116000000Y-116000000D02*
X116000000Y-125267700D01*
D24*
X124040000Y-124000000D02*
X124040000Y-93592000D01*
X142500000Y-74000000D02*
X142500000Y-87180000D01*
D23*
X150000000Y-123580000D02*
X146420000Y-123580000D01*
D24*
X139000000Y-132500000D02*
X138500000Y-133000000D01*
X116000000Y-116000000D02*
X116000000Y-108200000D01*
X116000000Y-131540000D02*
X114540000Y-133000000D01*
D23*
X116000000Y-125267700D02*
X122772300Y-125267700D01*
D24*
X179500000Y-117500000D02*
X181000000Y-116000000D01*
X125092000Y-65632000D02*
X125000000Y-65540000D01*
X139000000Y-124500000D02*
X139000000Y-132500000D01*
%TO.N,VCC5*%
X111000000Y-117000000D02*
X111000000Y-116000000D01*
D23*
X140291300Y-108848100D02*
X138979400Y-110160000D01*
D24*
X168000000Y-90000000D02*
X181000000Y-103000000D01*
X104000000Y-124000000D02*
X111000000Y-117000000D01*
X168000000Y-76000000D02*
X168000000Y-90000000D01*
X111000000Y-108740000D02*
X111000000Y-116000000D01*
D23*
X138217200Y-89746700D02*
X137366900Y-90597000D01*
X138173400Y-92380000D02*
X139057500Y-92380000D01*
X140291300Y-93613800D02*
X140291300Y-108848100D01*
D24*
X112500000Y-107240000D02*
X111000000Y-108740000D01*
D23*
X138570000Y-89746700D02*
X138217200Y-89746700D01*
X138076800Y-110160000D02*
X136000000Y-112236800D01*
X138570000Y-88570000D02*
X138570000Y-89746700D01*
X137366900Y-90597000D02*
X137366900Y-91573500D01*
X137366900Y-91573500D02*
X138173400Y-92380000D01*
X139057500Y-92380000D02*
X140291300Y-93613800D01*
D24*
X136000000Y-112236800D02*
X136000000Y-133000000D01*
D23*
X138979400Y-110160000D02*
X138076800Y-110160000D01*
%TO.N,i2c_sda*%
X131000000Y-95080000D02*
X137018100Y-101098100D01*
X137018100Y-101098100D02*
X137018100Y-102258100D01*
X137018100Y-102258100D02*
X138570000Y-103810000D01*
%TO.N,footprint-_1*%
X188000000Y-63500000D02*
X188000000Y-64676700D01*
X178160000Y-76000000D02*
X178160000Y-74149000D01*
X187632300Y-64676700D02*
X188000000Y-64676700D01*
X178160000Y-74149000D02*
X187632300Y-64676700D01*
%TO.N,sd_vdd*%
D24*
X177000000Y-117000000D02*
X176000000Y-116000000D01*
X177000000Y-122000000D02*
X177000000Y-117000000D01*
%TO.N,sd_cs*%
D23*
X188676700Y-116363300D02*
X187500000Y-117540000D01*
X188676700Y-103356100D02*
X188676700Y-116363300D01*
X187741200Y-102420600D02*
X188676700Y-103356100D01*
%TO.N,sd_mosi*%
X163570700Y-101746200D02*
X163570700Y-118712600D01*
X160220200Y-92319800D02*
X160220200Y-99226700D01*
X160220200Y-99226700D02*
X160993500Y-100000000D01*
X161430000Y-91110000D02*
X160220200Y-92319800D01*
X161824500Y-100000000D02*
X163570700Y-101746200D01*
X160993500Y-100000000D02*
X161824500Y-100000000D01*
%TO.N,sd_sck*%
X182390800Y-96175100D02*
X182390800Y-94317600D01*
X187500000Y-122620000D02*
X189153700Y-120966300D01*
X189153700Y-120966300D02*
X189153700Y-102755300D01*
X189153700Y-102755300D02*
X185960000Y-99561600D01*
X185960000Y-99561600D02*
X185777300Y-99561600D01*
X185777300Y-99561600D02*
X182390800Y-96175100D01*
X182390800Y-94317600D02*
X179796400Y-91723200D01*
%TO.N,sd_miso*%
X189605400Y-123054600D02*
X189605400Y-102273800D01*
X187500000Y-125160000D02*
X189605400Y-123054600D01*
X189605400Y-102273800D02*
X184113200Y-96781600D01*
%TO.N,ACT_LED*%
D24*
X110000000Y-63500000D02*
X121447600Y-74947600D01*
D23*
X121447600Y-74947600D02*
X121447600Y-95829200D01*
%TO.N,footprint-_2*%
X194000000Y-97540000D02*
X193700000Y-97540000D01*
X193700000Y-97540000D02*
X190160000Y-94000000D01*
%TO.N,audio-a*%
X139785900Y-100821700D02*
X139785900Y-107674100D01*
X139785900Y-107674100D02*
X138570000Y-108890000D01*
X138112600Y-99976100D02*
X138940300Y-99976100D01*
X136152600Y-95207900D02*
X136152600Y-98016100D01*
X136152600Y-98016100D02*
X138112600Y-99976100D01*
X138940300Y-99976100D02*
X139785900Y-100821700D01*
%TO.N,audio-b*%
X112500000Y-102160000D02*
X120523800Y-94136200D01*
X120523800Y-94136200D02*
X120523800Y-92068300D01*
%TO.N,i2s_bclk*%
X158901900Y-98741900D02*
X161430000Y-101270000D01*
X158901900Y-91378600D02*
X158901900Y-98741900D01*
%TO.N,ir_tx*%
X162794900Y-76705100D02*
X162794900Y-97365200D01*
X162794800Y-97365200D02*
X161430000Y-98730000D01*
X168000000Y-71500000D02*
X162794900Y-76705100D01*
X162794900Y-97365200D02*
X162794800Y-97365200D01*
%TO.N,base*%
X178270000Y-67076700D02*
X178160000Y-67186700D01*
X178160000Y-67186700D02*
X178160000Y-71500000D01*
X178270000Y-66000000D02*
X178270000Y-67076700D01*
%TO.N,ir_rx*%
X149632200Y-64176700D02*
X150000000Y-64176700D01*
X138570000Y-111430000D02*
X148823300Y-101176700D01*
X148823300Y-101176700D02*
X148823300Y-64985600D01*
X150000000Y-63000000D02*
X150000000Y-64176700D01*
X148823300Y-64985600D02*
X149632200Y-64176700D01*
%TD*%
%TA.AperFunction,Conductor*%
%TO.N,GND*%
G36*
X199442539Y-60520185D02*
G01*
X199488294Y-60572989D01*
X199499500Y-60624500D01*
X199499500Y-139375500D01*
X199479815Y-139442539D01*
X199427011Y-139488294D01*
X199375500Y-139499500D01*
X100624500Y-139499500D01*
X100557461Y-139479815D01*
X100511706Y-139427011D01*
X100500500Y-139375500D01*
X100500500Y-135378711D01*
X102649500Y-135378711D01*
X102649500Y-135621288D01*
X102681161Y-135861785D01*
X102743947Y-136096104D01*
X102836773Y-136320205D01*
X102836776Y-136320212D01*
X102958064Y-136530289D01*
X102958066Y-136530292D01*
X102958067Y-136530293D01*
X103105733Y-136722736D01*
X103105739Y-136722743D01*
X103277256Y-136894260D01*
X103277262Y-136894265D01*
X103469711Y-137041936D01*
X103679788Y-137163224D01*
X103903900Y-137256054D01*
X104138211Y-137318838D01*
X104318586Y-137342584D01*
X104378711Y-137350500D01*
X104378712Y-137350500D01*
X104621289Y-137350500D01*
X104669388Y-137344167D01*
X104861789Y-137318838D01*
X105096100Y-137256054D01*
X105320212Y-137163224D01*
X105530289Y-137041936D01*
X105722738Y-136894265D01*
X105894265Y-136722738D01*
X106041936Y-136530289D01*
X106163224Y-136320212D01*
X106256054Y-136096100D01*
X106318838Y-135861789D01*
X106350500Y-135621288D01*
X106350500Y-135378712D01*
X106318838Y-135138211D01*
X106256054Y-134903900D01*
X106163224Y-134679788D01*
X106041936Y-134469711D01*
X105981018Y-134390321D01*
X105894266Y-134277263D01*
X105894260Y-134277256D01*
X105722743Y-134105739D01*
X105722736Y-134105733D01*
X105530293Y-133958067D01*
X105530292Y-133958066D01*
X105530289Y-133958064D01*
X105338300Y-133847219D01*
X105320214Y-133836777D01*
X105320205Y-133836773D01*
X105096104Y-133743947D01*
X104861785Y-133681161D01*
X104621289Y-133649500D01*
X104621288Y-133649500D01*
X104378712Y-133649500D01*
X104378711Y-133649500D01*
X104138214Y-133681161D01*
X103903895Y-133743947D01*
X103679794Y-133836773D01*
X103679785Y-133836777D01*
X103469706Y-133958067D01*
X103277263Y-134105733D01*
X103277256Y-134105739D01*
X103105739Y-134277256D01*
X103105733Y-134277263D01*
X102958067Y-134469706D01*
X102836777Y-134679785D01*
X102836773Y-134679794D01*
X102743947Y-134903895D01*
X102681161Y-135138214D01*
X102649500Y-135378711D01*
X100500500Y-135378711D01*
X100500500Y-132099982D01*
X110399500Y-132099982D01*
X110399500Y-133900017D01*
X110410000Y-134002796D01*
X110410001Y-134002798D01*
X110465186Y-134169335D01*
X110557288Y-134318656D01*
X110681344Y-134442712D01*
X110830665Y-134534814D01*
X110997202Y-134589999D01*
X111099990Y-134600500D01*
X111099995Y-134600500D01*
X111556425Y-134600500D01*
X111623464Y-134620185D01*
X111669219Y-134672989D01*
X111679163Y-134742147D01*
X111650138Y-134805703D01*
X111625316Y-134827602D01*
X111489711Y-134918210D01*
X111489707Y-134918213D01*
X111378213Y-135029707D01*
X111378210Y-135029711D01*
X111290609Y-135160814D01*
X111290602Y-135160827D01*
X111230264Y-135306498D01*
X111230261Y-135306510D01*
X111199500Y-135461153D01*
X111199500Y-135618846D01*
X111230261Y-135773489D01*
X111230264Y-135773501D01*
X111290602Y-135919172D01*
X111290609Y-135919185D01*
X111378210Y-136050288D01*
X111378213Y-136050292D01*
X111489707Y-136161786D01*
X111489711Y-136161789D01*
X111620814Y-136249390D01*
X111620827Y-136249397D01*
X111766498Y-136309735D01*
X111766503Y-136309737D01*
X111921153Y-136340499D01*
X111921156Y-136340500D01*
X111921158Y-136340500D01*
X112078844Y-136340500D01*
X112078845Y-136340499D01*
X112233497Y-136309737D01*
X112379179Y-136249394D01*
X112510289Y-136161789D01*
X112621789Y-136050289D01*
X112709394Y-135919179D01*
X112769737Y-135773497D01*
X112800500Y-135618842D01*
X112800500Y-135461158D01*
X112800500Y-135461155D01*
X112800499Y-135461153D01*
X113739500Y-135461153D01*
X113739500Y-135618846D01*
X113770261Y-135773489D01*
X113770264Y-135773501D01*
X113830602Y-135919172D01*
X113830609Y-135919185D01*
X113918210Y-136050288D01*
X113918213Y-136050292D01*
X114029707Y-136161786D01*
X114029711Y-136161789D01*
X114160814Y-136249390D01*
X114160827Y-136249397D01*
X114306498Y-136309735D01*
X114306503Y-136309737D01*
X114461153Y-136340499D01*
X114461156Y-136340500D01*
X114461158Y-136340500D01*
X114618844Y-136340500D01*
X114618845Y-136340499D01*
X114773497Y-136309737D01*
X114919179Y-136249394D01*
X115050289Y-136161789D01*
X115161789Y-136050289D01*
X115249394Y-135919179D01*
X115309737Y-135773497D01*
X115340500Y-135618842D01*
X115340500Y-135461158D01*
X115340500Y-135461155D01*
X115340499Y-135461153D01*
X115328106Y-135398844D01*
X115324101Y-135378711D01*
X193649500Y-135378711D01*
X193649500Y-135621288D01*
X193681161Y-135861785D01*
X193743947Y-136096104D01*
X193836773Y-136320205D01*
X193836776Y-136320212D01*
X193958064Y-136530289D01*
X193958066Y-136530292D01*
X193958067Y-136530293D01*
X194105733Y-136722736D01*
X194105739Y-136722743D01*
X194277256Y-136894260D01*
X194277262Y-136894265D01*
X194469711Y-137041936D01*
X194679788Y-137163224D01*
X194903900Y-137256054D01*
X195138211Y-137318838D01*
X195318586Y-137342584D01*
X195378711Y-137350500D01*
X195378712Y-137350500D01*
X195621289Y-137350500D01*
X195669388Y-137344167D01*
X195861789Y-137318838D01*
X196096100Y-137256054D01*
X196320212Y-137163224D01*
X196530289Y-137041936D01*
X196722738Y-136894265D01*
X196894265Y-136722738D01*
X197041936Y-136530289D01*
X197163224Y-136320212D01*
X197256054Y-136096100D01*
X197318838Y-135861789D01*
X197350500Y-135621288D01*
X197350500Y-135378712D01*
X197318838Y-135138211D01*
X197256054Y-134903900D01*
X197163224Y-134679788D01*
X197041936Y-134469711D01*
X196981018Y-134390321D01*
X196894266Y-134277263D01*
X196894260Y-134277256D01*
X196722743Y-134105739D01*
X196722736Y-134105733D01*
X196530293Y-133958067D01*
X196530292Y-133958066D01*
X196530289Y-133958064D01*
X196338300Y-133847219D01*
X196320214Y-133836777D01*
X196320205Y-133836773D01*
X196096104Y-133743947D01*
X195861785Y-133681161D01*
X195621289Y-133649500D01*
X195621288Y-133649500D01*
X195378712Y-133649500D01*
X195378711Y-133649500D01*
X195138214Y-133681161D01*
X194903895Y-133743947D01*
X194679794Y-133836773D01*
X194679785Y-133836777D01*
X194469706Y-133958067D01*
X194277263Y-134105733D01*
X194277256Y-134105739D01*
X194105739Y-134277256D01*
X194105733Y-134277263D01*
X193958067Y-134469706D01*
X193836777Y-134679785D01*
X193836773Y-134679794D01*
X193743947Y-134903895D01*
X193681161Y-135138214D01*
X193649500Y-135378711D01*
X115324101Y-135378711D01*
X115309738Y-135306508D01*
X115309737Y-135306507D01*
X115309737Y-135306503D01*
X115309735Y-135306498D01*
X115249397Y-135160827D01*
X115249390Y-135160814D01*
X115161789Y-135029711D01*
X115161786Y-135029707D01*
X115050292Y-134918213D01*
X115050288Y-134918210D01*
X114919185Y-134830609D01*
X114919172Y-134830602D01*
X114773501Y-134770264D01*
X114773489Y-134770261D01*
X114618845Y-134739500D01*
X114618842Y-134739500D01*
X114461158Y-134739500D01*
X114461155Y-134739500D01*
X114306510Y-134770261D01*
X114306498Y-134770264D01*
X114160827Y-134830602D01*
X114160814Y-134830609D01*
X114029711Y-134918210D01*
X114029707Y-134918213D01*
X113918213Y-135029707D01*
X113918210Y-135029711D01*
X113830609Y-135160814D01*
X113830602Y-135160827D01*
X113770264Y-135306498D01*
X113770261Y-135306510D01*
X113739500Y-135461153D01*
X112800499Y-135461153D01*
X112769738Y-135306510D01*
X112769738Y-135306508D01*
X112769737Y-135306503D01*
X112769735Y-135306498D01*
X112709397Y-135160827D01*
X112709390Y-135160814D01*
X112621789Y-135029711D01*
X112621786Y-135029707D01*
X112510292Y-134918213D01*
X112510288Y-134918210D01*
X112374684Y-134827602D01*
X112329879Y-134773990D01*
X112321172Y-134704665D01*
X112351326Y-134641637D01*
X112410770Y-134604918D01*
X112443575Y-134600500D01*
X112900005Y-134600500D01*
X112900010Y-134600500D01*
X113002798Y-134589999D01*
X113169335Y-134534814D01*
X113318656Y-134442712D01*
X113442712Y-134318656D01*
X113534814Y-134169335D01*
X113589999Y-134002798D01*
X113600500Y-133900010D01*
X113600500Y-132399983D01*
X121699500Y-132399983D01*
X121699500Y-133600001D01*
X121699501Y-133600018D01*
X121710000Y-133702796D01*
X121710001Y-133702799D01*
X121754396Y-133836773D01*
X121765186Y-133869334D01*
X121857288Y-134018656D01*
X121981344Y-134142712D01*
X122130666Y-134234814D01*
X122297203Y-134289999D01*
X122399991Y-134300500D01*
X123600008Y-134300499D01*
X123702797Y-134289999D01*
X123869334Y-134234814D01*
X124018656Y-134142712D01*
X124142712Y-134018656D01*
X124234814Y-133869334D01*
X124289999Y-133702797D01*
X124300500Y-133600009D01*
X124300499Y-132897648D01*
X129319500Y-132897648D01*
X129319500Y-133102351D01*
X129351522Y-133304534D01*
X129414781Y-133499223D01*
X129466135Y-133600009D01*
X129507484Y-133681161D01*
X129507715Y-133681613D01*
X129628028Y-133847213D01*
X129772786Y-133991971D01*
X129927749Y-134104556D01*
X129938390Y-134112287D01*
X130050347Y-134169332D01*
X130120776Y-134205218D01*
X130120778Y-134205218D01*
X130120781Y-134205220D01*
X130211856Y-134234812D01*
X130315465Y-134268477D01*
X130416557Y-134284488D01*
X130517648Y-134300500D01*
X130517649Y-134300500D01*
X130722351Y-134300500D01*
X130722352Y-134300500D01*
X130924534Y-134268477D01*
X131119219Y-134205220D01*
X131301610Y-134112287D01*
X131430482Y-134018657D01*
X131467213Y-133991971D01*
X131467215Y-133991968D01*
X131467219Y-133991966D01*
X131611966Y-133847219D01*
X131611968Y-133847215D01*
X131611971Y-133847213D01*
X131686997Y-133743947D01*
X131732287Y-133681610D01*
X131825220Y-133499219D01*
X131888477Y-133304534D01*
X131920500Y-133102352D01*
X131920500Y-132897648D01*
X131888477Y-132695466D01*
X131825220Y-132500781D01*
X131825218Y-132500778D01*
X131825218Y-132500776D01*
X131773865Y-132399991D01*
X131732287Y-132318390D01*
X131716892Y-132297200D01*
X131611971Y-132152786D01*
X131467213Y-132008028D01*
X131301613Y-131887715D01*
X131301612Y-131887714D01*
X131301610Y-131887713D01*
X131241898Y-131857288D01*
X131119223Y-131794781D01*
X130924534Y-131731522D01*
X130746382Y-131703306D01*
X130722352Y-131699500D01*
X130517648Y-131699500D01*
X130493618Y-131703306D01*
X130315465Y-131731522D01*
X130120776Y-131794781D01*
X129938386Y-131887715D01*
X129772786Y-132008028D01*
X129628028Y-132152786D01*
X129507715Y-132318386D01*
X129414781Y-132500776D01*
X129351522Y-132695465D01*
X129319500Y-132897648D01*
X124300499Y-132897648D01*
X124300499Y-132399992D01*
X124289999Y-132297203D01*
X124234814Y-132130666D01*
X124142712Y-131981344D01*
X124018656Y-131857288D01*
X123869334Y-131765186D01*
X123702797Y-131710001D01*
X123702795Y-131710000D01*
X123600010Y-131699500D01*
X122399998Y-131699500D01*
X122399981Y-131699501D01*
X122297203Y-131710000D01*
X122297200Y-131710001D01*
X122130668Y-131765185D01*
X122130663Y-131765187D01*
X121981342Y-131857289D01*
X121857289Y-131981342D01*
X121765187Y-132130663D01*
X121765186Y-132130666D01*
X121710001Y-132297203D01*
X121710001Y-132297204D01*
X121710000Y-132297204D01*
X121699500Y-132399983D01*
X113600500Y-132399983D01*
X113600500Y-132099990D01*
X113589999Y-131997202D01*
X113534814Y-131830665D01*
X113442712Y-131681344D01*
X113318656Y-131557288D01*
X113169335Y-131465186D01*
X113002798Y-131410001D01*
X113002796Y-131410000D01*
X112900017Y-131399500D01*
X112900010Y-131399500D01*
X111099990Y-131399500D01*
X111099982Y-131399500D01*
X110997203Y-131410000D01*
X110997202Y-131410001D01*
X110914669Y-131437349D01*
X110830667Y-131465185D01*
X110830662Y-131465187D01*
X110681342Y-131557289D01*
X110557289Y-131681342D01*
X110465187Y-131830662D01*
X110465185Y-131830667D01*
X110446282Y-131887713D01*
X110410001Y-131997202D01*
X110410001Y-131997203D01*
X110410000Y-131997203D01*
X110399500Y-132099982D01*
X100500500Y-132099982D01*
X100500500Y-123897648D01*
X102699500Y-123897648D01*
X102699500Y-124102351D01*
X102731522Y-124304534D01*
X102794781Y-124499223D01*
X102887715Y-124681613D01*
X103008028Y-124847213D01*
X103152786Y-124991971D01*
X103307749Y-125104556D01*
X103318390Y-125112287D01*
X103434607Y-125171503D01*
X103500776Y-125205218D01*
X103500778Y-125205218D01*
X103500781Y-125205220D01*
X103605137Y-125239127D01*
X103695465Y-125268477D01*
X103796557Y-125284488D01*
X103897648Y-125300500D01*
X103897649Y-125300500D01*
X104102351Y-125300500D01*
X104102352Y-125300500D01*
X104304534Y-125268477D01*
X104499219Y-125205220D01*
X104681610Y-125112287D01*
X104825862Y-125007483D01*
X104847213Y-124991971D01*
X104847215Y-124991968D01*
X104847219Y-124991966D01*
X104991966Y-124847219D01*
X104991968Y-124847215D01*
X104991971Y-124847213D01*
X105058318Y-124755892D01*
X105112287Y-124681610D01*
X105205220Y-124499219D01*
X105268477Y-124304534D01*
X105300500Y-124102352D01*
X105300500Y-123897648D01*
X112859500Y-123897648D01*
X112859500Y-124102351D01*
X112891522Y-124304534D01*
X112954781Y-124499223D01*
X113047715Y-124681613D01*
X113168028Y-124847213D01*
X113312786Y-124991971D01*
X113467749Y-125104556D01*
X113478390Y-125112287D01*
X113594607Y-125171503D01*
X113660776Y-125205218D01*
X113660778Y-125205218D01*
X113660781Y-125205220D01*
X113765137Y-125239127D01*
X113855465Y-125268477D01*
X113956557Y-125284488D01*
X114057648Y-125300500D01*
X114057649Y-125300500D01*
X114262351Y-125300500D01*
X114262352Y-125300500D01*
X114464534Y-125268477D01*
X114659219Y-125205220D01*
X114841610Y-125112287D01*
X114985862Y-125007483D01*
X115007213Y-124991971D01*
X115007215Y-124991968D01*
X115007219Y-124991966D01*
X115151966Y-124847219D01*
X115151968Y-124847215D01*
X115151971Y-124847213D01*
X115218318Y-124755892D01*
X115272287Y-124681610D01*
X115365220Y-124499219D01*
X115428477Y-124304534D01*
X115460500Y-124102352D01*
X115460500Y-123897648D01*
X115449388Y-123827491D01*
X115428477Y-123695465D01*
X115365218Y-123500776D01*
X115331503Y-123434607D01*
X115272287Y-123318390D01*
X115251659Y-123289998D01*
X115151971Y-123152786D01*
X115051320Y-123052135D01*
X120099500Y-123052135D01*
X120099500Y-124947870D01*
X120099501Y-124947876D01*
X120105908Y-125007483D01*
X120156202Y-125142328D01*
X120156206Y-125142335D01*
X120242452Y-125257544D01*
X120242455Y-125257547D01*
X120357664Y-125343793D01*
X120357671Y-125343797D01*
X120492517Y-125394091D01*
X120492516Y-125394091D01*
X120499444Y-125394835D01*
X120552127Y-125400500D01*
X122447872Y-125400499D01*
X122507483Y-125394091D01*
X122642331Y-125343796D01*
X122757546Y-125257546D01*
X122843796Y-125142331D01*
X122894091Y-125007483D01*
X122900500Y-124947873D01*
X122900499Y-123052128D01*
X122894091Y-122992517D01*
X122873102Y-122936243D01*
X122843797Y-122857671D01*
X122843793Y-122857664D01*
X122757547Y-122742455D01*
X122757544Y-122742452D01*
X122642335Y-122656206D01*
X122642328Y-122656202D01*
X122507482Y-122605908D01*
X122507483Y-122605908D01*
X122447883Y-122599501D01*
X122447881Y-122599500D01*
X122447873Y-122599500D01*
X122447864Y-122599500D01*
X120552129Y-122599500D01*
X120552123Y-122599501D01*
X120492516Y-122605908D01*
X120357671Y-122656202D01*
X120357664Y-122656206D01*
X120242455Y-122742452D01*
X120242452Y-122742455D01*
X120156206Y-122857664D01*
X120156202Y-122857671D01*
X120105908Y-122992517D01*
X120099501Y-123052116D01*
X120099501Y-123052123D01*
X120099500Y-123052135D01*
X115051320Y-123052135D01*
X115007213Y-123008028D01*
X114841613Y-122887715D01*
X114841612Y-122887714D01*
X114841610Y-122887713D01*
X114782636Y-122857664D01*
X114659223Y-122794781D01*
X114464534Y-122731522D01*
X114289995Y-122703878D01*
X114262352Y-122699500D01*
X114057648Y-122699500D01*
X114036845Y-122702795D01*
X113855465Y-122731522D01*
X113660776Y-122794781D01*
X113478386Y-122887715D01*
X113312786Y-123008028D01*
X113168028Y-123152786D01*
X113047715Y-123318386D01*
X112954781Y-123500776D01*
X112891522Y-123695465D01*
X112859500Y-123897648D01*
X105300500Y-123897648D01*
X105291569Y-123841264D01*
X105291479Y-123840653D01*
X105296240Y-123806684D01*
X105300635Y-123772680D01*
X105301104Y-123771993D01*
X105301179Y-123771460D01*
X105302593Y-123769816D01*
X105326470Y-123734896D01*
X111524549Y-117536818D01*
X111585872Y-117503333D01*
X111612230Y-117500499D01*
X111800002Y-117500499D01*
X111800008Y-117500499D01*
X111902797Y-117489999D01*
X112069334Y-117434814D01*
X112218656Y-117342712D01*
X112342712Y-117218656D01*
X112434814Y-117069334D01*
X112489999Y-116902797D01*
X112500500Y-116800009D01*
X112500499Y-115199992D01*
X112489999Y-115097203D01*
X112434814Y-114930666D01*
X112342712Y-114781344D01*
X112218656Y-114657288D01*
X112069334Y-114565186D01*
X111902797Y-114510001D01*
X111902795Y-114510000D01*
X111861896Y-114505822D01*
X111797205Y-114479425D01*
X111757054Y-114422244D01*
X111750500Y-114382464D01*
X111750500Y-109102228D01*
X111770185Y-109035189D01*
X111786815Y-109014551D01*
X112191193Y-108610172D01*
X112252514Y-108576689D01*
X112298265Y-108575382D01*
X112393713Y-108590500D01*
X112393715Y-108590500D01*
X112606286Y-108590500D01*
X112606287Y-108590500D01*
X112816243Y-108557246D01*
X113018412Y-108491557D01*
X113207816Y-108395051D01*
X113290098Y-108335270D01*
X113379786Y-108270109D01*
X113379788Y-108270106D01*
X113379792Y-108270104D01*
X113530104Y-108119792D01*
X113530106Y-108119788D01*
X113530109Y-108119786D01*
X113655048Y-107947820D01*
X113655047Y-107947820D01*
X113655051Y-107947816D01*
X113751557Y-107758412D01*
X113817246Y-107556243D01*
X113850500Y-107346287D01*
X113850500Y-107133713D01*
X113817246Y-106923757D01*
X113751557Y-106721588D01*
X113655051Y-106532184D01*
X113655049Y-106532181D01*
X113655048Y-106532179D01*
X113530109Y-106360213D01*
X113379786Y-106209890D01*
X113207820Y-106084951D01*
X113018414Y-105988444D01*
X113018413Y-105988443D01*
X113018412Y-105988443D01*
X112816243Y-105922754D01*
X112816241Y-105922753D01*
X112816240Y-105922753D01*
X112654957Y-105897208D01*
X112606287Y-105889500D01*
X112393713Y-105889500D01*
X112345042Y-105897208D01*
X112183760Y-105922753D01*
X111981585Y-105988444D01*
X111792179Y-106084951D01*
X111620213Y-106209890D01*
X111469890Y-106360213D01*
X111344951Y-106532179D01*
X111248444Y-106721585D01*
X111182753Y-106923760D01*
X111149500Y-107133713D01*
X111149500Y-107346292D01*
X111164616Y-107441728D01*
X111155662Y-107511021D01*
X111129824Y-107548807D01*
X110417050Y-108261580D01*
X110417044Y-108261588D01*
X110367812Y-108335268D01*
X110367813Y-108335269D01*
X110334921Y-108384496D01*
X110334914Y-108384508D01*
X110278342Y-108521086D01*
X110278340Y-108521092D01*
X110249500Y-108666079D01*
X110249500Y-114382465D01*
X110229815Y-114449504D01*
X110177011Y-114495259D01*
X110138102Y-114505823D01*
X110097202Y-114510001D01*
X110097200Y-114510001D01*
X109930668Y-114565185D01*
X109930663Y-114565187D01*
X109781342Y-114657289D01*
X109657289Y-114781342D01*
X109565187Y-114930663D01*
X109565186Y-114930666D01*
X109510001Y-115097203D01*
X109510001Y-115097204D01*
X109510000Y-115097204D01*
X109499500Y-115199983D01*
X109499500Y-116800001D01*
X109499501Y-116800018D01*
X109510000Y-116902796D01*
X109510001Y-116902799D01*
X109550661Y-117025500D01*
X109565186Y-117069334D01*
X109629732Y-117173981D01*
X109648172Y-117241372D01*
X109627249Y-117308035D01*
X109611874Y-117326757D01*
X104265104Y-122673526D01*
X104203781Y-122707011D01*
X104158025Y-122708318D01*
X104102352Y-122699500D01*
X103897648Y-122699500D01*
X103876845Y-122702795D01*
X103695465Y-122731522D01*
X103500776Y-122794781D01*
X103318386Y-122887715D01*
X103152786Y-123008028D01*
X103008028Y-123152786D01*
X102887715Y-123318386D01*
X102794781Y-123500776D01*
X102731522Y-123695465D01*
X102699500Y-123897648D01*
X100500500Y-123897648D01*
X100500500Y-64378711D01*
X102649500Y-64378711D01*
X102649500Y-64621288D01*
X102679675Y-64850499D01*
X102681162Y-64861789D01*
X102687368Y-64884949D01*
X102743947Y-65096104D01*
X102836020Y-65318386D01*
X102836776Y-65320212D01*
X102958064Y-65530289D01*
X102958066Y-65530292D01*
X102958067Y-65530293D01*
X103105733Y-65722736D01*
X103105739Y-65722743D01*
X103277256Y-65894260D01*
X103277262Y-65894265D01*
X103469711Y-66041936D01*
X103679788Y-66163224D01*
X103903900Y-66256054D01*
X104138211Y-66318838D01*
X104318586Y-66342584D01*
X104378711Y-66350500D01*
X104378712Y-66350500D01*
X104621289Y-66350500D01*
X104669388Y-66344167D01*
X104861789Y-66318838D01*
X105096100Y-66256054D01*
X105320212Y-66163224D01*
X105530289Y-66041936D01*
X105722738Y-65894265D01*
X105894265Y-65722738D01*
X106041936Y-65530289D01*
X106163224Y-65320212D01*
X106256054Y-65096100D01*
X106318838Y-64861789D01*
X106350500Y-64621288D01*
X106350500Y-64378712D01*
X106318838Y-64138211D01*
X106256054Y-63903900D01*
X106163224Y-63679788D01*
X106041936Y-63469711D01*
X106040828Y-63468267D01*
X106040827Y-63468264D01*
X106040824Y-63468262D01*
X105986640Y-63397648D01*
X108699500Y-63397648D01*
X108699500Y-63602351D01*
X108731522Y-63804534D01*
X108794781Y-63999223D01*
X108858691Y-64124653D01*
X108878872Y-64164259D01*
X108887715Y-64181613D01*
X109008028Y-64347213D01*
X109152786Y-64491971D01*
X109302981Y-64601092D01*
X109318390Y-64612287D01*
X109434607Y-64671503D01*
X109500776Y-64705218D01*
X109500778Y-64705218D01*
X109500781Y-64705220D01*
X109605137Y-64739127D01*
X109695465Y-64768477D01*
X109756607Y-64778161D01*
X109897648Y-64800500D01*
X109897649Y-64800500D01*
X110102350Y-64800500D01*
X110102352Y-64800500D01*
X110158027Y-64791681D01*
X110227319Y-64800635D01*
X110265106Y-64826473D01*
X120785781Y-75347148D01*
X120819266Y-75408471D01*
X120822100Y-75434829D01*
X120822100Y-91058399D01*
X120802415Y-91125438D01*
X120749611Y-91171193D01*
X120680453Y-91181137D01*
X120673909Y-91180016D01*
X120612495Y-91167800D01*
X120612491Y-91167800D01*
X120435109Y-91167800D01*
X120435106Y-91167800D01*
X120261141Y-91202403D01*
X120261132Y-91202406D01*
X120097259Y-91270283D01*
X120097246Y-91270290D01*
X119949765Y-91368835D01*
X119949761Y-91368838D01*
X119824338Y-91494261D01*
X119824335Y-91494265D01*
X119725790Y-91641746D01*
X119725783Y-91641759D01*
X119657906Y-91805632D01*
X119657903Y-91805641D01*
X119623300Y-91979604D01*
X119623300Y-92156995D01*
X119657903Y-92330958D01*
X119657906Y-92330967D01*
X119725783Y-92494840D01*
X119725790Y-92494853D01*
X119824335Y-92642334D01*
X119824338Y-92642338D01*
X119861980Y-92679979D01*
X119895466Y-92741301D01*
X119898300Y-92767661D01*
X119898300Y-93825747D01*
X119878615Y-93892786D01*
X119861981Y-93913428D01*
X114062181Y-99713228D01*
X114000858Y-99746713D01*
X113931166Y-99741729D01*
X113875233Y-99699857D01*
X113850816Y-99634393D01*
X113850500Y-99625547D01*
X113850500Y-99513713D01*
X113817246Y-99303760D01*
X113817246Y-99303757D01*
X113751557Y-99101588D01*
X113655051Y-98912184D01*
X113655049Y-98912181D01*
X113655048Y-98912179D01*
X113530109Y-98740213D01*
X113379786Y-98589890D01*
X113207820Y-98464951D01*
X113207115Y-98464591D01*
X113199054Y-98460485D01*
X113148259Y-98412512D01*
X113131463Y-98344692D01*
X113153999Y-98278556D01*
X113199054Y-98239515D01*
X113207816Y-98235051D01*
X113258064Y-98198544D01*
X113379786Y-98110109D01*
X113379788Y-98110106D01*
X113379792Y-98110104D01*
X113530104Y-97959792D01*
X113530106Y-97959788D01*
X113530109Y-97959786D01*
X113655048Y-97787820D01*
X113655047Y-97787820D01*
X113655051Y-97787816D01*
X113751557Y-97598412D01*
X113817246Y-97396243D01*
X113850500Y-97186287D01*
X113850500Y-96973713D01*
X113817246Y-96763757D01*
X113751557Y-96561588D01*
X113655051Y-96372184D01*
X113655049Y-96372181D01*
X113655048Y-96372179D01*
X113530109Y-96200213D01*
X113379786Y-96049890D01*
X113207820Y-95924951D01*
X113207115Y-95924591D01*
X113199054Y-95920485D01*
X113148259Y-95872512D01*
X113131463Y-95804692D01*
X113153999Y-95738556D01*
X113199054Y-95699515D01*
X113207816Y-95695051D01*
X113291231Y-95634447D01*
X113379786Y-95570109D01*
X113379788Y-95570106D01*
X113379792Y-95570104D01*
X113530104Y-95419792D01*
X113530106Y-95419788D01*
X113530109Y-95419786D01*
X113655048Y-95247820D01*
X113655047Y-95247820D01*
X113655051Y-95247816D01*
X113751557Y-95058412D01*
X113817246Y-94856243D01*
X113850500Y-94646287D01*
X113850500Y-94433713D01*
X113817246Y-94223757D01*
X113751557Y-94021588D01*
X113655051Y-93832184D01*
X113655049Y-93832181D01*
X113655048Y-93832179D01*
X113530109Y-93660213D01*
X113416569Y-93546673D01*
X113383084Y-93485350D01*
X113388068Y-93415658D01*
X113429940Y-93359725D01*
X113460915Y-93342810D01*
X113592331Y-93293796D01*
X113707546Y-93207546D01*
X113793796Y-93092331D01*
X113844091Y-92957483D01*
X113850500Y-92897873D01*
X113850499Y-91102128D01*
X113844091Y-91042517D01*
X113837086Y-91023736D01*
X113793797Y-90907671D01*
X113793793Y-90907664D01*
X113707547Y-90792455D01*
X113707544Y-90792452D01*
X113592335Y-90706206D01*
X113592328Y-90706202D01*
X113457482Y-90655908D01*
X113457483Y-90655908D01*
X113397883Y-90649501D01*
X113397881Y-90649500D01*
X113397873Y-90649500D01*
X113397864Y-90649500D01*
X111602129Y-90649500D01*
X111602123Y-90649501D01*
X111542516Y-90655908D01*
X111407671Y-90706202D01*
X111407664Y-90706206D01*
X111292455Y-90792452D01*
X111292452Y-90792455D01*
X111206206Y-90907664D01*
X111206202Y-90907671D01*
X111155908Y-91042517D01*
X111149501Y-91102116D01*
X111149501Y-91102123D01*
X111149500Y-91102135D01*
X111149500Y-92897870D01*
X111149501Y-92897876D01*
X111155908Y-92957483D01*
X111206202Y-93092328D01*
X111206206Y-93092335D01*
X111292452Y-93207544D01*
X111292455Y-93207547D01*
X111407664Y-93293793D01*
X111407671Y-93293797D01*
X111539082Y-93342810D01*
X111595016Y-93384681D01*
X111619433Y-93450145D01*
X111604582Y-93518418D01*
X111583431Y-93546673D01*
X111469889Y-93660215D01*
X111344951Y-93832179D01*
X111248444Y-94021585D01*
X111182753Y-94223760D01*
X111149500Y-94433713D01*
X111149500Y-94646286D01*
X111181324Y-94847219D01*
X111182754Y-94856243D01*
X111240819Y-95034949D01*
X111248444Y-95058414D01*
X111344951Y-95247820D01*
X111469890Y-95419786D01*
X111620213Y-95570109D01*
X111792182Y-95695050D01*
X111800946Y-95699516D01*
X111851742Y-95747491D01*
X111868536Y-95815312D01*
X111845998Y-95881447D01*
X111800946Y-95920484D01*
X111792182Y-95924949D01*
X111620213Y-96049890D01*
X111469890Y-96200213D01*
X111344951Y-96372179D01*
X111248444Y-96561585D01*
X111182753Y-96763760D01*
X111149500Y-96973713D01*
X111149500Y-97186286D01*
X111168105Y-97303757D01*
X111182754Y-97396243D01*
X111240819Y-97574949D01*
X111248444Y-97598414D01*
X111344951Y-97787820D01*
X111469890Y-97959786D01*
X111620213Y-98110109D01*
X111792182Y-98235050D01*
X111800946Y-98239516D01*
X111851742Y-98287491D01*
X111868536Y-98355312D01*
X111845998Y-98421447D01*
X111800946Y-98460484D01*
X111792182Y-98464949D01*
X111620213Y-98589890D01*
X111469890Y-98740213D01*
X111344951Y-98912179D01*
X111248444Y-99101585D01*
X111182753Y-99303760D01*
X111161521Y-99437816D01*
X111149500Y-99513713D01*
X111149500Y-99726287D01*
X111182754Y-99936243D01*
X111241132Y-100115912D01*
X111248444Y-100138414D01*
X111344951Y-100327820D01*
X111469890Y-100499786D01*
X111620213Y-100650109D01*
X111792182Y-100775050D01*
X111800946Y-100779516D01*
X111851742Y-100827491D01*
X111868536Y-100895312D01*
X111845998Y-100961447D01*
X111800946Y-101000484D01*
X111792182Y-101004949D01*
X111620213Y-101129890D01*
X111469890Y-101280213D01*
X111344951Y-101452179D01*
X111248444Y-101641585D01*
X111182753Y-101843760D01*
X111149500Y-102053713D01*
X111149500Y-102266286D01*
X111179472Y-102455526D01*
X111182754Y-102476243D01*
X111241432Y-102656836D01*
X111248444Y-102678414D01*
X111344951Y-102867820D01*
X111469890Y-103039786D01*
X111620213Y-103190109D01*
X111792179Y-103315048D01*
X111792181Y-103315049D01*
X111792184Y-103315051D01*
X111981588Y-103411557D01*
X112183757Y-103477246D01*
X112393713Y-103510500D01*
X112393714Y-103510500D01*
X112606286Y-103510500D01*
X112606287Y-103510500D01*
X112816243Y-103477246D01*
X113018412Y-103411557D01*
X113207816Y-103315051D01*
X113247123Y-103286493D01*
X113379786Y-103190109D01*
X113379788Y-103190106D01*
X113379792Y-103190104D01*
X113530104Y-103039792D01*
X113530106Y-103039788D01*
X113530109Y-103039786D01*
X113655048Y-102867820D01*
X113655047Y-102867820D01*
X113655051Y-102867816D01*
X113751557Y-102678412D01*
X113817246Y-102476243D01*
X113850500Y-102266287D01*
X113850500Y-102102135D01*
X117149500Y-102102135D01*
X117149500Y-103897870D01*
X117149501Y-103897876D01*
X117155908Y-103957483D01*
X117206202Y-104092328D01*
X117206206Y-104092335D01*
X117292452Y-104207544D01*
X117292455Y-104207547D01*
X117407664Y-104293793D01*
X117407671Y-104293797D01*
X117539082Y-104342810D01*
X117595016Y-104384681D01*
X117619433Y-104450145D01*
X117604582Y-104518418D01*
X117583431Y-104546673D01*
X117469889Y-104660215D01*
X117344951Y-104832179D01*
X117248444Y-105021585D01*
X117182753Y-105223760D01*
X117149500Y-105433713D01*
X117149500Y-105646286D01*
X117178848Y-105831585D01*
X117182754Y-105856243D01*
X117214454Y-105953806D01*
X117248444Y-106058414D01*
X117344951Y-106247820D01*
X117469890Y-106419786D01*
X117620213Y-106570109D01*
X117792179Y-106695048D01*
X117792181Y-106695049D01*
X117792184Y-106695051D01*
X117981588Y-106791557D01*
X118183757Y-106857246D01*
X118393713Y-106890500D01*
X118393714Y-106890500D01*
X118606286Y-106890500D01*
X118606287Y-106890500D01*
X118816243Y-106857246D01*
X119018412Y-106791557D01*
X119207816Y-106695051D01*
X119247473Y-106666239D01*
X119379786Y-106570109D01*
X119379788Y-106570106D01*
X119379792Y-106570104D01*
X119530104Y-106419792D01*
X119530106Y-106419788D01*
X119530109Y-106419786D01*
X119655048Y-106247820D01*
X119655047Y-106247820D01*
X119655051Y-106247816D01*
X119751557Y-106058412D01*
X119817246Y-105856243D01*
X119850500Y-105646287D01*
X119850500Y-105433713D01*
X119817246Y-105223757D01*
X119751557Y-105021588D01*
X119655051Y-104832184D01*
X119655049Y-104832181D01*
X119655048Y-104832179D01*
X119530109Y-104660213D01*
X119416569Y-104546673D01*
X119383084Y-104485350D01*
X119388068Y-104415658D01*
X119429940Y-104359725D01*
X119460915Y-104342810D01*
X119592331Y-104293796D01*
X119707546Y-104207546D01*
X119793796Y-104092331D01*
X119844091Y-103957483D01*
X119850500Y-103897873D01*
X119850499Y-102102128D01*
X119844091Y-102042517D01*
X119834758Y-102017495D01*
X119793797Y-101907671D01*
X119793793Y-101907664D01*
X119707547Y-101792455D01*
X119707544Y-101792452D01*
X119592335Y-101706206D01*
X119592328Y-101706202D01*
X119457482Y-101655908D01*
X119457483Y-101655908D01*
X119397883Y-101649501D01*
X119397881Y-101649500D01*
X119397873Y-101649500D01*
X119397864Y-101649500D01*
X117602129Y-101649500D01*
X117602123Y-101649501D01*
X117542516Y-101655908D01*
X117407671Y-101706202D01*
X117407664Y-101706206D01*
X117292455Y-101792452D01*
X117292452Y-101792455D01*
X117206206Y-101907664D01*
X117206202Y-101907671D01*
X117155908Y-102042517D01*
X117150029Y-102097203D01*
X117149501Y-102102123D01*
X117149500Y-102102135D01*
X113850500Y-102102135D01*
X113850500Y-102053713D01*
X113817246Y-101843757D01*
X113812179Y-101828162D01*
X113810182Y-101758321D01*
X113842426Y-101702162D01*
X120610421Y-94934168D01*
X120629855Y-94923557D01*
X120646589Y-94909057D01*
X120659920Y-94907140D01*
X120671742Y-94900685D01*
X120693828Y-94902264D01*
X120715747Y-94899113D01*
X120727998Y-94904708D01*
X120741434Y-94905669D01*
X120759160Y-94918939D01*
X120779303Y-94928138D01*
X120786585Y-94939469D01*
X120797367Y-94947541D01*
X120805104Y-94968286D01*
X120817077Y-94986916D01*
X120820228Y-95008834D01*
X120821784Y-95013005D01*
X120822100Y-95021851D01*
X120822100Y-95129838D01*
X120802415Y-95196877D01*
X120785781Y-95217519D01*
X120748138Y-95255161D01*
X120748135Y-95255165D01*
X120649590Y-95402646D01*
X120649583Y-95402659D01*
X120581706Y-95566532D01*
X120581703Y-95566541D01*
X120547100Y-95740504D01*
X120547100Y-95917895D01*
X120581703Y-96091858D01*
X120581706Y-96091867D01*
X120649583Y-96255740D01*
X120649590Y-96255753D01*
X120748135Y-96403234D01*
X120748138Y-96403238D01*
X120873561Y-96528661D01*
X120873565Y-96528664D01*
X121021046Y-96627209D01*
X121021059Y-96627216D01*
X121102526Y-96660960D01*
X121184934Y-96695094D01*
X121184936Y-96695094D01*
X121184941Y-96695096D01*
X121358904Y-96729699D01*
X121358907Y-96729700D01*
X121358909Y-96729700D01*
X121536293Y-96729700D01*
X121536294Y-96729699D01*
X121594282Y-96718164D01*
X121710258Y-96695096D01*
X121710261Y-96695094D01*
X121710266Y-96695094D01*
X121874147Y-96627213D01*
X122021635Y-96528664D01*
X122147064Y-96403235D01*
X122245613Y-96255747D01*
X122313494Y-96091866D01*
X122315430Y-96082136D01*
X122339765Y-95959792D01*
X122348100Y-95917891D01*
X122348100Y-95740509D01*
X122348100Y-95740506D01*
X122348099Y-95740504D01*
X122313496Y-95566541D01*
X122313493Y-95566532D01*
X122245616Y-95402659D01*
X122245609Y-95402646D01*
X122147064Y-95255165D01*
X122147061Y-95255161D01*
X122109419Y-95217519D01*
X122075934Y-95156196D01*
X122073100Y-95129838D01*
X122073100Y-89102135D01*
X129649500Y-89102135D01*
X129649500Y-90897870D01*
X129649501Y-90897876D01*
X129655908Y-90957483D01*
X129706202Y-91092328D01*
X129706206Y-91092335D01*
X129792452Y-91207544D01*
X129792455Y-91207547D01*
X129907664Y-91293793D01*
X129907671Y-91293797D01*
X130042517Y-91344091D01*
X130042516Y-91344091D01*
X130049444Y-91344835D01*
X130102127Y-91350500D01*
X131897872Y-91350499D01*
X131957483Y-91344091D01*
X132092331Y-91293796D01*
X132207546Y-91207546D01*
X132293796Y-91092331D01*
X132344091Y-90957483D01*
X132350500Y-90897873D01*
X132350500Y-90749500D01*
X132370185Y-90682461D01*
X132422989Y-90636706D01*
X132474500Y-90625500D01*
X136165700Y-90625500D01*
X136232739Y-90645185D01*
X136278494Y-90697989D01*
X136289700Y-90749500D01*
X136289700Y-92056809D01*
X136292731Y-92072051D01*
X136292732Y-92072051D01*
X136313530Y-92176613D01*
X136313536Y-92176644D01*
X136313535Y-92176644D01*
X136313735Y-92177646D01*
X136313737Y-92177654D01*
X136360885Y-92291481D01*
X136360888Y-92291486D01*
X136378868Y-92318394D01*
X136429342Y-92393933D01*
X136516467Y-92481058D01*
X136516469Y-92481059D01*
X136527110Y-92491700D01*
X137227571Y-93192162D01*
X137261056Y-93253485D01*
X137257821Y-93318160D01*
X137252754Y-93333753D01*
X137226300Y-93500781D01*
X137219500Y-93543713D01*
X137219500Y-93756287D01*
X137229534Y-93819644D01*
X137252029Y-93961669D01*
X137252754Y-93966243D01*
X137296978Y-94102351D01*
X137318444Y-94168414D01*
X137414951Y-94357820D01*
X137539890Y-94529786D01*
X137690213Y-94680109D01*
X137862182Y-94805050D01*
X137870946Y-94809516D01*
X137921742Y-94857491D01*
X137938536Y-94925312D01*
X137915998Y-94991447D01*
X137870946Y-95030484D01*
X137862182Y-95034949D01*
X137690213Y-95159890D01*
X137539890Y-95310213D01*
X137414951Y-95482179D01*
X137318444Y-95671585D01*
X137252753Y-95873760D01*
X137235358Y-95983590D01*
X137219500Y-96083713D01*
X137219500Y-96296287D01*
X137228007Y-96350000D01*
X137246213Y-96464949D01*
X137252754Y-96506243D01*
X137314116Y-96695096D01*
X137318444Y-96708414D01*
X137414951Y-96897820D01*
X137539890Y-97069786D01*
X137690213Y-97220109D01*
X137862182Y-97345050D01*
X137870946Y-97349516D01*
X137921742Y-97397491D01*
X137938536Y-97465312D01*
X137915998Y-97531447D01*
X137870946Y-97570484D01*
X137862182Y-97574949D01*
X137690213Y-97699890D01*
X137539890Y-97850213D01*
X137414951Y-98022180D01*
X137366977Y-98116334D01*
X137319002Y-98167130D01*
X137251181Y-98183925D01*
X137185046Y-98161387D01*
X137168811Y-98147720D01*
X136814419Y-97793328D01*
X136780934Y-97732005D01*
X136778100Y-97705647D01*
X136778100Y-95907261D01*
X136797785Y-95840222D01*
X136814420Y-95819579D01*
X136852061Y-95781938D01*
X136852064Y-95781935D01*
X136950613Y-95634447D01*
X137018494Y-95470566D01*
X137030177Y-95411835D01*
X137053099Y-95296595D01*
X137053100Y-95296593D01*
X137053100Y-95119206D01*
X137053099Y-95119204D01*
X137018496Y-94945241D01*
X137018493Y-94945232D01*
X136950616Y-94781359D01*
X136950609Y-94781346D01*
X136852064Y-94633865D01*
X136852061Y-94633861D01*
X136726638Y-94508438D01*
X136726634Y-94508435D01*
X136579153Y-94409890D01*
X136579140Y-94409883D01*
X136415267Y-94342006D01*
X136415258Y-94342003D01*
X136241294Y-94307400D01*
X136241291Y-94307400D01*
X136063909Y-94307400D01*
X136063906Y-94307400D01*
X135889941Y-94342003D01*
X135889932Y-94342006D01*
X135726059Y-94409883D01*
X135726046Y-94409890D01*
X135578565Y-94508435D01*
X135578561Y-94508438D01*
X135453138Y-94633861D01*
X135453135Y-94633865D01*
X135354590Y-94781346D01*
X135354583Y-94781359D01*
X135286706Y-94945232D01*
X135286703Y-94945241D01*
X135252100Y-95119204D01*
X135252100Y-95296595D01*
X135286703Y-95470558D01*
X135286706Y-95470567D01*
X135354583Y-95634440D01*
X135354590Y-95634453D01*
X135453135Y-95781934D01*
X135453138Y-95781938D01*
X135490780Y-95819579D01*
X135524266Y-95880901D01*
X135527100Y-95907261D01*
X135527100Y-98077711D01*
X135551135Y-98198544D01*
X135551140Y-98198561D01*
X135598285Y-98312381D01*
X135598290Y-98312390D01*
X135611098Y-98331557D01*
X135618856Y-98343167D01*
X135666742Y-98414833D01*
X135753867Y-98501958D01*
X135753869Y-98501959D01*
X135764419Y-98512509D01*
X137508024Y-100256115D01*
X137541509Y-100317438D01*
X137536525Y-100387130D01*
X137520662Y-100416680D01*
X137480015Y-100472627D01*
X137424685Y-100515294D01*
X137355072Y-100521273D01*
X137293277Y-100488668D01*
X137292015Y-100487424D01*
X132342428Y-95537837D01*
X132308943Y-95476514D01*
X132312178Y-95411837D01*
X132317246Y-95396243D01*
X132350500Y-95186287D01*
X132350500Y-94973713D01*
X132317246Y-94763757D01*
X132251557Y-94561588D01*
X132155051Y-94372184D01*
X132155049Y-94372181D01*
X132155048Y-94372179D01*
X132030109Y-94200213D01*
X131879786Y-94049890D01*
X131707820Y-93924951D01*
X131518414Y-93828444D01*
X131518413Y-93828443D01*
X131518412Y-93828443D01*
X131316243Y-93762754D01*
X131316241Y-93762753D01*
X131316240Y-93762753D01*
X131154957Y-93737208D01*
X131106287Y-93729500D01*
X130893713Y-93729500D01*
X130845042Y-93737208D01*
X130683760Y-93762753D01*
X130481585Y-93828444D01*
X130292179Y-93924951D01*
X130120213Y-94049890D01*
X129969890Y-94200213D01*
X129844951Y-94372179D01*
X129748444Y-94561585D01*
X129748443Y-94561587D01*
X129748443Y-94561588D01*
X129720601Y-94647276D01*
X129682753Y-94763760D01*
X129653645Y-94947541D01*
X129649500Y-94973713D01*
X129649500Y-95186287D01*
X129652499Y-95205220D01*
X129682276Y-95393229D01*
X129682754Y-95396243D01*
X129738087Y-95566541D01*
X129748444Y-95598414D01*
X129844951Y-95787820D01*
X129969890Y-95959786D01*
X130120213Y-96110109D01*
X130292182Y-96235050D01*
X130300946Y-96239516D01*
X130351742Y-96287491D01*
X130368536Y-96355312D01*
X130345998Y-96421447D01*
X130300946Y-96460484D01*
X130292182Y-96464949D01*
X130120213Y-96589890D01*
X129969890Y-96740213D01*
X129844951Y-96912179D01*
X129748444Y-97101585D01*
X129748443Y-97101587D01*
X129748443Y-97101588D01*
X129720601Y-97187276D01*
X129682753Y-97303760D01*
X129649500Y-97513713D01*
X129649500Y-97726286D01*
X129670082Y-97856239D01*
X129682754Y-97936243D01*
X129741269Y-98116334D01*
X129748444Y-98138414D01*
X129844951Y-98327820D01*
X129969890Y-98499786D01*
X130120213Y-98650109D01*
X130292179Y-98775048D01*
X130292181Y-98775049D01*
X130292184Y-98775051D01*
X130481588Y-98871557D01*
X130683757Y-98937246D01*
X130893713Y-98970500D01*
X130893714Y-98970500D01*
X131106286Y-98970500D01*
X131106287Y-98970500D01*
X131316243Y-98937246D01*
X131518412Y-98871557D01*
X131707816Y-98775051D01*
X131755774Y-98740208D01*
X131879786Y-98650109D01*
X131879788Y-98650106D01*
X131879792Y-98650104D01*
X132030104Y-98499792D01*
X132030106Y-98499788D01*
X132030109Y-98499786D01*
X132155048Y-98327820D01*
X132155047Y-98327820D01*
X132155051Y-98327816D01*
X132251557Y-98138412D01*
X132317246Y-97936243D01*
X132350500Y-97726287D01*
X132350500Y-97614452D01*
X132370185Y-97547413D01*
X132422989Y-97501658D01*
X132492147Y-97491714D01*
X132555703Y-97520739D01*
X132562181Y-97526771D01*
X136356281Y-101320871D01*
X136389766Y-101382194D01*
X136392600Y-101408552D01*
X136392600Y-102319708D01*
X136395026Y-102331908D01*
X136416635Y-102440545D01*
X136416636Y-102440550D01*
X136416637Y-102440552D01*
X136424284Y-102459014D01*
X136463788Y-102554386D01*
X136485745Y-102587246D01*
X136490429Y-102594256D01*
X136490430Y-102594258D01*
X136532241Y-102656832D01*
X136532244Y-102656836D01*
X136623686Y-102748278D01*
X136623708Y-102748298D01*
X137227571Y-103352161D01*
X137261056Y-103413484D01*
X137257822Y-103478158D01*
X137252753Y-103493757D01*
X137229560Y-103640194D01*
X137219500Y-103703713D01*
X137219500Y-103916287D01*
X137252754Y-104126243D01*
X137296730Y-104261588D01*
X137318444Y-104328414D01*
X137414951Y-104517820D01*
X137539890Y-104689786D01*
X137690213Y-104840109D01*
X137862182Y-104965050D01*
X137870946Y-104969516D01*
X137921742Y-105017491D01*
X137938536Y-105085312D01*
X137915998Y-105151447D01*
X137870946Y-105190484D01*
X137862182Y-105194949D01*
X137690213Y-105319890D01*
X137539890Y-105470213D01*
X137414951Y-105642179D01*
X137318444Y-105831585D01*
X137252753Y-106033760D01*
X137224857Y-106209890D01*
X137219500Y-106243713D01*
X137219500Y-106456287D01*
X137252754Y-106666243D01*
X137296730Y-106801588D01*
X137318444Y-106868414D01*
X137414951Y-107057820D01*
X137539890Y-107229786D01*
X137690213Y-107380109D01*
X137862182Y-107505050D01*
X137870946Y-107509516D01*
X137921742Y-107557491D01*
X137938536Y-107625312D01*
X137915998Y-107691447D01*
X137870946Y-107730484D01*
X137862182Y-107734949D01*
X137690213Y-107859890D01*
X137539890Y-108010213D01*
X137414951Y-108182179D01*
X137318444Y-108371585D01*
X137252753Y-108573760D01*
X137219500Y-108783713D01*
X137219500Y-108996286D01*
X137236279Y-109102228D01*
X137252754Y-109206243D01*
X137296730Y-109341588D01*
X137318444Y-109408414D01*
X137414948Y-109597815D01*
X137495539Y-109708740D01*
X137519018Y-109774547D01*
X137503192Y-109842601D01*
X137482901Y-109869306D01*
X135877565Y-111474643D01*
X135816242Y-111508128D01*
X135814077Y-111508579D01*
X135781090Y-111515140D01*
X135781084Y-111515142D01*
X135644511Y-111571712D01*
X135644498Y-111571719D01*
X135521584Y-111653848D01*
X135521580Y-111653851D01*
X135417051Y-111758380D01*
X135417048Y-111758384D01*
X135334919Y-111881298D01*
X135334912Y-111881311D01*
X135278343Y-112017882D01*
X135278340Y-112017892D01*
X135249500Y-112162879D01*
X135249500Y-131636267D01*
X135229815Y-131703306D01*
X135177011Y-131749061D01*
X135164506Y-131753972D01*
X135130671Y-131765184D01*
X135130663Y-131765187D01*
X134981342Y-131857289D01*
X134857289Y-131981342D01*
X134765187Y-132130663D01*
X134765186Y-132130666D01*
X134710001Y-132297203D01*
X134710001Y-132297204D01*
X134710000Y-132297204D01*
X134699500Y-132399983D01*
X134699500Y-133600001D01*
X134699501Y-133600018D01*
X134710000Y-133702796D01*
X134710001Y-133702799D01*
X134754396Y-133836773D01*
X134765186Y-133869334D01*
X134857288Y-134018656D01*
X134981344Y-134142712D01*
X135130666Y-134234814D01*
X135297203Y-134289999D01*
X135399991Y-134300500D01*
X136600008Y-134300499D01*
X136702797Y-134289999D01*
X136869334Y-134234814D01*
X137018656Y-134142712D01*
X137142712Y-134018656D01*
X137234814Y-133869334D01*
X137289999Y-133702797D01*
X137300500Y-133600009D01*
X137300499Y-132399992D01*
X137289999Y-132297203D01*
X137234814Y-132130666D01*
X137142712Y-131981344D01*
X137018656Y-131857288D01*
X136869334Y-131765186D01*
X136869328Y-131765184D01*
X136835494Y-131753972D01*
X136778050Y-131714199D01*
X136751228Y-131649683D01*
X136750500Y-131636267D01*
X136750500Y-119881902D01*
X137499500Y-119881902D01*
X137499500Y-120118097D01*
X137536446Y-120351368D01*
X137609433Y-120575996D01*
X137685767Y-120725808D01*
X137716657Y-120786433D01*
X137855483Y-120977510D01*
X138022490Y-121144517D01*
X138213567Y-121283343D01*
X138240769Y-121297203D01*
X138424003Y-121390566D01*
X138424005Y-121390566D01*
X138424008Y-121390568D01*
X138544412Y-121429689D01*
X138648631Y-121463553D01*
X138881903Y-121500500D01*
X138881908Y-121500500D01*
X139118097Y-121500500D01*
X139351368Y-121463553D01*
X139360813Y-121460484D01*
X139575992Y-121390568D01*
X139786433Y-121283343D01*
X139977510Y-121144517D01*
X140144517Y-120977510D01*
X140283343Y-120786433D01*
X140390568Y-120575992D01*
X140463553Y-120351368D01*
X140467853Y-120324220D01*
X140500500Y-120118097D01*
X140500500Y-119881902D01*
X143999500Y-119881902D01*
X143999500Y-120118097D01*
X144036446Y-120351368D01*
X144109433Y-120575996D01*
X144185767Y-120725808D01*
X144216657Y-120786433D01*
X144355483Y-120977510D01*
X144522490Y-121144517D01*
X144713567Y-121283343D01*
X144740769Y-121297203D01*
X144924003Y-121390566D01*
X144924005Y-121390566D01*
X144924008Y-121390568D01*
X145044412Y-121429689D01*
X145148631Y-121463553D01*
X145381903Y-121500500D01*
X145381908Y-121500500D01*
X145618097Y-121500500D01*
X145851368Y-121463553D01*
X145860813Y-121460484D01*
X146075992Y-121390568D01*
X146286433Y-121283343D01*
X146477510Y-121144517D01*
X146644517Y-120977510D01*
X146783343Y-120786433D01*
X146890568Y-120575992D01*
X146963553Y-120351368D01*
X146967853Y-120324220D01*
X147000500Y-120118097D01*
X147000500Y-119881902D01*
X146963553Y-119648631D01*
X146918706Y-119510609D01*
X146890568Y-119424008D01*
X146890566Y-119424005D01*
X146890566Y-119424003D01*
X146834002Y-119312991D01*
X146783343Y-119213567D01*
X146644517Y-119022490D01*
X146477510Y-118855483D01*
X146286433Y-118716657D01*
X146244027Y-118695050D01*
X146075996Y-118609433D01*
X145851368Y-118536446D01*
X145618097Y-118499500D01*
X145618092Y-118499500D01*
X145381908Y-118499500D01*
X145381903Y-118499500D01*
X145148631Y-118536446D01*
X144924003Y-118609433D01*
X144713566Y-118716657D01*
X144610476Y-118791557D01*
X144522490Y-118855483D01*
X144522488Y-118855485D01*
X144522487Y-118855485D01*
X144355485Y-119022487D01*
X144355485Y-119022488D01*
X144355483Y-119022490D01*
X144295862Y-119104550D01*
X144216657Y-119213566D01*
X144109433Y-119424003D01*
X144036446Y-119648631D01*
X143999500Y-119881902D01*
X140500500Y-119881902D01*
X140463553Y-119648631D01*
X140418706Y-119510609D01*
X140390568Y-119424008D01*
X140390566Y-119424005D01*
X140390566Y-119424003D01*
X140334002Y-119312991D01*
X140283343Y-119213567D01*
X140144517Y-119022490D01*
X139977510Y-118855483D01*
X139786433Y-118716657D01*
X139744027Y-118695050D01*
X139575996Y-118609433D01*
X139351368Y-118536446D01*
X139118097Y-118499500D01*
X139118092Y-118499500D01*
X138881908Y-118499500D01*
X138881903Y-118499500D01*
X138648631Y-118536446D01*
X138424003Y-118609433D01*
X138213566Y-118716657D01*
X138110476Y-118791557D01*
X138022490Y-118855483D01*
X138022488Y-118855485D01*
X138022487Y-118855485D01*
X137855485Y-119022487D01*
X137855485Y-119022488D01*
X137855483Y-119022490D01*
X137795862Y-119104550D01*
X137716657Y-119213566D01*
X137609433Y-119424003D01*
X137536446Y-119648631D01*
X137499500Y-119881902D01*
X136750500Y-119881902D01*
X136750500Y-112422251D01*
X136770185Y-112355212D01*
X136786815Y-112334574D01*
X137148661Y-111972727D01*
X137209982Y-111939244D01*
X137279673Y-111944228D01*
X137335607Y-111986099D01*
X137346825Y-112004115D01*
X137414951Y-112137820D01*
X137539890Y-112309786D01*
X137690213Y-112460109D01*
X137862179Y-112585048D01*
X137862181Y-112585049D01*
X137862184Y-112585051D01*
X138051588Y-112681557D01*
X138253757Y-112747246D01*
X138463713Y-112780500D01*
X138463714Y-112780500D01*
X138676286Y-112780500D01*
X138676287Y-112780500D01*
X138886243Y-112747246D01*
X139088412Y-112681557D01*
X139277816Y-112585051D01*
X139299789Y-112569086D01*
X139449786Y-112460109D01*
X139449788Y-112460106D01*
X139449792Y-112460104D01*
X139600104Y-112309792D01*
X139600106Y-112309788D01*
X139600109Y-112309786D01*
X139725048Y-112137820D01*
X139725047Y-112137820D01*
X139725051Y-112137816D01*
X139821557Y-111948412D01*
X139887246Y-111746243D01*
X139920500Y-111536287D01*
X139920500Y-111323713D01*
X139887246Y-111113757D01*
X139882179Y-111098162D01*
X139880182Y-111028321D01*
X139912426Y-110972162D01*
X147968619Y-102915970D01*
X148029942Y-102882485D01*
X148099634Y-102887469D01*
X148155567Y-102929341D01*
X148179984Y-102994805D01*
X148180300Y-103003651D01*
X148180300Y-119393448D01*
X148160615Y-119460487D01*
X148159404Y-119462337D01*
X148140717Y-119490304D01*
X148140714Y-119490309D01*
X148084142Y-119626887D01*
X148084140Y-119626893D01*
X148055300Y-119771880D01*
X148055300Y-119771883D01*
X148055300Y-119919717D01*
X148055300Y-119919719D01*
X148055299Y-119919719D01*
X148084140Y-120064706D01*
X148084142Y-120064712D01*
X148123699Y-120160213D01*
X148140716Y-120201294D01*
X148222848Y-120324216D01*
X148222852Y-120324220D01*
X148222852Y-120324221D01*
X148629824Y-120731192D01*
X148663309Y-120792515D01*
X148664616Y-120838271D01*
X148649500Y-120933707D01*
X148649500Y-121146286D01*
X148682606Y-121355312D01*
X148682754Y-121356243D01*
X148717621Y-121463553D01*
X148748444Y-121558414D01*
X148844951Y-121747820D01*
X148969890Y-121919786D01*
X149120213Y-122070109D01*
X149292179Y-122195048D01*
X149292181Y-122195049D01*
X149292184Y-122195051D01*
X149481588Y-122291557D01*
X149683757Y-122357246D01*
X149893713Y-122390500D01*
X149893714Y-122390500D01*
X150106286Y-122390500D01*
X150106287Y-122390500D01*
X150316243Y-122357246D01*
X150518412Y-122291557D01*
X150707816Y-122195051D01*
X150836462Y-122101585D01*
X150879786Y-122070109D01*
X150879788Y-122070106D01*
X150879792Y-122070104D01*
X151030104Y-121919792D01*
X151030106Y-121919788D01*
X151030109Y-121919786D01*
X151155048Y-121747820D01*
X151155047Y-121747820D01*
X151155051Y-121747816D01*
X151251557Y-121558412D01*
X151317246Y-121356243D01*
X151350500Y-121146287D01*
X151350500Y-120933713D01*
X151317246Y-120723757D01*
X151251557Y-120521588D01*
X151155051Y-120332184D01*
X151155049Y-120332181D01*
X151155048Y-120332179D01*
X151030109Y-120160213D01*
X150916569Y-120046673D01*
X150883084Y-119985350D01*
X150888068Y-119915658D01*
X150929940Y-119859725D01*
X150960915Y-119842810D01*
X151092331Y-119793796D01*
X151207546Y-119707546D01*
X151293796Y-119592331D01*
X151344091Y-119457483D01*
X151350500Y-119397873D01*
X151350499Y-118102135D01*
X154149500Y-118102135D01*
X154149500Y-119897870D01*
X154149501Y-119897876D01*
X154155908Y-119957483D01*
X154206202Y-120092328D01*
X154206206Y-120092335D01*
X154292452Y-120207544D01*
X154292455Y-120207547D01*
X154407664Y-120293793D01*
X154407671Y-120293797D01*
X154542517Y-120344091D01*
X154542516Y-120344091D01*
X154549444Y-120344835D01*
X154602127Y-120350500D01*
X156397872Y-120350499D01*
X156457483Y-120344091D01*
X156592331Y-120293796D01*
X156707546Y-120207546D01*
X156793796Y-120092331D01*
X156844091Y-119957483D01*
X156850500Y-119897873D01*
X156850499Y-118102128D01*
X156844091Y-118042517D01*
X156793796Y-117907669D01*
X156793795Y-117907668D01*
X156793793Y-117907664D01*
X156707547Y-117792455D01*
X156707544Y-117792452D01*
X156592335Y-117706206D01*
X156592328Y-117706202D01*
X156457482Y-117655908D01*
X156457483Y-117655908D01*
X156397883Y-117649501D01*
X156397881Y-117649500D01*
X156397873Y-117649500D01*
X156397864Y-117649500D01*
X154602129Y-117649500D01*
X154602123Y-117649501D01*
X154542516Y-117655908D01*
X154407671Y-117706202D01*
X154407664Y-117706206D01*
X154292455Y-117792452D01*
X154292452Y-117792455D01*
X154206206Y-117907664D01*
X154206202Y-117907671D01*
X154155908Y-118042517D01*
X154151849Y-118080277D01*
X154149501Y-118102123D01*
X154149500Y-118102135D01*
X151350499Y-118102135D01*
X151350499Y-117602128D01*
X151344091Y-117542517D01*
X151341965Y-117536818D01*
X151293797Y-117407671D01*
X151293793Y-117407664D01*
X151207547Y-117292455D01*
X151207544Y-117292452D01*
X151092335Y-117206206D01*
X151092328Y-117206202D01*
X150957482Y-117155908D01*
X150957483Y-117155908D01*
X150897883Y-117149501D01*
X150897881Y-117149500D01*
X150897873Y-117149500D01*
X150897865Y-117149500D01*
X149555300Y-117149500D01*
X149488261Y-117129815D01*
X149442506Y-117077011D01*
X149431300Y-117025500D01*
X149431300Y-103166651D01*
X149450985Y-103099612D01*
X149467615Y-103078974D01*
X150122434Y-102424154D01*
X150183755Y-102390671D01*
X150185846Y-102390235D01*
X150218913Y-102383658D01*
X150333176Y-102336328D01*
X150355488Y-102327087D01*
X150355488Y-102327086D01*
X150355495Y-102327084D01*
X150478416Y-102244951D01*
X150582951Y-102140416D01*
X150665084Y-102017495D01*
X150670140Y-102005290D01*
X150701049Y-101930668D01*
X150721658Y-101880913D01*
X150739254Y-101792454D01*
X150750500Y-101735920D01*
X150750500Y-91289904D01*
X158001400Y-91289904D01*
X158001400Y-91467295D01*
X158036003Y-91641258D01*
X158036006Y-91641267D01*
X158103883Y-91805140D01*
X158103890Y-91805153D01*
X158202435Y-91952634D01*
X158202438Y-91952638D01*
X158240080Y-91990279D01*
X158273566Y-92051601D01*
X158276400Y-92077961D01*
X158276400Y-98803511D01*
X158300435Y-98924344D01*
X158300440Y-98924361D01*
X158347585Y-99038181D01*
X158347588Y-99038186D01*
X158372683Y-99075742D01*
X158416042Y-99140633D01*
X158503167Y-99227758D01*
X158503170Y-99227760D01*
X158510859Y-99235449D01*
X160087571Y-100812161D01*
X160121056Y-100873484D01*
X160117822Y-100938158D01*
X160112753Y-100953757D01*
X160079500Y-101163713D01*
X160079500Y-101376286D01*
X160109418Y-101565185D01*
X160112754Y-101586243D01*
X160176146Y-101781344D01*
X160178444Y-101788414D01*
X160274951Y-101977820D01*
X160399890Y-102149786D01*
X160550213Y-102300109D01*
X160722182Y-102425050D01*
X160730946Y-102429516D01*
X160781742Y-102477491D01*
X160798536Y-102545312D01*
X160775998Y-102611447D01*
X160730946Y-102650484D01*
X160722182Y-102654949D01*
X160550213Y-102779890D01*
X160399890Y-102930213D01*
X160274951Y-103102179D01*
X160178444Y-103291585D01*
X160112753Y-103493760D01*
X160110102Y-103510500D01*
X160079500Y-103703713D01*
X160079500Y-103916287D01*
X160112754Y-104126243D01*
X160156730Y-104261588D01*
X160178444Y-104328414D01*
X160274951Y-104517820D01*
X160399890Y-104689786D01*
X160550213Y-104840109D01*
X160722182Y-104965050D01*
X160730946Y-104969516D01*
X160781742Y-105017491D01*
X160798536Y-105085312D01*
X160775998Y-105151447D01*
X160730946Y-105190484D01*
X160722182Y-105194949D01*
X160550213Y-105319890D01*
X160399890Y-105470213D01*
X160274951Y-105642179D01*
X160178444Y-105831585D01*
X160112753Y-106033760D01*
X160084857Y-106209890D01*
X160079500Y-106243713D01*
X160079500Y-106456287D01*
X160112754Y-106666243D01*
X160156730Y-106801588D01*
X160178444Y-106868414D01*
X160274951Y-107057820D01*
X160399890Y-107229786D01*
X160550213Y-107380109D01*
X160722182Y-107505050D01*
X160730946Y-107509516D01*
X160781742Y-107557491D01*
X160798536Y-107625312D01*
X160775998Y-107691447D01*
X160730946Y-107730484D01*
X160722182Y-107734949D01*
X160550213Y-107859890D01*
X160399890Y-108010213D01*
X160274951Y-108182179D01*
X160178444Y-108371585D01*
X160112753Y-108573760D01*
X160079500Y-108783713D01*
X160079500Y-108996286D01*
X160096279Y-109102228D01*
X160112754Y-109206243D01*
X160156730Y-109341588D01*
X160178444Y-109408414D01*
X160274951Y-109597820D01*
X160399890Y-109769786D01*
X160550213Y-109920109D01*
X160722182Y-110045050D01*
X160730946Y-110049516D01*
X160781742Y-110097491D01*
X160798536Y-110165312D01*
X160775998Y-110231447D01*
X160730946Y-110270484D01*
X160722182Y-110274949D01*
X160550213Y-110399890D01*
X160399890Y-110550213D01*
X160274951Y-110722179D01*
X160178444Y-110911585D01*
X160112753Y-111113760D01*
X160079500Y-111323713D01*
X160079500Y-111536287D01*
X160112754Y-111746243D01*
X160156730Y-111881588D01*
X160178444Y-111948414D01*
X160274951Y-112137820D01*
X160399890Y-112309786D01*
X160550213Y-112460109D01*
X160722179Y-112585048D01*
X160722181Y-112585049D01*
X160722184Y-112585051D01*
X160911588Y-112681557D01*
X161113757Y-112747246D01*
X161323713Y-112780500D01*
X161323714Y-112780500D01*
X161536286Y-112780500D01*
X161536287Y-112780500D01*
X161746243Y-112747246D01*
X161948412Y-112681557D01*
X162137816Y-112585051D01*
X162159789Y-112569086D01*
X162309786Y-112460109D01*
X162309788Y-112460106D01*
X162309792Y-112460104D01*
X162460104Y-112309792D01*
X162460106Y-112309788D01*
X162460109Y-112309786D01*
X162585048Y-112137820D01*
X162585047Y-112137820D01*
X162585051Y-112137816D01*
X162681557Y-111948412D01*
X162703270Y-111881586D01*
X162742706Y-111823913D01*
X162807065Y-111796714D01*
X162875911Y-111808629D01*
X162927387Y-111855873D01*
X162945200Y-111919906D01*
X162945200Y-118013238D01*
X162925515Y-118080277D01*
X162908881Y-118100919D01*
X162871238Y-118138561D01*
X162871235Y-118138565D01*
X162772690Y-118286046D01*
X162772683Y-118286059D01*
X162704806Y-118449932D01*
X162704803Y-118449941D01*
X162670200Y-118623904D01*
X162670200Y-118801295D01*
X162704803Y-118975258D01*
X162704806Y-118975267D01*
X162772683Y-119139140D01*
X162772690Y-119139153D01*
X162871235Y-119286634D01*
X162871238Y-119286638D01*
X162996661Y-119412061D01*
X162996665Y-119412064D01*
X163144146Y-119510609D01*
X163144159Y-119510616D01*
X163267063Y-119561523D01*
X163308034Y-119578494D01*
X163308036Y-119578494D01*
X163308041Y-119578496D01*
X163482004Y-119613099D01*
X163482007Y-119613100D01*
X163482009Y-119613100D01*
X163659393Y-119613100D01*
X163659394Y-119613099D01*
X163717382Y-119601564D01*
X163833358Y-119578496D01*
X163833361Y-119578494D01*
X163833366Y-119578494D01*
X163997247Y-119510613D01*
X164144735Y-119412064D01*
X164270164Y-119286635D01*
X164368713Y-119139147D01*
X164436594Y-118975266D01*
X164471200Y-118801291D01*
X164471200Y-118623909D01*
X164471200Y-118623906D01*
X164471199Y-118623904D01*
X164436596Y-118449941D01*
X164436593Y-118449932D01*
X164368716Y-118286059D01*
X164368709Y-118286046D01*
X164270164Y-118138565D01*
X164270161Y-118138561D01*
X164232519Y-118100919D01*
X164199034Y-118039596D01*
X164196200Y-118013238D01*
X164196200Y-115897648D01*
X174699500Y-115897648D01*
X174699500Y-116102351D01*
X174731522Y-116304534D01*
X174794781Y-116499223D01*
X174887715Y-116681613D01*
X175008028Y-116847213D01*
X175152786Y-116991971D01*
X175269836Y-117077011D01*
X175318390Y-117112287D01*
X175404001Y-117155908D01*
X175500776Y-117205218D01*
X175500778Y-117205218D01*
X175500781Y-117205220D01*
X175605137Y-117239127D01*
X175695465Y-117268477D01*
X175779564Y-117281797D01*
X175897648Y-117300500D01*
X175897649Y-117300500D01*
X176102346Y-117300500D01*
X176102352Y-117300500D01*
X176106091Y-117299907D01*
X176175382Y-117308853D01*
X176228839Y-117353843D01*
X176249487Y-117420592D01*
X176249500Y-117422378D01*
X176249500Y-120636267D01*
X176229815Y-120703306D01*
X176177011Y-120749061D01*
X176164506Y-120753972D01*
X176130671Y-120765184D01*
X176130663Y-120765187D01*
X175981342Y-120857289D01*
X175857289Y-120981342D01*
X175765187Y-121130663D01*
X175765185Y-121130668D01*
X175737349Y-121214670D01*
X175710001Y-121297203D01*
X175710001Y-121297204D01*
X175710000Y-121297204D01*
X175699500Y-121399983D01*
X175699500Y-122600001D01*
X175699501Y-122600018D01*
X175710000Y-122702796D01*
X175710001Y-122702799D01*
X175740723Y-122795510D01*
X175765186Y-122869334D01*
X175857288Y-123018656D01*
X175981344Y-123142712D01*
X176130666Y-123234814D01*
X176297203Y-123289999D01*
X176399991Y-123300500D01*
X177600008Y-123300499D01*
X177702797Y-123289999D01*
X177869334Y-123234814D01*
X178018656Y-123142712D01*
X178142712Y-123018656D01*
X178234814Y-122869334D01*
X178289999Y-122702797D01*
X178300500Y-122600009D01*
X178300499Y-121399992D01*
X178289999Y-121297203D01*
X178234814Y-121130666D01*
X178142712Y-120981344D01*
X178018656Y-120857288D01*
X177903781Y-120786433D01*
X177869336Y-120765187D01*
X177869335Y-120765186D01*
X177869334Y-120765186D01*
X177869328Y-120765184D01*
X177835494Y-120753972D01*
X177778050Y-120714199D01*
X177751228Y-120649683D01*
X177750500Y-120636267D01*
X177750500Y-116926081D01*
X177750499Y-116926080D01*
X177738528Y-116865894D01*
X177721659Y-116781088D01*
X177671588Y-116660208D01*
X177665084Y-116644505D01*
X177582951Y-116521584D01*
X177478416Y-116417049D01*
X177478415Y-116417048D01*
X177326473Y-116265106D01*
X177292988Y-116203783D01*
X177291681Y-116158028D01*
X177300500Y-116102352D01*
X177300500Y-115897648D01*
X177268477Y-115695466D01*
X177205220Y-115500781D01*
X177205218Y-115500778D01*
X177205218Y-115500776D01*
X177171503Y-115434607D01*
X177112287Y-115318390D01*
X177104556Y-115307749D01*
X176991971Y-115152786D01*
X176847213Y-115008028D01*
X176681613Y-114887715D01*
X176681612Y-114887714D01*
X176681610Y-114887713D01*
X176624653Y-114858691D01*
X176499223Y-114794781D01*
X176304534Y-114731522D01*
X176129995Y-114703878D01*
X176102352Y-114699500D01*
X175897648Y-114699500D01*
X175873329Y-114703351D01*
X175695465Y-114731522D01*
X175500776Y-114794781D01*
X175318386Y-114887715D01*
X175152786Y-115008028D01*
X175008028Y-115152786D01*
X174887715Y-115318386D01*
X174794781Y-115500776D01*
X174731522Y-115695465D01*
X174699500Y-115897648D01*
X164196200Y-115897648D01*
X164196200Y-101684593D01*
X164196199Y-101684589D01*
X164172163Y-101563748D01*
X164145551Y-101499501D01*
X164125950Y-101452179D01*
X164125015Y-101449921D01*
X164125008Y-101449908D01*
X164056558Y-101347467D01*
X164056555Y-101347463D01*
X162475563Y-99766472D01*
X162442078Y-99705149D01*
X162447062Y-99635457D01*
X162462920Y-99605915D01*
X162585051Y-99437816D01*
X162681557Y-99248412D01*
X162747246Y-99046243D01*
X162780500Y-98836287D01*
X162780500Y-98623713D01*
X162747246Y-98413757D01*
X162742178Y-98398159D01*
X162740183Y-98328318D01*
X162772426Y-98272163D01*
X163188732Y-97855857D01*
X163189801Y-97854890D01*
X163280755Y-97763936D01*
X163280758Y-97763933D01*
X163349211Y-97661486D01*
X163396363Y-97547652D01*
X163420400Y-97426806D01*
X163420400Y-77015551D01*
X163440085Y-76948512D01*
X163456714Y-76927875D01*
X164486941Y-75897648D01*
X166699500Y-75897648D01*
X166699500Y-76102351D01*
X166731522Y-76304534D01*
X166794781Y-76499223D01*
X166849382Y-76606382D01*
X166868289Y-76643489D01*
X166887715Y-76681613D01*
X167008028Y-76847213D01*
X167008034Y-76847219D01*
X167152781Y-76991966D01*
X167198384Y-77025098D01*
X167241050Y-77080425D01*
X167249500Y-77125416D01*
X167249500Y-90073918D01*
X167249500Y-90073920D01*
X167249499Y-90073920D01*
X167278340Y-90218907D01*
X167278343Y-90218917D01*
X167334913Y-90355490D01*
X167334914Y-90355491D01*
X167334916Y-90355495D01*
X167346077Y-90372198D01*
X167346078Y-90372201D01*
X167417046Y-90478414D01*
X167417052Y-90478421D01*
X179463181Y-102524548D01*
X179496666Y-102585871D01*
X179499500Y-102612229D01*
X179499500Y-103800001D01*
X179499501Y-103800018D01*
X179510000Y-103902796D01*
X179510001Y-103902799D01*
X179565185Y-104069331D01*
X179565187Y-104069336D01*
X179579373Y-104092335D01*
X179657288Y-104218656D01*
X179781344Y-104342712D01*
X179930666Y-104434814D01*
X180097203Y-104489999D01*
X180199991Y-104500500D01*
X181800008Y-104500499D01*
X181902797Y-104489999D01*
X182069334Y-104434814D01*
X182218656Y-104342712D01*
X182342712Y-104218656D01*
X182434814Y-104069334D01*
X182489999Y-103902797D01*
X182500500Y-103800009D01*
X182500499Y-102199992D01*
X182496203Y-102157941D01*
X182489999Y-102097203D01*
X182489998Y-102097200D01*
X182450338Y-101977515D01*
X182434814Y-101930666D01*
X182342712Y-101781344D01*
X182218656Y-101657288D01*
X182069334Y-101565186D01*
X181902797Y-101510001D01*
X181902795Y-101510000D01*
X181800016Y-101499500D01*
X181800009Y-101499500D01*
X180612229Y-101499500D01*
X180545190Y-101479815D01*
X180524548Y-101463181D01*
X173041825Y-93980457D01*
X172959016Y-93897648D01*
X178699500Y-93897648D01*
X178699500Y-94102351D01*
X178731522Y-94304534D01*
X178794781Y-94499223D01*
X178846994Y-94601694D01*
X178886948Y-94680109D01*
X178887715Y-94681613D01*
X179008028Y-94847213D01*
X179152786Y-94991971D01*
X179307749Y-95104556D01*
X179318390Y-95112287D01*
X179411816Y-95159890D01*
X179500776Y-95205218D01*
X179500778Y-95205218D01*
X179500781Y-95205220D01*
X179605137Y-95239127D01*
X179695465Y-95268477D01*
X179796557Y-95284488D01*
X179897648Y-95300500D01*
X179897649Y-95300500D01*
X180102351Y-95300500D01*
X180102352Y-95300500D01*
X180304534Y-95268477D01*
X180499219Y-95205220D01*
X180681610Y-95112287D01*
X180788055Y-95034951D01*
X180847213Y-94991971D01*
X180847215Y-94991968D01*
X180847219Y-94991966D01*
X180991966Y-94847219D01*
X180991968Y-94847215D01*
X180991971Y-94847213D01*
X181106810Y-94689148D01*
X181112287Y-94681610D01*
X181205220Y-94499219D01*
X181261044Y-94327409D01*
X181300482Y-94269734D01*
X181364840Y-94242536D01*
X181433687Y-94254451D01*
X181466656Y-94278047D01*
X181728981Y-94540371D01*
X181762466Y-94601694D01*
X181765300Y-94628052D01*
X181765300Y-96236706D01*
X181789337Y-96357552D01*
X181795398Y-96372184D01*
X181836488Y-96471386D01*
X181868260Y-96518934D01*
X181872547Y-96525350D01*
X181872548Y-96525352D01*
X181904943Y-96573835D01*
X181996386Y-96665278D01*
X181996408Y-96665298D01*
X185288316Y-99957206D01*
X185288345Y-99957237D01*
X185378563Y-100047455D01*
X185378567Y-100047458D01*
X185481007Y-100115907D01*
X185481013Y-100115910D01*
X185481014Y-100115911D01*
X185594848Y-100163063D01*
X185655271Y-100175081D01*
X185660347Y-100176090D01*
X185722256Y-100208473D01*
X185723836Y-100210026D01*
X187113374Y-101599564D01*
X187146859Y-101660887D01*
X187141875Y-101730579D01*
X187113374Y-101774926D01*
X187041738Y-101846561D01*
X187041735Y-101846565D01*
X186943190Y-101994046D01*
X186943183Y-101994059D01*
X186875306Y-102157932D01*
X186875303Y-102157941D01*
X186840700Y-102331904D01*
X186840700Y-102509295D01*
X186875303Y-102683258D01*
X186875306Y-102683267D01*
X186943183Y-102847140D01*
X186943190Y-102847153D01*
X187041735Y-102994634D01*
X187041738Y-102994638D01*
X187167161Y-103120061D01*
X187167165Y-103120064D01*
X187314646Y-103218609D01*
X187314659Y-103218616D01*
X187437563Y-103269523D01*
X187478534Y-103286494D01*
X187478536Y-103286494D01*
X187478541Y-103286496D01*
X187652504Y-103321099D01*
X187652507Y-103321100D01*
X187652509Y-103321100D01*
X187705748Y-103321100D01*
X187772787Y-103340785D01*
X187793429Y-103357419D01*
X188014881Y-103578871D01*
X188048366Y-103640194D01*
X188051200Y-103666552D01*
X188051200Y-113525500D01*
X188031515Y-113592539D01*
X187978711Y-113638294D01*
X187927200Y-113649500D01*
X186602129Y-113649500D01*
X186602123Y-113649501D01*
X186542516Y-113655908D01*
X186407671Y-113706202D01*
X186407664Y-113706206D01*
X186292455Y-113792452D01*
X186292452Y-113792455D01*
X186206206Y-113907664D01*
X186206202Y-113907671D01*
X186155908Y-114042517D01*
X186149501Y-114102116D01*
X186149500Y-114102135D01*
X186149500Y-115897870D01*
X186149501Y-115897876D01*
X186155908Y-115957483D01*
X186206202Y-116092328D01*
X186206206Y-116092335D01*
X186292452Y-116207544D01*
X186292455Y-116207547D01*
X186407664Y-116293793D01*
X186407671Y-116293797D01*
X186539082Y-116342810D01*
X186595016Y-116384681D01*
X186619433Y-116450145D01*
X186604582Y-116518418D01*
X186583431Y-116546673D01*
X186469889Y-116660215D01*
X186344951Y-116832179D01*
X186248444Y-117021585D01*
X186182753Y-117223760D01*
X186163913Y-117342712D01*
X186149500Y-117433713D01*
X186149500Y-117646287D01*
X186182754Y-117856243D01*
X186243278Y-118042517D01*
X186248444Y-118058414D01*
X186344951Y-118247820D01*
X186469890Y-118419786D01*
X186620213Y-118570109D01*
X186792182Y-118695050D01*
X186800946Y-118699516D01*
X186851742Y-118747491D01*
X186868536Y-118815312D01*
X186845998Y-118881447D01*
X186800946Y-118920484D01*
X186792182Y-118924949D01*
X186620213Y-119049890D01*
X186469890Y-119200213D01*
X186344951Y-119372179D01*
X186248444Y-119561585D01*
X186182753Y-119763760D01*
X186149500Y-119973713D01*
X186149500Y-120186286D01*
X186175508Y-120350498D01*
X186182754Y-120396243D01*
X186241158Y-120575992D01*
X186248444Y-120598414D01*
X186344951Y-120787820D01*
X186469890Y-120959786D01*
X186620213Y-121110109D01*
X186792182Y-121235050D01*
X186800946Y-121239516D01*
X186851742Y-121287491D01*
X186868536Y-121355312D01*
X186845998Y-121421447D01*
X186800946Y-121460484D01*
X186792182Y-121464949D01*
X186620213Y-121589890D01*
X186469890Y-121740213D01*
X186344951Y-121912179D01*
X186248444Y-122101585D01*
X186182753Y-122303760D01*
X186149500Y-122513713D01*
X186149500Y-122726286D01*
X186175067Y-122887713D01*
X186182754Y-122936243D01*
X186220407Y-123052128D01*
X186248444Y-123138414D01*
X186344951Y-123327820D01*
X186469890Y-123499786D01*
X186620213Y-123650109D01*
X186792182Y-123775050D01*
X186800946Y-123779516D01*
X186851742Y-123827491D01*
X186868536Y-123895312D01*
X186845998Y-123961447D01*
X186800946Y-124000484D01*
X186792182Y-124004949D01*
X186620213Y-124129890D01*
X186469890Y-124280213D01*
X186344951Y-124452179D01*
X186248444Y-124641585D01*
X186182753Y-124843760D01*
X186149500Y-125053713D01*
X186149500Y-125266286D01*
X186182753Y-125476239D01*
X186248444Y-125678414D01*
X186344951Y-125867820D01*
X186469890Y-126039786D01*
X186620213Y-126190109D01*
X186792179Y-126315048D01*
X186792181Y-126315049D01*
X186792184Y-126315051D01*
X186981588Y-126411557D01*
X187183757Y-126477246D01*
X187393713Y-126510500D01*
X187393714Y-126510500D01*
X187606286Y-126510500D01*
X187606287Y-126510500D01*
X187816243Y-126477246D01*
X188018412Y-126411557D01*
X188207816Y-126315051D01*
X188229789Y-126299086D01*
X188379786Y-126190109D01*
X188379788Y-126190106D01*
X188379792Y-126190104D01*
X188530104Y-126039792D01*
X188530106Y-126039788D01*
X188530109Y-126039786D01*
X188655048Y-125867820D01*
X188655047Y-125867820D01*
X188655051Y-125867816D01*
X188751557Y-125678412D01*
X188817246Y-125476243D01*
X188850500Y-125266287D01*
X188850500Y-125053713D01*
X188817246Y-124843757D01*
X188812179Y-124828162D01*
X188810182Y-124758321D01*
X188842426Y-124702162D01*
X190004129Y-123540460D01*
X190004133Y-123540458D01*
X190091258Y-123453333D01*
X190159711Y-123350886D01*
X190206863Y-123237052D01*
X190230900Y-123116206D01*
X190230900Y-102212194D01*
X190206863Y-102091348D01*
X190166562Y-101994053D01*
X190159712Y-101977515D01*
X190159711Y-101977513D01*
X190159710Y-101977511D01*
X190091258Y-101875067D01*
X190091255Y-101875063D01*
X185050019Y-96833827D01*
X185016534Y-96772504D01*
X185013700Y-96746146D01*
X185013700Y-96692906D01*
X185013699Y-96692904D01*
X184979096Y-96518941D01*
X184979093Y-96518932D01*
X184973835Y-96506239D01*
X184956733Y-96464949D01*
X184911216Y-96355059D01*
X184911209Y-96355046D01*
X184812664Y-96207565D01*
X184812659Y-96207559D01*
X184687238Y-96082138D01*
X184687234Y-96082135D01*
X184539753Y-95983590D01*
X184539740Y-95983583D01*
X184375867Y-95915706D01*
X184375858Y-95915703D01*
X184201894Y-95881100D01*
X184201891Y-95881100D01*
X184024509Y-95881100D01*
X184024506Y-95881100D01*
X183850541Y-95915703D01*
X183850532Y-95915706D01*
X183686659Y-95983583D01*
X183686646Y-95983590D01*
X183539165Y-96082135D01*
X183539161Y-96082138D01*
X183448476Y-96172824D01*
X183387153Y-96206309D01*
X183317461Y-96201325D01*
X183273114Y-96172824D01*
X183052619Y-95952329D01*
X183019134Y-95891006D01*
X183016300Y-95864648D01*
X183016300Y-94385341D01*
X183016301Y-94385320D01*
X183016301Y-94255991D01*
X182992264Y-94135152D01*
X182992261Y-94135142D01*
X182987611Y-94123918D01*
X182987608Y-94123911D01*
X182967180Y-94074593D01*
X182945112Y-94021315D01*
X182945109Y-94021310D01*
X182945108Y-94021308D01*
X182905258Y-93961669D01*
X182905257Y-93961668D01*
X182876655Y-93918863D01*
X182855440Y-93897648D01*
X188859500Y-93897648D01*
X188859500Y-94102351D01*
X188891522Y-94304534D01*
X188954781Y-94499223D01*
X189006994Y-94601694D01*
X189046948Y-94680109D01*
X189047715Y-94681613D01*
X189168028Y-94847213D01*
X189312786Y-94991971D01*
X189467749Y-95104556D01*
X189478390Y-95112287D01*
X189571816Y-95159890D01*
X189660776Y-95205218D01*
X189660778Y-95205218D01*
X189660781Y-95205220D01*
X189765137Y-95239127D01*
X189855465Y-95268477D01*
X189956557Y-95284488D01*
X190057648Y-95300500D01*
X190057649Y-95300500D01*
X190262351Y-95300500D01*
X190262352Y-95300500D01*
X190331371Y-95289568D01*
X190469347Y-95267715D01*
X190469672Y-95269767D01*
X190530743Y-95272802D01*
X190577628Y-95302218D01*
X192613428Y-97338018D01*
X192646913Y-97399341D01*
X192648919Y-97428841D01*
X192649500Y-97428841D01*
X192649500Y-97646286D01*
X192682539Y-97854890D01*
X192682754Y-97856243D01*
X192736670Y-98022180D01*
X192748444Y-98058414D01*
X192844951Y-98247820D01*
X192969890Y-98419786D01*
X193120213Y-98570109D01*
X193292179Y-98695048D01*
X193292181Y-98695049D01*
X193292184Y-98695051D01*
X193481588Y-98791557D01*
X193683757Y-98857246D01*
X193893713Y-98890500D01*
X193893714Y-98890500D01*
X194106286Y-98890500D01*
X194106287Y-98890500D01*
X194316243Y-98857246D01*
X194518412Y-98791557D01*
X194707816Y-98695051D01*
X194806005Y-98623713D01*
X194879786Y-98570109D01*
X194879788Y-98570106D01*
X194879792Y-98570104D01*
X195030104Y-98419792D01*
X195030106Y-98419788D01*
X195030109Y-98419786D01*
X195155048Y-98247820D01*
X195155047Y-98247820D01*
X195155051Y-98247816D01*
X195251557Y-98058412D01*
X195317246Y-97856243D01*
X195350500Y-97646287D01*
X195350500Y-97433713D01*
X195317246Y-97223757D01*
X195251557Y-97021588D01*
X195155051Y-96832184D01*
X195155049Y-96832181D01*
X195155048Y-96832179D01*
X195030109Y-96660213D01*
X194916569Y-96546673D01*
X194883084Y-96485350D01*
X194888068Y-96415658D01*
X194929940Y-96359725D01*
X194960915Y-96342810D01*
X195092331Y-96293796D01*
X195207546Y-96207546D01*
X195293796Y-96092331D01*
X195344091Y-95957483D01*
X195350500Y-95897873D01*
X195350499Y-94102128D01*
X195344091Y-94042517D01*
X195336183Y-94021315D01*
X195293797Y-93907671D01*
X195293793Y-93907664D01*
X195207547Y-93792455D01*
X195207544Y-93792452D01*
X195092335Y-93706206D01*
X195092328Y-93706202D01*
X194957482Y-93655908D01*
X194957483Y-93655908D01*
X194897883Y-93649501D01*
X194897881Y-93649500D01*
X194897873Y-93649500D01*
X194897864Y-93649500D01*
X193102129Y-93649500D01*
X193102123Y-93649501D01*
X193042516Y-93655908D01*
X192907671Y-93706202D01*
X192907664Y-93706206D01*
X192792455Y-93792452D01*
X192792452Y-93792455D01*
X192706206Y-93907664D01*
X192706202Y-93907671D01*
X192655908Y-94042517D01*
X192652460Y-94074593D01*
X192649501Y-94102123D01*
X192649500Y-94102135D01*
X192649500Y-95305548D01*
X192629815Y-95372587D01*
X192577011Y-95418342D01*
X192507853Y-95428286D01*
X192444297Y-95399261D01*
X192437819Y-95393229D01*
X191462218Y-94417628D01*
X191428733Y-94356305D01*
X191429241Y-94309588D01*
X191427715Y-94309347D01*
X191460500Y-94102351D01*
X191460500Y-93897648D01*
X191428477Y-93695465D01*
X191379169Y-93543713D01*
X191365220Y-93500781D01*
X191365218Y-93500778D01*
X191365218Y-93500776D01*
X191329842Y-93431347D01*
X191272287Y-93318390D01*
X191254419Y-93293796D01*
X191151971Y-93152786D01*
X191007213Y-93008028D01*
X190841613Y-92887715D01*
X190841612Y-92887714D01*
X190841610Y-92887713D01*
X190784653Y-92858691D01*
X190659223Y-92794781D01*
X190464534Y-92731522D01*
X190289995Y-92703878D01*
X190262352Y-92699500D01*
X190057648Y-92699500D01*
X190033329Y-92703351D01*
X189855465Y-92731522D01*
X189660776Y-92794781D01*
X189478386Y-92887715D01*
X189312786Y-93008028D01*
X189168028Y-93152786D01*
X189047715Y-93318386D01*
X188954781Y-93500776D01*
X188891522Y-93695465D01*
X188859500Y-93897648D01*
X182855440Y-93897648D01*
X180733219Y-91775427D01*
X180699734Y-91714104D01*
X180696900Y-91687746D01*
X180696900Y-91634506D01*
X180696899Y-91634504D01*
X180662296Y-91460541D01*
X180662293Y-91460532D01*
X180594416Y-91296659D01*
X180594409Y-91296646D01*
X180495864Y-91149165D01*
X180495861Y-91149161D01*
X180370438Y-91023738D01*
X180370434Y-91023735D01*
X180222953Y-90925190D01*
X180222940Y-90925183D01*
X180059067Y-90857306D01*
X180059058Y-90857303D01*
X179885094Y-90822700D01*
X179885091Y-90822700D01*
X179707709Y-90822700D01*
X179707706Y-90822700D01*
X179533741Y-90857303D01*
X179533732Y-90857306D01*
X179369859Y-90925183D01*
X179369846Y-90925190D01*
X179222365Y-91023735D01*
X179222361Y-91023738D01*
X179096938Y-91149161D01*
X179096935Y-91149165D01*
X178998390Y-91296646D01*
X178998383Y-91296659D01*
X178930506Y-91460532D01*
X178930503Y-91460541D01*
X178895900Y-91634504D01*
X178895900Y-91811895D01*
X178930503Y-91985858D01*
X178930506Y-91985867D01*
X178998383Y-92149740D01*
X178998390Y-92149753D01*
X179096935Y-92297234D01*
X179096938Y-92297238D01*
X179222361Y-92422661D01*
X179222365Y-92422664D01*
X179369846Y-92521209D01*
X179369850Y-92521211D01*
X179369853Y-92521213D01*
X179489724Y-92570864D01*
X179544124Y-92614703D01*
X179566190Y-92680997D01*
X179548911Y-92748696D01*
X179498564Y-92795909D01*
X179318386Y-92887715D01*
X179152786Y-93008028D01*
X179008028Y-93152786D01*
X178887715Y-93318386D01*
X178794781Y-93500776D01*
X178731522Y-93695465D01*
X178699500Y-93897648D01*
X172959016Y-93897648D01*
X168786819Y-89725451D01*
X168753334Y-89664128D01*
X168750500Y-89637770D01*
X168750500Y-77125416D01*
X168770185Y-77058377D01*
X168801613Y-77025099D01*
X168847219Y-76991966D01*
X168991966Y-76847219D01*
X168991968Y-76847215D01*
X168991971Y-76847213D01*
X169077637Y-76729302D01*
X169112287Y-76681610D01*
X169205220Y-76499219D01*
X169268477Y-76304534D01*
X169300500Y-76102352D01*
X169300500Y-75897648D01*
X169268477Y-75695466D01*
X169205220Y-75500781D01*
X169205218Y-75500778D01*
X169205218Y-75500776D01*
X169171503Y-75434607D01*
X169112287Y-75318390D01*
X169091659Y-75289998D01*
X168991971Y-75152786D01*
X168847213Y-75008028D01*
X168681613Y-74887715D01*
X168681612Y-74887714D01*
X168681610Y-74887713D01*
X168583635Y-74837792D01*
X168499223Y-74794781D01*
X168304534Y-74731522D01*
X168123155Y-74702795D01*
X168102352Y-74699500D01*
X167897648Y-74699500D01*
X167876845Y-74702795D01*
X167695465Y-74731522D01*
X167500776Y-74794781D01*
X167318386Y-74887715D01*
X167152786Y-75008028D01*
X167008028Y-75152786D01*
X166887715Y-75318386D01*
X166794781Y-75500776D01*
X166731522Y-75695465D01*
X166699500Y-75897648D01*
X164486941Y-75897648D01*
X167582373Y-72802215D01*
X167643694Y-72768732D01*
X167690410Y-72769249D01*
X167690654Y-72767715D01*
X167794101Y-72784099D01*
X167897648Y-72800500D01*
X167897649Y-72800500D01*
X168102351Y-72800500D01*
X168102352Y-72800500D01*
X168304534Y-72768477D01*
X168499219Y-72705220D01*
X168681610Y-72612287D01*
X168774590Y-72544732D01*
X168847213Y-72491971D01*
X168847215Y-72491968D01*
X168847219Y-72491966D01*
X168991966Y-72347219D01*
X168991968Y-72347215D01*
X168991971Y-72347213D01*
X169044732Y-72274590D01*
X169112287Y-72181610D01*
X169205220Y-71999219D01*
X169268477Y-71804534D01*
X169300500Y-71602352D01*
X169300500Y-71397648D01*
X176859500Y-71397648D01*
X176859500Y-71602351D01*
X176891522Y-71804534D01*
X176954781Y-71999223D01*
X177047715Y-72181613D01*
X177168028Y-72347213D01*
X177312786Y-72491971D01*
X177467749Y-72604556D01*
X177478390Y-72612287D01*
X177594607Y-72671503D01*
X177660776Y-72705218D01*
X177660778Y-72705218D01*
X177660781Y-72705220D01*
X177765137Y-72739127D01*
X177855465Y-72768477D01*
X177956557Y-72784488D01*
X178057648Y-72800500D01*
X178057649Y-72800500D01*
X178262350Y-72800500D01*
X178262352Y-72800500D01*
X178315018Y-72792158D01*
X178384310Y-72801112D01*
X178437762Y-72846108D01*
X178458402Y-72912859D01*
X178439678Y-72980173D01*
X178422096Y-73002312D01*
X178024428Y-73399981D01*
X177761270Y-73663139D01*
X177761267Y-73663142D01*
X177717704Y-73706704D01*
X177674142Y-73750266D01*
X177653548Y-73781088D01*
X177653547Y-73781087D01*
X177605689Y-73852712D01*
X177605685Y-73852719D01*
X177581418Y-73911308D01*
X177581418Y-73911309D01*
X177558538Y-73966545D01*
X177558535Y-73966555D01*
X177534500Y-74087389D01*
X177534500Y-74783885D01*
X177514815Y-74850924D01*
X177481428Y-74883606D01*
X177482331Y-74884849D01*
X177312786Y-75008028D01*
X177168028Y-75152786D01*
X177047715Y-75318386D01*
X176954781Y-75500776D01*
X176891522Y-75695465D01*
X176859500Y-75897648D01*
X176859500Y-76102351D01*
X176891522Y-76304534D01*
X176954781Y-76499223D01*
X177009382Y-76606382D01*
X177028289Y-76643489D01*
X177047715Y-76681613D01*
X177168028Y-76847213D01*
X177312786Y-76991971D01*
X177434535Y-77080425D01*
X177478390Y-77112287D01*
X177569514Y-77158717D01*
X177660776Y-77205218D01*
X177660778Y-77205218D01*
X177660781Y-77205220D01*
X177765137Y-77239127D01*
X177855465Y-77268477D01*
X177956557Y-77284488D01*
X178057648Y-77300500D01*
X178057649Y-77300500D01*
X178262351Y-77300500D01*
X178262352Y-77300500D01*
X178464534Y-77268477D01*
X178659219Y-77205220D01*
X178841610Y-77112287D01*
X178981186Y-77010880D01*
X179007213Y-76991971D01*
X179007215Y-76991968D01*
X179007219Y-76991966D01*
X179151966Y-76847219D01*
X179151968Y-76847215D01*
X179151971Y-76847213D01*
X179237637Y-76729302D01*
X179272287Y-76681610D01*
X179365220Y-76499219D01*
X179428477Y-76304534D01*
X179460500Y-76102352D01*
X179460500Y-75897648D01*
X179428477Y-75695466D01*
X179365220Y-75500781D01*
X179365218Y-75500778D01*
X179365218Y-75500776D01*
X179331503Y-75434607D01*
X179272287Y-75318390D01*
X179251659Y-75289998D01*
X179151971Y-75152786D01*
X179007213Y-75008028D01*
X178837669Y-74884849D01*
X178838884Y-74883176D01*
X178797831Y-74837792D01*
X178785500Y-74783885D01*
X178785500Y-74459451D01*
X178805185Y-74392412D01*
X178821814Y-74371775D01*
X186589530Y-66604058D01*
X186650851Y-66570575D01*
X186720543Y-66575559D01*
X186776476Y-66617431D01*
X186787692Y-66635443D01*
X186811217Y-66681613D01*
X186844951Y-66747820D01*
X186969890Y-66919786D01*
X187120213Y-67070109D01*
X187292179Y-67195048D01*
X187292181Y-67195049D01*
X187292184Y-67195051D01*
X187481588Y-67291557D01*
X187683757Y-67357246D01*
X187893713Y-67390500D01*
X187893714Y-67390500D01*
X188106286Y-67390500D01*
X188106287Y-67390500D01*
X188316243Y-67357246D01*
X188518412Y-67291557D01*
X188707816Y-67195051D01*
X188756616Y-67159596D01*
X188879786Y-67070109D01*
X188879788Y-67070106D01*
X188879792Y-67070104D01*
X189030104Y-66919792D01*
X189030106Y-66919788D01*
X189030109Y-66919786D01*
X189155048Y-66747820D01*
X189155047Y-66747820D01*
X189155051Y-66747816D01*
X189251557Y-66558412D01*
X189317246Y-66356243D01*
X189350500Y-66146287D01*
X189350500Y-65933713D01*
X189317246Y-65723757D01*
X189251557Y-65521588D01*
X189155051Y-65332184D01*
X189155049Y-65332181D01*
X189155048Y-65332179D01*
X189030109Y-65160213D01*
X188916569Y-65046673D01*
X188883084Y-64985350D01*
X188888068Y-64915658D01*
X188929940Y-64859725D01*
X188960915Y-64842810D01*
X189092331Y-64793796D01*
X189207546Y-64707546D01*
X189293796Y-64592331D01*
X189344091Y-64457483D01*
X189350500Y-64397873D01*
X189350500Y-64378711D01*
X193649500Y-64378711D01*
X193649500Y-64621288D01*
X193679675Y-64850499D01*
X193681162Y-64861789D01*
X193687368Y-64884949D01*
X193743947Y-65096104D01*
X193836020Y-65318386D01*
X193836776Y-65320212D01*
X193958064Y-65530289D01*
X193958066Y-65530292D01*
X193958067Y-65530293D01*
X194105733Y-65722736D01*
X194105739Y-65722743D01*
X194277256Y-65894260D01*
X194277262Y-65894265D01*
X194469711Y-66041936D01*
X194679788Y-66163224D01*
X194903900Y-66256054D01*
X195138211Y-66318838D01*
X195318586Y-66342584D01*
X195378711Y-66350500D01*
X195378712Y-66350500D01*
X195621289Y-66350500D01*
X195669388Y-66344167D01*
X195861789Y-66318838D01*
X196096100Y-66256054D01*
X196320212Y-66163224D01*
X196530289Y-66041936D01*
X196722738Y-65894265D01*
X196894265Y-65722738D01*
X197041936Y-65530289D01*
X197163224Y-65320212D01*
X197256054Y-65096100D01*
X197318838Y-64861789D01*
X197350500Y-64621288D01*
X197350500Y-64378712D01*
X197318838Y-64138211D01*
X197256054Y-63903900D01*
X197163224Y-63679788D01*
X197041936Y-63469711D01*
X196894265Y-63277262D01*
X196894260Y-63277256D01*
X196722743Y-63105739D01*
X196722736Y-63105733D01*
X196530293Y-62958067D01*
X196530292Y-62958066D01*
X196530289Y-62958064D01*
X196320212Y-62836776D01*
X196320205Y-62836773D01*
X196096104Y-62743947D01*
X195861785Y-62681161D01*
X195621289Y-62649500D01*
X195621288Y-62649500D01*
X195378712Y-62649500D01*
X195378711Y-62649500D01*
X195138214Y-62681161D01*
X194903895Y-62743947D01*
X194679794Y-62836773D01*
X194679785Y-62836777D01*
X194469706Y-62958067D01*
X194277263Y-63105733D01*
X194277256Y-63105739D01*
X194105739Y-63277256D01*
X194105733Y-63277263D01*
X193958067Y-63469706D01*
X193836777Y-63679785D01*
X193836773Y-63679794D01*
X193743947Y-63903895D01*
X193681161Y-64138214D01*
X193649500Y-64378711D01*
X189350500Y-64378711D01*
X189350499Y-62602128D01*
X189344091Y-62542517D01*
X189331227Y-62508028D01*
X189293797Y-62407671D01*
X189293793Y-62407664D01*
X189207547Y-62292455D01*
X189207544Y-62292452D01*
X189092335Y-62206206D01*
X189092328Y-62206202D01*
X188957482Y-62155908D01*
X188957483Y-62155908D01*
X188897883Y-62149501D01*
X188897881Y-62149500D01*
X188897873Y-62149500D01*
X188897864Y-62149500D01*
X187102129Y-62149500D01*
X187102123Y-62149501D01*
X187042516Y-62155908D01*
X186907671Y-62206202D01*
X186907664Y-62206206D01*
X186792455Y-62292452D01*
X186792452Y-62292455D01*
X186706206Y-62407664D01*
X186706202Y-62407671D01*
X186655908Y-62542517D01*
X186649501Y-62602116D01*
X186649501Y-62602123D01*
X186649500Y-62602135D01*
X186649500Y-64397870D01*
X186649501Y-64397876D01*
X186655908Y-64457483D01*
X186709303Y-64600641D01*
X186708091Y-64601092D01*
X186721026Y-64660549D01*
X186696610Y-64726013D01*
X186685023Y-64739385D01*
X179662312Y-71762096D01*
X179600989Y-71795581D01*
X179531297Y-71790597D01*
X179475364Y-71748725D01*
X179450947Y-71683261D01*
X179452157Y-71655022D01*
X179460500Y-71602352D01*
X179460500Y-71397648D01*
X179428477Y-71195466D01*
X179365220Y-71000781D01*
X179365218Y-71000778D01*
X179365218Y-71000776D01*
X179331503Y-70934607D01*
X179272287Y-70818390D01*
X179264556Y-70807749D01*
X179151971Y-70652786D01*
X179007213Y-70508028D01*
X178837669Y-70384849D01*
X178838884Y-70383176D01*
X178797831Y-70337792D01*
X178785500Y-70283885D01*
X178785500Y-67468685D01*
X178794704Y-67421802D01*
X178799437Y-67410210D01*
X178824311Y-67372986D01*
X178871463Y-67259152D01*
X178881273Y-67209830D01*
X178885772Y-67198815D01*
X178900436Y-67180431D01*
X178911335Y-67159596D01*
X178921819Y-67153625D01*
X178929342Y-67144195D01*
X178951614Y-67136658D01*
X178972050Y-67125022D01*
X178984098Y-67125667D01*
X178995526Y-67121801D01*
X179018337Y-67127502D01*
X179041820Y-67128761D01*
X179048510Y-67131708D01*
X179048616Y-67131455D01*
X179065156Y-67138306D01*
X179240873Y-67211091D01*
X179438992Y-67250499D01*
X179438996Y-67250500D01*
X179438997Y-67250500D01*
X179641004Y-67250500D01*
X179641005Y-67250499D01*
X179839127Y-67211091D01*
X180025756Y-67133786D01*
X180193718Y-67021558D01*
X180336558Y-66878718D01*
X180448786Y-66710756D01*
X180526091Y-66524127D01*
X180565500Y-66326003D01*
X180565500Y-65673997D01*
X180526091Y-65475873D01*
X180448786Y-65289244D01*
X180448784Y-65289241D01*
X180448782Y-65289237D01*
X180336558Y-65121281D01*
X180193718Y-64978441D01*
X180025762Y-64866217D01*
X180025752Y-64866212D01*
X179839127Y-64788909D01*
X179839119Y-64788907D01*
X179641007Y-64749500D01*
X179641003Y-64749500D01*
X179438997Y-64749500D01*
X179438992Y-64749500D01*
X179240880Y-64788907D01*
X179240872Y-64788909D01*
X179054244Y-64866213D01*
X178973891Y-64919904D01*
X178907213Y-64940782D01*
X178839833Y-64922297D01*
X178836109Y-64919904D01*
X178829754Y-64915658D01*
X178783795Y-64884949D01*
X178755755Y-64866213D01*
X178569127Y-64788909D01*
X178569119Y-64788907D01*
X178371007Y-64749500D01*
X178371003Y-64749500D01*
X178168997Y-64749500D01*
X178168992Y-64749500D01*
X177970880Y-64788907D01*
X177970872Y-64788909D01*
X177784247Y-64866212D01*
X177784237Y-64866217D01*
X177616281Y-64978441D01*
X177473441Y-65121281D01*
X177361217Y-65289237D01*
X177361212Y-65289247D01*
X177283909Y-65475872D01*
X177283907Y-65475880D01*
X177244500Y-65673992D01*
X177244500Y-66326007D01*
X177283907Y-66524119D01*
X177283909Y-66524127D01*
X177361212Y-66710752D01*
X177361217Y-66710762D01*
X177473441Y-66878718D01*
X177518378Y-66923655D01*
X177551863Y-66984978D01*
X177552315Y-67035525D01*
X177534500Y-67125094D01*
X177534500Y-70283885D01*
X177514815Y-70350924D01*
X177481428Y-70383606D01*
X177482331Y-70384849D01*
X177312786Y-70508028D01*
X177168028Y-70652786D01*
X177047715Y-70818386D01*
X176954781Y-71000776D01*
X176891522Y-71195465D01*
X176859500Y-71397648D01*
X169300500Y-71397648D01*
X169268477Y-71195466D01*
X169205220Y-71000781D01*
X169205218Y-71000778D01*
X169205218Y-71000776D01*
X169171503Y-70934607D01*
X169112287Y-70818390D01*
X169104556Y-70807749D01*
X168991971Y-70652786D01*
X168847213Y-70508028D01*
X168681613Y-70387715D01*
X168681612Y-70387714D01*
X168681610Y-70387713D01*
X168583635Y-70337792D01*
X168499223Y-70294781D01*
X168304534Y-70231522D01*
X168129995Y-70203878D01*
X168102352Y-70199500D01*
X167897648Y-70199500D01*
X167873329Y-70203351D01*
X167695465Y-70231522D01*
X167500776Y-70294781D01*
X167318386Y-70387715D01*
X167152786Y-70508028D01*
X167008028Y-70652786D01*
X166887715Y-70818386D01*
X166794781Y-71000776D01*
X166731522Y-71195465D01*
X166699500Y-71397648D01*
X166699500Y-71602351D01*
X166732285Y-71809346D01*
X166730252Y-71809667D01*
X166727165Y-71870834D01*
X166697781Y-71917627D01*
X162396170Y-76219239D01*
X162309044Y-76306364D01*
X162309038Y-76306372D01*
X162240590Y-76408808D01*
X162240588Y-76408813D01*
X162209720Y-76483337D01*
X162193438Y-76522644D01*
X162193435Y-76522656D01*
X162169400Y-76643489D01*
X162169400Y-87095500D01*
X162149715Y-87162539D01*
X162096911Y-87208294D01*
X162045400Y-87219500D01*
X160532129Y-87219500D01*
X160532123Y-87219501D01*
X160472516Y-87225908D01*
X160337671Y-87276202D01*
X160337664Y-87276206D01*
X160222455Y-87362452D01*
X160222452Y-87362455D01*
X160136206Y-87477664D01*
X160136202Y-87477671D01*
X160085908Y-87612517D01*
X160079501Y-87672116D01*
X160079501Y-87672123D01*
X160079500Y-87672135D01*
X160079500Y-89467870D01*
X160079501Y-89467876D01*
X160085908Y-89527483D01*
X160136202Y-89662328D01*
X160136206Y-89662335D01*
X160222452Y-89777544D01*
X160222455Y-89777547D01*
X160337664Y-89863793D01*
X160337671Y-89863797D01*
X160469082Y-89912810D01*
X160525016Y-89954681D01*
X160549433Y-90020145D01*
X160534582Y-90088418D01*
X160513431Y-90116673D01*
X160399889Y-90230215D01*
X160274951Y-90402179D01*
X160178444Y-90591585D01*
X160112753Y-90793760D01*
X160079500Y-91003713D01*
X160079500Y-91216286D01*
X160112754Y-91426246D01*
X160112754Y-91426247D01*
X160117821Y-91441842D01*
X160118255Y-91457051D01*
X160123573Y-91471309D01*
X160119231Y-91491268D01*
X160119814Y-91511683D01*
X160111727Y-91525767D01*
X160108722Y-91539582D01*
X160087570Y-91567837D01*
X159995670Y-91659737D01*
X159934349Y-91693222D01*
X159864657Y-91688238D01*
X159808723Y-91646367D01*
X159784306Y-91580903D01*
X159786373Y-91547864D01*
X159802400Y-91467293D01*
X159802400Y-91289906D01*
X159802399Y-91289904D01*
X159767796Y-91115941D01*
X159767793Y-91115932D01*
X159699916Y-90952059D01*
X159699909Y-90952046D01*
X159601364Y-90804565D01*
X159601361Y-90804561D01*
X159475938Y-90679138D01*
X159475934Y-90679135D01*
X159328453Y-90580590D01*
X159328440Y-90580583D01*
X159164567Y-90512706D01*
X159164558Y-90512703D01*
X158990594Y-90478100D01*
X158990591Y-90478100D01*
X158813209Y-90478100D01*
X158813206Y-90478100D01*
X158639241Y-90512703D01*
X158639232Y-90512706D01*
X158475359Y-90580583D01*
X158475346Y-90580590D01*
X158327865Y-90679135D01*
X158327861Y-90679138D01*
X158202438Y-90804561D01*
X158202435Y-90804565D01*
X158103890Y-90952046D01*
X158103883Y-90952059D01*
X158036006Y-91115932D01*
X158036003Y-91115941D01*
X158001400Y-91289904D01*
X150750500Y-91289904D01*
X150750500Y-69267220D01*
X150770185Y-69200181D01*
X150801614Y-69166902D01*
X150879792Y-69110104D01*
X151030104Y-68959792D01*
X151030106Y-68959788D01*
X151030109Y-68959786D01*
X151155048Y-68787820D01*
X151155047Y-68787820D01*
X151155051Y-68787816D01*
X151251557Y-68598412D01*
X151317246Y-68396243D01*
X151350500Y-68186287D01*
X151350500Y-67973713D01*
X151317246Y-67763757D01*
X151251557Y-67561588D01*
X151155051Y-67372184D01*
X151155049Y-67372181D01*
X151155048Y-67372179D01*
X151030109Y-67200213D01*
X150879786Y-67049890D01*
X150707820Y-66924951D01*
X150518414Y-66828444D01*
X150518413Y-66828443D01*
X150518412Y-66828443D01*
X150316243Y-66762754D01*
X150316241Y-66762753D01*
X150316240Y-66762753D01*
X150154957Y-66737208D01*
X150106287Y-66729500D01*
X149893713Y-66729500D01*
X149830355Y-66739534D01*
X149683761Y-66762753D01*
X149683758Y-66762753D01*
X149683757Y-66762754D01*
X149659643Y-66770588D01*
X149611116Y-66786356D01*
X149541275Y-66788350D01*
X149481443Y-66752268D01*
X149450616Y-66689567D01*
X149448800Y-66668424D01*
X149448800Y-65897648D01*
X153699500Y-65897648D01*
X153699500Y-66102351D01*
X153731522Y-66304534D01*
X153794781Y-66499223D01*
X153833677Y-66575559D01*
X153880994Y-66668424D01*
X153887715Y-66681613D01*
X154008028Y-66847213D01*
X154152786Y-66991971D01*
X154260336Y-67070109D01*
X154318390Y-67112287D01*
X154411239Y-67159596D01*
X154500776Y-67205218D01*
X154500778Y-67205218D01*
X154500781Y-67205220D01*
X154605137Y-67239127D01*
X154695465Y-67268477D01*
X154796557Y-67284488D01*
X154897648Y-67300500D01*
X154897649Y-67300500D01*
X155102351Y-67300500D01*
X155102352Y-67300500D01*
X155304534Y-67268477D01*
X155499219Y-67205220D01*
X155681610Y-67112287D01*
X155806489Y-67021558D01*
X155847213Y-66991971D01*
X155847215Y-66991968D01*
X155847219Y-66991966D01*
X155991966Y-66847219D01*
X155991968Y-66847215D01*
X155991971Y-66847213D01*
X156077493Y-66729500D01*
X156112287Y-66681610D01*
X156205220Y-66499219D01*
X156268477Y-66304534D01*
X156300500Y-66102352D01*
X156300500Y-65897648D01*
X156299963Y-65894260D01*
X156268477Y-65695465D01*
X156214809Y-65530293D01*
X156205220Y-65500781D01*
X156205218Y-65500778D01*
X156205218Y-65500776D01*
X156119315Y-65332184D01*
X156112287Y-65318390D01*
X156091114Y-65289247D01*
X155991971Y-65152786D01*
X155847213Y-65008028D01*
X155681612Y-64887714D01*
X155499223Y-64794781D01*
X155304534Y-64731522D01*
X155129995Y-64703878D01*
X155102352Y-64699500D01*
X154897648Y-64699500D01*
X154873329Y-64703351D01*
X154695465Y-64731522D01*
X154500776Y-64794781D01*
X154318388Y-64887714D01*
X154152786Y-65008028D01*
X154008028Y-65152786D01*
X153887715Y-65318386D01*
X153794781Y-65500776D01*
X153731522Y-65695465D01*
X153699500Y-65897648D01*
X149448800Y-65897648D01*
X149448800Y-65296052D01*
X149468485Y-65229013D01*
X149485119Y-65208371D01*
X149854972Y-64838519D01*
X149916295Y-64805034D01*
X149942653Y-64802200D01*
X150061607Y-64802200D01*
X150061608Y-64802199D01*
X150182452Y-64778163D01*
X150296286Y-64731011D01*
X150398733Y-64662558D01*
X150485858Y-64575433D01*
X150554311Y-64472986D01*
X150573340Y-64427047D01*
X150617181Y-64372643D01*
X150683475Y-64350578D01*
X150687901Y-64350499D01*
X150897871Y-64350499D01*
X150897872Y-64350499D01*
X150957483Y-64344091D01*
X151092331Y-64293796D01*
X151207546Y-64207546D01*
X151293796Y-64092331D01*
X151344091Y-63957483D01*
X151350500Y-63897873D01*
X151350499Y-62102128D01*
X151344091Y-62042517D01*
X151293796Y-61907669D01*
X151293795Y-61907668D01*
X151293793Y-61907664D01*
X151207547Y-61792455D01*
X151207544Y-61792452D01*
X151092335Y-61706206D01*
X151092328Y-61706202D01*
X150957482Y-61655908D01*
X150957483Y-61655908D01*
X150897883Y-61649501D01*
X150897881Y-61649500D01*
X150897873Y-61649500D01*
X150897864Y-61649500D01*
X149102129Y-61649500D01*
X149102123Y-61649501D01*
X149042516Y-61655908D01*
X148907671Y-61706202D01*
X148907664Y-61706206D01*
X148792455Y-61792452D01*
X148792452Y-61792455D01*
X148706206Y-61907664D01*
X148706202Y-61907671D01*
X148655908Y-62042517D01*
X148649501Y-62102116D01*
X148649501Y-62102123D01*
X148649500Y-62102135D01*
X148649500Y-63897870D01*
X148649501Y-63897876D01*
X148655908Y-63957483D01*
X148709303Y-64100641D01*
X148708072Y-64101099D01*
X148720990Y-64160490D01*
X148696570Y-64225953D01*
X148684988Y-64239320D01*
X148424569Y-64499740D01*
X148424567Y-64499742D01*
X148381004Y-64543304D01*
X148337442Y-64586866D01*
X148314442Y-64621289D01*
X148314441Y-64621290D01*
X148268990Y-64689309D01*
X148268985Y-64689318D01*
X148221840Y-64803138D01*
X148221835Y-64803154D01*
X148205016Y-64887714D01*
X148205016Y-64887715D01*
X148197800Y-64923991D01*
X148197800Y-100866248D01*
X148178115Y-100933287D01*
X148161481Y-100953929D01*
X141128481Y-107986929D01*
X141067158Y-108020414D01*
X140997466Y-108015430D01*
X140941533Y-107973558D01*
X140917116Y-107908094D01*
X140916800Y-107899248D01*
X140916800Y-93681541D01*
X140916801Y-93681520D01*
X140916801Y-93552191D01*
X140892764Y-93431355D01*
X140892763Y-93431349D01*
X140845612Y-93317515D01*
X140777158Y-93215067D01*
X140777155Y-93215063D01*
X139553322Y-91991232D01*
X139543359Y-91981269D01*
X139543358Y-91981267D01*
X139456233Y-91894142D01*
X139405009Y-91859915D01*
X139353786Y-91825688D01*
X139272920Y-91792193D01*
X139239952Y-91778537D01*
X139174353Y-91765489D01*
X139169860Y-91764595D01*
X139169841Y-91764590D01*
X139119111Y-91754500D01*
X139119107Y-91754500D01*
X139119106Y-91754500D01*
X138483852Y-91754500D01*
X138416813Y-91734815D01*
X138396171Y-91718181D01*
X138028719Y-91350729D01*
X137995234Y-91289406D01*
X137992400Y-91263048D01*
X137992400Y-90907452D01*
X138012085Y-90840413D01*
X138028719Y-90819771D01*
X138439971Y-90408519D01*
X138501294Y-90375034D01*
X138527652Y-90372200D01*
X138631607Y-90372200D01*
X138631608Y-90372199D01*
X138752452Y-90348163D01*
X138866286Y-90301011D01*
X138968733Y-90232558D01*
X139055858Y-90145433D01*
X139124311Y-90042986D01*
X139143340Y-89997047D01*
X139187181Y-89942643D01*
X139253475Y-89920578D01*
X139257901Y-89920499D01*
X139467871Y-89920499D01*
X139467872Y-89920499D01*
X139527483Y-89914091D01*
X139662331Y-89863796D01*
X139777546Y-89777546D01*
X139863796Y-89662331D01*
X139914091Y-89527483D01*
X139920500Y-89467873D01*
X139920499Y-87672128D01*
X139914091Y-87612517D01*
X139863796Y-87477669D01*
X139863795Y-87477668D01*
X139863793Y-87477664D01*
X139777547Y-87362455D01*
X139777544Y-87362452D01*
X139662335Y-87276206D01*
X139662328Y-87276202D01*
X139527482Y-87225908D01*
X139527483Y-87225908D01*
X139467883Y-87219501D01*
X139467881Y-87219500D01*
X139467873Y-87219500D01*
X139467864Y-87219500D01*
X137672109Y-87219500D01*
X137671303Y-87219544D01*
X137671121Y-87219500D01*
X137668807Y-87219501D01*
X137668807Y-87218953D01*
X137603310Y-87203457D01*
X137554809Y-87153164D01*
X137540700Y-87095720D01*
X137540700Y-77572029D01*
X137560385Y-77504990D01*
X137577014Y-77484353D01*
X139724549Y-75336817D01*
X139785872Y-75303333D01*
X139812230Y-75300499D01*
X140600002Y-75300499D01*
X140600008Y-75300499D01*
X140702797Y-75289999D01*
X140869334Y-75234814D01*
X141018656Y-75142712D01*
X141142712Y-75018656D01*
X141234814Y-74869334D01*
X141289999Y-74702797D01*
X141300500Y-74600009D01*
X141300499Y-73399992D01*
X141289999Y-73297203D01*
X141234814Y-73130666D01*
X141142712Y-72981344D01*
X141018656Y-72857288D01*
X140913063Y-72792158D01*
X140869336Y-72765187D01*
X140869331Y-72765185D01*
X140820536Y-72749016D01*
X140702797Y-72710001D01*
X140702795Y-72710000D01*
X140600010Y-72699500D01*
X139399998Y-72699500D01*
X139399981Y-72699501D01*
X139297203Y-72710000D01*
X139297200Y-72710001D01*
X139130668Y-72765185D01*
X139130663Y-72765187D01*
X138981342Y-72857289D01*
X138857289Y-72981342D01*
X138765187Y-73130663D01*
X138765186Y-73130666D01*
X138710001Y-73297203D01*
X138710001Y-73297204D01*
X138710000Y-73297204D01*
X138699500Y-73399983D01*
X138699500Y-74187769D01*
X138679815Y-74254808D01*
X138663181Y-74275450D01*
X136332249Y-76606382D01*
X136250118Y-76729302D01*
X136250114Y-76729309D01*
X136193542Y-76865887D01*
X136193540Y-76865893D01*
X136164700Y-77010880D01*
X136164700Y-77010883D01*
X136164700Y-77158717D01*
X136164700Y-77158719D01*
X136164699Y-77158719D01*
X136193540Y-77303706D01*
X136193543Y-77303716D01*
X136250113Y-77440288D01*
X136250114Y-77440290D01*
X136250116Y-77440294D01*
X136268803Y-77468261D01*
X136289680Y-77534936D01*
X136289700Y-77537150D01*
X136289700Y-89250500D01*
X136270015Y-89317539D01*
X136217211Y-89363294D01*
X136165700Y-89374500D01*
X132474499Y-89374500D01*
X132407460Y-89354815D01*
X132361705Y-89302011D01*
X132350499Y-89250500D01*
X132350499Y-89102129D01*
X132350498Y-89102123D01*
X132350497Y-89102116D01*
X132344091Y-89042517D01*
X132293796Y-88907669D01*
X132293795Y-88907668D01*
X132293793Y-88907664D01*
X132207547Y-88792455D01*
X132207544Y-88792452D01*
X132092335Y-88706206D01*
X132092328Y-88706202D01*
X131957482Y-88655908D01*
X131957483Y-88655908D01*
X131897883Y-88649501D01*
X131897881Y-88649500D01*
X131897873Y-88649500D01*
X131897864Y-88649500D01*
X130102129Y-88649500D01*
X130102123Y-88649501D01*
X130042516Y-88655908D01*
X129907671Y-88706202D01*
X129907664Y-88706206D01*
X129792455Y-88792452D01*
X129792452Y-88792455D01*
X129706206Y-88907664D01*
X129706202Y-88907671D01*
X129655908Y-89042517D01*
X129649501Y-89102116D01*
X129649501Y-89102123D01*
X129649500Y-89102135D01*
X122073100Y-89102135D01*
X122073100Y-75399950D01*
X122092785Y-75332911D01*
X122093941Y-75331143D01*
X122112684Y-75303094D01*
X122169258Y-75166512D01*
X122198100Y-75021517D01*
X122198100Y-74873682D01*
X122198100Y-74873679D01*
X122169259Y-74728692D01*
X122169258Y-74728691D01*
X122169258Y-74728687D01*
X122158533Y-74702795D01*
X122112687Y-74592111D01*
X122112680Y-74592098D01*
X122030551Y-74469184D01*
X122030548Y-74469180D01*
X111326473Y-63765106D01*
X111292988Y-63703783D01*
X111291681Y-63658028D01*
X111300500Y-63602352D01*
X111300500Y-63397648D01*
X118859500Y-63397648D01*
X118859500Y-63602351D01*
X118891522Y-63804534D01*
X118954781Y-63999223D01*
X119018691Y-64124653D01*
X119038872Y-64164259D01*
X119047715Y-64181613D01*
X119168028Y-64347213D01*
X119312786Y-64491971D01*
X119462981Y-64601092D01*
X119478390Y-64612287D01*
X119594607Y-64671503D01*
X119660776Y-64705218D01*
X119660778Y-64705218D01*
X119660781Y-64705220D01*
X119765137Y-64739127D01*
X119855465Y-64768477D01*
X119916607Y-64778161D01*
X120057648Y-64800500D01*
X120057649Y-64800500D01*
X120262351Y-64800500D01*
X120262352Y-64800500D01*
X120464534Y-64768477D01*
X120659219Y-64705220D01*
X120841610Y-64612287D01*
X120934590Y-64544732D01*
X121007213Y-64491971D01*
X121007215Y-64491968D01*
X121007219Y-64491966D01*
X121151966Y-64347219D01*
X121151968Y-64347215D01*
X121151971Y-64347213D01*
X121204732Y-64274590D01*
X121272287Y-64181610D01*
X121365220Y-63999219D01*
X121428477Y-63804534D01*
X121460500Y-63602352D01*
X121460500Y-63397648D01*
X121441433Y-63277263D01*
X121428477Y-63195465D01*
X121365218Y-63000776D01*
X121331503Y-62934607D01*
X121272287Y-62818390D01*
X121264556Y-62807749D01*
X121151971Y-62652786D01*
X121007213Y-62508028D01*
X120841613Y-62387715D01*
X120841612Y-62387714D01*
X120841610Y-62387713D01*
X120784653Y-62358691D01*
X120659223Y-62294781D01*
X120464534Y-62231522D01*
X120399857Y-62221279D01*
X120304691Y-62206206D01*
X120262352Y-62199500D01*
X120057648Y-62199500D01*
X120033329Y-62203351D01*
X119855465Y-62231522D01*
X119660776Y-62294781D01*
X119478386Y-62387715D01*
X119312786Y-62508028D01*
X119168028Y-62652786D01*
X119047715Y-62818386D01*
X118954781Y-63000776D01*
X118891522Y-63195465D01*
X118859500Y-63397648D01*
X111300500Y-63397648D01*
X111281433Y-63277263D01*
X111268477Y-63195465D01*
X111205218Y-63000776D01*
X111171503Y-62934607D01*
X111112287Y-62818390D01*
X111104556Y-62807749D01*
X110991971Y-62652786D01*
X110847213Y-62508028D01*
X110681613Y-62387715D01*
X110681612Y-62387714D01*
X110681610Y-62387713D01*
X110624653Y-62358691D01*
X110499223Y-62294781D01*
X110304534Y-62231522D01*
X110129995Y-62203878D01*
X110102352Y-62199500D01*
X109897648Y-62199500D01*
X109873329Y-62203351D01*
X109695465Y-62231522D01*
X109500776Y-62294781D01*
X109318386Y-62387715D01*
X109152786Y-62508028D01*
X109008028Y-62652786D01*
X108887715Y-62818386D01*
X108794781Y-63000776D01*
X108731522Y-63195465D01*
X108699500Y-63397648D01*
X105986640Y-63397648D01*
X105894266Y-63277263D01*
X105894260Y-63277256D01*
X105722743Y-63105739D01*
X105722736Y-63105733D01*
X105530293Y-62958067D01*
X105530292Y-62958066D01*
X105530289Y-62958064D01*
X105320212Y-62836776D01*
X105320205Y-62836773D01*
X105096104Y-62743947D01*
X104861785Y-62681161D01*
X104621289Y-62649500D01*
X104621288Y-62649500D01*
X104378712Y-62649500D01*
X104378711Y-62649500D01*
X104138214Y-62681161D01*
X103903895Y-62743947D01*
X103679794Y-62836773D01*
X103679785Y-62836777D01*
X103469706Y-62958067D01*
X103277263Y-63105733D01*
X103277256Y-63105739D01*
X103105739Y-63277256D01*
X103105733Y-63277263D01*
X102958067Y-63469706D01*
X102836777Y-63679785D01*
X102836773Y-63679794D01*
X102743947Y-63903895D01*
X102681161Y-64138214D01*
X102649500Y-64378711D01*
X100500500Y-64378711D01*
X100500500Y-62102135D01*
X123649500Y-62102135D01*
X123649500Y-63897870D01*
X123649501Y-63897876D01*
X123655908Y-63957483D01*
X123706202Y-64092328D01*
X123706206Y-64092335D01*
X123792452Y-64207544D01*
X123792455Y-64207547D01*
X123907664Y-64293793D01*
X123907671Y-64293797D01*
X124042517Y-64344091D01*
X124042516Y-64344091D01*
X124049444Y-64344835D01*
X124102127Y-64350500D01*
X125897872Y-64350499D01*
X125957483Y-64344091D01*
X126092331Y-64293796D01*
X126207546Y-64207546D01*
X126293796Y-64092331D01*
X126344091Y-63957483D01*
X126350500Y-63897873D01*
X126350499Y-62102128D01*
X126344091Y-62042517D01*
X126293796Y-61907669D01*
X126293795Y-61907668D01*
X126293793Y-61907664D01*
X126207547Y-61792455D01*
X126207544Y-61792452D01*
X126092335Y-61706206D01*
X126092328Y-61706202D01*
X125957482Y-61655908D01*
X125957483Y-61655908D01*
X125897883Y-61649501D01*
X125897881Y-61649500D01*
X125897873Y-61649500D01*
X125897864Y-61649500D01*
X124102129Y-61649500D01*
X124102123Y-61649501D01*
X124042516Y-61655908D01*
X123907671Y-61706202D01*
X123907664Y-61706206D01*
X123792455Y-61792452D01*
X123792452Y-61792455D01*
X123706206Y-61907664D01*
X123706202Y-61907671D01*
X123655908Y-62042517D01*
X123649501Y-62102116D01*
X123649501Y-62102123D01*
X123649500Y-62102135D01*
X100500500Y-62102135D01*
X100500500Y-60624500D01*
X100520185Y-60557461D01*
X100572989Y-60511706D01*
X100624500Y-60500500D01*
X199375500Y-60500500D01*
X199442539Y-60520185D01*
G37*
%TD.AperFunction*%
%TD*%
M02*
