%TF.GenerationSoftware,KiCad,Pcbnew,10.0.3*%
%TF.CreationDate,2026-07-12T15:59:19+01:00*%
%TF.ProjectId,default,64656661-756c-4742-9e6b-696361645f70,rev?*%
%TF.SameCoordinates,Original*%
%TF.FileFunction,Soldermask,Bot*%
%TF.FilePolarity,Negative*%
%FSLAX46Y46*%
G04 Gerber Fmt 4.6, Leading zero omitted, Abs format (unit mm)*
G04 Created by KiCad (PCBNEW 10.0.3) date 2026-07-12 15:59:19*
%MOMM*%
%LPD*%
G01*
G04 APERTURE LIST*
G04 Aperture macros list*
%AMRoundRect*
0 Rectangle with rounded corners*
0 $1 Rounding radius*
0 $2 $3 $4 $5 $6 $7 $8 $9 X,Y pos of 4 corners*
0 Add a 4 corners polygon primitive as box body*
4,1,4,$2,$3,$4,$5,$6,$7,$8,$9,$2,$3,0*
0 Add four circle primitives for the rounded corners*
1,1,$1+$1,$2,$3*
1,1,$1+$1,$4,$5*
1,1,$1+$1,$6,$7*
1,1,$1+$1,$8,$9*
0 Add four rect primitives between the rounded corners*
20,1,$1+$1,$2,$3,$4,$5,0*
20,1,$1+$1,$4,$5,$6,$7,0*
20,1,$1+$1,$6,$7,$8,$9,0*
20,1,$1+$1,$8,$9,$2,$3,0*%
G04 Aperture macros list end*
%ADD10RoundRect,0.250000X-0.550000X-0.550000X0.550000X-0.550000X0.550000X0.550000X-0.550000X0.550000X0*%
%ADD11C,1.600000*%
%ADD12R,1.700000X1.700000*%
%ADD13C,1.700000*%
%ADD14RoundRect,0.250000X-0.750000X-0.750000X0.750000X-0.750000X0.750000X0.750000X-0.750000X0.750000X0*%
%ADD15C,2.000000*%
%ADD16C,3.200000*%
%ADD17C,1.100000*%
%ADD18RoundRect,0.249999X-0.850001X-0.850001X0.850001X-0.850001X0.850001X0.850001X-0.850001X0.850001X0*%
%ADD19C,2.200000*%
%ADD20R,1.800000X1.800000*%
%ADD21C,1.800000*%
%ADD22R,1.050000X1.500000*%
%ADD23O,1.050000X1.500000*%
G04 APERTURE END LIST*
D10*
%TO.C,C2*%
X140000000Y-74000000D03*
D11*
X142500000Y-74000000D03*
%TD*%
D12*
%TO.C,J4*%
X118500000Y-103000000D03*
D13*
X118500000Y-105540000D03*
%TD*%
D14*
%TO.C,C6*%
X181000000Y-103000000D03*
D15*
X186000000Y-103000000D03*
%TD*%
D10*
%TO.C,SW2*%
X123000000Y-133000000D03*
D11*
X130620000Y-133000000D03*
%TD*%
D12*
%TO.C,J9*%
X131000000Y-90000000D03*
D13*
X131000000Y-92540000D03*
X131000000Y-95080000D03*
X131000000Y-97620000D03*
%TD*%
D11*
%TO.C,R2*%
X168000000Y-76000000D03*
X178160000Y-76000000D03*
%TD*%
%TO.C,C4*%
X176000000Y-116000000D03*
X181000000Y-116000000D03*
%TD*%
D12*
%TO.C,J13*%
X150000000Y-118500000D03*
D13*
X150000000Y-121040000D03*
X150000000Y-123580000D03*
%TD*%
D14*
%TO.C,C3*%
X111000000Y-116000000D03*
D15*
X116000000Y-116000000D03*
%TD*%
D12*
%TO.C,J5*%
X187500000Y-115000000D03*
D13*
X187500000Y-117540000D03*
X187500000Y-120080000D03*
X187500000Y-122620000D03*
X187500000Y-125160000D03*
X187500000Y-127700000D03*
%TD*%
D11*
%TO.C,R9*%
X110000000Y-63500000D03*
X120160000Y-63500000D03*
%TD*%
D12*
%TO.C,J8*%
X194000000Y-95000000D03*
D13*
X194000000Y-97540000D03*
X194000000Y-100080000D03*
%TD*%
D12*
%TO.C,J12*%
X155500000Y-119000000D03*
D13*
X155500000Y-121540000D03*
%TD*%
D12*
%TO.C,J3*%
X112500000Y-92000000D03*
D13*
X112500000Y-94540000D03*
X112500000Y-97080000D03*
X112500000Y-99620000D03*
X112500000Y-102160000D03*
X112500000Y-104700000D03*
X112500000Y-107240000D03*
%TD*%
D16*
%TO.C,H4*%
X195500000Y-135500000D03*
%TD*%
%TO.C,H1*%
X104500000Y-64500000D03*
%TD*%
%TO.C,H2*%
X195500000Y-64500000D03*
%TD*%
D11*
%TO.C,R1*%
X168000000Y-71500000D03*
X178160000Y-71500000D03*
%TD*%
D12*
%TO.C,J7*%
X188000000Y-63500000D03*
D13*
X188000000Y-66040000D03*
%TD*%
D16*
%TO.C,H3*%
X104500000Y-135500000D03*
%TD*%
D11*
%TO.C,R7*%
X104000000Y-124000000D03*
X114160000Y-124000000D03*
%TD*%
D12*
%TO.C,J6*%
X150000000Y-63000000D03*
D13*
X150000000Y-65540000D03*
X150000000Y-68080000D03*
%TD*%
D10*
%TO.C,C1*%
X136000000Y-133000000D03*
D11*
X138500000Y-133000000D03*
%TD*%
%TO.C,R3*%
X180000000Y-94000000D03*
X190160000Y-94000000D03*
%TD*%
D17*
%TO.C,J0*%
X112000000Y-135540000D03*
X114540000Y-135540000D03*
D18*
X112000000Y-133000000D03*
D19*
X114540000Y-133000000D03*
%TD*%
D20*
%TO.C,D2*%
X121500000Y-124000000D03*
D21*
X124040000Y-124000000D03*
%TD*%
D15*
%TO.C,SW1*%
X139000000Y-120000000D03*
X145500000Y-120000000D03*
X139000000Y-124500000D03*
X145500000Y-124500000D03*
%TD*%
D22*
%TO.C,Q1*%
X177000000Y-66000000D03*
D23*
X178270000Y-66000000D03*
X179540000Y-66000000D03*
%TD*%
D10*
%TO.C,C5*%
X177000000Y-122000000D03*
D11*
X179500000Y-122000000D03*
%TD*%
D12*
%TO.C,J1*%
X138570000Y-88570000D03*
D13*
X138570000Y-91110000D03*
X138570000Y-93650000D03*
X138570000Y-96190000D03*
X138570000Y-98730000D03*
X138570000Y-101270000D03*
X138570000Y-103810000D03*
X138570000Y-106350000D03*
X138570000Y-108890000D03*
X138570000Y-111430000D03*
%TD*%
D12*
%TO.C,J14*%
X125000000Y-63000000D03*
D13*
X125000000Y-65540000D03*
%TD*%
D11*
%TO.C,C9*%
X155000000Y-66000000D03*
X160000000Y-66000000D03*
%TD*%
D12*
%TO.C,J2*%
X161430000Y-88570000D03*
D13*
X161430000Y-91110000D03*
X161430000Y-93650000D03*
X161430000Y-96190000D03*
X161430000Y-98730000D03*
X161430000Y-101270000D03*
X161430000Y-103810000D03*
X161430000Y-106350000D03*
X161430000Y-108890000D03*
X161430000Y-111430000D03*
%TD*%
M02*
