M48
; DRILL file KiCad 10.0.3 date 2026-07-12T17:45:40
; FORMAT={-:-/ absolute / metric / decimal}
; #@! TF.CreationDate,2026-07-12T17:45:40+01:00
; #@! TF.GenerationSoftware,Kicad,Pcbnew,10.0.3
; #@! TF.FileFunction,MixedPlating,1,2
FMAT,2
METRIC
; #@! TA.AperFunction,Plated,PTH,ViaDrill
T1C0.400
; #@! TA.AperFunction,Plated,PTH,ComponentDrill
T2C0.750
; #@! TA.AperFunction,Plated,PTH,ComponentDrill
T3C0.800
; #@! TA.AperFunction,Plated,PTH,ComponentDrill
T4C0.900
; #@! TA.AperFunction,Plated,PTH,ComponentDrill
T5C1.000
; #@! TA.AperFunction,Plated,PTH,ComponentDrill
T6C1.100
; #@! TA.AperFunction,NonPlated,NPTH,ComponentDrill
T7C1.100
; #@! TA.AperFunction,NonPlated,NPTH,ComponentDrill
T8C3.200
%
G90
G05
T1
X120.524Y-92.068
X121.448Y-95.829
X136.153Y-95.208
X144.22Y-107.246
X158.902Y-91.379
X163.571Y-118.713
X179.796Y-91.723
X184.113Y-96.782
X187.741Y-102.421
T2
X177.0Y-66.0
X178.27Y-66.0
X179.54Y-66.0
T3
X104.0Y-124.0
X110.0Y-63.5
X114.16Y-124.0
X120.16Y-63.5
X123.0Y-133.0
X130.62Y-133.0
X136.0Y-133.0
X138.5Y-133.0
X140.0Y-74.0
X142.5Y-74.0
X155.0Y-66.0
X160.0Y-66.0
X168.0Y-71.5
X168.0Y-76.0
X176.0Y-116.0
X177.0Y-122.0
X178.16Y-71.5
X178.16Y-76.0
X179.5Y-122.0
X180.0Y-94.0
X181.0Y-116.0
X190.16Y-94.0
T4
X121.5Y-124.0
X124.04Y-124.0
T5
X111.0Y-116.0
X112.5Y-92.0
X112.5Y-94.54
X112.5Y-97.08
X112.5Y-99.62
X112.5Y-102.16
X112.5Y-104.7
X112.5Y-107.24
X116.0Y-116.0
X125.0Y-63.0
X125.0Y-65.54
X131.0Y-90.0
X131.0Y-92.54
X131.0Y-95.08
X131.0Y-97.62
X138.57Y-88.57
X138.57Y-91.11
X138.57Y-93.65
X138.57Y-96.19
X138.57Y-98.73
X138.57Y-101.27
X138.57Y-103.81
X138.57Y-106.35
X138.57Y-108.89
X138.57Y-111.43
X146.5Y-63.0
X149.04Y-63.0
X150.0Y-118.5
X150.0Y-121.04
X150.0Y-123.58
X151.58Y-63.0
X155.5Y-119.0
X155.5Y-121.54
X161.43Y-88.57
X161.43Y-91.11
X161.43Y-93.65
X161.43Y-96.19
X161.43Y-98.73
X161.43Y-101.27
X161.43Y-103.81
X161.43Y-106.35
X161.43Y-108.89
X161.43Y-111.43
X181.0Y-103.0
X186.0Y-103.0
X187.5Y-115.0
X187.5Y-117.54
X187.5Y-120.08
X187.5Y-122.62
X187.5Y-125.16
X187.5Y-127.7
X188.0Y-63.5
X188.0Y-66.04
X194.0Y-95.0
X194.0Y-97.54
X194.0Y-100.08
T6
X112.0Y-133.0
X114.54Y-133.0
X139.0Y-120.0
X139.0Y-124.5
X145.5Y-120.0
X145.5Y-124.5
T7
X112.0Y-135.54
X114.54Y-135.54
T8
X104.5Y-64.5
X104.5Y-135.5
X195.5Y-64.5
X195.5Y-135.5
M30
