%TF.GenerationSoftware,KiCad,Pcbnew,10.0.3*%
%TF.CreationDate,2026-07-12T17:09:41+01:00*%
%TF.ProjectId,default,64656661-756c-4742-9e6b-696361645f70,rev?*%
%TF.SameCoordinates,Original*%
%TF.FileFunction,Drillmap*%
%TF.FilePolarity,Positive*%
%FSLAX45Y45*%
G04 Gerber Fmt 4.5, Leading zero omitted, Abs format (unit mm)*
G04 Created by KiCad (PCBNEW 10.0.3) date 2026-07-12 17:09:41*
%MOMM*%
%LPD*%
G01*
G04 APERTURE LIST*
%ADD10C,0.100000*%
%ADD11C,0.200000*%
%ADD12C,0.110000*%
%ADD13C,0.320000*%
G04 APERTURE END LIST*
D10*
X10000000Y-6000000D02*
X20000000Y-6000000D01*
X10000000Y-14000000D02*
X10000000Y-6000000D01*
X20000000Y-6000000D02*
X20000000Y-14000000D01*
X20000000Y-14000000D02*
X10000000Y-14000000D01*
D11*
D10*
X12032400Y-9186830D02*
X12072400Y-9226830D01*
X12072400Y-9186830D02*
X12032400Y-9226830D01*
X12124800Y-9562920D02*
X12164800Y-9602920D01*
X12164800Y-9562920D02*
X12124800Y-9602920D01*
X13595300Y-9500790D02*
X13635300Y-9540790D01*
X13635300Y-9500790D02*
X13595300Y-9540790D01*
X14401990Y-10704650D02*
X14441990Y-10744650D01*
X14441990Y-10704650D02*
X14401990Y-10744650D01*
X15870200Y-9117860D02*
X15910200Y-9157860D01*
X15910200Y-9117860D02*
X15870200Y-9157860D01*
X16337100Y-11851300D02*
X16377100Y-11891300D01*
X16377100Y-11851300D02*
X16337100Y-11891300D01*
X17959600Y-9152320D02*
X17999600Y-9192320D01*
X17999600Y-9152320D02*
X17959600Y-9192320D01*
X18391300Y-9658160D02*
X18431300Y-9698160D01*
X18431300Y-9658160D02*
X18391300Y-9698160D01*
X18754100Y-10222100D02*
X18794100Y-10262100D01*
X18794100Y-10222100D02*
X18754100Y-10262100D01*
X17737500Y-6600000D02*
G75*
G02*
X17662500Y-6600000I-37500J0D01*
G01*
X17662500Y-6600000D02*
G75*
G02*
X17737500Y-6600000I37500J0D01*
G01*
X17864500Y-6600000D02*
G75*
G02*
X17789500Y-6600000I-37500J0D01*
G01*
X17789500Y-6600000D02*
G75*
G02*
X17864500Y-6600000I37500J0D01*
G01*
X17991500Y-6600000D02*
G75*
G02*
X17916500Y-6600000I-37500J0D01*
G01*
X17916500Y-6600000D02*
G75*
G02*
X17991500Y-6600000I37500J0D01*
G01*
X10400000Y-12360000D02*
X10400000Y-12440000D01*
X10360000Y-12400000D02*
X10440000Y-12400000D01*
X11000000Y-6310000D02*
X11000000Y-6390000D01*
X10960000Y-6350000D02*
X11040000Y-6350000D01*
X11416000Y-12360000D02*
X11416000Y-12440000D01*
X11376000Y-12400000D02*
X11456000Y-12400000D01*
X12016000Y-6310000D02*
X12016000Y-6390000D01*
X11976000Y-6350000D02*
X12056000Y-6350000D01*
X12300000Y-13260000D02*
X12300000Y-13340000D01*
X12260000Y-13300000D02*
X12340000Y-13300000D01*
X13062000Y-13260000D02*
X13062000Y-13340000D01*
X13022000Y-13300000D02*
X13102000Y-13300000D01*
X13600000Y-13260000D02*
X13600000Y-13340000D01*
X13560000Y-13300000D02*
X13640000Y-13300000D01*
X13850000Y-13260000D02*
X13850000Y-13340000D01*
X13810000Y-13300000D02*
X13890000Y-13300000D01*
X14000000Y-7360000D02*
X14000000Y-7440000D01*
X13960000Y-7400000D02*
X14040000Y-7400000D01*
X14250000Y-7360000D02*
X14250000Y-7440000D01*
X14210000Y-7400000D02*
X14290000Y-7400000D01*
X15500000Y-6560000D02*
X15500000Y-6640000D01*
X15460000Y-6600000D02*
X15540000Y-6600000D01*
X16000000Y-6560000D02*
X16000000Y-6640000D01*
X15960000Y-6600000D02*
X16040000Y-6600000D01*
X16800000Y-7110000D02*
X16800000Y-7190000D01*
X16760000Y-7150000D02*
X16840000Y-7150000D01*
X16800000Y-7560000D02*
X16800000Y-7640000D01*
X16760000Y-7600000D02*
X16840000Y-7600000D01*
X17600000Y-11560000D02*
X17600000Y-11640000D01*
X17560000Y-11600000D02*
X17640000Y-11600000D01*
X17700000Y-12160000D02*
X17700000Y-12240000D01*
X17660000Y-12200000D02*
X17740000Y-12200000D01*
X17816000Y-7110000D02*
X17816000Y-7190000D01*
X17776000Y-7150000D02*
X17856000Y-7150000D01*
X17816000Y-7560000D02*
X17816000Y-7640000D01*
X17776000Y-7600000D02*
X17856000Y-7600000D01*
X17950000Y-12160000D02*
X17950000Y-12240000D01*
X17910000Y-12200000D02*
X17990000Y-12200000D01*
X18000000Y-9360000D02*
X18000000Y-9440000D01*
X17960000Y-9400000D02*
X18040000Y-9400000D01*
X18100000Y-11560000D02*
X18100000Y-11640000D01*
X18060000Y-11600000D02*
X18140000Y-11600000D01*
X19016000Y-9360000D02*
X19016000Y-9440000D01*
X18976000Y-9400000D02*
X19056000Y-9400000D01*
X12181820Y-12431820D02*
X12181820Y-12368180D01*
X12118180Y-12368180D01*
X12118180Y-12431820D01*
X12181820Y-12431820D01*
X12435820Y-12431820D02*
X12435820Y-12368180D01*
X12372180Y-12368180D01*
X12372180Y-12431820D01*
X12435820Y-12431820D01*
X11100000Y-11650000D02*
X11150000Y-11600000D01*
X11100000Y-11550000D01*
X11050000Y-11600000D01*
X11100000Y-11650000D01*
X11250000Y-9250000D02*
X11300000Y-9200000D01*
X11250000Y-9150000D01*
X11200000Y-9200000D01*
X11250000Y-9250000D01*
X11250000Y-9504000D02*
X11300000Y-9454000D01*
X11250000Y-9404000D01*
X11200000Y-9454000D01*
X11250000Y-9504000D01*
X11250000Y-9758000D02*
X11300000Y-9708000D01*
X11250000Y-9658000D01*
X11200000Y-9708000D01*
X11250000Y-9758000D01*
X11250000Y-10012000D02*
X11300000Y-9962000D01*
X11250000Y-9912000D01*
X11200000Y-9962000D01*
X11250000Y-10012000D01*
X11250000Y-10266000D02*
X11300000Y-10216000D01*
X11250000Y-10166000D01*
X11200000Y-10216000D01*
X11250000Y-10266000D01*
X11250000Y-10520000D02*
X11300000Y-10470000D01*
X11250000Y-10420000D01*
X11200000Y-10470000D01*
X11250000Y-10520000D01*
X11250000Y-10774000D02*
X11300000Y-10724000D01*
X11250000Y-10674000D01*
X11200000Y-10724000D01*
X11250000Y-10774000D01*
X11600000Y-11650000D02*
X11650000Y-11600000D01*
X11600000Y-11550000D01*
X11550000Y-11600000D01*
X11600000Y-11650000D01*
X12500000Y-6350000D02*
X12550000Y-6300000D01*
X12500000Y-6250000D01*
X12450000Y-6300000D01*
X12500000Y-6350000D01*
X12500000Y-6604000D02*
X12550000Y-6554000D01*
X12500000Y-6504000D01*
X12450000Y-6554000D01*
X12500000Y-6604000D01*
X13100000Y-9050000D02*
X13150000Y-9000000D01*
X13100000Y-8950000D01*
X13050000Y-9000000D01*
X13100000Y-9050000D01*
X13100000Y-9304000D02*
X13150000Y-9254000D01*
X13100000Y-9204000D01*
X13050000Y-9254000D01*
X13100000Y-9304000D01*
X13100000Y-9558000D02*
X13150000Y-9508000D01*
X13100000Y-9458000D01*
X13050000Y-9508000D01*
X13100000Y-9558000D01*
X13100000Y-9812000D02*
X13150000Y-9762000D01*
X13100000Y-9712000D01*
X13050000Y-9762000D01*
X13100000Y-9812000D01*
X13857000Y-8907000D02*
X13907000Y-8857000D01*
X13857000Y-8807000D01*
X13807000Y-8857000D01*
X13857000Y-8907000D01*
X13857000Y-9161000D02*
X13907000Y-9111000D01*
X13857000Y-9061000D01*
X13807000Y-9111000D01*
X13857000Y-9161000D01*
X13857000Y-9415000D02*
X13907000Y-9365000D01*
X13857000Y-9315000D01*
X13807000Y-9365000D01*
X13857000Y-9415000D01*
X13857000Y-9669000D02*
X13907000Y-9619000D01*
X13857000Y-9569000D01*
X13807000Y-9619000D01*
X13857000Y-9669000D01*
X13857000Y-9923000D02*
X13907000Y-9873000D01*
X13857000Y-9823000D01*
X13807000Y-9873000D01*
X13857000Y-9923000D01*
X13857000Y-10177000D02*
X13907000Y-10127000D01*
X13857000Y-10077000D01*
X13807000Y-10127000D01*
X13857000Y-10177000D01*
X13857000Y-10431000D02*
X13907000Y-10381000D01*
X13857000Y-10331000D01*
X13807000Y-10381000D01*
X13857000Y-10431000D01*
X13857000Y-10685000D02*
X13907000Y-10635000D01*
X13857000Y-10585000D01*
X13807000Y-10635000D01*
X13857000Y-10685000D01*
X13857000Y-10939000D02*
X13907000Y-10889000D01*
X13857000Y-10839000D01*
X13807000Y-10889000D01*
X13857000Y-10939000D01*
X13857000Y-11193000D02*
X13907000Y-11143000D01*
X13857000Y-11093000D01*
X13807000Y-11143000D01*
X13857000Y-11193000D01*
X14650000Y-6350000D02*
X14700000Y-6300000D01*
X14650000Y-6250000D01*
X14600000Y-6300000D01*
X14650000Y-6350000D01*
X14904000Y-6350000D02*
X14954000Y-6300000D01*
X14904000Y-6250000D01*
X14854000Y-6300000D01*
X14904000Y-6350000D01*
X15000000Y-11900000D02*
X15050000Y-11850000D01*
X15000000Y-11800000D01*
X14950000Y-11850000D01*
X15000000Y-11900000D01*
X15000000Y-12154000D02*
X15050000Y-12104000D01*
X15000000Y-12054000D01*
X14950000Y-12104000D01*
X15000000Y-12154000D01*
X15000000Y-12408000D02*
X15050000Y-12358000D01*
X15000000Y-12308000D01*
X14950000Y-12358000D01*
X15000000Y-12408000D01*
X15158000Y-6350000D02*
X15208000Y-6300000D01*
X15158000Y-6250000D01*
X15108000Y-6300000D01*
X15158000Y-6350000D01*
X15550000Y-11950000D02*
X15600000Y-11900000D01*
X15550000Y-11850000D01*
X15500000Y-11900000D01*
X15550000Y-11950000D01*
X15550000Y-12204000D02*
X15600000Y-12154000D01*
X15550000Y-12104000D01*
X15500000Y-12154000D01*
X15550000Y-12204000D01*
X16143000Y-8907000D02*
X16193000Y-8857000D01*
X16143000Y-8807000D01*
X16093000Y-8857000D01*
X16143000Y-8907000D01*
X16143000Y-9161000D02*
X16193000Y-9111000D01*
X16143000Y-9061000D01*
X16093000Y-9111000D01*
X16143000Y-9161000D01*
X16143000Y-9415000D02*
X16193000Y-9365000D01*
X16143000Y-9315000D01*
X16093000Y-9365000D01*
X16143000Y-9415000D01*
X16143000Y-9669000D02*
X16193000Y-9619000D01*
X16143000Y-9569000D01*
X16093000Y-9619000D01*
X16143000Y-9669000D01*
X16143000Y-9923000D02*
X16193000Y-9873000D01*
X16143000Y-9823000D01*
X16093000Y-9873000D01*
X16143000Y-9923000D01*
X16143000Y-10177000D02*
X16193000Y-10127000D01*
X16143000Y-10077000D01*
X16093000Y-10127000D01*
X16143000Y-10177000D01*
X16143000Y-10431000D02*
X16193000Y-10381000D01*
X16143000Y-10331000D01*
X16093000Y-10381000D01*
X16143000Y-10431000D01*
X16143000Y-10685000D02*
X16193000Y-10635000D01*
X16143000Y-10585000D01*
X16093000Y-10635000D01*
X16143000Y-10685000D01*
X16143000Y-10939000D02*
X16193000Y-10889000D01*
X16143000Y-10839000D01*
X16093000Y-10889000D01*
X16143000Y-10939000D01*
X16143000Y-11193000D02*
X16193000Y-11143000D01*
X16143000Y-11093000D01*
X16093000Y-11143000D01*
X16143000Y-11193000D01*
X18100000Y-10350000D02*
X18150000Y-10300000D01*
X18100000Y-10250000D01*
X18050000Y-10300000D01*
X18100000Y-10350000D01*
X18600000Y-10350000D02*
X18650000Y-10300000D01*
X18600000Y-10250000D01*
X18550000Y-10300000D01*
X18600000Y-10350000D01*
X18750000Y-11550000D02*
X18800000Y-11500000D01*
X18750000Y-11450000D01*
X18700000Y-11500000D01*
X18750000Y-11550000D01*
X18750000Y-11804000D02*
X18800000Y-11754000D01*
X18750000Y-11704000D01*
X18700000Y-11754000D01*
X18750000Y-11804000D01*
X18750000Y-12058000D02*
X18800000Y-12008000D01*
X18750000Y-11958000D01*
X18700000Y-12008000D01*
X18750000Y-12058000D01*
X18750000Y-12312000D02*
X18800000Y-12262000D01*
X18750000Y-12212000D01*
X18700000Y-12262000D01*
X18750000Y-12312000D01*
X18750000Y-12566000D02*
X18800000Y-12516000D01*
X18750000Y-12466000D01*
X18700000Y-12516000D01*
X18750000Y-12566000D01*
X18750000Y-12820000D02*
X18800000Y-12770000D01*
X18750000Y-12720000D01*
X18700000Y-12770000D01*
X18750000Y-12820000D01*
X18800000Y-6400000D02*
X18850000Y-6350000D01*
X18800000Y-6300000D01*
X18750000Y-6350000D01*
X18800000Y-6400000D01*
X18800000Y-6654000D02*
X18850000Y-6604000D01*
X18800000Y-6554000D01*
X18750000Y-6604000D01*
X18800000Y-6654000D01*
X19400000Y-9550000D02*
X19450000Y-9500000D01*
X19400000Y-9450000D01*
X19350000Y-9500000D01*
X19400000Y-9550000D01*
X19400000Y-9804000D02*
X19450000Y-9754000D01*
X19400000Y-9704000D01*
X19350000Y-9754000D01*
X19400000Y-9804000D01*
X19400000Y-10058000D02*
X19450000Y-10008000D01*
X19400000Y-9958000D01*
X19350000Y-10008000D01*
X19400000Y-10058000D01*
D12*
X11145000Y-13245000D02*
X11255000Y-13355000D01*
X11255000Y-13245000D02*
X11145000Y-13355000D01*
X11255000Y-13300000D02*
G75*
G02*
X11145000Y-13300000I-55000J0D01*
G01*
X11145000Y-13300000D02*
G75*
G02*
X11255000Y-13300000I55000J0D01*
G01*
X11399000Y-13245000D02*
X11509000Y-13355000D01*
X11509000Y-13245000D02*
X11399000Y-13355000D01*
X11509000Y-13300000D02*
G75*
G02*
X11399000Y-13300000I-55000J0D01*
G01*
X11399000Y-13300000D02*
G75*
G02*
X11509000Y-13300000I55000J0D01*
G01*
X13845000Y-11945000D02*
X13955000Y-12055000D01*
X13955000Y-11945000D02*
X13845000Y-12055000D01*
X13955000Y-12000000D02*
G75*
G02*
X13845000Y-12000000I-55000J0D01*
G01*
X13845000Y-12000000D02*
G75*
G02*
X13955000Y-12000000I55000J0D01*
G01*
X13845000Y-12395000D02*
X13955000Y-12505000D01*
X13955000Y-12395000D02*
X13845000Y-12505000D01*
X13955000Y-12450000D02*
G75*
G02*
X13845000Y-12450000I-55000J0D01*
G01*
X13845000Y-12450000D02*
G75*
G02*
X13955000Y-12450000I55000J0D01*
G01*
X14495000Y-11945000D02*
X14605000Y-12055000D01*
X14605000Y-11945000D02*
X14495000Y-12055000D01*
X14605000Y-12000000D02*
G75*
G02*
X14495000Y-12000000I-55000J0D01*
G01*
X14495000Y-12000000D02*
G75*
G02*
X14605000Y-12000000I55000J0D01*
G01*
X14495000Y-12395000D02*
X14605000Y-12505000D01*
X14605000Y-12395000D02*
X14495000Y-12505000D01*
X14605000Y-12450000D02*
G75*
G02*
X14495000Y-12450000I-55000J0D01*
G01*
X14495000Y-12450000D02*
G75*
G02*
X14605000Y-12450000I55000J0D01*
G01*
X11145000Y-13499000D02*
X11255000Y-13609000D01*
X11255000Y-13499000D02*
X11145000Y-13609000D01*
X11200000Y-13499000D02*
X11200000Y-13609000D01*
X11145000Y-13554000D02*
X11255000Y-13554000D01*
X11399000Y-13499000D02*
X11509000Y-13609000D01*
X11509000Y-13499000D02*
X11399000Y-13609000D01*
X11454000Y-13499000D02*
X11454000Y-13609000D01*
X11399000Y-13554000D02*
X11509000Y-13554000D01*
D13*
X10290000Y-6290000D02*
X10610000Y-6610000D01*
X10610000Y-6290000D02*
X10290000Y-6610000D01*
X10563138Y-6563138D02*
X10563138Y-6336862D01*
X10336862Y-6336862D01*
X10336862Y-6563138D01*
X10563138Y-6563138D01*
X10290000Y-13390000D02*
X10610000Y-13710000D01*
X10610000Y-13390000D02*
X10290000Y-13710000D01*
X10563138Y-13663138D02*
X10563138Y-13436862D01*
X10336862Y-13436862D01*
X10336862Y-13663138D01*
X10563138Y-13663138D01*
X19390000Y-6290000D02*
X19710000Y-6610000D01*
X19710000Y-6290000D02*
X19390000Y-6610000D01*
X19663138Y-6563138D02*
X19663138Y-6336862D01*
X19436862Y-6336862D01*
X19436862Y-6563138D01*
X19663138Y-6563138D01*
X19390000Y-13390000D02*
X19710000Y-13710000D01*
X19710000Y-13390000D02*
X19390000Y-13710000D01*
X19663138Y-13663138D02*
X19663138Y-13436862D01*
X19436862Y-13436862D01*
X19436862Y-13663138D01*
X19663138Y-13663138D01*
D11*
X10255777Y-14316484D02*
X10255777Y-14116484D01*
X10255777Y-14116484D02*
X10303396Y-14116484D01*
X10303396Y-14116484D02*
X10331967Y-14126008D01*
X10331967Y-14126008D02*
X10351015Y-14145055D01*
X10351015Y-14145055D02*
X10360539Y-14164103D01*
X10360539Y-14164103D02*
X10370063Y-14202198D01*
X10370063Y-14202198D02*
X10370063Y-14230769D01*
X10370063Y-14230769D02*
X10360539Y-14268865D01*
X10360539Y-14268865D02*
X10351015Y-14287912D01*
X10351015Y-14287912D02*
X10331967Y-14306960D01*
X10331967Y-14306960D02*
X10303396Y-14316484D01*
X10303396Y-14316484D02*
X10255777Y-14316484D01*
X10455777Y-14316484D02*
X10455777Y-14183150D01*
X10455777Y-14221246D02*
X10465301Y-14202198D01*
X10465301Y-14202198D02*
X10474824Y-14192674D01*
X10474824Y-14192674D02*
X10493872Y-14183150D01*
X10493872Y-14183150D02*
X10512920Y-14183150D01*
X10579586Y-14316484D02*
X10579586Y-14183150D01*
X10579586Y-14116484D02*
X10570063Y-14126008D01*
X10570063Y-14126008D02*
X10579586Y-14135531D01*
X10579586Y-14135531D02*
X10589110Y-14126008D01*
X10589110Y-14126008D02*
X10579586Y-14116484D01*
X10579586Y-14116484D02*
X10579586Y-14135531D01*
X10703396Y-14316484D02*
X10684348Y-14306960D01*
X10684348Y-14306960D02*
X10674824Y-14287912D01*
X10674824Y-14287912D02*
X10674824Y-14116484D01*
X10808158Y-14316484D02*
X10789110Y-14306960D01*
X10789110Y-14306960D02*
X10779586Y-14287912D01*
X10779586Y-14287912D02*
X10779586Y-14116484D01*
X11036729Y-14316484D02*
X11036729Y-14116484D01*
X11036729Y-14116484D02*
X11103396Y-14259341D01*
X11103396Y-14259341D02*
X11170063Y-14116484D01*
X11170063Y-14116484D02*
X11170063Y-14316484D01*
X11351015Y-14316484D02*
X11351015Y-14211722D01*
X11351015Y-14211722D02*
X11341491Y-14192674D01*
X11341491Y-14192674D02*
X11322443Y-14183150D01*
X11322443Y-14183150D02*
X11284348Y-14183150D01*
X11284348Y-14183150D02*
X11265301Y-14192674D01*
X11351015Y-14306960D02*
X11331967Y-14316484D01*
X11331967Y-14316484D02*
X11284348Y-14316484D01*
X11284348Y-14316484D02*
X11265301Y-14306960D01*
X11265301Y-14306960D02*
X11255777Y-14287912D01*
X11255777Y-14287912D02*
X11255777Y-14268865D01*
X11255777Y-14268865D02*
X11265301Y-14249817D01*
X11265301Y-14249817D02*
X11284348Y-14240293D01*
X11284348Y-14240293D02*
X11331967Y-14240293D01*
X11331967Y-14240293D02*
X11351015Y-14230769D01*
X11446253Y-14183150D02*
X11446253Y-14383150D01*
X11446253Y-14192674D02*
X11465301Y-14183150D01*
X11465301Y-14183150D02*
X11503396Y-14183150D01*
X11503396Y-14183150D02*
X11522443Y-14192674D01*
X11522443Y-14192674D02*
X11531967Y-14202198D01*
X11531967Y-14202198D02*
X11541491Y-14221246D01*
X11541491Y-14221246D02*
X11541491Y-14278388D01*
X11541491Y-14278388D02*
X11531967Y-14297436D01*
X11531967Y-14297436D02*
X11522443Y-14306960D01*
X11522443Y-14306960D02*
X11503396Y-14316484D01*
X11503396Y-14316484D02*
X11465301Y-14316484D01*
X11465301Y-14316484D02*
X11446253Y-14306960D01*
X11627205Y-14297436D02*
X11636729Y-14306960D01*
X11636729Y-14306960D02*
X11627205Y-14316484D01*
X11627205Y-14316484D02*
X11617682Y-14306960D01*
X11617682Y-14306960D02*
X11627205Y-14297436D01*
X11627205Y-14297436D02*
X11627205Y-14316484D01*
X11627205Y-14192674D02*
X11636729Y-14202198D01*
X11636729Y-14202198D02*
X11627205Y-14211722D01*
X11627205Y-14211722D02*
X11617682Y-14202198D01*
X11617682Y-14202198D02*
X11627205Y-14192674D01*
X11627205Y-14192674D02*
X11627205Y-14211722D01*
D10*
X9955000Y-14625000D02*
X9995000Y-14665000D01*
X9995000Y-14625000D02*
X9955000Y-14665000D01*
D11*
X10293872Y-14536484D02*
X10312920Y-14536484D01*
X10312920Y-14536484D02*
X10331967Y-14546008D01*
X10331967Y-14546008D02*
X10341491Y-14555531D01*
X10341491Y-14555531D02*
X10351015Y-14574579D01*
X10351015Y-14574579D02*
X10360539Y-14612674D01*
X10360539Y-14612674D02*
X10360539Y-14660293D01*
X10360539Y-14660293D02*
X10351015Y-14698388D01*
X10351015Y-14698388D02*
X10341491Y-14717436D01*
X10341491Y-14717436D02*
X10331967Y-14726960D01*
X10331967Y-14726960D02*
X10312920Y-14736484D01*
X10312920Y-14736484D02*
X10293872Y-14736484D01*
X10293872Y-14736484D02*
X10274824Y-14726960D01*
X10274824Y-14726960D02*
X10265301Y-14717436D01*
X10265301Y-14717436D02*
X10255777Y-14698388D01*
X10255777Y-14698388D02*
X10246253Y-14660293D01*
X10246253Y-14660293D02*
X10246253Y-14612674D01*
X10246253Y-14612674D02*
X10255777Y-14574579D01*
X10255777Y-14574579D02*
X10265301Y-14555531D01*
X10265301Y-14555531D02*
X10274824Y-14546008D01*
X10274824Y-14546008D02*
X10293872Y-14536484D01*
X10446253Y-14717436D02*
X10455777Y-14726960D01*
X10455777Y-14726960D02*
X10446253Y-14736484D01*
X10446253Y-14736484D02*
X10436729Y-14726960D01*
X10436729Y-14726960D02*
X10446253Y-14717436D01*
X10446253Y-14717436D02*
X10446253Y-14736484D01*
X10627205Y-14603150D02*
X10627205Y-14736484D01*
X10579586Y-14526960D02*
X10531967Y-14669817D01*
X10531967Y-14669817D02*
X10655777Y-14669817D01*
X10770063Y-14536484D02*
X10789110Y-14536484D01*
X10789110Y-14536484D02*
X10808158Y-14546008D01*
X10808158Y-14546008D02*
X10817682Y-14555531D01*
X10817682Y-14555531D02*
X10827205Y-14574579D01*
X10827205Y-14574579D02*
X10836729Y-14612674D01*
X10836729Y-14612674D02*
X10836729Y-14660293D01*
X10836729Y-14660293D02*
X10827205Y-14698388D01*
X10827205Y-14698388D02*
X10817682Y-14717436D01*
X10817682Y-14717436D02*
X10808158Y-14726960D01*
X10808158Y-14726960D02*
X10789110Y-14736484D01*
X10789110Y-14736484D02*
X10770063Y-14736484D01*
X10770063Y-14736484D02*
X10751015Y-14726960D01*
X10751015Y-14726960D02*
X10741491Y-14717436D01*
X10741491Y-14717436D02*
X10731967Y-14698388D01*
X10731967Y-14698388D02*
X10722444Y-14660293D01*
X10722444Y-14660293D02*
X10722444Y-14612674D01*
X10722444Y-14612674D02*
X10731967Y-14574579D01*
X10731967Y-14574579D02*
X10741491Y-14555531D01*
X10741491Y-14555531D02*
X10751015Y-14546008D01*
X10751015Y-14546008D02*
X10770063Y-14536484D01*
X10960539Y-14536484D02*
X10979586Y-14536484D01*
X10979586Y-14536484D02*
X10998634Y-14546008D01*
X10998634Y-14546008D02*
X11008158Y-14555531D01*
X11008158Y-14555531D02*
X11017682Y-14574579D01*
X11017682Y-14574579D02*
X11027205Y-14612674D01*
X11027205Y-14612674D02*
X11027205Y-14660293D01*
X11027205Y-14660293D02*
X11017682Y-14698388D01*
X11017682Y-14698388D02*
X11008158Y-14717436D01*
X11008158Y-14717436D02*
X10998634Y-14726960D01*
X10998634Y-14726960D02*
X10979586Y-14736484D01*
X10979586Y-14736484D02*
X10960539Y-14736484D01*
X10960539Y-14736484D02*
X10941491Y-14726960D01*
X10941491Y-14726960D02*
X10931967Y-14717436D01*
X10931967Y-14717436D02*
X10922444Y-14698388D01*
X10922444Y-14698388D02*
X10912920Y-14660293D01*
X10912920Y-14660293D02*
X10912920Y-14612674D01*
X10912920Y-14612674D02*
X10922444Y-14574579D01*
X10922444Y-14574579D02*
X10931967Y-14555531D01*
X10931967Y-14555531D02*
X10941491Y-14546008D01*
X10941491Y-14546008D02*
X10960539Y-14536484D01*
X11112920Y-14736484D02*
X11112920Y-14603150D01*
X11112920Y-14622198D02*
X11122444Y-14612674D01*
X11122444Y-14612674D02*
X11141491Y-14603150D01*
X11141491Y-14603150D02*
X11170063Y-14603150D01*
X11170063Y-14603150D02*
X11189110Y-14612674D01*
X11189110Y-14612674D02*
X11198634Y-14631722D01*
X11198634Y-14631722D02*
X11198634Y-14736484D01*
X11198634Y-14631722D02*
X11208158Y-14612674D01*
X11208158Y-14612674D02*
X11227205Y-14603150D01*
X11227205Y-14603150D02*
X11255777Y-14603150D01*
X11255777Y-14603150D02*
X11274824Y-14612674D01*
X11274824Y-14612674D02*
X11284348Y-14631722D01*
X11284348Y-14631722D02*
X11284348Y-14736484D01*
X11379586Y-14736484D02*
X11379586Y-14603150D01*
X11379586Y-14622198D02*
X11389110Y-14612674D01*
X11389110Y-14612674D02*
X11408158Y-14603150D01*
X11408158Y-14603150D02*
X11436729Y-14603150D01*
X11436729Y-14603150D02*
X11455777Y-14612674D01*
X11455777Y-14612674D02*
X11465301Y-14631722D01*
X11465301Y-14631722D02*
X11465301Y-14736484D01*
X11465301Y-14631722D02*
X11474824Y-14612674D01*
X11474824Y-14612674D02*
X11493872Y-14603150D01*
X11493872Y-14603150D02*
X11522443Y-14603150D01*
X11522443Y-14603150D02*
X11541491Y-14612674D01*
X11541491Y-14612674D02*
X11551015Y-14631722D01*
X11551015Y-14631722D02*
X11551015Y-14736484D01*
X11941491Y-14526960D02*
X11770063Y-14784103D01*
X12198634Y-14536484D02*
X12217682Y-14536484D01*
X12217682Y-14536484D02*
X12236729Y-14546008D01*
X12236729Y-14546008D02*
X12246253Y-14555531D01*
X12246253Y-14555531D02*
X12255777Y-14574579D01*
X12255777Y-14574579D02*
X12265301Y-14612674D01*
X12265301Y-14612674D02*
X12265301Y-14660293D01*
X12265301Y-14660293D02*
X12255777Y-14698388D01*
X12255777Y-14698388D02*
X12246253Y-14717436D01*
X12246253Y-14717436D02*
X12236729Y-14726960D01*
X12236729Y-14726960D02*
X12217682Y-14736484D01*
X12217682Y-14736484D02*
X12198634Y-14736484D01*
X12198634Y-14736484D02*
X12179586Y-14726960D01*
X12179586Y-14726960D02*
X12170063Y-14717436D01*
X12170063Y-14717436D02*
X12160539Y-14698388D01*
X12160539Y-14698388D02*
X12151015Y-14660293D01*
X12151015Y-14660293D02*
X12151015Y-14612674D01*
X12151015Y-14612674D02*
X12160539Y-14574579D01*
X12160539Y-14574579D02*
X12170063Y-14555531D01*
X12170063Y-14555531D02*
X12179586Y-14546008D01*
X12179586Y-14546008D02*
X12198634Y-14536484D01*
X12351015Y-14717436D02*
X12360539Y-14726960D01*
X12360539Y-14726960D02*
X12351015Y-14736484D01*
X12351015Y-14736484D02*
X12341491Y-14726960D01*
X12341491Y-14726960D02*
X12351015Y-14717436D01*
X12351015Y-14717436D02*
X12351015Y-14736484D01*
X12484348Y-14536484D02*
X12503396Y-14536484D01*
X12503396Y-14536484D02*
X12522444Y-14546008D01*
X12522444Y-14546008D02*
X12531967Y-14555531D01*
X12531967Y-14555531D02*
X12541491Y-14574579D01*
X12541491Y-14574579D02*
X12551015Y-14612674D01*
X12551015Y-14612674D02*
X12551015Y-14660293D01*
X12551015Y-14660293D02*
X12541491Y-14698388D01*
X12541491Y-14698388D02*
X12531967Y-14717436D01*
X12531967Y-14717436D02*
X12522444Y-14726960D01*
X12522444Y-14726960D02*
X12503396Y-14736484D01*
X12503396Y-14736484D02*
X12484348Y-14736484D01*
X12484348Y-14736484D02*
X12465301Y-14726960D01*
X12465301Y-14726960D02*
X12455777Y-14717436D01*
X12455777Y-14717436D02*
X12446253Y-14698388D01*
X12446253Y-14698388D02*
X12436729Y-14660293D01*
X12436729Y-14660293D02*
X12436729Y-14612674D01*
X12436729Y-14612674D02*
X12446253Y-14574579D01*
X12446253Y-14574579D02*
X12455777Y-14555531D01*
X12455777Y-14555531D02*
X12465301Y-14546008D01*
X12465301Y-14546008D02*
X12484348Y-14536484D01*
X12741491Y-14736484D02*
X12627206Y-14736484D01*
X12684348Y-14736484D02*
X12684348Y-14536484D01*
X12684348Y-14536484D02*
X12665301Y-14565055D01*
X12665301Y-14565055D02*
X12646253Y-14584103D01*
X12646253Y-14584103D02*
X12627206Y-14593627D01*
X12922444Y-14536484D02*
X12827206Y-14536484D01*
X12827206Y-14536484D02*
X12817682Y-14631722D01*
X12817682Y-14631722D02*
X12827206Y-14622198D01*
X12827206Y-14622198D02*
X12846253Y-14612674D01*
X12846253Y-14612674D02*
X12893872Y-14612674D01*
X12893872Y-14612674D02*
X12912920Y-14622198D01*
X12912920Y-14622198D02*
X12922444Y-14631722D01*
X12922444Y-14631722D02*
X12931967Y-14650769D01*
X12931967Y-14650769D02*
X12931967Y-14698388D01*
X12931967Y-14698388D02*
X12922444Y-14717436D01*
X12922444Y-14717436D02*
X12912920Y-14726960D01*
X12912920Y-14726960D02*
X12893872Y-14736484D01*
X12893872Y-14736484D02*
X12846253Y-14736484D01*
X12846253Y-14736484D02*
X12827206Y-14726960D01*
X12827206Y-14726960D02*
X12817682Y-14717436D01*
X12998634Y-14536484D02*
X13131967Y-14536484D01*
X13131967Y-14536484D02*
X13046253Y-14736484D01*
X13198634Y-14536484D02*
X13198634Y-14574579D01*
X13274825Y-14536484D02*
X13274825Y-14574579D01*
X13570063Y-14812674D02*
X13560539Y-14803150D01*
X13560539Y-14803150D02*
X13541491Y-14774579D01*
X13541491Y-14774579D02*
X13531968Y-14755531D01*
X13531968Y-14755531D02*
X13522444Y-14726960D01*
X13522444Y-14726960D02*
X13512920Y-14679341D01*
X13512920Y-14679341D02*
X13512920Y-14641246D01*
X13512920Y-14641246D02*
X13522444Y-14593627D01*
X13522444Y-14593627D02*
X13531968Y-14565055D01*
X13531968Y-14565055D02*
X13541491Y-14546008D01*
X13541491Y-14546008D02*
X13560539Y-14517436D01*
X13560539Y-14517436D02*
X13570063Y-14507912D01*
X13655777Y-14736484D02*
X13693872Y-14736484D01*
X13693872Y-14736484D02*
X13712920Y-14726960D01*
X13712920Y-14726960D02*
X13722444Y-14717436D01*
X13722444Y-14717436D02*
X13741491Y-14688865D01*
X13741491Y-14688865D02*
X13751015Y-14650769D01*
X13751015Y-14650769D02*
X13751015Y-14574579D01*
X13751015Y-14574579D02*
X13741491Y-14555531D01*
X13741491Y-14555531D02*
X13731968Y-14546008D01*
X13731968Y-14546008D02*
X13712920Y-14536484D01*
X13712920Y-14536484D02*
X13674825Y-14536484D01*
X13674825Y-14536484D02*
X13655777Y-14546008D01*
X13655777Y-14546008D02*
X13646253Y-14555531D01*
X13646253Y-14555531D02*
X13636729Y-14574579D01*
X13636729Y-14574579D02*
X13636729Y-14622198D01*
X13636729Y-14622198D02*
X13646253Y-14641246D01*
X13646253Y-14641246D02*
X13655777Y-14650769D01*
X13655777Y-14650769D02*
X13674825Y-14660293D01*
X13674825Y-14660293D02*
X13712920Y-14660293D01*
X13712920Y-14660293D02*
X13731968Y-14650769D01*
X13731968Y-14650769D02*
X13741491Y-14641246D01*
X13741491Y-14641246D02*
X13751015Y-14622198D01*
X13989110Y-14736484D02*
X13989110Y-14536484D01*
X14074825Y-14736484D02*
X14074825Y-14631722D01*
X14074825Y-14631722D02*
X14065301Y-14612674D01*
X14065301Y-14612674D02*
X14046253Y-14603150D01*
X14046253Y-14603150D02*
X14017682Y-14603150D01*
X14017682Y-14603150D02*
X13998634Y-14612674D01*
X13998634Y-14612674D02*
X13989110Y-14622198D01*
X14198634Y-14736484D02*
X14179587Y-14726960D01*
X14179587Y-14726960D02*
X14170063Y-14717436D01*
X14170063Y-14717436D02*
X14160539Y-14698388D01*
X14160539Y-14698388D02*
X14160539Y-14641246D01*
X14160539Y-14641246D02*
X14170063Y-14622198D01*
X14170063Y-14622198D02*
X14179587Y-14612674D01*
X14179587Y-14612674D02*
X14198634Y-14603150D01*
X14198634Y-14603150D02*
X14227206Y-14603150D01*
X14227206Y-14603150D02*
X14246253Y-14612674D01*
X14246253Y-14612674D02*
X14255777Y-14622198D01*
X14255777Y-14622198D02*
X14265301Y-14641246D01*
X14265301Y-14641246D02*
X14265301Y-14698388D01*
X14265301Y-14698388D02*
X14255777Y-14717436D01*
X14255777Y-14717436D02*
X14246253Y-14726960D01*
X14246253Y-14726960D02*
X14227206Y-14736484D01*
X14227206Y-14736484D02*
X14198634Y-14736484D01*
X14379587Y-14736484D02*
X14360539Y-14726960D01*
X14360539Y-14726960D02*
X14351015Y-14707912D01*
X14351015Y-14707912D02*
X14351015Y-14536484D01*
X14531968Y-14726960D02*
X14512920Y-14736484D01*
X14512920Y-14736484D02*
X14474825Y-14736484D01*
X14474825Y-14736484D02*
X14455777Y-14726960D01*
X14455777Y-14726960D02*
X14446253Y-14707912D01*
X14446253Y-14707912D02*
X14446253Y-14631722D01*
X14446253Y-14631722D02*
X14455777Y-14612674D01*
X14455777Y-14612674D02*
X14474825Y-14603150D01*
X14474825Y-14603150D02*
X14512920Y-14603150D01*
X14512920Y-14603150D02*
X14531968Y-14612674D01*
X14531968Y-14612674D02*
X14541491Y-14631722D01*
X14541491Y-14631722D02*
X14541491Y-14650769D01*
X14541491Y-14650769D02*
X14446253Y-14669817D01*
X14617682Y-14726960D02*
X14636730Y-14736484D01*
X14636730Y-14736484D02*
X14674825Y-14736484D01*
X14674825Y-14736484D02*
X14693872Y-14726960D01*
X14693872Y-14726960D02*
X14703396Y-14707912D01*
X14703396Y-14707912D02*
X14703396Y-14698388D01*
X14703396Y-14698388D02*
X14693872Y-14679341D01*
X14693872Y-14679341D02*
X14674825Y-14669817D01*
X14674825Y-14669817D02*
X14646253Y-14669817D01*
X14646253Y-14669817D02*
X14627206Y-14660293D01*
X14627206Y-14660293D02*
X14617682Y-14641246D01*
X14617682Y-14641246D02*
X14617682Y-14631722D01*
X14617682Y-14631722D02*
X14627206Y-14612674D01*
X14627206Y-14612674D02*
X14646253Y-14603150D01*
X14646253Y-14603150D02*
X14674825Y-14603150D01*
X14674825Y-14603150D02*
X14693872Y-14612674D01*
X14770063Y-14812674D02*
X14779587Y-14803150D01*
X14779587Y-14803150D02*
X14798634Y-14774579D01*
X14798634Y-14774579D02*
X14808158Y-14755531D01*
X14808158Y-14755531D02*
X14817682Y-14726960D01*
X14817682Y-14726960D02*
X14827206Y-14679341D01*
X14827206Y-14679341D02*
X14827206Y-14641246D01*
X14827206Y-14641246D02*
X14817682Y-14593627D01*
X14817682Y-14593627D02*
X14808158Y-14565055D01*
X14808158Y-14565055D02*
X14798634Y-14546008D01*
X14798634Y-14546008D02*
X14779587Y-14517436D01*
X14779587Y-14517436D02*
X14770063Y-14507912D01*
D10*
X9995000Y-14909000D02*
G75*
G02*
X9920000Y-14909000I-37500J0D01*
G01*
X9920000Y-14909000D02*
G75*
G02*
X9995000Y-14909000I37500J0D01*
G01*
D11*
X10293872Y-14800484D02*
X10312920Y-14800484D01*
X10312920Y-14800484D02*
X10331967Y-14810008D01*
X10331967Y-14810008D02*
X10341491Y-14819531D01*
X10341491Y-14819531D02*
X10351015Y-14838579D01*
X10351015Y-14838579D02*
X10360539Y-14876674D01*
X10360539Y-14876674D02*
X10360539Y-14924293D01*
X10360539Y-14924293D02*
X10351015Y-14962388D01*
X10351015Y-14962388D02*
X10341491Y-14981436D01*
X10341491Y-14981436D02*
X10331967Y-14990960D01*
X10331967Y-14990960D02*
X10312920Y-15000484D01*
X10312920Y-15000484D02*
X10293872Y-15000484D01*
X10293872Y-15000484D02*
X10274824Y-14990960D01*
X10274824Y-14990960D02*
X10265301Y-14981436D01*
X10265301Y-14981436D02*
X10255777Y-14962388D01*
X10255777Y-14962388D02*
X10246253Y-14924293D01*
X10246253Y-14924293D02*
X10246253Y-14876674D01*
X10246253Y-14876674D02*
X10255777Y-14838579D01*
X10255777Y-14838579D02*
X10265301Y-14819531D01*
X10265301Y-14819531D02*
X10274824Y-14810008D01*
X10274824Y-14810008D02*
X10293872Y-14800484D01*
X10446253Y-14981436D02*
X10455777Y-14990960D01*
X10455777Y-14990960D02*
X10446253Y-15000484D01*
X10446253Y-15000484D02*
X10436729Y-14990960D01*
X10436729Y-14990960D02*
X10446253Y-14981436D01*
X10446253Y-14981436D02*
X10446253Y-15000484D01*
X10522444Y-14800484D02*
X10655777Y-14800484D01*
X10655777Y-14800484D02*
X10570063Y-15000484D01*
X10827205Y-14800484D02*
X10731967Y-14800484D01*
X10731967Y-14800484D02*
X10722444Y-14895722D01*
X10722444Y-14895722D02*
X10731967Y-14886198D01*
X10731967Y-14886198D02*
X10751015Y-14876674D01*
X10751015Y-14876674D02*
X10798634Y-14876674D01*
X10798634Y-14876674D02*
X10817682Y-14886198D01*
X10817682Y-14886198D02*
X10827205Y-14895722D01*
X10827205Y-14895722D02*
X10836729Y-14914769D01*
X10836729Y-14914769D02*
X10836729Y-14962388D01*
X10836729Y-14962388D02*
X10827205Y-14981436D01*
X10827205Y-14981436D02*
X10817682Y-14990960D01*
X10817682Y-14990960D02*
X10798634Y-15000484D01*
X10798634Y-15000484D02*
X10751015Y-15000484D01*
X10751015Y-15000484D02*
X10731967Y-14990960D01*
X10731967Y-14990960D02*
X10722444Y-14981436D01*
X10960539Y-14800484D02*
X10979586Y-14800484D01*
X10979586Y-14800484D02*
X10998634Y-14810008D01*
X10998634Y-14810008D02*
X11008158Y-14819531D01*
X11008158Y-14819531D02*
X11017682Y-14838579D01*
X11017682Y-14838579D02*
X11027205Y-14876674D01*
X11027205Y-14876674D02*
X11027205Y-14924293D01*
X11027205Y-14924293D02*
X11017682Y-14962388D01*
X11017682Y-14962388D02*
X11008158Y-14981436D01*
X11008158Y-14981436D02*
X10998634Y-14990960D01*
X10998634Y-14990960D02*
X10979586Y-15000484D01*
X10979586Y-15000484D02*
X10960539Y-15000484D01*
X10960539Y-15000484D02*
X10941491Y-14990960D01*
X10941491Y-14990960D02*
X10931967Y-14981436D01*
X10931967Y-14981436D02*
X10922444Y-14962388D01*
X10922444Y-14962388D02*
X10912920Y-14924293D01*
X10912920Y-14924293D02*
X10912920Y-14876674D01*
X10912920Y-14876674D02*
X10922444Y-14838579D01*
X10922444Y-14838579D02*
X10931967Y-14819531D01*
X10931967Y-14819531D02*
X10941491Y-14810008D01*
X10941491Y-14810008D02*
X10960539Y-14800484D01*
X11112920Y-15000484D02*
X11112920Y-14867150D01*
X11112920Y-14886198D02*
X11122444Y-14876674D01*
X11122444Y-14876674D02*
X11141491Y-14867150D01*
X11141491Y-14867150D02*
X11170063Y-14867150D01*
X11170063Y-14867150D02*
X11189110Y-14876674D01*
X11189110Y-14876674D02*
X11198634Y-14895722D01*
X11198634Y-14895722D02*
X11198634Y-15000484D01*
X11198634Y-14895722D02*
X11208158Y-14876674D01*
X11208158Y-14876674D02*
X11227205Y-14867150D01*
X11227205Y-14867150D02*
X11255777Y-14867150D01*
X11255777Y-14867150D02*
X11274824Y-14876674D01*
X11274824Y-14876674D02*
X11284348Y-14895722D01*
X11284348Y-14895722D02*
X11284348Y-15000484D01*
X11379586Y-15000484D02*
X11379586Y-14867150D01*
X11379586Y-14886198D02*
X11389110Y-14876674D01*
X11389110Y-14876674D02*
X11408158Y-14867150D01*
X11408158Y-14867150D02*
X11436729Y-14867150D01*
X11436729Y-14867150D02*
X11455777Y-14876674D01*
X11455777Y-14876674D02*
X11465301Y-14895722D01*
X11465301Y-14895722D02*
X11465301Y-15000484D01*
X11465301Y-14895722D02*
X11474824Y-14876674D01*
X11474824Y-14876674D02*
X11493872Y-14867150D01*
X11493872Y-14867150D02*
X11522443Y-14867150D01*
X11522443Y-14867150D02*
X11541491Y-14876674D01*
X11541491Y-14876674D02*
X11551015Y-14895722D01*
X11551015Y-14895722D02*
X11551015Y-15000484D01*
X11941491Y-14790960D02*
X11770063Y-15048103D01*
X12198634Y-14800484D02*
X12217682Y-14800484D01*
X12217682Y-14800484D02*
X12236729Y-14810008D01*
X12236729Y-14810008D02*
X12246253Y-14819531D01*
X12246253Y-14819531D02*
X12255777Y-14838579D01*
X12255777Y-14838579D02*
X12265301Y-14876674D01*
X12265301Y-14876674D02*
X12265301Y-14924293D01*
X12265301Y-14924293D02*
X12255777Y-14962388D01*
X12255777Y-14962388D02*
X12246253Y-14981436D01*
X12246253Y-14981436D02*
X12236729Y-14990960D01*
X12236729Y-14990960D02*
X12217682Y-15000484D01*
X12217682Y-15000484D02*
X12198634Y-15000484D01*
X12198634Y-15000484D02*
X12179586Y-14990960D01*
X12179586Y-14990960D02*
X12170063Y-14981436D01*
X12170063Y-14981436D02*
X12160539Y-14962388D01*
X12160539Y-14962388D02*
X12151015Y-14924293D01*
X12151015Y-14924293D02*
X12151015Y-14876674D01*
X12151015Y-14876674D02*
X12160539Y-14838579D01*
X12160539Y-14838579D02*
X12170063Y-14819531D01*
X12170063Y-14819531D02*
X12179586Y-14810008D01*
X12179586Y-14810008D02*
X12198634Y-14800484D01*
X12351015Y-14981436D02*
X12360539Y-14990960D01*
X12360539Y-14990960D02*
X12351015Y-15000484D01*
X12351015Y-15000484D02*
X12341491Y-14990960D01*
X12341491Y-14990960D02*
X12351015Y-14981436D01*
X12351015Y-14981436D02*
X12351015Y-15000484D01*
X12484348Y-14800484D02*
X12503396Y-14800484D01*
X12503396Y-14800484D02*
X12522444Y-14810008D01*
X12522444Y-14810008D02*
X12531967Y-14819531D01*
X12531967Y-14819531D02*
X12541491Y-14838579D01*
X12541491Y-14838579D02*
X12551015Y-14876674D01*
X12551015Y-14876674D02*
X12551015Y-14924293D01*
X12551015Y-14924293D02*
X12541491Y-14962388D01*
X12541491Y-14962388D02*
X12531967Y-14981436D01*
X12531967Y-14981436D02*
X12522444Y-14990960D01*
X12522444Y-14990960D02*
X12503396Y-15000484D01*
X12503396Y-15000484D02*
X12484348Y-15000484D01*
X12484348Y-15000484D02*
X12465301Y-14990960D01*
X12465301Y-14990960D02*
X12455777Y-14981436D01*
X12455777Y-14981436D02*
X12446253Y-14962388D01*
X12446253Y-14962388D02*
X12436729Y-14924293D01*
X12436729Y-14924293D02*
X12436729Y-14876674D01*
X12436729Y-14876674D02*
X12446253Y-14838579D01*
X12446253Y-14838579D02*
X12455777Y-14819531D01*
X12455777Y-14819531D02*
X12465301Y-14810008D01*
X12465301Y-14810008D02*
X12484348Y-14800484D01*
X12627206Y-14819531D02*
X12636729Y-14810008D01*
X12636729Y-14810008D02*
X12655777Y-14800484D01*
X12655777Y-14800484D02*
X12703396Y-14800484D01*
X12703396Y-14800484D02*
X12722444Y-14810008D01*
X12722444Y-14810008D02*
X12731967Y-14819531D01*
X12731967Y-14819531D02*
X12741491Y-14838579D01*
X12741491Y-14838579D02*
X12741491Y-14857627D01*
X12741491Y-14857627D02*
X12731967Y-14886198D01*
X12731967Y-14886198D02*
X12617682Y-15000484D01*
X12617682Y-15000484D02*
X12741491Y-15000484D01*
X12836729Y-15000484D02*
X12874825Y-15000484D01*
X12874825Y-15000484D02*
X12893872Y-14990960D01*
X12893872Y-14990960D02*
X12903396Y-14981436D01*
X12903396Y-14981436D02*
X12922444Y-14952865D01*
X12922444Y-14952865D02*
X12931967Y-14914769D01*
X12931967Y-14914769D02*
X12931967Y-14838579D01*
X12931967Y-14838579D02*
X12922444Y-14819531D01*
X12922444Y-14819531D02*
X12912920Y-14810008D01*
X12912920Y-14810008D02*
X12893872Y-14800484D01*
X12893872Y-14800484D02*
X12855777Y-14800484D01*
X12855777Y-14800484D02*
X12836729Y-14810008D01*
X12836729Y-14810008D02*
X12827206Y-14819531D01*
X12827206Y-14819531D02*
X12817682Y-14838579D01*
X12817682Y-14838579D02*
X12817682Y-14886198D01*
X12817682Y-14886198D02*
X12827206Y-14905246D01*
X12827206Y-14905246D02*
X12836729Y-14914769D01*
X12836729Y-14914769D02*
X12855777Y-14924293D01*
X12855777Y-14924293D02*
X12893872Y-14924293D01*
X12893872Y-14924293D02*
X12912920Y-14914769D01*
X12912920Y-14914769D02*
X12922444Y-14905246D01*
X12922444Y-14905246D02*
X12931967Y-14886198D01*
X13112920Y-14800484D02*
X13017682Y-14800484D01*
X13017682Y-14800484D02*
X13008158Y-14895722D01*
X13008158Y-14895722D02*
X13017682Y-14886198D01*
X13017682Y-14886198D02*
X13036729Y-14876674D01*
X13036729Y-14876674D02*
X13084348Y-14876674D01*
X13084348Y-14876674D02*
X13103396Y-14886198D01*
X13103396Y-14886198D02*
X13112920Y-14895722D01*
X13112920Y-14895722D02*
X13122444Y-14914769D01*
X13122444Y-14914769D02*
X13122444Y-14962388D01*
X13122444Y-14962388D02*
X13112920Y-14981436D01*
X13112920Y-14981436D02*
X13103396Y-14990960D01*
X13103396Y-14990960D02*
X13084348Y-15000484D01*
X13084348Y-15000484D02*
X13036729Y-15000484D01*
X13036729Y-15000484D02*
X13017682Y-14990960D01*
X13017682Y-14990960D02*
X13008158Y-14981436D01*
X13198634Y-14800484D02*
X13198634Y-14838579D01*
X13274825Y-14800484D02*
X13274825Y-14838579D01*
X13570063Y-15076674D02*
X13560539Y-15067150D01*
X13560539Y-15067150D02*
X13541491Y-15038579D01*
X13541491Y-15038579D02*
X13531968Y-15019531D01*
X13531968Y-15019531D02*
X13522444Y-14990960D01*
X13522444Y-14990960D02*
X13512920Y-14943341D01*
X13512920Y-14943341D02*
X13512920Y-14905246D01*
X13512920Y-14905246D02*
X13522444Y-14857627D01*
X13522444Y-14857627D02*
X13531968Y-14829055D01*
X13531968Y-14829055D02*
X13541491Y-14810008D01*
X13541491Y-14810008D02*
X13560539Y-14781436D01*
X13560539Y-14781436D02*
X13570063Y-14771912D01*
X13627206Y-14800484D02*
X13751015Y-14800484D01*
X13751015Y-14800484D02*
X13684348Y-14876674D01*
X13684348Y-14876674D02*
X13712920Y-14876674D01*
X13712920Y-14876674D02*
X13731968Y-14886198D01*
X13731968Y-14886198D02*
X13741491Y-14895722D01*
X13741491Y-14895722D02*
X13751015Y-14914769D01*
X13751015Y-14914769D02*
X13751015Y-14962388D01*
X13751015Y-14962388D02*
X13741491Y-14981436D01*
X13741491Y-14981436D02*
X13731968Y-14990960D01*
X13731968Y-14990960D02*
X13712920Y-15000484D01*
X13712920Y-15000484D02*
X13655777Y-15000484D01*
X13655777Y-15000484D02*
X13636729Y-14990960D01*
X13636729Y-14990960D02*
X13627206Y-14981436D01*
X13989110Y-15000484D02*
X13989110Y-14800484D01*
X14074825Y-15000484D02*
X14074825Y-14895722D01*
X14074825Y-14895722D02*
X14065301Y-14876674D01*
X14065301Y-14876674D02*
X14046253Y-14867150D01*
X14046253Y-14867150D02*
X14017682Y-14867150D01*
X14017682Y-14867150D02*
X13998634Y-14876674D01*
X13998634Y-14876674D02*
X13989110Y-14886198D01*
X14198634Y-15000484D02*
X14179587Y-14990960D01*
X14179587Y-14990960D02*
X14170063Y-14981436D01*
X14170063Y-14981436D02*
X14160539Y-14962388D01*
X14160539Y-14962388D02*
X14160539Y-14905246D01*
X14160539Y-14905246D02*
X14170063Y-14886198D01*
X14170063Y-14886198D02*
X14179587Y-14876674D01*
X14179587Y-14876674D02*
X14198634Y-14867150D01*
X14198634Y-14867150D02*
X14227206Y-14867150D01*
X14227206Y-14867150D02*
X14246253Y-14876674D01*
X14246253Y-14876674D02*
X14255777Y-14886198D01*
X14255777Y-14886198D02*
X14265301Y-14905246D01*
X14265301Y-14905246D02*
X14265301Y-14962388D01*
X14265301Y-14962388D02*
X14255777Y-14981436D01*
X14255777Y-14981436D02*
X14246253Y-14990960D01*
X14246253Y-14990960D02*
X14227206Y-15000484D01*
X14227206Y-15000484D02*
X14198634Y-15000484D01*
X14379587Y-15000484D02*
X14360539Y-14990960D01*
X14360539Y-14990960D02*
X14351015Y-14971912D01*
X14351015Y-14971912D02*
X14351015Y-14800484D01*
X14531968Y-14990960D02*
X14512920Y-15000484D01*
X14512920Y-15000484D02*
X14474825Y-15000484D01*
X14474825Y-15000484D02*
X14455777Y-14990960D01*
X14455777Y-14990960D02*
X14446253Y-14971912D01*
X14446253Y-14971912D02*
X14446253Y-14895722D01*
X14446253Y-14895722D02*
X14455777Y-14876674D01*
X14455777Y-14876674D02*
X14474825Y-14867150D01*
X14474825Y-14867150D02*
X14512920Y-14867150D01*
X14512920Y-14867150D02*
X14531968Y-14876674D01*
X14531968Y-14876674D02*
X14541491Y-14895722D01*
X14541491Y-14895722D02*
X14541491Y-14914769D01*
X14541491Y-14914769D02*
X14446253Y-14933817D01*
X14617682Y-14990960D02*
X14636730Y-15000484D01*
X14636730Y-15000484D02*
X14674825Y-15000484D01*
X14674825Y-15000484D02*
X14693872Y-14990960D01*
X14693872Y-14990960D02*
X14703396Y-14971912D01*
X14703396Y-14971912D02*
X14703396Y-14962388D01*
X14703396Y-14962388D02*
X14693872Y-14943341D01*
X14693872Y-14943341D02*
X14674825Y-14933817D01*
X14674825Y-14933817D02*
X14646253Y-14933817D01*
X14646253Y-14933817D02*
X14627206Y-14924293D01*
X14627206Y-14924293D02*
X14617682Y-14905246D01*
X14617682Y-14905246D02*
X14617682Y-14895722D01*
X14617682Y-14895722D02*
X14627206Y-14876674D01*
X14627206Y-14876674D02*
X14646253Y-14867150D01*
X14646253Y-14867150D02*
X14674825Y-14867150D01*
X14674825Y-14867150D02*
X14693872Y-14876674D01*
X14770063Y-15076674D02*
X14779587Y-15067150D01*
X14779587Y-15067150D02*
X14798634Y-15038579D01*
X14798634Y-15038579D02*
X14808158Y-15019531D01*
X14808158Y-15019531D02*
X14817682Y-14990960D01*
X14817682Y-14990960D02*
X14827206Y-14943341D01*
X14827206Y-14943341D02*
X14827206Y-14905246D01*
X14827206Y-14905246D02*
X14817682Y-14857627D01*
X14817682Y-14857627D02*
X14808158Y-14829055D01*
X14808158Y-14829055D02*
X14798634Y-14810008D01*
X14798634Y-14810008D02*
X14779587Y-14781436D01*
X14779587Y-14781436D02*
X14770063Y-14771912D01*
D10*
X9955000Y-15133000D02*
X9955000Y-15213000D01*
X9915000Y-15173000D02*
X9995000Y-15173000D01*
D11*
X10293872Y-15064484D02*
X10312920Y-15064484D01*
X10312920Y-15064484D02*
X10331967Y-15074008D01*
X10331967Y-15074008D02*
X10341491Y-15083531D01*
X10341491Y-15083531D02*
X10351015Y-15102579D01*
X10351015Y-15102579D02*
X10360539Y-15140674D01*
X10360539Y-15140674D02*
X10360539Y-15188293D01*
X10360539Y-15188293D02*
X10351015Y-15226388D01*
X10351015Y-15226388D02*
X10341491Y-15245436D01*
X10341491Y-15245436D02*
X10331967Y-15254960D01*
X10331967Y-15254960D02*
X10312920Y-15264484D01*
X10312920Y-15264484D02*
X10293872Y-15264484D01*
X10293872Y-15264484D02*
X10274824Y-15254960D01*
X10274824Y-15254960D02*
X10265301Y-15245436D01*
X10265301Y-15245436D02*
X10255777Y-15226388D01*
X10255777Y-15226388D02*
X10246253Y-15188293D01*
X10246253Y-15188293D02*
X10246253Y-15140674D01*
X10246253Y-15140674D02*
X10255777Y-15102579D01*
X10255777Y-15102579D02*
X10265301Y-15083531D01*
X10265301Y-15083531D02*
X10274824Y-15074008D01*
X10274824Y-15074008D02*
X10293872Y-15064484D01*
X10446253Y-15245436D02*
X10455777Y-15254960D01*
X10455777Y-15254960D02*
X10446253Y-15264484D01*
X10446253Y-15264484D02*
X10436729Y-15254960D01*
X10436729Y-15254960D02*
X10446253Y-15245436D01*
X10446253Y-15245436D02*
X10446253Y-15264484D01*
X10570063Y-15150198D02*
X10551015Y-15140674D01*
X10551015Y-15140674D02*
X10541491Y-15131150D01*
X10541491Y-15131150D02*
X10531967Y-15112103D01*
X10531967Y-15112103D02*
X10531967Y-15102579D01*
X10531967Y-15102579D02*
X10541491Y-15083531D01*
X10541491Y-15083531D02*
X10551015Y-15074008D01*
X10551015Y-15074008D02*
X10570063Y-15064484D01*
X10570063Y-15064484D02*
X10608158Y-15064484D01*
X10608158Y-15064484D02*
X10627205Y-15074008D01*
X10627205Y-15074008D02*
X10636729Y-15083531D01*
X10636729Y-15083531D02*
X10646253Y-15102579D01*
X10646253Y-15102579D02*
X10646253Y-15112103D01*
X10646253Y-15112103D02*
X10636729Y-15131150D01*
X10636729Y-15131150D02*
X10627205Y-15140674D01*
X10627205Y-15140674D02*
X10608158Y-15150198D01*
X10608158Y-15150198D02*
X10570063Y-15150198D01*
X10570063Y-15150198D02*
X10551015Y-15159722D01*
X10551015Y-15159722D02*
X10541491Y-15169246D01*
X10541491Y-15169246D02*
X10531967Y-15188293D01*
X10531967Y-15188293D02*
X10531967Y-15226388D01*
X10531967Y-15226388D02*
X10541491Y-15245436D01*
X10541491Y-15245436D02*
X10551015Y-15254960D01*
X10551015Y-15254960D02*
X10570063Y-15264484D01*
X10570063Y-15264484D02*
X10608158Y-15264484D01*
X10608158Y-15264484D02*
X10627205Y-15254960D01*
X10627205Y-15254960D02*
X10636729Y-15245436D01*
X10636729Y-15245436D02*
X10646253Y-15226388D01*
X10646253Y-15226388D02*
X10646253Y-15188293D01*
X10646253Y-15188293D02*
X10636729Y-15169246D01*
X10636729Y-15169246D02*
X10627205Y-15159722D01*
X10627205Y-15159722D02*
X10608158Y-15150198D01*
X10770063Y-15064484D02*
X10789110Y-15064484D01*
X10789110Y-15064484D02*
X10808158Y-15074008D01*
X10808158Y-15074008D02*
X10817682Y-15083531D01*
X10817682Y-15083531D02*
X10827205Y-15102579D01*
X10827205Y-15102579D02*
X10836729Y-15140674D01*
X10836729Y-15140674D02*
X10836729Y-15188293D01*
X10836729Y-15188293D02*
X10827205Y-15226388D01*
X10827205Y-15226388D02*
X10817682Y-15245436D01*
X10817682Y-15245436D02*
X10808158Y-15254960D01*
X10808158Y-15254960D02*
X10789110Y-15264484D01*
X10789110Y-15264484D02*
X10770063Y-15264484D01*
X10770063Y-15264484D02*
X10751015Y-15254960D01*
X10751015Y-15254960D02*
X10741491Y-15245436D01*
X10741491Y-15245436D02*
X10731967Y-15226388D01*
X10731967Y-15226388D02*
X10722444Y-15188293D01*
X10722444Y-15188293D02*
X10722444Y-15140674D01*
X10722444Y-15140674D02*
X10731967Y-15102579D01*
X10731967Y-15102579D02*
X10741491Y-15083531D01*
X10741491Y-15083531D02*
X10751015Y-15074008D01*
X10751015Y-15074008D02*
X10770063Y-15064484D01*
X10960539Y-15064484D02*
X10979586Y-15064484D01*
X10979586Y-15064484D02*
X10998634Y-15074008D01*
X10998634Y-15074008D02*
X11008158Y-15083531D01*
X11008158Y-15083531D02*
X11017682Y-15102579D01*
X11017682Y-15102579D02*
X11027205Y-15140674D01*
X11027205Y-15140674D02*
X11027205Y-15188293D01*
X11027205Y-15188293D02*
X11017682Y-15226388D01*
X11017682Y-15226388D02*
X11008158Y-15245436D01*
X11008158Y-15245436D02*
X10998634Y-15254960D01*
X10998634Y-15254960D02*
X10979586Y-15264484D01*
X10979586Y-15264484D02*
X10960539Y-15264484D01*
X10960539Y-15264484D02*
X10941491Y-15254960D01*
X10941491Y-15254960D02*
X10931967Y-15245436D01*
X10931967Y-15245436D02*
X10922444Y-15226388D01*
X10922444Y-15226388D02*
X10912920Y-15188293D01*
X10912920Y-15188293D02*
X10912920Y-15140674D01*
X10912920Y-15140674D02*
X10922444Y-15102579D01*
X10922444Y-15102579D02*
X10931967Y-15083531D01*
X10931967Y-15083531D02*
X10941491Y-15074008D01*
X10941491Y-15074008D02*
X10960539Y-15064484D01*
X11112920Y-15264484D02*
X11112920Y-15131150D01*
X11112920Y-15150198D02*
X11122444Y-15140674D01*
X11122444Y-15140674D02*
X11141491Y-15131150D01*
X11141491Y-15131150D02*
X11170063Y-15131150D01*
X11170063Y-15131150D02*
X11189110Y-15140674D01*
X11189110Y-15140674D02*
X11198634Y-15159722D01*
X11198634Y-15159722D02*
X11198634Y-15264484D01*
X11198634Y-15159722D02*
X11208158Y-15140674D01*
X11208158Y-15140674D02*
X11227205Y-15131150D01*
X11227205Y-15131150D02*
X11255777Y-15131150D01*
X11255777Y-15131150D02*
X11274824Y-15140674D01*
X11274824Y-15140674D02*
X11284348Y-15159722D01*
X11284348Y-15159722D02*
X11284348Y-15264484D01*
X11379586Y-15264484D02*
X11379586Y-15131150D01*
X11379586Y-15150198D02*
X11389110Y-15140674D01*
X11389110Y-15140674D02*
X11408158Y-15131150D01*
X11408158Y-15131150D02*
X11436729Y-15131150D01*
X11436729Y-15131150D02*
X11455777Y-15140674D01*
X11455777Y-15140674D02*
X11465301Y-15159722D01*
X11465301Y-15159722D02*
X11465301Y-15264484D01*
X11465301Y-15159722D02*
X11474824Y-15140674D01*
X11474824Y-15140674D02*
X11493872Y-15131150D01*
X11493872Y-15131150D02*
X11522443Y-15131150D01*
X11522443Y-15131150D02*
X11541491Y-15140674D01*
X11541491Y-15140674D02*
X11551015Y-15159722D01*
X11551015Y-15159722D02*
X11551015Y-15264484D01*
X11941491Y-15054960D02*
X11770063Y-15312103D01*
X12198634Y-15064484D02*
X12217682Y-15064484D01*
X12217682Y-15064484D02*
X12236729Y-15074008D01*
X12236729Y-15074008D02*
X12246253Y-15083531D01*
X12246253Y-15083531D02*
X12255777Y-15102579D01*
X12255777Y-15102579D02*
X12265301Y-15140674D01*
X12265301Y-15140674D02*
X12265301Y-15188293D01*
X12265301Y-15188293D02*
X12255777Y-15226388D01*
X12255777Y-15226388D02*
X12246253Y-15245436D01*
X12246253Y-15245436D02*
X12236729Y-15254960D01*
X12236729Y-15254960D02*
X12217682Y-15264484D01*
X12217682Y-15264484D02*
X12198634Y-15264484D01*
X12198634Y-15264484D02*
X12179586Y-15254960D01*
X12179586Y-15254960D02*
X12170063Y-15245436D01*
X12170063Y-15245436D02*
X12160539Y-15226388D01*
X12160539Y-15226388D02*
X12151015Y-15188293D01*
X12151015Y-15188293D02*
X12151015Y-15140674D01*
X12151015Y-15140674D02*
X12160539Y-15102579D01*
X12160539Y-15102579D02*
X12170063Y-15083531D01*
X12170063Y-15083531D02*
X12179586Y-15074008D01*
X12179586Y-15074008D02*
X12198634Y-15064484D01*
X12351015Y-15245436D02*
X12360539Y-15254960D01*
X12360539Y-15254960D02*
X12351015Y-15264484D01*
X12351015Y-15264484D02*
X12341491Y-15254960D01*
X12341491Y-15254960D02*
X12351015Y-15245436D01*
X12351015Y-15245436D02*
X12351015Y-15264484D01*
X12484348Y-15064484D02*
X12503396Y-15064484D01*
X12503396Y-15064484D02*
X12522444Y-15074008D01*
X12522444Y-15074008D02*
X12531967Y-15083531D01*
X12531967Y-15083531D02*
X12541491Y-15102579D01*
X12541491Y-15102579D02*
X12551015Y-15140674D01*
X12551015Y-15140674D02*
X12551015Y-15188293D01*
X12551015Y-15188293D02*
X12541491Y-15226388D01*
X12541491Y-15226388D02*
X12531967Y-15245436D01*
X12531967Y-15245436D02*
X12522444Y-15254960D01*
X12522444Y-15254960D02*
X12503396Y-15264484D01*
X12503396Y-15264484D02*
X12484348Y-15264484D01*
X12484348Y-15264484D02*
X12465301Y-15254960D01*
X12465301Y-15254960D02*
X12455777Y-15245436D01*
X12455777Y-15245436D02*
X12446253Y-15226388D01*
X12446253Y-15226388D02*
X12436729Y-15188293D01*
X12436729Y-15188293D02*
X12436729Y-15140674D01*
X12436729Y-15140674D02*
X12446253Y-15102579D01*
X12446253Y-15102579D02*
X12455777Y-15083531D01*
X12455777Y-15083531D02*
X12465301Y-15074008D01*
X12465301Y-15074008D02*
X12484348Y-15064484D01*
X12617682Y-15064484D02*
X12741491Y-15064484D01*
X12741491Y-15064484D02*
X12674825Y-15140674D01*
X12674825Y-15140674D02*
X12703396Y-15140674D01*
X12703396Y-15140674D02*
X12722444Y-15150198D01*
X12722444Y-15150198D02*
X12731967Y-15159722D01*
X12731967Y-15159722D02*
X12741491Y-15178769D01*
X12741491Y-15178769D02*
X12741491Y-15226388D01*
X12741491Y-15226388D02*
X12731967Y-15245436D01*
X12731967Y-15245436D02*
X12722444Y-15254960D01*
X12722444Y-15254960D02*
X12703396Y-15264484D01*
X12703396Y-15264484D02*
X12646253Y-15264484D01*
X12646253Y-15264484D02*
X12627206Y-15254960D01*
X12627206Y-15254960D02*
X12617682Y-15245436D01*
X12931967Y-15264484D02*
X12817682Y-15264484D01*
X12874825Y-15264484D02*
X12874825Y-15064484D01*
X12874825Y-15064484D02*
X12855777Y-15093055D01*
X12855777Y-15093055D02*
X12836729Y-15112103D01*
X12836729Y-15112103D02*
X12817682Y-15121627D01*
X13112920Y-15064484D02*
X13017682Y-15064484D01*
X13017682Y-15064484D02*
X13008158Y-15159722D01*
X13008158Y-15159722D02*
X13017682Y-15150198D01*
X13017682Y-15150198D02*
X13036729Y-15140674D01*
X13036729Y-15140674D02*
X13084348Y-15140674D01*
X13084348Y-15140674D02*
X13103396Y-15150198D01*
X13103396Y-15150198D02*
X13112920Y-15159722D01*
X13112920Y-15159722D02*
X13122444Y-15178769D01*
X13122444Y-15178769D02*
X13122444Y-15226388D01*
X13122444Y-15226388D02*
X13112920Y-15245436D01*
X13112920Y-15245436D02*
X13103396Y-15254960D01*
X13103396Y-15254960D02*
X13084348Y-15264484D01*
X13084348Y-15264484D02*
X13036729Y-15264484D01*
X13036729Y-15264484D02*
X13017682Y-15254960D01*
X13017682Y-15254960D02*
X13008158Y-15245436D01*
X13198634Y-15064484D02*
X13198634Y-15102579D01*
X13274825Y-15064484D02*
X13274825Y-15102579D01*
X13570063Y-15340674D02*
X13560539Y-15331150D01*
X13560539Y-15331150D02*
X13541491Y-15302579D01*
X13541491Y-15302579D02*
X13531968Y-15283531D01*
X13531968Y-15283531D02*
X13522444Y-15254960D01*
X13522444Y-15254960D02*
X13512920Y-15207341D01*
X13512920Y-15207341D02*
X13512920Y-15169246D01*
X13512920Y-15169246D02*
X13522444Y-15121627D01*
X13522444Y-15121627D02*
X13531968Y-15093055D01*
X13531968Y-15093055D02*
X13541491Y-15074008D01*
X13541491Y-15074008D02*
X13560539Y-15045436D01*
X13560539Y-15045436D02*
X13570063Y-15035912D01*
X13636729Y-15083531D02*
X13646253Y-15074008D01*
X13646253Y-15074008D02*
X13665301Y-15064484D01*
X13665301Y-15064484D02*
X13712920Y-15064484D01*
X13712920Y-15064484D02*
X13731968Y-15074008D01*
X13731968Y-15074008D02*
X13741491Y-15083531D01*
X13741491Y-15083531D02*
X13751015Y-15102579D01*
X13751015Y-15102579D02*
X13751015Y-15121627D01*
X13751015Y-15121627D02*
X13741491Y-15150198D01*
X13741491Y-15150198D02*
X13627206Y-15264484D01*
X13627206Y-15264484D02*
X13751015Y-15264484D01*
X13827206Y-15083531D02*
X13836729Y-15074008D01*
X13836729Y-15074008D02*
X13855777Y-15064484D01*
X13855777Y-15064484D02*
X13903396Y-15064484D01*
X13903396Y-15064484D02*
X13922444Y-15074008D01*
X13922444Y-15074008D02*
X13931968Y-15083531D01*
X13931968Y-15083531D02*
X13941491Y-15102579D01*
X13941491Y-15102579D02*
X13941491Y-15121627D01*
X13941491Y-15121627D02*
X13931968Y-15150198D01*
X13931968Y-15150198D02*
X13817682Y-15264484D01*
X13817682Y-15264484D02*
X13941491Y-15264484D01*
X14179587Y-15264484D02*
X14179587Y-15064484D01*
X14265301Y-15264484D02*
X14265301Y-15159722D01*
X14265301Y-15159722D02*
X14255777Y-15140674D01*
X14255777Y-15140674D02*
X14236730Y-15131150D01*
X14236730Y-15131150D02*
X14208158Y-15131150D01*
X14208158Y-15131150D02*
X14189110Y-15140674D01*
X14189110Y-15140674D02*
X14179587Y-15150198D01*
X14389110Y-15264484D02*
X14370063Y-15254960D01*
X14370063Y-15254960D02*
X14360539Y-15245436D01*
X14360539Y-15245436D02*
X14351015Y-15226388D01*
X14351015Y-15226388D02*
X14351015Y-15169246D01*
X14351015Y-15169246D02*
X14360539Y-15150198D01*
X14360539Y-15150198D02*
X14370063Y-15140674D01*
X14370063Y-15140674D02*
X14389110Y-15131150D01*
X14389110Y-15131150D02*
X14417682Y-15131150D01*
X14417682Y-15131150D02*
X14436730Y-15140674D01*
X14436730Y-15140674D02*
X14446253Y-15150198D01*
X14446253Y-15150198D02*
X14455777Y-15169246D01*
X14455777Y-15169246D02*
X14455777Y-15226388D01*
X14455777Y-15226388D02*
X14446253Y-15245436D01*
X14446253Y-15245436D02*
X14436730Y-15254960D01*
X14436730Y-15254960D02*
X14417682Y-15264484D01*
X14417682Y-15264484D02*
X14389110Y-15264484D01*
X14570063Y-15264484D02*
X14551015Y-15254960D01*
X14551015Y-15254960D02*
X14541491Y-15235912D01*
X14541491Y-15235912D02*
X14541491Y-15064484D01*
X14722444Y-15254960D02*
X14703396Y-15264484D01*
X14703396Y-15264484D02*
X14665301Y-15264484D01*
X14665301Y-15264484D02*
X14646253Y-15254960D01*
X14646253Y-15254960D02*
X14636730Y-15235912D01*
X14636730Y-15235912D02*
X14636730Y-15159722D01*
X14636730Y-15159722D02*
X14646253Y-15140674D01*
X14646253Y-15140674D02*
X14665301Y-15131150D01*
X14665301Y-15131150D02*
X14703396Y-15131150D01*
X14703396Y-15131150D02*
X14722444Y-15140674D01*
X14722444Y-15140674D02*
X14731968Y-15159722D01*
X14731968Y-15159722D02*
X14731968Y-15178769D01*
X14731968Y-15178769D02*
X14636730Y-15197817D01*
X14808158Y-15254960D02*
X14827206Y-15264484D01*
X14827206Y-15264484D02*
X14865301Y-15264484D01*
X14865301Y-15264484D02*
X14884349Y-15254960D01*
X14884349Y-15254960D02*
X14893872Y-15235912D01*
X14893872Y-15235912D02*
X14893872Y-15226388D01*
X14893872Y-15226388D02*
X14884349Y-15207341D01*
X14884349Y-15207341D02*
X14865301Y-15197817D01*
X14865301Y-15197817D02*
X14836730Y-15197817D01*
X14836730Y-15197817D02*
X14817682Y-15188293D01*
X14817682Y-15188293D02*
X14808158Y-15169246D01*
X14808158Y-15169246D02*
X14808158Y-15159722D01*
X14808158Y-15159722D02*
X14817682Y-15140674D01*
X14817682Y-15140674D02*
X14836730Y-15131150D01*
X14836730Y-15131150D02*
X14865301Y-15131150D01*
X14865301Y-15131150D02*
X14884349Y-15140674D01*
X14960539Y-15340674D02*
X14970063Y-15331150D01*
X14970063Y-15331150D02*
X14989111Y-15302579D01*
X14989111Y-15302579D02*
X14998634Y-15283531D01*
X14998634Y-15283531D02*
X15008158Y-15254960D01*
X15008158Y-15254960D02*
X15017682Y-15207341D01*
X15017682Y-15207341D02*
X15017682Y-15169246D01*
X15017682Y-15169246D02*
X15008158Y-15121627D01*
X15008158Y-15121627D02*
X14998634Y-15093055D01*
X14998634Y-15093055D02*
X14989111Y-15074008D01*
X14989111Y-15074008D02*
X14970063Y-15045436D01*
X14970063Y-15045436D02*
X14960539Y-15035912D01*
D10*
X9981820Y-15468820D02*
X9981820Y-15405180D01*
X9918180Y-15405180D01*
X9918180Y-15468820D01*
X9981820Y-15468820D01*
D11*
X10293872Y-15328484D02*
X10312920Y-15328484D01*
X10312920Y-15328484D02*
X10331967Y-15338008D01*
X10331967Y-15338008D02*
X10341491Y-15347531D01*
X10341491Y-15347531D02*
X10351015Y-15366579D01*
X10351015Y-15366579D02*
X10360539Y-15404674D01*
X10360539Y-15404674D02*
X10360539Y-15452293D01*
X10360539Y-15452293D02*
X10351015Y-15490388D01*
X10351015Y-15490388D02*
X10341491Y-15509436D01*
X10341491Y-15509436D02*
X10331967Y-15518960D01*
X10331967Y-15518960D02*
X10312920Y-15528484D01*
X10312920Y-15528484D02*
X10293872Y-15528484D01*
X10293872Y-15528484D02*
X10274824Y-15518960D01*
X10274824Y-15518960D02*
X10265301Y-15509436D01*
X10265301Y-15509436D02*
X10255777Y-15490388D01*
X10255777Y-15490388D02*
X10246253Y-15452293D01*
X10246253Y-15452293D02*
X10246253Y-15404674D01*
X10246253Y-15404674D02*
X10255777Y-15366579D01*
X10255777Y-15366579D02*
X10265301Y-15347531D01*
X10265301Y-15347531D02*
X10274824Y-15338008D01*
X10274824Y-15338008D02*
X10293872Y-15328484D01*
X10446253Y-15509436D02*
X10455777Y-15518960D01*
X10455777Y-15518960D02*
X10446253Y-15528484D01*
X10446253Y-15528484D02*
X10436729Y-15518960D01*
X10436729Y-15518960D02*
X10446253Y-15509436D01*
X10446253Y-15509436D02*
X10446253Y-15528484D01*
X10551015Y-15528484D02*
X10589110Y-15528484D01*
X10589110Y-15528484D02*
X10608158Y-15518960D01*
X10608158Y-15518960D02*
X10617682Y-15509436D01*
X10617682Y-15509436D02*
X10636729Y-15480865D01*
X10636729Y-15480865D02*
X10646253Y-15442769D01*
X10646253Y-15442769D02*
X10646253Y-15366579D01*
X10646253Y-15366579D02*
X10636729Y-15347531D01*
X10636729Y-15347531D02*
X10627205Y-15338008D01*
X10627205Y-15338008D02*
X10608158Y-15328484D01*
X10608158Y-15328484D02*
X10570063Y-15328484D01*
X10570063Y-15328484D02*
X10551015Y-15338008D01*
X10551015Y-15338008D02*
X10541491Y-15347531D01*
X10541491Y-15347531D02*
X10531967Y-15366579D01*
X10531967Y-15366579D02*
X10531967Y-15414198D01*
X10531967Y-15414198D02*
X10541491Y-15433246D01*
X10541491Y-15433246D02*
X10551015Y-15442769D01*
X10551015Y-15442769D02*
X10570063Y-15452293D01*
X10570063Y-15452293D02*
X10608158Y-15452293D01*
X10608158Y-15452293D02*
X10627205Y-15442769D01*
X10627205Y-15442769D02*
X10636729Y-15433246D01*
X10636729Y-15433246D02*
X10646253Y-15414198D01*
X10770063Y-15328484D02*
X10789110Y-15328484D01*
X10789110Y-15328484D02*
X10808158Y-15338008D01*
X10808158Y-15338008D02*
X10817682Y-15347531D01*
X10817682Y-15347531D02*
X10827205Y-15366579D01*
X10827205Y-15366579D02*
X10836729Y-15404674D01*
X10836729Y-15404674D02*
X10836729Y-15452293D01*
X10836729Y-15452293D02*
X10827205Y-15490388D01*
X10827205Y-15490388D02*
X10817682Y-15509436D01*
X10817682Y-15509436D02*
X10808158Y-15518960D01*
X10808158Y-15518960D02*
X10789110Y-15528484D01*
X10789110Y-15528484D02*
X10770063Y-15528484D01*
X10770063Y-15528484D02*
X10751015Y-15518960D01*
X10751015Y-15518960D02*
X10741491Y-15509436D01*
X10741491Y-15509436D02*
X10731967Y-15490388D01*
X10731967Y-15490388D02*
X10722444Y-15452293D01*
X10722444Y-15452293D02*
X10722444Y-15404674D01*
X10722444Y-15404674D02*
X10731967Y-15366579D01*
X10731967Y-15366579D02*
X10741491Y-15347531D01*
X10741491Y-15347531D02*
X10751015Y-15338008D01*
X10751015Y-15338008D02*
X10770063Y-15328484D01*
X10960539Y-15328484D02*
X10979586Y-15328484D01*
X10979586Y-15328484D02*
X10998634Y-15338008D01*
X10998634Y-15338008D02*
X11008158Y-15347531D01*
X11008158Y-15347531D02*
X11017682Y-15366579D01*
X11017682Y-15366579D02*
X11027205Y-15404674D01*
X11027205Y-15404674D02*
X11027205Y-15452293D01*
X11027205Y-15452293D02*
X11017682Y-15490388D01*
X11017682Y-15490388D02*
X11008158Y-15509436D01*
X11008158Y-15509436D02*
X10998634Y-15518960D01*
X10998634Y-15518960D02*
X10979586Y-15528484D01*
X10979586Y-15528484D02*
X10960539Y-15528484D01*
X10960539Y-15528484D02*
X10941491Y-15518960D01*
X10941491Y-15518960D02*
X10931967Y-15509436D01*
X10931967Y-15509436D02*
X10922444Y-15490388D01*
X10922444Y-15490388D02*
X10912920Y-15452293D01*
X10912920Y-15452293D02*
X10912920Y-15404674D01*
X10912920Y-15404674D02*
X10922444Y-15366579D01*
X10922444Y-15366579D02*
X10931967Y-15347531D01*
X10931967Y-15347531D02*
X10941491Y-15338008D01*
X10941491Y-15338008D02*
X10960539Y-15328484D01*
X11112920Y-15528484D02*
X11112920Y-15395150D01*
X11112920Y-15414198D02*
X11122444Y-15404674D01*
X11122444Y-15404674D02*
X11141491Y-15395150D01*
X11141491Y-15395150D02*
X11170063Y-15395150D01*
X11170063Y-15395150D02*
X11189110Y-15404674D01*
X11189110Y-15404674D02*
X11198634Y-15423722D01*
X11198634Y-15423722D02*
X11198634Y-15528484D01*
X11198634Y-15423722D02*
X11208158Y-15404674D01*
X11208158Y-15404674D02*
X11227205Y-15395150D01*
X11227205Y-15395150D02*
X11255777Y-15395150D01*
X11255777Y-15395150D02*
X11274824Y-15404674D01*
X11274824Y-15404674D02*
X11284348Y-15423722D01*
X11284348Y-15423722D02*
X11284348Y-15528484D01*
X11379586Y-15528484D02*
X11379586Y-15395150D01*
X11379586Y-15414198D02*
X11389110Y-15404674D01*
X11389110Y-15404674D02*
X11408158Y-15395150D01*
X11408158Y-15395150D02*
X11436729Y-15395150D01*
X11436729Y-15395150D02*
X11455777Y-15404674D01*
X11455777Y-15404674D02*
X11465301Y-15423722D01*
X11465301Y-15423722D02*
X11465301Y-15528484D01*
X11465301Y-15423722D02*
X11474824Y-15404674D01*
X11474824Y-15404674D02*
X11493872Y-15395150D01*
X11493872Y-15395150D02*
X11522443Y-15395150D01*
X11522443Y-15395150D02*
X11541491Y-15404674D01*
X11541491Y-15404674D02*
X11551015Y-15423722D01*
X11551015Y-15423722D02*
X11551015Y-15528484D01*
X11941491Y-15318960D02*
X11770063Y-15576103D01*
X12198634Y-15328484D02*
X12217682Y-15328484D01*
X12217682Y-15328484D02*
X12236729Y-15338008D01*
X12236729Y-15338008D02*
X12246253Y-15347531D01*
X12246253Y-15347531D02*
X12255777Y-15366579D01*
X12255777Y-15366579D02*
X12265301Y-15404674D01*
X12265301Y-15404674D02*
X12265301Y-15452293D01*
X12265301Y-15452293D02*
X12255777Y-15490388D01*
X12255777Y-15490388D02*
X12246253Y-15509436D01*
X12246253Y-15509436D02*
X12236729Y-15518960D01*
X12236729Y-15518960D02*
X12217682Y-15528484D01*
X12217682Y-15528484D02*
X12198634Y-15528484D01*
X12198634Y-15528484D02*
X12179586Y-15518960D01*
X12179586Y-15518960D02*
X12170063Y-15509436D01*
X12170063Y-15509436D02*
X12160539Y-15490388D01*
X12160539Y-15490388D02*
X12151015Y-15452293D01*
X12151015Y-15452293D02*
X12151015Y-15404674D01*
X12151015Y-15404674D02*
X12160539Y-15366579D01*
X12160539Y-15366579D02*
X12170063Y-15347531D01*
X12170063Y-15347531D02*
X12179586Y-15338008D01*
X12179586Y-15338008D02*
X12198634Y-15328484D01*
X12351015Y-15509436D02*
X12360539Y-15518960D01*
X12360539Y-15518960D02*
X12351015Y-15528484D01*
X12351015Y-15528484D02*
X12341491Y-15518960D01*
X12341491Y-15518960D02*
X12351015Y-15509436D01*
X12351015Y-15509436D02*
X12351015Y-15528484D01*
X12484348Y-15328484D02*
X12503396Y-15328484D01*
X12503396Y-15328484D02*
X12522444Y-15338008D01*
X12522444Y-15338008D02*
X12531967Y-15347531D01*
X12531967Y-15347531D02*
X12541491Y-15366579D01*
X12541491Y-15366579D02*
X12551015Y-15404674D01*
X12551015Y-15404674D02*
X12551015Y-15452293D01*
X12551015Y-15452293D02*
X12541491Y-15490388D01*
X12541491Y-15490388D02*
X12531967Y-15509436D01*
X12531967Y-15509436D02*
X12522444Y-15518960D01*
X12522444Y-15518960D02*
X12503396Y-15528484D01*
X12503396Y-15528484D02*
X12484348Y-15528484D01*
X12484348Y-15528484D02*
X12465301Y-15518960D01*
X12465301Y-15518960D02*
X12455777Y-15509436D01*
X12455777Y-15509436D02*
X12446253Y-15490388D01*
X12446253Y-15490388D02*
X12436729Y-15452293D01*
X12436729Y-15452293D02*
X12436729Y-15404674D01*
X12436729Y-15404674D02*
X12446253Y-15366579D01*
X12446253Y-15366579D02*
X12455777Y-15347531D01*
X12455777Y-15347531D02*
X12465301Y-15338008D01*
X12465301Y-15338008D02*
X12484348Y-15328484D01*
X12617682Y-15328484D02*
X12741491Y-15328484D01*
X12741491Y-15328484D02*
X12674825Y-15404674D01*
X12674825Y-15404674D02*
X12703396Y-15404674D01*
X12703396Y-15404674D02*
X12722444Y-15414198D01*
X12722444Y-15414198D02*
X12731967Y-15423722D01*
X12731967Y-15423722D02*
X12741491Y-15442769D01*
X12741491Y-15442769D02*
X12741491Y-15490388D01*
X12741491Y-15490388D02*
X12731967Y-15509436D01*
X12731967Y-15509436D02*
X12722444Y-15518960D01*
X12722444Y-15518960D02*
X12703396Y-15528484D01*
X12703396Y-15528484D02*
X12646253Y-15528484D01*
X12646253Y-15528484D02*
X12627206Y-15518960D01*
X12627206Y-15518960D02*
X12617682Y-15509436D01*
X12922444Y-15328484D02*
X12827206Y-15328484D01*
X12827206Y-15328484D02*
X12817682Y-15423722D01*
X12817682Y-15423722D02*
X12827206Y-15414198D01*
X12827206Y-15414198D02*
X12846253Y-15404674D01*
X12846253Y-15404674D02*
X12893872Y-15404674D01*
X12893872Y-15404674D02*
X12912920Y-15414198D01*
X12912920Y-15414198D02*
X12922444Y-15423722D01*
X12922444Y-15423722D02*
X12931967Y-15442769D01*
X12931967Y-15442769D02*
X12931967Y-15490388D01*
X12931967Y-15490388D02*
X12922444Y-15509436D01*
X12922444Y-15509436D02*
X12912920Y-15518960D01*
X12912920Y-15518960D02*
X12893872Y-15528484D01*
X12893872Y-15528484D02*
X12846253Y-15528484D01*
X12846253Y-15528484D02*
X12827206Y-15518960D01*
X12827206Y-15518960D02*
X12817682Y-15509436D01*
X13103396Y-15395150D02*
X13103396Y-15528484D01*
X13055777Y-15318960D02*
X13008158Y-15461817D01*
X13008158Y-15461817D02*
X13131967Y-15461817D01*
X13198634Y-15328484D02*
X13198634Y-15366579D01*
X13274825Y-15328484D02*
X13274825Y-15366579D01*
X13570063Y-15604674D02*
X13560539Y-15595150D01*
X13560539Y-15595150D02*
X13541491Y-15566579D01*
X13541491Y-15566579D02*
X13531968Y-15547531D01*
X13531968Y-15547531D02*
X13522444Y-15518960D01*
X13522444Y-15518960D02*
X13512920Y-15471341D01*
X13512920Y-15471341D02*
X13512920Y-15433246D01*
X13512920Y-15433246D02*
X13522444Y-15385627D01*
X13522444Y-15385627D02*
X13531968Y-15357055D01*
X13531968Y-15357055D02*
X13541491Y-15338008D01*
X13541491Y-15338008D02*
X13560539Y-15309436D01*
X13560539Y-15309436D02*
X13570063Y-15299912D01*
X13636729Y-15347531D02*
X13646253Y-15338008D01*
X13646253Y-15338008D02*
X13665301Y-15328484D01*
X13665301Y-15328484D02*
X13712920Y-15328484D01*
X13712920Y-15328484D02*
X13731968Y-15338008D01*
X13731968Y-15338008D02*
X13741491Y-15347531D01*
X13741491Y-15347531D02*
X13751015Y-15366579D01*
X13751015Y-15366579D02*
X13751015Y-15385627D01*
X13751015Y-15385627D02*
X13741491Y-15414198D01*
X13741491Y-15414198D02*
X13627206Y-15528484D01*
X13627206Y-15528484D02*
X13751015Y-15528484D01*
X13989110Y-15528484D02*
X13989110Y-15328484D01*
X14074825Y-15528484D02*
X14074825Y-15423722D01*
X14074825Y-15423722D02*
X14065301Y-15404674D01*
X14065301Y-15404674D02*
X14046253Y-15395150D01*
X14046253Y-15395150D02*
X14017682Y-15395150D01*
X14017682Y-15395150D02*
X13998634Y-15404674D01*
X13998634Y-15404674D02*
X13989110Y-15414198D01*
X14198634Y-15528484D02*
X14179587Y-15518960D01*
X14179587Y-15518960D02*
X14170063Y-15509436D01*
X14170063Y-15509436D02*
X14160539Y-15490388D01*
X14160539Y-15490388D02*
X14160539Y-15433246D01*
X14160539Y-15433246D02*
X14170063Y-15414198D01*
X14170063Y-15414198D02*
X14179587Y-15404674D01*
X14179587Y-15404674D02*
X14198634Y-15395150D01*
X14198634Y-15395150D02*
X14227206Y-15395150D01*
X14227206Y-15395150D02*
X14246253Y-15404674D01*
X14246253Y-15404674D02*
X14255777Y-15414198D01*
X14255777Y-15414198D02*
X14265301Y-15433246D01*
X14265301Y-15433246D02*
X14265301Y-15490388D01*
X14265301Y-15490388D02*
X14255777Y-15509436D01*
X14255777Y-15509436D02*
X14246253Y-15518960D01*
X14246253Y-15518960D02*
X14227206Y-15528484D01*
X14227206Y-15528484D02*
X14198634Y-15528484D01*
X14379587Y-15528484D02*
X14360539Y-15518960D01*
X14360539Y-15518960D02*
X14351015Y-15499912D01*
X14351015Y-15499912D02*
X14351015Y-15328484D01*
X14531968Y-15518960D02*
X14512920Y-15528484D01*
X14512920Y-15528484D02*
X14474825Y-15528484D01*
X14474825Y-15528484D02*
X14455777Y-15518960D01*
X14455777Y-15518960D02*
X14446253Y-15499912D01*
X14446253Y-15499912D02*
X14446253Y-15423722D01*
X14446253Y-15423722D02*
X14455777Y-15404674D01*
X14455777Y-15404674D02*
X14474825Y-15395150D01*
X14474825Y-15395150D02*
X14512920Y-15395150D01*
X14512920Y-15395150D02*
X14531968Y-15404674D01*
X14531968Y-15404674D02*
X14541491Y-15423722D01*
X14541491Y-15423722D02*
X14541491Y-15442769D01*
X14541491Y-15442769D02*
X14446253Y-15461817D01*
X14617682Y-15518960D02*
X14636730Y-15528484D01*
X14636730Y-15528484D02*
X14674825Y-15528484D01*
X14674825Y-15528484D02*
X14693872Y-15518960D01*
X14693872Y-15518960D02*
X14703396Y-15499912D01*
X14703396Y-15499912D02*
X14703396Y-15490388D01*
X14703396Y-15490388D02*
X14693872Y-15471341D01*
X14693872Y-15471341D02*
X14674825Y-15461817D01*
X14674825Y-15461817D02*
X14646253Y-15461817D01*
X14646253Y-15461817D02*
X14627206Y-15452293D01*
X14627206Y-15452293D02*
X14617682Y-15433246D01*
X14617682Y-15433246D02*
X14617682Y-15423722D01*
X14617682Y-15423722D02*
X14627206Y-15404674D01*
X14627206Y-15404674D02*
X14646253Y-15395150D01*
X14646253Y-15395150D02*
X14674825Y-15395150D01*
X14674825Y-15395150D02*
X14693872Y-15404674D01*
X14770063Y-15604674D02*
X14779587Y-15595150D01*
X14779587Y-15595150D02*
X14798634Y-15566579D01*
X14798634Y-15566579D02*
X14808158Y-15547531D01*
X14808158Y-15547531D02*
X14817682Y-15518960D01*
X14817682Y-15518960D02*
X14827206Y-15471341D01*
X14827206Y-15471341D02*
X14827206Y-15433246D01*
X14827206Y-15433246D02*
X14817682Y-15385627D01*
X14817682Y-15385627D02*
X14808158Y-15357055D01*
X14808158Y-15357055D02*
X14798634Y-15338008D01*
X14798634Y-15338008D02*
X14779587Y-15309436D01*
X14779587Y-15309436D02*
X14770063Y-15299912D01*
D10*
X9945000Y-15751000D02*
X9995000Y-15701000D01*
X9945000Y-15651000D01*
X9895000Y-15701000D01*
X9945000Y-15751000D01*
D11*
X10360539Y-15792484D02*
X10246253Y-15792484D01*
X10303396Y-15792484D02*
X10303396Y-15592484D01*
X10303396Y-15592484D02*
X10284348Y-15621055D01*
X10284348Y-15621055D02*
X10265301Y-15640103D01*
X10265301Y-15640103D02*
X10246253Y-15649627D01*
X10446253Y-15773436D02*
X10455777Y-15782960D01*
X10455777Y-15782960D02*
X10446253Y-15792484D01*
X10446253Y-15792484D02*
X10436729Y-15782960D01*
X10436729Y-15782960D02*
X10446253Y-15773436D01*
X10446253Y-15773436D02*
X10446253Y-15792484D01*
X10579586Y-15592484D02*
X10598634Y-15592484D01*
X10598634Y-15592484D02*
X10617682Y-15602008D01*
X10617682Y-15602008D02*
X10627205Y-15611531D01*
X10627205Y-15611531D02*
X10636729Y-15630579D01*
X10636729Y-15630579D02*
X10646253Y-15668674D01*
X10646253Y-15668674D02*
X10646253Y-15716293D01*
X10646253Y-15716293D02*
X10636729Y-15754388D01*
X10636729Y-15754388D02*
X10627205Y-15773436D01*
X10627205Y-15773436D02*
X10617682Y-15782960D01*
X10617682Y-15782960D02*
X10598634Y-15792484D01*
X10598634Y-15792484D02*
X10579586Y-15792484D01*
X10579586Y-15792484D02*
X10560539Y-15782960D01*
X10560539Y-15782960D02*
X10551015Y-15773436D01*
X10551015Y-15773436D02*
X10541491Y-15754388D01*
X10541491Y-15754388D02*
X10531967Y-15716293D01*
X10531967Y-15716293D02*
X10531967Y-15668674D01*
X10531967Y-15668674D02*
X10541491Y-15630579D01*
X10541491Y-15630579D02*
X10551015Y-15611531D01*
X10551015Y-15611531D02*
X10560539Y-15602008D01*
X10560539Y-15602008D02*
X10579586Y-15592484D01*
X10770063Y-15592484D02*
X10789110Y-15592484D01*
X10789110Y-15592484D02*
X10808158Y-15602008D01*
X10808158Y-15602008D02*
X10817682Y-15611531D01*
X10817682Y-15611531D02*
X10827205Y-15630579D01*
X10827205Y-15630579D02*
X10836729Y-15668674D01*
X10836729Y-15668674D02*
X10836729Y-15716293D01*
X10836729Y-15716293D02*
X10827205Y-15754388D01*
X10827205Y-15754388D02*
X10817682Y-15773436D01*
X10817682Y-15773436D02*
X10808158Y-15782960D01*
X10808158Y-15782960D02*
X10789110Y-15792484D01*
X10789110Y-15792484D02*
X10770063Y-15792484D01*
X10770063Y-15792484D02*
X10751015Y-15782960D01*
X10751015Y-15782960D02*
X10741491Y-15773436D01*
X10741491Y-15773436D02*
X10731967Y-15754388D01*
X10731967Y-15754388D02*
X10722444Y-15716293D01*
X10722444Y-15716293D02*
X10722444Y-15668674D01*
X10722444Y-15668674D02*
X10731967Y-15630579D01*
X10731967Y-15630579D02*
X10741491Y-15611531D01*
X10741491Y-15611531D02*
X10751015Y-15602008D01*
X10751015Y-15602008D02*
X10770063Y-15592484D01*
X10960539Y-15592484D02*
X10979586Y-15592484D01*
X10979586Y-15592484D02*
X10998634Y-15602008D01*
X10998634Y-15602008D02*
X11008158Y-15611531D01*
X11008158Y-15611531D02*
X11017682Y-15630579D01*
X11017682Y-15630579D02*
X11027205Y-15668674D01*
X11027205Y-15668674D02*
X11027205Y-15716293D01*
X11027205Y-15716293D02*
X11017682Y-15754388D01*
X11017682Y-15754388D02*
X11008158Y-15773436D01*
X11008158Y-15773436D02*
X10998634Y-15782960D01*
X10998634Y-15782960D02*
X10979586Y-15792484D01*
X10979586Y-15792484D02*
X10960539Y-15792484D01*
X10960539Y-15792484D02*
X10941491Y-15782960D01*
X10941491Y-15782960D02*
X10931967Y-15773436D01*
X10931967Y-15773436D02*
X10922444Y-15754388D01*
X10922444Y-15754388D02*
X10912920Y-15716293D01*
X10912920Y-15716293D02*
X10912920Y-15668674D01*
X10912920Y-15668674D02*
X10922444Y-15630579D01*
X10922444Y-15630579D02*
X10931967Y-15611531D01*
X10931967Y-15611531D02*
X10941491Y-15602008D01*
X10941491Y-15602008D02*
X10960539Y-15592484D01*
X11112920Y-15792484D02*
X11112920Y-15659150D01*
X11112920Y-15678198D02*
X11122444Y-15668674D01*
X11122444Y-15668674D02*
X11141491Y-15659150D01*
X11141491Y-15659150D02*
X11170063Y-15659150D01*
X11170063Y-15659150D02*
X11189110Y-15668674D01*
X11189110Y-15668674D02*
X11198634Y-15687722D01*
X11198634Y-15687722D02*
X11198634Y-15792484D01*
X11198634Y-15687722D02*
X11208158Y-15668674D01*
X11208158Y-15668674D02*
X11227205Y-15659150D01*
X11227205Y-15659150D02*
X11255777Y-15659150D01*
X11255777Y-15659150D02*
X11274824Y-15668674D01*
X11274824Y-15668674D02*
X11284348Y-15687722D01*
X11284348Y-15687722D02*
X11284348Y-15792484D01*
X11379586Y-15792484D02*
X11379586Y-15659150D01*
X11379586Y-15678198D02*
X11389110Y-15668674D01*
X11389110Y-15668674D02*
X11408158Y-15659150D01*
X11408158Y-15659150D02*
X11436729Y-15659150D01*
X11436729Y-15659150D02*
X11455777Y-15668674D01*
X11455777Y-15668674D02*
X11465301Y-15687722D01*
X11465301Y-15687722D02*
X11465301Y-15792484D01*
X11465301Y-15687722D02*
X11474824Y-15668674D01*
X11474824Y-15668674D02*
X11493872Y-15659150D01*
X11493872Y-15659150D02*
X11522443Y-15659150D01*
X11522443Y-15659150D02*
X11541491Y-15668674D01*
X11541491Y-15668674D02*
X11551015Y-15687722D01*
X11551015Y-15687722D02*
X11551015Y-15792484D01*
X11941491Y-15582960D02*
X11770063Y-15840103D01*
X12198634Y-15592484D02*
X12217682Y-15592484D01*
X12217682Y-15592484D02*
X12236729Y-15602008D01*
X12236729Y-15602008D02*
X12246253Y-15611531D01*
X12246253Y-15611531D02*
X12255777Y-15630579D01*
X12255777Y-15630579D02*
X12265301Y-15668674D01*
X12265301Y-15668674D02*
X12265301Y-15716293D01*
X12265301Y-15716293D02*
X12255777Y-15754388D01*
X12255777Y-15754388D02*
X12246253Y-15773436D01*
X12246253Y-15773436D02*
X12236729Y-15782960D01*
X12236729Y-15782960D02*
X12217682Y-15792484D01*
X12217682Y-15792484D02*
X12198634Y-15792484D01*
X12198634Y-15792484D02*
X12179586Y-15782960D01*
X12179586Y-15782960D02*
X12170063Y-15773436D01*
X12170063Y-15773436D02*
X12160539Y-15754388D01*
X12160539Y-15754388D02*
X12151015Y-15716293D01*
X12151015Y-15716293D02*
X12151015Y-15668674D01*
X12151015Y-15668674D02*
X12160539Y-15630579D01*
X12160539Y-15630579D02*
X12170063Y-15611531D01*
X12170063Y-15611531D02*
X12179586Y-15602008D01*
X12179586Y-15602008D02*
X12198634Y-15592484D01*
X12351015Y-15773436D02*
X12360539Y-15782960D01*
X12360539Y-15782960D02*
X12351015Y-15792484D01*
X12351015Y-15792484D02*
X12341491Y-15782960D01*
X12341491Y-15782960D02*
X12351015Y-15773436D01*
X12351015Y-15773436D02*
X12351015Y-15792484D01*
X12484348Y-15592484D02*
X12503396Y-15592484D01*
X12503396Y-15592484D02*
X12522444Y-15602008D01*
X12522444Y-15602008D02*
X12531967Y-15611531D01*
X12531967Y-15611531D02*
X12541491Y-15630579D01*
X12541491Y-15630579D02*
X12551015Y-15668674D01*
X12551015Y-15668674D02*
X12551015Y-15716293D01*
X12551015Y-15716293D02*
X12541491Y-15754388D01*
X12541491Y-15754388D02*
X12531967Y-15773436D01*
X12531967Y-15773436D02*
X12522444Y-15782960D01*
X12522444Y-15782960D02*
X12503396Y-15792484D01*
X12503396Y-15792484D02*
X12484348Y-15792484D01*
X12484348Y-15792484D02*
X12465301Y-15782960D01*
X12465301Y-15782960D02*
X12455777Y-15773436D01*
X12455777Y-15773436D02*
X12446253Y-15754388D01*
X12446253Y-15754388D02*
X12436729Y-15716293D01*
X12436729Y-15716293D02*
X12436729Y-15668674D01*
X12436729Y-15668674D02*
X12446253Y-15630579D01*
X12446253Y-15630579D02*
X12455777Y-15611531D01*
X12455777Y-15611531D02*
X12465301Y-15602008D01*
X12465301Y-15602008D02*
X12484348Y-15592484D01*
X12617682Y-15592484D02*
X12741491Y-15592484D01*
X12741491Y-15592484D02*
X12674825Y-15668674D01*
X12674825Y-15668674D02*
X12703396Y-15668674D01*
X12703396Y-15668674D02*
X12722444Y-15678198D01*
X12722444Y-15678198D02*
X12731967Y-15687722D01*
X12731967Y-15687722D02*
X12741491Y-15706769D01*
X12741491Y-15706769D02*
X12741491Y-15754388D01*
X12741491Y-15754388D02*
X12731967Y-15773436D01*
X12731967Y-15773436D02*
X12722444Y-15782960D01*
X12722444Y-15782960D02*
X12703396Y-15792484D01*
X12703396Y-15792484D02*
X12646253Y-15792484D01*
X12646253Y-15792484D02*
X12627206Y-15782960D01*
X12627206Y-15782960D02*
X12617682Y-15773436D01*
X12836729Y-15792484D02*
X12874825Y-15792484D01*
X12874825Y-15792484D02*
X12893872Y-15782960D01*
X12893872Y-15782960D02*
X12903396Y-15773436D01*
X12903396Y-15773436D02*
X12922444Y-15744865D01*
X12922444Y-15744865D02*
X12931967Y-15706769D01*
X12931967Y-15706769D02*
X12931967Y-15630579D01*
X12931967Y-15630579D02*
X12922444Y-15611531D01*
X12922444Y-15611531D02*
X12912920Y-15602008D01*
X12912920Y-15602008D02*
X12893872Y-15592484D01*
X12893872Y-15592484D02*
X12855777Y-15592484D01*
X12855777Y-15592484D02*
X12836729Y-15602008D01*
X12836729Y-15602008D02*
X12827206Y-15611531D01*
X12827206Y-15611531D02*
X12817682Y-15630579D01*
X12817682Y-15630579D02*
X12817682Y-15678198D01*
X12817682Y-15678198D02*
X12827206Y-15697246D01*
X12827206Y-15697246D02*
X12836729Y-15706769D01*
X12836729Y-15706769D02*
X12855777Y-15716293D01*
X12855777Y-15716293D02*
X12893872Y-15716293D01*
X12893872Y-15716293D02*
X12912920Y-15706769D01*
X12912920Y-15706769D02*
X12922444Y-15697246D01*
X12922444Y-15697246D02*
X12931967Y-15678198D01*
X13103396Y-15659150D02*
X13103396Y-15792484D01*
X13055777Y-15582960D02*
X13008158Y-15725817D01*
X13008158Y-15725817D02*
X13131967Y-15725817D01*
X13198634Y-15592484D02*
X13198634Y-15630579D01*
X13274825Y-15592484D02*
X13274825Y-15630579D01*
X13570063Y-15868674D02*
X13560539Y-15859150D01*
X13560539Y-15859150D02*
X13541491Y-15830579D01*
X13541491Y-15830579D02*
X13531968Y-15811531D01*
X13531968Y-15811531D02*
X13522444Y-15782960D01*
X13522444Y-15782960D02*
X13512920Y-15735341D01*
X13512920Y-15735341D02*
X13512920Y-15697246D01*
X13512920Y-15697246D02*
X13522444Y-15649627D01*
X13522444Y-15649627D02*
X13531968Y-15621055D01*
X13531968Y-15621055D02*
X13541491Y-15602008D01*
X13541491Y-15602008D02*
X13560539Y-15573436D01*
X13560539Y-15573436D02*
X13570063Y-15563912D01*
X13741491Y-15592484D02*
X13646253Y-15592484D01*
X13646253Y-15592484D02*
X13636729Y-15687722D01*
X13636729Y-15687722D02*
X13646253Y-15678198D01*
X13646253Y-15678198D02*
X13665301Y-15668674D01*
X13665301Y-15668674D02*
X13712920Y-15668674D01*
X13712920Y-15668674D02*
X13731968Y-15678198D01*
X13731968Y-15678198D02*
X13741491Y-15687722D01*
X13741491Y-15687722D02*
X13751015Y-15706769D01*
X13751015Y-15706769D02*
X13751015Y-15754388D01*
X13751015Y-15754388D02*
X13741491Y-15773436D01*
X13741491Y-15773436D02*
X13731968Y-15782960D01*
X13731968Y-15782960D02*
X13712920Y-15792484D01*
X13712920Y-15792484D02*
X13665301Y-15792484D01*
X13665301Y-15792484D02*
X13646253Y-15782960D01*
X13646253Y-15782960D02*
X13636729Y-15773436D01*
X13922444Y-15592484D02*
X13884348Y-15592484D01*
X13884348Y-15592484D02*
X13865301Y-15602008D01*
X13865301Y-15602008D02*
X13855777Y-15611531D01*
X13855777Y-15611531D02*
X13836729Y-15640103D01*
X13836729Y-15640103D02*
X13827206Y-15678198D01*
X13827206Y-15678198D02*
X13827206Y-15754388D01*
X13827206Y-15754388D02*
X13836729Y-15773436D01*
X13836729Y-15773436D02*
X13846253Y-15782960D01*
X13846253Y-15782960D02*
X13865301Y-15792484D01*
X13865301Y-15792484D02*
X13903396Y-15792484D01*
X13903396Y-15792484D02*
X13922444Y-15782960D01*
X13922444Y-15782960D02*
X13931968Y-15773436D01*
X13931968Y-15773436D02*
X13941491Y-15754388D01*
X13941491Y-15754388D02*
X13941491Y-15706769D01*
X13941491Y-15706769D02*
X13931968Y-15687722D01*
X13931968Y-15687722D02*
X13922444Y-15678198D01*
X13922444Y-15678198D02*
X13903396Y-15668674D01*
X13903396Y-15668674D02*
X13865301Y-15668674D01*
X13865301Y-15668674D02*
X13846253Y-15678198D01*
X13846253Y-15678198D02*
X13836729Y-15687722D01*
X13836729Y-15687722D02*
X13827206Y-15706769D01*
X14179587Y-15792484D02*
X14179587Y-15592484D01*
X14265301Y-15792484D02*
X14265301Y-15687722D01*
X14265301Y-15687722D02*
X14255777Y-15668674D01*
X14255777Y-15668674D02*
X14236730Y-15659150D01*
X14236730Y-15659150D02*
X14208158Y-15659150D01*
X14208158Y-15659150D02*
X14189110Y-15668674D01*
X14189110Y-15668674D02*
X14179587Y-15678198D01*
X14389110Y-15792484D02*
X14370063Y-15782960D01*
X14370063Y-15782960D02*
X14360539Y-15773436D01*
X14360539Y-15773436D02*
X14351015Y-15754388D01*
X14351015Y-15754388D02*
X14351015Y-15697246D01*
X14351015Y-15697246D02*
X14360539Y-15678198D01*
X14360539Y-15678198D02*
X14370063Y-15668674D01*
X14370063Y-15668674D02*
X14389110Y-15659150D01*
X14389110Y-15659150D02*
X14417682Y-15659150D01*
X14417682Y-15659150D02*
X14436730Y-15668674D01*
X14436730Y-15668674D02*
X14446253Y-15678198D01*
X14446253Y-15678198D02*
X14455777Y-15697246D01*
X14455777Y-15697246D02*
X14455777Y-15754388D01*
X14455777Y-15754388D02*
X14446253Y-15773436D01*
X14446253Y-15773436D02*
X14436730Y-15782960D01*
X14436730Y-15782960D02*
X14417682Y-15792484D01*
X14417682Y-15792484D02*
X14389110Y-15792484D01*
X14570063Y-15792484D02*
X14551015Y-15782960D01*
X14551015Y-15782960D02*
X14541491Y-15763912D01*
X14541491Y-15763912D02*
X14541491Y-15592484D01*
X14722444Y-15782960D02*
X14703396Y-15792484D01*
X14703396Y-15792484D02*
X14665301Y-15792484D01*
X14665301Y-15792484D02*
X14646253Y-15782960D01*
X14646253Y-15782960D02*
X14636730Y-15763912D01*
X14636730Y-15763912D02*
X14636730Y-15687722D01*
X14636730Y-15687722D02*
X14646253Y-15668674D01*
X14646253Y-15668674D02*
X14665301Y-15659150D01*
X14665301Y-15659150D02*
X14703396Y-15659150D01*
X14703396Y-15659150D02*
X14722444Y-15668674D01*
X14722444Y-15668674D02*
X14731968Y-15687722D01*
X14731968Y-15687722D02*
X14731968Y-15706769D01*
X14731968Y-15706769D02*
X14636730Y-15725817D01*
X14808158Y-15782960D02*
X14827206Y-15792484D01*
X14827206Y-15792484D02*
X14865301Y-15792484D01*
X14865301Y-15792484D02*
X14884349Y-15782960D01*
X14884349Y-15782960D02*
X14893872Y-15763912D01*
X14893872Y-15763912D02*
X14893872Y-15754388D01*
X14893872Y-15754388D02*
X14884349Y-15735341D01*
X14884349Y-15735341D02*
X14865301Y-15725817D01*
X14865301Y-15725817D02*
X14836730Y-15725817D01*
X14836730Y-15725817D02*
X14817682Y-15716293D01*
X14817682Y-15716293D02*
X14808158Y-15697246D01*
X14808158Y-15697246D02*
X14808158Y-15687722D01*
X14808158Y-15687722D02*
X14817682Y-15668674D01*
X14817682Y-15668674D02*
X14836730Y-15659150D01*
X14836730Y-15659150D02*
X14865301Y-15659150D01*
X14865301Y-15659150D02*
X14884349Y-15668674D01*
X14960539Y-15868674D02*
X14970063Y-15859150D01*
X14970063Y-15859150D02*
X14989111Y-15830579D01*
X14989111Y-15830579D02*
X14998634Y-15811531D01*
X14998634Y-15811531D02*
X15008158Y-15782960D01*
X15008158Y-15782960D02*
X15017682Y-15735341D01*
X15017682Y-15735341D02*
X15017682Y-15697246D01*
X15017682Y-15697246D02*
X15008158Y-15649627D01*
X15008158Y-15649627D02*
X14998634Y-15621055D01*
X14998634Y-15621055D02*
X14989111Y-15602008D01*
X14989111Y-15602008D02*
X14970063Y-15573436D01*
X14970063Y-15573436D02*
X14960539Y-15563912D01*
D12*
X9885000Y-15910000D02*
X9995000Y-16020000D01*
X9995000Y-15910000D02*
X9885000Y-16020000D01*
X9995000Y-15965000D02*
G75*
G02*
X9885000Y-15965000I-55000J0D01*
G01*
X9885000Y-15965000D02*
G75*
G02*
X9995000Y-15965000I55000J0D01*
G01*
D11*
X10360539Y-16056484D02*
X10246253Y-16056484D01*
X10303396Y-16056484D02*
X10303396Y-15856484D01*
X10303396Y-15856484D02*
X10284348Y-15885055D01*
X10284348Y-15885055D02*
X10265301Y-15904103D01*
X10265301Y-15904103D02*
X10246253Y-15913627D01*
X10446253Y-16037436D02*
X10455777Y-16046960D01*
X10455777Y-16046960D02*
X10446253Y-16056484D01*
X10446253Y-16056484D02*
X10436729Y-16046960D01*
X10436729Y-16046960D02*
X10446253Y-16037436D01*
X10446253Y-16037436D02*
X10446253Y-16056484D01*
X10646253Y-16056484D02*
X10531967Y-16056484D01*
X10589110Y-16056484D02*
X10589110Y-15856484D01*
X10589110Y-15856484D02*
X10570063Y-15885055D01*
X10570063Y-15885055D02*
X10551015Y-15904103D01*
X10551015Y-15904103D02*
X10531967Y-15913627D01*
X10770063Y-15856484D02*
X10789110Y-15856484D01*
X10789110Y-15856484D02*
X10808158Y-15866008D01*
X10808158Y-15866008D02*
X10817682Y-15875531D01*
X10817682Y-15875531D02*
X10827205Y-15894579D01*
X10827205Y-15894579D02*
X10836729Y-15932674D01*
X10836729Y-15932674D02*
X10836729Y-15980293D01*
X10836729Y-15980293D02*
X10827205Y-16018388D01*
X10827205Y-16018388D02*
X10817682Y-16037436D01*
X10817682Y-16037436D02*
X10808158Y-16046960D01*
X10808158Y-16046960D02*
X10789110Y-16056484D01*
X10789110Y-16056484D02*
X10770063Y-16056484D01*
X10770063Y-16056484D02*
X10751015Y-16046960D01*
X10751015Y-16046960D02*
X10741491Y-16037436D01*
X10741491Y-16037436D02*
X10731967Y-16018388D01*
X10731967Y-16018388D02*
X10722444Y-15980293D01*
X10722444Y-15980293D02*
X10722444Y-15932674D01*
X10722444Y-15932674D02*
X10731967Y-15894579D01*
X10731967Y-15894579D02*
X10741491Y-15875531D01*
X10741491Y-15875531D02*
X10751015Y-15866008D01*
X10751015Y-15866008D02*
X10770063Y-15856484D01*
X10960539Y-15856484D02*
X10979586Y-15856484D01*
X10979586Y-15856484D02*
X10998634Y-15866008D01*
X10998634Y-15866008D02*
X11008158Y-15875531D01*
X11008158Y-15875531D02*
X11017682Y-15894579D01*
X11017682Y-15894579D02*
X11027205Y-15932674D01*
X11027205Y-15932674D02*
X11027205Y-15980293D01*
X11027205Y-15980293D02*
X11017682Y-16018388D01*
X11017682Y-16018388D02*
X11008158Y-16037436D01*
X11008158Y-16037436D02*
X10998634Y-16046960D01*
X10998634Y-16046960D02*
X10979586Y-16056484D01*
X10979586Y-16056484D02*
X10960539Y-16056484D01*
X10960539Y-16056484D02*
X10941491Y-16046960D01*
X10941491Y-16046960D02*
X10931967Y-16037436D01*
X10931967Y-16037436D02*
X10922444Y-16018388D01*
X10922444Y-16018388D02*
X10912920Y-15980293D01*
X10912920Y-15980293D02*
X10912920Y-15932674D01*
X10912920Y-15932674D02*
X10922444Y-15894579D01*
X10922444Y-15894579D02*
X10931967Y-15875531D01*
X10931967Y-15875531D02*
X10941491Y-15866008D01*
X10941491Y-15866008D02*
X10960539Y-15856484D01*
X11112920Y-16056484D02*
X11112920Y-15923150D01*
X11112920Y-15942198D02*
X11122444Y-15932674D01*
X11122444Y-15932674D02*
X11141491Y-15923150D01*
X11141491Y-15923150D02*
X11170063Y-15923150D01*
X11170063Y-15923150D02*
X11189110Y-15932674D01*
X11189110Y-15932674D02*
X11198634Y-15951722D01*
X11198634Y-15951722D02*
X11198634Y-16056484D01*
X11198634Y-15951722D02*
X11208158Y-15932674D01*
X11208158Y-15932674D02*
X11227205Y-15923150D01*
X11227205Y-15923150D02*
X11255777Y-15923150D01*
X11255777Y-15923150D02*
X11274824Y-15932674D01*
X11274824Y-15932674D02*
X11284348Y-15951722D01*
X11284348Y-15951722D02*
X11284348Y-16056484D01*
X11379586Y-16056484D02*
X11379586Y-15923150D01*
X11379586Y-15942198D02*
X11389110Y-15932674D01*
X11389110Y-15932674D02*
X11408158Y-15923150D01*
X11408158Y-15923150D02*
X11436729Y-15923150D01*
X11436729Y-15923150D02*
X11455777Y-15932674D01*
X11455777Y-15932674D02*
X11465301Y-15951722D01*
X11465301Y-15951722D02*
X11465301Y-16056484D01*
X11465301Y-15951722D02*
X11474824Y-15932674D01*
X11474824Y-15932674D02*
X11493872Y-15923150D01*
X11493872Y-15923150D02*
X11522443Y-15923150D01*
X11522443Y-15923150D02*
X11541491Y-15932674D01*
X11541491Y-15932674D02*
X11551015Y-15951722D01*
X11551015Y-15951722D02*
X11551015Y-16056484D01*
X11941491Y-15846960D02*
X11770063Y-16104103D01*
X12198634Y-15856484D02*
X12217682Y-15856484D01*
X12217682Y-15856484D02*
X12236729Y-15866008D01*
X12236729Y-15866008D02*
X12246253Y-15875531D01*
X12246253Y-15875531D02*
X12255777Y-15894579D01*
X12255777Y-15894579D02*
X12265301Y-15932674D01*
X12265301Y-15932674D02*
X12265301Y-15980293D01*
X12265301Y-15980293D02*
X12255777Y-16018388D01*
X12255777Y-16018388D02*
X12246253Y-16037436D01*
X12246253Y-16037436D02*
X12236729Y-16046960D01*
X12236729Y-16046960D02*
X12217682Y-16056484D01*
X12217682Y-16056484D02*
X12198634Y-16056484D01*
X12198634Y-16056484D02*
X12179586Y-16046960D01*
X12179586Y-16046960D02*
X12170063Y-16037436D01*
X12170063Y-16037436D02*
X12160539Y-16018388D01*
X12160539Y-16018388D02*
X12151015Y-15980293D01*
X12151015Y-15980293D02*
X12151015Y-15932674D01*
X12151015Y-15932674D02*
X12160539Y-15894579D01*
X12160539Y-15894579D02*
X12170063Y-15875531D01*
X12170063Y-15875531D02*
X12179586Y-15866008D01*
X12179586Y-15866008D02*
X12198634Y-15856484D01*
X12351015Y-16037436D02*
X12360539Y-16046960D01*
X12360539Y-16046960D02*
X12351015Y-16056484D01*
X12351015Y-16056484D02*
X12341491Y-16046960D01*
X12341491Y-16046960D02*
X12351015Y-16037436D01*
X12351015Y-16037436D02*
X12351015Y-16056484D01*
X12484348Y-15856484D02*
X12503396Y-15856484D01*
X12503396Y-15856484D02*
X12522444Y-15866008D01*
X12522444Y-15866008D02*
X12531967Y-15875531D01*
X12531967Y-15875531D02*
X12541491Y-15894579D01*
X12541491Y-15894579D02*
X12551015Y-15932674D01*
X12551015Y-15932674D02*
X12551015Y-15980293D01*
X12551015Y-15980293D02*
X12541491Y-16018388D01*
X12541491Y-16018388D02*
X12531967Y-16037436D01*
X12531967Y-16037436D02*
X12522444Y-16046960D01*
X12522444Y-16046960D02*
X12503396Y-16056484D01*
X12503396Y-16056484D02*
X12484348Y-16056484D01*
X12484348Y-16056484D02*
X12465301Y-16046960D01*
X12465301Y-16046960D02*
X12455777Y-16037436D01*
X12455777Y-16037436D02*
X12446253Y-16018388D01*
X12446253Y-16018388D02*
X12436729Y-15980293D01*
X12436729Y-15980293D02*
X12436729Y-15932674D01*
X12436729Y-15932674D02*
X12446253Y-15894579D01*
X12446253Y-15894579D02*
X12455777Y-15875531D01*
X12455777Y-15875531D02*
X12465301Y-15866008D01*
X12465301Y-15866008D02*
X12484348Y-15856484D01*
X12722444Y-15923150D02*
X12722444Y-16056484D01*
X12674825Y-15846960D02*
X12627206Y-15989817D01*
X12627206Y-15989817D02*
X12751015Y-15989817D01*
X12808158Y-15856484D02*
X12931967Y-15856484D01*
X12931967Y-15856484D02*
X12865301Y-15932674D01*
X12865301Y-15932674D02*
X12893872Y-15932674D01*
X12893872Y-15932674D02*
X12912920Y-15942198D01*
X12912920Y-15942198D02*
X12922444Y-15951722D01*
X12922444Y-15951722D02*
X12931967Y-15970769D01*
X12931967Y-15970769D02*
X12931967Y-16018388D01*
X12931967Y-16018388D02*
X12922444Y-16037436D01*
X12922444Y-16037436D02*
X12912920Y-16046960D01*
X12912920Y-16046960D02*
X12893872Y-16056484D01*
X12893872Y-16056484D02*
X12836729Y-16056484D01*
X12836729Y-16056484D02*
X12817682Y-16046960D01*
X12817682Y-16046960D02*
X12808158Y-16037436D01*
X12998634Y-15856484D02*
X13122444Y-15856484D01*
X13122444Y-15856484D02*
X13055777Y-15932674D01*
X13055777Y-15932674D02*
X13084348Y-15932674D01*
X13084348Y-15932674D02*
X13103396Y-15942198D01*
X13103396Y-15942198D02*
X13112920Y-15951722D01*
X13112920Y-15951722D02*
X13122444Y-15970769D01*
X13122444Y-15970769D02*
X13122444Y-16018388D01*
X13122444Y-16018388D02*
X13112920Y-16037436D01*
X13112920Y-16037436D02*
X13103396Y-16046960D01*
X13103396Y-16046960D02*
X13084348Y-16056484D01*
X13084348Y-16056484D02*
X13027206Y-16056484D01*
X13027206Y-16056484D02*
X13008158Y-16046960D01*
X13008158Y-16046960D02*
X12998634Y-16037436D01*
X13198634Y-15856484D02*
X13198634Y-15894579D01*
X13274825Y-15856484D02*
X13274825Y-15894579D01*
X13570063Y-16132674D02*
X13560539Y-16123150D01*
X13560539Y-16123150D02*
X13541491Y-16094579D01*
X13541491Y-16094579D02*
X13531968Y-16075531D01*
X13531968Y-16075531D02*
X13522444Y-16046960D01*
X13522444Y-16046960D02*
X13512920Y-15999341D01*
X13512920Y-15999341D02*
X13512920Y-15961246D01*
X13512920Y-15961246D02*
X13522444Y-15913627D01*
X13522444Y-15913627D02*
X13531968Y-15885055D01*
X13531968Y-15885055D02*
X13541491Y-15866008D01*
X13541491Y-15866008D02*
X13560539Y-15837436D01*
X13560539Y-15837436D02*
X13570063Y-15827912D01*
X13731968Y-15856484D02*
X13693872Y-15856484D01*
X13693872Y-15856484D02*
X13674825Y-15866008D01*
X13674825Y-15866008D02*
X13665301Y-15875531D01*
X13665301Y-15875531D02*
X13646253Y-15904103D01*
X13646253Y-15904103D02*
X13636729Y-15942198D01*
X13636729Y-15942198D02*
X13636729Y-16018388D01*
X13636729Y-16018388D02*
X13646253Y-16037436D01*
X13646253Y-16037436D02*
X13655777Y-16046960D01*
X13655777Y-16046960D02*
X13674825Y-16056484D01*
X13674825Y-16056484D02*
X13712920Y-16056484D01*
X13712920Y-16056484D02*
X13731968Y-16046960D01*
X13731968Y-16046960D02*
X13741491Y-16037436D01*
X13741491Y-16037436D02*
X13751015Y-16018388D01*
X13751015Y-16018388D02*
X13751015Y-15970769D01*
X13751015Y-15970769D02*
X13741491Y-15951722D01*
X13741491Y-15951722D02*
X13731968Y-15942198D01*
X13731968Y-15942198D02*
X13712920Y-15932674D01*
X13712920Y-15932674D02*
X13674825Y-15932674D01*
X13674825Y-15932674D02*
X13655777Y-15942198D01*
X13655777Y-15942198D02*
X13646253Y-15951722D01*
X13646253Y-15951722D02*
X13636729Y-15970769D01*
X13989110Y-16056484D02*
X13989110Y-15856484D01*
X14074825Y-16056484D02*
X14074825Y-15951722D01*
X14074825Y-15951722D02*
X14065301Y-15932674D01*
X14065301Y-15932674D02*
X14046253Y-15923150D01*
X14046253Y-15923150D02*
X14017682Y-15923150D01*
X14017682Y-15923150D02*
X13998634Y-15932674D01*
X13998634Y-15932674D02*
X13989110Y-15942198D01*
X14198634Y-16056484D02*
X14179587Y-16046960D01*
X14179587Y-16046960D02*
X14170063Y-16037436D01*
X14170063Y-16037436D02*
X14160539Y-16018388D01*
X14160539Y-16018388D02*
X14160539Y-15961246D01*
X14160539Y-15961246D02*
X14170063Y-15942198D01*
X14170063Y-15942198D02*
X14179587Y-15932674D01*
X14179587Y-15932674D02*
X14198634Y-15923150D01*
X14198634Y-15923150D02*
X14227206Y-15923150D01*
X14227206Y-15923150D02*
X14246253Y-15932674D01*
X14246253Y-15932674D02*
X14255777Y-15942198D01*
X14255777Y-15942198D02*
X14265301Y-15961246D01*
X14265301Y-15961246D02*
X14265301Y-16018388D01*
X14265301Y-16018388D02*
X14255777Y-16037436D01*
X14255777Y-16037436D02*
X14246253Y-16046960D01*
X14246253Y-16046960D02*
X14227206Y-16056484D01*
X14227206Y-16056484D02*
X14198634Y-16056484D01*
X14379587Y-16056484D02*
X14360539Y-16046960D01*
X14360539Y-16046960D02*
X14351015Y-16027912D01*
X14351015Y-16027912D02*
X14351015Y-15856484D01*
X14531968Y-16046960D02*
X14512920Y-16056484D01*
X14512920Y-16056484D02*
X14474825Y-16056484D01*
X14474825Y-16056484D02*
X14455777Y-16046960D01*
X14455777Y-16046960D02*
X14446253Y-16027912D01*
X14446253Y-16027912D02*
X14446253Y-15951722D01*
X14446253Y-15951722D02*
X14455777Y-15932674D01*
X14455777Y-15932674D02*
X14474825Y-15923150D01*
X14474825Y-15923150D02*
X14512920Y-15923150D01*
X14512920Y-15923150D02*
X14531968Y-15932674D01*
X14531968Y-15932674D02*
X14541491Y-15951722D01*
X14541491Y-15951722D02*
X14541491Y-15970769D01*
X14541491Y-15970769D02*
X14446253Y-15989817D01*
X14617682Y-16046960D02*
X14636730Y-16056484D01*
X14636730Y-16056484D02*
X14674825Y-16056484D01*
X14674825Y-16056484D02*
X14693872Y-16046960D01*
X14693872Y-16046960D02*
X14703396Y-16027912D01*
X14703396Y-16027912D02*
X14703396Y-16018388D01*
X14703396Y-16018388D02*
X14693872Y-15999341D01*
X14693872Y-15999341D02*
X14674825Y-15989817D01*
X14674825Y-15989817D02*
X14646253Y-15989817D01*
X14646253Y-15989817D02*
X14627206Y-15980293D01*
X14627206Y-15980293D02*
X14617682Y-15961246D01*
X14617682Y-15961246D02*
X14617682Y-15951722D01*
X14617682Y-15951722D02*
X14627206Y-15932674D01*
X14627206Y-15932674D02*
X14646253Y-15923150D01*
X14646253Y-15923150D02*
X14674825Y-15923150D01*
X14674825Y-15923150D02*
X14693872Y-15932674D01*
X14770063Y-16132674D02*
X14779587Y-16123150D01*
X14779587Y-16123150D02*
X14798634Y-16094579D01*
X14798634Y-16094579D02*
X14808158Y-16075531D01*
X14808158Y-16075531D02*
X14817682Y-16046960D01*
X14817682Y-16046960D02*
X14827206Y-15999341D01*
X14827206Y-15999341D02*
X14827206Y-15961246D01*
X14827206Y-15961246D02*
X14817682Y-15913627D01*
X14817682Y-15913627D02*
X14808158Y-15885055D01*
X14808158Y-15885055D02*
X14798634Y-15866008D01*
X14798634Y-15866008D02*
X14779587Y-15837436D01*
X14779587Y-15837436D02*
X14770063Y-15827912D01*
D12*
X9885000Y-16174000D02*
X9995000Y-16284000D01*
X9995000Y-16174000D02*
X9885000Y-16284000D01*
X9940000Y-16174000D02*
X9940000Y-16284000D01*
X9885000Y-16229000D02*
X9995000Y-16229000D01*
D11*
X10360539Y-16320484D02*
X10246253Y-16320484D01*
X10303396Y-16320484D02*
X10303396Y-16120484D01*
X10303396Y-16120484D02*
X10284348Y-16149055D01*
X10284348Y-16149055D02*
X10265301Y-16168103D01*
X10265301Y-16168103D02*
X10246253Y-16177627D01*
X10446253Y-16301436D02*
X10455777Y-16310960D01*
X10455777Y-16310960D02*
X10446253Y-16320484D01*
X10446253Y-16320484D02*
X10436729Y-16310960D01*
X10436729Y-16310960D02*
X10446253Y-16301436D01*
X10446253Y-16301436D02*
X10446253Y-16320484D01*
X10646253Y-16320484D02*
X10531967Y-16320484D01*
X10589110Y-16320484D02*
X10589110Y-16120484D01*
X10589110Y-16120484D02*
X10570063Y-16149055D01*
X10570063Y-16149055D02*
X10551015Y-16168103D01*
X10551015Y-16168103D02*
X10531967Y-16177627D01*
X10770063Y-16120484D02*
X10789110Y-16120484D01*
X10789110Y-16120484D02*
X10808158Y-16130008D01*
X10808158Y-16130008D02*
X10817682Y-16139531D01*
X10817682Y-16139531D02*
X10827205Y-16158579D01*
X10827205Y-16158579D02*
X10836729Y-16196674D01*
X10836729Y-16196674D02*
X10836729Y-16244293D01*
X10836729Y-16244293D02*
X10827205Y-16282388D01*
X10827205Y-16282388D02*
X10817682Y-16301436D01*
X10817682Y-16301436D02*
X10808158Y-16310960D01*
X10808158Y-16310960D02*
X10789110Y-16320484D01*
X10789110Y-16320484D02*
X10770063Y-16320484D01*
X10770063Y-16320484D02*
X10751015Y-16310960D01*
X10751015Y-16310960D02*
X10741491Y-16301436D01*
X10741491Y-16301436D02*
X10731967Y-16282388D01*
X10731967Y-16282388D02*
X10722444Y-16244293D01*
X10722444Y-16244293D02*
X10722444Y-16196674D01*
X10722444Y-16196674D02*
X10731967Y-16158579D01*
X10731967Y-16158579D02*
X10741491Y-16139531D01*
X10741491Y-16139531D02*
X10751015Y-16130008D01*
X10751015Y-16130008D02*
X10770063Y-16120484D01*
X10960539Y-16120484D02*
X10979586Y-16120484D01*
X10979586Y-16120484D02*
X10998634Y-16130008D01*
X10998634Y-16130008D02*
X11008158Y-16139531D01*
X11008158Y-16139531D02*
X11017682Y-16158579D01*
X11017682Y-16158579D02*
X11027205Y-16196674D01*
X11027205Y-16196674D02*
X11027205Y-16244293D01*
X11027205Y-16244293D02*
X11017682Y-16282388D01*
X11017682Y-16282388D02*
X11008158Y-16301436D01*
X11008158Y-16301436D02*
X10998634Y-16310960D01*
X10998634Y-16310960D02*
X10979586Y-16320484D01*
X10979586Y-16320484D02*
X10960539Y-16320484D01*
X10960539Y-16320484D02*
X10941491Y-16310960D01*
X10941491Y-16310960D02*
X10931967Y-16301436D01*
X10931967Y-16301436D02*
X10922444Y-16282388D01*
X10922444Y-16282388D02*
X10912920Y-16244293D01*
X10912920Y-16244293D02*
X10912920Y-16196674D01*
X10912920Y-16196674D02*
X10922444Y-16158579D01*
X10922444Y-16158579D02*
X10931967Y-16139531D01*
X10931967Y-16139531D02*
X10941491Y-16130008D01*
X10941491Y-16130008D02*
X10960539Y-16120484D01*
X11112920Y-16320484D02*
X11112920Y-16187150D01*
X11112920Y-16206198D02*
X11122444Y-16196674D01*
X11122444Y-16196674D02*
X11141491Y-16187150D01*
X11141491Y-16187150D02*
X11170063Y-16187150D01*
X11170063Y-16187150D02*
X11189110Y-16196674D01*
X11189110Y-16196674D02*
X11198634Y-16215722D01*
X11198634Y-16215722D02*
X11198634Y-16320484D01*
X11198634Y-16215722D02*
X11208158Y-16196674D01*
X11208158Y-16196674D02*
X11227205Y-16187150D01*
X11227205Y-16187150D02*
X11255777Y-16187150D01*
X11255777Y-16187150D02*
X11274824Y-16196674D01*
X11274824Y-16196674D02*
X11284348Y-16215722D01*
X11284348Y-16215722D02*
X11284348Y-16320484D01*
X11379586Y-16320484D02*
X11379586Y-16187150D01*
X11379586Y-16206198D02*
X11389110Y-16196674D01*
X11389110Y-16196674D02*
X11408158Y-16187150D01*
X11408158Y-16187150D02*
X11436729Y-16187150D01*
X11436729Y-16187150D02*
X11455777Y-16196674D01*
X11455777Y-16196674D02*
X11465301Y-16215722D01*
X11465301Y-16215722D02*
X11465301Y-16320484D01*
X11465301Y-16215722D02*
X11474824Y-16196674D01*
X11474824Y-16196674D02*
X11493872Y-16187150D01*
X11493872Y-16187150D02*
X11522443Y-16187150D01*
X11522443Y-16187150D02*
X11541491Y-16196674D01*
X11541491Y-16196674D02*
X11551015Y-16215722D01*
X11551015Y-16215722D02*
X11551015Y-16320484D01*
X11941491Y-16110960D02*
X11770063Y-16368103D01*
X12198634Y-16120484D02*
X12217682Y-16120484D01*
X12217682Y-16120484D02*
X12236729Y-16130008D01*
X12236729Y-16130008D02*
X12246253Y-16139531D01*
X12246253Y-16139531D02*
X12255777Y-16158579D01*
X12255777Y-16158579D02*
X12265301Y-16196674D01*
X12265301Y-16196674D02*
X12265301Y-16244293D01*
X12265301Y-16244293D02*
X12255777Y-16282388D01*
X12255777Y-16282388D02*
X12246253Y-16301436D01*
X12246253Y-16301436D02*
X12236729Y-16310960D01*
X12236729Y-16310960D02*
X12217682Y-16320484D01*
X12217682Y-16320484D02*
X12198634Y-16320484D01*
X12198634Y-16320484D02*
X12179586Y-16310960D01*
X12179586Y-16310960D02*
X12170063Y-16301436D01*
X12170063Y-16301436D02*
X12160539Y-16282388D01*
X12160539Y-16282388D02*
X12151015Y-16244293D01*
X12151015Y-16244293D02*
X12151015Y-16196674D01*
X12151015Y-16196674D02*
X12160539Y-16158579D01*
X12160539Y-16158579D02*
X12170063Y-16139531D01*
X12170063Y-16139531D02*
X12179586Y-16130008D01*
X12179586Y-16130008D02*
X12198634Y-16120484D01*
X12351015Y-16301436D02*
X12360539Y-16310960D01*
X12360539Y-16310960D02*
X12351015Y-16320484D01*
X12351015Y-16320484D02*
X12341491Y-16310960D01*
X12341491Y-16310960D02*
X12351015Y-16301436D01*
X12351015Y-16301436D02*
X12351015Y-16320484D01*
X12484348Y-16120484D02*
X12503396Y-16120484D01*
X12503396Y-16120484D02*
X12522444Y-16130008D01*
X12522444Y-16130008D02*
X12531967Y-16139531D01*
X12531967Y-16139531D02*
X12541491Y-16158579D01*
X12541491Y-16158579D02*
X12551015Y-16196674D01*
X12551015Y-16196674D02*
X12551015Y-16244293D01*
X12551015Y-16244293D02*
X12541491Y-16282388D01*
X12541491Y-16282388D02*
X12531967Y-16301436D01*
X12531967Y-16301436D02*
X12522444Y-16310960D01*
X12522444Y-16310960D02*
X12503396Y-16320484D01*
X12503396Y-16320484D02*
X12484348Y-16320484D01*
X12484348Y-16320484D02*
X12465301Y-16310960D01*
X12465301Y-16310960D02*
X12455777Y-16301436D01*
X12455777Y-16301436D02*
X12446253Y-16282388D01*
X12446253Y-16282388D02*
X12436729Y-16244293D01*
X12436729Y-16244293D02*
X12436729Y-16196674D01*
X12436729Y-16196674D02*
X12446253Y-16158579D01*
X12446253Y-16158579D02*
X12455777Y-16139531D01*
X12455777Y-16139531D02*
X12465301Y-16130008D01*
X12465301Y-16130008D02*
X12484348Y-16120484D01*
X12722444Y-16187150D02*
X12722444Y-16320484D01*
X12674825Y-16110960D02*
X12627206Y-16253817D01*
X12627206Y-16253817D02*
X12751015Y-16253817D01*
X12808158Y-16120484D02*
X12931967Y-16120484D01*
X12931967Y-16120484D02*
X12865301Y-16196674D01*
X12865301Y-16196674D02*
X12893872Y-16196674D01*
X12893872Y-16196674D02*
X12912920Y-16206198D01*
X12912920Y-16206198D02*
X12922444Y-16215722D01*
X12922444Y-16215722D02*
X12931967Y-16234769D01*
X12931967Y-16234769D02*
X12931967Y-16282388D01*
X12931967Y-16282388D02*
X12922444Y-16301436D01*
X12922444Y-16301436D02*
X12912920Y-16310960D01*
X12912920Y-16310960D02*
X12893872Y-16320484D01*
X12893872Y-16320484D02*
X12836729Y-16320484D01*
X12836729Y-16320484D02*
X12817682Y-16310960D01*
X12817682Y-16310960D02*
X12808158Y-16301436D01*
X12998634Y-16120484D02*
X13122444Y-16120484D01*
X13122444Y-16120484D02*
X13055777Y-16196674D01*
X13055777Y-16196674D02*
X13084348Y-16196674D01*
X13084348Y-16196674D02*
X13103396Y-16206198D01*
X13103396Y-16206198D02*
X13112920Y-16215722D01*
X13112920Y-16215722D02*
X13122444Y-16234769D01*
X13122444Y-16234769D02*
X13122444Y-16282388D01*
X13122444Y-16282388D02*
X13112920Y-16301436D01*
X13112920Y-16301436D02*
X13103396Y-16310960D01*
X13103396Y-16310960D02*
X13084348Y-16320484D01*
X13084348Y-16320484D02*
X13027206Y-16320484D01*
X13027206Y-16320484D02*
X13008158Y-16310960D01*
X13008158Y-16310960D02*
X12998634Y-16301436D01*
X13198634Y-16120484D02*
X13198634Y-16158579D01*
X13274825Y-16120484D02*
X13274825Y-16158579D01*
X13570063Y-16396674D02*
X13560539Y-16387150D01*
X13560539Y-16387150D02*
X13541491Y-16358579D01*
X13541491Y-16358579D02*
X13531968Y-16339531D01*
X13531968Y-16339531D02*
X13522444Y-16310960D01*
X13522444Y-16310960D02*
X13512920Y-16263341D01*
X13512920Y-16263341D02*
X13512920Y-16225246D01*
X13512920Y-16225246D02*
X13522444Y-16177627D01*
X13522444Y-16177627D02*
X13531968Y-16149055D01*
X13531968Y-16149055D02*
X13541491Y-16130008D01*
X13541491Y-16130008D02*
X13560539Y-16101436D01*
X13560539Y-16101436D02*
X13570063Y-16091912D01*
X13636729Y-16139531D02*
X13646253Y-16130008D01*
X13646253Y-16130008D02*
X13665301Y-16120484D01*
X13665301Y-16120484D02*
X13712920Y-16120484D01*
X13712920Y-16120484D02*
X13731968Y-16130008D01*
X13731968Y-16130008D02*
X13741491Y-16139531D01*
X13741491Y-16139531D02*
X13751015Y-16158579D01*
X13751015Y-16158579D02*
X13751015Y-16177627D01*
X13751015Y-16177627D02*
X13741491Y-16206198D01*
X13741491Y-16206198D02*
X13627206Y-16320484D01*
X13627206Y-16320484D02*
X13751015Y-16320484D01*
X13989110Y-16320484D02*
X13989110Y-16120484D01*
X14074825Y-16320484D02*
X14074825Y-16215722D01*
X14074825Y-16215722D02*
X14065301Y-16196674D01*
X14065301Y-16196674D02*
X14046253Y-16187150D01*
X14046253Y-16187150D02*
X14017682Y-16187150D01*
X14017682Y-16187150D02*
X13998634Y-16196674D01*
X13998634Y-16196674D02*
X13989110Y-16206198D01*
X14198634Y-16320484D02*
X14179587Y-16310960D01*
X14179587Y-16310960D02*
X14170063Y-16301436D01*
X14170063Y-16301436D02*
X14160539Y-16282388D01*
X14160539Y-16282388D02*
X14160539Y-16225246D01*
X14160539Y-16225246D02*
X14170063Y-16206198D01*
X14170063Y-16206198D02*
X14179587Y-16196674D01*
X14179587Y-16196674D02*
X14198634Y-16187150D01*
X14198634Y-16187150D02*
X14227206Y-16187150D01*
X14227206Y-16187150D02*
X14246253Y-16196674D01*
X14246253Y-16196674D02*
X14255777Y-16206198D01*
X14255777Y-16206198D02*
X14265301Y-16225246D01*
X14265301Y-16225246D02*
X14265301Y-16282388D01*
X14265301Y-16282388D02*
X14255777Y-16301436D01*
X14255777Y-16301436D02*
X14246253Y-16310960D01*
X14246253Y-16310960D02*
X14227206Y-16320484D01*
X14227206Y-16320484D02*
X14198634Y-16320484D01*
X14379587Y-16320484D02*
X14360539Y-16310960D01*
X14360539Y-16310960D02*
X14351015Y-16291912D01*
X14351015Y-16291912D02*
X14351015Y-16120484D01*
X14531968Y-16310960D02*
X14512920Y-16320484D01*
X14512920Y-16320484D02*
X14474825Y-16320484D01*
X14474825Y-16320484D02*
X14455777Y-16310960D01*
X14455777Y-16310960D02*
X14446253Y-16291912D01*
X14446253Y-16291912D02*
X14446253Y-16215722D01*
X14446253Y-16215722D02*
X14455777Y-16196674D01*
X14455777Y-16196674D02*
X14474825Y-16187150D01*
X14474825Y-16187150D02*
X14512920Y-16187150D01*
X14512920Y-16187150D02*
X14531968Y-16196674D01*
X14531968Y-16196674D02*
X14541491Y-16215722D01*
X14541491Y-16215722D02*
X14541491Y-16234769D01*
X14541491Y-16234769D02*
X14446253Y-16253817D01*
X14617682Y-16310960D02*
X14636730Y-16320484D01*
X14636730Y-16320484D02*
X14674825Y-16320484D01*
X14674825Y-16320484D02*
X14693872Y-16310960D01*
X14693872Y-16310960D02*
X14703396Y-16291912D01*
X14703396Y-16291912D02*
X14703396Y-16282388D01*
X14703396Y-16282388D02*
X14693872Y-16263341D01*
X14693872Y-16263341D02*
X14674825Y-16253817D01*
X14674825Y-16253817D02*
X14646253Y-16253817D01*
X14646253Y-16253817D02*
X14627206Y-16244293D01*
X14627206Y-16244293D02*
X14617682Y-16225246D01*
X14617682Y-16225246D02*
X14617682Y-16215722D01*
X14617682Y-16215722D02*
X14627206Y-16196674D01*
X14627206Y-16196674D02*
X14646253Y-16187150D01*
X14646253Y-16187150D02*
X14674825Y-16187150D01*
X14674825Y-16187150D02*
X14693872Y-16196674D01*
X14770063Y-16396674D02*
X14779587Y-16387150D01*
X14779587Y-16387150D02*
X14798634Y-16358579D01*
X14798634Y-16358579D02*
X14808158Y-16339531D01*
X14808158Y-16339531D02*
X14817682Y-16310960D01*
X14817682Y-16310960D02*
X14827206Y-16263341D01*
X14827206Y-16263341D02*
X14827206Y-16225246D01*
X14827206Y-16225246D02*
X14817682Y-16177627D01*
X14817682Y-16177627D02*
X14808158Y-16149055D01*
X14808158Y-16149055D02*
X14798634Y-16130008D01*
X14798634Y-16130008D02*
X14779587Y-16101436D01*
X14779587Y-16101436D02*
X14770063Y-16091912D01*
X15131968Y-16396674D02*
X15122444Y-16387150D01*
X15122444Y-16387150D02*
X15103396Y-16358579D01*
X15103396Y-16358579D02*
X15093872Y-16339531D01*
X15093872Y-16339531D02*
X15084349Y-16310960D01*
X15084349Y-16310960D02*
X15074825Y-16263341D01*
X15074825Y-16263341D02*
X15074825Y-16225246D01*
X15074825Y-16225246D02*
X15084349Y-16177627D01*
X15084349Y-16177627D02*
X15093872Y-16149055D01*
X15093872Y-16149055D02*
X15103396Y-16130008D01*
X15103396Y-16130008D02*
X15122444Y-16101436D01*
X15122444Y-16101436D02*
X15131968Y-16091912D01*
X15208158Y-16187150D02*
X15208158Y-16320484D01*
X15208158Y-16206198D02*
X15217682Y-16196674D01*
X15217682Y-16196674D02*
X15236730Y-16187150D01*
X15236730Y-16187150D02*
X15265301Y-16187150D01*
X15265301Y-16187150D02*
X15284349Y-16196674D01*
X15284349Y-16196674D02*
X15293872Y-16215722D01*
X15293872Y-16215722D02*
X15293872Y-16320484D01*
X15417682Y-16320484D02*
X15398634Y-16310960D01*
X15398634Y-16310960D02*
X15389111Y-16301436D01*
X15389111Y-16301436D02*
X15379587Y-16282388D01*
X15379587Y-16282388D02*
X15379587Y-16225246D01*
X15379587Y-16225246D02*
X15389111Y-16206198D01*
X15389111Y-16206198D02*
X15398634Y-16196674D01*
X15398634Y-16196674D02*
X15417682Y-16187150D01*
X15417682Y-16187150D02*
X15446253Y-16187150D01*
X15446253Y-16187150D02*
X15465301Y-16196674D01*
X15465301Y-16196674D02*
X15474825Y-16206198D01*
X15474825Y-16206198D02*
X15484349Y-16225246D01*
X15484349Y-16225246D02*
X15484349Y-16282388D01*
X15484349Y-16282388D02*
X15474825Y-16301436D01*
X15474825Y-16301436D02*
X15465301Y-16310960D01*
X15465301Y-16310960D02*
X15446253Y-16320484D01*
X15446253Y-16320484D02*
X15417682Y-16320484D01*
X15541492Y-16187150D02*
X15617682Y-16187150D01*
X15570063Y-16120484D02*
X15570063Y-16291912D01*
X15570063Y-16291912D02*
X15579587Y-16310960D01*
X15579587Y-16310960D02*
X15598634Y-16320484D01*
X15598634Y-16320484D02*
X15617682Y-16320484D01*
X15836730Y-16187150D02*
X15836730Y-16387150D01*
X15836730Y-16196674D02*
X15855777Y-16187150D01*
X15855777Y-16187150D02*
X15893873Y-16187150D01*
X15893873Y-16187150D02*
X15912920Y-16196674D01*
X15912920Y-16196674D02*
X15922444Y-16206198D01*
X15922444Y-16206198D02*
X15931968Y-16225246D01*
X15931968Y-16225246D02*
X15931968Y-16282388D01*
X15931968Y-16282388D02*
X15922444Y-16301436D01*
X15922444Y-16301436D02*
X15912920Y-16310960D01*
X15912920Y-16310960D02*
X15893873Y-16320484D01*
X15893873Y-16320484D02*
X15855777Y-16320484D01*
X15855777Y-16320484D02*
X15836730Y-16310960D01*
X16046253Y-16320484D02*
X16027206Y-16310960D01*
X16027206Y-16310960D02*
X16017682Y-16291912D01*
X16017682Y-16291912D02*
X16017682Y-16120484D01*
X16208158Y-16320484D02*
X16208158Y-16215722D01*
X16208158Y-16215722D02*
X16198634Y-16196674D01*
X16198634Y-16196674D02*
X16179587Y-16187150D01*
X16179587Y-16187150D02*
X16141492Y-16187150D01*
X16141492Y-16187150D02*
X16122444Y-16196674D01*
X16208158Y-16310960D02*
X16189111Y-16320484D01*
X16189111Y-16320484D02*
X16141492Y-16320484D01*
X16141492Y-16320484D02*
X16122444Y-16310960D01*
X16122444Y-16310960D02*
X16112920Y-16291912D01*
X16112920Y-16291912D02*
X16112920Y-16272865D01*
X16112920Y-16272865D02*
X16122444Y-16253817D01*
X16122444Y-16253817D02*
X16141492Y-16244293D01*
X16141492Y-16244293D02*
X16189111Y-16244293D01*
X16189111Y-16244293D02*
X16208158Y-16234769D01*
X16274825Y-16187150D02*
X16351015Y-16187150D01*
X16303396Y-16120484D02*
X16303396Y-16291912D01*
X16303396Y-16291912D02*
X16312920Y-16310960D01*
X16312920Y-16310960D02*
X16331968Y-16320484D01*
X16331968Y-16320484D02*
X16351015Y-16320484D01*
X16493873Y-16310960D02*
X16474825Y-16320484D01*
X16474825Y-16320484D02*
X16436730Y-16320484D01*
X16436730Y-16320484D02*
X16417682Y-16310960D01*
X16417682Y-16310960D02*
X16408158Y-16291912D01*
X16408158Y-16291912D02*
X16408158Y-16215722D01*
X16408158Y-16215722D02*
X16417682Y-16196674D01*
X16417682Y-16196674D02*
X16436730Y-16187150D01*
X16436730Y-16187150D02*
X16474825Y-16187150D01*
X16474825Y-16187150D02*
X16493873Y-16196674D01*
X16493873Y-16196674D02*
X16503396Y-16215722D01*
X16503396Y-16215722D02*
X16503396Y-16234769D01*
X16503396Y-16234769D02*
X16408158Y-16253817D01*
X16674825Y-16320484D02*
X16674825Y-16120484D01*
X16674825Y-16310960D02*
X16655777Y-16320484D01*
X16655777Y-16320484D02*
X16617682Y-16320484D01*
X16617682Y-16320484D02*
X16598634Y-16310960D01*
X16598634Y-16310960D02*
X16589111Y-16301436D01*
X16589111Y-16301436D02*
X16579587Y-16282388D01*
X16579587Y-16282388D02*
X16579587Y-16225246D01*
X16579587Y-16225246D02*
X16589111Y-16206198D01*
X16589111Y-16206198D02*
X16598634Y-16196674D01*
X16598634Y-16196674D02*
X16617682Y-16187150D01*
X16617682Y-16187150D02*
X16655777Y-16187150D01*
X16655777Y-16187150D02*
X16674825Y-16196674D01*
X16751015Y-16396674D02*
X16760539Y-16387150D01*
X16760539Y-16387150D02*
X16779587Y-16358579D01*
X16779587Y-16358579D02*
X16789111Y-16339531D01*
X16789111Y-16339531D02*
X16798635Y-16310960D01*
X16798635Y-16310960D02*
X16808158Y-16263341D01*
X16808158Y-16263341D02*
X16808158Y-16225246D01*
X16808158Y-16225246D02*
X16798635Y-16177627D01*
X16798635Y-16177627D02*
X16789111Y-16149055D01*
X16789111Y-16149055D02*
X16779587Y-16130008D01*
X16779587Y-16130008D02*
X16760539Y-16101436D01*
X16760539Y-16101436D02*
X16751015Y-16091912D01*
X9795000Y-16393000D02*
X9995000Y-16593000D01*
X9995000Y-16393000D02*
X9795000Y-16593000D01*
X9965711Y-16563711D02*
X9965711Y-16422289D01*
X9824289Y-16422289D01*
X9824289Y-16563711D01*
X9965711Y-16563711D01*
X10236729Y-16384484D02*
X10360539Y-16384484D01*
X10360539Y-16384484D02*
X10293872Y-16460674D01*
X10293872Y-16460674D02*
X10322444Y-16460674D01*
X10322444Y-16460674D02*
X10341491Y-16470198D01*
X10341491Y-16470198D02*
X10351015Y-16479722D01*
X10351015Y-16479722D02*
X10360539Y-16498769D01*
X10360539Y-16498769D02*
X10360539Y-16546388D01*
X10360539Y-16546388D02*
X10351015Y-16565436D01*
X10351015Y-16565436D02*
X10341491Y-16574960D01*
X10341491Y-16574960D02*
X10322444Y-16584484D01*
X10322444Y-16584484D02*
X10265301Y-16584484D01*
X10265301Y-16584484D02*
X10246253Y-16574960D01*
X10246253Y-16574960D02*
X10236729Y-16565436D01*
X10446253Y-16565436D02*
X10455777Y-16574960D01*
X10455777Y-16574960D02*
X10446253Y-16584484D01*
X10446253Y-16584484D02*
X10436729Y-16574960D01*
X10436729Y-16574960D02*
X10446253Y-16565436D01*
X10446253Y-16565436D02*
X10446253Y-16584484D01*
X10531967Y-16403531D02*
X10541491Y-16394008D01*
X10541491Y-16394008D02*
X10560539Y-16384484D01*
X10560539Y-16384484D02*
X10608158Y-16384484D01*
X10608158Y-16384484D02*
X10627205Y-16394008D01*
X10627205Y-16394008D02*
X10636729Y-16403531D01*
X10636729Y-16403531D02*
X10646253Y-16422579D01*
X10646253Y-16422579D02*
X10646253Y-16441627D01*
X10646253Y-16441627D02*
X10636729Y-16470198D01*
X10636729Y-16470198D02*
X10522444Y-16584484D01*
X10522444Y-16584484D02*
X10646253Y-16584484D01*
X10770063Y-16384484D02*
X10789110Y-16384484D01*
X10789110Y-16384484D02*
X10808158Y-16394008D01*
X10808158Y-16394008D02*
X10817682Y-16403531D01*
X10817682Y-16403531D02*
X10827205Y-16422579D01*
X10827205Y-16422579D02*
X10836729Y-16460674D01*
X10836729Y-16460674D02*
X10836729Y-16508293D01*
X10836729Y-16508293D02*
X10827205Y-16546388D01*
X10827205Y-16546388D02*
X10817682Y-16565436D01*
X10817682Y-16565436D02*
X10808158Y-16574960D01*
X10808158Y-16574960D02*
X10789110Y-16584484D01*
X10789110Y-16584484D02*
X10770063Y-16584484D01*
X10770063Y-16584484D02*
X10751015Y-16574960D01*
X10751015Y-16574960D02*
X10741491Y-16565436D01*
X10741491Y-16565436D02*
X10731967Y-16546388D01*
X10731967Y-16546388D02*
X10722444Y-16508293D01*
X10722444Y-16508293D02*
X10722444Y-16460674D01*
X10722444Y-16460674D02*
X10731967Y-16422579D01*
X10731967Y-16422579D02*
X10741491Y-16403531D01*
X10741491Y-16403531D02*
X10751015Y-16394008D01*
X10751015Y-16394008D02*
X10770063Y-16384484D01*
X10960539Y-16384484D02*
X10979586Y-16384484D01*
X10979586Y-16384484D02*
X10998634Y-16394008D01*
X10998634Y-16394008D02*
X11008158Y-16403531D01*
X11008158Y-16403531D02*
X11017682Y-16422579D01*
X11017682Y-16422579D02*
X11027205Y-16460674D01*
X11027205Y-16460674D02*
X11027205Y-16508293D01*
X11027205Y-16508293D02*
X11017682Y-16546388D01*
X11017682Y-16546388D02*
X11008158Y-16565436D01*
X11008158Y-16565436D02*
X10998634Y-16574960D01*
X10998634Y-16574960D02*
X10979586Y-16584484D01*
X10979586Y-16584484D02*
X10960539Y-16584484D01*
X10960539Y-16584484D02*
X10941491Y-16574960D01*
X10941491Y-16574960D02*
X10931967Y-16565436D01*
X10931967Y-16565436D02*
X10922444Y-16546388D01*
X10922444Y-16546388D02*
X10912920Y-16508293D01*
X10912920Y-16508293D02*
X10912920Y-16460674D01*
X10912920Y-16460674D02*
X10922444Y-16422579D01*
X10922444Y-16422579D02*
X10931967Y-16403531D01*
X10931967Y-16403531D02*
X10941491Y-16394008D01*
X10941491Y-16394008D02*
X10960539Y-16384484D01*
X11112920Y-16584484D02*
X11112920Y-16451150D01*
X11112920Y-16470198D02*
X11122444Y-16460674D01*
X11122444Y-16460674D02*
X11141491Y-16451150D01*
X11141491Y-16451150D02*
X11170063Y-16451150D01*
X11170063Y-16451150D02*
X11189110Y-16460674D01*
X11189110Y-16460674D02*
X11198634Y-16479722D01*
X11198634Y-16479722D02*
X11198634Y-16584484D01*
X11198634Y-16479722D02*
X11208158Y-16460674D01*
X11208158Y-16460674D02*
X11227205Y-16451150D01*
X11227205Y-16451150D02*
X11255777Y-16451150D01*
X11255777Y-16451150D02*
X11274824Y-16460674D01*
X11274824Y-16460674D02*
X11284348Y-16479722D01*
X11284348Y-16479722D02*
X11284348Y-16584484D01*
X11379586Y-16584484D02*
X11379586Y-16451150D01*
X11379586Y-16470198D02*
X11389110Y-16460674D01*
X11389110Y-16460674D02*
X11408158Y-16451150D01*
X11408158Y-16451150D02*
X11436729Y-16451150D01*
X11436729Y-16451150D02*
X11455777Y-16460674D01*
X11455777Y-16460674D02*
X11465301Y-16479722D01*
X11465301Y-16479722D02*
X11465301Y-16584484D01*
X11465301Y-16479722D02*
X11474824Y-16460674D01*
X11474824Y-16460674D02*
X11493872Y-16451150D01*
X11493872Y-16451150D02*
X11522443Y-16451150D01*
X11522443Y-16451150D02*
X11541491Y-16460674D01*
X11541491Y-16460674D02*
X11551015Y-16479722D01*
X11551015Y-16479722D02*
X11551015Y-16584484D01*
X11941491Y-16374960D02*
X11770063Y-16632103D01*
X12198634Y-16384484D02*
X12217682Y-16384484D01*
X12217682Y-16384484D02*
X12236729Y-16394008D01*
X12236729Y-16394008D02*
X12246253Y-16403531D01*
X12246253Y-16403531D02*
X12255777Y-16422579D01*
X12255777Y-16422579D02*
X12265301Y-16460674D01*
X12265301Y-16460674D02*
X12265301Y-16508293D01*
X12265301Y-16508293D02*
X12255777Y-16546388D01*
X12255777Y-16546388D02*
X12246253Y-16565436D01*
X12246253Y-16565436D02*
X12236729Y-16574960D01*
X12236729Y-16574960D02*
X12217682Y-16584484D01*
X12217682Y-16584484D02*
X12198634Y-16584484D01*
X12198634Y-16584484D02*
X12179586Y-16574960D01*
X12179586Y-16574960D02*
X12170063Y-16565436D01*
X12170063Y-16565436D02*
X12160539Y-16546388D01*
X12160539Y-16546388D02*
X12151015Y-16508293D01*
X12151015Y-16508293D02*
X12151015Y-16460674D01*
X12151015Y-16460674D02*
X12160539Y-16422579D01*
X12160539Y-16422579D02*
X12170063Y-16403531D01*
X12170063Y-16403531D02*
X12179586Y-16394008D01*
X12179586Y-16394008D02*
X12198634Y-16384484D01*
X12351015Y-16565436D02*
X12360539Y-16574960D01*
X12360539Y-16574960D02*
X12351015Y-16584484D01*
X12351015Y-16584484D02*
X12341491Y-16574960D01*
X12341491Y-16574960D02*
X12351015Y-16565436D01*
X12351015Y-16565436D02*
X12351015Y-16584484D01*
X12551015Y-16584484D02*
X12436729Y-16584484D01*
X12493872Y-16584484D02*
X12493872Y-16384484D01*
X12493872Y-16384484D02*
X12474825Y-16413055D01*
X12474825Y-16413055D02*
X12455777Y-16432103D01*
X12455777Y-16432103D02*
X12436729Y-16441627D01*
X12627206Y-16403531D02*
X12636729Y-16394008D01*
X12636729Y-16394008D02*
X12655777Y-16384484D01*
X12655777Y-16384484D02*
X12703396Y-16384484D01*
X12703396Y-16384484D02*
X12722444Y-16394008D01*
X12722444Y-16394008D02*
X12731967Y-16403531D01*
X12731967Y-16403531D02*
X12741491Y-16422579D01*
X12741491Y-16422579D02*
X12741491Y-16441627D01*
X12741491Y-16441627D02*
X12731967Y-16470198D01*
X12731967Y-16470198D02*
X12617682Y-16584484D01*
X12617682Y-16584484D02*
X12741491Y-16584484D01*
X12912920Y-16384484D02*
X12874825Y-16384484D01*
X12874825Y-16384484D02*
X12855777Y-16394008D01*
X12855777Y-16394008D02*
X12846253Y-16403531D01*
X12846253Y-16403531D02*
X12827206Y-16432103D01*
X12827206Y-16432103D02*
X12817682Y-16470198D01*
X12817682Y-16470198D02*
X12817682Y-16546388D01*
X12817682Y-16546388D02*
X12827206Y-16565436D01*
X12827206Y-16565436D02*
X12836729Y-16574960D01*
X12836729Y-16574960D02*
X12855777Y-16584484D01*
X12855777Y-16584484D02*
X12893872Y-16584484D01*
X12893872Y-16584484D02*
X12912920Y-16574960D01*
X12912920Y-16574960D02*
X12922444Y-16565436D01*
X12922444Y-16565436D02*
X12931967Y-16546388D01*
X12931967Y-16546388D02*
X12931967Y-16498769D01*
X12931967Y-16498769D02*
X12922444Y-16479722D01*
X12922444Y-16479722D02*
X12912920Y-16470198D01*
X12912920Y-16470198D02*
X12893872Y-16460674D01*
X12893872Y-16460674D02*
X12855777Y-16460674D01*
X12855777Y-16460674D02*
X12836729Y-16470198D01*
X12836729Y-16470198D02*
X12827206Y-16479722D01*
X12827206Y-16479722D02*
X12817682Y-16498769D01*
X13055777Y-16384484D02*
X13074825Y-16384484D01*
X13074825Y-16384484D02*
X13093872Y-16394008D01*
X13093872Y-16394008D02*
X13103396Y-16403531D01*
X13103396Y-16403531D02*
X13112920Y-16422579D01*
X13112920Y-16422579D02*
X13122444Y-16460674D01*
X13122444Y-16460674D02*
X13122444Y-16508293D01*
X13122444Y-16508293D02*
X13112920Y-16546388D01*
X13112920Y-16546388D02*
X13103396Y-16565436D01*
X13103396Y-16565436D02*
X13093872Y-16574960D01*
X13093872Y-16574960D02*
X13074825Y-16584484D01*
X13074825Y-16584484D02*
X13055777Y-16584484D01*
X13055777Y-16584484D02*
X13036729Y-16574960D01*
X13036729Y-16574960D02*
X13027206Y-16565436D01*
X13027206Y-16565436D02*
X13017682Y-16546388D01*
X13017682Y-16546388D02*
X13008158Y-16508293D01*
X13008158Y-16508293D02*
X13008158Y-16460674D01*
X13008158Y-16460674D02*
X13017682Y-16422579D01*
X13017682Y-16422579D02*
X13027206Y-16403531D01*
X13027206Y-16403531D02*
X13036729Y-16394008D01*
X13036729Y-16394008D02*
X13055777Y-16384484D01*
X13198634Y-16384484D02*
X13198634Y-16422579D01*
X13274825Y-16384484D02*
X13274825Y-16422579D01*
X13570063Y-16660674D02*
X13560539Y-16651150D01*
X13560539Y-16651150D02*
X13541491Y-16622579D01*
X13541491Y-16622579D02*
X13531968Y-16603531D01*
X13531968Y-16603531D02*
X13522444Y-16574960D01*
X13522444Y-16574960D02*
X13512920Y-16527341D01*
X13512920Y-16527341D02*
X13512920Y-16489246D01*
X13512920Y-16489246D02*
X13522444Y-16441627D01*
X13522444Y-16441627D02*
X13531968Y-16413055D01*
X13531968Y-16413055D02*
X13541491Y-16394008D01*
X13541491Y-16394008D02*
X13560539Y-16365436D01*
X13560539Y-16365436D02*
X13570063Y-16355912D01*
X13731968Y-16451150D02*
X13731968Y-16584484D01*
X13684348Y-16374960D02*
X13636729Y-16517817D01*
X13636729Y-16517817D02*
X13760539Y-16517817D01*
X13989110Y-16584484D02*
X13989110Y-16384484D01*
X14074825Y-16584484D02*
X14074825Y-16479722D01*
X14074825Y-16479722D02*
X14065301Y-16460674D01*
X14065301Y-16460674D02*
X14046253Y-16451150D01*
X14046253Y-16451150D02*
X14017682Y-16451150D01*
X14017682Y-16451150D02*
X13998634Y-16460674D01*
X13998634Y-16460674D02*
X13989110Y-16470198D01*
X14198634Y-16584484D02*
X14179587Y-16574960D01*
X14179587Y-16574960D02*
X14170063Y-16565436D01*
X14170063Y-16565436D02*
X14160539Y-16546388D01*
X14160539Y-16546388D02*
X14160539Y-16489246D01*
X14160539Y-16489246D02*
X14170063Y-16470198D01*
X14170063Y-16470198D02*
X14179587Y-16460674D01*
X14179587Y-16460674D02*
X14198634Y-16451150D01*
X14198634Y-16451150D02*
X14227206Y-16451150D01*
X14227206Y-16451150D02*
X14246253Y-16460674D01*
X14246253Y-16460674D02*
X14255777Y-16470198D01*
X14255777Y-16470198D02*
X14265301Y-16489246D01*
X14265301Y-16489246D02*
X14265301Y-16546388D01*
X14265301Y-16546388D02*
X14255777Y-16565436D01*
X14255777Y-16565436D02*
X14246253Y-16574960D01*
X14246253Y-16574960D02*
X14227206Y-16584484D01*
X14227206Y-16584484D02*
X14198634Y-16584484D01*
X14379587Y-16584484D02*
X14360539Y-16574960D01*
X14360539Y-16574960D02*
X14351015Y-16555912D01*
X14351015Y-16555912D02*
X14351015Y-16384484D01*
X14531968Y-16574960D02*
X14512920Y-16584484D01*
X14512920Y-16584484D02*
X14474825Y-16584484D01*
X14474825Y-16584484D02*
X14455777Y-16574960D01*
X14455777Y-16574960D02*
X14446253Y-16555912D01*
X14446253Y-16555912D02*
X14446253Y-16479722D01*
X14446253Y-16479722D02*
X14455777Y-16460674D01*
X14455777Y-16460674D02*
X14474825Y-16451150D01*
X14474825Y-16451150D02*
X14512920Y-16451150D01*
X14512920Y-16451150D02*
X14531968Y-16460674D01*
X14531968Y-16460674D02*
X14541491Y-16479722D01*
X14541491Y-16479722D02*
X14541491Y-16498769D01*
X14541491Y-16498769D02*
X14446253Y-16517817D01*
X14617682Y-16574960D02*
X14636730Y-16584484D01*
X14636730Y-16584484D02*
X14674825Y-16584484D01*
X14674825Y-16584484D02*
X14693872Y-16574960D01*
X14693872Y-16574960D02*
X14703396Y-16555912D01*
X14703396Y-16555912D02*
X14703396Y-16546388D01*
X14703396Y-16546388D02*
X14693872Y-16527341D01*
X14693872Y-16527341D02*
X14674825Y-16517817D01*
X14674825Y-16517817D02*
X14646253Y-16517817D01*
X14646253Y-16517817D02*
X14627206Y-16508293D01*
X14627206Y-16508293D02*
X14617682Y-16489246D01*
X14617682Y-16489246D02*
X14617682Y-16479722D01*
X14617682Y-16479722D02*
X14627206Y-16460674D01*
X14627206Y-16460674D02*
X14646253Y-16451150D01*
X14646253Y-16451150D02*
X14674825Y-16451150D01*
X14674825Y-16451150D02*
X14693872Y-16460674D01*
X14770063Y-16660674D02*
X14779587Y-16651150D01*
X14779587Y-16651150D02*
X14798634Y-16622579D01*
X14798634Y-16622579D02*
X14808158Y-16603531D01*
X14808158Y-16603531D02*
X14817682Y-16574960D01*
X14817682Y-16574960D02*
X14827206Y-16527341D01*
X14827206Y-16527341D02*
X14827206Y-16489246D01*
X14827206Y-16489246D02*
X14817682Y-16441627D01*
X14817682Y-16441627D02*
X14808158Y-16413055D01*
X14808158Y-16413055D02*
X14798634Y-16394008D01*
X14798634Y-16394008D02*
X14779587Y-16365436D01*
X14779587Y-16365436D02*
X14770063Y-16355912D01*
X15131968Y-16660674D02*
X15122444Y-16651150D01*
X15122444Y-16651150D02*
X15103396Y-16622579D01*
X15103396Y-16622579D02*
X15093872Y-16603531D01*
X15093872Y-16603531D02*
X15084349Y-16574960D01*
X15084349Y-16574960D02*
X15074825Y-16527341D01*
X15074825Y-16527341D02*
X15074825Y-16489246D01*
X15074825Y-16489246D02*
X15084349Y-16441627D01*
X15084349Y-16441627D02*
X15093872Y-16413055D01*
X15093872Y-16413055D02*
X15103396Y-16394008D01*
X15103396Y-16394008D02*
X15122444Y-16365436D01*
X15122444Y-16365436D02*
X15131968Y-16355912D01*
X15208158Y-16451150D02*
X15208158Y-16584484D01*
X15208158Y-16470198D02*
X15217682Y-16460674D01*
X15217682Y-16460674D02*
X15236730Y-16451150D01*
X15236730Y-16451150D02*
X15265301Y-16451150D01*
X15265301Y-16451150D02*
X15284349Y-16460674D01*
X15284349Y-16460674D02*
X15293872Y-16479722D01*
X15293872Y-16479722D02*
X15293872Y-16584484D01*
X15417682Y-16584484D02*
X15398634Y-16574960D01*
X15398634Y-16574960D02*
X15389111Y-16565436D01*
X15389111Y-16565436D02*
X15379587Y-16546388D01*
X15379587Y-16546388D02*
X15379587Y-16489246D01*
X15379587Y-16489246D02*
X15389111Y-16470198D01*
X15389111Y-16470198D02*
X15398634Y-16460674D01*
X15398634Y-16460674D02*
X15417682Y-16451150D01*
X15417682Y-16451150D02*
X15446253Y-16451150D01*
X15446253Y-16451150D02*
X15465301Y-16460674D01*
X15465301Y-16460674D02*
X15474825Y-16470198D01*
X15474825Y-16470198D02*
X15484349Y-16489246D01*
X15484349Y-16489246D02*
X15484349Y-16546388D01*
X15484349Y-16546388D02*
X15474825Y-16565436D01*
X15474825Y-16565436D02*
X15465301Y-16574960D01*
X15465301Y-16574960D02*
X15446253Y-16584484D01*
X15446253Y-16584484D02*
X15417682Y-16584484D01*
X15541492Y-16451150D02*
X15617682Y-16451150D01*
X15570063Y-16384484D02*
X15570063Y-16555912D01*
X15570063Y-16555912D02*
X15579587Y-16574960D01*
X15579587Y-16574960D02*
X15598634Y-16584484D01*
X15598634Y-16584484D02*
X15617682Y-16584484D01*
X15836730Y-16451150D02*
X15836730Y-16651150D01*
X15836730Y-16460674D02*
X15855777Y-16451150D01*
X15855777Y-16451150D02*
X15893873Y-16451150D01*
X15893873Y-16451150D02*
X15912920Y-16460674D01*
X15912920Y-16460674D02*
X15922444Y-16470198D01*
X15922444Y-16470198D02*
X15931968Y-16489246D01*
X15931968Y-16489246D02*
X15931968Y-16546388D01*
X15931968Y-16546388D02*
X15922444Y-16565436D01*
X15922444Y-16565436D02*
X15912920Y-16574960D01*
X15912920Y-16574960D02*
X15893873Y-16584484D01*
X15893873Y-16584484D02*
X15855777Y-16584484D01*
X15855777Y-16584484D02*
X15836730Y-16574960D01*
X16046253Y-16584484D02*
X16027206Y-16574960D01*
X16027206Y-16574960D02*
X16017682Y-16555912D01*
X16017682Y-16555912D02*
X16017682Y-16384484D01*
X16208158Y-16584484D02*
X16208158Y-16479722D01*
X16208158Y-16479722D02*
X16198634Y-16460674D01*
X16198634Y-16460674D02*
X16179587Y-16451150D01*
X16179587Y-16451150D02*
X16141492Y-16451150D01*
X16141492Y-16451150D02*
X16122444Y-16460674D01*
X16208158Y-16574960D02*
X16189111Y-16584484D01*
X16189111Y-16584484D02*
X16141492Y-16584484D01*
X16141492Y-16584484D02*
X16122444Y-16574960D01*
X16122444Y-16574960D02*
X16112920Y-16555912D01*
X16112920Y-16555912D02*
X16112920Y-16536865D01*
X16112920Y-16536865D02*
X16122444Y-16517817D01*
X16122444Y-16517817D02*
X16141492Y-16508293D01*
X16141492Y-16508293D02*
X16189111Y-16508293D01*
X16189111Y-16508293D02*
X16208158Y-16498769D01*
X16274825Y-16451150D02*
X16351015Y-16451150D01*
X16303396Y-16384484D02*
X16303396Y-16555912D01*
X16303396Y-16555912D02*
X16312920Y-16574960D01*
X16312920Y-16574960D02*
X16331968Y-16584484D01*
X16331968Y-16584484D02*
X16351015Y-16584484D01*
X16493873Y-16574960D02*
X16474825Y-16584484D01*
X16474825Y-16584484D02*
X16436730Y-16584484D01*
X16436730Y-16584484D02*
X16417682Y-16574960D01*
X16417682Y-16574960D02*
X16408158Y-16555912D01*
X16408158Y-16555912D02*
X16408158Y-16479722D01*
X16408158Y-16479722D02*
X16417682Y-16460674D01*
X16417682Y-16460674D02*
X16436730Y-16451150D01*
X16436730Y-16451150D02*
X16474825Y-16451150D01*
X16474825Y-16451150D02*
X16493873Y-16460674D01*
X16493873Y-16460674D02*
X16503396Y-16479722D01*
X16503396Y-16479722D02*
X16503396Y-16498769D01*
X16503396Y-16498769D02*
X16408158Y-16517817D01*
X16674825Y-16584484D02*
X16674825Y-16384484D01*
X16674825Y-16574960D02*
X16655777Y-16584484D01*
X16655777Y-16584484D02*
X16617682Y-16584484D01*
X16617682Y-16584484D02*
X16598634Y-16574960D01*
X16598634Y-16574960D02*
X16589111Y-16565436D01*
X16589111Y-16565436D02*
X16579587Y-16546388D01*
X16579587Y-16546388D02*
X16579587Y-16489246D01*
X16579587Y-16489246D02*
X16589111Y-16470198D01*
X16589111Y-16470198D02*
X16598634Y-16460674D01*
X16598634Y-16460674D02*
X16617682Y-16451150D01*
X16617682Y-16451150D02*
X16655777Y-16451150D01*
X16655777Y-16451150D02*
X16674825Y-16460674D01*
X16751015Y-16660674D02*
X16760539Y-16651150D01*
X16760539Y-16651150D02*
X16779587Y-16622579D01*
X16779587Y-16622579D02*
X16789111Y-16603531D01*
X16789111Y-16603531D02*
X16798635Y-16574960D01*
X16798635Y-16574960D02*
X16808158Y-16527341D01*
X16808158Y-16527341D02*
X16808158Y-16489246D01*
X16808158Y-16489246D02*
X16798635Y-16441627D01*
X16798635Y-16441627D02*
X16789111Y-16413055D01*
X16789111Y-16413055D02*
X16779587Y-16394008D01*
X16779587Y-16394008D02*
X16760539Y-16365436D01*
X16760539Y-16365436D02*
X16751015Y-16355912D01*
M02*
