%TF.GenerationSoftware,KiCad,Pcbnew,10.0.3*%
%TF.CreationDate,2026-07-12T17:46:42+01:00*%
%TF.ProjectId,default,64656661-756c-4742-9e6b-696361645f70,rev?*%
%TF.SameCoordinates,Original*%
%TF.FileFunction,Legend,Top*%
%TF.FilePolarity,Positive*%
%FSLAX46Y46*%
G04 Gerber Fmt 4.6, Leading zero omitted, Abs format (unit mm)*
G04 Created by KiCad (PCBNEW 10.0.3) date 2026-07-12 17:46:42*
%MOMM*%
%LPD*%
G01*
G04 APERTURE LIST*
G04 Aperture macros list*
%AMRoundRect*
0 Rectangle with rounded corners*
0 $1 Rounding radius*
0 $2 $3 $4 $5 $6 $7 $8 $9 X,Y pos of 4 corners*
0 Add a 4 corners polygon primitive as box body*
4,1,4,$2,$3,$4,$5,$6,$7,$8,$9,$2,$3,0*
0 Add four circle primitives for the rounded corners*
1,1,$1+$1,$2,$3*
1,1,$1+$1,$4,$5*
1,1,$1+$1,$6,$7*
1,1,$1+$1,$8,$9*
0 Add four rect primitives between the rounded corners*
20,1,$1+$1,$2,$3,$4,$5,0*
20,1,$1+$1,$4,$5,$6,$7,0*
20,1,$1+$1,$6,$7,$8,$9,0*
20,1,$1+$1,$8,$9,$2,$3,0*%
%AMFreePoly0*
4,1,6,1.000000,0.000000,0.500000,-0.750000,-0.500000,-0.750000,-0.500000,0.750000,0.500000,0.750000,1.000000,0.000000,1.000000,0.000000,$1*%
%AMFreePoly1*
4,1,6,0.500000,-0.750000,-0.650000,-0.750000,-0.150000,0.000000,-0.650000,0.750000,0.500000,0.750000,0.500000,-0.750000,0.500000,-0.750000,$1*%
G04 Aperture macros list end*
%ADD10C,0.128000*%
%ADD11C,0.130000*%
%ADD12C,0.150000*%
%ADD13C,0.200000*%
%ADD14C,0.120000*%
%ADD15RoundRect,0.250000X-0.550000X-0.550000X0.550000X-0.550000X0.550000X0.550000X-0.550000X0.550000X0*%
%ADD16C,1.600000*%
%ADD17RoundRect,0.250000X-0.750000X-0.750000X0.750000X-0.750000X0.750000X0.750000X-0.750000X0.750000X0*%
%ADD18C,2.000000*%
%ADD19R,1.700000X1.700000*%
%ADD20C,1.700000*%
%ADD21FreePoly0,0.000000*%
%ADD22FreePoly1,0.000000*%
%ADD23C,3.200000*%
%ADD24C,1.100000*%
%ADD25RoundRect,0.249999X-0.850001X-0.850001X0.850001X-0.850001X0.850001X0.850001X-0.850001X0.850001X0*%
%ADD26C,2.200000*%
%ADD27R,1.800000X1.800000*%
%ADD28C,1.800000*%
%ADD29R,1.000000X1.500000*%
%ADD30R,1.050000X1.500000*%
%ADD31O,1.050000X1.500000*%
G04 APERTURE END LIST*
D10*
X111947619Y-89963439D02*
X111566667Y-89963439D01*
X111566667Y-89963439D02*
X111566667Y-89163439D01*
X112671429Y-89963439D02*
X112404762Y-89582486D01*
X112214286Y-89963439D02*
X112214286Y-89163439D01*
X112214286Y-89163439D02*
X112519048Y-89163439D01*
X112519048Y-89163439D02*
X112595238Y-89201534D01*
X112595238Y-89201534D02*
X112633333Y-89239629D01*
X112633333Y-89239629D02*
X112671429Y-89315820D01*
X112671429Y-89315820D02*
X112671429Y-89430105D01*
X112671429Y-89430105D02*
X112633333Y-89506296D01*
X112633333Y-89506296D02*
X112595238Y-89544391D01*
X112595238Y-89544391D02*
X112519048Y-89582486D01*
X112519048Y-89582486D02*
X112214286Y-89582486D01*
X113471429Y-89887248D02*
X113433333Y-89925344D01*
X113433333Y-89925344D02*
X113319048Y-89963439D01*
X113319048Y-89963439D02*
X113242857Y-89963439D01*
X113242857Y-89963439D02*
X113128571Y-89925344D01*
X113128571Y-89925344D02*
X113052381Y-89849153D01*
X113052381Y-89849153D02*
X113014286Y-89772963D01*
X113014286Y-89772963D02*
X112976190Y-89620582D01*
X112976190Y-89620582D02*
X112976190Y-89506296D01*
X112976190Y-89506296D02*
X113014286Y-89353915D01*
X113014286Y-89353915D02*
X113052381Y-89277724D01*
X113052381Y-89277724D02*
X113128571Y-89201534D01*
X113128571Y-89201534D02*
X113242857Y-89163439D01*
X113242857Y-89163439D02*
X113319048Y-89163439D01*
X113319048Y-89163439D02*
X113433333Y-89201534D01*
X113433333Y-89201534D02*
X113471429Y-89239629D01*
X126895238Y-63058677D02*
X127504762Y-63058677D01*
X127200000Y-63363439D02*
X127200000Y-62753915D01*
X126895238Y-65598677D02*
X127504762Y-65598677D01*
X135047619Y-88133439D02*
X134666667Y-88133439D01*
X134666667Y-88133439D02*
X134628571Y-88514391D01*
X134628571Y-88514391D02*
X134666667Y-88476296D01*
X134666667Y-88476296D02*
X134742857Y-88438201D01*
X134742857Y-88438201D02*
X134933333Y-88438201D01*
X134933333Y-88438201D02*
X135009524Y-88476296D01*
X135009524Y-88476296D02*
X135047619Y-88514391D01*
X135047619Y-88514391D02*
X135085714Y-88590582D01*
X135085714Y-88590582D02*
X135085714Y-88781058D01*
X135085714Y-88781058D02*
X135047619Y-88857248D01*
X135047619Y-88857248D02*
X135009524Y-88895344D01*
X135009524Y-88895344D02*
X134933333Y-88933439D01*
X134933333Y-88933439D02*
X134742857Y-88933439D01*
X134742857Y-88933439D02*
X134666667Y-88895344D01*
X134666667Y-88895344D02*
X134628571Y-88857248D01*
X135314286Y-88133439D02*
X135580953Y-88933439D01*
X135580953Y-88933439D02*
X135847619Y-88133439D01*
X186509523Y-111663439D02*
X187004761Y-111663439D01*
X187004761Y-111663439D02*
X186738095Y-111968201D01*
X186738095Y-111968201D02*
X186852380Y-111968201D01*
X186852380Y-111968201D02*
X186928571Y-112006296D01*
X186928571Y-112006296D02*
X186966666Y-112044391D01*
X186966666Y-112044391D02*
X187004761Y-112120582D01*
X187004761Y-112120582D02*
X187004761Y-112311058D01*
X187004761Y-112311058D02*
X186966666Y-112387248D01*
X186966666Y-112387248D02*
X186928571Y-112425344D01*
X186928571Y-112425344D02*
X186852380Y-112463439D01*
X186852380Y-112463439D02*
X186623809Y-112463439D01*
X186623809Y-112463439D02*
X186547618Y-112425344D01*
X186547618Y-112425344D02*
X186509523Y-112387248D01*
X187233333Y-111663439D02*
X187500000Y-112463439D01*
X187500000Y-112463439D02*
X187766666Y-111663439D01*
X187957142Y-111663439D02*
X188452380Y-111663439D01*
X188452380Y-111663439D02*
X188185714Y-111968201D01*
X188185714Y-111968201D02*
X188299999Y-111968201D01*
X188299999Y-111968201D02*
X188376190Y-112006296D01*
X188376190Y-112006296D02*
X188414285Y-112044391D01*
X188414285Y-112044391D02*
X188452380Y-112120582D01*
X188452380Y-112120582D02*
X188452380Y-112311058D01*
X188452380Y-112311058D02*
X188414285Y-112387248D01*
X188414285Y-112387248D02*
X188376190Y-112425344D01*
X188376190Y-112425344D02*
X188299999Y-112463439D01*
X188299999Y-112463439D02*
X188071428Y-112463439D01*
X188071428Y-112463439D02*
X187995237Y-112425344D01*
X187995237Y-112425344D02*
X187957142Y-112387248D01*
X190295238Y-63558677D02*
X190904762Y-63558677D01*
X190600000Y-63863439D02*
X190600000Y-63253915D01*
X190295238Y-66098677D02*
X190904762Y-66098677D01*
D11*
X107651428Y-123563335D02*
X108146666Y-123563335D01*
X108146666Y-123563335D02*
X107880000Y-123868097D01*
X107880000Y-123868097D02*
X107994285Y-123868097D01*
X107994285Y-123868097D02*
X108070476Y-123906192D01*
X108070476Y-123906192D02*
X108108571Y-123944287D01*
X108108571Y-123944287D02*
X108146666Y-124020478D01*
X108146666Y-124020478D02*
X108146666Y-124210954D01*
X108146666Y-124210954D02*
X108108571Y-124287144D01*
X108108571Y-124287144D02*
X108070476Y-124325240D01*
X108070476Y-124325240D02*
X107994285Y-124363335D01*
X107994285Y-124363335D02*
X107765714Y-124363335D01*
X107765714Y-124363335D02*
X107689523Y-124325240D01*
X107689523Y-124325240D02*
X107651428Y-124287144D01*
X108413333Y-123563335D02*
X108908571Y-123563335D01*
X108908571Y-123563335D02*
X108641905Y-123868097D01*
X108641905Y-123868097D02*
X108756190Y-123868097D01*
X108756190Y-123868097D02*
X108832381Y-123906192D01*
X108832381Y-123906192D02*
X108870476Y-123944287D01*
X108870476Y-123944287D02*
X108908571Y-124020478D01*
X108908571Y-124020478D02*
X108908571Y-124210954D01*
X108908571Y-124210954D02*
X108870476Y-124287144D01*
X108870476Y-124287144D02*
X108832381Y-124325240D01*
X108832381Y-124325240D02*
X108756190Y-124363335D01*
X108756190Y-124363335D02*
X108527619Y-124363335D01*
X108527619Y-124363335D02*
X108451428Y-124325240D01*
X108451428Y-124325240D02*
X108413333Y-124287144D01*
X109403810Y-123563335D02*
X109480000Y-123563335D01*
X109480000Y-123563335D02*
X109556191Y-123601430D01*
X109556191Y-123601430D02*
X109594286Y-123639525D01*
X109594286Y-123639525D02*
X109632381Y-123715716D01*
X109632381Y-123715716D02*
X109670476Y-123868097D01*
X109670476Y-123868097D02*
X109670476Y-124058573D01*
X109670476Y-124058573D02*
X109632381Y-124210954D01*
X109632381Y-124210954D02*
X109594286Y-124287144D01*
X109594286Y-124287144D02*
X109556191Y-124325240D01*
X109556191Y-124325240D02*
X109480000Y-124363335D01*
X109480000Y-124363335D02*
X109403810Y-124363335D01*
X109403810Y-124363335D02*
X109327619Y-124325240D01*
X109327619Y-124325240D02*
X109289524Y-124287144D01*
X109289524Y-124287144D02*
X109251429Y-124210954D01*
X109251429Y-124210954D02*
X109213333Y-124058573D01*
X109213333Y-124058573D02*
X109213333Y-123868097D01*
X109213333Y-123868097D02*
X109251429Y-123715716D01*
X109251429Y-123715716D02*
X109289524Y-123639525D01*
X109289524Y-123639525D02*
X109327619Y-123601430D01*
X109327619Y-123601430D02*
X109403810Y-123563335D01*
X110470477Y-124363335D02*
X110203810Y-123982382D01*
X110013334Y-124363335D02*
X110013334Y-123563335D01*
X110013334Y-123563335D02*
X110318096Y-123563335D01*
X110318096Y-123563335D02*
X110394286Y-123601430D01*
X110394286Y-123601430D02*
X110432381Y-123639525D01*
X110432381Y-123639525D02*
X110470477Y-123715716D01*
X110470477Y-123715716D02*
X110470477Y-123830001D01*
X110470477Y-123830001D02*
X110432381Y-123906192D01*
X110432381Y-123906192D02*
X110394286Y-123944287D01*
X110394286Y-123944287D02*
X110318096Y-123982382D01*
X110318096Y-123982382D02*
X110013334Y-123982382D01*
X113689523Y-63139525D02*
X113727619Y-63101430D01*
X113727619Y-63101430D02*
X113803809Y-63063335D01*
X113803809Y-63063335D02*
X113994285Y-63063335D01*
X113994285Y-63063335D02*
X114070476Y-63101430D01*
X114070476Y-63101430D02*
X114108571Y-63139525D01*
X114108571Y-63139525D02*
X114146666Y-63215716D01*
X114146666Y-63215716D02*
X114146666Y-63291906D01*
X114146666Y-63291906D02*
X114108571Y-63406192D01*
X114108571Y-63406192D02*
X113651428Y-63863335D01*
X113651428Y-63863335D02*
X114146666Y-63863335D01*
X114451428Y-63139525D02*
X114489524Y-63101430D01*
X114489524Y-63101430D02*
X114565714Y-63063335D01*
X114565714Y-63063335D02*
X114756190Y-63063335D01*
X114756190Y-63063335D02*
X114832381Y-63101430D01*
X114832381Y-63101430D02*
X114870476Y-63139525D01*
X114870476Y-63139525D02*
X114908571Y-63215716D01*
X114908571Y-63215716D02*
X114908571Y-63291906D01*
X114908571Y-63291906D02*
X114870476Y-63406192D01*
X114870476Y-63406192D02*
X114413333Y-63863335D01*
X114413333Y-63863335D02*
X114908571Y-63863335D01*
X115403810Y-63063335D02*
X115480000Y-63063335D01*
X115480000Y-63063335D02*
X115556191Y-63101430D01*
X115556191Y-63101430D02*
X115594286Y-63139525D01*
X115594286Y-63139525D02*
X115632381Y-63215716D01*
X115632381Y-63215716D02*
X115670476Y-63368097D01*
X115670476Y-63368097D02*
X115670476Y-63558573D01*
X115670476Y-63558573D02*
X115632381Y-63710954D01*
X115632381Y-63710954D02*
X115594286Y-63787144D01*
X115594286Y-63787144D02*
X115556191Y-63825240D01*
X115556191Y-63825240D02*
X115480000Y-63863335D01*
X115480000Y-63863335D02*
X115403810Y-63863335D01*
X115403810Y-63863335D02*
X115327619Y-63825240D01*
X115327619Y-63825240D02*
X115289524Y-63787144D01*
X115289524Y-63787144D02*
X115251429Y-63710954D01*
X115251429Y-63710954D02*
X115213333Y-63558573D01*
X115213333Y-63558573D02*
X115213333Y-63368097D01*
X115213333Y-63368097D02*
X115251429Y-63215716D01*
X115251429Y-63215716D02*
X115289524Y-63139525D01*
X115289524Y-63139525D02*
X115327619Y-63101430D01*
X115327619Y-63101430D02*
X115403810Y-63063335D01*
X116470477Y-63863335D02*
X116203810Y-63482382D01*
X116013334Y-63863335D02*
X116013334Y-63063335D01*
X116013334Y-63063335D02*
X116318096Y-63063335D01*
X116318096Y-63063335D02*
X116394286Y-63101430D01*
X116394286Y-63101430D02*
X116432381Y-63139525D01*
X116432381Y-63139525D02*
X116470477Y-63215716D01*
X116470477Y-63215716D02*
X116470477Y-63330001D01*
X116470477Y-63330001D02*
X116432381Y-63406192D01*
X116432381Y-63406192D02*
X116394286Y-63444287D01*
X116394286Y-63444287D02*
X116318096Y-63482382D01*
X116318096Y-63482382D02*
X116013334Y-63482382D01*
X117147619Y-89963335D02*
X117147619Y-89163335D01*
X117147619Y-89163335D02*
X117414285Y-89734763D01*
X117414285Y-89734763D02*
X117680952Y-89163335D01*
X117680952Y-89163335D02*
X117680952Y-89963335D01*
X118061905Y-89163335D02*
X118061905Y-89810954D01*
X118061905Y-89810954D02*
X118100000Y-89887144D01*
X118100000Y-89887144D02*
X118138095Y-89925240D01*
X118138095Y-89925240D02*
X118214286Y-89963335D01*
X118214286Y-89963335D02*
X118366667Y-89963335D01*
X118366667Y-89963335D02*
X118442857Y-89925240D01*
X118442857Y-89925240D02*
X118480952Y-89887144D01*
X118480952Y-89887144D02*
X118519048Y-89810954D01*
X118519048Y-89810954D02*
X118519048Y-89163335D01*
X118785714Y-89163335D02*
X119242857Y-89163335D01*
X119014285Y-89963335D02*
X119014285Y-89163335D01*
X119509524Y-89544287D02*
X119776190Y-89544287D01*
X119890476Y-89963335D02*
X119509524Y-89963335D01*
X119509524Y-89963335D02*
X119509524Y-89163335D01*
X119509524Y-89163335D02*
X119890476Y-89163335D01*
X120528571Y-115830001D02*
X120528571Y-116363335D01*
X120338095Y-115525240D02*
X120147618Y-116096668D01*
X120147618Y-116096668D02*
X120642857Y-116096668D01*
X120871428Y-115563335D02*
X121404762Y-115563335D01*
X121404762Y-115563335D02*
X121061904Y-116363335D01*
X121861905Y-115563335D02*
X121938095Y-115563335D01*
X121938095Y-115563335D02*
X122014286Y-115601430D01*
X122014286Y-115601430D02*
X122052381Y-115639525D01*
X122052381Y-115639525D02*
X122090476Y-115715716D01*
X122090476Y-115715716D02*
X122128571Y-115868097D01*
X122128571Y-115868097D02*
X122128571Y-116058573D01*
X122128571Y-116058573D02*
X122090476Y-116210954D01*
X122090476Y-116210954D02*
X122052381Y-116287144D01*
X122052381Y-116287144D02*
X122014286Y-116325240D01*
X122014286Y-116325240D02*
X121938095Y-116363335D01*
X121938095Y-116363335D02*
X121861905Y-116363335D01*
X121861905Y-116363335D02*
X121785714Y-116325240D01*
X121785714Y-116325240D02*
X121747619Y-116287144D01*
X121747619Y-116287144D02*
X121709524Y-116210954D01*
X121709524Y-116210954D02*
X121671428Y-116058573D01*
X121671428Y-116058573D02*
X121671428Y-115868097D01*
X121671428Y-115868097D02*
X121709524Y-115715716D01*
X121709524Y-115715716D02*
X121747619Y-115639525D01*
X121747619Y-115639525D02*
X121785714Y-115601430D01*
X121785714Y-115601430D02*
X121861905Y-115563335D01*
X122814286Y-115830001D02*
X122814286Y-116363335D01*
X122471429Y-115830001D02*
X122471429Y-116249049D01*
X122471429Y-116249049D02*
X122509524Y-116325240D01*
X122509524Y-116325240D02*
X122585714Y-116363335D01*
X122585714Y-116363335D02*
X122700000Y-116363335D01*
X122700000Y-116363335D02*
X122776191Y-116325240D01*
X122776191Y-116325240D02*
X122814286Y-116287144D01*
X121957143Y-97101430D02*
X121880953Y-97063335D01*
X121880953Y-97063335D02*
X121766667Y-97063335D01*
X121766667Y-97063335D02*
X121652381Y-97101430D01*
X121652381Y-97101430D02*
X121576191Y-97177620D01*
X121576191Y-97177620D02*
X121538096Y-97253811D01*
X121538096Y-97253811D02*
X121500000Y-97406192D01*
X121500000Y-97406192D02*
X121500000Y-97520478D01*
X121500000Y-97520478D02*
X121538096Y-97672859D01*
X121538096Y-97672859D02*
X121576191Y-97749049D01*
X121576191Y-97749049D02*
X121652381Y-97825240D01*
X121652381Y-97825240D02*
X121766667Y-97863335D01*
X121766667Y-97863335D02*
X121842858Y-97863335D01*
X121842858Y-97863335D02*
X121957143Y-97825240D01*
X121957143Y-97825240D02*
X121995239Y-97787144D01*
X121995239Y-97787144D02*
X121995239Y-97520478D01*
X121995239Y-97520478D02*
X121842858Y-97520478D01*
X122300000Y-97634763D02*
X122680953Y-97634763D01*
X122223810Y-97863335D02*
X122490477Y-97063335D01*
X122490477Y-97063335D02*
X122757143Y-97863335D01*
X123023810Y-97863335D02*
X123023810Y-97063335D01*
X123404762Y-97863335D02*
X123404762Y-97063335D01*
X123404762Y-97063335D02*
X123861905Y-97863335D01*
X123861905Y-97863335D02*
X123861905Y-97063335D01*
X121933333Y-129663335D02*
X121933333Y-128863335D01*
X121933333Y-128863335D02*
X122238095Y-128863335D01*
X122238095Y-128863335D02*
X122314285Y-128901430D01*
X122314285Y-128901430D02*
X122352380Y-128939525D01*
X122352380Y-128939525D02*
X122390476Y-129015716D01*
X122390476Y-129015716D02*
X122390476Y-129130001D01*
X122390476Y-129130001D02*
X122352380Y-129206192D01*
X122352380Y-129206192D02*
X122314285Y-129244287D01*
X122314285Y-129244287D02*
X122238095Y-129282382D01*
X122238095Y-129282382D02*
X121933333Y-129282382D01*
X122657142Y-128863335D02*
X122847618Y-129663335D01*
X122847618Y-129663335D02*
X122999999Y-129091906D01*
X122999999Y-129091906D02*
X123152380Y-129663335D01*
X123152380Y-129663335D02*
X123342857Y-128863335D01*
X124104762Y-129663335D02*
X123838095Y-129282382D01*
X123647619Y-129663335D02*
X123647619Y-128863335D01*
X123647619Y-128863335D02*
X123952381Y-128863335D01*
X123952381Y-128863335D02*
X124028571Y-128901430D01*
X124028571Y-128901430D02*
X124066666Y-128939525D01*
X124066666Y-128939525D02*
X124104762Y-129015716D01*
X124104762Y-129015716D02*
X124104762Y-129130001D01*
X124104762Y-129130001D02*
X124066666Y-129206192D01*
X124066666Y-129206192D02*
X124028571Y-129244287D01*
X124028571Y-129244287D02*
X123952381Y-129282382D01*
X123952381Y-129282382D02*
X123647619Y-129282382D01*
X122714285Y-69034763D02*
X123095238Y-69034763D01*
X122638095Y-69263335D02*
X122904762Y-68463335D01*
X122904762Y-68463335D02*
X123171428Y-69263335D01*
X123895238Y-69187144D02*
X123857142Y-69225240D01*
X123857142Y-69225240D02*
X123742857Y-69263335D01*
X123742857Y-69263335D02*
X123666666Y-69263335D01*
X123666666Y-69263335D02*
X123552380Y-69225240D01*
X123552380Y-69225240D02*
X123476190Y-69149049D01*
X123476190Y-69149049D02*
X123438095Y-69072859D01*
X123438095Y-69072859D02*
X123399999Y-68920478D01*
X123399999Y-68920478D02*
X123399999Y-68806192D01*
X123399999Y-68806192D02*
X123438095Y-68653811D01*
X123438095Y-68653811D02*
X123476190Y-68577620D01*
X123476190Y-68577620D02*
X123552380Y-68501430D01*
X123552380Y-68501430D02*
X123666666Y-68463335D01*
X123666666Y-68463335D02*
X123742857Y-68463335D01*
X123742857Y-68463335D02*
X123857142Y-68501430D01*
X123857142Y-68501430D02*
X123895238Y-68539525D01*
X124123809Y-68463335D02*
X124580952Y-68463335D01*
X124352380Y-69263335D02*
X124352380Y-68463335D01*
X125838095Y-69263335D02*
X125457143Y-69263335D01*
X125457143Y-69263335D02*
X125457143Y-68463335D01*
X126104762Y-68844287D02*
X126371428Y-68844287D01*
X126485714Y-69263335D02*
X126104762Y-69263335D01*
X126104762Y-69263335D02*
X126104762Y-68463335D01*
X126104762Y-68463335D02*
X126485714Y-68463335D01*
X126828572Y-69263335D02*
X126828572Y-68463335D01*
X126828572Y-68463335D02*
X127019048Y-68463335D01*
X127019048Y-68463335D02*
X127133334Y-68501430D01*
X127133334Y-68501430D02*
X127209524Y-68577620D01*
X127209524Y-68577620D02*
X127247619Y-68653811D01*
X127247619Y-68653811D02*
X127285715Y-68806192D01*
X127285715Y-68806192D02*
X127285715Y-68920478D01*
X127285715Y-68920478D02*
X127247619Y-69072859D01*
X127247619Y-69072859D02*
X127209524Y-69149049D01*
X127209524Y-69149049D02*
X127133334Y-69225240D01*
X127133334Y-69225240D02*
X127019048Y-69263335D01*
X127019048Y-69263335D02*
X126828572Y-69263335D01*
X125709523Y-89563335D02*
X126204761Y-89563335D01*
X126204761Y-89563335D02*
X125938095Y-89868097D01*
X125938095Y-89868097D02*
X126052380Y-89868097D01*
X126052380Y-89868097D02*
X126128571Y-89906192D01*
X126128571Y-89906192D02*
X126166666Y-89944287D01*
X126166666Y-89944287D02*
X126204761Y-90020478D01*
X126204761Y-90020478D02*
X126204761Y-90210954D01*
X126204761Y-90210954D02*
X126166666Y-90287144D01*
X126166666Y-90287144D02*
X126128571Y-90325240D01*
X126128571Y-90325240D02*
X126052380Y-90363335D01*
X126052380Y-90363335D02*
X125823809Y-90363335D01*
X125823809Y-90363335D02*
X125747618Y-90325240D01*
X125747618Y-90325240D02*
X125709523Y-90287144D01*
X126433333Y-89563335D02*
X126700000Y-90363335D01*
X126700000Y-90363335D02*
X126966666Y-89563335D01*
X127157142Y-89563335D02*
X127652380Y-89563335D01*
X127652380Y-89563335D02*
X127385714Y-89868097D01*
X127385714Y-89868097D02*
X127499999Y-89868097D01*
X127499999Y-89868097D02*
X127576190Y-89906192D01*
X127576190Y-89906192D02*
X127614285Y-89944287D01*
X127614285Y-89944287D02*
X127652380Y-90020478D01*
X127652380Y-90020478D02*
X127652380Y-90210954D01*
X127652380Y-90210954D02*
X127614285Y-90287144D01*
X127614285Y-90287144D02*
X127576190Y-90325240D01*
X127576190Y-90325240D02*
X127499999Y-90363335D01*
X127499999Y-90363335D02*
X127271428Y-90363335D01*
X127271428Y-90363335D02*
X127195237Y-90325240D01*
X127195237Y-90325240D02*
X127157142Y-90287144D01*
X126090476Y-92141430D02*
X126014286Y-92103335D01*
X126014286Y-92103335D02*
X125900000Y-92103335D01*
X125900000Y-92103335D02*
X125785714Y-92141430D01*
X125785714Y-92141430D02*
X125709524Y-92217620D01*
X125709524Y-92217620D02*
X125671429Y-92293811D01*
X125671429Y-92293811D02*
X125633333Y-92446192D01*
X125633333Y-92446192D02*
X125633333Y-92560478D01*
X125633333Y-92560478D02*
X125671429Y-92712859D01*
X125671429Y-92712859D02*
X125709524Y-92789049D01*
X125709524Y-92789049D02*
X125785714Y-92865240D01*
X125785714Y-92865240D02*
X125900000Y-92903335D01*
X125900000Y-92903335D02*
X125976191Y-92903335D01*
X125976191Y-92903335D02*
X126090476Y-92865240D01*
X126090476Y-92865240D02*
X126128572Y-92827144D01*
X126128572Y-92827144D02*
X126128572Y-92560478D01*
X126128572Y-92560478D02*
X125976191Y-92560478D01*
X126471429Y-92903335D02*
X126471429Y-92103335D01*
X126471429Y-92103335D02*
X126928572Y-92903335D01*
X126928572Y-92903335D02*
X126928572Y-92103335D01*
X127309524Y-92903335D02*
X127309524Y-92103335D01*
X127309524Y-92103335D02*
X127500000Y-92103335D01*
X127500000Y-92103335D02*
X127614286Y-92141430D01*
X127614286Y-92141430D02*
X127690476Y-92217620D01*
X127690476Y-92217620D02*
X127728571Y-92293811D01*
X127728571Y-92293811D02*
X127766667Y-92446192D01*
X127766667Y-92446192D02*
X127766667Y-92560478D01*
X127766667Y-92560478D02*
X127728571Y-92712859D01*
X127728571Y-92712859D02*
X127690476Y-92789049D01*
X127690476Y-92789049D02*
X127614286Y-92865240D01*
X127614286Y-92865240D02*
X127500000Y-92903335D01*
X127500000Y-92903335D02*
X127309524Y-92903335D01*
X125728571Y-95405240D02*
X125842857Y-95443335D01*
X125842857Y-95443335D02*
X126033333Y-95443335D01*
X126033333Y-95443335D02*
X126109524Y-95405240D01*
X126109524Y-95405240D02*
X126147619Y-95367144D01*
X126147619Y-95367144D02*
X126185714Y-95290954D01*
X126185714Y-95290954D02*
X126185714Y-95214763D01*
X126185714Y-95214763D02*
X126147619Y-95138573D01*
X126147619Y-95138573D02*
X126109524Y-95100478D01*
X126109524Y-95100478D02*
X126033333Y-95062382D01*
X126033333Y-95062382D02*
X125880952Y-95024287D01*
X125880952Y-95024287D02*
X125804762Y-94986192D01*
X125804762Y-94986192D02*
X125766667Y-94948097D01*
X125766667Y-94948097D02*
X125728571Y-94871906D01*
X125728571Y-94871906D02*
X125728571Y-94795716D01*
X125728571Y-94795716D02*
X125766667Y-94719525D01*
X125766667Y-94719525D02*
X125804762Y-94681430D01*
X125804762Y-94681430D02*
X125880952Y-94643335D01*
X125880952Y-94643335D02*
X126071429Y-94643335D01*
X126071429Y-94643335D02*
X126185714Y-94681430D01*
X126528572Y-95443335D02*
X126528572Y-94643335D01*
X126528572Y-94643335D02*
X126719048Y-94643335D01*
X126719048Y-94643335D02*
X126833334Y-94681430D01*
X126833334Y-94681430D02*
X126909524Y-94757620D01*
X126909524Y-94757620D02*
X126947619Y-94833811D01*
X126947619Y-94833811D02*
X126985715Y-94986192D01*
X126985715Y-94986192D02*
X126985715Y-95100478D01*
X126985715Y-95100478D02*
X126947619Y-95252859D01*
X126947619Y-95252859D02*
X126909524Y-95329049D01*
X126909524Y-95329049D02*
X126833334Y-95405240D01*
X126833334Y-95405240D02*
X126719048Y-95443335D01*
X126719048Y-95443335D02*
X126528572Y-95443335D01*
X127290476Y-95214763D02*
X127671429Y-95214763D01*
X127214286Y-95443335D02*
X127480953Y-94643335D01*
X127480953Y-94643335D02*
X127747619Y-95443335D01*
X125747618Y-97945240D02*
X125861904Y-97983335D01*
X125861904Y-97983335D02*
X126052380Y-97983335D01*
X126052380Y-97983335D02*
X126128571Y-97945240D01*
X126128571Y-97945240D02*
X126166666Y-97907144D01*
X126166666Y-97907144D02*
X126204761Y-97830954D01*
X126204761Y-97830954D02*
X126204761Y-97754763D01*
X126204761Y-97754763D02*
X126166666Y-97678573D01*
X126166666Y-97678573D02*
X126128571Y-97640478D01*
X126128571Y-97640478D02*
X126052380Y-97602382D01*
X126052380Y-97602382D02*
X125899999Y-97564287D01*
X125899999Y-97564287D02*
X125823809Y-97526192D01*
X125823809Y-97526192D02*
X125785714Y-97488097D01*
X125785714Y-97488097D02*
X125747618Y-97411906D01*
X125747618Y-97411906D02*
X125747618Y-97335716D01*
X125747618Y-97335716D02*
X125785714Y-97259525D01*
X125785714Y-97259525D02*
X125823809Y-97221430D01*
X125823809Y-97221430D02*
X125899999Y-97183335D01*
X125899999Y-97183335D02*
X126090476Y-97183335D01*
X126090476Y-97183335D02*
X126204761Y-97221430D01*
X127004762Y-97907144D02*
X126966666Y-97945240D01*
X126966666Y-97945240D02*
X126852381Y-97983335D01*
X126852381Y-97983335D02*
X126776190Y-97983335D01*
X126776190Y-97983335D02*
X126661904Y-97945240D01*
X126661904Y-97945240D02*
X126585714Y-97869049D01*
X126585714Y-97869049D02*
X126547619Y-97792859D01*
X126547619Y-97792859D02*
X126509523Y-97640478D01*
X126509523Y-97640478D02*
X126509523Y-97526192D01*
X126509523Y-97526192D02*
X126547619Y-97373811D01*
X126547619Y-97373811D02*
X126585714Y-97297620D01*
X126585714Y-97297620D02*
X126661904Y-97221430D01*
X126661904Y-97221430D02*
X126776190Y-97183335D01*
X126776190Y-97183335D02*
X126852381Y-97183335D01*
X126852381Y-97183335D02*
X126966666Y-97221430D01*
X126966666Y-97221430D02*
X127004762Y-97259525D01*
X127728571Y-97983335D02*
X127347619Y-97983335D01*
X127347619Y-97983335D02*
X127347619Y-97183335D01*
X128004762Y-125163335D02*
X128157143Y-125163335D01*
X128157143Y-125163335D02*
X128233333Y-125201430D01*
X128233333Y-125201430D02*
X128309524Y-125277620D01*
X128309524Y-125277620D02*
X128347619Y-125430001D01*
X128347619Y-125430001D02*
X128347619Y-125696668D01*
X128347619Y-125696668D02*
X128309524Y-125849049D01*
X128309524Y-125849049D02*
X128233333Y-125925240D01*
X128233333Y-125925240D02*
X128157143Y-125963335D01*
X128157143Y-125963335D02*
X128004762Y-125963335D01*
X128004762Y-125963335D02*
X127928571Y-125925240D01*
X127928571Y-125925240D02*
X127852381Y-125849049D01*
X127852381Y-125849049D02*
X127814285Y-125696668D01*
X127814285Y-125696668D02*
X127814285Y-125430001D01*
X127814285Y-125430001D02*
X127852381Y-125277620D01*
X127852381Y-125277620D02*
X127928571Y-125201430D01*
X127928571Y-125201430D02*
X128004762Y-125163335D01*
X128690476Y-125963335D02*
X128690476Y-125163335D01*
X128690476Y-125163335D02*
X129147619Y-125963335D01*
X129147619Y-125963335D02*
X129147619Y-125163335D01*
X129838095Y-86463335D02*
X129990476Y-86463335D01*
X129990476Y-86463335D02*
X130066666Y-86501430D01*
X130066666Y-86501430D02*
X130142857Y-86577620D01*
X130142857Y-86577620D02*
X130180952Y-86730001D01*
X130180952Y-86730001D02*
X130180952Y-86996668D01*
X130180952Y-86996668D02*
X130142857Y-87149049D01*
X130142857Y-87149049D02*
X130066666Y-87225240D01*
X130066666Y-87225240D02*
X129990476Y-87263335D01*
X129990476Y-87263335D02*
X129838095Y-87263335D01*
X129838095Y-87263335D02*
X129761904Y-87225240D01*
X129761904Y-87225240D02*
X129685714Y-87149049D01*
X129685714Y-87149049D02*
X129647618Y-86996668D01*
X129647618Y-86996668D02*
X129647618Y-86730001D01*
X129647618Y-86730001D02*
X129685714Y-86577620D01*
X129685714Y-86577620D02*
X129761904Y-86501430D01*
X129761904Y-86501430D02*
X129838095Y-86463335D01*
X130904761Y-87263335D02*
X130523809Y-87263335D01*
X130523809Y-87263335D02*
X130523809Y-86463335D01*
X131171428Y-86844287D02*
X131438094Y-86844287D01*
X131552380Y-87263335D02*
X131171428Y-87263335D01*
X131171428Y-87263335D02*
X131171428Y-86463335D01*
X131171428Y-86463335D02*
X131552380Y-86463335D01*
X131895238Y-87263335D02*
X131895238Y-86463335D01*
X131895238Y-86463335D02*
X132085714Y-86463335D01*
X132085714Y-86463335D02*
X132200000Y-86501430D01*
X132200000Y-86501430D02*
X132276190Y-86577620D01*
X132276190Y-86577620D02*
X132314285Y-86653811D01*
X132314285Y-86653811D02*
X132352381Y-86806192D01*
X132352381Y-86806192D02*
X132352381Y-86920478D01*
X132352381Y-86920478D02*
X132314285Y-87072859D01*
X132314285Y-87072859D02*
X132276190Y-87149049D01*
X132276190Y-87149049D02*
X132200000Y-87225240D01*
X132200000Y-87225240D02*
X132085714Y-87263335D01*
X132085714Y-87263335D02*
X131895238Y-87263335D01*
X141704761Y-133363335D02*
X141247618Y-133363335D01*
X141476190Y-133363335D02*
X141476190Y-132563335D01*
X141476190Y-132563335D02*
X141399999Y-132677620D01*
X141399999Y-132677620D02*
X141323809Y-132753811D01*
X141323809Y-132753811D02*
X141247618Y-132791906D01*
X142200000Y-132563335D02*
X142276190Y-132563335D01*
X142276190Y-132563335D02*
X142352381Y-132601430D01*
X142352381Y-132601430D02*
X142390476Y-132639525D01*
X142390476Y-132639525D02*
X142428571Y-132715716D01*
X142428571Y-132715716D02*
X142466666Y-132868097D01*
X142466666Y-132868097D02*
X142466666Y-133058573D01*
X142466666Y-133058573D02*
X142428571Y-133210954D01*
X142428571Y-133210954D02*
X142390476Y-133287144D01*
X142390476Y-133287144D02*
X142352381Y-133325240D01*
X142352381Y-133325240D02*
X142276190Y-133363335D01*
X142276190Y-133363335D02*
X142200000Y-133363335D01*
X142200000Y-133363335D02*
X142123809Y-133325240D01*
X142123809Y-133325240D02*
X142085714Y-133287144D01*
X142085714Y-133287144D02*
X142047619Y-133210954D01*
X142047619Y-133210954D02*
X142009523Y-133058573D01*
X142009523Y-133058573D02*
X142009523Y-132868097D01*
X142009523Y-132868097D02*
X142047619Y-132715716D01*
X142047619Y-132715716D02*
X142085714Y-132639525D01*
X142085714Y-132639525D02*
X142123809Y-132601430D01*
X142123809Y-132601430D02*
X142200000Y-132563335D01*
X142961905Y-132563335D02*
X143038095Y-132563335D01*
X143038095Y-132563335D02*
X143114286Y-132601430D01*
X143114286Y-132601430D02*
X143152381Y-132639525D01*
X143152381Y-132639525D02*
X143190476Y-132715716D01*
X143190476Y-132715716D02*
X143228571Y-132868097D01*
X143228571Y-132868097D02*
X143228571Y-133058573D01*
X143228571Y-133058573D02*
X143190476Y-133210954D01*
X143190476Y-133210954D02*
X143152381Y-133287144D01*
X143152381Y-133287144D02*
X143114286Y-133325240D01*
X143114286Y-133325240D02*
X143038095Y-133363335D01*
X143038095Y-133363335D02*
X142961905Y-133363335D01*
X142961905Y-133363335D02*
X142885714Y-133325240D01*
X142885714Y-133325240D02*
X142847619Y-133287144D01*
X142847619Y-133287144D02*
X142809524Y-133210954D01*
X142809524Y-133210954D02*
X142771428Y-133058573D01*
X142771428Y-133058573D02*
X142771428Y-132868097D01*
X142771428Y-132868097D02*
X142809524Y-132715716D01*
X142809524Y-132715716D02*
X142847619Y-132639525D01*
X142847619Y-132639525D02*
X142885714Y-132601430D01*
X142885714Y-132601430D02*
X142961905Y-132563335D01*
X143914286Y-132830001D02*
X143914286Y-133363335D01*
X143571429Y-132830001D02*
X143571429Y-133249049D01*
X143571429Y-133249049D02*
X143609524Y-133325240D01*
X143609524Y-133325240D02*
X143685714Y-133363335D01*
X143685714Y-133363335D02*
X143800000Y-133363335D01*
X143800000Y-133363335D02*
X143876191Y-133325240D01*
X143876191Y-133325240D02*
X143914286Y-133287144D01*
X141323810Y-64963334D02*
X141323810Y-64163334D01*
X142161905Y-64963334D02*
X141895238Y-64582381D01*
X141704762Y-64963334D02*
X141704762Y-64163334D01*
X141704762Y-64163334D02*
X142009524Y-64163334D01*
X142009524Y-64163334D02*
X142085714Y-64201429D01*
X142085714Y-64201429D02*
X142123809Y-64239524D01*
X142123809Y-64239524D02*
X142161905Y-64315715D01*
X142161905Y-64315715D02*
X142161905Y-64430000D01*
X142161905Y-64430000D02*
X142123809Y-64506191D01*
X142123809Y-64506191D02*
X142085714Y-64544286D01*
X142085714Y-64544286D02*
X142009524Y-64582381D01*
X142009524Y-64582381D02*
X141704762Y-64582381D01*
X142504762Y-64658572D02*
X143114286Y-64658572D01*
X143952381Y-64963334D02*
X143685714Y-64582381D01*
X143495238Y-64963334D02*
X143495238Y-64163334D01*
X143495238Y-64163334D02*
X143800000Y-64163334D01*
X143800000Y-64163334D02*
X143876190Y-64201429D01*
X143876190Y-64201429D02*
X143914285Y-64239524D01*
X143914285Y-64239524D02*
X143952381Y-64315715D01*
X143952381Y-64315715D02*
X143952381Y-64430000D01*
X143952381Y-64430000D02*
X143914285Y-64506191D01*
X143914285Y-64506191D02*
X143876190Y-64544286D01*
X143876190Y-64544286D02*
X143800000Y-64582381D01*
X143800000Y-64582381D02*
X143495238Y-64582381D01*
X144219047Y-64163334D02*
X144752381Y-64963334D01*
X144752381Y-64163334D02*
X144219047Y-64963334D01*
X145485713Y-74363335D02*
X145028570Y-74363335D01*
X145257142Y-74363335D02*
X145257142Y-73563335D01*
X145257142Y-73563335D02*
X145180951Y-73677620D01*
X145180951Y-73677620D02*
X145104761Y-73753811D01*
X145104761Y-73753811D02*
X145028570Y-73791906D01*
X145980952Y-73563335D02*
X146057142Y-73563335D01*
X146057142Y-73563335D02*
X146133333Y-73601430D01*
X146133333Y-73601430D02*
X146171428Y-73639525D01*
X146171428Y-73639525D02*
X146209523Y-73715716D01*
X146209523Y-73715716D02*
X146247618Y-73868097D01*
X146247618Y-73868097D02*
X146247618Y-74058573D01*
X146247618Y-74058573D02*
X146209523Y-74210954D01*
X146209523Y-74210954D02*
X146171428Y-74287144D01*
X146171428Y-74287144D02*
X146133333Y-74325240D01*
X146133333Y-74325240D02*
X146057142Y-74363335D01*
X146057142Y-74363335D02*
X145980952Y-74363335D01*
X145980952Y-74363335D02*
X145904761Y-74325240D01*
X145904761Y-74325240D02*
X145866666Y-74287144D01*
X145866666Y-74287144D02*
X145828571Y-74210954D01*
X145828571Y-74210954D02*
X145790475Y-74058573D01*
X145790475Y-74058573D02*
X145790475Y-73868097D01*
X145790475Y-73868097D02*
X145828571Y-73715716D01*
X145828571Y-73715716D02*
X145866666Y-73639525D01*
X145866666Y-73639525D02*
X145904761Y-73601430D01*
X145904761Y-73601430D02*
X145980952Y-73563335D01*
X146933333Y-73830001D02*
X146933333Y-74363335D01*
X146590476Y-73830001D02*
X146590476Y-74249049D01*
X146590476Y-74249049D02*
X146628571Y-74325240D01*
X146628571Y-74325240D02*
X146704761Y-74363335D01*
X146704761Y-74363335D02*
X146819047Y-74363335D01*
X146819047Y-74363335D02*
X146895238Y-74325240D01*
X146895238Y-74325240D02*
X146933333Y-74287144D01*
X145700000Y-65163334D02*
X145852381Y-65163334D01*
X145852381Y-65163334D02*
X145928571Y-65201429D01*
X145928571Y-65201429D02*
X146004762Y-65277619D01*
X146004762Y-65277619D02*
X146042857Y-65430000D01*
X146042857Y-65430000D02*
X146042857Y-65696667D01*
X146042857Y-65696667D02*
X146004762Y-65849048D01*
X146004762Y-65849048D02*
X145928571Y-65925239D01*
X145928571Y-65925239D02*
X145852381Y-65963334D01*
X145852381Y-65963334D02*
X145700000Y-65963334D01*
X145700000Y-65963334D02*
X145623809Y-65925239D01*
X145623809Y-65925239D02*
X145547619Y-65849048D01*
X145547619Y-65849048D02*
X145509523Y-65696667D01*
X145509523Y-65696667D02*
X145509523Y-65430000D01*
X145509523Y-65430000D02*
X145547619Y-65277619D01*
X145547619Y-65277619D02*
X145623809Y-65201429D01*
X145623809Y-65201429D02*
X145700000Y-65163334D01*
X146385714Y-65163334D02*
X146385714Y-65810953D01*
X146385714Y-65810953D02*
X146423809Y-65887143D01*
X146423809Y-65887143D02*
X146461904Y-65925239D01*
X146461904Y-65925239D02*
X146538095Y-65963334D01*
X146538095Y-65963334D02*
X146690476Y-65963334D01*
X146690476Y-65963334D02*
X146766666Y-65925239D01*
X146766666Y-65925239D02*
X146804761Y-65887143D01*
X146804761Y-65887143D02*
X146842857Y-65810953D01*
X146842857Y-65810953D02*
X146842857Y-65163334D01*
X147109523Y-65163334D02*
X147566666Y-65163334D01*
X147338094Y-65963334D02*
X147338094Y-65163334D01*
X148430476Y-65201429D02*
X148354286Y-65163334D01*
X148354286Y-65163334D02*
X148240000Y-65163334D01*
X148240000Y-65163334D02*
X148125714Y-65201429D01*
X148125714Y-65201429D02*
X148049524Y-65277619D01*
X148049524Y-65277619D02*
X148011429Y-65353810D01*
X148011429Y-65353810D02*
X147973333Y-65506191D01*
X147973333Y-65506191D02*
X147973333Y-65620477D01*
X147973333Y-65620477D02*
X148011429Y-65772858D01*
X148011429Y-65772858D02*
X148049524Y-65849048D01*
X148049524Y-65849048D02*
X148125714Y-65925239D01*
X148125714Y-65925239D02*
X148240000Y-65963334D01*
X148240000Y-65963334D02*
X148316191Y-65963334D01*
X148316191Y-65963334D02*
X148430476Y-65925239D01*
X148430476Y-65925239D02*
X148468572Y-65887143D01*
X148468572Y-65887143D02*
X148468572Y-65620477D01*
X148468572Y-65620477D02*
X148316191Y-65620477D01*
X148811429Y-65963334D02*
X148811429Y-65163334D01*
X148811429Y-65163334D02*
X149268572Y-65963334D01*
X149268572Y-65963334D02*
X149268572Y-65163334D01*
X149649524Y-65963334D02*
X149649524Y-65163334D01*
X149649524Y-65163334D02*
X149840000Y-65163334D01*
X149840000Y-65163334D02*
X149954286Y-65201429D01*
X149954286Y-65201429D02*
X150030476Y-65277619D01*
X150030476Y-65277619D02*
X150068571Y-65353810D01*
X150068571Y-65353810D02*
X150106667Y-65506191D01*
X150106667Y-65506191D02*
X150106667Y-65620477D01*
X150106667Y-65620477D02*
X150068571Y-65772858D01*
X150068571Y-65772858D02*
X150030476Y-65849048D01*
X150030476Y-65849048D02*
X149954286Y-65925239D01*
X149954286Y-65925239D02*
X149840000Y-65963334D01*
X149840000Y-65963334D02*
X149649524Y-65963334D01*
X148114286Y-114063335D02*
X148571429Y-114063335D01*
X148342857Y-114863335D02*
X148342857Y-114063335D01*
X148990477Y-114063335D02*
X149142858Y-114063335D01*
X149142858Y-114063335D02*
X149219048Y-114101430D01*
X149219048Y-114101430D02*
X149295239Y-114177620D01*
X149295239Y-114177620D02*
X149333334Y-114330001D01*
X149333334Y-114330001D02*
X149333334Y-114596668D01*
X149333334Y-114596668D02*
X149295239Y-114749049D01*
X149295239Y-114749049D02*
X149219048Y-114825240D01*
X149219048Y-114825240D02*
X149142858Y-114863335D01*
X149142858Y-114863335D02*
X148990477Y-114863335D01*
X148990477Y-114863335D02*
X148914286Y-114825240D01*
X148914286Y-114825240D02*
X148838096Y-114749049D01*
X148838096Y-114749049D02*
X148800000Y-114596668D01*
X148800000Y-114596668D02*
X148800000Y-114330001D01*
X148800000Y-114330001D02*
X148838096Y-114177620D01*
X148838096Y-114177620D02*
X148914286Y-114101430D01*
X148914286Y-114101430D02*
X148990477Y-114063335D01*
X149676191Y-114063335D02*
X149676191Y-114710954D01*
X149676191Y-114710954D02*
X149714286Y-114787144D01*
X149714286Y-114787144D02*
X149752381Y-114825240D01*
X149752381Y-114825240D02*
X149828572Y-114863335D01*
X149828572Y-114863335D02*
X149980953Y-114863335D01*
X149980953Y-114863335D02*
X150057143Y-114825240D01*
X150057143Y-114825240D02*
X150095238Y-114787144D01*
X150095238Y-114787144D02*
X150133334Y-114710954D01*
X150133334Y-114710954D02*
X150133334Y-114063335D01*
X150971429Y-114787144D02*
X150933333Y-114825240D01*
X150933333Y-114825240D02*
X150819048Y-114863335D01*
X150819048Y-114863335D02*
X150742857Y-114863335D01*
X150742857Y-114863335D02*
X150628571Y-114825240D01*
X150628571Y-114825240D02*
X150552381Y-114749049D01*
X150552381Y-114749049D02*
X150514286Y-114672859D01*
X150514286Y-114672859D02*
X150476190Y-114520478D01*
X150476190Y-114520478D02*
X150476190Y-114406192D01*
X150476190Y-114406192D02*
X150514286Y-114253811D01*
X150514286Y-114253811D02*
X150552381Y-114177620D01*
X150552381Y-114177620D02*
X150628571Y-114101430D01*
X150628571Y-114101430D02*
X150742857Y-114063335D01*
X150742857Y-114063335D02*
X150819048Y-114063335D01*
X150819048Y-114063335D02*
X150933333Y-114101430D01*
X150933333Y-114101430D02*
X150971429Y-114139525D01*
X151314286Y-114863335D02*
X151314286Y-114063335D01*
X151314286Y-114444287D02*
X151771429Y-114444287D01*
X151771429Y-114863335D02*
X151771429Y-114063335D01*
X149180952Y-116675240D02*
X149295238Y-116713335D01*
X149295238Y-116713335D02*
X149485714Y-116713335D01*
X149485714Y-116713335D02*
X149561905Y-116675240D01*
X149561905Y-116675240D02*
X149600000Y-116637144D01*
X149600000Y-116637144D02*
X149638095Y-116560954D01*
X149638095Y-116560954D02*
X149638095Y-116484763D01*
X149638095Y-116484763D02*
X149600000Y-116408573D01*
X149600000Y-116408573D02*
X149561905Y-116370478D01*
X149561905Y-116370478D02*
X149485714Y-116332382D01*
X149485714Y-116332382D02*
X149333333Y-116294287D01*
X149333333Y-116294287D02*
X149257143Y-116256192D01*
X149257143Y-116256192D02*
X149219048Y-116218097D01*
X149219048Y-116218097D02*
X149180952Y-116141906D01*
X149180952Y-116141906D02*
X149180952Y-116065716D01*
X149180952Y-116065716D02*
X149219048Y-115989525D01*
X149219048Y-115989525D02*
X149257143Y-115951430D01*
X149257143Y-115951430D02*
X149333333Y-115913335D01*
X149333333Y-115913335D02*
X149523810Y-115913335D01*
X149523810Y-115913335D02*
X149638095Y-115951430D01*
X149980953Y-116713335D02*
X149980953Y-115913335D01*
X150780952Y-115951430D02*
X150704762Y-115913335D01*
X150704762Y-115913335D02*
X150590476Y-115913335D01*
X150590476Y-115913335D02*
X150476190Y-115951430D01*
X150476190Y-115951430D02*
X150400000Y-116027620D01*
X150400000Y-116027620D02*
X150361905Y-116103811D01*
X150361905Y-116103811D02*
X150323809Y-116256192D01*
X150323809Y-116256192D02*
X150323809Y-116370478D01*
X150323809Y-116370478D02*
X150361905Y-116522859D01*
X150361905Y-116522859D02*
X150400000Y-116599049D01*
X150400000Y-116599049D02*
X150476190Y-116675240D01*
X150476190Y-116675240D02*
X150590476Y-116713335D01*
X150590476Y-116713335D02*
X150666667Y-116713335D01*
X150666667Y-116713335D02*
X150780952Y-116675240D01*
X150780952Y-116675240D02*
X150819048Y-116637144D01*
X150819048Y-116637144D02*
X150819048Y-116370478D01*
X150819048Y-116370478D02*
X150666667Y-116370478D01*
X150589523Y-65163334D02*
X151084761Y-65163334D01*
X151084761Y-65163334D02*
X150818095Y-65468096D01*
X150818095Y-65468096D02*
X150932380Y-65468096D01*
X150932380Y-65468096D02*
X151008571Y-65506191D01*
X151008571Y-65506191D02*
X151046666Y-65544286D01*
X151046666Y-65544286D02*
X151084761Y-65620477D01*
X151084761Y-65620477D02*
X151084761Y-65810953D01*
X151084761Y-65810953D02*
X151046666Y-65887143D01*
X151046666Y-65887143D02*
X151008571Y-65925239D01*
X151008571Y-65925239D02*
X150932380Y-65963334D01*
X150932380Y-65963334D02*
X150703809Y-65963334D01*
X150703809Y-65963334D02*
X150627618Y-65925239D01*
X150627618Y-65925239D02*
X150589523Y-65887143D01*
X151313333Y-65163334D02*
X151580000Y-65963334D01*
X151580000Y-65963334D02*
X151846666Y-65163334D01*
X152037142Y-65163334D02*
X152532380Y-65163334D01*
X152532380Y-65163334D02*
X152265714Y-65468096D01*
X152265714Y-65468096D02*
X152379999Y-65468096D01*
X152379999Y-65468096D02*
X152456190Y-65506191D01*
X152456190Y-65506191D02*
X152494285Y-65544286D01*
X152494285Y-65544286D02*
X152532380Y-65620477D01*
X152532380Y-65620477D02*
X152532380Y-65810953D01*
X152532380Y-65810953D02*
X152494285Y-65887143D01*
X152494285Y-65887143D02*
X152456190Y-65925239D01*
X152456190Y-65925239D02*
X152379999Y-65963334D01*
X152379999Y-65963334D02*
X152151428Y-65963334D01*
X152151428Y-65963334D02*
X152075237Y-65925239D01*
X152075237Y-65925239D02*
X152037142Y-65887143D01*
X154833333Y-124744287D02*
X154947619Y-124782382D01*
X154947619Y-124782382D02*
X154985714Y-124820478D01*
X154985714Y-124820478D02*
X155023810Y-124896668D01*
X155023810Y-124896668D02*
X155023810Y-125010954D01*
X155023810Y-125010954D02*
X154985714Y-125087144D01*
X154985714Y-125087144D02*
X154947619Y-125125240D01*
X154947619Y-125125240D02*
X154871429Y-125163335D01*
X154871429Y-125163335D02*
X154566667Y-125163335D01*
X154566667Y-125163335D02*
X154566667Y-124363335D01*
X154566667Y-124363335D02*
X154833333Y-124363335D01*
X154833333Y-124363335D02*
X154909524Y-124401430D01*
X154909524Y-124401430D02*
X154947619Y-124439525D01*
X154947619Y-124439525D02*
X154985714Y-124515716D01*
X154985714Y-124515716D02*
X154985714Y-124591906D01*
X154985714Y-124591906D02*
X154947619Y-124668097D01*
X154947619Y-124668097D02*
X154909524Y-124706192D01*
X154909524Y-124706192D02*
X154833333Y-124744287D01*
X154833333Y-124744287D02*
X154566667Y-124744287D01*
X155252381Y-124363335D02*
X155709524Y-124363335D01*
X155480952Y-125163335D02*
X155480952Y-124363335D01*
X155976191Y-125163335D02*
X155976191Y-124363335D01*
X155976191Y-124363335D02*
X156433334Y-125163335D01*
X156433334Y-125163335D02*
X156433334Y-124363335D01*
X180323808Y-100863335D02*
X179866665Y-100863335D01*
X180095237Y-100863335D02*
X180095237Y-100063335D01*
X180095237Y-100063335D02*
X180019046Y-100177620D01*
X180019046Y-100177620D02*
X179942856Y-100253811D01*
X179942856Y-100253811D02*
X179866665Y-100291906D01*
X180819047Y-100063335D02*
X180895237Y-100063335D01*
X180895237Y-100063335D02*
X180971428Y-100101430D01*
X180971428Y-100101430D02*
X181009523Y-100139525D01*
X181009523Y-100139525D02*
X181047618Y-100215716D01*
X181047618Y-100215716D02*
X181085713Y-100368097D01*
X181085713Y-100368097D02*
X181085713Y-100558573D01*
X181085713Y-100558573D02*
X181047618Y-100710954D01*
X181047618Y-100710954D02*
X181009523Y-100787144D01*
X181009523Y-100787144D02*
X180971428Y-100825240D01*
X180971428Y-100825240D02*
X180895237Y-100863335D01*
X180895237Y-100863335D02*
X180819047Y-100863335D01*
X180819047Y-100863335D02*
X180742856Y-100825240D01*
X180742856Y-100825240D02*
X180704761Y-100787144D01*
X180704761Y-100787144D02*
X180666666Y-100710954D01*
X180666666Y-100710954D02*
X180628570Y-100558573D01*
X180628570Y-100558573D02*
X180628570Y-100368097D01*
X180628570Y-100368097D02*
X180666666Y-100215716D01*
X180666666Y-100215716D02*
X180704761Y-100139525D01*
X180704761Y-100139525D02*
X180742856Y-100101430D01*
X180742856Y-100101430D02*
X180819047Y-100063335D01*
X181580952Y-100063335D02*
X181657142Y-100063335D01*
X181657142Y-100063335D02*
X181733333Y-100101430D01*
X181733333Y-100101430D02*
X181771428Y-100139525D01*
X181771428Y-100139525D02*
X181809523Y-100215716D01*
X181809523Y-100215716D02*
X181847618Y-100368097D01*
X181847618Y-100368097D02*
X181847618Y-100558573D01*
X181847618Y-100558573D02*
X181809523Y-100710954D01*
X181809523Y-100710954D02*
X181771428Y-100787144D01*
X181771428Y-100787144D02*
X181733333Y-100825240D01*
X181733333Y-100825240D02*
X181657142Y-100863335D01*
X181657142Y-100863335D02*
X181580952Y-100863335D01*
X181580952Y-100863335D02*
X181504761Y-100825240D01*
X181504761Y-100825240D02*
X181466666Y-100787144D01*
X181466666Y-100787144D02*
X181428571Y-100710954D01*
X181428571Y-100710954D02*
X181390475Y-100558573D01*
X181390475Y-100558573D02*
X181390475Y-100368097D01*
X181390475Y-100368097D02*
X181428571Y-100215716D01*
X181428571Y-100215716D02*
X181466666Y-100139525D01*
X181466666Y-100139525D02*
X181504761Y-100101430D01*
X181504761Y-100101430D02*
X181580952Y-100063335D01*
X182342857Y-100063335D02*
X182419047Y-100063335D01*
X182419047Y-100063335D02*
X182495238Y-100101430D01*
X182495238Y-100101430D02*
X182533333Y-100139525D01*
X182533333Y-100139525D02*
X182571428Y-100215716D01*
X182571428Y-100215716D02*
X182609523Y-100368097D01*
X182609523Y-100368097D02*
X182609523Y-100558573D01*
X182609523Y-100558573D02*
X182571428Y-100710954D01*
X182571428Y-100710954D02*
X182533333Y-100787144D01*
X182533333Y-100787144D02*
X182495238Y-100825240D01*
X182495238Y-100825240D02*
X182419047Y-100863335D01*
X182419047Y-100863335D02*
X182342857Y-100863335D01*
X182342857Y-100863335D02*
X182266666Y-100825240D01*
X182266666Y-100825240D02*
X182228571Y-100787144D01*
X182228571Y-100787144D02*
X182190476Y-100710954D01*
X182190476Y-100710954D02*
X182152380Y-100558573D01*
X182152380Y-100558573D02*
X182152380Y-100368097D01*
X182152380Y-100368097D02*
X182190476Y-100215716D01*
X182190476Y-100215716D02*
X182228571Y-100139525D01*
X182228571Y-100139525D02*
X182266666Y-100101430D01*
X182266666Y-100101430D02*
X182342857Y-100063335D01*
X183295238Y-100330001D02*
X183295238Y-100863335D01*
X182952381Y-100330001D02*
X182952381Y-100749049D01*
X182952381Y-100749049D02*
X182990476Y-100825240D01*
X182990476Y-100825240D02*
X183066666Y-100863335D01*
X183066666Y-100863335D02*
X183180952Y-100863335D01*
X183180952Y-100863335D02*
X183257143Y-100825240D01*
X183257143Y-100825240D02*
X183295238Y-100787144D01*
X156604761Y-66363335D02*
X156147618Y-66363335D01*
X156376190Y-66363335D02*
X156376190Y-65563335D01*
X156376190Y-65563335D02*
X156299999Y-65677620D01*
X156299999Y-65677620D02*
X156223809Y-65753811D01*
X156223809Y-65753811D02*
X156147618Y-65791906D01*
X157100000Y-65563335D02*
X157176190Y-65563335D01*
X157176190Y-65563335D02*
X157252381Y-65601430D01*
X157252381Y-65601430D02*
X157290476Y-65639525D01*
X157290476Y-65639525D02*
X157328571Y-65715716D01*
X157328571Y-65715716D02*
X157366666Y-65868097D01*
X157366666Y-65868097D02*
X157366666Y-66058573D01*
X157366666Y-66058573D02*
X157328571Y-66210954D01*
X157328571Y-66210954D02*
X157290476Y-66287144D01*
X157290476Y-66287144D02*
X157252381Y-66325240D01*
X157252381Y-66325240D02*
X157176190Y-66363335D01*
X157176190Y-66363335D02*
X157100000Y-66363335D01*
X157100000Y-66363335D02*
X157023809Y-66325240D01*
X157023809Y-66325240D02*
X156985714Y-66287144D01*
X156985714Y-66287144D02*
X156947619Y-66210954D01*
X156947619Y-66210954D02*
X156909523Y-66058573D01*
X156909523Y-66058573D02*
X156909523Y-65868097D01*
X156909523Y-65868097D02*
X156947619Y-65715716D01*
X156947619Y-65715716D02*
X156985714Y-65639525D01*
X156985714Y-65639525D02*
X157023809Y-65601430D01*
X157023809Y-65601430D02*
X157100000Y-65563335D01*
X157861905Y-65563335D02*
X157938095Y-65563335D01*
X157938095Y-65563335D02*
X158014286Y-65601430D01*
X158014286Y-65601430D02*
X158052381Y-65639525D01*
X158052381Y-65639525D02*
X158090476Y-65715716D01*
X158090476Y-65715716D02*
X158128571Y-65868097D01*
X158128571Y-65868097D02*
X158128571Y-66058573D01*
X158128571Y-66058573D02*
X158090476Y-66210954D01*
X158090476Y-66210954D02*
X158052381Y-66287144D01*
X158052381Y-66287144D02*
X158014286Y-66325240D01*
X158014286Y-66325240D02*
X157938095Y-66363335D01*
X157938095Y-66363335D02*
X157861905Y-66363335D01*
X157861905Y-66363335D02*
X157785714Y-66325240D01*
X157785714Y-66325240D02*
X157747619Y-66287144D01*
X157747619Y-66287144D02*
X157709524Y-66210954D01*
X157709524Y-66210954D02*
X157671428Y-66058573D01*
X157671428Y-66058573D02*
X157671428Y-65868097D01*
X157671428Y-65868097D02*
X157709524Y-65715716D01*
X157709524Y-65715716D02*
X157747619Y-65639525D01*
X157747619Y-65639525D02*
X157785714Y-65601430D01*
X157785714Y-65601430D02*
X157861905Y-65563335D01*
X158471429Y-65830001D02*
X158471429Y-66363335D01*
X158471429Y-65906192D02*
X158509524Y-65868097D01*
X158509524Y-65868097D02*
X158585714Y-65830001D01*
X158585714Y-65830001D02*
X158700000Y-65830001D01*
X158700000Y-65830001D02*
X158776191Y-65868097D01*
X158776191Y-65868097D02*
X158814286Y-65944287D01*
X158814286Y-65944287D02*
X158814286Y-66363335D01*
X163833333Y-118744287D02*
X163947619Y-118782382D01*
X163947619Y-118782382D02*
X163985714Y-118820478D01*
X163985714Y-118820478D02*
X164023810Y-118896668D01*
X164023810Y-118896668D02*
X164023810Y-119010954D01*
X164023810Y-119010954D02*
X163985714Y-119087144D01*
X163985714Y-119087144D02*
X163947619Y-119125240D01*
X163947619Y-119125240D02*
X163871429Y-119163335D01*
X163871429Y-119163335D02*
X163566667Y-119163335D01*
X163566667Y-119163335D02*
X163566667Y-118363335D01*
X163566667Y-118363335D02*
X163833333Y-118363335D01*
X163833333Y-118363335D02*
X163909524Y-118401430D01*
X163909524Y-118401430D02*
X163947619Y-118439525D01*
X163947619Y-118439525D02*
X163985714Y-118515716D01*
X163985714Y-118515716D02*
X163985714Y-118591906D01*
X163985714Y-118591906D02*
X163947619Y-118668097D01*
X163947619Y-118668097D02*
X163909524Y-118706192D01*
X163909524Y-118706192D02*
X163833333Y-118744287D01*
X163833333Y-118744287D02*
X163566667Y-118744287D01*
X164252381Y-118363335D02*
X164709524Y-118363335D01*
X164480952Y-119163335D02*
X164480952Y-118363335D01*
X164976191Y-119163335D02*
X164976191Y-118363335D01*
X164976191Y-118363335D02*
X165433334Y-119163335D01*
X165433334Y-119163335D02*
X165433334Y-118363335D01*
X163314286Y-122563335D02*
X163771429Y-122563335D01*
X163542857Y-123363335D02*
X163542857Y-122563335D01*
X164190477Y-122563335D02*
X164342858Y-122563335D01*
X164342858Y-122563335D02*
X164419048Y-122601430D01*
X164419048Y-122601430D02*
X164495239Y-122677620D01*
X164495239Y-122677620D02*
X164533334Y-122830001D01*
X164533334Y-122830001D02*
X164533334Y-123096668D01*
X164533334Y-123096668D02*
X164495239Y-123249049D01*
X164495239Y-123249049D02*
X164419048Y-123325240D01*
X164419048Y-123325240D02*
X164342858Y-123363335D01*
X164342858Y-123363335D02*
X164190477Y-123363335D01*
X164190477Y-123363335D02*
X164114286Y-123325240D01*
X164114286Y-123325240D02*
X164038096Y-123249049D01*
X164038096Y-123249049D02*
X164000000Y-123096668D01*
X164000000Y-123096668D02*
X164000000Y-122830001D01*
X164000000Y-122830001D02*
X164038096Y-122677620D01*
X164038096Y-122677620D02*
X164114286Y-122601430D01*
X164114286Y-122601430D02*
X164190477Y-122563335D01*
X164876191Y-122563335D02*
X164876191Y-123210954D01*
X164876191Y-123210954D02*
X164914286Y-123287144D01*
X164914286Y-123287144D02*
X164952381Y-123325240D01*
X164952381Y-123325240D02*
X165028572Y-123363335D01*
X165028572Y-123363335D02*
X165180953Y-123363335D01*
X165180953Y-123363335D02*
X165257143Y-123325240D01*
X165257143Y-123325240D02*
X165295238Y-123287144D01*
X165295238Y-123287144D02*
X165333334Y-123210954D01*
X165333334Y-123210954D02*
X165333334Y-122563335D01*
X166171429Y-123287144D02*
X166133333Y-123325240D01*
X166133333Y-123325240D02*
X166019048Y-123363335D01*
X166019048Y-123363335D02*
X165942857Y-123363335D01*
X165942857Y-123363335D02*
X165828571Y-123325240D01*
X165828571Y-123325240D02*
X165752381Y-123249049D01*
X165752381Y-123249049D02*
X165714286Y-123172859D01*
X165714286Y-123172859D02*
X165676190Y-123020478D01*
X165676190Y-123020478D02*
X165676190Y-122906192D01*
X165676190Y-122906192D02*
X165714286Y-122753811D01*
X165714286Y-122753811D02*
X165752381Y-122677620D01*
X165752381Y-122677620D02*
X165828571Y-122601430D01*
X165828571Y-122601430D02*
X165942857Y-122563335D01*
X165942857Y-122563335D02*
X166019048Y-122563335D01*
X166019048Y-122563335D02*
X166133333Y-122601430D01*
X166133333Y-122601430D02*
X166171429Y-122639525D01*
X166514286Y-123363335D02*
X166514286Y-122563335D01*
X166514286Y-122944287D02*
X166971429Y-122944287D01*
X166971429Y-123363335D02*
X166971429Y-122563335D01*
X172070476Y-71330001D02*
X172070476Y-71863335D01*
X171880000Y-71025240D02*
X171689523Y-71596668D01*
X171689523Y-71596668D02*
X172184762Y-71596668D01*
X172413333Y-71063335D02*
X172946667Y-71063335D01*
X172946667Y-71063335D02*
X172603809Y-71863335D01*
X173403810Y-71063335D02*
X173480000Y-71063335D01*
X173480000Y-71063335D02*
X173556191Y-71101430D01*
X173556191Y-71101430D02*
X173594286Y-71139525D01*
X173594286Y-71139525D02*
X173632381Y-71215716D01*
X173632381Y-71215716D02*
X173670476Y-71368097D01*
X173670476Y-71368097D02*
X173670476Y-71558573D01*
X173670476Y-71558573D02*
X173632381Y-71710954D01*
X173632381Y-71710954D02*
X173594286Y-71787144D01*
X173594286Y-71787144D02*
X173556191Y-71825240D01*
X173556191Y-71825240D02*
X173480000Y-71863335D01*
X173480000Y-71863335D02*
X173403810Y-71863335D01*
X173403810Y-71863335D02*
X173327619Y-71825240D01*
X173327619Y-71825240D02*
X173289524Y-71787144D01*
X173289524Y-71787144D02*
X173251429Y-71710954D01*
X173251429Y-71710954D02*
X173213333Y-71558573D01*
X173213333Y-71558573D02*
X173213333Y-71368097D01*
X173213333Y-71368097D02*
X173251429Y-71215716D01*
X173251429Y-71215716D02*
X173289524Y-71139525D01*
X173289524Y-71139525D02*
X173327619Y-71101430D01*
X173327619Y-71101430D02*
X173403810Y-71063335D01*
X174470477Y-71863335D02*
X174203810Y-71482382D01*
X174013334Y-71863335D02*
X174013334Y-71063335D01*
X174013334Y-71063335D02*
X174318096Y-71063335D01*
X174318096Y-71063335D02*
X174394286Y-71101430D01*
X174394286Y-71101430D02*
X174432381Y-71139525D01*
X174432381Y-71139525D02*
X174470477Y-71215716D01*
X174470477Y-71215716D02*
X174470477Y-71330001D01*
X174470477Y-71330001D02*
X174432381Y-71406192D01*
X174432381Y-71406192D02*
X174394286Y-71444287D01*
X174394286Y-71444287D02*
X174318096Y-71482382D01*
X174318096Y-71482382D02*
X174013334Y-71482382D01*
X172032380Y-75563335D02*
X172527618Y-75563335D01*
X172527618Y-75563335D02*
X172260952Y-75868097D01*
X172260952Y-75868097D02*
X172375237Y-75868097D01*
X172375237Y-75868097D02*
X172451428Y-75906192D01*
X172451428Y-75906192D02*
X172489523Y-75944287D01*
X172489523Y-75944287D02*
X172527618Y-76020478D01*
X172527618Y-76020478D02*
X172527618Y-76210954D01*
X172527618Y-76210954D02*
X172489523Y-76287144D01*
X172489523Y-76287144D02*
X172451428Y-76325240D01*
X172451428Y-76325240D02*
X172375237Y-76363335D01*
X172375237Y-76363335D02*
X172146666Y-76363335D01*
X172146666Y-76363335D02*
X172070475Y-76325240D01*
X172070475Y-76325240D02*
X172032380Y-76287144D01*
X172794285Y-75563335D02*
X173289523Y-75563335D01*
X173289523Y-75563335D02*
X173022857Y-75868097D01*
X173022857Y-75868097D02*
X173137142Y-75868097D01*
X173137142Y-75868097D02*
X173213333Y-75906192D01*
X173213333Y-75906192D02*
X173251428Y-75944287D01*
X173251428Y-75944287D02*
X173289523Y-76020478D01*
X173289523Y-76020478D02*
X173289523Y-76210954D01*
X173289523Y-76210954D02*
X173251428Y-76287144D01*
X173251428Y-76287144D02*
X173213333Y-76325240D01*
X173213333Y-76325240D02*
X173137142Y-76363335D01*
X173137142Y-76363335D02*
X172908571Y-76363335D01*
X172908571Y-76363335D02*
X172832380Y-76325240D01*
X172832380Y-76325240D02*
X172794285Y-76287144D01*
X174089524Y-76363335D02*
X173822857Y-75982382D01*
X173632381Y-76363335D02*
X173632381Y-75563335D01*
X173632381Y-75563335D02*
X173937143Y-75563335D01*
X173937143Y-75563335D02*
X174013333Y-75601430D01*
X174013333Y-75601430D02*
X174051428Y-75639525D01*
X174051428Y-75639525D02*
X174089524Y-75715716D01*
X174089524Y-75715716D02*
X174089524Y-75830001D01*
X174089524Y-75830001D02*
X174051428Y-75906192D01*
X174051428Y-75906192D02*
X174013333Y-75944287D01*
X174013333Y-75944287D02*
X173937143Y-75982382D01*
X173937143Y-75982382D02*
X173632381Y-75982382D01*
X175785713Y-61939525D02*
X175823809Y-61901430D01*
X175823809Y-61901430D02*
X175899999Y-61863335D01*
X175899999Y-61863335D02*
X176090475Y-61863335D01*
X176090475Y-61863335D02*
X176166666Y-61901430D01*
X176166666Y-61901430D02*
X176204761Y-61939525D01*
X176204761Y-61939525D02*
X176242856Y-62015716D01*
X176242856Y-62015716D02*
X176242856Y-62091906D01*
X176242856Y-62091906D02*
X176204761Y-62206192D01*
X176204761Y-62206192D02*
X175747618Y-62663335D01*
X175747618Y-62663335D02*
X176242856Y-62663335D01*
X176585714Y-62663335D02*
X176585714Y-61863335D01*
X176585714Y-61863335D02*
X177042857Y-62663335D01*
X177042857Y-62663335D02*
X177042857Y-61863335D01*
X177385713Y-61939525D02*
X177423809Y-61901430D01*
X177423809Y-61901430D02*
X177499999Y-61863335D01*
X177499999Y-61863335D02*
X177690475Y-61863335D01*
X177690475Y-61863335D02*
X177766666Y-61901430D01*
X177766666Y-61901430D02*
X177804761Y-61939525D01*
X177804761Y-61939525D02*
X177842856Y-62015716D01*
X177842856Y-62015716D02*
X177842856Y-62091906D01*
X177842856Y-62091906D02*
X177804761Y-62206192D01*
X177804761Y-62206192D02*
X177347618Y-62663335D01*
X177347618Y-62663335D02*
X177842856Y-62663335D01*
X178147618Y-61939525D02*
X178185714Y-61901430D01*
X178185714Y-61901430D02*
X178261904Y-61863335D01*
X178261904Y-61863335D02*
X178452380Y-61863335D01*
X178452380Y-61863335D02*
X178528571Y-61901430D01*
X178528571Y-61901430D02*
X178566666Y-61939525D01*
X178566666Y-61939525D02*
X178604761Y-62015716D01*
X178604761Y-62015716D02*
X178604761Y-62091906D01*
X178604761Y-62091906D02*
X178566666Y-62206192D01*
X178566666Y-62206192D02*
X178109523Y-62663335D01*
X178109523Y-62663335D02*
X178604761Y-62663335D01*
X178909523Y-61939525D02*
X178947619Y-61901430D01*
X178947619Y-61901430D02*
X179023809Y-61863335D01*
X179023809Y-61863335D02*
X179214285Y-61863335D01*
X179214285Y-61863335D02*
X179290476Y-61901430D01*
X179290476Y-61901430D02*
X179328571Y-61939525D01*
X179328571Y-61939525D02*
X179366666Y-62015716D01*
X179366666Y-62015716D02*
X179366666Y-62091906D01*
X179366666Y-62091906D02*
X179328571Y-62206192D01*
X179328571Y-62206192D02*
X178871428Y-62663335D01*
X178871428Y-62663335D02*
X179366666Y-62663335D01*
X179671428Y-61939525D02*
X179709524Y-61901430D01*
X179709524Y-61901430D02*
X179785714Y-61863335D01*
X179785714Y-61863335D02*
X179976190Y-61863335D01*
X179976190Y-61863335D02*
X180052381Y-61901430D01*
X180052381Y-61901430D02*
X180090476Y-61939525D01*
X180090476Y-61939525D02*
X180128571Y-62015716D01*
X180128571Y-62015716D02*
X180128571Y-62091906D01*
X180128571Y-62091906D02*
X180090476Y-62206192D01*
X180090476Y-62206192D02*
X179633333Y-62663335D01*
X179633333Y-62663335D02*
X180128571Y-62663335D01*
X180433333Y-62434763D02*
X180814286Y-62434763D01*
X180357143Y-62663335D02*
X180623810Y-61863335D01*
X180623810Y-61863335D02*
X180890476Y-62663335D01*
X177604761Y-116363335D02*
X177147618Y-116363335D01*
X177376190Y-116363335D02*
X177376190Y-115563335D01*
X177376190Y-115563335D02*
X177299999Y-115677620D01*
X177299999Y-115677620D02*
X177223809Y-115753811D01*
X177223809Y-115753811D02*
X177147618Y-115791906D01*
X178100000Y-115563335D02*
X178176190Y-115563335D01*
X178176190Y-115563335D02*
X178252381Y-115601430D01*
X178252381Y-115601430D02*
X178290476Y-115639525D01*
X178290476Y-115639525D02*
X178328571Y-115715716D01*
X178328571Y-115715716D02*
X178366666Y-115868097D01*
X178366666Y-115868097D02*
X178366666Y-116058573D01*
X178366666Y-116058573D02*
X178328571Y-116210954D01*
X178328571Y-116210954D02*
X178290476Y-116287144D01*
X178290476Y-116287144D02*
X178252381Y-116325240D01*
X178252381Y-116325240D02*
X178176190Y-116363335D01*
X178176190Y-116363335D02*
X178100000Y-116363335D01*
X178100000Y-116363335D02*
X178023809Y-116325240D01*
X178023809Y-116325240D02*
X177985714Y-116287144D01*
X177985714Y-116287144D02*
X177947619Y-116210954D01*
X177947619Y-116210954D02*
X177909523Y-116058573D01*
X177909523Y-116058573D02*
X177909523Y-115868097D01*
X177909523Y-115868097D02*
X177947619Y-115715716D01*
X177947619Y-115715716D02*
X177985714Y-115639525D01*
X177985714Y-115639525D02*
X178023809Y-115601430D01*
X178023809Y-115601430D02*
X178100000Y-115563335D01*
X178861905Y-115563335D02*
X178938095Y-115563335D01*
X178938095Y-115563335D02*
X179014286Y-115601430D01*
X179014286Y-115601430D02*
X179052381Y-115639525D01*
X179052381Y-115639525D02*
X179090476Y-115715716D01*
X179090476Y-115715716D02*
X179128571Y-115868097D01*
X179128571Y-115868097D02*
X179128571Y-116058573D01*
X179128571Y-116058573D02*
X179090476Y-116210954D01*
X179090476Y-116210954D02*
X179052381Y-116287144D01*
X179052381Y-116287144D02*
X179014286Y-116325240D01*
X179014286Y-116325240D02*
X178938095Y-116363335D01*
X178938095Y-116363335D02*
X178861905Y-116363335D01*
X178861905Y-116363335D02*
X178785714Y-116325240D01*
X178785714Y-116325240D02*
X178747619Y-116287144D01*
X178747619Y-116287144D02*
X178709524Y-116210954D01*
X178709524Y-116210954D02*
X178671428Y-116058573D01*
X178671428Y-116058573D02*
X178671428Y-115868097D01*
X178671428Y-115868097D02*
X178709524Y-115715716D01*
X178709524Y-115715716D02*
X178747619Y-115639525D01*
X178747619Y-115639525D02*
X178785714Y-115601430D01*
X178785714Y-115601430D02*
X178861905Y-115563335D01*
X179471429Y-115830001D02*
X179471429Y-116363335D01*
X179471429Y-115906192D02*
X179509524Y-115868097D01*
X179509524Y-115868097D02*
X179585714Y-115830001D01*
X179585714Y-115830001D02*
X179700000Y-115830001D01*
X179700000Y-115830001D02*
X179776191Y-115868097D01*
X179776191Y-115868097D02*
X179814286Y-115944287D01*
X179814286Y-115944287D02*
X179814286Y-116363335D01*
X179933333Y-127563335D02*
X180200000Y-128363335D01*
X180200000Y-128363335D02*
X180466666Y-127563335D01*
X180733333Y-128363335D02*
X180733333Y-127563335D01*
X180733333Y-127563335D02*
X180923809Y-127563335D01*
X180923809Y-127563335D02*
X181038095Y-127601430D01*
X181038095Y-127601430D02*
X181114285Y-127677620D01*
X181114285Y-127677620D02*
X181152380Y-127753811D01*
X181152380Y-127753811D02*
X181190476Y-127906192D01*
X181190476Y-127906192D02*
X181190476Y-128020478D01*
X181190476Y-128020478D02*
X181152380Y-128172859D01*
X181152380Y-128172859D02*
X181114285Y-128249049D01*
X181114285Y-128249049D02*
X181038095Y-128325240D01*
X181038095Y-128325240D02*
X180923809Y-128363335D01*
X180923809Y-128363335D02*
X180733333Y-128363335D01*
X181533333Y-128363335D02*
X181533333Y-127563335D01*
X181533333Y-127563335D02*
X181723809Y-127563335D01*
X181723809Y-127563335D02*
X181838095Y-127601430D01*
X181838095Y-127601430D02*
X181914285Y-127677620D01*
X181914285Y-127677620D02*
X181952380Y-127753811D01*
X181952380Y-127753811D02*
X181990476Y-127906192D01*
X181990476Y-127906192D02*
X181990476Y-128020478D01*
X181990476Y-128020478D02*
X181952380Y-128172859D01*
X181952380Y-128172859D02*
X181914285Y-128249049D01*
X181914285Y-128249049D02*
X181838095Y-128325240D01*
X181838095Y-128325240D02*
X181723809Y-128363335D01*
X181723809Y-128363335D02*
X181533333Y-128363335D01*
X183689523Y-93639525D02*
X183727619Y-93601430D01*
X183727619Y-93601430D02*
X183803809Y-93563335D01*
X183803809Y-93563335D02*
X183994285Y-93563335D01*
X183994285Y-93563335D02*
X184070476Y-93601430D01*
X184070476Y-93601430D02*
X184108571Y-93639525D01*
X184108571Y-93639525D02*
X184146666Y-93715716D01*
X184146666Y-93715716D02*
X184146666Y-93791906D01*
X184146666Y-93791906D02*
X184108571Y-93906192D01*
X184108571Y-93906192D02*
X183651428Y-94363335D01*
X183651428Y-94363335D02*
X184146666Y-94363335D01*
X184451428Y-93639525D02*
X184489524Y-93601430D01*
X184489524Y-93601430D02*
X184565714Y-93563335D01*
X184565714Y-93563335D02*
X184756190Y-93563335D01*
X184756190Y-93563335D02*
X184832381Y-93601430D01*
X184832381Y-93601430D02*
X184870476Y-93639525D01*
X184870476Y-93639525D02*
X184908571Y-93715716D01*
X184908571Y-93715716D02*
X184908571Y-93791906D01*
X184908571Y-93791906D02*
X184870476Y-93906192D01*
X184870476Y-93906192D02*
X184413333Y-94363335D01*
X184413333Y-94363335D02*
X184908571Y-94363335D01*
X185403810Y-93563335D02*
X185480000Y-93563335D01*
X185480000Y-93563335D02*
X185556191Y-93601430D01*
X185556191Y-93601430D02*
X185594286Y-93639525D01*
X185594286Y-93639525D02*
X185632381Y-93715716D01*
X185632381Y-93715716D02*
X185670476Y-93868097D01*
X185670476Y-93868097D02*
X185670476Y-94058573D01*
X185670476Y-94058573D02*
X185632381Y-94210954D01*
X185632381Y-94210954D02*
X185594286Y-94287144D01*
X185594286Y-94287144D02*
X185556191Y-94325240D01*
X185556191Y-94325240D02*
X185480000Y-94363335D01*
X185480000Y-94363335D02*
X185403810Y-94363335D01*
X185403810Y-94363335D02*
X185327619Y-94325240D01*
X185327619Y-94325240D02*
X185289524Y-94287144D01*
X185289524Y-94287144D02*
X185251429Y-94210954D01*
X185251429Y-94210954D02*
X185213333Y-94058573D01*
X185213333Y-94058573D02*
X185213333Y-93868097D01*
X185213333Y-93868097D02*
X185251429Y-93715716D01*
X185251429Y-93715716D02*
X185289524Y-93639525D01*
X185289524Y-93639525D02*
X185327619Y-93601430D01*
X185327619Y-93601430D02*
X185403810Y-93563335D01*
X186470477Y-94363335D02*
X186203810Y-93982382D01*
X186013334Y-94363335D02*
X186013334Y-93563335D01*
X186013334Y-93563335D02*
X186318096Y-93563335D01*
X186318096Y-93563335D02*
X186394286Y-93601430D01*
X186394286Y-93601430D02*
X186432381Y-93639525D01*
X186432381Y-93639525D02*
X186470477Y-93715716D01*
X186470477Y-93715716D02*
X186470477Y-93830001D01*
X186470477Y-93830001D02*
X186432381Y-93906192D01*
X186432381Y-93906192D02*
X186394286Y-93944287D01*
X186394286Y-93944287D02*
X186318096Y-93982382D01*
X186318096Y-93982382D02*
X186013334Y-93982382D01*
X186419048Y-61463335D02*
X186419048Y-60663335D01*
X187257143Y-61463335D02*
X186990476Y-61082382D01*
X186800000Y-61463335D02*
X186800000Y-60663335D01*
X186800000Y-60663335D02*
X187104762Y-60663335D01*
X187104762Y-60663335D02*
X187180952Y-60701430D01*
X187180952Y-60701430D02*
X187219047Y-60739525D01*
X187219047Y-60739525D02*
X187257143Y-60815716D01*
X187257143Y-60815716D02*
X187257143Y-60930001D01*
X187257143Y-60930001D02*
X187219047Y-61006192D01*
X187219047Y-61006192D02*
X187180952Y-61044287D01*
X187180952Y-61044287D02*
X187104762Y-61082382D01*
X187104762Y-61082382D02*
X186800000Y-61082382D01*
X187600000Y-61158573D02*
X188209524Y-61158573D01*
X188476190Y-60663335D02*
X188933333Y-60663335D01*
X188704761Y-61463335D02*
X188704761Y-60663335D01*
X189123809Y-60663335D02*
X189657143Y-61463335D01*
X189657143Y-60663335D02*
X189123809Y-61463335D01*
X191752380Y-90763335D02*
X191942856Y-91563335D01*
X191942856Y-91563335D02*
X192095237Y-90991906D01*
X192095237Y-90991906D02*
X192247618Y-91563335D01*
X192247618Y-91563335D02*
X192438095Y-90763335D01*
X192704761Y-91525240D02*
X192819047Y-91563335D01*
X192819047Y-91563335D02*
X193009523Y-91563335D01*
X193009523Y-91563335D02*
X193085714Y-91525240D01*
X193085714Y-91525240D02*
X193123809Y-91487144D01*
X193123809Y-91487144D02*
X193161904Y-91410954D01*
X193161904Y-91410954D02*
X193161904Y-91334763D01*
X193161904Y-91334763D02*
X193123809Y-91258573D01*
X193123809Y-91258573D02*
X193085714Y-91220478D01*
X193085714Y-91220478D02*
X193009523Y-91182382D01*
X193009523Y-91182382D02*
X192857142Y-91144287D01*
X192857142Y-91144287D02*
X192780952Y-91106192D01*
X192780952Y-91106192D02*
X192742857Y-91068097D01*
X192742857Y-91068097D02*
X192704761Y-90991906D01*
X192704761Y-90991906D02*
X192704761Y-90915716D01*
X192704761Y-90915716D02*
X192742857Y-90839525D01*
X192742857Y-90839525D02*
X192780952Y-90801430D01*
X192780952Y-90801430D02*
X192857142Y-90763335D01*
X192857142Y-90763335D02*
X193047619Y-90763335D01*
X193047619Y-90763335D02*
X193161904Y-90801430D01*
X193466666Y-90839525D02*
X193504762Y-90801430D01*
X193504762Y-90801430D02*
X193580952Y-90763335D01*
X193580952Y-90763335D02*
X193771428Y-90763335D01*
X193771428Y-90763335D02*
X193847619Y-90801430D01*
X193847619Y-90801430D02*
X193885714Y-90839525D01*
X193885714Y-90839525D02*
X193923809Y-90915716D01*
X193923809Y-90915716D02*
X193923809Y-90991906D01*
X193923809Y-90991906D02*
X193885714Y-91106192D01*
X193885714Y-91106192D02*
X193428571Y-91563335D01*
X193428571Y-91563335D02*
X193923809Y-91563335D01*
X194380952Y-91106192D02*
X194304762Y-91068097D01*
X194304762Y-91068097D02*
X194266667Y-91030001D01*
X194266667Y-91030001D02*
X194228571Y-90953811D01*
X194228571Y-90953811D02*
X194228571Y-90915716D01*
X194228571Y-90915716D02*
X194266667Y-90839525D01*
X194266667Y-90839525D02*
X194304762Y-90801430D01*
X194304762Y-90801430D02*
X194380952Y-90763335D01*
X194380952Y-90763335D02*
X194533333Y-90763335D01*
X194533333Y-90763335D02*
X194609524Y-90801430D01*
X194609524Y-90801430D02*
X194647619Y-90839525D01*
X194647619Y-90839525D02*
X194685714Y-90915716D01*
X194685714Y-90915716D02*
X194685714Y-90953811D01*
X194685714Y-90953811D02*
X194647619Y-91030001D01*
X194647619Y-91030001D02*
X194609524Y-91068097D01*
X194609524Y-91068097D02*
X194533333Y-91106192D01*
X194533333Y-91106192D02*
X194380952Y-91106192D01*
X194380952Y-91106192D02*
X194304762Y-91144287D01*
X194304762Y-91144287D02*
X194266667Y-91182382D01*
X194266667Y-91182382D02*
X194228571Y-91258573D01*
X194228571Y-91258573D02*
X194228571Y-91410954D01*
X194228571Y-91410954D02*
X194266667Y-91487144D01*
X194266667Y-91487144D02*
X194304762Y-91525240D01*
X194304762Y-91525240D02*
X194380952Y-91563335D01*
X194380952Y-91563335D02*
X194533333Y-91563335D01*
X194533333Y-91563335D02*
X194609524Y-91525240D01*
X194609524Y-91525240D02*
X194647619Y-91487144D01*
X194647619Y-91487144D02*
X194685714Y-91410954D01*
X194685714Y-91410954D02*
X194685714Y-91258573D01*
X194685714Y-91258573D02*
X194647619Y-91182382D01*
X194647619Y-91182382D02*
X194609524Y-91144287D01*
X194609524Y-91144287D02*
X194533333Y-91106192D01*
X195447619Y-91563335D02*
X194990476Y-91563335D01*
X195219048Y-91563335D02*
X195219048Y-90763335D01*
X195219048Y-90763335D02*
X195142857Y-90877620D01*
X195142857Y-90877620D02*
X195066667Y-90953811D01*
X195066667Y-90953811D02*
X194990476Y-90991906D01*
X195752381Y-90839525D02*
X195790477Y-90801430D01*
X195790477Y-90801430D02*
X195866667Y-90763335D01*
X195866667Y-90763335D02*
X196057143Y-90763335D01*
X196057143Y-90763335D02*
X196133334Y-90801430D01*
X196133334Y-90801430D02*
X196171429Y-90839525D01*
X196171429Y-90839525D02*
X196209524Y-90915716D01*
X196209524Y-90915716D02*
X196209524Y-90991906D01*
X196209524Y-90991906D02*
X196171429Y-91106192D01*
X196171429Y-91106192D02*
X195714286Y-91563335D01*
X195714286Y-91563335D02*
X196209524Y-91563335D01*
X197047619Y-94563335D02*
X196666667Y-94563335D01*
X196666667Y-94563335D02*
X196628571Y-94944287D01*
X196628571Y-94944287D02*
X196666667Y-94906192D01*
X196666667Y-94906192D02*
X196742857Y-94868097D01*
X196742857Y-94868097D02*
X196933333Y-94868097D01*
X196933333Y-94868097D02*
X197009524Y-94906192D01*
X197009524Y-94906192D02*
X197047619Y-94944287D01*
X197047619Y-94944287D02*
X197085714Y-95020478D01*
X197085714Y-95020478D02*
X197085714Y-95210954D01*
X197085714Y-95210954D02*
X197047619Y-95287144D01*
X197047619Y-95287144D02*
X197009524Y-95325240D01*
X197009524Y-95325240D02*
X196933333Y-95363335D01*
X196933333Y-95363335D02*
X196742857Y-95363335D01*
X196742857Y-95363335D02*
X196666667Y-95325240D01*
X196666667Y-95325240D02*
X196628571Y-95287144D01*
X197314286Y-94563335D02*
X197580953Y-95363335D01*
X197580953Y-95363335D02*
X197847619Y-94563335D01*
X196342857Y-97903335D02*
X196342857Y-97103335D01*
X196342857Y-97103335D02*
X196533333Y-97103335D01*
X196533333Y-97103335D02*
X196647619Y-97141430D01*
X196647619Y-97141430D02*
X196723809Y-97217620D01*
X196723809Y-97217620D02*
X196761904Y-97293811D01*
X196761904Y-97293811D02*
X196800000Y-97446192D01*
X196800000Y-97446192D02*
X196800000Y-97560478D01*
X196800000Y-97560478D02*
X196761904Y-97712859D01*
X196761904Y-97712859D02*
X196723809Y-97789049D01*
X196723809Y-97789049D02*
X196647619Y-97865240D01*
X196647619Y-97865240D02*
X196533333Y-97903335D01*
X196533333Y-97903335D02*
X196342857Y-97903335D01*
X197104761Y-97674763D02*
X197485714Y-97674763D01*
X197028571Y-97903335D02*
X197295238Y-97103335D01*
X197295238Y-97103335D02*
X197561904Y-97903335D01*
X197714285Y-97103335D02*
X198171428Y-97103335D01*
X197942856Y-97903335D02*
X197942856Y-97103335D01*
X196590476Y-99681430D02*
X196514286Y-99643335D01*
X196514286Y-99643335D02*
X196400000Y-99643335D01*
X196400000Y-99643335D02*
X196285714Y-99681430D01*
X196285714Y-99681430D02*
X196209524Y-99757620D01*
X196209524Y-99757620D02*
X196171429Y-99833811D01*
X196171429Y-99833811D02*
X196133333Y-99986192D01*
X196133333Y-99986192D02*
X196133333Y-100100478D01*
X196133333Y-100100478D02*
X196171429Y-100252859D01*
X196171429Y-100252859D02*
X196209524Y-100329049D01*
X196209524Y-100329049D02*
X196285714Y-100405240D01*
X196285714Y-100405240D02*
X196400000Y-100443335D01*
X196400000Y-100443335D02*
X196476191Y-100443335D01*
X196476191Y-100443335D02*
X196590476Y-100405240D01*
X196590476Y-100405240D02*
X196628572Y-100367144D01*
X196628572Y-100367144D02*
X196628572Y-100100478D01*
X196628572Y-100100478D02*
X196476191Y-100100478D01*
X196971429Y-100443335D02*
X196971429Y-99643335D01*
X196971429Y-99643335D02*
X197428572Y-100443335D01*
X197428572Y-100443335D02*
X197428572Y-99643335D01*
X197809524Y-100443335D02*
X197809524Y-99643335D01*
X197809524Y-99643335D02*
X198000000Y-99643335D01*
X198000000Y-99643335D02*
X198114286Y-99681430D01*
X198114286Y-99681430D02*
X198190476Y-99757620D01*
X198190476Y-99757620D02*
X198228571Y-99833811D01*
X198228571Y-99833811D02*
X198266667Y-99986192D01*
X198266667Y-99986192D02*
X198266667Y-100100478D01*
X198266667Y-100100478D02*
X198228571Y-100252859D01*
X198228571Y-100252859D02*
X198190476Y-100329049D01*
X198190476Y-100329049D02*
X198114286Y-100405240D01*
X198114286Y-100405240D02*
X198000000Y-100443335D01*
X198000000Y-100443335D02*
X197809524Y-100443335D01*
X109934763Y-101119047D02*
X109934763Y-100738094D01*
X110163335Y-101195237D02*
X109363335Y-100928570D01*
X109363335Y-100928570D02*
X110163335Y-100661904D01*
X109363335Y-100395237D02*
X110010954Y-100395237D01*
X110010954Y-100395237D02*
X110087144Y-100357142D01*
X110087144Y-100357142D02*
X110125240Y-100319047D01*
X110125240Y-100319047D02*
X110163335Y-100242856D01*
X110163335Y-100242856D02*
X110163335Y-100090475D01*
X110163335Y-100090475D02*
X110125240Y-100014285D01*
X110125240Y-100014285D02*
X110087144Y-99976190D01*
X110087144Y-99976190D02*
X110010954Y-99938094D01*
X110010954Y-99938094D02*
X109363335Y-99938094D01*
X110163335Y-99557142D02*
X109363335Y-99557142D01*
X109363335Y-99557142D02*
X109363335Y-99366666D01*
X109363335Y-99366666D02*
X109401430Y-99252380D01*
X109401430Y-99252380D02*
X109477620Y-99176190D01*
X109477620Y-99176190D02*
X109553811Y-99138095D01*
X109553811Y-99138095D02*
X109706192Y-99099999D01*
X109706192Y-99099999D02*
X109820478Y-99099999D01*
X109820478Y-99099999D02*
X109972859Y-99138095D01*
X109972859Y-99138095D02*
X110049049Y-99176190D01*
X110049049Y-99176190D02*
X110125240Y-99252380D01*
X110125240Y-99252380D02*
X110163335Y-99366666D01*
X110163335Y-99366666D02*
X110163335Y-99557142D01*
X110163335Y-98757142D02*
X109363335Y-98757142D01*
X109363335Y-98223809D02*
X109363335Y-98071428D01*
X109363335Y-98071428D02*
X109401430Y-97995238D01*
X109401430Y-97995238D02*
X109477620Y-97919047D01*
X109477620Y-97919047D02*
X109630001Y-97880952D01*
X109630001Y-97880952D02*
X109896668Y-97880952D01*
X109896668Y-97880952D02*
X110049049Y-97919047D01*
X110049049Y-97919047D02*
X110125240Y-97995238D01*
X110125240Y-97995238D02*
X110163335Y-98071428D01*
X110163335Y-98071428D02*
X110163335Y-98223809D01*
X110163335Y-98223809D02*
X110125240Y-98300000D01*
X110125240Y-98300000D02*
X110049049Y-98376190D01*
X110049049Y-98376190D02*
X109896668Y-98414286D01*
X109896668Y-98414286D02*
X109630001Y-98414286D01*
X109630001Y-98414286D02*
X109477620Y-98376190D01*
X109477620Y-98376190D02*
X109401430Y-98300000D01*
X109401430Y-98300000D02*
X109363335Y-98223809D01*
X182763335Y-122514286D02*
X182763335Y-122971429D01*
X182763335Y-122742857D02*
X181963335Y-122742857D01*
X181963335Y-122742857D02*
X182077620Y-122819048D01*
X182077620Y-122819048D02*
X182153811Y-122895238D01*
X182153811Y-122895238D02*
X182191906Y-122971429D01*
X181963335Y-122019047D02*
X181963335Y-121942857D01*
X181963335Y-121942857D02*
X182001430Y-121866666D01*
X182001430Y-121866666D02*
X182039525Y-121828571D01*
X182039525Y-121828571D02*
X182115716Y-121790476D01*
X182115716Y-121790476D02*
X182268097Y-121752381D01*
X182268097Y-121752381D02*
X182458573Y-121752381D01*
X182458573Y-121752381D02*
X182610954Y-121790476D01*
X182610954Y-121790476D02*
X182687144Y-121828571D01*
X182687144Y-121828571D02*
X182725240Y-121866666D01*
X182725240Y-121866666D02*
X182763335Y-121942857D01*
X182763335Y-121942857D02*
X182763335Y-122019047D01*
X182763335Y-122019047D02*
X182725240Y-122095238D01*
X182725240Y-122095238D02*
X182687144Y-122133333D01*
X182687144Y-122133333D02*
X182610954Y-122171428D01*
X182610954Y-122171428D02*
X182458573Y-122209524D01*
X182458573Y-122209524D02*
X182268097Y-122209524D01*
X182268097Y-122209524D02*
X182115716Y-122171428D01*
X182115716Y-122171428D02*
X182039525Y-122133333D01*
X182039525Y-122133333D02*
X182001430Y-122095238D01*
X182001430Y-122095238D02*
X181963335Y-122019047D01*
X182230001Y-121066666D02*
X182763335Y-121066666D01*
X182230001Y-121409523D02*
X182649049Y-121409523D01*
X182649049Y-121409523D02*
X182725240Y-121371428D01*
X182725240Y-121371428D02*
X182763335Y-121295238D01*
X182763335Y-121295238D02*
X182763335Y-121180952D01*
X182763335Y-121180952D02*
X182725240Y-121104761D01*
X182725240Y-121104761D02*
X182687144Y-121066666D01*
X191163335Y-124266666D02*
X190630001Y-124266666D01*
X190706192Y-124266666D02*
X190668097Y-124228571D01*
X190668097Y-124228571D02*
X190630001Y-124152381D01*
X190630001Y-124152381D02*
X190630001Y-124038095D01*
X190630001Y-124038095D02*
X190668097Y-123961904D01*
X190668097Y-123961904D02*
X190744287Y-123923809D01*
X190744287Y-123923809D02*
X191163335Y-123923809D01*
X190744287Y-123923809D02*
X190668097Y-123885714D01*
X190668097Y-123885714D02*
X190630001Y-123809523D01*
X190630001Y-123809523D02*
X190630001Y-123695238D01*
X190630001Y-123695238D02*
X190668097Y-123619047D01*
X190668097Y-123619047D02*
X190744287Y-123580952D01*
X190744287Y-123580952D02*
X191163335Y-123580952D01*
X191163335Y-123199999D02*
X190630001Y-123199999D01*
X190363335Y-123199999D02*
X190401430Y-123238095D01*
X190401430Y-123238095D02*
X190439525Y-123199999D01*
X190439525Y-123199999D02*
X190401430Y-123161904D01*
X190401430Y-123161904D02*
X190363335Y-123199999D01*
X190363335Y-123199999D02*
X190439525Y-123199999D01*
X191125240Y-122476190D02*
X191163335Y-122552381D01*
X191163335Y-122552381D02*
X191163335Y-122704762D01*
X191163335Y-122704762D02*
X191125240Y-122780952D01*
X191125240Y-122780952D02*
X191087144Y-122819047D01*
X191087144Y-122819047D02*
X191010954Y-122857143D01*
X191010954Y-122857143D02*
X190782382Y-122857143D01*
X190782382Y-122857143D02*
X190706192Y-122819047D01*
X190706192Y-122819047D02*
X190668097Y-122780952D01*
X190668097Y-122780952D02*
X190630001Y-122704762D01*
X190630001Y-122704762D02*
X190630001Y-122552381D01*
X190630001Y-122552381D02*
X190668097Y-122476190D01*
X191163335Y-122133333D02*
X190630001Y-122133333D01*
X190782382Y-122133333D02*
X190706192Y-122095238D01*
X190706192Y-122095238D02*
X190668097Y-122057143D01*
X190668097Y-122057143D02*
X190630001Y-121980952D01*
X190630001Y-121980952D02*
X190630001Y-121904762D01*
X191163335Y-121523810D02*
X191125240Y-121600000D01*
X191125240Y-121600000D02*
X191087144Y-121638095D01*
X191087144Y-121638095D02*
X191010954Y-121676191D01*
X191010954Y-121676191D02*
X190782382Y-121676191D01*
X190782382Y-121676191D02*
X190706192Y-121638095D01*
X190706192Y-121638095D02*
X190668097Y-121600000D01*
X190668097Y-121600000D02*
X190630001Y-121523810D01*
X190630001Y-121523810D02*
X190630001Y-121409524D01*
X190630001Y-121409524D02*
X190668097Y-121333333D01*
X190668097Y-121333333D02*
X190706192Y-121295238D01*
X190706192Y-121295238D02*
X190782382Y-121257143D01*
X190782382Y-121257143D02*
X191010954Y-121257143D01*
X191010954Y-121257143D02*
X191087144Y-121295238D01*
X191087144Y-121295238D02*
X191125240Y-121333333D01*
X191125240Y-121333333D02*
X191163335Y-121409524D01*
X191163335Y-121409524D02*
X191163335Y-121523810D01*
X191125240Y-120952381D02*
X191163335Y-120838095D01*
X191163335Y-120838095D02*
X191163335Y-120647619D01*
X191163335Y-120647619D02*
X191125240Y-120571428D01*
X191125240Y-120571428D02*
X191087144Y-120533333D01*
X191087144Y-120533333D02*
X191010954Y-120495238D01*
X191010954Y-120495238D02*
X190934763Y-120495238D01*
X190934763Y-120495238D02*
X190858573Y-120533333D01*
X190858573Y-120533333D02*
X190820478Y-120571428D01*
X190820478Y-120571428D02*
X190782382Y-120647619D01*
X190782382Y-120647619D02*
X190744287Y-120800000D01*
X190744287Y-120800000D02*
X190706192Y-120876190D01*
X190706192Y-120876190D02*
X190668097Y-120914285D01*
X190668097Y-120914285D02*
X190591906Y-120952381D01*
X190591906Y-120952381D02*
X190515716Y-120952381D01*
X190515716Y-120952381D02*
X190439525Y-120914285D01*
X190439525Y-120914285D02*
X190401430Y-120876190D01*
X190401430Y-120876190D02*
X190363335Y-120800000D01*
X190363335Y-120800000D02*
X190363335Y-120609523D01*
X190363335Y-120609523D02*
X190401430Y-120495238D01*
X191163335Y-120152380D02*
X190363335Y-120152380D01*
X190363335Y-120152380D02*
X190363335Y-119961904D01*
X190363335Y-119961904D02*
X190401430Y-119847618D01*
X190401430Y-119847618D02*
X190477620Y-119771428D01*
X190477620Y-119771428D02*
X190553811Y-119733333D01*
X190553811Y-119733333D02*
X190706192Y-119695237D01*
X190706192Y-119695237D02*
X190820478Y-119695237D01*
X190820478Y-119695237D02*
X190972859Y-119733333D01*
X190972859Y-119733333D02*
X191049049Y-119771428D01*
X191049049Y-119771428D02*
X191125240Y-119847618D01*
X191125240Y-119847618D02*
X191163335Y-119961904D01*
X191163335Y-119961904D02*
X191163335Y-120152380D01*
D12*
X109714286Y-129073866D02*
X110476191Y-129073866D01*
X110095238Y-129454819D02*
X110095238Y-128692914D01*
X111428571Y-128454819D02*
X110952381Y-128454819D01*
X110952381Y-128454819D02*
X110904762Y-128931009D01*
X110904762Y-128931009D02*
X110952381Y-128883390D01*
X110952381Y-128883390D02*
X111047619Y-128835771D01*
X111047619Y-128835771D02*
X111285714Y-128835771D01*
X111285714Y-128835771D02*
X111380952Y-128883390D01*
X111380952Y-128883390D02*
X111428571Y-128931009D01*
X111428571Y-128931009D02*
X111476190Y-129026247D01*
X111476190Y-129026247D02*
X111476190Y-129264342D01*
X111476190Y-129264342D02*
X111428571Y-129359580D01*
X111428571Y-129359580D02*
X111380952Y-129407200D01*
X111380952Y-129407200D02*
X111285714Y-129454819D01*
X111285714Y-129454819D02*
X111047619Y-129454819D01*
X111047619Y-129454819D02*
X110952381Y-129407200D01*
X110952381Y-129407200D02*
X110904762Y-129359580D01*
X111761905Y-128454819D02*
X112095238Y-129454819D01*
X112095238Y-129454819D02*
X112428571Y-128454819D01*
X114159048Y-129073866D02*
X114920953Y-129073866D01*
X111699999Y-137747342D02*
X111128571Y-137747342D01*
X111128571Y-137747342D02*
X111071428Y-138318771D01*
X111071428Y-138318771D02*
X111128571Y-138261628D01*
X111128571Y-138261628D02*
X111242857Y-138204485D01*
X111242857Y-138204485D02*
X111528571Y-138204485D01*
X111528571Y-138204485D02*
X111642857Y-138261628D01*
X111642857Y-138261628D02*
X111699999Y-138318771D01*
X111699999Y-138318771D02*
X111757142Y-138433057D01*
X111757142Y-138433057D02*
X111757142Y-138718771D01*
X111757142Y-138718771D02*
X111699999Y-138833057D01*
X111699999Y-138833057D02*
X111642857Y-138890200D01*
X111642857Y-138890200D02*
X111528571Y-138947342D01*
X111528571Y-138947342D02*
X111242857Y-138947342D01*
X111242857Y-138947342D02*
X111128571Y-138890200D01*
X111128571Y-138890200D02*
X111071428Y-138833057D01*
X112099999Y-137747342D02*
X112499999Y-138947342D01*
X112499999Y-138947342D02*
X112899999Y-137747342D01*
X114214285Y-138947342D02*
X114214285Y-137747342D01*
X114785714Y-138947342D02*
X114785714Y-137747342D01*
X114785714Y-137747342D02*
X115471428Y-138947342D01*
X115471428Y-138947342D02*
X115471428Y-137747342D01*
D13*
X143571429Y-95916171D02*
X143971429Y-95916171D01*
X144142857Y-96544742D02*
X143571429Y-96544742D01*
X143571429Y-96544742D02*
X143571429Y-95344742D01*
X143571429Y-95344742D02*
X144142857Y-95344742D01*
X144600000Y-96487600D02*
X144771429Y-96544742D01*
X144771429Y-96544742D02*
X145057143Y-96544742D01*
X145057143Y-96544742D02*
X145171429Y-96487600D01*
X145171429Y-96487600D02*
X145228571Y-96430457D01*
X145228571Y-96430457D02*
X145285714Y-96316171D01*
X145285714Y-96316171D02*
X145285714Y-96201885D01*
X145285714Y-96201885D02*
X145228571Y-96087600D01*
X145228571Y-96087600D02*
X145171429Y-96030457D01*
X145171429Y-96030457D02*
X145057143Y-95973314D01*
X145057143Y-95973314D02*
X144828571Y-95916171D01*
X144828571Y-95916171D02*
X144714286Y-95859028D01*
X144714286Y-95859028D02*
X144657143Y-95801885D01*
X144657143Y-95801885D02*
X144600000Y-95687600D01*
X144600000Y-95687600D02*
X144600000Y-95573314D01*
X144600000Y-95573314D02*
X144657143Y-95459028D01*
X144657143Y-95459028D02*
X144714286Y-95401885D01*
X144714286Y-95401885D02*
X144828571Y-95344742D01*
X144828571Y-95344742D02*
X145114286Y-95344742D01*
X145114286Y-95344742D02*
X145285714Y-95401885D01*
X145800000Y-96544742D02*
X145800000Y-95344742D01*
X145800000Y-95344742D02*
X146257143Y-95344742D01*
X146257143Y-95344742D02*
X146371428Y-95401885D01*
X146371428Y-95401885D02*
X146428571Y-95459028D01*
X146428571Y-95459028D02*
X146485714Y-95573314D01*
X146485714Y-95573314D02*
X146485714Y-95744742D01*
X146485714Y-95744742D02*
X146428571Y-95859028D01*
X146428571Y-95859028D02*
X146371428Y-95916171D01*
X146371428Y-95916171D02*
X146257143Y-95973314D01*
X146257143Y-95973314D02*
X145800000Y-95973314D01*
X146885714Y-95344742D02*
X147628571Y-95344742D01*
X147628571Y-95344742D02*
X147228571Y-95801885D01*
X147228571Y-95801885D02*
X147400000Y-95801885D01*
X147400000Y-95801885D02*
X147514286Y-95859028D01*
X147514286Y-95859028D02*
X147571428Y-95916171D01*
X147571428Y-95916171D02*
X147628571Y-96030457D01*
X147628571Y-96030457D02*
X147628571Y-96316171D01*
X147628571Y-96316171D02*
X147571428Y-96430457D01*
X147571428Y-96430457D02*
X147514286Y-96487600D01*
X147514286Y-96487600D02*
X147400000Y-96544742D01*
X147400000Y-96544742D02*
X147057143Y-96544742D01*
X147057143Y-96544742D02*
X146942857Y-96487600D01*
X146942857Y-96487600D02*
X146885714Y-96430457D01*
X148085714Y-95459028D02*
X148142857Y-95401885D01*
X148142857Y-95401885D02*
X148257143Y-95344742D01*
X148257143Y-95344742D02*
X148542857Y-95344742D01*
X148542857Y-95344742D02*
X148657143Y-95401885D01*
X148657143Y-95401885D02*
X148714285Y-95459028D01*
X148714285Y-95459028D02*
X148771428Y-95573314D01*
X148771428Y-95573314D02*
X148771428Y-95687600D01*
X148771428Y-95687600D02*
X148714285Y-95859028D01*
X148714285Y-95859028D02*
X148028571Y-96544742D01*
X148028571Y-96544742D02*
X148771428Y-96544742D01*
X149285714Y-96087600D02*
X150200000Y-96087600D01*
X150771428Y-96544742D02*
X150771428Y-95344742D01*
X150771428Y-95344742D02*
X151171428Y-96201885D01*
X151171428Y-96201885D02*
X151571428Y-95344742D01*
X151571428Y-95344742D02*
X151571428Y-96544742D01*
X152085714Y-96201885D02*
X152657143Y-96201885D01*
X151971428Y-96544742D02*
X152371428Y-95344742D01*
X152371428Y-95344742D02*
X152771428Y-96544742D01*
X152999999Y-95344742D02*
X153685714Y-95344742D01*
X153342856Y-96544742D02*
X153342856Y-95344742D01*
X154771428Y-96544742D02*
X154371428Y-95973314D01*
X154085714Y-96544742D02*
X154085714Y-95344742D01*
X154085714Y-95344742D02*
X154542857Y-95344742D01*
X154542857Y-95344742D02*
X154657142Y-95401885D01*
X154657142Y-95401885D02*
X154714285Y-95459028D01*
X154714285Y-95459028D02*
X154771428Y-95573314D01*
X154771428Y-95573314D02*
X154771428Y-95744742D01*
X154771428Y-95744742D02*
X154714285Y-95859028D01*
X154714285Y-95859028D02*
X154657142Y-95916171D01*
X154657142Y-95916171D02*
X154542857Y-95973314D01*
X154542857Y-95973314D02*
X154085714Y-95973314D01*
X155285714Y-96544742D02*
X155285714Y-95344742D01*
X155742857Y-95344742D02*
X156542857Y-96544742D01*
X156542857Y-95344742D02*
X155742857Y-96544742D01*
X143685714Y-100544742D02*
X143114286Y-100544742D01*
X143114286Y-100544742D02*
X143114286Y-99344742D01*
X144600001Y-100544742D02*
X144600001Y-99916171D01*
X144600001Y-99916171D02*
X144542858Y-99801885D01*
X144542858Y-99801885D02*
X144428572Y-99744742D01*
X144428572Y-99744742D02*
X144200001Y-99744742D01*
X144200001Y-99744742D02*
X144085715Y-99801885D01*
X144600001Y-100487600D02*
X144485715Y-100544742D01*
X144485715Y-100544742D02*
X144200001Y-100544742D01*
X144200001Y-100544742D02*
X144085715Y-100487600D01*
X144085715Y-100487600D02*
X144028572Y-100373314D01*
X144028572Y-100373314D02*
X144028572Y-100259028D01*
X144028572Y-100259028D02*
X144085715Y-100144742D01*
X144085715Y-100144742D02*
X144200001Y-100087600D01*
X144200001Y-100087600D02*
X144485715Y-100087600D01*
X144485715Y-100087600D02*
X144600001Y-100030457D01*
X145114286Y-100487600D02*
X145228572Y-100544742D01*
X145228572Y-100544742D02*
X145457143Y-100544742D01*
X145457143Y-100544742D02*
X145571429Y-100487600D01*
X145571429Y-100487600D02*
X145628572Y-100373314D01*
X145628572Y-100373314D02*
X145628572Y-100316171D01*
X145628572Y-100316171D02*
X145571429Y-100201885D01*
X145571429Y-100201885D02*
X145457143Y-100144742D01*
X145457143Y-100144742D02*
X145285715Y-100144742D01*
X145285715Y-100144742D02*
X145171429Y-100087600D01*
X145171429Y-100087600D02*
X145114286Y-99973314D01*
X145114286Y-99973314D02*
X145114286Y-99916171D01*
X145114286Y-99916171D02*
X145171429Y-99801885D01*
X145171429Y-99801885D02*
X145285715Y-99744742D01*
X145285715Y-99744742D02*
X145457143Y-99744742D01*
X145457143Y-99744742D02*
X145571429Y-99801885D01*
X146600001Y-100487600D02*
X146485715Y-100544742D01*
X146485715Y-100544742D02*
X146257144Y-100544742D01*
X146257144Y-100544742D02*
X146142858Y-100487600D01*
X146142858Y-100487600D02*
X146085715Y-100373314D01*
X146085715Y-100373314D02*
X146085715Y-99916171D01*
X146085715Y-99916171D02*
X146142858Y-99801885D01*
X146142858Y-99801885D02*
X146257144Y-99744742D01*
X146257144Y-99744742D02*
X146485715Y-99744742D01*
X146485715Y-99744742D02*
X146600001Y-99801885D01*
X146600001Y-99801885D02*
X146657144Y-99916171D01*
X146657144Y-99916171D02*
X146657144Y-100030457D01*
X146657144Y-100030457D02*
X146085715Y-100144742D01*
X147171429Y-100544742D02*
X147171429Y-99744742D01*
X147171429Y-99973314D02*
X147228572Y-99859028D01*
X147228572Y-99859028D02*
X147285715Y-99801885D01*
X147285715Y-99801885D02*
X147400000Y-99744742D01*
X147400000Y-99744742D02*
X147514286Y-99744742D01*
X147742857Y-99344742D02*
X148428572Y-99344742D01*
X148085714Y-100544742D02*
X148085714Y-99344742D01*
X149342858Y-100544742D02*
X149342858Y-99916171D01*
X149342858Y-99916171D02*
X149285715Y-99801885D01*
X149285715Y-99801885D02*
X149171429Y-99744742D01*
X149171429Y-99744742D02*
X148942858Y-99744742D01*
X148942858Y-99744742D02*
X148828572Y-99801885D01*
X149342858Y-100487600D02*
X149228572Y-100544742D01*
X149228572Y-100544742D02*
X148942858Y-100544742D01*
X148942858Y-100544742D02*
X148828572Y-100487600D01*
X148828572Y-100487600D02*
X148771429Y-100373314D01*
X148771429Y-100373314D02*
X148771429Y-100259028D01*
X148771429Y-100259028D02*
X148828572Y-100144742D01*
X148828572Y-100144742D02*
X148942858Y-100087600D01*
X148942858Y-100087600D02*
X149228572Y-100087600D01*
X149228572Y-100087600D02*
X149342858Y-100030457D01*
X150428572Y-99744742D02*
X150428572Y-100716171D01*
X150428572Y-100716171D02*
X150371429Y-100830457D01*
X150371429Y-100830457D02*
X150314286Y-100887600D01*
X150314286Y-100887600D02*
X150200000Y-100944742D01*
X150200000Y-100944742D02*
X150028572Y-100944742D01*
X150028572Y-100944742D02*
X149914286Y-100887600D01*
X150428572Y-100487600D02*
X150314286Y-100544742D01*
X150314286Y-100544742D02*
X150085714Y-100544742D01*
X150085714Y-100544742D02*
X149971429Y-100487600D01*
X149971429Y-100487600D02*
X149914286Y-100430457D01*
X149914286Y-100430457D02*
X149857143Y-100316171D01*
X149857143Y-100316171D02*
X149857143Y-99973314D01*
X149857143Y-99973314D02*
X149914286Y-99859028D01*
X149914286Y-99859028D02*
X149971429Y-99801885D01*
X149971429Y-99801885D02*
X150085714Y-99744742D01*
X150085714Y-99744742D02*
X150314286Y-99744742D01*
X150314286Y-99744742D02*
X150428572Y-99801885D01*
X151742857Y-99344742D02*
X152428572Y-99344742D01*
X152085714Y-100544742D02*
X152085714Y-99344742D01*
X153342858Y-100544742D02*
X153342858Y-99916171D01*
X153342858Y-99916171D02*
X153285715Y-99801885D01*
X153285715Y-99801885D02*
X153171429Y-99744742D01*
X153171429Y-99744742D02*
X152942858Y-99744742D01*
X152942858Y-99744742D02*
X152828572Y-99801885D01*
X153342858Y-100487600D02*
X153228572Y-100544742D01*
X153228572Y-100544742D02*
X152942858Y-100544742D01*
X152942858Y-100544742D02*
X152828572Y-100487600D01*
X152828572Y-100487600D02*
X152771429Y-100373314D01*
X152771429Y-100373314D02*
X152771429Y-100259028D01*
X152771429Y-100259028D02*
X152828572Y-100144742D01*
X152828572Y-100144742D02*
X152942858Y-100087600D01*
X152942858Y-100087600D02*
X153228572Y-100087600D01*
X153228572Y-100087600D02*
X153342858Y-100030457D01*
X153914286Y-100544742D02*
X153914286Y-99744742D01*
X153914286Y-99973314D02*
X153971429Y-99859028D01*
X153971429Y-99859028D02*
X154028572Y-99801885D01*
X154028572Y-99801885D02*
X154142857Y-99744742D01*
X154142857Y-99744742D02*
X154257143Y-99744742D01*
X155171429Y-99744742D02*
X155171429Y-100716171D01*
X155171429Y-100716171D02*
X155114286Y-100830457D01*
X155114286Y-100830457D02*
X155057143Y-100887600D01*
X155057143Y-100887600D02*
X154942857Y-100944742D01*
X154942857Y-100944742D02*
X154771429Y-100944742D01*
X154771429Y-100944742D02*
X154657143Y-100887600D01*
X155171429Y-100487600D02*
X155057143Y-100544742D01*
X155057143Y-100544742D02*
X154828571Y-100544742D01*
X154828571Y-100544742D02*
X154714286Y-100487600D01*
X154714286Y-100487600D02*
X154657143Y-100430457D01*
X154657143Y-100430457D02*
X154600000Y-100316171D01*
X154600000Y-100316171D02*
X154600000Y-99973314D01*
X154600000Y-99973314D02*
X154657143Y-99859028D01*
X154657143Y-99859028D02*
X154714286Y-99801885D01*
X154714286Y-99801885D02*
X154828571Y-99744742D01*
X154828571Y-99744742D02*
X155057143Y-99744742D01*
X155057143Y-99744742D02*
X155171429Y-99801885D01*
X156200000Y-100487600D02*
X156085714Y-100544742D01*
X156085714Y-100544742D02*
X155857143Y-100544742D01*
X155857143Y-100544742D02*
X155742857Y-100487600D01*
X155742857Y-100487600D02*
X155685714Y-100373314D01*
X155685714Y-100373314D02*
X155685714Y-99916171D01*
X155685714Y-99916171D02*
X155742857Y-99801885D01*
X155742857Y-99801885D02*
X155857143Y-99744742D01*
X155857143Y-99744742D02*
X156085714Y-99744742D01*
X156085714Y-99744742D02*
X156200000Y-99801885D01*
X156200000Y-99801885D02*
X156257143Y-99916171D01*
X156257143Y-99916171D02*
X156257143Y-100030457D01*
X156257143Y-100030457D02*
X155685714Y-100144742D01*
X156599999Y-99744742D02*
X157057142Y-99744742D01*
X156771428Y-99344742D02*
X156771428Y-100373314D01*
X156771428Y-100373314D02*
X156828571Y-100487600D01*
X156828571Y-100487600D02*
X156942856Y-100544742D01*
X156942856Y-100544742D02*
X157057142Y-100544742D01*
D12*
X143857142Y-103954819D02*
X143857142Y-102954819D01*
X143857142Y-103335771D02*
X143952380Y-103288152D01*
X143952380Y-103288152D02*
X144142856Y-103288152D01*
X144142856Y-103288152D02*
X144238094Y-103335771D01*
X144238094Y-103335771D02*
X144285713Y-103383390D01*
X144285713Y-103383390D02*
X144333332Y-103478628D01*
X144333332Y-103478628D02*
X144333332Y-103764342D01*
X144333332Y-103764342D02*
X144285713Y-103859580D01*
X144285713Y-103859580D02*
X144238094Y-103907200D01*
X144238094Y-103907200D02*
X144142856Y-103954819D01*
X144142856Y-103954819D02*
X143952380Y-103954819D01*
X143952380Y-103954819D02*
X143857142Y-103907200D01*
X144666666Y-103288152D02*
X144904761Y-103954819D01*
X145142856Y-103288152D02*
X144904761Y-103954819D01*
X144904761Y-103954819D02*
X144809523Y-104192914D01*
X144809523Y-104192914D02*
X144761904Y-104240533D01*
X144761904Y-104240533D02*
X144666666Y-104288152D01*
X146571428Y-102954819D02*
X146571428Y-103669104D01*
X146571428Y-103669104D02*
X146523809Y-103811961D01*
X146523809Y-103811961D02*
X146428571Y-103907200D01*
X146428571Y-103907200D02*
X146285714Y-103954819D01*
X146285714Y-103954819D02*
X146190476Y-103954819D01*
X147476190Y-103954819D02*
X147476190Y-103431009D01*
X147476190Y-103431009D02*
X147428571Y-103335771D01*
X147428571Y-103335771D02*
X147333333Y-103288152D01*
X147333333Y-103288152D02*
X147142857Y-103288152D01*
X147142857Y-103288152D02*
X147047619Y-103335771D01*
X147476190Y-103907200D02*
X147380952Y-103954819D01*
X147380952Y-103954819D02*
X147142857Y-103954819D01*
X147142857Y-103954819D02*
X147047619Y-103907200D01*
X147047619Y-103907200D02*
X147000000Y-103811961D01*
X147000000Y-103811961D02*
X147000000Y-103716723D01*
X147000000Y-103716723D02*
X147047619Y-103621485D01*
X147047619Y-103621485D02*
X147142857Y-103573866D01*
X147142857Y-103573866D02*
X147380952Y-103573866D01*
X147380952Y-103573866D02*
X147476190Y-103526247D01*
X147952381Y-103954819D02*
X147952381Y-103288152D01*
X147952381Y-103383390D02*
X148000000Y-103335771D01*
X148000000Y-103335771D02*
X148095238Y-103288152D01*
X148095238Y-103288152D02*
X148238095Y-103288152D01*
X148238095Y-103288152D02*
X148333333Y-103335771D01*
X148333333Y-103335771D02*
X148380952Y-103431009D01*
X148380952Y-103431009D02*
X148380952Y-103954819D01*
X148380952Y-103431009D02*
X148428571Y-103335771D01*
X148428571Y-103335771D02*
X148523809Y-103288152D01*
X148523809Y-103288152D02*
X148666666Y-103288152D01*
X148666666Y-103288152D02*
X148761905Y-103335771D01*
X148761905Y-103335771D02*
X148809524Y-103431009D01*
X148809524Y-103431009D02*
X148809524Y-103954819D01*
X149666666Y-103907200D02*
X149571428Y-103954819D01*
X149571428Y-103954819D02*
X149380952Y-103954819D01*
X149380952Y-103954819D02*
X149285714Y-103907200D01*
X149285714Y-103907200D02*
X149238095Y-103811961D01*
X149238095Y-103811961D02*
X149238095Y-103431009D01*
X149238095Y-103431009D02*
X149285714Y-103335771D01*
X149285714Y-103335771D02*
X149380952Y-103288152D01*
X149380952Y-103288152D02*
X149571428Y-103288152D01*
X149571428Y-103288152D02*
X149666666Y-103335771D01*
X149666666Y-103335771D02*
X149714285Y-103431009D01*
X149714285Y-103431009D02*
X149714285Y-103526247D01*
X149714285Y-103526247D02*
X149238095Y-103621485D01*
X150095238Y-103907200D02*
X150190476Y-103954819D01*
X150190476Y-103954819D02*
X150380952Y-103954819D01*
X150380952Y-103954819D02*
X150476190Y-103907200D01*
X150476190Y-103907200D02*
X150523809Y-103811961D01*
X150523809Y-103811961D02*
X150523809Y-103764342D01*
X150523809Y-103764342D02*
X150476190Y-103669104D01*
X150476190Y-103669104D02*
X150380952Y-103621485D01*
X150380952Y-103621485D02*
X150238095Y-103621485D01*
X150238095Y-103621485D02*
X150142857Y-103573866D01*
X150142857Y-103573866D02*
X150095238Y-103478628D01*
X150095238Y-103478628D02*
X150095238Y-103431009D01*
X150095238Y-103431009D02*
X150142857Y-103335771D01*
X150142857Y-103335771D02*
X150238095Y-103288152D01*
X150238095Y-103288152D02*
X150380952Y-103288152D01*
X150380952Y-103288152D02*
X150476190Y-103335771D01*
X152047619Y-103431009D02*
X152190476Y-103478628D01*
X152190476Y-103478628D02*
X152238095Y-103526247D01*
X152238095Y-103526247D02*
X152285714Y-103621485D01*
X152285714Y-103621485D02*
X152285714Y-103764342D01*
X152285714Y-103764342D02*
X152238095Y-103859580D01*
X152238095Y-103859580D02*
X152190476Y-103907200D01*
X152190476Y-103907200D02*
X152095238Y-103954819D01*
X152095238Y-103954819D02*
X151714286Y-103954819D01*
X151714286Y-103954819D02*
X151714286Y-102954819D01*
X151714286Y-102954819D02*
X152047619Y-102954819D01*
X152047619Y-102954819D02*
X152142857Y-103002438D01*
X152142857Y-103002438D02*
X152190476Y-103050057D01*
X152190476Y-103050057D02*
X152238095Y-103145295D01*
X152238095Y-103145295D02*
X152238095Y-103240533D01*
X152238095Y-103240533D02*
X152190476Y-103335771D01*
X152190476Y-103335771D02*
X152142857Y-103383390D01*
X152142857Y-103383390D02*
X152047619Y-103431009D01*
X152047619Y-103431009D02*
X151714286Y-103431009D01*
X153142857Y-103288152D02*
X153142857Y-103954819D01*
X152714286Y-103288152D02*
X152714286Y-103811961D01*
X152714286Y-103811961D02*
X152761905Y-103907200D01*
X152761905Y-103907200D02*
X152857143Y-103954819D01*
X152857143Y-103954819D02*
X153000000Y-103954819D01*
X153000000Y-103954819D02*
X153095238Y-103907200D01*
X153095238Y-103907200D02*
X153142857Y-103859580D01*
X153619048Y-103954819D02*
X153619048Y-103288152D01*
X153619048Y-103478628D02*
X153666667Y-103383390D01*
X153666667Y-103383390D02*
X153714286Y-103335771D01*
X153714286Y-103335771D02*
X153809524Y-103288152D01*
X153809524Y-103288152D02*
X153904762Y-103288152D01*
X154095239Y-103288152D02*
X154476191Y-103288152D01*
X154238096Y-102954819D02*
X154238096Y-103811961D01*
X154238096Y-103811961D02*
X154285715Y-103907200D01*
X154285715Y-103907200D02*
X154380953Y-103954819D01*
X154380953Y-103954819D02*
X154476191Y-103954819D01*
X154952382Y-103954819D02*
X154857144Y-103907200D01*
X154857144Y-103907200D02*
X154809525Y-103859580D01*
X154809525Y-103859580D02*
X154761906Y-103764342D01*
X154761906Y-103764342D02*
X154761906Y-103478628D01*
X154761906Y-103478628D02*
X154809525Y-103383390D01*
X154809525Y-103383390D02*
X154857144Y-103335771D01*
X154857144Y-103335771D02*
X154952382Y-103288152D01*
X154952382Y-103288152D02*
X155095239Y-103288152D01*
X155095239Y-103288152D02*
X155190477Y-103335771D01*
X155190477Y-103335771D02*
X155238096Y-103383390D01*
X155238096Y-103383390D02*
X155285715Y-103478628D01*
X155285715Y-103478628D02*
X155285715Y-103764342D01*
X155285715Y-103764342D02*
X155238096Y-103859580D01*
X155238096Y-103859580D02*
X155190477Y-103907200D01*
X155190477Y-103907200D02*
X155095239Y-103954819D01*
X155095239Y-103954819D02*
X154952382Y-103954819D01*
X155714287Y-103288152D02*
X155714287Y-103954819D01*
X155714287Y-103383390D02*
X155761906Y-103335771D01*
X155761906Y-103335771D02*
X155857144Y-103288152D01*
X155857144Y-103288152D02*
X156000001Y-103288152D01*
X156000001Y-103288152D02*
X156095239Y-103335771D01*
X156095239Y-103335771D02*
X156142858Y-103431009D01*
X156142858Y-103431009D02*
X156142858Y-103954819D01*
D11*
X129042857Y-123363335D02*
X129042857Y-122563335D01*
X129042857Y-122563335D02*
X129347619Y-122563335D01*
X129347619Y-122563335D02*
X129423809Y-122601430D01*
X129423809Y-122601430D02*
X129461904Y-122639525D01*
X129461904Y-122639525D02*
X129500000Y-122715716D01*
X129500000Y-122715716D02*
X129500000Y-122830001D01*
X129500000Y-122830001D02*
X129461904Y-122906192D01*
X129461904Y-122906192D02*
X129423809Y-122944287D01*
X129423809Y-122944287D02*
X129347619Y-122982382D01*
X129347619Y-122982382D02*
X129042857Y-122982382D01*
X129766666Y-122563335D02*
X129957142Y-123363335D01*
X129957142Y-123363335D02*
X130109523Y-122791906D01*
X130109523Y-122791906D02*
X130261904Y-123363335D01*
X130261904Y-123363335D02*
X130452381Y-122563335D01*
X131214286Y-123363335D02*
X130947619Y-122982382D01*
X130757143Y-123363335D02*
X130757143Y-122563335D01*
X130757143Y-122563335D02*
X131061905Y-122563335D01*
X131061905Y-122563335D02*
X131138095Y-122601430D01*
X131138095Y-122601430D02*
X131176190Y-122639525D01*
X131176190Y-122639525D02*
X131214286Y-122715716D01*
X131214286Y-122715716D02*
X131214286Y-122830001D01*
X131214286Y-122830001D02*
X131176190Y-122906192D01*
X131176190Y-122906192D02*
X131138095Y-122944287D01*
X131138095Y-122944287D02*
X131061905Y-122982382D01*
X131061905Y-122982382D02*
X130757143Y-122982382D01*
X132547619Y-123363335D02*
X132166667Y-123363335D01*
X132166667Y-123363335D02*
X132166667Y-122563335D01*
X132814286Y-122944287D02*
X133080952Y-122944287D01*
X133195238Y-123363335D02*
X132814286Y-123363335D01*
X132814286Y-123363335D02*
X132814286Y-122563335D01*
X132814286Y-122563335D02*
X133195238Y-122563335D01*
X133538096Y-123363335D02*
X133538096Y-122563335D01*
X133538096Y-122563335D02*
X133728572Y-122563335D01*
X133728572Y-122563335D02*
X133842858Y-122601430D01*
X133842858Y-122601430D02*
X133919048Y-122677620D01*
X133919048Y-122677620D02*
X133957143Y-122753811D01*
X133957143Y-122753811D02*
X133995239Y-122906192D01*
X133995239Y-122906192D02*
X133995239Y-123020478D01*
X133995239Y-123020478D02*
X133957143Y-123172859D01*
X133957143Y-123172859D02*
X133919048Y-123249049D01*
X133919048Y-123249049D02*
X133842858Y-123325240D01*
X133842858Y-123325240D02*
X133728572Y-123363335D01*
X133728572Y-123363335D02*
X133538096Y-123363335D01*
X187409524Y-69263335D02*
X187409524Y-68463335D01*
X187409524Y-68463335D02*
X187600000Y-68463335D01*
X187600000Y-68463335D02*
X187714286Y-68501430D01*
X187714286Y-68501430D02*
X187790476Y-68577620D01*
X187790476Y-68577620D02*
X187828571Y-68653811D01*
X187828571Y-68653811D02*
X187866667Y-68806192D01*
X187866667Y-68806192D02*
X187866667Y-68920478D01*
X187866667Y-68920478D02*
X187828571Y-69072859D01*
X187828571Y-69072859D02*
X187790476Y-69149049D01*
X187790476Y-69149049D02*
X187714286Y-69225240D01*
X187714286Y-69225240D02*
X187600000Y-69263335D01*
X187600000Y-69263335D02*
X187409524Y-69263335D01*
X188628571Y-69263335D02*
X188171428Y-69263335D01*
X188400000Y-69263335D02*
X188400000Y-68463335D01*
X188400000Y-68463335D02*
X188323809Y-68577620D01*
X188323809Y-68577620D02*
X188247619Y-68653811D01*
X188247619Y-68653811D02*
X188171428Y-68691906D01*
D12*
X141083333Y-70609580D02*
X141035714Y-70657200D01*
X141035714Y-70657200D02*
X140892857Y-70704819D01*
X140892857Y-70704819D02*
X140797619Y-70704819D01*
X140797619Y-70704819D02*
X140654762Y-70657200D01*
X140654762Y-70657200D02*
X140559524Y-70561961D01*
X140559524Y-70561961D02*
X140511905Y-70466723D01*
X140511905Y-70466723D02*
X140464286Y-70276247D01*
X140464286Y-70276247D02*
X140464286Y-70133390D01*
X140464286Y-70133390D02*
X140511905Y-69942914D01*
X140511905Y-69942914D02*
X140559524Y-69847676D01*
X140559524Y-69847676D02*
X140654762Y-69752438D01*
X140654762Y-69752438D02*
X140797619Y-69704819D01*
X140797619Y-69704819D02*
X140892857Y-69704819D01*
X140892857Y-69704819D02*
X141035714Y-69752438D01*
X141035714Y-69752438D02*
X141083333Y-69800057D01*
X141464286Y-69800057D02*
X141511905Y-69752438D01*
X141511905Y-69752438D02*
X141607143Y-69704819D01*
X141607143Y-69704819D02*
X141845238Y-69704819D01*
X141845238Y-69704819D02*
X141940476Y-69752438D01*
X141940476Y-69752438D02*
X141988095Y-69800057D01*
X141988095Y-69800057D02*
X142035714Y-69895295D01*
X142035714Y-69895295D02*
X142035714Y-69990533D01*
X142035714Y-69990533D02*
X141988095Y-70133390D01*
X141988095Y-70133390D02*
X141416667Y-70704819D01*
X141416667Y-70704819D02*
X142035714Y-70704819D01*
X183333333Y-97109580D02*
X183285714Y-97157200D01*
X183285714Y-97157200D02*
X183142857Y-97204819D01*
X183142857Y-97204819D02*
X183047619Y-97204819D01*
X183047619Y-97204819D02*
X182904762Y-97157200D01*
X182904762Y-97157200D02*
X182809524Y-97061961D01*
X182809524Y-97061961D02*
X182761905Y-96966723D01*
X182761905Y-96966723D02*
X182714286Y-96776247D01*
X182714286Y-96776247D02*
X182714286Y-96633390D01*
X182714286Y-96633390D02*
X182761905Y-96442914D01*
X182761905Y-96442914D02*
X182809524Y-96347676D01*
X182809524Y-96347676D02*
X182904762Y-96252438D01*
X182904762Y-96252438D02*
X183047619Y-96204819D01*
X183047619Y-96204819D02*
X183142857Y-96204819D01*
X183142857Y-96204819D02*
X183285714Y-96252438D01*
X183285714Y-96252438D02*
X183333333Y-96300057D01*
X184190476Y-96204819D02*
X184000000Y-96204819D01*
X184000000Y-96204819D02*
X183904762Y-96252438D01*
X183904762Y-96252438D02*
X183857143Y-96300057D01*
X183857143Y-96300057D02*
X183761905Y-96442914D01*
X183761905Y-96442914D02*
X183714286Y-96633390D01*
X183714286Y-96633390D02*
X183714286Y-97014342D01*
X183714286Y-97014342D02*
X183761905Y-97109580D01*
X183761905Y-97109580D02*
X183809524Y-97157200D01*
X183809524Y-97157200D02*
X183904762Y-97204819D01*
X183904762Y-97204819D02*
X184095238Y-97204819D01*
X184095238Y-97204819D02*
X184190476Y-97157200D01*
X184190476Y-97157200D02*
X184238095Y-97109580D01*
X184238095Y-97109580D02*
X184285714Y-97014342D01*
X184285714Y-97014342D02*
X184285714Y-96776247D01*
X184285714Y-96776247D02*
X184238095Y-96681009D01*
X184238095Y-96681009D02*
X184190476Y-96633390D01*
X184190476Y-96633390D02*
X184095238Y-96585771D01*
X184095238Y-96585771D02*
X183904762Y-96585771D01*
X183904762Y-96585771D02*
X183809524Y-96633390D01*
X183809524Y-96633390D02*
X183761905Y-96681009D01*
X183761905Y-96681009D02*
X183714286Y-96776247D01*
X125466667Y-134907200D02*
X125609524Y-134954819D01*
X125609524Y-134954819D02*
X125847619Y-134954819D01*
X125847619Y-134954819D02*
X125942857Y-134907200D01*
X125942857Y-134907200D02*
X125990476Y-134859580D01*
X125990476Y-134859580D02*
X126038095Y-134764342D01*
X126038095Y-134764342D02*
X126038095Y-134669104D01*
X126038095Y-134669104D02*
X125990476Y-134573866D01*
X125990476Y-134573866D02*
X125942857Y-134526247D01*
X125942857Y-134526247D02*
X125847619Y-134478628D01*
X125847619Y-134478628D02*
X125657143Y-134431009D01*
X125657143Y-134431009D02*
X125561905Y-134383390D01*
X125561905Y-134383390D02*
X125514286Y-134335771D01*
X125514286Y-134335771D02*
X125466667Y-134240533D01*
X125466667Y-134240533D02*
X125466667Y-134145295D01*
X125466667Y-134145295D02*
X125514286Y-134050057D01*
X125514286Y-134050057D02*
X125561905Y-134002438D01*
X125561905Y-134002438D02*
X125657143Y-133954819D01*
X125657143Y-133954819D02*
X125895238Y-133954819D01*
X125895238Y-133954819D02*
X126038095Y-134002438D01*
X126371429Y-133954819D02*
X126609524Y-134954819D01*
X126609524Y-134954819D02*
X126800000Y-134240533D01*
X126800000Y-134240533D02*
X126990476Y-134954819D01*
X126990476Y-134954819D02*
X127228572Y-133954819D01*
X127561905Y-134050057D02*
X127609524Y-134002438D01*
X127609524Y-134002438D02*
X127704762Y-133954819D01*
X127704762Y-133954819D02*
X127942857Y-133954819D01*
X127942857Y-133954819D02*
X128038095Y-134002438D01*
X128038095Y-134002438D02*
X128085714Y-134050057D01*
X128085714Y-134050057D02*
X128133333Y-134145295D01*
X128133333Y-134145295D02*
X128133333Y-134240533D01*
X128133333Y-134240533D02*
X128085714Y-134383390D01*
X128085714Y-134383390D02*
X127514286Y-134954819D01*
X127514286Y-134954819D02*
X128133333Y-134954819D01*
X130666666Y-84954819D02*
X130666666Y-85669104D01*
X130666666Y-85669104D02*
X130619047Y-85811961D01*
X130619047Y-85811961D02*
X130523809Y-85907200D01*
X130523809Y-85907200D02*
X130380952Y-85954819D01*
X130380952Y-85954819D02*
X130285714Y-85954819D01*
X131190476Y-85954819D02*
X131380952Y-85954819D01*
X131380952Y-85954819D02*
X131476190Y-85907200D01*
X131476190Y-85907200D02*
X131523809Y-85859580D01*
X131523809Y-85859580D02*
X131619047Y-85716723D01*
X131619047Y-85716723D02*
X131666666Y-85526247D01*
X131666666Y-85526247D02*
X131666666Y-85145295D01*
X131666666Y-85145295D02*
X131619047Y-85050057D01*
X131619047Y-85050057D02*
X131571428Y-85002438D01*
X131571428Y-85002438D02*
X131476190Y-84954819D01*
X131476190Y-84954819D02*
X131285714Y-84954819D01*
X131285714Y-84954819D02*
X131190476Y-85002438D01*
X131190476Y-85002438D02*
X131142857Y-85050057D01*
X131142857Y-85050057D02*
X131095238Y-85145295D01*
X131095238Y-85145295D02*
X131095238Y-85383390D01*
X131095238Y-85383390D02*
X131142857Y-85478628D01*
X131142857Y-85478628D02*
X131190476Y-85526247D01*
X131190476Y-85526247D02*
X131285714Y-85573866D01*
X131285714Y-85573866D02*
X131476190Y-85573866D01*
X131476190Y-85573866D02*
X131571428Y-85526247D01*
X131571428Y-85526247D02*
X131619047Y-85478628D01*
X131619047Y-85478628D02*
X131666666Y-85383390D01*
X172913333Y-79654819D02*
X172580000Y-79178628D01*
X172341905Y-79654819D02*
X172341905Y-78654819D01*
X172341905Y-78654819D02*
X172722857Y-78654819D01*
X172722857Y-78654819D02*
X172818095Y-78702438D01*
X172818095Y-78702438D02*
X172865714Y-78750057D01*
X172865714Y-78750057D02*
X172913333Y-78845295D01*
X172913333Y-78845295D02*
X172913333Y-78988152D01*
X172913333Y-78988152D02*
X172865714Y-79083390D01*
X172865714Y-79083390D02*
X172818095Y-79131009D01*
X172818095Y-79131009D02*
X172722857Y-79178628D01*
X172722857Y-79178628D02*
X172341905Y-79178628D01*
X173294286Y-78750057D02*
X173341905Y-78702438D01*
X173341905Y-78702438D02*
X173437143Y-78654819D01*
X173437143Y-78654819D02*
X173675238Y-78654819D01*
X173675238Y-78654819D02*
X173770476Y-78702438D01*
X173770476Y-78702438D02*
X173818095Y-78750057D01*
X173818095Y-78750057D02*
X173865714Y-78845295D01*
X173865714Y-78845295D02*
X173865714Y-78940533D01*
X173865714Y-78940533D02*
X173818095Y-79083390D01*
X173818095Y-79083390D02*
X173246667Y-79654819D01*
X173246667Y-79654819D02*
X173865714Y-79654819D01*
X178333333Y-113859580D02*
X178285714Y-113907200D01*
X178285714Y-113907200D02*
X178142857Y-113954819D01*
X178142857Y-113954819D02*
X178047619Y-113954819D01*
X178047619Y-113954819D02*
X177904762Y-113907200D01*
X177904762Y-113907200D02*
X177809524Y-113811961D01*
X177809524Y-113811961D02*
X177761905Y-113716723D01*
X177761905Y-113716723D02*
X177714286Y-113526247D01*
X177714286Y-113526247D02*
X177714286Y-113383390D01*
X177714286Y-113383390D02*
X177761905Y-113192914D01*
X177761905Y-113192914D02*
X177809524Y-113097676D01*
X177809524Y-113097676D02*
X177904762Y-113002438D01*
X177904762Y-113002438D02*
X178047619Y-112954819D01*
X178047619Y-112954819D02*
X178142857Y-112954819D01*
X178142857Y-112954819D02*
X178285714Y-113002438D01*
X178285714Y-113002438D02*
X178333333Y-113050057D01*
X179190476Y-113288152D02*
X179190476Y-113954819D01*
X178952381Y-112907200D02*
X178714286Y-113621485D01*
X178714286Y-113621485D02*
X179333333Y-113621485D01*
X149190476Y-125054819D02*
X149190476Y-125769104D01*
X149190476Y-125769104D02*
X149142857Y-125911961D01*
X149142857Y-125911961D02*
X149047619Y-126007200D01*
X149047619Y-126007200D02*
X148904762Y-126054819D01*
X148904762Y-126054819D02*
X148809524Y-126054819D01*
X150190476Y-126054819D02*
X149619048Y-126054819D01*
X149904762Y-126054819D02*
X149904762Y-125054819D01*
X149904762Y-125054819D02*
X149809524Y-125197676D01*
X149809524Y-125197676D02*
X149714286Y-125292914D01*
X149714286Y-125292914D02*
X149619048Y-125340533D01*
X150523810Y-125054819D02*
X151142857Y-125054819D01*
X151142857Y-125054819D02*
X150809524Y-125435771D01*
X150809524Y-125435771D02*
X150952381Y-125435771D01*
X150952381Y-125435771D02*
X151047619Y-125483390D01*
X151047619Y-125483390D02*
X151095238Y-125531009D01*
X151095238Y-125531009D02*
X151142857Y-125626247D01*
X151142857Y-125626247D02*
X151142857Y-125864342D01*
X151142857Y-125864342D02*
X151095238Y-125959580D01*
X151095238Y-125959580D02*
X151047619Y-126007200D01*
X151047619Y-126007200D02*
X150952381Y-126054819D01*
X150952381Y-126054819D02*
X150666667Y-126054819D01*
X150666667Y-126054819D02*
X150571429Y-126007200D01*
X150571429Y-126007200D02*
X150523810Y-125959580D01*
X113333333Y-110109580D02*
X113285714Y-110157200D01*
X113285714Y-110157200D02*
X113142857Y-110204819D01*
X113142857Y-110204819D02*
X113047619Y-110204819D01*
X113047619Y-110204819D02*
X112904762Y-110157200D01*
X112904762Y-110157200D02*
X112809524Y-110061961D01*
X112809524Y-110061961D02*
X112761905Y-109966723D01*
X112761905Y-109966723D02*
X112714286Y-109776247D01*
X112714286Y-109776247D02*
X112714286Y-109633390D01*
X112714286Y-109633390D02*
X112761905Y-109442914D01*
X112761905Y-109442914D02*
X112809524Y-109347676D01*
X112809524Y-109347676D02*
X112904762Y-109252438D01*
X112904762Y-109252438D02*
X113047619Y-109204819D01*
X113047619Y-109204819D02*
X113142857Y-109204819D01*
X113142857Y-109204819D02*
X113285714Y-109252438D01*
X113285714Y-109252438D02*
X113333333Y-109300057D01*
X113666667Y-109204819D02*
X114285714Y-109204819D01*
X114285714Y-109204819D02*
X113952381Y-109585771D01*
X113952381Y-109585771D02*
X114095238Y-109585771D01*
X114095238Y-109585771D02*
X114190476Y-109633390D01*
X114190476Y-109633390D02*
X114238095Y-109681009D01*
X114238095Y-109681009D02*
X114285714Y-109776247D01*
X114285714Y-109776247D02*
X114285714Y-110014342D01*
X114285714Y-110014342D02*
X114238095Y-110109580D01*
X114238095Y-110109580D02*
X114190476Y-110157200D01*
X114190476Y-110157200D02*
X114095238Y-110204819D01*
X114095238Y-110204819D02*
X113809524Y-110204819D01*
X113809524Y-110204819D02*
X113714286Y-110157200D01*
X113714286Y-110157200D02*
X113666667Y-110109580D01*
X190566666Y-126954819D02*
X190566666Y-127669104D01*
X190566666Y-127669104D02*
X190519047Y-127811961D01*
X190519047Y-127811961D02*
X190423809Y-127907200D01*
X190423809Y-127907200D02*
X190280952Y-127954819D01*
X190280952Y-127954819D02*
X190185714Y-127954819D01*
X191519047Y-126954819D02*
X191042857Y-126954819D01*
X191042857Y-126954819D02*
X190995238Y-127431009D01*
X190995238Y-127431009D02*
X191042857Y-127383390D01*
X191042857Y-127383390D02*
X191138095Y-127335771D01*
X191138095Y-127335771D02*
X191376190Y-127335771D01*
X191376190Y-127335771D02*
X191471428Y-127383390D01*
X191471428Y-127383390D02*
X191519047Y-127431009D01*
X191519047Y-127431009D02*
X191566666Y-127526247D01*
X191566666Y-127526247D02*
X191566666Y-127764342D01*
X191566666Y-127764342D02*
X191519047Y-127859580D01*
X191519047Y-127859580D02*
X191471428Y-127907200D01*
X191471428Y-127907200D02*
X191376190Y-127954819D01*
X191376190Y-127954819D02*
X191138095Y-127954819D01*
X191138095Y-127954819D02*
X191042857Y-127907200D01*
X191042857Y-127907200D02*
X190995238Y-127859580D01*
X114913333Y-61584819D02*
X114580000Y-61108628D01*
X114341905Y-61584819D02*
X114341905Y-60584819D01*
X114341905Y-60584819D02*
X114722857Y-60584819D01*
X114722857Y-60584819D02*
X114818095Y-60632438D01*
X114818095Y-60632438D02*
X114865714Y-60680057D01*
X114865714Y-60680057D02*
X114913333Y-60775295D01*
X114913333Y-60775295D02*
X114913333Y-60918152D01*
X114913333Y-60918152D02*
X114865714Y-61013390D01*
X114865714Y-61013390D02*
X114818095Y-61061009D01*
X114818095Y-61061009D02*
X114722857Y-61108628D01*
X114722857Y-61108628D02*
X114341905Y-61108628D01*
X115389524Y-61584819D02*
X115580000Y-61584819D01*
X115580000Y-61584819D02*
X115675238Y-61537200D01*
X115675238Y-61537200D02*
X115722857Y-61489580D01*
X115722857Y-61489580D02*
X115818095Y-61346723D01*
X115818095Y-61346723D02*
X115865714Y-61156247D01*
X115865714Y-61156247D02*
X115865714Y-60775295D01*
X115865714Y-60775295D02*
X115818095Y-60680057D01*
X115818095Y-60680057D02*
X115770476Y-60632438D01*
X115770476Y-60632438D02*
X115675238Y-60584819D01*
X115675238Y-60584819D02*
X115484762Y-60584819D01*
X115484762Y-60584819D02*
X115389524Y-60632438D01*
X115389524Y-60632438D02*
X115341905Y-60680057D01*
X115341905Y-60680057D02*
X115294286Y-60775295D01*
X115294286Y-60775295D02*
X115294286Y-61013390D01*
X115294286Y-61013390D02*
X115341905Y-61108628D01*
X115341905Y-61108628D02*
X115389524Y-61156247D01*
X115389524Y-61156247D02*
X115484762Y-61203866D01*
X115484762Y-61203866D02*
X115675238Y-61203866D01*
X115675238Y-61203866D02*
X115770476Y-61156247D01*
X115770476Y-61156247D02*
X115818095Y-61108628D01*
X115818095Y-61108628D02*
X115865714Y-61013390D01*
X193666666Y-92074819D02*
X193666666Y-92789104D01*
X193666666Y-92789104D02*
X193619047Y-92931961D01*
X193619047Y-92931961D02*
X193523809Y-93027200D01*
X193523809Y-93027200D02*
X193380952Y-93074819D01*
X193380952Y-93074819D02*
X193285714Y-93074819D01*
X194285714Y-92503390D02*
X194190476Y-92455771D01*
X194190476Y-92455771D02*
X194142857Y-92408152D01*
X194142857Y-92408152D02*
X194095238Y-92312914D01*
X194095238Y-92312914D02*
X194095238Y-92265295D01*
X194095238Y-92265295D02*
X194142857Y-92170057D01*
X194142857Y-92170057D02*
X194190476Y-92122438D01*
X194190476Y-92122438D02*
X194285714Y-92074819D01*
X194285714Y-92074819D02*
X194476190Y-92074819D01*
X194476190Y-92074819D02*
X194571428Y-92122438D01*
X194571428Y-92122438D02*
X194619047Y-92170057D01*
X194619047Y-92170057D02*
X194666666Y-92265295D01*
X194666666Y-92265295D02*
X194666666Y-92312914D01*
X194666666Y-92312914D02*
X194619047Y-92408152D01*
X194619047Y-92408152D02*
X194571428Y-92455771D01*
X194571428Y-92455771D02*
X194476190Y-92503390D01*
X194476190Y-92503390D02*
X194285714Y-92503390D01*
X194285714Y-92503390D02*
X194190476Y-92551009D01*
X194190476Y-92551009D02*
X194142857Y-92598628D01*
X194142857Y-92598628D02*
X194095238Y-92693866D01*
X194095238Y-92693866D02*
X194095238Y-92884342D01*
X194095238Y-92884342D02*
X194142857Y-92979580D01*
X194142857Y-92979580D02*
X194190476Y-93027200D01*
X194190476Y-93027200D02*
X194285714Y-93074819D01*
X194285714Y-93074819D02*
X194476190Y-93074819D01*
X194476190Y-93074819D02*
X194571428Y-93027200D01*
X194571428Y-93027200D02*
X194619047Y-92979580D01*
X194619047Y-92979580D02*
X194666666Y-92884342D01*
X194666666Y-92884342D02*
X194666666Y-92693866D01*
X194666666Y-92693866D02*
X194619047Y-92598628D01*
X194619047Y-92598628D02*
X194571428Y-92551009D01*
X194571428Y-92551009D02*
X194476190Y-92503390D01*
X154690476Y-114554819D02*
X154690476Y-115269104D01*
X154690476Y-115269104D02*
X154642857Y-115411961D01*
X154642857Y-115411961D02*
X154547619Y-115507200D01*
X154547619Y-115507200D02*
X154404762Y-115554819D01*
X154404762Y-115554819D02*
X154309524Y-115554819D01*
X155690476Y-115554819D02*
X155119048Y-115554819D01*
X155404762Y-115554819D02*
X155404762Y-114554819D01*
X155404762Y-114554819D02*
X155309524Y-114697676D01*
X155309524Y-114697676D02*
X155214286Y-114792914D01*
X155214286Y-114792914D02*
X155119048Y-114840533D01*
X156071429Y-114650057D02*
X156119048Y-114602438D01*
X156119048Y-114602438D02*
X156214286Y-114554819D01*
X156214286Y-114554819D02*
X156452381Y-114554819D01*
X156452381Y-114554819D02*
X156547619Y-114602438D01*
X156547619Y-114602438D02*
X156595238Y-114650057D01*
X156595238Y-114650057D02*
X156642857Y-114745295D01*
X156642857Y-114745295D02*
X156642857Y-114840533D01*
X156642857Y-114840533D02*
X156595238Y-114983390D01*
X156595238Y-114983390D02*
X156023810Y-115554819D01*
X156023810Y-115554819D02*
X156642857Y-115554819D01*
X121666666Y-91454819D02*
X121666666Y-92169104D01*
X121666666Y-92169104D02*
X121619047Y-92311961D01*
X121619047Y-92311961D02*
X121523809Y-92407200D01*
X121523809Y-92407200D02*
X121380952Y-92454819D01*
X121380952Y-92454819D02*
X121285714Y-92454819D01*
X122142857Y-92454819D02*
X122142857Y-91454819D01*
X122142857Y-91454819D02*
X122523809Y-91454819D01*
X122523809Y-91454819D02*
X122619047Y-91502438D01*
X122619047Y-91502438D02*
X122666666Y-91550057D01*
X122666666Y-91550057D02*
X122714285Y-91645295D01*
X122714285Y-91645295D02*
X122714285Y-91788152D01*
X122714285Y-91788152D02*
X122666666Y-91883390D01*
X122666666Y-91883390D02*
X122619047Y-91931009D01*
X122619047Y-91931009D02*
X122523809Y-91978628D01*
X122523809Y-91978628D02*
X122142857Y-91978628D01*
X123666666Y-92454819D02*
X123095238Y-92454819D01*
X123380952Y-92454819D02*
X123380952Y-91454819D01*
X123380952Y-91454819D02*
X123285714Y-91597676D01*
X123285714Y-91597676D02*
X123190476Y-91692914D01*
X123190476Y-91692914D02*
X123095238Y-91740533D01*
X108566666Y-104954819D02*
X108566666Y-105669104D01*
X108566666Y-105669104D02*
X108519047Y-105811961D01*
X108519047Y-105811961D02*
X108423809Y-105907200D01*
X108423809Y-105907200D02*
X108280952Y-105954819D01*
X108280952Y-105954819D02*
X108185714Y-105954819D01*
X108947619Y-104954819D02*
X109566666Y-104954819D01*
X109566666Y-104954819D02*
X109233333Y-105335771D01*
X109233333Y-105335771D02*
X109376190Y-105335771D01*
X109376190Y-105335771D02*
X109471428Y-105383390D01*
X109471428Y-105383390D02*
X109519047Y-105431009D01*
X109519047Y-105431009D02*
X109566666Y-105526247D01*
X109566666Y-105526247D02*
X109566666Y-105764342D01*
X109566666Y-105764342D02*
X109519047Y-105859580D01*
X109519047Y-105859580D02*
X109471428Y-105907200D01*
X109471428Y-105907200D02*
X109376190Y-105954819D01*
X109376190Y-105954819D02*
X109090476Y-105954819D01*
X109090476Y-105954819D02*
X108995238Y-105907200D01*
X108995238Y-105907200D02*
X108947619Y-105859580D01*
X176166666Y-125654819D02*
X176166666Y-126369104D01*
X176166666Y-126369104D02*
X176119047Y-126511961D01*
X176119047Y-126511961D02*
X176023809Y-126607200D01*
X176023809Y-126607200D02*
X175880952Y-126654819D01*
X175880952Y-126654819D02*
X175785714Y-126654819D01*
X176642857Y-126654819D02*
X176642857Y-125654819D01*
X176642857Y-125654819D02*
X177023809Y-125654819D01*
X177023809Y-125654819D02*
X177119047Y-125702438D01*
X177119047Y-125702438D02*
X177166666Y-125750057D01*
X177166666Y-125750057D02*
X177214285Y-125845295D01*
X177214285Y-125845295D02*
X177214285Y-125988152D01*
X177214285Y-125988152D02*
X177166666Y-126083390D01*
X177166666Y-126083390D02*
X177119047Y-126131009D01*
X177119047Y-126131009D02*
X177023809Y-126178628D01*
X177023809Y-126178628D02*
X176642857Y-126178628D01*
X177547619Y-125654819D02*
X178166666Y-125654819D01*
X178166666Y-125654819D02*
X177833333Y-126035771D01*
X177833333Y-126035771D02*
X177976190Y-126035771D01*
X177976190Y-126035771D02*
X178071428Y-126083390D01*
X178071428Y-126083390D02*
X178119047Y-126131009D01*
X178119047Y-126131009D02*
X178166666Y-126226247D01*
X178166666Y-126226247D02*
X178166666Y-126464342D01*
X178166666Y-126464342D02*
X178119047Y-126559580D01*
X178119047Y-126559580D02*
X178071428Y-126607200D01*
X178071428Y-126607200D02*
X177976190Y-126654819D01*
X177976190Y-126654819D02*
X177690476Y-126654819D01*
X177690476Y-126654819D02*
X177595238Y-126607200D01*
X177595238Y-126607200D02*
X177547619Y-126559580D01*
X172913333Y-69584819D02*
X172580000Y-69108628D01*
X172341905Y-69584819D02*
X172341905Y-68584819D01*
X172341905Y-68584819D02*
X172722857Y-68584819D01*
X172722857Y-68584819D02*
X172818095Y-68632438D01*
X172818095Y-68632438D02*
X172865714Y-68680057D01*
X172865714Y-68680057D02*
X172913333Y-68775295D01*
X172913333Y-68775295D02*
X172913333Y-68918152D01*
X172913333Y-68918152D02*
X172865714Y-69013390D01*
X172865714Y-69013390D02*
X172818095Y-69061009D01*
X172818095Y-69061009D02*
X172722857Y-69108628D01*
X172722857Y-69108628D02*
X172341905Y-69108628D01*
X173865714Y-69584819D02*
X173294286Y-69584819D01*
X173580000Y-69584819D02*
X173580000Y-68584819D01*
X173580000Y-68584819D02*
X173484762Y-68727676D01*
X173484762Y-68727676D02*
X173389524Y-68822914D01*
X173389524Y-68822914D02*
X173294286Y-68870533D01*
X190566666Y-67854819D02*
X190566666Y-68569104D01*
X190566666Y-68569104D02*
X190519047Y-68711961D01*
X190519047Y-68711961D02*
X190423809Y-68807200D01*
X190423809Y-68807200D02*
X190280952Y-68854819D01*
X190280952Y-68854819D02*
X190185714Y-68854819D01*
X190947619Y-67854819D02*
X191614285Y-67854819D01*
X191614285Y-67854819D02*
X191185714Y-68854819D01*
X159666666Y-120654819D02*
X159666666Y-121369104D01*
X159666666Y-121369104D02*
X159619047Y-121511961D01*
X159619047Y-121511961D02*
X159523809Y-121607200D01*
X159523809Y-121607200D02*
X159380952Y-121654819D01*
X159380952Y-121654819D02*
X159285714Y-121654819D01*
X160142857Y-121654819D02*
X160142857Y-120654819D01*
X160142857Y-120654819D02*
X160523809Y-120654819D01*
X160523809Y-120654819D02*
X160619047Y-120702438D01*
X160619047Y-120702438D02*
X160666666Y-120750057D01*
X160666666Y-120750057D02*
X160714285Y-120845295D01*
X160714285Y-120845295D02*
X160714285Y-120988152D01*
X160714285Y-120988152D02*
X160666666Y-121083390D01*
X160666666Y-121083390D02*
X160619047Y-121131009D01*
X160619047Y-121131009D02*
X160523809Y-121178628D01*
X160523809Y-121178628D02*
X160142857Y-121178628D01*
X161619047Y-120654819D02*
X161142857Y-120654819D01*
X161142857Y-120654819D02*
X161095238Y-121131009D01*
X161095238Y-121131009D02*
X161142857Y-121083390D01*
X161142857Y-121083390D02*
X161238095Y-121035771D01*
X161238095Y-121035771D02*
X161476190Y-121035771D01*
X161476190Y-121035771D02*
X161571428Y-121083390D01*
X161571428Y-121083390D02*
X161619047Y-121131009D01*
X161619047Y-121131009D02*
X161666666Y-121226247D01*
X161666666Y-121226247D02*
X161666666Y-121464342D01*
X161666666Y-121464342D02*
X161619047Y-121559580D01*
X161619047Y-121559580D02*
X161571428Y-121607200D01*
X161571428Y-121607200D02*
X161476190Y-121654819D01*
X161476190Y-121654819D02*
X161238095Y-121654819D01*
X161238095Y-121654819D02*
X161142857Y-121607200D01*
X161142857Y-121607200D02*
X161095238Y-121559580D01*
X108913333Y-122084819D02*
X108580000Y-121608628D01*
X108341905Y-122084819D02*
X108341905Y-121084819D01*
X108341905Y-121084819D02*
X108722857Y-121084819D01*
X108722857Y-121084819D02*
X108818095Y-121132438D01*
X108818095Y-121132438D02*
X108865714Y-121180057D01*
X108865714Y-121180057D02*
X108913333Y-121275295D01*
X108913333Y-121275295D02*
X108913333Y-121418152D01*
X108913333Y-121418152D02*
X108865714Y-121513390D01*
X108865714Y-121513390D02*
X108818095Y-121561009D01*
X108818095Y-121561009D02*
X108722857Y-121608628D01*
X108722857Y-121608628D02*
X108341905Y-121608628D01*
X109246667Y-121084819D02*
X109913333Y-121084819D01*
X109913333Y-121084819D02*
X109484762Y-122084819D01*
X142454819Y-61733333D02*
X143169104Y-61733333D01*
X143169104Y-61733333D02*
X143311961Y-61780952D01*
X143311961Y-61780952D02*
X143407200Y-61876190D01*
X143407200Y-61876190D02*
X143454819Y-62019047D01*
X143454819Y-62019047D02*
X143454819Y-62114285D01*
X142454819Y-60828571D02*
X142454819Y-61019047D01*
X142454819Y-61019047D02*
X142502438Y-61114285D01*
X142502438Y-61114285D02*
X142550057Y-61161904D01*
X142550057Y-61161904D02*
X142692914Y-61257142D01*
X142692914Y-61257142D02*
X142883390Y-61304761D01*
X142883390Y-61304761D02*
X143264342Y-61304761D01*
X143264342Y-61304761D02*
X143359580Y-61257142D01*
X143359580Y-61257142D02*
X143407200Y-61209523D01*
X143407200Y-61209523D02*
X143454819Y-61114285D01*
X143454819Y-61114285D02*
X143454819Y-60923809D01*
X143454819Y-60923809D02*
X143407200Y-60828571D01*
X143407200Y-60828571D02*
X143359580Y-60780952D01*
X143359580Y-60780952D02*
X143264342Y-60733333D01*
X143264342Y-60733333D02*
X143026247Y-60733333D01*
X143026247Y-60733333D02*
X142931009Y-60780952D01*
X142931009Y-60780952D02*
X142883390Y-60828571D01*
X142883390Y-60828571D02*
X142835771Y-60923809D01*
X142835771Y-60923809D02*
X142835771Y-61114285D01*
X142835771Y-61114285D02*
X142883390Y-61209523D01*
X142883390Y-61209523D02*
X142931009Y-61257142D01*
X142931009Y-61257142D02*
X143026247Y-61304761D01*
X137083333Y-128959580D02*
X137035714Y-129007200D01*
X137035714Y-129007200D02*
X136892857Y-129054819D01*
X136892857Y-129054819D02*
X136797619Y-129054819D01*
X136797619Y-129054819D02*
X136654762Y-129007200D01*
X136654762Y-129007200D02*
X136559524Y-128911961D01*
X136559524Y-128911961D02*
X136511905Y-128816723D01*
X136511905Y-128816723D02*
X136464286Y-128626247D01*
X136464286Y-128626247D02*
X136464286Y-128483390D01*
X136464286Y-128483390D02*
X136511905Y-128292914D01*
X136511905Y-128292914D02*
X136559524Y-128197676D01*
X136559524Y-128197676D02*
X136654762Y-128102438D01*
X136654762Y-128102438D02*
X136797619Y-128054819D01*
X136797619Y-128054819D02*
X136892857Y-128054819D01*
X136892857Y-128054819D02*
X137035714Y-128102438D01*
X137035714Y-128102438D02*
X137083333Y-128150057D01*
X138035714Y-129054819D02*
X137464286Y-129054819D01*
X137750000Y-129054819D02*
X137750000Y-128054819D01*
X137750000Y-128054819D02*
X137654762Y-128197676D01*
X137654762Y-128197676D02*
X137559524Y-128292914D01*
X137559524Y-128292914D02*
X137464286Y-128340533D01*
X184913333Y-92084819D02*
X184580000Y-91608628D01*
X184341905Y-92084819D02*
X184341905Y-91084819D01*
X184341905Y-91084819D02*
X184722857Y-91084819D01*
X184722857Y-91084819D02*
X184818095Y-91132438D01*
X184818095Y-91132438D02*
X184865714Y-91180057D01*
X184865714Y-91180057D02*
X184913333Y-91275295D01*
X184913333Y-91275295D02*
X184913333Y-91418152D01*
X184913333Y-91418152D02*
X184865714Y-91513390D01*
X184865714Y-91513390D02*
X184818095Y-91561009D01*
X184818095Y-91561009D02*
X184722857Y-91608628D01*
X184722857Y-91608628D02*
X184341905Y-91608628D01*
X185246667Y-91084819D02*
X185865714Y-91084819D01*
X185865714Y-91084819D02*
X185532381Y-91465771D01*
X185532381Y-91465771D02*
X185675238Y-91465771D01*
X185675238Y-91465771D02*
X185770476Y-91513390D01*
X185770476Y-91513390D02*
X185818095Y-91561009D01*
X185818095Y-91561009D02*
X185865714Y-91656247D01*
X185865714Y-91656247D02*
X185865714Y-91894342D01*
X185865714Y-91894342D02*
X185818095Y-91989580D01*
X185818095Y-91989580D02*
X185770476Y-92037200D01*
X185770476Y-92037200D02*
X185675238Y-92084819D01*
X185675238Y-92084819D02*
X185389524Y-92084819D01*
X185389524Y-92084819D02*
X185294286Y-92037200D01*
X185294286Y-92037200D02*
X185246667Y-91989580D01*
X122031905Y-120494819D02*
X122031905Y-119494819D01*
X122031905Y-119494819D02*
X122270000Y-119494819D01*
X122270000Y-119494819D02*
X122412857Y-119542438D01*
X122412857Y-119542438D02*
X122508095Y-119637676D01*
X122508095Y-119637676D02*
X122555714Y-119732914D01*
X122555714Y-119732914D02*
X122603333Y-119923390D01*
X122603333Y-119923390D02*
X122603333Y-120066247D01*
X122603333Y-120066247D02*
X122555714Y-120256723D01*
X122555714Y-120256723D02*
X122508095Y-120351961D01*
X122508095Y-120351961D02*
X122412857Y-120447200D01*
X122412857Y-120447200D02*
X122270000Y-120494819D01*
X122270000Y-120494819D02*
X122031905Y-120494819D01*
X122984286Y-119590057D02*
X123031905Y-119542438D01*
X123031905Y-119542438D02*
X123127143Y-119494819D01*
X123127143Y-119494819D02*
X123365238Y-119494819D01*
X123365238Y-119494819D02*
X123460476Y-119542438D01*
X123460476Y-119542438D02*
X123508095Y-119590057D01*
X123508095Y-119590057D02*
X123555714Y-119685295D01*
X123555714Y-119685295D02*
X123555714Y-119780533D01*
X123555714Y-119780533D02*
X123508095Y-119923390D01*
X123508095Y-119923390D02*
X122936667Y-120494819D01*
X122936667Y-120494819D02*
X123555714Y-120494819D01*
X117366666Y-95154819D02*
X117366666Y-95869104D01*
X117366666Y-95869104D02*
X117319047Y-96011961D01*
X117319047Y-96011961D02*
X117223809Y-96107200D01*
X117223809Y-96107200D02*
X117080952Y-96154819D01*
X117080952Y-96154819D02*
X116985714Y-96154819D01*
X117842857Y-96154819D02*
X117842857Y-95154819D01*
X117842857Y-95154819D02*
X118223809Y-95154819D01*
X118223809Y-95154819D02*
X118319047Y-95202438D01*
X118319047Y-95202438D02*
X118366666Y-95250057D01*
X118366666Y-95250057D02*
X118414285Y-95345295D01*
X118414285Y-95345295D02*
X118414285Y-95488152D01*
X118414285Y-95488152D02*
X118366666Y-95583390D01*
X118366666Y-95583390D02*
X118319047Y-95631009D01*
X118319047Y-95631009D02*
X118223809Y-95678628D01*
X118223809Y-95678628D02*
X117842857Y-95678628D01*
X118795238Y-95250057D02*
X118842857Y-95202438D01*
X118842857Y-95202438D02*
X118938095Y-95154819D01*
X118938095Y-95154819D02*
X119176190Y-95154819D01*
X119176190Y-95154819D02*
X119271428Y-95202438D01*
X119271428Y-95202438D02*
X119319047Y-95250057D01*
X119319047Y-95250057D02*
X119366666Y-95345295D01*
X119366666Y-95345295D02*
X119366666Y-95440533D01*
X119366666Y-95440533D02*
X119319047Y-95583390D01*
X119319047Y-95583390D02*
X118747619Y-96154819D01*
X118747619Y-96154819D02*
X119366666Y-96154819D01*
X131366665Y-126954819D02*
X131366665Y-127669104D01*
X131366665Y-127669104D02*
X131319046Y-127811961D01*
X131319046Y-127811961D02*
X131223808Y-127907200D01*
X131223808Y-127907200D02*
X131080951Y-127954819D01*
X131080951Y-127954819D02*
X130985713Y-127954819D01*
X131842856Y-127954819D02*
X131842856Y-126954819D01*
X131842856Y-126954819D02*
X132223808Y-126954819D01*
X132223808Y-126954819D02*
X132319046Y-127002438D01*
X132319046Y-127002438D02*
X132366665Y-127050057D01*
X132366665Y-127050057D02*
X132414284Y-127145295D01*
X132414284Y-127145295D02*
X132414284Y-127288152D01*
X132414284Y-127288152D02*
X132366665Y-127383390D01*
X132366665Y-127383390D02*
X132319046Y-127431009D01*
X132319046Y-127431009D02*
X132223808Y-127478628D01*
X132223808Y-127478628D02*
X131842856Y-127478628D01*
X133271427Y-126954819D02*
X133080951Y-126954819D01*
X133080951Y-126954819D02*
X132985713Y-127002438D01*
X132985713Y-127002438D02*
X132938094Y-127050057D01*
X132938094Y-127050057D02*
X132842856Y-127192914D01*
X132842856Y-127192914D02*
X132795237Y-127383390D01*
X132795237Y-127383390D02*
X132795237Y-127764342D01*
X132795237Y-127764342D02*
X132842856Y-127859580D01*
X132842856Y-127859580D02*
X132890475Y-127907200D01*
X132890475Y-127907200D02*
X132985713Y-127954819D01*
X132985713Y-127954819D02*
X133176189Y-127954819D01*
X133176189Y-127954819D02*
X133271427Y-127907200D01*
X133271427Y-127907200D02*
X133319046Y-127859580D01*
X133319046Y-127859580D02*
X133366665Y-127764342D01*
X133366665Y-127764342D02*
X133366665Y-127526247D01*
X133366665Y-127526247D02*
X133319046Y-127431009D01*
X133319046Y-127431009D02*
X133271427Y-127383390D01*
X133271427Y-127383390D02*
X133176189Y-127335771D01*
X133176189Y-127335771D02*
X132985713Y-127335771D01*
X132985713Y-127335771D02*
X132890475Y-127383390D01*
X132890475Y-127383390D02*
X132842856Y-127431009D01*
X132842856Y-127431009D02*
X132795237Y-127526247D01*
X140916667Y-118407200D02*
X141059524Y-118454819D01*
X141059524Y-118454819D02*
X141297619Y-118454819D01*
X141297619Y-118454819D02*
X141392857Y-118407200D01*
X141392857Y-118407200D02*
X141440476Y-118359580D01*
X141440476Y-118359580D02*
X141488095Y-118264342D01*
X141488095Y-118264342D02*
X141488095Y-118169104D01*
X141488095Y-118169104D02*
X141440476Y-118073866D01*
X141440476Y-118073866D02*
X141392857Y-118026247D01*
X141392857Y-118026247D02*
X141297619Y-117978628D01*
X141297619Y-117978628D02*
X141107143Y-117931009D01*
X141107143Y-117931009D02*
X141011905Y-117883390D01*
X141011905Y-117883390D02*
X140964286Y-117835771D01*
X140964286Y-117835771D02*
X140916667Y-117740533D01*
X140916667Y-117740533D02*
X140916667Y-117645295D01*
X140916667Y-117645295D02*
X140964286Y-117550057D01*
X140964286Y-117550057D02*
X141011905Y-117502438D01*
X141011905Y-117502438D02*
X141107143Y-117454819D01*
X141107143Y-117454819D02*
X141345238Y-117454819D01*
X141345238Y-117454819D02*
X141488095Y-117502438D01*
X141821429Y-117454819D02*
X142059524Y-118454819D01*
X142059524Y-118454819D02*
X142250000Y-117740533D01*
X142250000Y-117740533D02*
X142440476Y-118454819D01*
X142440476Y-118454819D02*
X142678572Y-117454819D01*
X143583333Y-118454819D02*
X143011905Y-118454819D01*
X143297619Y-118454819D02*
X143297619Y-117454819D01*
X143297619Y-117454819D02*
X143202381Y-117597676D01*
X143202381Y-117597676D02*
X143107143Y-117692914D01*
X143107143Y-117692914D02*
X143011905Y-117740533D01*
X159666666Y-116454819D02*
X159666666Y-117169104D01*
X159666666Y-117169104D02*
X159619047Y-117311961D01*
X159619047Y-117311961D02*
X159523809Y-117407200D01*
X159523809Y-117407200D02*
X159380952Y-117454819D01*
X159380952Y-117454819D02*
X159285714Y-117454819D01*
X160142857Y-117454819D02*
X160142857Y-116454819D01*
X160142857Y-116454819D02*
X160523809Y-116454819D01*
X160523809Y-116454819D02*
X160619047Y-116502438D01*
X160619047Y-116502438D02*
X160666666Y-116550057D01*
X160666666Y-116550057D02*
X160714285Y-116645295D01*
X160714285Y-116645295D02*
X160714285Y-116788152D01*
X160714285Y-116788152D02*
X160666666Y-116883390D01*
X160666666Y-116883390D02*
X160619047Y-116931009D01*
X160619047Y-116931009D02*
X160523809Y-116978628D01*
X160523809Y-116978628D02*
X160142857Y-116978628D01*
X161571428Y-116788152D02*
X161571428Y-117454819D01*
X161333333Y-116407200D02*
X161095238Y-117121485D01*
X161095238Y-117121485D02*
X161714285Y-117121485D01*
X173804761Y-65050057D02*
X173709523Y-65002438D01*
X173709523Y-65002438D02*
X173614285Y-64907200D01*
X173614285Y-64907200D02*
X173471428Y-64764342D01*
X173471428Y-64764342D02*
X173376190Y-64716723D01*
X173376190Y-64716723D02*
X173280952Y-64716723D01*
X173328571Y-64954819D02*
X173233333Y-64907200D01*
X173233333Y-64907200D02*
X173138095Y-64811961D01*
X173138095Y-64811961D02*
X173090476Y-64621485D01*
X173090476Y-64621485D02*
X173090476Y-64288152D01*
X173090476Y-64288152D02*
X173138095Y-64097676D01*
X173138095Y-64097676D02*
X173233333Y-64002438D01*
X173233333Y-64002438D02*
X173328571Y-63954819D01*
X173328571Y-63954819D02*
X173519047Y-63954819D01*
X173519047Y-63954819D02*
X173614285Y-64002438D01*
X173614285Y-64002438D02*
X173709523Y-64097676D01*
X173709523Y-64097676D02*
X173757142Y-64288152D01*
X173757142Y-64288152D02*
X173757142Y-64621485D01*
X173757142Y-64621485D02*
X173709523Y-64811961D01*
X173709523Y-64811961D02*
X173614285Y-64907200D01*
X173614285Y-64907200D02*
X173519047Y-64954819D01*
X173519047Y-64954819D02*
X173328571Y-64954819D01*
X174709523Y-64954819D02*
X174138095Y-64954819D01*
X174423809Y-64954819D02*
X174423809Y-63954819D01*
X174423809Y-63954819D02*
X174328571Y-64097676D01*
X174328571Y-64097676D02*
X174233333Y-64192914D01*
X174233333Y-64192914D02*
X174138095Y-64240533D01*
X178083333Y-118609580D02*
X178035714Y-118657200D01*
X178035714Y-118657200D02*
X177892857Y-118704819D01*
X177892857Y-118704819D02*
X177797619Y-118704819D01*
X177797619Y-118704819D02*
X177654762Y-118657200D01*
X177654762Y-118657200D02*
X177559524Y-118561961D01*
X177559524Y-118561961D02*
X177511905Y-118466723D01*
X177511905Y-118466723D02*
X177464286Y-118276247D01*
X177464286Y-118276247D02*
X177464286Y-118133390D01*
X177464286Y-118133390D02*
X177511905Y-117942914D01*
X177511905Y-117942914D02*
X177559524Y-117847676D01*
X177559524Y-117847676D02*
X177654762Y-117752438D01*
X177654762Y-117752438D02*
X177797619Y-117704819D01*
X177797619Y-117704819D02*
X177892857Y-117704819D01*
X177892857Y-117704819D02*
X178035714Y-117752438D01*
X178035714Y-117752438D02*
X178083333Y-117800057D01*
X178988095Y-117704819D02*
X178511905Y-117704819D01*
X178511905Y-117704819D02*
X178464286Y-118181009D01*
X178464286Y-118181009D02*
X178511905Y-118133390D01*
X178511905Y-118133390D02*
X178607143Y-118085771D01*
X178607143Y-118085771D02*
X178845238Y-118085771D01*
X178845238Y-118085771D02*
X178940476Y-118133390D01*
X178940476Y-118133390D02*
X178988095Y-118181009D01*
X178988095Y-118181009D02*
X179035714Y-118276247D01*
X179035714Y-118276247D02*
X179035714Y-118514342D01*
X179035714Y-118514342D02*
X178988095Y-118609580D01*
X178988095Y-118609580D02*
X178940476Y-118657200D01*
X178940476Y-118657200D02*
X178845238Y-118704819D01*
X178845238Y-118704819D02*
X178607143Y-118704819D01*
X178607143Y-118704819D02*
X178511905Y-118657200D01*
X178511905Y-118657200D02*
X178464286Y-118609580D01*
X138236666Y-85254819D02*
X138236666Y-85969104D01*
X138236666Y-85969104D02*
X138189047Y-86111961D01*
X138189047Y-86111961D02*
X138093809Y-86207200D01*
X138093809Y-86207200D02*
X137950952Y-86254819D01*
X137950952Y-86254819D02*
X137855714Y-86254819D01*
X139236666Y-86254819D02*
X138665238Y-86254819D01*
X138950952Y-86254819D02*
X138950952Y-85254819D01*
X138950952Y-85254819D02*
X138855714Y-85397676D01*
X138855714Y-85397676D02*
X138760476Y-85492914D01*
X138760476Y-85492914D02*
X138665238Y-85540533D01*
X124190476Y-70654819D02*
X124190476Y-71369104D01*
X124190476Y-71369104D02*
X124142857Y-71511961D01*
X124142857Y-71511961D02*
X124047619Y-71607200D01*
X124047619Y-71607200D02*
X123904762Y-71654819D01*
X123904762Y-71654819D02*
X123809524Y-71654819D01*
X125190476Y-71654819D02*
X124619048Y-71654819D01*
X124904762Y-71654819D02*
X124904762Y-70654819D01*
X124904762Y-70654819D02*
X124809524Y-70797676D01*
X124809524Y-70797676D02*
X124714286Y-70892914D01*
X124714286Y-70892914D02*
X124619048Y-70940533D01*
X126047619Y-70988152D02*
X126047619Y-71654819D01*
X125809524Y-70607200D02*
X125571429Y-71321485D01*
X125571429Y-71321485D02*
X126190476Y-71321485D01*
X157333333Y-63859580D02*
X157285714Y-63907200D01*
X157285714Y-63907200D02*
X157142857Y-63954819D01*
X157142857Y-63954819D02*
X157047619Y-63954819D01*
X157047619Y-63954819D02*
X156904762Y-63907200D01*
X156904762Y-63907200D02*
X156809524Y-63811961D01*
X156809524Y-63811961D02*
X156761905Y-63716723D01*
X156761905Y-63716723D02*
X156714286Y-63526247D01*
X156714286Y-63526247D02*
X156714286Y-63383390D01*
X156714286Y-63383390D02*
X156761905Y-63192914D01*
X156761905Y-63192914D02*
X156809524Y-63097676D01*
X156809524Y-63097676D02*
X156904762Y-63002438D01*
X156904762Y-63002438D02*
X157047619Y-62954819D01*
X157047619Y-62954819D02*
X157142857Y-62954819D01*
X157142857Y-62954819D02*
X157285714Y-63002438D01*
X157285714Y-63002438D02*
X157333333Y-63050057D01*
X157809524Y-63954819D02*
X158000000Y-63954819D01*
X158000000Y-63954819D02*
X158095238Y-63907200D01*
X158095238Y-63907200D02*
X158142857Y-63859580D01*
X158142857Y-63859580D02*
X158238095Y-63716723D01*
X158238095Y-63716723D02*
X158285714Y-63526247D01*
X158285714Y-63526247D02*
X158285714Y-63145295D01*
X158285714Y-63145295D02*
X158238095Y-63050057D01*
X158238095Y-63050057D02*
X158190476Y-63002438D01*
X158190476Y-63002438D02*
X158095238Y-62954819D01*
X158095238Y-62954819D02*
X157904762Y-62954819D01*
X157904762Y-62954819D02*
X157809524Y-63002438D01*
X157809524Y-63002438D02*
X157761905Y-63050057D01*
X157761905Y-63050057D02*
X157714286Y-63145295D01*
X157714286Y-63145295D02*
X157714286Y-63383390D01*
X157714286Y-63383390D02*
X157761905Y-63478628D01*
X157761905Y-63478628D02*
X157809524Y-63526247D01*
X157809524Y-63526247D02*
X157904762Y-63573866D01*
X157904762Y-63573866D02*
X158095238Y-63573866D01*
X158095238Y-63573866D02*
X158190476Y-63526247D01*
X158190476Y-63526247D02*
X158238095Y-63478628D01*
X158238095Y-63478628D02*
X158285714Y-63383390D01*
X161096666Y-85254819D02*
X161096666Y-85969104D01*
X161096666Y-85969104D02*
X161049047Y-86111961D01*
X161049047Y-86111961D02*
X160953809Y-86207200D01*
X160953809Y-86207200D02*
X160810952Y-86254819D01*
X160810952Y-86254819D02*
X160715714Y-86254819D01*
X161525238Y-85350057D02*
X161572857Y-85302438D01*
X161572857Y-85302438D02*
X161668095Y-85254819D01*
X161668095Y-85254819D02*
X161906190Y-85254819D01*
X161906190Y-85254819D02*
X162001428Y-85302438D01*
X162001428Y-85302438D02*
X162049047Y-85350057D01*
X162049047Y-85350057D02*
X162096666Y-85445295D01*
X162096666Y-85445295D02*
X162096666Y-85540533D01*
X162096666Y-85540533D02*
X162049047Y-85683390D01*
X162049047Y-85683390D02*
X161477619Y-86254819D01*
X161477619Y-86254819D02*
X162096666Y-86254819D01*
%TO.C,C2*%
D14*
X138445225Y-72525000D02*
X138945225Y-72525000D01*
X138695225Y-72275000D02*
X138695225Y-72775000D01*
X141250000Y-71420000D02*
X141250000Y-76580000D01*
X141290000Y-71420000D02*
X141290000Y-76580000D01*
X141330000Y-71421000D02*
X141330000Y-76579000D01*
X141370000Y-71423000D02*
X141370000Y-76577000D01*
X141410000Y-71425000D02*
X141410000Y-76575000D01*
X141450000Y-71428000D02*
X141450000Y-76572000D01*
X141490000Y-71431000D02*
X141490000Y-72960000D01*
X141490000Y-75040000D02*
X141490000Y-76569000D01*
X141530000Y-71435000D02*
X141530000Y-72960000D01*
X141530000Y-75040000D02*
X141530000Y-76565000D01*
X141570000Y-71440000D02*
X141570000Y-72960000D01*
X141570000Y-75040000D02*
X141570000Y-76560000D01*
X141610000Y-71445000D02*
X141610000Y-72960000D01*
X141610000Y-75040000D02*
X141610000Y-76555000D01*
X141650000Y-71451000D02*
X141650000Y-72960000D01*
X141650000Y-75040000D02*
X141650000Y-76549000D01*
X141690000Y-71457000D02*
X141690000Y-72960000D01*
X141690000Y-75040000D02*
X141690000Y-76543000D01*
X141730000Y-71464000D02*
X141730000Y-72960000D01*
X141730000Y-75040000D02*
X141730000Y-76536000D01*
X141770000Y-71472000D02*
X141770000Y-72960000D01*
X141770000Y-75040000D02*
X141770000Y-76528000D01*
X141810000Y-71481000D02*
X141810000Y-72960000D01*
X141810000Y-75040000D02*
X141810000Y-76519000D01*
X141850000Y-71490000D02*
X141850000Y-72960000D01*
X141850000Y-75040000D02*
X141850000Y-76510000D01*
X141890000Y-71499000D02*
X141890000Y-72960000D01*
X141890000Y-75040000D02*
X141890000Y-76501000D01*
X141930000Y-71510000D02*
X141930000Y-72960000D01*
X141930000Y-75040000D02*
X141930000Y-76490000D01*
X141970000Y-71521000D02*
X141970000Y-72960000D01*
X141970000Y-75040000D02*
X141970000Y-76479000D01*
X142010000Y-71533000D02*
X142010000Y-72960000D01*
X142010000Y-75040000D02*
X142010000Y-76467000D01*
X142050000Y-71545000D02*
X142050000Y-72960000D01*
X142050000Y-75040000D02*
X142050000Y-76455000D01*
X142090000Y-71558000D02*
X142090000Y-72960000D01*
X142090000Y-75040000D02*
X142090000Y-76442000D01*
X142130000Y-71572000D02*
X142130000Y-72960000D01*
X142130000Y-75040000D02*
X142130000Y-76428000D01*
X142170000Y-71587000D02*
X142170000Y-72960000D01*
X142170000Y-75040000D02*
X142170000Y-76413000D01*
X142210000Y-71602000D02*
X142210000Y-72960000D01*
X142210000Y-75040000D02*
X142210000Y-76398000D01*
X142250000Y-71618000D02*
X142250000Y-72960000D01*
X142250000Y-75040000D02*
X142250000Y-76382000D01*
X142290000Y-71635000D02*
X142290000Y-72960000D01*
X142290000Y-75040000D02*
X142290000Y-76365000D01*
X142330000Y-71653000D02*
X142330000Y-72960000D01*
X142330000Y-75040000D02*
X142330000Y-76347000D01*
X142370000Y-71671000D02*
X142370000Y-72960000D01*
X142370000Y-75040000D02*
X142370000Y-76329000D01*
X142410000Y-71691000D02*
X142410000Y-72960000D01*
X142410000Y-75040000D02*
X142410000Y-76309000D01*
X142450000Y-71711000D02*
X142450000Y-72960000D01*
X142450000Y-75040000D02*
X142450000Y-76289000D01*
X142490000Y-71732000D02*
X142490000Y-72960000D01*
X142490000Y-75040000D02*
X142490000Y-76268000D01*
X142530000Y-71754000D02*
X142530000Y-72960000D01*
X142530000Y-75040000D02*
X142530000Y-76246000D01*
X142570000Y-71777000D02*
X142570000Y-72960000D01*
X142570000Y-75040000D02*
X142570000Y-76223000D01*
X142610000Y-71801000D02*
X142610000Y-72960000D01*
X142610000Y-75040000D02*
X142610000Y-76199000D01*
X142650000Y-71825000D02*
X142650000Y-72960000D01*
X142650000Y-75040000D02*
X142650000Y-76175000D01*
X142690000Y-71851000D02*
X142690000Y-72960000D01*
X142690000Y-75040000D02*
X142690000Y-76149000D01*
X142730000Y-71878000D02*
X142730000Y-72960000D01*
X142730000Y-75040000D02*
X142730000Y-76122000D01*
X142770000Y-71906000D02*
X142770000Y-72960000D01*
X142770000Y-75040000D02*
X142770000Y-76094000D01*
X142810000Y-71935000D02*
X142810000Y-72960000D01*
X142810000Y-75040000D02*
X142810000Y-76065000D01*
X142850000Y-71965000D02*
X142850000Y-72960000D01*
X142850000Y-75040000D02*
X142850000Y-76035000D01*
X142890000Y-71997000D02*
X142890000Y-72960000D01*
X142890000Y-75040000D02*
X142890000Y-76003000D01*
X142930000Y-72030000D02*
X142930000Y-72960000D01*
X142930000Y-75040000D02*
X142930000Y-75970000D01*
X142970000Y-72064000D02*
X142970000Y-72960000D01*
X142970000Y-75040000D02*
X142970000Y-75936000D01*
X143010000Y-72099000D02*
X143010000Y-72960000D01*
X143010000Y-75040000D02*
X143010000Y-75901000D01*
X143050000Y-72136000D02*
X143050000Y-72960000D01*
X143050000Y-75040000D02*
X143050000Y-75864000D01*
X143090000Y-72175000D02*
X143090000Y-72960000D01*
X143090000Y-75040000D02*
X143090000Y-75825000D01*
X143130000Y-72215000D02*
X143130000Y-72960000D01*
X143130000Y-75040000D02*
X143130000Y-75785000D01*
X143170000Y-72257000D02*
X143170000Y-72960000D01*
X143170000Y-75040000D02*
X143170000Y-75743000D01*
X143210000Y-72301000D02*
X143210000Y-72960000D01*
X143210000Y-75040000D02*
X143210000Y-75699000D01*
X143250000Y-72348000D02*
X143250000Y-72960000D01*
X143250000Y-75040000D02*
X143250000Y-75652000D01*
X143290000Y-72396000D02*
X143290000Y-72960000D01*
X143290000Y-75040000D02*
X143290000Y-75604000D01*
X143330000Y-72447000D02*
X143330000Y-72960000D01*
X143330000Y-75040000D02*
X143330000Y-75553000D01*
X143370000Y-72501000D02*
X143370000Y-72960000D01*
X143370000Y-75040000D02*
X143370000Y-75499000D01*
X143410000Y-72557000D02*
X143410000Y-72960000D01*
X143410000Y-75040000D02*
X143410000Y-75443000D01*
X143450000Y-72617000D02*
X143450000Y-72960000D01*
X143450000Y-75040000D02*
X143450000Y-75383000D01*
X143490000Y-72681000D02*
X143490000Y-72960000D01*
X143490000Y-75040000D02*
X143490000Y-75319000D01*
X143530000Y-72749000D02*
X143530000Y-72960000D01*
X143530000Y-75040000D02*
X143530000Y-75251000D01*
X143570000Y-72823000D02*
X143570000Y-75177000D01*
X143610000Y-72902000D02*
X143610000Y-75098000D01*
X143650000Y-72989000D02*
X143650000Y-75011000D01*
X143690000Y-73086000D02*
X143690000Y-74914000D01*
X143730000Y-73195000D02*
X143730000Y-74805000D01*
X143770000Y-73323000D02*
X143770000Y-74677000D01*
X143810000Y-73483000D02*
X143810000Y-74517000D01*
X143850000Y-73717000D02*
X143850000Y-74283000D01*
X143870000Y-74000000D02*
G75*
G02*
X138630000Y-74000000I-2620000J0D01*
G01*
X138630000Y-74000000D02*
G75*
G02*
X143870000Y-74000000I2620000J0D01*
G01*
%TO.C,C6*%
X178020354Y-100125000D02*
X179020354Y-100125000D01*
X178520354Y-99625000D02*
X178520354Y-100625000D01*
X183500000Y-97920000D02*
X183500000Y-108080000D01*
X183540000Y-97920000D02*
X183540000Y-108080000D01*
X183580000Y-97921000D02*
X183580000Y-108079000D01*
X183620000Y-97921000D02*
X183620000Y-108079000D01*
X183660000Y-97923000D02*
X183660000Y-108077000D01*
X183700000Y-97924000D02*
X183700000Y-108076000D01*
X183740000Y-97926000D02*
X183740000Y-108074000D01*
X183780000Y-97928000D02*
X183780000Y-108072000D01*
X183820000Y-97930000D02*
X183820000Y-108070000D01*
X183860000Y-97933000D02*
X183860000Y-108067000D01*
X183900000Y-97936000D02*
X183900000Y-108064000D01*
X183940000Y-97939000D02*
X183940000Y-108061000D01*
X183980000Y-97943000D02*
X183980000Y-108057000D01*
X184020000Y-97946000D02*
X184020000Y-108054000D01*
X184060000Y-97951000D02*
X184060000Y-108049000D01*
X184100000Y-97955000D02*
X184100000Y-108045000D01*
X184140000Y-97960000D02*
X184140000Y-108040000D01*
X184180000Y-97965000D02*
X184180000Y-108035000D01*
X184220000Y-97971000D02*
X184220000Y-108029000D01*
X184260000Y-97977000D02*
X184260000Y-108023000D01*
X184300000Y-97983000D02*
X184300000Y-108017000D01*
X184340000Y-97989000D02*
X184340000Y-108011000D01*
X184380000Y-97996000D02*
X184380000Y-108004000D01*
X184420000Y-98003000D02*
X184420000Y-107997000D01*
X184460000Y-98011000D02*
X184460000Y-107989000D01*
X184500000Y-98019000D02*
X184500000Y-107981000D01*
X184540000Y-98027000D02*
X184540000Y-107973000D01*
X184580000Y-98035000D02*
X184580000Y-107965000D01*
X184620000Y-98044000D02*
X184620000Y-107956000D01*
X184660000Y-98053000D02*
X184660000Y-107947000D01*
X184700000Y-98063000D02*
X184700000Y-107937000D01*
X184740000Y-98072000D02*
X184740000Y-107928000D01*
X184780000Y-98083000D02*
X184780000Y-101760000D01*
X184780000Y-104240000D02*
X184780000Y-107917000D01*
X184820000Y-98093000D02*
X184820000Y-101760000D01*
X184820000Y-104240000D02*
X184820000Y-107907000D01*
X184860000Y-98104000D02*
X184860000Y-101760000D01*
X184860000Y-104240000D02*
X184860000Y-107896000D01*
X184900000Y-98115000D02*
X184900000Y-101760000D01*
X184900000Y-104240000D02*
X184900000Y-107885000D01*
X184940000Y-98127000D02*
X184940000Y-101760000D01*
X184940000Y-104240000D02*
X184940000Y-107873000D01*
X184980000Y-98139000D02*
X184980000Y-101760000D01*
X184980000Y-104240000D02*
X184980000Y-107861000D01*
X185020000Y-98151000D02*
X185020000Y-101760000D01*
X185020000Y-104240000D02*
X185020000Y-107849000D01*
X185060000Y-98163000D02*
X185060000Y-101760000D01*
X185060000Y-104240000D02*
X185060000Y-107837000D01*
X185100000Y-98176000D02*
X185100000Y-101760000D01*
X185100000Y-104240000D02*
X185100000Y-107824000D01*
X185140000Y-98190000D02*
X185140000Y-101760000D01*
X185140000Y-104240000D02*
X185140000Y-107810000D01*
X185180000Y-98203000D02*
X185180000Y-101760000D01*
X185180000Y-104240000D02*
X185180000Y-107797000D01*
X185220000Y-98218000D02*
X185220000Y-101760000D01*
X185220000Y-104240000D02*
X185220000Y-107782000D01*
X185260000Y-98232000D02*
X185260000Y-101760000D01*
X185260000Y-104240000D02*
X185260000Y-107768000D01*
X185300000Y-98247000D02*
X185300000Y-101760000D01*
X185300000Y-104240000D02*
X185300000Y-107753000D01*
X185340000Y-98262000D02*
X185340000Y-101760000D01*
X185340000Y-104240000D02*
X185340000Y-107738000D01*
X185380000Y-98278000D02*
X185380000Y-101760000D01*
X185380000Y-104240000D02*
X185380000Y-107722000D01*
X185420000Y-98294000D02*
X185420000Y-101760000D01*
X185420000Y-104240000D02*
X185420000Y-107706000D01*
X185460000Y-98310000D02*
X185460000Y-101760000D01*
X185460000Y-104240000D02*
X185460000Y-107690000D01*
X185500000Y-98327000D02*
X185500000Y-101760000D01*
X185500000Y-104240000D02*
X185500000Y-107673000D01*
X185540000Y-98344000D02*
X185540000Y-101760000D01*
X185540000Y-104240000D02*
X185540000Y-107656000D01*
X185580000Y-98362000D02*
X185580000Y-101760000D01*
X185580000Y-104240000D02*
X185580000Y-107638000D01*
X185620000Y-98380000D02*
X185620000Y-101760000D01*
X185620000Y-104240000D02*
X185620000Y-107620000D01*
X185660000Y-98398000D02*
X185660000Y-101760000D01*
X185660000Y-104240000D02*
X185660000Y-107602000D01*
X185700000Y-98417000D02*
X185700000Y-101760000D01*
X185700000Y-104240000D02*
X185700000Y-107583000D01*
X185740000Y-98436000D02*
X185740000Y-101760000D01*
X185740000Y-104240000D02*
X185740000Y-107564000D01*
X185780000Y-98456000D02*
X185780000Y-101760000D01*
X185780000Y-104240000D02*
X185780000Y-107544000D01*
X185820000Y-98476000D02*
X185820000Y-101760000D01*
X185820000Y-104240000D02*
X185820000Y-107524000D01*
X185860000Y-98496000D02*
X185860000Y-101760000D01*
X185860000Y-104240000D02*
X185860000Y-107504000D01*
X185900000Y-98517000D02*
X185900000Y-101760000D01*
X185900000Y-104240000D02*
X185900000Y-107483000D01*
X185940000Y-98539000D02*
X185940000Y-101760000D01*
X185940000Y-104240000D02*
X185940000Y-107461000D01*
X185980000Y-98561000D02*
X185980000Y-101760000D01*
X185980000Y-104240000D02*
X185980000Y-107439000D01*
X186020000Y-98583000D02*
X186020000Y-101760000D01*
X186020000Y-104240000D02*
X186020000Y-107417000D01*
X186060000Y-98606000D02*
X186060000Y-101760000D01*
X186060000Y-104240000D02*
X186060000Y-107394000D01*
X186100000Y-98629000D02*
X186100000Y-101760000D01*
X186100000Y-104240000D02*
X186100000Y-107371000D01*
X186140000Y-98653000D02*
X186140000Y-101760000D01*
X186140000Y-104240000D02*
X186140000Y-107347000D01*
X186180000Y-98677000D02*
X186180000Y-101760000D01*
X186180000Y-104240000D02*
X186180000Y-107323000D01*
X186220000Y-98702000D02*
X186220000Y-101760000D01*
X186220000Y-104240000D02*
X186220000Y-107298000D01*
X186260000Y-98728000D02*
X186260000Y-101760000D01*
X186260000Y-104240000D02*
X186260000Y-107272000D01*
X186300000Y-98753000D02*
X186300000Y-101760000D01*
X186300000Y-104240000D02*
X186300000Y-107247000D01*
X186340000Y-98780000D02*
X186340000Y-101760000D01*
X186340000Y-104240000D02*
X186340000Y-107220000D01*
X186380000Y-98807000D02*
X186380000Y-101760000D01*
X186380000Y-104240000D02*
X186380000Y-107193000D01*
X186420000Y-98834000D02*
X186420000Y-101760000D01*
X186420000Y-104240000D02*
X186420000Y-107166000D01*
X186460000Y-98862000D02*
X186460000Y-101760000D01*
X186460000Y-104240000D02*
X186460000Y-107138000D01*
X186500000Y-98891000D02*
X186500000Y-101760000D01*
X186500000Y-104240000D02*
X186500000Y-107109000D01*
X186540000Y-98920000D02*
X186540000Y-101760000D01*
X186540000Y-104240000D02*
X186540000Y-107080000D01*
X186580000Y-98950000D02*
X186580000Y-101760000D01*
X186580000Y-104240000D02*
X186580000Y-107050000D01*
X186620000Y-98980000D02*
X186620000Y-101760000D01*
X186620000Y-104240000D02*
X186620000Y-107020000D01*
X186660000Y-99012000D02*
X186660000Y-101760000D01*
X186660000Y-104240000D02*
X186660000Y-106988000D01*
X186700000Y-99043000D02*
X186700000Y-101760000D01*
X186700000Y-104240000D02*
X186700000Y-106957000D01*
X186740000Y-99076000D02*
X186740000Y-101760000D01*
X186740000Y-104240000D02*
X186740000Y-106924000D01*
X186780000Y-99109000D02*
X186780000Y-101760000D01*
X186780000Y-104240000D02*
X186780000Y-106891000D01*
X186820000Y-99142000D02*
X186820000Y-101760000D01*
X186820000Y-104240000D02*
X186820000Y-106858000D01*
X186860000Y-99177000D02*
X186860000Y-101760000D01*
X186860000Y-104240000D02*
X186860000Y-106823000D01*
X186900000Y-99212000D02*
X186900000Y-101760000D01*
X186900000Y-104240000D02*
X186900000Y-106788000D01*
X186940000Y-99248000D02*
X186940000Y-101760000D01*
X186940000Y-104240000D02*
X186940000Y-106752000D01*
X186980000Y-99284000D02*
X186980000Y-101760000D01*
X186980000Y-104240000D02*
X186980000Y-106716000D01*
X187020000Y-99322000D02*
X187020000Y-101760000D01*
X187020000Y-104240000D02*
X187020000Y-106678000D01*
X187060000Y-99360000D02*
X187060000Y-101760000D01*
X187060000Y-104240000D02*
X187060000Y-106640000D01*
X187100000Y-99399000D02*
X187100000Y-101760000D01*
X187100000Y-104240000D02*
X187100000Y-106601000D01*
X187140000Y-99439000D02*
X187140000Y-101760000D01*
X187140000Y-104240000D02*
X187140000Y-106561000D01*
X187180000Y-99480000D02*
X187180000Y-101760000D01*
X187180000Y-104240000D02*
X187180000Y-106520000D01*
X187220000Y-99522000D02*
X187220000Y-101760000D01*
X187220000Y-104240000D02*
X187220000Y-106478000D01*
X187260000Y-99565000D02*
X187260000Y-106435000D01*
X187300000Y-99609000D02*
X187300000Y-106391000D01*
X187340000Y-99653000D02*
X187340000Y-106347000D01*
X187380000Y-99699000D02*
X187380000Y-106301000D01*
X187420000Y-99746000D02*
X187420000Y-106254000D01*
X187460000Y-99795000D02*
X187460000Y-106205000D01*
X187500000Y-99844000D02*
X187500000Y-106156000D01*
X187540000Y-99895000D02*
X187540000Y-106105000D01*
X187580000Y-99947000D02*
X187580000Y-106053000D01*
X187620000Y-100000000D02*
X187620000Y-106000000D01*
X187660000Y-100055000D02*
X187660000Y-105945000D01*
X187700000Y-100112000D02*
X187700000Y-105888000D01*
X187740000Y-100170000D02*
X187740000Y-105830000D01*
X187780000Y-100230000D02*
X187780000Y-105770000D01*
X187820000Y-100292000D02*
X187820000Y-105708000D01*
X187860000Y-100356000D02*
X187860000Y-105644000D01*
X187900000Y-100422000D02*
X187900000Y-105578000D01*
X187940000Y-100490000D02*
X187940000Y-105510000D01*
X187980000Y-100561000D02*
X187980000Y-105439000D01*
X188020000Y-100635000D02*
X188020000Y-105365000D01*
X188060000Y-100712000D02*
X188060000Y-105288000D01*
X188100000Y-100792000D02*
X188100000Y-105208000D01*
X188140000Y-100876000D02*
X188140000Y-105124000D01*
X188180000Y-100963000D02*
X188180000Y-105037000D01*
X188220000Y-101056000D02*
X188220000Y-104944000D01*
X188260000Y-101154000D02*
X188260000Y-104846000D01*
X188300000Y-101258000D02*
X188300000Y-104742000D01*
X188340000Y-101370000D02*
X188340000Y-104630000D01*
X188380000Y-101491000D02*
X188380000Y-104509000D01*
X188420000Y-101623000D02*
X188420000Y-104377000D01*
X188460000Y-101770000D02*
X188460000Y-104230000D01*
X188500000Y-101938000D02*
X188500000Y-104062000D01*
X188540000Y-102138000D02*
X188540000Y-103862000D01*
X188580000Y-102401000D02*
X188580000Y-103599000D01*
X188620000Y-103000000D02*
G75*
G02*
X178380000Y-103000000I-5120000J0D01*
G01*
X178380000Y-103000000D02*
G75*
G02*
X188620000Y-103000000I5120000J0D01*
G01*
%TO.C,SW2*%
X121620000Y-130340000D02*
X121620000Y-131723000D01*
X121620000Y-130340000D02*
X123003000Y-130340000D01*
X121860000Y-130580000D02*
X121860000Y-135420000D01*
X121860000Y-130580000D02*
X131760000Y-130580000D01*
X121860000Y-135420000D02*
X131760000Y-135420000D01*
X126133333Y-132365000D02*
X126133333Y-133635000D01*
X131760000Y-130580000D02*
X131760000Y-135420000D01*
X124780000Y-132365000D02*
X126133333Y-132365000D01*
X126133333Y-133635000D01*
X124780000Y-133635000D01*
X124780000Y-132365000D01*
G36*
X124780000Y-132365000D02*
G01*
X126133333Y-132365000D01*
X126133333Y-133635000D01*
X124780000Y-133635000D01*
X124780000Y-132365000D01*
G37*
X124780000Y-132365000D02*
X128840000Y-132365000D01*
X128840000Y-133635000D01*
X124780000Y-133635000D01*
X124780000Y-132365000D01*
%TO.C,J9*%
X129620000Y-88620000D02*
X131000000Y-88620000D01*
X129620000Y-90000000D02*
X129620000Y-88620000D01*
X129620000Y-91270000D02*
X129620000Y-99000000D01*
X129620000Y-91270000D02*
X132380000Y-91270000D01*
X129620000Y-99000000D02*
X132380000Y-99000000D01*
X132380000Y-91270000D02*
X132380000Y-99000000D01*
%TO.C,R2*%
X169040000Y-76000000D02*
X169810000Y-76000000D01*
X177120000Y-76000000D02*
X176350000Y-76000000D01*
X169810000Y-74630000D02*
X176350000Y-74630000D01*
X176350000Y-77370000D01*
X169810000Y-77370000D01*
X169810000Y-74630000D01*
%TO.C,C4*%
X176030000Y-114630000D02*
X180970000Y-114630000D01*
X176030000Y-114960000D02*
X176030000Y-114630000D01*
X176030000Y-117370000D02*
X176030000Y-117040000D01*
X180970000Y-114630000D02*
X180970000Y-114960000D01*
X180970000Y-117040000D02*
X180970000Y-117370000D01*
X180970000Y-117370000D02*
X176030000Y-117370000D01*
%TO.C,J13*%
X148620000Y-117120000D02*
X150000000Y-117120000D01*
X148620000Y-118500000D02*
X148620000Y-117120000D01*
X148620000Y-119770000D02*
X148620000Y-124960000D01*
X148620000Y-119770000D02*
X151380000Y-119770000D01*
X148620000Y-124960000D02*
X151380000Y-124960000D01*
X151380000Y-119770000D02*
X151380000Y-124960000D01*
%TO.C,C3*%
X108020354Y-113125000D02*
X109020354Y-113125000D01*
X108520354Y-112625000D02*
X108520354Y-113625000D01*
X113500000Y-110920000D02*
X113500000Y-121080000D01*
X113540000Y-110920000D02*
X113540000Y-121080000D01*
X113580000Y-110921000D02*
X113580000Y-121079000D01*
X113620000Y-110921000D02*
X113620000Y-121079000D01*
X113660000Y-110923000D02*
X113660000Y-121077000D01*
X113700000Y-110924000D02*
X113700000Y-121076000D01*
X113740000Y-110926000D02*
X113740000Y-121074000D01*
X113780000Y-110928000D02*
X113780000Y-121072000D01*
X113820000Y-110930000D02*
X113820000Y-121070000D01*
X113860000Y-110933000D02*
X113860000Y-121067000D01*
X113900000Y-110936000D02*
X113900000Y-121064000D01*
X113940000Y-110939000D02*
X113940000Y-121061000D01*
X113980000Y-110943000D02*
X113980000Y-121057000D01*
X114020000Y-110946000D02*
X114020000Y-121054000D01*
X114060000Y-110951000D02*
X114060000Y-121049000D01*
X114100000Y-110955000D02*
X114100000Y-121045000D01*
X114140000Y-110960000D02*
X114140000Y-121040000D01*
X114180000Y-110965000D02*
X114180000Y-121035000D01*
X114220000Y-110971000D02*
X114220000Y-121029000D01*
X114260000Y-110977000D02*
X114260000Y-121023000D01*
X114300000Y-110983000D02*
X114300000Y-121017000D01*
X114340000Y-110989000D02*
X114340000Y-121011000D01*
X114380000Y-110996000D02*
X114380000Y-121004000D01*
X114420000Y-111003000D02*
X114420000Y-120997000D01*
X114460000Y-111011000D02*
X114460000Y-120989000D01*
X114500000Y-111019000D02*
X114500000Y-120981000D01*
X114540000Y-111027000D02*
X114540000Y-120973000D01*
X114580000Y-111035000D02*
X114580000Y-120965000D01*
X114620000Y-111044000D02*
X114620000Y-120956000D01*
X114660000Y-111053000D02*
X114660000Y-120947000D01*
X114700000Y-111063000D02*
X114700000Y-120937000D01*
X114740000Y-111072000D02*
X114740000Y-120928000D01*
X114780000Y-111083000D02*
X114780000Y-114760000D01*
X114780000Y-117240000D02*
X114780000Y-120917000D01*
X114820000Y-111093000D02*
X114820000Y-114760000D01*
X114820000Y-117240000D02*
X114820000Y-120907000D01*
X114860000Y-111104000D02*
X114860000Y-114760000D01*
X114860000Y-117240000D02*
X114860000Y-120896000D01*
X114900000Y-111115000D02*
X114900000Y-114760000D01*
X114900000Y-117240000D02*
X114900000Y-120885000D01*
X114940000Y-111127000D02*
X114940000Y-114760000D01*
X114940000Y-117240000D02*
X114940000Y-120873000D01*
X114980000Y-111139000D02*
X114980000Y-114760000D01*
X114980000Y-117240000D02*
X114980000Y-120861000D01*
X115020000Y-111151000D02*
X115020000Y-114760000D01*
X115020000Y-117240000D02*
X115020000Y-120849000D01*
X115060000Y-111163000D02*
X115060000Y-114760000D01*
X115060000Y-117240000D02*
X115060000Y-120837000D01*
X115100000Y-111176000D02*
X115100000Y-114760000D01*
X115100000Y-117240000D02*
X115100000Y-120824000D01*
X115140000Y-111190000D02*
X115140000Y-114760000D01*
X115140000Y-117240000D02*
X115140000Y-120810000D01*
X115180000Y-111203000D02*
X115180000Y-114760000D01*
X115180000Y-117240000D02*
X115180000Y-120797000D01*
X115220000Y-111218000D02*
X115220000Y-114760000D01*
X115220000Y-117240000D02*
X115220000Y-120782000D01*
X115260000Y-111232000D02*
X115260000Y-114760000D01*
X115260000Y-117240000D02*
X115260000Y-120768000D01*
X115300000Y-111247000D02*
X115300000Y-114760000D01*
X115300000Y-117240000D02*
X115300000Y-120753000D01*
X115340000Y-111262000D02*
X115340000Y-114760000D01*
X115340000Y-117240000D02*
X115340000Y-120738000D01*
X115380000Y-111278000D02*
X115380000Y-114760000D01*
X115380000Y-117240000D02*
X115380000Y-120722000D01*
X115420000Y-111294000D02*
X115420000Y-114760000D01*
X115420000Y-117240000D02*
X115420000Y-120706000D01*
X115460000Y-111310000D02*
X115460000Y-114760000D01*
X115460000Y-117240000D02*
X115460000Y-120690000D01*
X115500000Y-111327000D02*
X115500000Y-114760000D01*
X115500000Y-117240000D02*
X115500000Y-120673000D01*
X115540000Y-111344000D02*
X115540000Y-114760000D01*
X115540000Y-117240000D02*
X115540000Y-120656000D01*
X115580000Y-111362000D02*
X115580000Y-114760000D01*
X115580000Y-117240000D02*
X115580000Y-120638000D01*
X115620000Y-111380000D02*
X115620000Y-114760000D01*
X115620000Y-117240000D02*
X115620000Y-120620000D01*
X115660000Y-111398000D02*
X115660000Y-114760000D01*
X115660000Y-117240000D02*
X115660000Y-120602000D01*
X115700000Y-111417000D02*
X115700000Y-114760000D01*
X115700000Y-117240000D02*
X115700000Y-120583000D01*
X115740000Y-111436000D02*
X115740000Y-114760000D01*
X115740000Y-117240000D02*
X115740000Y-120564000D01*
X115780000Y-111456000D02*
X115780000Y-114760000D01*
X115780000Y-117240000D02*
X115780000Y-120544000D01*
X115820000Y-111476000D02*
X115820000Y-114760000D01*
X115820000Y-117240000D02*
X115820000Y-120524000D01*
X115860000Y-111496000D02*
X115860000Y-114760000D01*
X115860000Y-117240000D02*
X115860000Y-120504000D01*
X115900000Y-111517000D02*
X115900000Y-114760000D01*
X115900000Y-117240000D02*
X115900000Y-120483000D01*
X115940000Y-111539000D02*
X115940000Y-114760000D01*
X115940000Y-117240000D02*
X115940000Y-120461000D01*
X115980000Y-111561000D02*
X115980000Y-114760000D01*
X115980000Y-117240000D02*
X115980000Y-120439000D01*
X116020000Y-111583000D02*
X116020000Y-114760000D01*
X116020000Y-117240000D02*
X116020000Y-120417000D01*
X116060000Y-111606000D02*
X116060000Y-114760000D01*
X116060000Y-117240000D02*
X116060000Y-120394000D01*
X116100000Y-111629000D02*
X116100000Y-114760000D01*
X116100000Y-117240000D02*
X116100000Y-120371000D01*
X116140000Y-111653000D02*
X116140000Y-114760000D01*
X116140000Y-117240000D02*
X116140000Y-120347000D01*
X116180000Y-111677000D02*
X116180000Y-114760000D01*
X116180000Y-117240000D02*
X116180000Y-120323000D01*
X116220000Y-111702000D02*
X116220000Y-114760000D01*
X116220000Y-117240000D02*
X116220000Y-120298000D01*
X116260000Y-111728000D02*
X116260000Y-114760000D01*
X116260000Y-117240000D02*
X116260000Y-120272000D01*
X116300000Y-111753000D02*
X116300000Y-114760000D01*
X116300000Y-117240000D02*
X116300000Y-120247000D01*
X116340000Y-111780000D02*
X116340000Y-114760000D01*
X116340000Y-117240000D02*
X116340000Y-120220000D01*
X116380000Y-111807000D02*
X116380000Y-114760000D01*
X116380000Y-117240000D02*
X116380000Y-120193000D01*
X116420000Y-111834000D02*
X116420000Y-114760000D01*
X116420000Y-117240000D02*
X116420000Y-120166000D01*
X116460000Y-111862000D02*
X116460000Y-114760000D01*
X116460000Y-117240000D02*
X116460000Y-120138000D01*
X116500000Y-111891000D02*
X116500000Y-114760000D01*
X116500000Y-117240000D02*
X116500000Y-120109000D01*
X116540000Y-111920000D02*
X116540000Y-114760000D01*
X116540000Y-117240000D02*
X116540000Y-120080000D01*
X116580000Y-111950000D02*
X116580000Y-114760000D01*
X116580000Y-117240000D02*
X116580000Y-120050000D01*
X116620000Y-111980000D02*
X116620000Y-114760000D01*
X116620000Y-117240000D02*
X116620000Y-120020000D01*
X116660000Y-112012000D02*
X116660000Y-114760000D01*
X116660000Y-117240000D02*
X116660000Y-119988000D01*
X116700000Y-112043000D02*
X116700000Y-114760000D01*
X116700000Y-117240000D02*
X116700000Y-119957000D01*
X116740000Y-112076000D02*
X116740000Y-114760000D01*
X116740000Y-117240000D02*
X116740000Y-119924000D01*
X116780000Y-112109000D02*
X116780000Y-114760000D01*
X116780000Y-117240000D02*
X116780000Y-119891000D01*
X116820000Y-112142000D02*
X116820000Y-114760000D01*
X116820000Y-117240000D02*
X116820000Y-119858000D01*
X116860000Y-112177000D02*
X116860000Y-114760000D01*
X116860000Y-117240000D02*
X116860000Y-119823000D01*
X116900000Y-112212000D02*
X116900000Y-114760000D01*
X116900000Y-117240000D02*
X116900000Y-119788000D01*
X116940000Y-112248000D02*
X116940000Y-114760000D01*
X116940000Y-117240000D02*
X116940000Y-119752000D01*
X116980000Y-112284000D02*
X116980000Y-114760000D01*
X116980000Y-117240000D02*
X116980000Y-119716000D01*
X117020000Y-112322000D02*
X117020000Y-114760000D01*
X117020000Y-117240000D02*
X117020000Y-119678000D01*
X117060000Y-112360000D02*
X117060000Y-114760000D01*
X117060000Y-117240000D02*
X117060000Y-119640000D01*
X117100000Y-112399000D02*
X117100000Y-114760000D01*
X117100000Y-117240000D02*
X117100000Y-119601000D01*
X117140000Y-112439000D02*
X117140000Y-114760000D01*
X117140000Y-117240000D02*
X117140000Y-119561000D01*
X117180000Y-112480000D02*
X117180000Y-114760000D01*
X117180000Y-117240000D02*
X117180000Y-119520000D01*
X117220000Y-112522000D02*
X117220000Y-114760000D01*
X117220000Y-117240000D02*
X117220000Y-119478000D01*
X117260000Y-112565000D02*
X117260000Y-119435000D01*
X117300000Y-112609000D02*
X117300000Y-119391000D01*
X117340000Y-112653000D02*
X117340000Y-119347000D01*
X117380000Y-112699000D02*
X117380000Y-119301000D01*
X117420000Y-112746000D02*
X117420000Y-119254000D01*
X117460000Y-112795000D02*
X117460000Y-119205000D01*
X117500000Y-112844000D02*
X117500000Y-119156000D01*
X117540000Y-112895000D02*
X117540000Y-119105000D01*
X117580000Y-112947000D02*
X117580000Y-119053000D01*
X117620000Y-113000000D02*
X117620000Y-119000000D01*
X117660000Y-113055000D02*
X117660000Y-118945000D01*
X117700000Y-113112000D02*
X117700000Y-118888000D01*
X117740000Y-113170000D02*
X117740000Y-118830000D01*
X117780000Y-113230000D02*
X117780000Y-118770000D01*
X117820000Y-113292000D02*
X117820000Y-118708000D01*
X117860000Y-113356000D02*
X117860000Y-118644000D01*
X117900000Y-113422000D02*
X117900000Y-118578000D01*
X117940000Y-113490000D02*
X117940000Y-118510000D01*
X117980000Y-113561000D02*
X117980000Y-118439000D01*
X118020000Y-113635000D02*
X118020000Y-118365000D01*
X118060000Y-113712000D02*
X118060000Y-118288000D01*
X118100000Y-113792000D02*
X118100000Y-118208000D01*
X118140000Y-113876000D02*
X118140000Y-118124000D01*
X118180000Y-113963000D02*
X118180000Y-118037000D01*
X118220000Y-114056000D02*
X118220000Y-117944000D01*
X118260000Y-114154000D02*
X118260000Y-117846000D01*
X118300000Y-114258000D02*
X118300000Y-117742000D01*
X118340000Y-114370000D02*
X118340000Y-117630000D01*
X118380000Y-114491000D02*
X118380000Y-117509000D01*
X118420000Y-114623000D02*
X118420000Y-117377000D01*
X118460000Y-114770000D02*
X118460000Y-117230000D01*
X118500000Y-114938000D02*
X118500000Y-117062000D01*
X118540000Y-115138000D02*
X118540000Y-116862000D01*
X118580000Y-115401000D02*
X118580000Y-116599000D01*
X118620000Y-116000000D02*
G75*
G02*
X108380000Y-116000000I-5120000J0D01*
G01*
X108380000Y-116000000D02*
G75*
G02*
X118620000Y-116000000I5120000J0D01*
G01*
%TO.C,J5*%
X186170000Y-116270000D02*
X186170000Y-129030000D01*
X186170000Y-116270000D02*
X188830000Y-116270000D01*
X186170000Y-129030000D02*
X188830000Y-129030000D01*
X187500000Y-113670000D02*
X188830000Y-113670000D01*
X188830000Y-113670000D02*
X188830000Y-115000000D01*
X188830000Y-116270000D02*
X188830000Y-129030000D01*
%TO.C,R9*%
X111040000Y-63500000D02*
X111810000Y-63500000D01*
X119120000Y-63500000D02*
X118350000Y-63500000D01*
X111810000Y-62130000D02*
X118350000Y-62130000D01*
X118350000Y-64870000D01*
X111810000Y-64870000D01*
X111810000Y-62130000D01*
%TO.C,J8*%
X192620000Y-93620000D02*
X194000000Y-93620000D01*
X192620000Y-95000000D02*
X192620000Y-93620000D01*
X192620000Y-96270000D02*
X192620000Y-101460000D01*
X192620000Y-96270000D02*
X195380000Y-96270000D01*
X192620000Y-101460000D02*
X195380000Y-101460000D01*
X195380000Y-96270000D02*
X195380000Y-101460000D01*
%TO.C,J12*%
X154120000Y-117620000D02*
X155500000Y-117620000D01*
X154120000Y-119000000D02*
X154120000Y-117620000D01*
X154120000Y-120270000D02*
X154120000Y-122920000D01*
X154120000Y-120270000D02*
X156880000Y-120270000D01*
X154120000Y-122920000D02*
X156880000Y-122920000D01*
X156880000Y-120270000D02*
X156880000Y-122920000D01*
%TO.C,JP1*%
X117100000Y-91000000D02*
X119900000Y-91000000D01*
X117100000Y-93000000D02*
X117100000Y-91000000D01*
X119900000Y-91000000D02*
X119900000Y-93000000D01*
X119900000Y-93000000D02*
X117100000Y-93000000D01*
%TO.C,J3*%
X111170000Y-93270000D02*
X111170000Y-108570000D01*
X111170000Y-93270000D02*
X113830000Y-93270000D01*
X111170000Y-108570000D02*
X113830000Y-108570000D01*
X112500000Y-90670000D02*
X113830000Y-90670000D01*
X113830000Y-90670000D02*
X113830000Y-92000000D01*
X113830000Y-93270000D02*
X113830000Y-108570000D01*
%TO.C,JP3*%
X175600000Y-127000000D02*
X178400000Y-127000000D01*
X175600000Y-129000000D02*
X175600000Y-127000000D01*
X178400000Y-127000000D02*
X178400000Y-129000000D01*
X178400000Y-129000000D02*
X175600000Y-129000000D01*
%TO.C,R1*%
X169040000Y-71500000D02*
X169810000Y-71500000D01*
X177120000Y-71500000D02*
X176350000Y-71500000D01*
X169810000Y-70130000D02*
X176350000Y-70130000D01*
X176350000Y-72870000D01*
X169810000Y-72870000D01*
X169810000Y-70130000D01*
%TO.C,J7*%
X186620000Y-62120000D02*
X188000000Y-62120000D01*
X186620000Y-63500000D02*
X186620000Y-62120000D01*
X186620000Y-64770000D02*
X186620000Y-67420000D01*
X186620000Y-64770000D02*
X189380000Y-64770000D01*
X186620000Y-67420000D02*
X189380000Y-67420000D01*
X189380000Y-64770000D02*
X189380000Y-67420000D01*
%TO.C,JP5*%
X159100000Y-122000000D02*
X161900000Y-122000000D01*
X159100000Y-124000000D02*
X159100000Y-122000000D01*
X161900000Y-122000000D02*
X161900000Y-124000000D01*
X161900000Y-124000000D02*
X159100000Y-124000000D01*
%TO.C,R7*%
X105040000Y-124000000D02*
X105810000Y-124000000D01*
X113120000Y-124000000D02*
X112350000Y-124000000D01*
X105810000Y-122630000D02*
X112350000Y-122630000D01*
X112350000Y-125370000D01*
X105810000Y-125370000D01*
X105810000Y-122630000D01*
%TO.C,J6*%
X145120000Y-64380000D02*
X145120000Y-63000000D01*
X146500000Y-64380000D02*
X145120000Y-64380000D01*
X147770000Y-61620000D02*
X152960000Y-61620000D01*
X147770000Y-64380000D02*
X147770000Y-61620000D01*
X147770000Y-64380000D02*
X152960000Y-64380000D01*
X152960000Y-64380000D02*
X152960000Y-61620000D01*
%TO.C,C1*%
X133749759Y-131161000D02*
X134379759Y-131161000D01*
X134064759Y-130846000D02*
X134064759Y-131476000D01*
X137250000Y-129770000D02*
X137250000Y-136230000D01*
X137290000Y-129770000D02*
X137290000Y-136230000D01*
X137330000Y-129771000D02*
X137330000Y-136229000D01*
X137370000Y-129772000D02*
X137370000Y-136228000D01*
X137410000Y-129774000D02*
X137410000Y-136226000D01*
X137450000Y-129776000D02*
X137450000Y-136224000D01*
X137490000Y-129779000D02*
X137490000Y-131960000D01*
X137490000Y-134040000D02*
X137490000Y-136221000D01*
X137530000Y-129782000D02*
X137530000Y-131960000D01*
X137530000Y-134040000D02*
X137530000Y-136218000D01*
X137570000Y-129786000D02*
X137570000Y-131960000D01*
X137570000Y-134040000D02*
X137570000Y-136214000D01*
X137610000Y-129790000D02*
X137610000Y-131960000D01*
X137610000Y-134040000D02*
X137610000Y-136210000D01*
X137650000Y-129795000D02*
X137650000Y-131960000D01*
X137650000Y-134040000D02*
X137650000Y-136205000D01*
X137690000Y-129800000D02*
X137690000Y-131960000D01*
X137690000Y-134040000D02*
X137690000Y-136200000D01*
X137730000Y-129805000D02*
X137730000Y-131960000D01*
X137730000Y-134040000D02*
X137730000Y-136195000D01*
X137770000Y-129812000D02*
X137770000Y-131960000D01*
X137770000Y-134040000D02*
X137770000Y-136188000D01*
X137810000Y-129818000D02*
X137810000Y-131960000D01*
X137810000Y-134040000D02*
X137810000Y-136182000D01*
X137850000Y-129826000D02*
X137850000Y-131960000D01*
X137850000Y-134040000D02*
X137850000Y-136174000D01*
X137890000Y-129833000D02*
X137890000Y-131960000D01*
X137890000Y-134040000D02*
X137890000Y-136167000D01*
X137930000Y-129841000D02*
X137930000Y-131960000D01*
X137930000Y-134040000D02*
X137930000Y-136159000D01*
X137970000Y-129850000D02*
X137970000Y-131960000D01*
X137970000Y-134040000D02*
X137970000Y-136150000D01*
X138010000Y-129860000D02*
X138010000Y-131960000D01*
X138010000Y-134040000D02*
X138010000Y-136140000D01*
X138050000Y-129869000D02*
X138050000Y-131960000D01*
X138050000Y-134040000D02*
X138050000Y-136131000D01*
X138090000Y-129880000D02*
X138090000Y-131960000D01*
X138090000Y-134040000D02*
X138090000Y-136120000D01*
X138130000Y-129891000D02*
X138130000Y-131960000D01*
X138130000Y-134040000D02*
X138130000Y-136109000D01*
X138170000Y-129902000D02*
X138170000Y-131960000D01*
X138170000Y-134040000D02*
X138170000Y-136098000D01*
X138210000Y-129914000D02*
X138210000Y-131960000D01*
X138210000Y-134040000D02*
X138210000Y-136086000D01*
X138250000Y-129927000D02*
X138250000Y-131960000D01*
X138250000Y-134040000D02*
X138250000Y-136073000D01*
X138290000Y-129940000D02*
X138290000Y-131960000D01*
X138290000Y-134040000D02*
X138290000Y-136060000D01*
X138330000Y-129953000D02*
X138330000Y-131960000D01*
X138330000Y-134040000D02*
X138330000Y-136047000D01*
X138370000Y-129968000D02*
X138370000Y-131960000D01*
X138370000Y-134040000D02*
X138370000Y-136032000D01*
X138410000Y-129983000D02*
X138410000Y-131960000D01*
X138410000Y-134040000D02*
X138410000Y-136017000D01*
X138450000Y-129998000D02*
X138450000Y-131960000D01*
X138450000Y-134040000D02*
X138450000Y-136002000D01*
X138490000Y-130014000D02*
X138490000Y-131960000D01*
X138490000Y-134040000D02*
X138490000Y-135986000D01*
X138530000Y-130031000D02*
X138530000Y-131960000D01*
X138530000Y-134040000D02*
X138530000Y-135969000D01*
X138570000Y-130048000D02*
X138570000Y-131960000D01*
X138570000Y-134040000D02*
X138570000Y-135952000D01*
X138610000Y-130066000D02*
X138610000Y-131960000D01*
X138610000Y-134040000D02*
X138610000Y-135934000D01*
X138650000Y-130085000D02*
X138650000Y-131960000D01*
X138650000Y-134040000D02*
X138650000Y-135915000D01*
X138690000Y-130104000D02*
X138690000Y-131960000D01*
X138690000Y-134040000D02*
X138690000Y-135896000D01*
X138730000Y-130124000D02*
X138730000Y-131960000D01*
X138730000Y-134040000D02*
X138730000Y-135876000D01*
X138770000Y-130145000D02*
X138770000Y-131960000D01*
X138770000Y-134040000D02*
X138770000Y-135855000D01*
X138810000Y-130166000D02*
X138810000Y-131960000D01*
X138810000Y-134040000D02*
X138810000Y-135834000D01*
X138850000Y-130188000D02*
X138850000Y-131960000D01*
X138850000Y-134040000D02*
X138850000Y-135812000D01*
X138890000Y-130211000D02*
X138890000Y-131960000D01*
X138890000Y-134040000D02*
X138890000Y-135789000D01*
X138930000Y-130235000D02*
X138930000Y-131960000D01*
X138930000Y-134040000D02*
X138930000Y-135765000D01*
X138970000Y-130259000D02*
X138970000Y-131960000D01*
X138970000Y-134040000D02*
X138970000Y-135741000D01*
X139010000Y-130284000D02*
X139010000Y-131960000D01*
X139010000Y-134040000D02*
X139010000Y-135716000D01*
X139050000Y-130310000D02*
X139050000Y-131960000D01*
X139050000Y-134040000D02*
X139050000Y-135690000D01*
X139090000Y-130337000D02*
X139090000Y-131960000D01*
X139090000Y-134040000D02*
X139090000Y-135663000D01*
X139130000Y-130364000D02*
X139130000Y-131960000D01*
X139130000Y-134040000D02*
X139130000Y-135636000D01*
X139170000Y-130393000D02*
X139170000Y-131960000D01*
X139170000Y-134040000D02*
X139170000Y-135607000D01*
X139210000Y-130423000D02*
X139210000Y-131960000D01*
X139210000Y-134040000D02*
X139210000Y-135577000D01*
X139250000Y-130453000D02*
X139250000Y-131960000D01*
X139250000Y-134040000D02*
X139250000Y-135547000D01*
X139290000Y-130484000D02*
X139290000Y-131960000D01*
X139290000Y-134040000D02*
X139290000Y-135516000D01*
X139330000Y-130517000D02*
X139330000Y-131960000D01*
X139330000Y-134040000D02*
X139330000Y-135483000D01*
X139370000Y-130550000D02*
X139370000Y-131960000D01*
X139370000Y-134040000D02*
X139370000Y-135450000D01*
X139410000Y-130585000D02*
X139410000Y-131960000D01*
X139410000Y-134040000D02*
X139410000Y-135415000D01*
X139450000Y-130621000D02*
X139450000Y-131960000D01*
X139450000Y-134040000D02*
X139450000Y-135379000D01*
X139490000Y-130658000D02*
X139490000Y-131960000D01*
X139490000Y-134040000D02*
X139490000Y-135342000D01*
X139530000Y-130696000D02*
X139530000Y-131960000D01*
X139530000Y-134040000D02*
X139530000Y-135304000D01*
X139570000Y-130736000D02*
X139570000Y-135264000D01*
X139610000Y-130777000D02*
X139610000Y-135223000D01*
X139650000Y-130819000D02*
X139650000Y-135181000D01*
X139690000Y-130863000D02*
X139690000Y-135137000D01*
X139730000Y-130909000D02*
X139730000Y-135091000D01*
X139770000Y-130956000D02*
X139770000Y-135044000D01*
X139810000Y-131005000D02*
X139810000Y-134995000D01*
X139850000Y-131057000D02*
X139850000Y-134943000D01*
X139890000Y-131110000D02*
X139890000Y-134890000D01*
X139930000Y-131166000D02*
X139930000Y-134834000D01*
X139970000Y-131225000D02*
X139970000Y-134775000D01*
X140010000Y-131286000D02*
X140010000Y-134714000D01*
X140050000Y-131351000D02*
X140050000Y-134649000D01*
X140090000Y-131419000D02*
X140090000Y-134581000D01*
X140130000Y-131491000D02*
X140130000Y-134509000D01*
X140170000Y-131568000D02*
X140170000Y-134432000D01*
X140210000Y-131650000D02*
X140210000Y-134350000D01*
X140250000Y-131739000D02*
X140250000Y-134261000D01*
X140290000Y-131835000D02*
X140290000Y-134165000D01*
X140330000Y-131942000D02*
X140330000Y-134058000D01*
X140370000Y-132061000D02*
X140370000Y-133939000D01*
X140410000Y-132199000D02*
X140410000Y-133801000D01*
X140450000Y-132367000D02*
X140450000Y-133633000D01*
X140490000Y-132598000D02*
X140490000Y-133402000D01*
X140520000Y-133000000D02*
G75*
G02*
X133980000Y-133000000I-3270000J0D01*
G01*
X133980000Y-133000000D02*
G75*
G02*
X140520000Y-133000000I3270000J0D01*
G01*
%TO.C,R3*%
X181040000Y-94000000D02*
X181810000Y-94000000D01*
X189120000Y-94000000D02*
X188350000Y-94000000D01*
X181810000Y-92630000D02*
X188350000Y-92630000D01*
X188350000Y-95370000D01*
X181810000Y-95370000D01*
X181810000Y-92630000D01*
%TO.C,J0*%
X110380000Y-129780000D02*
X116160000Y-129780000D01*
X110380000Y-130300000D02*
X116160000Y-130300000D01*
X110380000Y-135600000D02*
X110970000Y-135600000D01*
X110380000Y-136220000D02*
X110380000Y-129780000D01*
X110970000Y-136220000D02*
X110380000Y-136220000D01*
X113030000Y-135600000D02*
X113510000Y-135600000D01*
X113510000Y-136220000D02*
X113030000Y-136220000D01*
X115570000Y-135600000D02*
X116160000Y-135600000D01*
X116160000Y-129780000D02*
X116160000Y-136220000D01*
X116160000Y-136220000D02*
X115570000Y-136220000D01*
X112000000Y-136570000D02*
X112440000Y-137180000D01*
X111560000Y-137180000D01*
X112000000Y-136570000D01*
G36*
X112440000Y-137180000D02*
G01*
X111560000Y-137180000D01*
X112000000Y-136570000D01*
X112440000Y-137180000D01*
G37*
%TO.C,D2*%
X120210000Y-122455000D02*
X120210000Y-125545000D01*
X120210000Y-122455170D02*
G75*
G02*
X125760000Y-124000000I2560000J-1544830D01*
G01*
X125760000Y-124000000D02*
G75*
G02*
X120210000Y-125544830I-2990000J0D01*
G01*
X125270000Y-124000000D02*
G75*
G02*
X120270000Y-124000000I-2500000J0D01*
G01*
X120270000Y-124000000D02*
G75*
G02*
X125270000Y-124000000I2500000J0D01*
G01*
%TO.C,JP2*%
X116150000Y-96500000D02*
X120250000Y-96500000D01*
X116150000Y-98500000D02*
X116150000Y-96500000D01*
X116600000Y-99000000D02*
X117200000Y-99000000D01*
X116900000Y-98700000D02*
X116600000Y-99000000D01*
X116900000Y-98700000D02*
X117200000Y-99000000D01*
X120250000Y-96500000D02*
X120250000Y-98500000D01*
X120250000Y-98500000D02*
X116150000Y-98500000D01*
%TO.C,JP6*%
X127100000Y-126500000D02*
X129900000Y-126500000D01*
X127100000Y-128500000D02*
X127100000Y-126500000D01*
X129900000Y-126500000D02*
X129900000Y-128500000D01*
X129900000Y-128500000D02*
X127100000Y-128500000D01*
%TO.C,SW1*%
X138750000Y-121500000D02*
X138750000Y-123000000D01*
X140000000Y-125500000D02*
X144500000Y-125500000D01*
X144500000Y-119000000D02*
X140000000Y-119000000D01*
X145750000Y-123000000D02*
X145750000Y-121500000D01*
%TO.C,JP4*%
X159100000Y-117800000D02*
X161900000Y-117800000D01*
X159100000Y-119800000D02*
X159100000Y-117800000D01*
X161900000Y-117800000D02*
X161900000Y-119800000D01*
X161900000Y-119800000D02*
X159100000Y-119800000D01*
%TO.C,Q1*%
X176470000Y-67850000D02*
X180070000Y-67850000D01*
X176431522Y-67838478D02*
G75*
G02*
X178270000Y-63399999I1838478J1838478D01*
G01*
X178270000Y-63400000D02*
G75*
G02*
X180108478Y-67838478I0J-2600000D01*
G01*
%TO.C,C5*%
X175445225Y-120525000D02*
X175945225Y-120525000D01*
X175695225Y-120275000D02*
X175695225Y-120775000D01*
X178250000Y-119420000D02*
X178250000Y-124580000D01*
X178290000Y-119420000D02*
X178290000Y-124580000D01*
X178330000Y-119421000D02*
X178330000Y-124579000D01*
X178370000Y-119423000D02*
X178370000Y-124577000D01*
X178410000Y-119425000D02*
X178410000Y-124575000D01*
X178450000Y-119428000D02*
X178450000Y-124572000D01*
X178490000Y-119431000D02*
X178490000Y-120960000D01*
X178490000Y-123040000D02*
X178490000Y-124569000D01*
X178530000Y-119435000D02*
X178530000Y-120960000D01*
X178530000Y-123040000D02*
X178530000Y-124565000D01*
X178570000Y-119440000D02*
X178570000Y-120960000D01*
X178570000Y-123040000D02*
X178570000Y-124560000D01*
X178610000Y-119445000D02*
X178610000Y-120960000D01*
X178610000Y-123040000D02*
X178610000Y-124555000D01*
X178650000Y-119451000D02*
X178650000Y-120960000D01*
X178650000Y-123040000D02*
X178650000Y-124549000D01*
X178690000Y-119457000D02*
X178690000Y-120960000D01*
X178690000Y-123040000D02*
X178690000Y-124543000D01*
X178730000Y-119464000D02*
X178730000Y-120960000D01*
X178730000Y-123040000D02*
X178730000Y-124536000D01*
X178770000Y-119472000D02*
X178770000Y-120960000D01*
X178770000Y-123040000D02*
X178770000Y-124528000D01*
X178810000Y-119481000D02*
X178810000Y-120960000D01*
X178810000Y-123040000D02*
X178810000Y-124519000D01*
X178850000Y-119490000D02*
X178850000Y-120960000D01*
X178850000Y-123040000D02*
X178850000Y-124510000D01*
X178890000Y-119499000D02*
X178890000Y-120960000D01*
X178890000Y-123040000D02*
X178890000Y-124501000D01*
X178930000Y-119510000D02*
X178930000Y-120960000D01*
X178930000Y-123040000D02*
X178930000Y-124490000D01*
X178970000Y-119521000D02*
X178970000Y-120960000D01*
X178970000Y-123040000D02*
X178970000Y-124479000D01*
X179010000Y-119533000D02*
X179010000Y-120960000D01*
X179010000Y-123040000D02*
X179010000Y-124467000D01*
X179050000Y-119545000D02*
X179050000Y-120960000D01*
X179050000Y-123040000D02*
X179050000Y-124455000D01*
X179090000Y-119558000D02*
X179090000Y-120960000D01*
X179090000Y-123040000D02*
X179090000Y-124442000D01*
X179130000Y-119572000D02*
X179130000Y-120960000D01*
X179130000Y-123040000D02*
X179130000Y-124428000D01*
X179170000Y-119587000D02*
X179170000Y-120960000D01*
X179170000Y-123040000D02*
X179170000Y-124413000D01*
X179210000Y-119602000D02*
X179210000Y-120960000D01*
X179210000Y-123040000D02*
X179210000Y-124398000D01*
X179250000Y-119618000D02*
X179250000Y-120960000D01*
X179250000Y-123040000D02*
X179250000Y-124382000D01*
X179290000Y-119635000D02*
X179290000Y-120960000D01*
X179290000Y-123040000D02*
X179290000Y-124365000D01*
X179330000Y-119653000D02*
X179330000Y-120960000D01*
X179330000Y-123040000D02*
X179330000Y-124347000D01*
X179370000Y-119671000D02*
X179370000Y-120960000D01*
X179370000Y-123040000D02*
X179370000Y-124329000D01*
X179410000Y-119691000D02*
X179410000Y-120960000D01*
X179410000Y-123040000D02*
X179410000Y-124309000D01*
X179450000Y-119711000D02*
X179450000Y-120960000D01*
X179450000Y-123040000D02*
X179450000Y-124289000D01*
X179490000Y-119732000D02*
X179490000Y-120960000D01*
X179490000Y-123040000D02*
X179490000Y-124268000D01*
X179530000Y-119754000D02*
X179530000Y-120960000D01*
X179530000Y-123040000D02*
X179530000Y-124246000D01*
X179570000Y-119777000D02*
X179570000Y-120960000D01*
X179570000Y-123040000D02*
X179570000Y-124223000D01*
X179610000Y-119801000D02*
X179610000Y-120960000D01*
X179610000Y-123040000D02*
X179610000Y-124199000D01*
X179650000Y-119825000D02*
X179650000Y-120960000D01*
X179650000Y-123040000D02*
X179650000Y-124175000D01*
X179690000Y-119851000D02*
X179690000Y-120960000D01*
X179690000Y-123040000D02*
X179690000Y-124149000D01*
X179730000Y-119878000D02*
X179730000Y-120960000D01*
X179730000Y-123040000D02*
X179730000Y-124122000D01*
X179770000Y-119906000D02*
X179770000Y-120960000D01*
X179770000Y-123040000D02*
X179770000Y-124094000D01*
X179810000Y-119935000D02*
X179810000Y-120960000D01*
X179810000Y-123040000D02*
X179810000Y-124065000D01*
X179850000Y-119965000D02*
X179850000Y-120960000D01*
X179850000Y-123040000D02*
X179850000Y-124035000D01*
X179890000Y-119997000D02*
X179890000Y-120960000D01*
X179890000Y-123040000D02*
X179890000Y-124003000D01*
X179930000Y-120030000D02*
X179930000Y-120960000D01*
X179930000Y-123040000D02*
X179930000Y-123970000D01*
X179970000Y-120064000D02*
X179970000Y-120960000D01*
X179970000Y-123040000D02*
X179970000Y-123936000D01*
X180010000Y-120099000D02*
X180010000Y-120960000D01*
X180010000Y-123040000D02*
X180010000Y-123901000D01*
X180050000Y-120136000D02*
X180050000Y-120960000D01*
X180050000Y-123040000D02*
X180050000Y-123864000D01*
X180090000Y-120175000D02*
X180090000Y-120960000D01*
X180090000Y-123040000D02*
X180090000Y-123825000D01*
X180130000Y-120215000D02*
X180130000Y-120960000D01*
X180130000Y-123040000D02*
X180130000Y-123785000D01*
X180170000Y-120257000D02*
X180170000Y-120960000D01*
X180170000Y-123040000D02*
X180170000Y-123743000D01*
X180210000Y-120301000D02*
X180210000Y-120960000D01*
X180210000Y-123040000D02*
X180210000Y-123699000D01*
X180250000Y-120348000D02*
X180250000Y-120960000D01*
X180250000Y-123040000D02*
X180250000Y-123652000D01*
X180290000Y-120396000D02*
X180290000Y-120960000D01*
X180290000Y-123040000D02*
X180290000Y-123604000D01*
X180330000Y-120447000D02*
X180330000Y-120960000D01*
X180330000Y-123040000D02*
X180330000Y-123553000D01*
X180370000Y-120501000D02*
X180370000Y-120960000D01*
X180370000Y-123040000D02*
X180370000Y-123499000D01*
X180410000Y-120557000D02*
X180410000Y-120960000D01*
X180410000Y-123040000D02*
X180410000Y-123443000D01*
X180450000Y-120617000D02*
X180450000Y-120960000D01*
X180450000Y-123040000D02*
X180450000Y-123383000D01*
X180490000Y-120681000D02*
X180490000Y-120960000D01*
X180490000Y-123040000D02*
X180490000Y-123319000D01*
X180530000Y-120749000D02*
X180530000Y-120960000D01*
X180530000Y-123040000D02*
X180530000Y-123251000D01*
X180570000Y-120823000D02*
X180570000Y-123177000D01*
X180610000Y-120902000D02*
X180610000Y-123098000D01*
X180650000Y-120989000D02*
X180650000Y-123011000D01*
X180690000Y-121086000D02*
X180690000Y-122914000D01*
X180730000Y-121195000D02*
X180730000Y-122805000D01*
X180770000Y-121323000D02*
X180770000Y-122677000D01*
X180810000Y-121483000D02*
X180810000Y-122517000D01*
X180850000Y-121717000D02*
X180850000Y-122283000D01*
X180870000Y-122000000D02*
G75*
G02*
X175630000Y-122000000I-2620000J0D01*
G01*
X175630000Y-122000000D02*
G75*
G02*
X180870000Y-122000000I2620000J0D01*
G01*
%TO.C,J1*%
X137240000Y-89840000D02*
X137240000Y-112760000D01*
X137240000Y-89840000D02*
X139900000Y-89840000D01*
X137240000Y-112760000D02*
X139900000Y-112760000D01*
X138570000Y-87240000D02*
X139900000Y-87240000D01*
X139900000Y-87240000D02*
X139900000Y-88570000D01*
X139900000Y-89840000D02*
X139900000Y-112760000D01*
%TO.C,J14*%
X123620000Y-61620000D02*
X125000000Y-61620000D01*
X123620000Y-63000000D02*
X123620000Y-61620000D01*
X123620000Y-64270000D02*
X123620000Y-66920000D01*
X123620000Y-64270000D02*
X126380000Y-64270000D01*
X123620000Y-66920000D02*
X126380000Y-66920000D01*
X126380000Y-64270000D02*
X126380000Y-66920000D01*
%TO.C,C9*%
X155030000Y-64630000D02*
X159970000Y-64630000D01*
X155030000Y-64960000D02*
X155030000Y-64630000D01*
X155030000Y-67370000D02*
X155030000Y-67040000D01*
X159970000Y-64630000D02*
X159970000Y-64960000D01*
X159970000Y-67040000D02*
X159970000Y-67370000D01*
X159970000Y-67370000D02*
X155030000Y-67370000D01*
%TO.C,J2*%
X160100000Y-89840000D02*
X160100000Y-112760000D01*
X160100000Y-89840000D02*
X162760000Y-89840000D01*
X160100000Y-112760000D02*
X162760000Y-112760000D01*
X161430000Y-87240000D02*
X162760000Y-87240000D01*
X162760000Y-87240000D02*
X162760000Y-88570000D01*
X162760000Y-89840000D02*
X162760000Y-112760000D01*
%TD*%
%LPC*%
%TO.C,JP1*%
G36*
X117275000Y-91250000D02*
G01*
X119725000Y-91250000D01*
X119725000Y-92750000D01*
X117275000Y-92750000D01*
X117275000Y-91250000D01*
G37*
%TO.C,JP3*%
G36*
X175775000Y-127250000D02*
G01*
X178225000Y-127250000D01*
X178225000Y-128750000D01*
X175775000Y-128750000D01*
X175775000Y-127250000D01*
G37*
%TO.C,JP5*%
G36*
X159275000Y-122250000D02*
G01*
X161725000Y-122250000D01*
X161725000Y-123750000D01*
X159275000Y-123750000D01*
X159275000Y-122250000D01*
G37*
%TO.C,JP2*%
G36*
X117400000Y-96750000D02*
G01*
X119000000Y-96750000D01*
X119000000Y-98250000D01*
X117400000Y-98250000D01*
X117400000Y-96750000D01*
G37*
%TO.C,JP6*%
G36*
X127275000Y-126750000D02*
G01*
X129725000Y-126750000D01*
X129725000Y-128250000D01*
X127275000Y-128250000D01*
X127275000Y-126750000D01*
G37*
%TO.C,JP4*%
G36*
X159275000Y-118050000D02*
G01*
X161725000Y-118050000D01*
X161725000Y-119550000D01*
X159275000Y-119550000D01*
X159275000Y-118050000D01*
G37*
%TD*%
D15*
%TO.C,C2*%
X140000000Y-74000000D03*
D16*
X142500000Y-74000000D03*
%TD*%
D17*
%TO.C,C6*%
X181000000Y-103000000D03*
D18*
X186000000Y-103000000D03*
%TD*%
D15*
%TO.C,SW2*%
X123000000Y-133000000D03*
D16*
X130620000Y-133000000D03*
%TD*%
D19*
%TO.C,J9*%
X131000000Y-90000000D03*
D20*
X131000000Y-92540000D03*
X131000000Y-95080000D03*
X131000000Y-97620000D03*
%TD*%
D16*
%TO.C,R2*%
X168000000Y-76000000D03*
X178160000Y-76000000D03*
%TD*%
%TO.C,C4*%
X176000000Y-116000000D03*
X181000000Y-116000000D03*
%TD*%
D19*
%TO.C,J13*%
X150000000Y-118500000D03*
D20*
X150000000Y-121040000D03*
X150000000Y-123580000D03*
%TD*%
D17*
%TO.C,C3*%
X111000000Y-116000000D03*
D18*
X116000000Y-116000000D03*
%TD*%
D19*
%TO.C,J5*%
X187500000Y-115000000D03*
D20*
X187500000Y-117540000D03*
X187500000Y-120080000D03*
X187500000Y-122620000D03*
X187500000Y-125160000D03*
X187500000Y-127700000D03*
%TD*%
D16*
%TO.C,R9*%
X110000000Y-63500000D03*
X120160000Y-63500000D03*
%TD*%
D19*
%TO.C,J8*%
X194000000Y-95000000D03*
D20*
X194000000Y-97540000D03*
X194000000Y-100080000D03*
%TD*%
D19*
%TO.C,J12*%
X155500000Y-119000000D03*
D20*
X155500000Y-121540000D03*
%TD*%
D21*
%TO.C,JP1*%
X117775000Y-92000000D03*
D22*
X119225000Y-92000000D03*
%TD*%
D19*
%TO.C,J3*%
X112500000Y-92000000D03*
D20*
X112500000Y-94540000D03*
X112500000Y-97080000D03*
X112500000Y-99620000D03*
X112500000Y-102160000D03*
X112500000Y-104700000D03*
X112500000Y-107240000D03*
%TD*%
D23*
%TO.C,H4*%
X195500000Y-135500000D03*
%TD*%
%TO.C,H1*%
X104500000Y-64500000D03*
%TD*%
%TO.C,H2*%
X195500000Y-64500000D03*
%TD*%
D21*
%TO.C,JP3*%
X176275000Y-128000000D03*
D22*
X177725000Y-128000000D03*
%TD*%
D16*
%TO.C,R1*%
X168000000Y-71500000D03*
X178160000Y-71500000D03*
%TD*%
D19*
%TO.C,J7*%
X188000000Y-63500000D03*
D20*
X188000000Y-66040000D03*
%TD*%
D21*
%TO.C,JP5*%
X159775000Y-123000000D03*
D22*
X161225000Y-123000000D03*
%TD*%
D23*
%TO.C,H3*%
X104500000Y-135500000D03*
%TD*%
D16*
%TO.C,R7*%
X104000000Y-124000000D03*
X114160000Y-124000000D03*
%TD*%
D19*
%TO.C,J6*%
X146500000Y-63000000D03*
D20*
X149040000Y-63000000D03*
X151580000Y-63000000D03*
%TD*%
D15*
%TO.C,C1*%
X136000000Y-133000000D03*
D16*
X138500000Y-133000000D03*
%TD*%
%TO.C,R3*%
X180000000Y-94000000D03*
X190160000Y-94000000D03*
%TD*%
D24*
%TO.C,J0*%
X112000000Y-135540000D03*
X114540000Y-135540000D03*
D25*
X112000000Y-133000000D03*
D26*
X114540000Y-133000000D03*
%TD*%
D27*
%TO.C,D2*%
X121500000Y-124000000D03*
D28*
X124040000Y-124000000D03*
%TD*%
D29*
%TO.C,JP2*%
X116900000Y-97500000D03*
X118200000Y-97500000D03*
X119500000Y-97500000D03*
%TD*%
D21*
%TO.C,JP6*%
X127775000Y-127500000D03*
D22*
X129225000Y-127500000D03*
%TD*%
D18*
%TO.C,SW1*%
X139000000Y-120000000D03*
X145500000Y-120000000D03*
X139000000Y-124500000D03*
X145500000Y-124500000D03*
%TD*%
D21*
%TO.C,JP4*%
X159775000Y-118800000D03*
D22*
X161225000Y-118800000D03*
%TD*%
D30*
%TO.C,Q1*%
X177000000Y-66000000D03*
D31*
X178270000Y-66000000D03*
X179540000Y-66000000D03*
%TD*%
D15*
%TO.C,C5*%
X177000000Y-122000000D03*
D16*
X179500000Y-122000000D03*
%TD*%
D19*
%TO.C,J1*%
X138570000Y-88570000D03*
D20*
X138570000Y-91110000D03*
X138570000Y-93650000D03*
X138570000Y-96190000D03*
X138570000Y-98730000D03*
X138570000Y-101270000D03*
X138570000Y-103810000D03*
X138570000Y-106350000D03*
X138570000Y-108890000D03*
X138570000Y-111430000D03*
%TD*%
D19*
%TO.C,J14*%
X125000000Y-63000000D03*
D20*
X125000000Y-65540000D03*
%TD*%
D16*
%TO.C,C9*%
X155000000Y-66000000D03*
X160000000Y-66000000D03*
%TD*%
D19*
%TO.C,J2*%
X161430000Y-88570000D03*
D20*
X161430000Y-91110000D03*
X161430000Y-93650000D03*
X161430000Y-96190000D03*
X161430000Y-98730000D03*
X161430000Y-101270000D03*
X161430000Y-103810000D03*
X161430000Y-106350000D03*
X161430000Y-108890000D03*
X161430000Y-111430000D03*
%TD*%
%LPD*%
M02*
