%TF.GenerationSoftware,KiCad,Pcbnew,10.0.3*%
%TF.CreationDate,2026-07-12T16:56:33+01:00*%
%TF.ProjectId,default,64656661-756c-4742-9e6b-696361645f70,rev?*%
%TF.SameCoordinates,Original*%
%TF.FileFunction,Copper,L1,Top*%
%TF.FilePolarity,Positive*%
%FSLAX46Y46*%
G04 Gerber Fmt 4.6, Leading zero omitted, Abs format (unit mm)*
G04 Created by KiCad (PCBNEW 10.0.3) date 2026-07-12 16:56:33*
%MOMM*%
%LPD*%
G01*
G04 APERTURE LIST*
G04 Aperture macros list*
%AMRoundRect*
0 Rectangle with rounded corners*
0 $1 Rounding radius*
0 $2 $3 $4 $5 $6 $7 $8 $9 X,Y pos of 4 corners*
0 Add a 4 corners polygon primitive as box body*
4,1,4,$2,$3,$4,$5,$6,$7,$8,$9,$2,$3,0*
0 Add four circle primitives for the rounded corners*
1,1,$1+$1,$2,$3*
1,1,$1+$1,$4,$5*
1,1,$1+$1,$6,$7*
1,1,$1+$1,$8,$9*
0 Add four rect primitives between the rounded corners*
20,1,$1+$1,$2,$3,$4,$5,0*
20,1,$1+$1,$4,$5,$6,$7,0*
20,1,$1+$1,$6,$7,$8,$9,0*
20,1,$1+$1,$8,$9,$2,$3,0*%
%AMFreePoly0*
4,1,6,1.000000,0.000000,0.500000,-0.750000,-0.500000,-0.750000,-0.500000,0.750000,0.500000,0.750000,1.000000,0.000000,1.000000,0.000000,$1*%
%AMFreePoly1*
4,1,6,0.500000,-0.750000,-0.650000,-0.750000,-0.150000,0.000000,-0.650000,0.750000,0.500000,0.750000,0.500000,-0.750000,0.500000,-0.750000,$1*%
G04 Aperture macros list end*
%TA.AperFunction,ComponentPad*%
%ADD10RoundRect,0.250000X-0.550000X-0.550000X0.550000X-0.550000X0.550000X0.550000X-0.550000X0.550000X0*%
%TD*%
%TA.AperFunction,ComponentPad*%
%ADD11C,1.600000*%
%TD*%
%TA.AperFunction,ComponentPad*%
%ADD12R,1.700000X1.700000*%
%TD*%
%TA.AperFunction,ComponentPad*%
%ADD13C,1.700000*%
%TD*%
%TA.AperFunction,ComponentPad*%
%ADD14RoundRect,0.250000X-0.750000X-0.750000X0.750000X-0.750000X0.750000X0.750000X-0.750000X0.750000X0*%
%TD*%
%TA.AperFunction,ComponentPad*%
%ADD15C,2.000000*%
%TD*%
%TA.AperFunction,SMDPad,CuDef*%
%ADD16FreePoly0,0.000000*%
%TD*%
%TA.AperFunction,SMDPad,CuDef*%
%ADD17FreePoly1,0.000000*%
%TD*%
%TA.AperFunction,ComponentPad*%
%ADD18RoundRect,0.249999X-0.850001X-0.850001X0.850001X-0.850001X0.850001X0.850001X-0.850001X0.850001X0*%
%TD*%
%TA.AperFunction,ComponentPad*%
%ADD19C,2.200000*%
%TD*%
%TA.AperFunction,ComponentPad*%
%ADD20R,1.800000X1.800000*%
%TD*%
%TA.AperFunction,ComponentPad*%
%ADD21C,1.800000*%
%TD*%
%TA.AperFunction,SMDPad,CuDef*%
%ADD22R,1.000000X1.500000*%
%TD*%
%TA.AperFunction,ComponentPad*%
%ADD23R,1.050000X1.500000*%
%TD*%
%TA.AperFunction,ComponentPad*%
%ADD24O,1.050000X1.500000*%
%TD*%
%TA.AperFunction,ViaPad*%
%ADD25C,0.800000*%
%TD*%
%TA.AperFunction,Conductor*%
%ADD26C,0.500000*%
%TD*%
%TA.AperFunction,Conductor*%
%ADD27C,0.250000*%
%TD*%
G04 APERTURE END LIST*
D10*
%TO.P,C2,1*%
%TO.N,VCC3V3*%
X140000000Y-74000000D03*
D11*
%TO.P,C2,2*%
%TO.N,GND*%
X142500000Y-74000000D03*
%TD*%
D12*
%TO.P,J4,1*%
%TO.N,audio-_1*%
X118500000Y-103000000D03*
D13*
%TO.P,J4,2*%
%TO.N,audio-_2*%
X118500000Y-105540000D03*
%TD*%
D14*
%TO.P,C6,1*%
%TO.N,VCC5*%
X181000000Y-103000000D03*
D15*
%TO.P,C6,2*%
%TO.N,GND*%
X186000000Y-103000000D03*
%TD*%
D10*
%TO.P,SW2,1*%
%TO.N,VCC5_IN*%
X123000000Y-133000000D03*
D11*
%TO.P,SW2,2*%
%TO.N,VCC5*%
X130620000Y-133000000D03*
%TD*%
D12*
%TO.P,J9,1*%
%TO.N,VCC3V3*%
X131000000Y-90000000D03*
D13*
%TO.P,J9,2*%
%TO.N,GND*%
X131000000Y-92540000D03*
%TO.P,J9,3*%
%TO.N,i2c_sda*%
X131000000Y-95080000D03*
%TO.P,J9,4*%
%TO.N,i2c_scl*%
X131000000Y-97620000D03*
%TD*%
D11*
%TO.P,R2,1*%
%TO.N,VCC5*%
X168000000Y-76000000D03*
%TO.P,R2,2*%
%TO.N,footprint-_1*%
X178160000Y-76000000D03*
%TD*%
%TO.P,C4,1*%
%TO.N,sd_vdd*%
X176000000Y-116000000D03*
%TO.P,C4,2*%
%TO.N,GND*%
X181000000Y-116000000D03*
%TD*%
D12*
%TO.P,J13,1*%
%TO.N,footprint-b*%
X150000000Y-118500000D03*
D13*
%TO.P,J13,2*%
%TO.N,VCC3V3*%
X150000000Y-121040000D03*
%TO.P,J13,3*%
%TO.N,GND*%
X150000000Y-123580000D03*
%TD*%
D14*
%TO.P,C3,1*%
%TO.N,VCC5*%
X111000000Y-116000000D03*
D15*
%TO.P,C3,2*%
%TO.N,GND*%
X116000000Y-116000000D03*
%TD*%
D12*
%TO.P,J5,1*%
%TO.N,sd_vdd*%
X187500000Y-115000000D03*
D13*
%TO.P,J5,2*%
%TO.N,sd_cs*%
X187500000Y-117540000D03*
%TO.P,J5,3*%
%TO.N,sd_mosi*%
X187500000Y-120080000D03*
%TO.P,J5,4*%
%TO.N,sd_sck*%
X187500000Y-122620000D03*
%TO.P,J5,5*%
%TO.N,sd_miso*%
X187500000Y-125160000D03*
%TO.P,J5,6*%
%TO.N,GND*%
X187500000Y-127700000D03*
%TD*%
D11*
%TO.P,R9,1*%
%TO.N,ACT_LED*%
X110000000Y-63500000D03*
%TO.P,R9,2*%
%TO.N,act_led_a*%
X120160000Y-63500000D03*
%TD*%
D12*
%TO.P,J8,1*%
%TO.N,VCC5*%
X194000000Y-95000000D03*
D13*
%TO.P,J8,2*%
%TO.N,footprint-_2*%
X194000000Y-97540000D03*
%TO.P,J8,3*%
%TO.N,GND*%
X194000000Y-100080000D03*
%TD*%
D12*
%TO.P,J12,1*%
%TO.N,footprint-a*%
X155500000Y-119000000D03*
D13*
%TO.P,J12,2*%
%TO.N,GND*%
X155500000Y-121540000D03*
%TD*%
D16*
%TO.P,JP1,1*%
%TO.N,audio-a*%
X117775000Y-92000000D03*
D17*
%TO.P,JP1,2*%
%TO.N,audio-b*%
X119225000Y-92000000D03*
%TD*%
D12*
%TO.P,J3,1*%
%TO.N,i2s_ws*%
X112500000Y-92000000D03*
D13*
%TO.P,J3,2*%
%TO.N,i2s_bclk*%
X112500000Y-94540000D03*
%TO.P,J3,3*%
%TO.N,i2s_din*%
X112500000Y-97080000D03*
%TO.P,J3,4*%
%TO.N,common*%
X112500000Y-99620000D03*
%TO.P,J3,5*%
%TO.N,audio-b*%
X112500000Y-102160000D03*
%TO.P,J3,6*%
%TO.N,GND*%
X112500000Y-104700000D03*
%TO.P,J3,7*%
%TO.N,VCC5*%
X112500000Y-107240000D03*
%TD*%
D16*
%TO.P,JP3,1*%
%TO.N,sd_vdd*%
X176275000Y-128000000D03*
D17*
%TO.P,JP3,2*%
%TO.N,VCC3V3*%
X177725000Y-128000000D03*
%TD*%
D11*
%TO.P,R1,1*%
%TO.N,ir_tx*%
X168000000Y-71500000D03*
%TO.P,R1,2*%
%TO.N,base*%
X178160000Y-71500000D03*
%TD*%
D12*
%TO.P,J7,1*%
%TO.N,footprint-_1*%
X188000000Y-63500000D03*
D13*
%TO.P,J7,2*%
%TO.N,collector*%
X188000000Y-66040000D03*
%TD*%
D16*
%TO.P,JP5,1*%
%TO.N,audio-a*%
X159775000Y-123000000D03*
D17*
%TO.P,JP5,2*%
%TO.N,footprint-b*%
X161225000Y-123000000D03*
%TD*%
D11*
%TO.P,R7,1*%
%TO.N,VCC5*%
X104000000Y-124000000D03*
%TO.P,R7,2*%
%TO.N,anode*%
X114160000Y-124000000D03*
%TD*%
D12*
%TO.P,J6,1*%
%TO.N,ir_rx*%
X146500000Y-63000000D03*
D13*
%TO.P,J6,2*%
%TO.N,GND*%
X149040000Y-63000000D03*
%TO.P,J6,3*%
%TO.N,VCC3V3*%
X151580000Y-63000000D03*
%TD*%
D10*
%TO.P,C1,1*%
%TO.N,VCC5*%
X136000000Y-133000000D03*
D11*
%TO.P,C1,2*%
%TO.N,GND*%
X138500000Y-133000000D03*
%TD*%
%TO.P,R3,1*%
%TO.N,ws_data*%
X180000000Y-94000000D03*
%TO.P,R3,2*%
%TO.N,footprint-_2*%
X190160000Y-94000000D03*
%TD*%
D18*
%TO.P,J0,1*%
%TO.N,VCC5_IN*%
X112000000Y-133000000D03*
D19*
%TO.P,J0,2*%
%TO.N,GND*%
X114540000Y-133000000D03*
%TD*%
D20*
%TO.P,D2,1*%
%TO.N,anode*%
X121500000Y-124000000D03*
D21*
%TO.P,D2,2*%
%TO.N,GND*%
X124040000Y-124000000D03*
%TD*%
D22*
%TO.P,JP2,1*%
%TO.N,GND*%
X116900000Y-97500000D03*
%TO.P,JP2,2*%
%TO.N,common*%
X118200000Y-97500000D03*
%TO.P,JP2,3*%
%TO.N,VCC5*%
X119500000Y-97500000D03*
%TD*%
D16*
%TO.P,JP6,1*%
%TO.N,VCC5_IN*%
X127775000Y-127500000D03*
D17*
%TO.P,JP6,2*%
%TO.N,VCC5*%
X129225000Y-127500000D03*
%TD*%
D15*
%TO.P,SW1,1*%
%TO.N,footprint-a*%
X139000000Y-120000000D03*
X145500000Y-120000000D03*
%TO.P,SW1,2*%
%TO.N,GND*%
X139000000Y-124500000D03*
X145500000Y-124500000D03*
%TD*%
D16*
%TO.P,JP4,1*%
%TO.N,audio-a*%
X159775000Y-118800000D03*
D17*
%TO.P,JP4,2*%
%TO.N,footprint-a*%
X161225000Y-118800000D03*
%TD*%
D23*
%TO.P,Q1,1*%
%TO.N,GND*%
X177000000Y-66000000D03*
D24*
%TO.P,Q1,2*%
%TO.N,base*%
X178270000Y-66000000D03*
%TO.P,Q1,3*%
%TO.N,collector*%
X179540000Y-66000000D03*
%TD*%
D10*
%TO.P,C5,1*%
%TO.N,sd_vdd*%
X177000000Y-122000000D03*
D11*
%TO.P,C5,2*%
%TO.N,GND*%
X179500000Y-122000000D03*
%TD*%
D12*
%TO.P,J1,1*%
%TO.N,VCC5*%
X138570000Y-88570000D03*
D13*
%TO.P,J1,2*%
%TO.N,GND*%
X138570000Y-91110000D03*
%TO.P,J1,3*%
%TO.N,VCC3V3*%
X138570000Y-93650000D03*
%TO.P,J1,4*%
%TO.N,ACT_LED*%
X138570000Y-96190000D03*
%TO.P,J1,5*%
%TO.N,ws_data*%
X138570000Y-98730000D03*
%TO.P,J1,6*%
%TO.N,i2c_scl*%
X138570000Y-101270000D03*
%TO.P,J1,7*%
%TO.N,i2c_sda*%
X138570000Y-103810000D03*
%TO.P,J1,8*%
%TO.N,footprint-_8-0*%
X138570000Y-106350000D03*
%TO.P,J1,9*%
%TO.N,audio-a*%
X138570000Y-108890000D03*
%TO.P,J1,10*%
%TO.N,ir_rx*%
X138570000Y-111430000D03*
%TD*%
D12*
%TO.P,J14,1*%
%TO.N,act_led_a*%
X125000000Y-63000000D03*
D13*
%TO.P,J14,2*%
%TO.N,GND*%
X125000000Y-65540000D03*
%TD*%
D11*
%TO.P,C9,1*%
%TO.N,VCC3V3*%
X155000000Y-66000000D03*
%TO.P,C9,2*%
%TO.N,GND*%
X160000000Y-66000000D03*
%TD*%
D12*
%TO.P,J2,1*%
%TO.N,sd_sck*%
X161430000Y-88570000D03*
D13*
%TO.P,J2,2*%
%TO.N,sd_mosi*%
X161430000Y-91110000D03*
%TO.P,J2,3*%
%TO.N,sd_miso*%
X161430000Y-93650000D03*
%TO.P,J2,4*%
%TO.N,sd_cs*%
X161430000Y-96190000D03*
%TO.P,J2,5*%
%TO.N,ir_tx*%
X161430000Y-98730000D03*
%TO.P,J2,6*%
%TO.N,i2s_bclk*%
X161430000Y-101270000D03*
%TO.P,J2,7*%
%TO.N,i2s_ws*%
X161430000Y-103810000D03*
%TO.P,J2,8*%
%TO.N,i2s_din*%
X161430000Y-106350000D03*
%TO.P,J2,9*%
%TO.N,_9*%
X161430000Y-108890000D03*
%TO.P,J2,10*%
%TO.N,_10*%
X161430000Y-111430000D03*
%TD*%
D25*
%TO.N,sd_cs*%
X187741000Y-102421000D03*
%TO.N,sd_mosi*%
X163571000Y-118713000D03*
%TO.N,sd_sck*%
X179796000Y-91723200D03*
%TO.N,sd_miso*%
X184113000Y-96781600D03*
%TO.N,ACT_LED*%
X121448000Y-95829200D03*
%TO.N,audio-a*%
X136153000Y-95207900D03*
%TO.N,audio-b*%
X120524000Y-92068300D03*
%TO.N,i2s_bclk*%
X158902000Y-91378600D03*
%TO.N,ir_rx*%
X144219900Y-107246500D03*
%TD*%
%TO.N,VCC3V3*%
D26*
X150000000Y-68080000D02*
X145920000Y-68080000D01*
X155000000Y-66000000D02*
X152920000Y-68080000D01*
X148806000Y-122234000D02*
X150000000Y-121040000D01*
X145920000Y-68080000D02*
X140000000Y-74000000D01*
D27*
X153812000Y-129077000D02*
X148806000Y-124070000D01*
D26*
X152920000Y-68080000D02*
X150000000Y-68080000D01*
D27*
X148806000Y-124070000D02*
X148806000Y-122234000D01*
X177725000Y-128000000D02*
X177725000Y-129077000D01*
X177725000Y-129077000D02*
X153812000Y-129077000D01*
%TO.N,GND*%
X138570000Y-91110000D02*
X132430000Y-91110000D01*
X160000000Y-66000000D02*
X158858000Y-64857600D01*
D26*
X145500000Y-124500000D02*
X139000000Y-124500000D01*
X187500000Y-127700000D02*
X185200000Y-127700000D01*
X150000000Y-65540000D02*
X125000000Y-65540000D01*
D27*
X186147000Y-103147000D02*
X190933000Y-103147000D01*
D26*
X178308000Y-120808000D02*
X179500000Y-122000000D01*
X177000000Y-66000000D02*
X160000000Y-66000000D01*
X185200000Y-127700000D02*
X179500000Y-122000000D01*
X150682000Y-64857600D02*
X150000000Y-65540000D01*
X132430000Y-91110000D02*
X131000000Y-92540000D01*
X190933000Y-103147000D02*
X194000000Y-100080000D01*
D27*
X186000000Y-103000000D02*
X186147000Y-103147000D01*
D26*
X152040000Y-121540000D02*
X150000000Y-123580000D01*
D27*
X175825000Y-120808000D02*
X178308000Y-120808000D01*
D26*
X139000000Y-124500000D02*
X124540000Y-124500000D01*
X124540000Y-124500000D02*
X124040000Y-124000000D01*
D27*
X171588000Y-125045000D02*
X175825000Y-120808000D01*
D26*
X116900000Y-100300000D02*
X112500000Y-104700000D01*
X116900000Y-97500000D02*
X116900000Y-100300000D01*
D27*
X158858000Y-64857600D02*
X150682000Y-64857600D01*
D26*
X155500000Y-121540000D02*
X152040000Y-121540000D01*
D27*
X150000000Y-123580000D02*
X151465000Y-125045000D01*
X151465000Y-125045000D02*
X171588000Y-125045000D01*
%TO.N,VCC5*%
D26*
X113865000Y-104997000D02*
X113865000Y-105875000D01*
D27*
X106423000Y-126423000D02*
X129225000Y-126423000D01*
D26*
X138570000Y-88570000D02*
X155430000Y-88570000D01*
D27*
X194000000Y-95000000D02*
X192823000Y-95000000D01*
D26*
X130052000Y-127500000D02*
X130052000Y-132432000D01*
X182882000Y-103000000D02*
X181000000Y-103000000D01*
X155430000Y-88570000D02*
X168000000Y-76000000D01*
X129225000Y-127500000D02*
X130052000Y-127500000D01*
X113865000Y-105875000D02*
X112500000Y-107240000D01*
X130052000Y-132432000D02*
X130620000Y-133000000D01*
D27*
X104000000Y-124000000D02*
X106423000Y-126423000D01*
X192823000Y-95000000D02*
X190882000Y-95000000D01*
D26*
X119500000Y-97500000D02*
X119500000Y-99362000D01*
D27*
X190882000Y-95000000D02*
X182882000Y-103000000D01*
D26*
X119500000Y-99362000D02*
X113865000Y-104997000D01*
X129225000Y-127500000D02*
X129225000Y-126423000D01*
X136000000Y-133000000D02*
X130620000Y-133000000D01*
%TO.N,VCC5_IN*%
D27*
X113439000Y-131561000D02*
X121561000Y-131561000D01*
X112000000Y-133000000D02*
X113439000Y-131561000D01*
D26*
X127775000Y-127500000D02*
X122638000Y-132638000D01*
X121561000Y-131561000D02*
X123000000Y-133000000D01*
X121561000Y-131561000D02*
X122638000Y-132638000D01*
%TO.N,i2c_scl*%
D27*
X131000000Y-97620000D02*
X134650000Y-101270000D01*
X134650000Y-101270000D02*
X138570000Y-101270000D01*
%TO.N,sd_vdd*%
D26*
X177000000Y-122000000D02*
X176275000Y-122725000D01*
D27*
X186194000Y-114870000D02*
X177130000Y-114870000D01*
D26*
X176275000Y-122725000D02*
X176275000Y-128000000D01*
X177130000Y-114870000D02*
X176000000Y-116000000D01*
D27*
X186323000Y-115000000D02*
X186194000Y-114870000D01*
X187500000Y-115000000D02*
X186323000Y-115000000D01*
%TO.N,footprint-b*%
X159106000Y-124077000D02*
X157766000Y-122737000D01*
X157766000Y-122737000D02*
X157766000Y-121093000D01*
X151177000Y-118500000D02*
X150000000Y-118500000D01*
X151853000Y-117823000D02*
X151177000Y-118500000D01*
X157766000Y-121093000D02*
X157580000Y-120908000D01*
X156561000Y-117823000D02*
X151853000Y-117823000D01*
X157580000Y-118842000D02*
X156561000Y-117823000D01*
X161225000Y-124077000D02*
X159106000Y-124077000D01*
X157580000Y-120908000D02*
X157580000Y-118842000D01*
X161225000Y-123000000D02*
X161225000Y-124077000D01*
%TO.N,sd_cs*%
X169568000Y-104328000D02*
X182486000Y-104328000D01*
X185178000Y-101636000D02*
X186956000Y-101636000D01*
X161430000Y-96190000D02*
X169568000Y-104328000D01*
X182486000Y-104328000D02*
X185178000Y-101636000D01*
X186956000Y-101636000D02*
X187741000Y-102421000D01*
%TO.N,sd_mosi*%
X186133000Y-118713000D02*
X187500000Y-120080000D01*
X163571000Y-118713000D02*
X186133000Y-118713000D01*
%TO.N,sd_sck*%
X165760000Y-91723200D02*
X162607000Y-88570000D01*
X162607000Y-88570000D02*
X161430000Y-88570000D01*
X179796000Y-91723200D02*
X165760000Y-91723200D01*
%TO.N,sd_miso*%
X164562000Y-96781600D02*
X161430000Y-93650000D01*
X184113000Y-96781600D02*
X164562000Y-96781600D01*
%TO.N,ACT_LED*%
X121888000Y-96270000D02*
X138490000Y-96270000D01*
D26*
X138490000Y-96270000D02*
X138570000Y-96190000D01*
D27*
X121448000Y-95829200D02*
X121888000Y-96270000D01*
%TO.N,act_led_a*%
X125000000Y-63000000D02*
X120660000Y-63000000D01*
X120660000Y-63000000D02*
X120160000Y-63500000D01*
%TO.N,footprint-a*%
X157128000Y-121504000D02*
X155988000Y-120363000D01*
X155988000Y-120363000D02*
X155687000Y-120363000D01*
X154323000Y-119000000D02*
X153553000Y-119770000D01*
X155500000Y-119000000D02*
X154323000Y-119000000D01*
X153553000Y-119770000D02*
X145730000Y-119770000D01*
X139000000Y-120000000D02*
X145500000Y-120000000D01*
X155687000Y-120363000D02*
X154323000Y-119000000D01*
X158938000Y-124550000D02*
X157128000Y-122740000D01*
X161436000Y-124550000D02*
X158938000Y-124550000D01*
X157128000Y-122740000D02*
X157128000Y-121504000D01*
X162052000Y-123935000D02*
X161436000Y-124550000D01*
X162052000Y-118800000D02*
X162052000Y-123935000D01*
X161225000Y-118800000D02*
X162052000Y-118800000D01*
X145730000Y-119770000D02*
X145500000Y-120000000D01*
%TO.N,audio-a*%
X136153000Y-95207900D02*
X134755000Y-93810000D01*
X117775000Y-92436300D02*
X117775000Y-92000000D01*
X134755000Y-93810000D02*
X119149000Y-93810000D01*
X159775000Y-123000000D02*
X159775000Y-118800000D01*
X149865000Y-108890000D02*
X138570000Y-108890000D01*
X119149000Y-93810000D02*
X117775000Y-92436300D01*
X159775000Y-118800000D02*
X149865000Y-108890000D01*
%TO.N,audio-b*%
X119225000Y-92000000D02*
X120052000Y-92000000D01*
X120524000Y-92068300D02*
X120120000Y-92068300D01*
X120120000Y-92068300D02*
X120052000Y-92000000D01*
%TO.N,i2s_ws*%
X113677000Y-92000000D02*
X114853000Y-93176700D01*
X126812000Y-102461000D02*
X160081000Y-102461000D01*
X112500000Y-92000000D02*
X113677000Y-92000000D01*
X160081000Y-102461000D02*
X161430000Y-103810000D01*
X117528000Y-93176700D02*
X126812000Y-102461000D01*
X114853000Y-93176700D02*
X117528000Y-93176700D01*
%TO.N,i2s_bclk*%
X133360000Y-89839900D02*
X157363000Y-89839900D01*
X112500000Y-94540000D02*
X111323000Y-93363300D01*
X111323000Y-93363300D02*
X111323000Y-90984900D01*
X111323000Y-90984900D02*
X113517000Y-88790900D01*
X158902000Y-91378600D02*
X157363000Y-89839900D01*
X132312000Y-88790900D02*
X133360000Y-89839900D01*
X113517000Y-88790900D02*
X132312000Y-88790900D01*
%TO.N,i2s_din*%
X118254000Y-94541500D02*
X120967000Y-97254800D01*
X128707000Y-105080000D02*
X160160000Y-105080000D01*
X115038000Y-94541500D02*
X118254000Y-94541500D01*
X112500000Y-97080000D02*
X115038000Y-94541500D01*
X120967000Y-97254800D02*
X120967000Y-97340300D01*
X120967000Y-97340300D02*
X128707000Y-105080000D01*
X160160000Y-105080000D02*
X161430000Y-106350000D01*
%TO.N,common*%
X118200000Y-96423300D02*
X118200000Y-97500000D01*
X112500000Y-99620000D02*
X115697000Y-96423300D01*
X115697000Y-96423300D02*
X118200000Y-96423300D01*
%TO.N,collector*%
D26*
X180432000Y-66040000D02*
X180392000Y-66000000D01*
X188000000Y-66040000D02*
X180432000Y-66040000D01*
X179540000Y-66000000D02*
X180392000Y-66000000D01*
%TO.N,anode*%
X114160000Y-124000000D02*
X121500000Y-124000000D01*
%TO.N,ir_rx*%
D27*
X137391100Y-110251100D02*
X138570000Y-111430000D01*
X138239400Y-107526700D02*
X137391100Y-108375000D01*
X144219900Y-107246500D02*
X143939700Y-107526700D01*
X137391100Y-108375000D02*
X137391100Y-110251100D01*
X143939700Y-107526700D02*
X138239400Y-107526700D01*
%TO.N,ws_data*%
X138570000Y-98730000D02*
X144869000Y-92430600D01*
X178431000Y-92430600D02*
X180000000Y-94000000D01*
X144869000Y-92430600D02*
X178431000Y-92430600D01*
%TD*%
M02*
